<?xml version="1.0" encoding="UTF-8" standalone="no"?>
<!DOCTYPE svg PUBLIC "-//W3C//DTD SVG 1.1//EN"
 "http://www.w3.org/Graphics/SVG/1.1/DTD/svg11.dtd">
<!-- Generated by graphviz version 2.40.1 (20161225.0304)
 -->
<!-- Title: ServerWorker::responceData Pages: 1 -->
<svg width="205pt" height="310pt"
 viewBox="0.00 0.00 205.04 310.00" xmlns="http://www.w3.org/2000/svg" xmlns:xlink="http://www.w3.org/1999/xlink">
<g id="graph0" class="graph" transform="scale(1 1) rotate(0) translate(4 306)">
<title>ServerWorker::responceData</title>
<!-- Node136 -->
<g id="node1" class="node">
<title>Node136</title>
<polygon fill="#bfbfbf" stroke="#000000" points="0,-.5 0,-66.5 197.043,-66.5 197.043,-.5 0,-.5"/>
<text text-anchor="middle" x="98.5215" y="-51.3" font-family="Helvetica,sans-Serif" font-size="14.00" fill="#000000">ServerWorker::responceData</text>
<polyline fill="none" stroke="#000000" points="0,-44.5 197.043,-44.5 "/>
<text text-anchor="start" x="8" y="-29.3" font-family="Helvetica,sans-Serif" font-size="14.00" fill="#000000">+ diff</text>
<polyline fill="none" stroke="#000000" points="0,-22.5 197.043,-22.5 "/>
<text text-anchor="start" x="8" y="-7.3" font-family="Helvetica,sans-Serif" font-size="14.00" fill="#000000">+ responceData()</text>
</g>
<!-- Node137 -->
<g id="node2" class="node">
<title>Node137</title>
<g id="a_node2"><a xlink:href="$d8/dfa/a00121.html" xlink:title="{MessageForServer\n|+ connectionType\l+ messageType\l|+ toString()\l}">
<polygon fill="none" stroke="#000000" points="31.001,-117.5 31.001,-197.5 166.042,-197.5 166.042,-117.5 31.001,-117.5"/>
<text text-anchor="middle" x="98.5215" y="-182.3" font-family="Helvetica,sans-Serif" font-size="14.00" fill="#000000">MessageForServer</text>
<polyline fill="none" stroke="#000000" points="31.001,-175.5 166.042,-175.5 "/>
<text text-anchor="start" x="39.001" y="-160.3" font-family="Helvetica,sans-Serif" font-size="14.00" fill="#000000">+ connectionType</text>
<text text-anchor="start" x="39.001" y="-146.3" font-family="Helvetica,sans-Serif" font-size="14.00" fill="#000000">+ messageType</text>
<polyline fill="none" stroke="#000000" points="31.001,-139.5 166.042,-139.5 "/>
<text text-anchor="start" x="39.001" y="-124.3" font-family="Helvetica,sans-Serif" font-size="14.00" fill="#000000">+ toString()</text>
</a>
</g>
</g>
<!-- Node137&#45;&gt;Node136 -->
<g id="edge1" class="edge">
<title>Node137&#45;&gt;Node136</title>
<path fill="none" stroke="#404040" d="M98.5215,-117.2408C98.5215,-104.936 98.5215,-91.323 98.5215,-78.7123"/>
<polygon fill="none" stroke="#404040" points="98.5216,-78.5211 94.5215,-72.5211 98.5215,-66.5211 102.5215,-72.521 98.5216,-78.5211"/>
<text text-anchor="middle" x="129.0645" y="-87.8" font-family="Helvetica,sans-Serif" font-size="14.00" fill="#000000"> +messag</text>
</g>
<!-- Node138 -->
<g id="node3" class="node">
<title>Node138</title>
<polygon fill="none" stroke="#bfbfbf" points="64.8457,-235.5 64.8457,-301.5 132.1973,-301.5 132.1973,-235.5 64.8457,-235.5"/>
<text text-anchor="middle" x="98.5215" y="-286.3" font-family="Helvetica,sans-Serif" font-size="14.00" fill="#000000">QObject</text>
<polyline fill="none" stroke="#bfbfbf" points="64.8457,-279.5 132.1973,-279.5 "/>
<text text-anchor="middle" x="98.5215" y="-264.3" font-family="Helvetica,sans-Serif" font-size="14.00" fill="#000000"> </text>
<polyline fill="none" stroke="#bfbfbf" points="64.8457,-257.5 132.1973,-257.5 "/>
<text text-anchor="middle" x="98.5215" y="-242.3" font-family="Helvetica,sans-Serif" font-size="14.00" fill="#000000"> </text>
</g>
<!-- Node138&#45;&gt;Node137 -->
<g id="edge2" class="edge">
<title>Node138&#45;&gt;Node137</title>
<path fill="none" stroke="#191970" d="M98.5215,-225.4312C98.5215,-216.2871 98.5215,-206.6684 98.5215,-197.6385"/>
<polygon fill="none" stroke="#191970" points="95.0216,-225.4968 98.5215,-235.4969 102.0216,-225.4969 95.0216,-225.4968"/>
</g>
</g>
</svg>
