<?xml version="1.0" encoding="UTF-8" standalone="no"?>
<!DOCTYPE svg PUBLIC "-//W3C//DTD SVG 1.1//EN"
 "http://www.w3.org/Graphics/SVG/1.1/DTD/svg11.dtd">
<!-- Generated by graphviz version 2.40.1 (20161225.0304)
 -->
<!-- Title: std::forward_list&lt; T &gt; Pages: 1 -->
<svg width="154pt" height="192pt"
 viewBox="0.00 0.00 154.22 192.00" xmlns="http://www.w3.org/2000/svg" xmlns:xlink="http://www.w3.org/1999/xlink">
<g id="graph0" class="graph" transform="scale(1 1) rotate(0) translate(4 188)">
<title>std::forward_list&lt; T &gt;</title>
<!-- Node424 -->
<g id="node1" class="node">
<title>Node424</title>
<polygon fill="#bfbfbf" stroke="#000000" points="0,-.5 0,-66.5 146.2246,-66.5 146.2246,-.5 0,-.5"/>
<text text-anchor="middle" x="73.1123" y="-51.3" font-family="Helvetica,sans-Serif" font-size="14.00" fill="#000000">std::forward_list&lt; T &gt;</text>
<polyline fill="none" stroke="#000000" points="0,-44.5 146.2246,-44.5 "/>
<text text-anchor="middle" x="73.1123" y="-29.3" font-family="Helvetica,sans-Serif" font-size="14.00" fill="#000000"> </text>
<polyline fill="none" stroke="#000000" points="0,-22.5 146.2246,-22.5 "/>
<text text-anchor="middle" x="73.1123" y="-7.3" font-family="Helvetica,sans-Serif" font-size="14.00" fill="#000000"> </text>
</g>
<!-- Node425 -->
<g id="node2" class="node">
<title>Node425</title>
<polygon fill="none" stroke="#bfbfbf" points="58.6123,-117.5 58.6123,-183.5 87.6123,-183.5 87.6123,-117.5 58.6123,-117.5"/>
<text text-anchor="middle" x="72.8882" y="-168.3" font-family="Helvetica,sans-Serif" font-size="14.00" fill="#000000">T</text>
<polyline fill="none" stroke="#bfbfbf" points="58.6123,-161.5 87.1641,-161.5 "/>
<text text-anchor="middle" x="72.8882" y="-146.3" font-family="Helvetica,sans-Serif" font-size="14.00" fill="#000000"> </text>
<polyline fill="none" stroke="#bfbfbf" points="58.6123,-139.5 87.1641,-139.5 "/>
<text text-anchor="middle" x="72.8882" y="-124.3" font-family="Helvetica,sans-Serif" font-size="14.00" fill="#000000"> </text>
</g>
<!-- Node425&#45;&gt;Node424 -->
<g id="edge1" class="edge">
<title>Node425&#45;&gt;Node424</title>
<path fill="none" stroke="#404040" d="M73.1123,-117.2855C73.1123,-105.4288 73.1123,-91.8562 73.1123,-79.1371"/>
<polygon fill="none" stroke="#404040" points="73.1124,-78.7976 69.1124,-72.7976 73.1123,-66.7976 77.1124,-72.7976 73.1124,-78.7976"/>
<text text-anchor="middle" x="107.5483" y="-87.8" font-family="Helvetica,sans-Serif" font-size="14.00" fill="#000000"> +elements</text>
</g>
</g>
</svg>
