<?xml version="1.0" encoding="UTF-8" standalone="no"?>
<!DOCTYPE svg PUBLIC "-//W3C//DTD SVG 1.1//EN"
 "http://www.w3.org/Graphics/SVG/1.1/DTD/svg11.dtd">
<!-- Generated by graphviz version 2.40.1 (20161225.0304)
 -->
<!-- Title: Core/GameElements/basetank.cpp Pages: 1 -->
<!--zoomable 326 -->
<svg id="main" version="1.1" xmlns="http://www.w3.org/2000/svg" xmlns:xlink="http://www.w3.org/1999/xlink" xml:space="preserve" onload="init(evt)">
<style type="text/css"><![CDATA[
.edge:hover path { stroke: red; }
.edge:hover polygon { stroke: red; fill: red; }
]]></style>
<script type="text/javascript"><![CDATA[
var edges = document.getElementsByTagName('g');
if (edges && edges.length) {
  for (var i=0;i<edges.length;i++) {
    if (edges[i].id.substr(0,4)=='edge') {
      edges[i].setAttribute('class','edge');
    }
  }
}
]]></script>
        <defs>
                <circle id="rim" cx="0" cy="0" r="7"/>
                <circle id="rim2" cx="0" cy="0" r="3.5"/>
                <g id="zoomPlus">
                        <use xlink:href="#rim" fill="#404040">
                                <set attributeName="fill" to="#808080" begin="zoomplus.mouseover" end="zoomplus.mouseout"/>
                        </use>
                        <path d="M-4,0h8M0,-4v8" fill="none" stroke="white" stroke-width="1.5" pointer-events="none"/>
                </g>
                <g id="zoomMin">
                        <use xlink:href="#rim" fill="#404040">
                                <set attributeName="fill" to="#808080" begin="zoomminus.mouseover" end="zoomminus.mouseout"/>
                        </use>
                        <path d="M-4,0h8" fill="none" stroke="white" stroke-width="1.5" pointer-events="none"/>
                </g>
                <g id="dirArrow">
                        <path fill="none" stroke="white" stroke-width="1.5" d="M0,-3.0v7 M-2.5,-0.5L0,-3.0L2.5,-0.5"/>
                </g>
               <g id="resetDef">
                       <use xlink:href="#rim2" fill="#404040">
                               <set attributeName="fill" to="#808080" begin="reset.mouseover" end="reset.mouseout"/>
                       </use>
               </g>
        </defs>

<script type="text/javascript">
var viewWidth = 721;
var viewHeight = 326;
var sectionId = 'dynsection-0';
</script>
<script xlink:href="../../svgpan.js"/>
<svg id="graph" class="graph">
<g id="viewport">
<title>Core/GameElements/basetank.cpp</title>
<!-- Node0 -->
<g id="node1" class="node">
<title>Node0</title>
<polygon fill="#bfbfbf" stroke="#000000" points="464.7314,-295.5 464.7314,-317.5 698.6201,-317.5 698.6201,-295.5 464.7314,-295.5"/>
<text text-anchor="middle" x="581.6758" y="-302.3" font-family="Helvetica,sans-Serif" font-size="14.00" fill="#000000">Core/GameElements/basetank.cpp</text>
</g>
<!-- Node1 -->
<g id="node2" class="node">
<title>Node1</title>
<g id="a_node2"><a xlink:href="../../dd/d32/a00041.html" target="_top" xlink:title="basetank.h">
<polygon fill="none" stroke="#000000" points="410.4277,-236.5 410.4277,-258.5 494.9238,-258.5 494.9238,-236.5 410.4277,-236.5"/>
<text text-anchor="middle" x="452.6758" y="-243.3" font-family="Helvetica,sans-Serif" font-size="14.00" fill="#000000">basetank.h</text>
</a>
</g>
</g>
<!-- Node0&#45;&gt;Node1 -->
<g id="edge1" class="edge">
<title>Node0&#45;&gt;Node1</title>
<path fill="none" stroke="#191970" d="M557.4119,-295.4026C537.2316,-286.1728 508.3021,-272.9415 485.9587,-262.7224"/>
<polygon fill="#191970" stroke="#191970" points="487.3806,-259.5241 476.8309,-258.5477 484.4691,-265.8899 487.3806,-259.5241"/>
</g>
<!-- Node5 -->
<g id="node6" class="node">
<title>Node5</title>
<polygon fill="none" stroke="#bfbfbf" points="171.8828,-.5 171.8828,-22.5 273.4688,-22.5 273.4688,-.5 171.8828,-.5"/>
<text text-anchor="middle" x="222.6758" y="-7.3" font-family="Helvetica,sans-Serif" font-size="14.00" fill="#000000">QDataStream</text>
</g>
<!-- Node0&#45;&gt;Node5 -->
<g id="edge14" class="edge">
<title>Node0&#45;&gt;Node5</title>
<path fill="none" stroke="#191970" d="M610.527,-295.4223C648.826,-278.61 711.6758,-242.7553 711.6758,-188.5 711.6758,-188.5 711.6758,-188.5 711.6758,-129.5 711.6758,-97.0487 717.4093,-80.0081 692.6758,-59 662.1171,-33.0441 404.0009,-19.0259 283.8064,-13.853"/>
<polygon fill="#191970" stroke="#191970" points="283.7966,-10.3495 273.6574,-13.4231 283.5003,-17.3432 283.7966,-10.3495"/>
</g>
<!-- Node2 -->
<g id="node3" class="node">
<title>Node2</title>
<g id="a_node3"><a xlink:href="../../d6/d2d/a00047.html" target="_top" xlink:title="../ibasegameelement.h">
<polygon fill="none" stroke="#000000" points="301.8555,-118.5 301.8555,-140.5 459.4961,-140.5 459.4961,-118.5 301.8555,-118.5"/>
<text text-anchor="middle" x="380.6758" y="-125.3" font-family="Helvetica,sans-Serif" font-size="14.00" fill="#000000">../ibasegameelement.h</text>
</a>
</g>
</g>
<!-- Node1&#45;&gt;Node2 -->
<g id="edge2" class="edge">
<title>Node1&#45;&gt;Node2</title>
<path fill="none" stroke="#191970" d="M435.7268,-236.3382C423.9574,-227.7402 408.8067,-214.8375 399.6758,-200 390.411,-184.9449 385.6019,-165.3718 383.1434,-150.6704"/>
<polygon fill="#191970" stroke="#191970" points="386.5736,-149.9337 381.6867,-140.5333 379.6448,-150.9295 386.5736,-149.9337"/>
</g>
<!-- Node11 -->
<g id="node12" class="node">
<title>Node11</title>
<g id="a_node12"><a xlink:href="../../d4/d8c/a00035.html" target="_top" xlink:title="basebulet.h">
<polygon fill="none" stroke="#000000" points="408.4795,-177.5 408.4795,-199.5 496.8721,-199.5 496.8721,-177.5 408.4795,-177.5"/>
<text text-anchor="middle" x="452.6758" y="-184.3" font-family="Helvetica,sans-Serif" font-size="14.00" fill="#000000">basebulet.h</text>
</a>
</g>
</g>
<!-- Node1&#45;&gt;Node11 -->
<g id="edge12" class="edge">
<title>Node1&#45;&gt;Node11</title>
<path fill="none" stroke="#191970" d="M452.6758,-236.4026C452.6758,-228.9034 452.6758,-218.7626 452.6758,-209.7421"/>
<polygon fill="#191970" stroke="#191970" points="456.1759,-209.5477 452.6758,-199.5477 449.1759,-209.5477 456.1759,-209.5477"/>
</g>
<!-- Node3 -->
<g id="node4" class="node">
<title>Node3</title>
<polygon fill="none" stroke="#bfbfbf" points="0,-59.5 0,-81.5 67.3516,-81.5 67.3516,-59.5 0,-59.5"/>
<text text-anchor="middle" x="33.6758" y="-66.3" font-family="Helvetica,sans-Serif" font-size="14.00" fill="#000000">QObject</text>
</g>
<!-- Node2&#45;&gt;Node3 -->
<g id="edge3" class="edge">
<title>Node2&#45;&gt;Node3</title>
<path fill="none" stroke="#191970" d="M301.5531,-119.6701C242.1348,-111.7122 158.6201,-99.3089 77.4116,-82.226"/>
<polygon fill="#191970" stroke="#191970" points="78.031,-78.7795 67.5213,-80.1195 76.5728,-85.626 78.031,-78.7795"/>
</g>
<!-- Node4 -->
<g id="node5" class="node">
<title>Node4</title>
<g id="a_node5"><a xlink:href="../../d3/d8b/a00059.html" target="_top" xlink:title="infinitydouble.h">
<polygon fill="none" stroke="#000000" points="84.9761,-59.5 84.9761,-81.5 194.3755,-81.5 194.3755,-59.5 84.9761,-59.5"/>
<text text-anchor="middle" x="139.6758" y="-66.3" font-family="Helvetica,sans-Serif" font-size="14.00" fill="#000000">infinitydouble.h</text>
</a>
</g>
</g>
<!-- Node2&#45;&gt;Node4 -->
<g id="edge4" class="edge">
<title>Node2&#45;&gt;Node4</title>
<path fill="none" stroke="#191970" d="M335.6282,-118.4718C295.7721,-108.7144 237.4883,-94.4458 194.8473,-84.0067"/>
<polygon fill="#191970" stroke="#191970" points="195.4565,-80.5526 184.911,-81.5742 193.7919,-87.3518 195.4565,-80.5526"/>
</g>
<!-- Node2&#45;&gt;Node5 -->
<g id="edge8" class="edge">
<title>Node2&#45;&gt;Node5</title>
<path fill="none" stroke="#191970" d="M333.5033,-118.4417C298.4157,-109.3151 254.485,-95.6843 241.6758,-82 229.2678,-68.7444 224.7966,-48.252 223.2651,-32.7706"/>
<polygon fill="#191970" stroke="#191970" points="226.7426,-32.309 222.5981,-22.5584 219.7574,-32.7653 226.7426,-32.309"/>
</g>
<!-- Node6 -->
<g id="node7" class="node">
<title>Node6</title>
<polygon fill="none" stroke="#bfbfbf" points="251,-59.5 251,-81.5 318.3516,-81.5 318.3516,-59.5 251,-59.5"/>
<text text-anchor="middle" x="284.6758" y="-66.3" font-family="Helvetica,sans-Serif" font-size="14.00" fill="#000000">QPointF</text>
</g>
<!-- Node2&#45;&gt;Node6 -->
<g id="edge6" class="edge">
<title>Node2&#45;&gt;Node6</title>
<path fill="none" stroke="#191970" d="M362.6189,-118.4026C348.1374,-109.5025 327.6016,-96.8815 311.2442,-86.8285"/>
<polygon fill="#191970" stroke="#191970" points="313.0039,-83.8019 302.6517,-81.5477 309.3387,-89.7656 313.0039,-83.8019"/>
</g>
<!-- Node7 -->
<g id="node8" class="node">
<title>Node7</title>
<polygon fill="none" stroke="#bfbfbf" points="336.5,-59.5 336.5,-81.5 424.8516,-81.5 424.8516,-59.5 336.5,-59.5"/>
<text text-anchor="middle" x="380.6758" y="-66.3" font-family="Helvetica,sans-Serif" font-size="14.00" fill="#000000">QByteArray</text>
</g>
<!-- Node2&#45;&gt;Node7 -->
<g id="edge7" class="edge">
<title>Node2&#45;&gt;Node7</title>
<path fill="none" stroke="#191970" d="M380.6758,-118.4026C380.6758,-110.9034 380.6758,-100.7626 380.6758,-91.7421"/>
<polygon fill="#191970" stroke="#191970" points="384.1759,-91.5477 380.6758,-81.5477 377.1759,-91.5477 384.1759,-91.5477"/>
</g>
<!-- Node8 -->
<g id="node9" class="node">
<title>Node8</title>
<polygon fill="none" stroke="#bfbfbf" points="442.9448,-59.5 442.9448,-81.5 506.4067,-81.5 506.4067,-59.5 442.9448,-59.5"/>
<text text-anchor="middle" x="474.6758" y="-66.3" font-family="Helvetica,sans-Serif" font-size="14.00" fill="#000000">QString</text>
</g>
<!-- Node2&#45;&gt;Node8 -->
<g id="edge9" class="edge">
<title>Node2&#45;&gt;Node8</title>
<path fill="none" stroke="#191970" d="M398.3565,-118.4026C412.405,-109.5849 432.2724,-97.1149 448.2149,-87.1084"/>
<polygon fill="#191970" stroke="#191970" points="450.4652,-89.8284 457.0744,-81.5477 446.7438,-83.8995 450.4652,-89.8284"/>
</g>
<!-- Node9 -->
<g id="node10" class="node">
<title>Node9</title>
<polygon fill="none" stroke="#bfbfbf" points="523.9321,-59.5 523.9321,-81.5 581.4194,-81.5 581.4194,-59.5 523.9321,-59.5"/>
<text text-anchor="middle" x="552.6758" y="-66.3" font-family="Helvetica,sans-Serif" font-size="14.00" fill="#000000">QTime</text>
</g>
<!-- Node2&#45;&gt;Node9 -->
<g id="edge10" class="edge">
<title>Node2&#45;&gt;Node9</title>
<path fill="none" stroke="#191970" d="M413.0277,-118.4026C441.7046,-108.5657 483.6322,-94.1836 514.0575,-83.747"/>
<polygon fill="#191970" stroke="#191970" points="515.5756,-86.9265 523.899,-80.3711 513.3043,-80.3052 515.5756,-86.9265"/>
</g>
<!-- Node10 -->
<g id="node11" class="node">
<title>Node10</title>
<polygon fill="none" stroke="#bfbfbf" points="599.4346,-59.5 599.4346,-81.5 683.917,-81.5 683.917,-59.5 599.4346,-59.5"/>
<text text-anchor="middle" x="641.6758" y="-66.3" font-family="Helvetica,sans-Serif" font-size="14.00" fill="#000000">QVector3D</text>
</g>
<!-- Node2&#45;&gt;Node10 -->
<g id="edge11" class="edge">
<title>Node2&#45;&gt;Node10</title>
<path fill="none" stroke="#191970" d="M429.4617,-118.4718C474.9605,-108.1866 542.6339,-92.8888 589.2658,-82.3475"/>
<polygon fill="#191970" stroke="#191970" points="590.1917,-85.7266 599.1738,-80.1077 588.6482,-78.8988 590.1917,-85.7266"/>
</g>
<!-- Node4&#45;&gt;Node5 -->
<g id="edge5" class="edge">
<title>Node4&#45;&gt;Node5</title>
<path fill="none" stroke="#191970" d="M155.2874,-59.4026C167.5761,-50.6673 184.907,-38.3477 198.9158,-28.3896"/>
<polygon fill="#191970" stroke="#191970" points="201.0114,-31.1942 207.1341,-22.5477 196.9557,-25.4888 201.0114,-31.1942"/>
</g>
<!-- Node11&#45;&gt;Node2 -->
<g id="edge13" class="edge">
<title>Node11&#45;&gt;Node2</title>
<path fill="none" stroke="#191970" d="M439.1331,-177.4026C428.6743,-168.8321 414.0048,-156.8113 401.9778,-146.9558"/>
<polygon fill="#191970" stroke="#191970" points="404.1109,-144.1788 394.1577,-140.5477 399.6741,-149.5931 404.1109,-144.1788"/>
</g>
</g>
</svg>
        <g id="navigator" transform="translate(0 0)" fill="#404254">
                <rect fill="#f2f5e9" fill-opacity="0.5" stroke="#606060" stroke-width=".5" x="0" y="0" width="60" height="60"/>
                <use id="zoomplus" xlink:href="#zoomPlus" x="17" y="9" onmousedown="handleZoom(evt,'in')"/>
                <use id="zoomminus" xlink:href="#zoomMin" x="42" y="9" onmousedown="handleZoom(evt,'out')"/>
                <use id="reset" xlink:href="#resetDef" x="30" y="36" onmousedown="handleReset()"/>
                <g id="arrowUp" xlink:href="#dirArrow" transform="translate(30 24)" onmousedown="handlePan(0,-1)">
                  <use xlink:href="#rim" fill="#404040">
                        <set attributeName="fill" to="#808080" begin="arrowUp.mouseover" end="arrowUp.mouseout"/>
                  </use>
                  <path fill="none" stroke="white" stroke-width="1.5" d="M0,-3.0v7 M-2.5,-0.5L0,-3.0L2.5,-0.5"/>
                </g>
                <g id="arrowRight" xlink:href="#dirArrow" transform="rotate(90) translate(36 -43)" onmousedown="handlePan(1,0)">
                  <use xlink:href="#rim" fill="#404040">
                        <set attributeName="fill" to="#808080" begin="arrowRight.mouseover" end="arrowRight.mouseout"/>
                  </use>
                  <path fill="none" stroke="white" stroke-width="1.5" d="M0,-3.0v7 M-2.5,-0.5L0,-3.0L2.5,-0.5"/>
                </g>
                <g id="arrowDown" xlink:href="#dirArrow" transform="rotate(180) translate(-30 -48)" onmousedown="handlePan(0,1)">
                  <use xlink:href="#rim" fill="#404040">
                        <set attributeName="fill" to="#808080" begin="arrowDown.mouseover" end="arrowDown.mouseout"/>
                  </use>
                  <path fill="none" stroke="white" stroke-width="1.5" d="M0,-3.0v7 M-2.5,-0.5L0,-3.0L2.5,-0.5"/>
                </g>
                <g id="arrowLeft" xlink:href="#dirArrow" transform="rotate(270) translate(-36 17)" onmousedown="handlePan(-1,0)">
                  <use xlink:href="#rim" fill="#404040">
                        <set attributeName="fill" to="#808080" begin="arrowLeft.mouseover" end="arrowLeft.mouseout"/>
                  </use>
                  <path fill="none" stroke="white" stroke-width="1.5" d="M0,-3.0v7 M-2.5,-0.5L0,-3.0L2.5,-0.5"/>
                </g>
        </g>
        <svg viewBox="0 0 15 15" width="100%" height="30px" preserveAspectRatio="xMaxYMin meet">
         <g id="arrow_out" transform="scale(0.3 0.3)">
          <a xlink:href="a00039_org.svg" target="_base">
           <rect id="button" ry="5" rx="5" y="6" x="6" height="38" width="38"
                fill="#f2f5e9" fill-opacity="0.5" stroke="#606060" stroke-width="1.0"/>
           <path id="arrow"
             d="M 11.500037,31.436501 C 11.940474,20.09759 22.043105,11.32322 32.158766,21.979434 L 37.068811,17.246167 C 37.068811,17.246167 37.088388,32 37.088388,32 L 22.160133,31.978069 C 22.160133,31.978069 26.997745,27.140456 26.997745,27.140456 C 18.528582,18.264221 13.291696,25.230495 11.500037,31.436501 z"
             style="fill:#404040;"/>
          </a>
         </g>
        </svg>
</svg>
