<?xml version="1.0" encoding="UTF-8" standalone="no"?>
<!DOCTYPE svg PUBLIC "-//W3C//DTD SVG 1.1//EN"
 "http://www.w3.org/Graphics/SVG/1.1/DTD/svg11.dtd">
<!-- Generated by graphviz version 2.40.1 (20161225.0304)
 -->
<!-- Title: Core/connection/mailboxelement.h Pages: 1 -->
<svg width="989pt" height="267pt"
 viewBox="0.00 0.00 989.19 267.00" xmlns="http://www.w3.org/2000/svg" xmlns:xlink="http://www.w3.org/1999/xlink">
<g id="graph0" class="graph" transform="scale(1 1) rotate(0) translate(4 263)">
<title>Core/connection/mailboxelement.h</title>
<!-- Node0 -->
<g id="node1" class="node">
<title>Node0</title>
<polygon fill="#bfbfbf" stroke="#000000" points="588.5464,-236.5 588.5464,-258.5 820.1109,-258.5 820.1109,-236.5 588.5464,-236.5"/>
<text text-anchor="middle" x="704.3286" y="-243.3" font-family="Helvetica,sans-Serif" font-size="14.00" fill="#000000">Core/connection/mailboxelement.h</text>
</g>
<!-- Node1 -->
<g id="node2" class="node">
<title>Node1</title>
<g id="a_node2"><a xlink:href="../../d1/d70/simpleconnection_8h.html" target="_top" xlink:title="simpleconnection.h">
<polygon fill="none" stroke="#000000" points="514.4048,-177.5 514.4048,-199.5 650.2525,-199.5 650.2525,-177.5 514.4048,-177.5"/>
<text text-anchor="middle" x="582.3286" y="-184.3" font-family="Helvetica,sans-Serif" font-size="14.00" fill="#000000">simpleconnection.h</text>
</a>
</g>
</g>
<!-- Node0&#45;&gt;Node1 -->
<g id="edge1" class="edge">
<title>Node0&#45;&gt;Node1</title>
<path fill="none" stroke="#191970" d="M681.3814,-236.4026C662.4666,-227.2552 635.4244,-214.1775 614.373,-203.9969"/>
<polygon fill="#191970" stroke="#191970" points="615.6994,-200.7505 605.173,-199.5477 612.6517,-207.0523 615.6994,-200.7505"/>
</g>
<!-- Node5 -->
<g id="node6" class="node">
<title>Node5</title>
<polygon fill="none" stroke="#bfbfbf" points="808.8667,-118.5 808.8667,-140.5 877.7906,-140.5 877.7906,-118.5 808.8667,-118.5"/>
<text text-anchor="middle" x="843.3286" y="-125.3" font-family="Helvetica,sans-Serif" font-size="14.00" fill="#000000">QQueue</text>
</g>
<!-- Node0&#45;&gt;Node5 -->
<g id="edge21" class="edge">
<title>Node0&#45;&gt;Node5</title>
<path fill="none" stroke="#191970" d="M698.9783,-236.2802C692.6867,-221.2696 684.6079,-194.5157 697.3286,-177 703.5508,-168.4325 758.2975,-152.2005 798.9334,-141.1195"/>
<polygon fill="#191970" stroke="#191970" points="799.9213,-144.4782 808.6621,-138.4908 798.0953,-137.7205 799.9213,-144.4782"/>
</g>
<!-- Node8 -->
<g id="node9" class="node">
<title>Node8</title>
<g id="a_node9"><a xlink:href="../../d0/d4c/ibasegameelement_8h.html" target="_top" xlink:title="ibasegameelement.h">
<polygon fill="none" stroke="#000000" points="245.3428,-118.5 245.3428,-140.5 391.3145,-140.5 391.3145,-118.5 245.3428,-118.5"/>
<text text-anchor="middle" x="318.3286" y="-125.3" font-family="Helvetica,sans-Serif" font-size="14.00" fill="#000000">ibasegameelement.h</text>
</a>
</g>
</g>
<!-- Node0&#45;&gt;Node8 -->
<g id="edge18" class="edge">
<title>Node0&#45;&gt;Node8</title>
<path fill="none" stroke="#191970" d="M649.776,-236.4242C609.5051,-227.7788 553.5515,-214.7808 505.3286,-200 451.7342,-183.5728 391.3065,-159.8005 354.0168,-144.4971"/>
<polygon fill="#191970" stroke="#191970" points="355.1746,-141.1886 344.5956,-140.6086 352.5039,-147.6591 355.1746,-141.1886"/>
</g>
<!-- Node15 -->
<g id="node16" class="node">
<title>Node15</title>
<polygon fill="none" stroke="#bfbfbf" points="705.9908,-177.5 705.9908,-199.5 754.6665,-199.5 754.6665,-177.5 705.9908,-177.5"/>
<text text-anchor="middle" x="730.3286" y="-184.3" font-family="Helvetica,sans-Serif" font-size="14.00" fill="#000000">QList</text>
</g>
<!-- Node0&#45;&gt;Node15 -->
<g id="edge19" class="edge">
<title>Node0&#45;&gt;Node15</title>
<path fill="none" stroke="#191970" d="M709.219,-236.4026C712.6327,-228.6562 717.2885,-218.0911 721.3592,-208.8538"/>
<polygon fill="#191970" stroke="#191970" points="724.6303,-210.11 725.4602,-199.5477 718.2247,-207.2871 724.6303,-210.11"/>
</g>
<!-- Node16 -->
<g id="node17" class="node">
<title>Node16</title>
<polygon fill="none" stroke="#bfbfbf" points="772.8218,-177.5 772.8218,-199.5 837.8355,-199.5 837.8355,-177.5 772.8218,-177.5"/>
<text text-anchor="middle" x="805.3286" y="-184.3" font-family="Helvetica,sans-Serif" font-size="14.00" fill="#000000">QMutex</text>
</g>
<!-- Node0&#45;&gt;Node16 -->
<g id="edge20" class="edge">
<title>Node0&#45;&gt;Node16</title>
<path fill="none" stroke="#191970" d="M723.326,-236.4026C738.5617,-227.5025 760.1671,-214.8815 777.3764,-204.8285"/>
<polygon fill="#191970" stroke="#191970" points="779.5472,-207.6139 786.4165,-199.5477 776.0164,-201.5696 779.5472,-207.6139"/>
</g>
<!-- Node17 -->
<g id="node18" class="node">
<title>Node17</title>
<polygon fill="none" stroke="#bfbfbf" points="855.4634,-177.5 855.4634,-199.5 981.1939,-199.5 981.1939,-177.5 855.4634,-177.5"/>
<text text-anchor="middle" x="918.3286" y="-184.3" font-family="Helvetica,sans-Serif" font-size="14.00" fill="#000000">qtconcurrentrun.h</text>
</g>
<!-- Node0&#45;&gt;Node17 -->
<g id="edge22" class="edge">
<title>Node0&#45;&gt;Node17</title>
<path fill="none" stroke="#191970" d="M744.3294,-236.4718C779.4217,-226.7968 830.6021,-212.6863 868.3767,-202.2718"/>
<polygon fill="#191970" stroke="#191970" points="869.4512,-205.6062 878.1613,-199.5742 867.5907,-198.858 869.4512,-205.6062"/>
</g>
<!-- Node2 -->
<g id="node3" class="node">
<title>Node2</title>
<polygon fill="none" stroke="#bfbfbf" points="645.8116,-118.5 645.8116,-140.5 752.8457,-140.5 752.8457,-118.5 645.8116,-118.5"/>
<text text-anchor="middle" x="699.3286" y="-125.3" font-family="Helvetica,sans-Serif" font-size="14.00" fill="#000000">QHostAddress</text>
</g>
<!-- Node1&#45;&gt;Node2 -->
<g id="edge2" class="edge">
<title>Node1&#45;&gt;Node2</title>
<path fill="none" stroke="#191970" d="M604.3354,-177.4026C622.3933,-168.2964 648.1754,-155.2952 668.3244,-145.1346"/>
<polygon fill="#191970" stroke="#191970" points="670.0675,-148.1755 677.4205,-140.5477 666.9156,-141.9252 670.0675,-148.1755"/>
</g>
<!-- Node3 -->
<g id="node4" class="node">
<title>Node3</title>
<polygon fill="none" stroke="#bfbfbf" points="592.6529,-59.5 592.6529,-81.5 660.0044,-81.5 660.0044,-59.5 592.6529,-59.5"/>
<text text-anchor="middle" x="626.3286" y="-66.3" font-family="Helvetica,sans-Serif" font-size="14.00" fill="#000000">QObject</text>
</g>
<!-- Node1&#45;&gt;Node3 -->
<g id="edge3" class="edge">
<title>Node1&#45;&gt;Node3</title>
<path fill="none" stroke="#191970" d="M514.0067,-178.8703C465.3968,-169.0681 412.8638,-150.5602 438.3286,-118 477.3176,-68.1474 515.2973,-95.6828 582.4237,-81.9387"/>
<polygon fill="#191970" stroke="#191970" points="583.5891,-85.2616 592.5426,-79.5972 582.011,-78.4417 583.5891,-85.2616"/>
</g>
<!-- Node4 -->
<g id="node5" class="node">
<title>Node4</title>
<polygon fill="none" stroke="#bfbfbf" points="447.7046,-118.5 447.7046,-140.5 518.9527,-140.5 518.9527,-118.5 447.7046,-118.5"/>
<text text-anchor="middle" x="483.3286" y="-125.3" font-family="Helvetica,sans-Serif" font-size="14.00" fill="#000000">QThread</text>
</g>
<!-- Node1&#45;&gt;Node4 -->
<g id="edge4" class="edge">
<title>Node1&#45;&gt;Node4</title>
<path fill="none" stroke="#191970" d="M563.7075,-177.4026C548.7734,-168.5025 527.5959,-155.8815 510.7274,-145.8285"/>
<polygon fill="#191970" stroke="#191970" points="512.2483,-142.6606 501.8663,-140.5477 508.6647,-148.6737 512.2483,-142.6606"/>
</g>
<!-- Node1&#45;&gt;Node5 -->
<g id="edge5" class="edge">
<title>Node1&#45;&gt;Node5</title>
<path fill="none" stroke="#191970" d="M632.7318,-177.4941C675.9237,-168.0067 739.7744,-153.8485 795.3286,-141 796.414,-140.749 797.5129,-140.4938 798.6211,-140.2355"/>
<polygon fill="#191970" stroke="#191970" points="799.8029,-143.5532 808.7359,-137.8565 798.2002,-136.7391 799.8029,-143.5532"/>
</g>
<!-- Node6 -->
<g id="node7" class="node">
<title>Node6</title>
<polygon fill="none" stroke="#bfbfbf" points="536.5909,-118.5 536.5909,-140.5 628.0664,-140.5 628.0664,-118.5 536.5909,-118.5"/>
<text text-anchor="middle" x="582.3286" y="-125.3" font-family="Helvetica,sans-Serif" font-size="14.00" fill="#000000">QTcpSocket</text>
</g>
<!-- Node1&#45;&gt;Node6 -->
<g id="edge6" class="edge">
<title>Node1&#45;&gt;Node6</title>
<path fill="none" stroke="#191970" d="M582.3286,-177.4026C582.3286,-169.9034 582.3286,-159.7626 582.3286,-150.7421"/>
<polygon fill="#191970" stroke="#191970" points="585.8287,-150.5477 582.3286,-140.5477 578.8287,-150.5477 585.8287,-150.5477"/>
</g>
<!-- Node7 -->
<g id="node8" class="node">
<title>Node7</title>
<polygon fill="none" stroke="#bfbfbf" points="18.5357,-.5 18.5357,-22.5 120.1216,-22.5 120.1216,-.5 18.5357,-.5"/>
<text text-anchor="middle" x="69.3286" y="-7.3" font-family="Helvetica,sans-Serif" font-size="14.00" fill="#000000">QDataStream</text>
</g>
<!-- Node1&#45;&gt;Node7 -->
<g id="edge7" class="edge">
<title>Node1&#45;&gt;Node7</title>
<path fill="none" stroke="#191970" d="M650.7256,-179.2018C695.6077,-171.5376 748.4728,-158.9866 762.3286,-141 768.5669,-132.902 767.2539,-126.9574 762.3286,-118 738.7438,-75.107 715.7597,-74.4986 669.3286,-59 570.7749,-26.1029 263.2727,-15.6522 130.9217,-12.626"/>
<polygon fill="#191970" stroke="#191970" points="130.6372,-9.119 120.562,-12.3962 130.4819,-16.1172 130.6372,-9.119"/>
</g>
<!-- Node1&#45;&gt;Node8 -->
<g id="edge8" class="edge">
<title>Node1&#45;&gt;Node8</title>
<path fill="none" stroke="#191970" d="M532.982,-177.4718C489.0458,-167.6527 424.6669,-153.265 377.8806,-142.809"/>
<polygon fill="#191970" stroke="#191970" points="378.4036,-139.3396 367.8809,-140.5742 376.8768,-146.171 378.4036,-139.3396"/>
</g>
<!-- Node8&#45;&gt;Node3 -->
<g id="edge9" class="edge">
<title>Node8&#45;&gt;Node3</title>
<path fill="none" stroke="#191970" d="M388.9512,-118.4981C440.1179,-110.1449 511.1387,-97.7674 582.5208,-82.049"/>
<polygon fill="#191970" stroke="#191970" points="583.5918,-85.3964 592.5935,-79.809 582.0722,-78.5634 583.5918,-85.3964"/>
</g>
<!-- Node8&#45;&gt;Node7 -->
<g id="edge14" class="edge">
<title>Node8&#45;&gt;Node7</title>
<path fill="none" stroke="#191970" d="M245.0846,-123.3728C157.5244,-115.2921 20.7805,-99.9737 5.3286,-82 -11.0116,-62.993 14.4573,-41.7689 37.9407,-27.6221"/>
<polygon fill="#191970" stroke="#191970" points="39.8206,-30.5787 46.7524,-22.5661 36.3368,-24.5072 39.8206,-30.5787"/>
</g>
<!-- Node9 -->
<g id="node10" class="node">
<title>Node9</title>
<g id="a_node10"><a xlink:href="../../d5/df2/infinitydouble_8h.html" target="_top" xlink:title="infinitydouble.h">
<polygon fill="none" stroke="#000000" points="14.6289,-59.5 14.6289,-81.5 124.0284,-81.5 124.0284,-59.5 14.6289,-59.5"/>
<text text-anchor="middle" x="69.3286" y="-66.3" font-family="Helvetica,sans-Serif" font-size="14.00" fill="#000000">infinitydouble.h</text>
</a>
</g>
</g>
<!-- Node8&#45;&gt;Node9 -->
<g id="edge10" class="edge">
<title>Node8&#45;&gt;Node9</title>
<path fill="none" stroke="#191970" d="M271.7857,-118.4718C230.5197,-108.6939 170.1338,-94.3856 126.0529,-83.9407"/>
<polygon fill="#191970" stroke="#191970" points="126.603,-80.4742 116.0654,-81.5742 124.989,-87.2856 126.603,-80.4742"/>
</g>
<!-- Node10 -->
<g id="node11" class="node">
<title>Node10</title>
<polygon fill="none" stroke="#bfbfbf" points="141.6529,-59.5 141.6529,-81.5 209.0044,-81.5 209.0044,-59.5 141.6529,-59.5"/>
<text text-anchor="middle" x="175.3286" y="-66.3" font-family="Helvetica,sans-Serif" font-size="14.00" fill="#000000">QPointF</text>
</g>
<!-- Node8&#45;&gt;Node10 -->
<g id="edge12" class="edge">
<title>Node8&#45;&gt;Node10</title>
<path fill="none" stroke="#191970" d="M291.4314,-118.4026C268.8613,-109.0904 236.4185,-95.7049 211.562,-85.4494"/>
<polygon fill="#191970" stroke="#191970" points="212.6843,-82.1263 202.1052,-81.5477 210.0144,-88.5972 212.6843,-82.1263"/>
</g>
<!-- Node11 -->
<g id="node12" class="node">
<title>Node11</title>
<polygon fill="none" stroke="#bfbfbf" points="227.1529,-59.5 227.1529,-81.5 315.5044,-81.5 315.5044,-59.5 227.1529,-59.5"/>
<text text-anchor="middle" x="271.3286" y="-66.3" font-family="Helvetica,sans-Serif" font-size="14.00" fill="#000000">QByteArray</text>
</g>
<!-- Node8&#45;&gt;Node11 -->
<g id="edge13" class="edge">
<title>Node8&#45;&gt;Node11</title>
<path fill="none" stroke="#191970" d="M309.4883,-118.4026C302.9892,-110.2441 293.9995,-98.9592 286.3779,-89.3916"/>
<polygon fill="#191970" stroke="#191970" points="289.0977,-87.1885 280.1293,-81.5477 283.6226,-91.5501 289.0977,-87.1885"/>
</g>
<!-- Node12 -->
<g id="node13" class="node">
<title>Node12</title>
<polygon fill="none" stroke="#bfbfbf" points="333.5977,-59.5 333.5977,-81.5 397.0596,-81.5 397.0596,-59.5 333.5977,-59.5"/>
<text text-anchor="middle" x="365.3286" y="-66.3" font-family="Helvetica,sans-Serif" font-size="14.00" fill="#000000">QString</text>
</g>
<!-- Node8&#45;&gt;Node12 -->
<g id="edge15" class="edge">
<title>Node8&#45;&gt;Node12</title>
<path fill="none" stroke="#191970" d="M327.169,-118.4026C333.6681,-110.2441 342.6578,-98.9592 350.2794,-89.3916"/>
<polygon fill="#191970" stroke="#191970" points="353.0347,-91.5501 356.5279,-81.5477 347.5596,-87.1885 353.0347,-91.5501"/>
</g>
<!-- Node13 -->
<g id="node14" class="node">
<title>Node13</title>
<polygon fill="none" stroke="#bfbfbf" points="414.585,-59.5 414.585,-81.5 472.0723,-81.5 472.0723,-59.5 414.585,-59.5"/>
<text text-anchor="middle" x="443.3286" y="-66.3" font-family="Helvetica,sans-Serif" font-size="14.00" fill="#000000">QTime</text>
</g>
<!-- Node8&#45;&gt;Node13 -->
<g id="edge16" class="edge">
<title>Node8&#45;&gt;Node13</title>
<path fill="none" stroke="#191970" d="M341.8402,-118.4026C361.3074,-109.214 389.177,-96.0596 410.7874,-85.8595"/>
<polygon fill="#191970" stroke="#191970" points="412.3732,-88.9813 419.9225,-81.5477 409.3853,-82.651 412.3732,-88.9813"/>
</g>
<!-- Node14 -->
<g id="node15" class="node">
<title>Node14</title>
<polygon fill="none" stroke="#bfbfbf" points="490.0874,-59.5 490.0874,-81.5 574.5699,-81.5 574.5699,-59.5 490.0874,-59.5"/>
<text text-anchor="middle" x="532.3286" y="-66.3" font-family="Helvetica,sans-Serif" font-size="14.00" fill="#000000">QVector3D</text>
</g>
<!-- Node8&#45;&gt;Node14 -->
<g id="edge17" class="edge">
<title>Node8&#45;&gt;Node14</title>
<path fill="none" stroke="#191970" d="M358.3294,-118.4718C393.4217,-108.7968 444.6021,-94.6863 482.3767,-84.2718"/>
<polygon fill="#191970" stroke="#191970" points="483.4512,-87.6062 492.1613,-81.5742 481.5907,-80.858 483.4512,-87.6062"/>
</g>
<!-- Node9&#45;&gt;Node7 -->
<g id="edge11" class="edge">
<title>Node9&#45;&gt;Node7</title>
<path fill="none" stroke="#191970" d="M69.3286,-59.4026C69.3286,-51.9034 69.3286,-41.7626 69.3286,-32.7421"/>
<polygon fill="#191970" stroke="#191970" points="72.8287,-32.5477 69.3286,-22.5477 65.8287,-32.5477 72.8287,-32.5477"/>
</g>
</g>
</svg>
