<?xml version="1.0" encoding="UTF-8" standalone="no"?>
<!DOCTYPE svg PUBLIC "-//W3C//DTD SVG 1.1//EN"
 "http://www.w3.org/Graphics/SVG/1.1/DTD/svg11.dtd">
<!-- Generated by graphviz version 2.40.1 (20161225.0304)
 -->
<!-- Title: Core/coreconst.h Pages: 1 -->
<!--zoomable 149 -->
<svg id="main" version="1.1" xmlns="http://www.w3.org/2000/svg" xmlns:xlink="http://www.w3.org/1999/xlink" xml:space="preserve" onload="init(evt)">
<style type="text/css"><![CDATA[
.edge:hover path { stroke: red; }
.edge:hover polygon { stroke: red; fill: red; }
]]></style>
<script type="text/javascript"><![CDATA[
var edges = document.getElementsByTagName('g');
if (edges && edges.length) {
  for (var i=0;i<edges.length;i++) {
    if (edges[i].id.substr(0,4)=='edge') {
      edges[i].setAttribute('class','edge');
    }
  }
}
]]></script>
        <defs>
                <circle id="rim" cx="0" cy="0" r="7"/>
                <circle id="rim2" cx="0" cy="0" r="3.5"/>
                <g id="zoomPlus">
                        <use xlink:href="#rim" fill="#404040">
                                <set attributeName="fill" to="#808080" begin="zoomplus.mouseover" end="zoomplus.mouseout"/>
                        </use>
                        <path d="M-4,0h8M0,-4v8" fill="none" stroke="white" stroke-width="1.5" pointer-events="none"/>
                </g>
                <g id="zoomMin">
                        <use xlink:href="#rim" fill="#404040">
                                <set attributeName="fill" to="#808080" begin="zoomminus.mouseover" end="zoomminus.mouseout"/>
                        </use>
                        <path d="M-4,0h8" fill="none" stroke="white" stroke-width="1.5" pointer-events="none"/>
                </g>
                <g id="dirArrow">
                        <path fill="none" stroke="white" stroke-width="1.5" d="M0,-3.0v7 M-2.5,-0.5L0,-3.0L2.5,-0.5"/>
                </g>
               <g id="resetDef">
                       <use xlink:href="#rim2" fill="#404040">
                               <set attributeName="fill" to="#808080" begin="reset.mouseover" end="reset.mouseout"/>
                       </use>
               </g>
        </defs>

<script type="text/javascript">
var viewWidth = 659;
var viewHeight = 149;
var sectionId = 'dynsection-1';
</script>
<script xlink:href="../../svgpan.js"/>
<svg id="graph" class="graph">
<g id="viewport">
<title>Core/coreconst.h</title>
<!-- Node2 -->
<g id="node1" class="node">
<title>Node2</title>
<polygon fill="#bfbfbf" stroke="#000000" points="295.9341,-118.5 295.9341,-140.5 418.5405,-140.5 418.5405,-118.5 295.9341,-118.5"/>
<text text-anchor="middle" x="357.2373" y="-125.3" font-family="Helvetica,sans-Serif" font-size="14.00" fill="#000000">Core/coreconst.h</text>
</g>
<!-- Node3 -->
<g id="node2" class="node">
<title>Node3</title>
<g id="a_node2"><a xlink:href="../../dd/dad/a00005.html" target="_top" xlink:title="Core/connection/simpleconnection.cpp">
<polygon fill="none" stroke="#000000" points="0,-59.5 0,-81.5 256.4746,-81.5 256.4746,-59.5 0,-59.5"/>
<text text-anchor="middle" x="128.2373" y="-66.3" font-family="Helvetica,sans-Serif" font-size="14.00" fill="#000000">Core/connection/simpleconnection.cpp</text>
</a>
</g>
</g>
<!-- Node2&#45;&gt;Node3 -->
<g id="edge1" class="edge">
<title>Node2&#45;&gt;Node3</title>
<path fill="none" stroke="#191970" d="M304.7471,-115.9763C264.2988,-105.5551 209.0666,-91.325 171.2201,-81.5742"/>
<polygon fill="#191970" stroke="#191970" points="303.8758,-119.3661 314.4328,-118.4718 305.6223,-112.5874 303.8758,-119.3661"/>
</g>
<!-- Node4 -->
<g id="node3" class="node">
<title>Node4</title>
<g id="a_node3"><a xlink:href="../../d1/dc1/a00092.html" target="_top" xlink:title="Server/maingameloop.h">
<polygon fill="none" stroke="#000000" points="274.9204,-59.5 274.9204,-81.5 439.5542,-81.5 439.5542,-59.5 274.9204,-59.5"/>
<text text-anchor="middle" x="357.2373" y="-66.3" font-family="Helvetica,sans-Serif" font-size="14.00" fill="#000000">Server/maingameloop.h</text>
</a>
</g>
</g>
<!-- Node2&#45;&gt;Node4 -->
<g id="edge2" class="edge">
<title>Node2&#45;&gt;Node4</title>
<path fill="none" stroke="#191970" d="M357.2373,-108.198C357.2373,-99.1726 357.2373,-89.0351 357.2373,-81.5477"/>
<polygon fill="#191970" stroke="#191970" points="353.7374,-108.4025 357.2373,-118.4026 360.7374,-108.4026 353.7374,-108.4025"/>
</g>
<!-- Node7 -->
<g id="node6" class="node">
<title>Node7</title>
<g id="a_node6"><a xlink:href="../../d4/d3a/a00101.html" target="_top" xlink:title="Server/serverconnection.cpp">
<polygon fill="none" stroke="#000000" points="457.1377,-59.5 457.1377,-81.5 651.3369,-81.5 651.3369,-59.5 457.1377,-59.5"/>
<text text-anchor="middle" x="554.2373" y="-66.3" font-family="Helvetica,sans-Serif" font-size="14.00" fill="#000000">Server/serverconnection.cpp</text>
</a>
</g>
</g>
<!-- Node2&#45;&gt;Node7 -->
<g id="edge5" class="edge">
<title>Node2&#45;&gt;Node7</title>
<path fill="none" stroke="#191970" d="M404.1818,-115.4405C438.8351,-105.0621 485.3432,-91.1333 517.3493,-81.5477"/>
<polygon fill="#191970" stroke="#191970" points="402.8669,-112.1806 394.2915,-118.4026 404.8753,-118.8863 402.8669,-112.1806"/>
</g>
<!-- Node5 -->
<g id="node4" class="node">
<title>Node5</title>
<g id="a_node4"><a xlink:href="../../d6/db6/a00241.html" target="_top" xlink:title="Server/main.cpp">
<polygon fill="none" stroke="#000000" points="214.272,-.5 214.272,-22.5 332.2026,-22.5 332.2026,-.5 214.272,-.5"/>
<text text-anchor="middle" x="273.2373" y="-7.3" font-family="Helvetica,sans-Serif" font-size="14.00" fill="#000000">Server/main.cpp</text>
</a>
</g>
</g>
<!-- Node4&#45;&gt;Node5 -->
<g id="edge3" class="edge">
<title>Node4&#45;&gt;Node5</title>
<path fill="none" stroke="#191970" d="M333.1102,-53.5536C318.9199,-43.5866 301.3835,-31.2693 288.9662,-22.5477"/>
<polygon fill="#191970" stroke="#191970" points="331.2427,-56.5189 341.4375,-59.4026 335.2661,-50.7907 331.2427,-56.5189"/>
</g>
<!-- Node6 -->
<g id="node5" class="node">
<title>Node6</title>
<g id="a_node5"><a xlink:href="../../db/dab/a00089.html" target="_top" xlink:title="Server/maingameloop.cpp">
<polygon fill="none" stroke="#000000" points="350.5273,-.5 350.5273,-22.5 529.9473,-22.5 529.9473,-.5 350.5273,-.5"/>
<text text-anchor="middle" x="440.2373" y="-7.3" font-family="Helvetica,sans-Serif" font-size="14.00" fill="#000000">Server/maingameloop.cpp</text>
</a>
</g>
</g>
<!-- Node4&#45;&gt;Node6 -->
<g id="edge4" class="edge">
<title>Node4&#45;&gt;Node6</title>
<path fill="none" stroke="#191970" d="M381.0772,-53.5536C395.0986,-43.5866 412.4262,-31.2693 424.6956,-22.5477"/>
<polygon fill="#191970" stroke="#191970" points="378.9717,-50.756 372.849,-59.4026 383.0274,-56.4614 378.9717,-50.756"/>
</g>
</g>
</svg>
        <g id="navigator" transform="translate(0 0)" fill="#404254">
                <rect fill="#f2f5e9" fill-opacity="0.5" stroke="#606060" stroke-width=".5" x="0" y="0" width="60" height="60"/>
                <use id="zoomplus" xlink:href="#zoomPlus" x="17" y="9" onmousedown="handleZoom(evt,'in')"/>
                <use id="zoomminus" xlink:href="#zoomMin" x="42" y="9" onmousedown="handleZoom(evt,'out')"/>
                <use id="reset" xlink:href="#resetDef" x="30" y="36" onmousedown="handleReset()"/>
                <g id="arrowUp" xlink:href="#dirArrow" transform="translate(30 24)" onmousedown="handlePan(0,-1)">
                  <use xlink:href="#rim" fill="#404040">
                        <set attributeName="fill" to="#808080" begin="arrowUp.mouseover" end="arrowUp.mouseout"/>
                  </use>
                  <path fill="none" stroke="white" stroke-width="1.5" d="M0,-3.0v7 M-2.5,-0.5L0,-3.0L2.5,-0.5"/>
                </g>
                <g id="arrowRight" xlink:href="#dirArrow" transform="rotate(90) translate(36 -43)" onmousedown="handlePan(1,0)">
                  <use xlink:href="#rim" fill="#404040">
                        <set attributeName="fill" to="#808080" begin="arrowRight.mouseover" end="arrowRight.mouseout"/>
                  </use>
                  <path fill="none" stroke="white" stroke-width="1.5" d="M0,-3.0v7 M-2.5,-0.5L0,-3.0L2.5,-0.5"/>
                </g>
                <g id="arrowDown" xlink:href="#dirArrow" transform="rotate(180) translate(-30 -48)" onmousedown="handlePan(0,1)">
                  <use xlink:href="#rim" fill="#404040">
                        <set attributeName="fill" to="#808080" begin="arrowDown.mouseover" end="arrowDown.mouseout"/>
                  </use>
                  <path fill="none" stroke="white" stroke-width="1.5" d="M0,-3.0v7 M-2.5,-0.5L0,-3.0L2.5,-0.5"/>
                </g>
                <g id="arrowLeft" xlink:href="#dirArrow" transform="rotate(270) translate(-36 17)" onmousedown="handlePan(-1,0)">
                  <use xlink:href="#rim" fill="#404040">
                        <set attributeName="fill" to="#808080" begin="arrowLeft.mouseover" end="arrowLeft.mouseout"/>
                  </use>
                  <path fill="none" stroke="white" stroke-width="1.5" d="M0,-3.0v7 M-2.5,-0.5L0,-3.0L2.5,-0.5"/>
                </g>
        </g>
        <svg viewBox="0 0 15 15" width="100%" height="30px" preserveAspectRatio="xMaxYMin meet">
         <g id="arrow_out" transform="scale(0.3 0.3)">
          <a xlink:href="a00022_org.svg" target="_base">
           <rect id="button" ry="5" rx="5" y="6" x="6" height="38" width="38"
                fill="#f2f5e9" fill-opacity="0.5" stroke="#606060" stroke-width="1.0"/>
           <path id="arrow"
             d="M 11.500037,31.436501 C 11.940474,20.09759 22.043105,11.32322 32.158766,21.979434 L 37.068811,17.246167 C 37.068811,17.246167 37.088388,32 37.088388,32 L 22.160133,31.978069 C 22.160133,31.978069 26.997745,27.140456 26.997745,27.140456 C 18.528582,18.264221 13.291696,25.230495 11.500037,31.436501 z"
             style="fill:#404040;"/>
          </a>
         </g>
        </svg>
</svg>
