<?xml version="1.0" encoding="UTF-8" standalone="no"?>
<!DOCTYPE svg PUBLIC "-//W3C//DTD SVG 1.1//EN"
 "http://www.w3.org/Graphics/SVG/1.1/DTD/svg11.dtd">
<!-- Generated by graphviz version 2.40.1 (20161225.0304)
 -->
<!-- Title: Core/connection/simpleconnection.h Pages: 1 -->
<svg width="1000pt" height="267pt"
 viewBox="0.00 0.00 1000.10 267.00" xmlns="http://www.w3.org/2000/svg" xmlns:xlink="http://www.w3.org/1999/xlink">
<g id="graph0" class="graph" transform="scale(1 1) rotate(0) translate(4 263)">
<title>Core/connection/simpleconnection.h</title>
<!-- Node14 -->
<g id="node1" class="node">
<title>Node14</title>
<polygon fill="#bfbfbf" stroke="#000000" points="373.3931,-236.5 373.3931,-258.5 615.0815,-258.5 615.0815,-236.5 373.3931,-236.5"/>
<text text-anchor="middle" x="494.2373" y="-243.3" font-family="Helvetica,sans-Serif" font-size="14.00" fill="#000000">Core/connection/simpleconnection.h</text>
</g>
<!-- Node15 -->
<g id="node2" class="node">
<title>Node15</title>
<g id="a_node2"><a xlink:href="../../d2/db5/simpleconnection_8cpp.html" target="_top" xlink:title="Core/connection/simpleconnection.cpp">
<polygon fill="none" stroke="#000000" points="0,-177.5 0,-199.5 256.4746,-199.5 256.4746,-177.5 0,-177.5"/>
<text text-anchor="middle" x="128.2373" y="-184.3" font-family="Helvetica,sans-Serif" font-size="14.00" fill="#000000">Core/connection/simpleconnection.cpp</text>
</a>
</g>
</g>
<!-- Node14&#45;&gt;Node15 -->
<g id="edge1" class="edge">
<title>Node14&#45;&gt;Node15</title>
<path fill="none" stroke="#191970" d="M415.6039,-234.8241C350.4474,-224.3208 258.7751,-209.543 196.6242,-199.5241"/>
<polygon fill="#191970" stroke="#191970" points="415.3953,-238.3356 425.8249,-236.4718 416.5093,-231.4248 415.3953,-238.3356"/>
</g>
<!-- Node16 -->
<g id="node3" class="node">
<title>Node16</title>
<g id="a_node3"><a xlink:href="../../d9/d53/mainwindow_8h.html" target="_top" xlink:title="GameView/mainwindow.h">
<polygon fill="none" stroke="#000000" points="274.209,-177.5 274.209,-199.5 450.2656,-199.5 450.2656,-177.5 274.209,-177.5"/>
<text text-anchor="middle" x="362.2373" y="-184.3" font-family="Helvetica,sans-Serif" font-size="14.00" fill="#000000">GameView/mainwindow.h</text>
</a>
</g>
</g>
<!-- Node14&#45;&gt;Node16 -->
<g id="edge2" class="edge">
<title>Node14&#45;&gt;Node16</title>
<path fill="none" stroke="#191970" d="M460.0569,-232.2224C437.1697,-221.9925 407.5715,-208.763 386.9542,-199.5477"/>
<polygon fill="#191970" stroke="#191970" points="458.8513,-235.5172 469.4091,-236.4026 461.7078,-229.1265 458.8513,-235.5172"/>
</g>
<!-- Node19 -->
<g id="node6" class="node">
<title>Node19</title>
<g id="a_node6"><a xlink:href="../../d2/d35/mailboxelement_8h.html" target="_top" xlink:title="Core/connection/mailboxelement.h">
<polygon fill="none" stroke="#000000" points="510.4551,-177.5 510.4551,-199.5 742.0195,-199.5 742.0195,-177.5 510.4551,-177.5"/>
<text text-anchor="middle" x="626.2373" y="-184.3" font-family="Helvetica,sans-Serif" font-size="14.00" fill="#000000">Core/connection/mailboxelement.h</text>
</a>
</g>
</g>
<!-- Node14&#45;&gt;Node19 -->
<g id="edge5" class="edge">
<title>Node14&#45;&gt;Node19</title>
<path fill="none" stroke="#191970" d="M528.4177,-232.2224C551.3049,-221.9925 580.9031,-208.763 601.5204,-199.5477"/>
<polygon fill="#191970" stroke="#191970" points="526.7668,-229.1265 519.0655,-236.4026 529.6233,-235.5172 526.7668,-229.1265"/>
</g>
<!-- Node24 -->
<g id="node11" class="node">
<title>Node24</title>
<g id="a_node11"><a xlink:href="../../d7/d0e/serverworker_8cpp.html" target="_top" xlink:title="Server/serverworker.cpp">
<polygon fill="none" stroke="#000000" points="824.3755,-59.5 824.3755,-81.5 992.0991,-81.5 992.0991,-59.5 824.3755,-59.5"/>
<text text-anchor="middle" x="908.2373" y="-66.3" font-family="Helvetica,sans-Serif" font-size="14.00" fill="#000000">Server/serverworker.cpp</text>
</a>
</g>
</g>
<!-- Node14&#45;&gt;Node24 -->
<g id="edge15" class="edge">
<title>Node14&#45;&gt;Node24</title>
<path fill="none" stroke="#191970" d="M621.5213,-234.8744C663.8965,-227.8404 710.6201,-216.9226 751.2373,-200 817.1202,-172.5508 876.7829,-107.7906 899.0217,-81.6913"/>
<polygon fill="#191970" stroke="#191970" points="620.7397,-231.4549 611.419,-236.4923 621.8467,-238.3668 620.7397,-231.4549"/>
</g>
<!-- Node17 -->
<g id="node4" class="node">
<title>Node17</title>
<g id="a_node4"><a xlink:href="../../d8/da0/GameView_2main_8cpp.html" target="_top" xlink:title="GameView/main.cpp">
<polygon fill="none" stroke="#000000" points="82.7778,-118.5 82.7778,-140.5 227.6968,-140.5 227.6968,-118.5 82.7778,-118.5"/>
<text text-anchor="middle" x="155.2373" y="-125.3" font-family="Helvetica,sans-Serif" font-size="14.00" fill="#000000">GameView/main.cpp</text>
</a>
</g>
</g>
<!-- Node16&#45;&gt;Node17 -->
<g id="edge3" class="edge">
<title>Node16&#45;&gt;Node17</title>
<path fill="none" stroke="#191970" d="M313.378,-174.5739C276.9172,-164.1817 227.7729,-150.1744 193.9978,-140.5477"/>
<polygon fill="#191970" stroke="#191970" points="312.7258,-178.0274 323.3022,-177.4026 314.6446,-171.2955 312.7258,-178.0274"/>
</g>
<!-- Node18 -->
<g id="node5" class="node">
<title>Node18</title>
<g id="a_node5"><a xlink:href="../../d8/dd9/mainwindow_8cpp.html" target="_top" xlink:title="GameView/mainwindow.cpp">
<polygon fill="none" stroke="#000000" points="245.8159,-118.5 245.8159,-140.5 436.6587,-140.5 436.6587,-118.5 245.8159,-118.5"/>
<text text-anchor="middle" x="341.2373" y="-125.3" font-family="Helvetica,sans-Serif" font-size="14.00" fill="#000000">GameView/mainwindow.cpp</text>
</a>
</g>
</g>
<!-- Node16&#45;&gt;Node18 -->
<g id="edge4" class="edge">
<title>Node16&#45;&gt;Node18</title>
<path fill="none" stroke="#191970" d="M354.8664,-167.7914C351.6019,-158.6194 347.8931,-148.1997 345.1695,-140.5477"/>
<polygon fill="#191970" stroke="#191970" points="351.6367,-169.1552 358.2874,-177.4026 358.2314,-166.8079 351.6367,-169.1552"/>
</g>
<!-- Node20 -->
<g id="node7" class="node">
<title>Node20</title>
<g id="a_node7"><a xlink:href="../../d8/dfb/serverworker_8h.html" target="_top" xlink:title="Server/serverworker.h">
<polygon fill="none" stroke="#000000" points="674.7686,-118.5 674.7686,-140.5 827.7061,-140.5 827.7061,-118.5 674.7686,-118.5"/>
<text text-anchor="middle" x="751.2373" y="-125.3" font-family="Helvetica,sans-Serif" font-size="14.00" fill="#000000">Server/serverworker.h</text>
</a>
</g>
</g>
<!-- Node19&#45;&gt;Node20 -->
<g id="edge6" class="edge">
<title>Node19&#45;&gt;Node20</title>
<path fill="none" stroke="#191970" d="M658.8957,-173.0852C680.5287,-162.8745 708.3944,-149.7219 727.8312,-140.5477"/>
<polygon fill="#191970" stroke="#191970" points="657.2982,-169.9689 649.7488,-177.4026 660.2861,-176.2992 657.2982,-169.9689"/>
</g>
<!-- Node21 -->
<g id="node8" class="node">
<title>Node21</title>
<g id="a_node8"><a xlink:href="../../dd/d06/serverconnection_8h.html" target="_top" xlink:title="Server/serverconnection.h">
<polygon fill="none" stroke="#000000" points="626.5308,-59.5 626.5308,-81.5 805.9438,-81.5 805.9438,-59.5 626.5308,-59.5"/>
<text text-anchor="middle" x="716.2373" y="-66.3" font-family="Helvetica,sans-Serif" font-size="14.00" fill="#000000">Server/serverconnection.h</text>
</a>
</g>
</g>
<!-- Node19&#45;&gt;Node21 -->
<g id="edge11" class="edge">
<title>Node19&#45;&gt;Node21</title>
<path fill="none" stroke="#191970" d="M635.7439,-168.1816C643.0649,-153.5363 653.9836,-133.6733 666.2373,-118 677.0042,-104.2285 691.7529,-90.7154 702.4397,-81.6453"/>
<polygon fill="#191970" stroke="#191970" points="632.5009,-166.8474 631.2781,-177.3714 638.7969,-169.907 632.5009,-166.8474"/>
</g>
<!-- Node25 -->
<g id="node12" class="node">
<title>Node25</title>
<g id="a_node12"><a xlink:href="../../df/dd1/maingameloop_8h.html" target="_top" xlink:title="Server/maingameloop.h">
<polygon fill="none" stroke="#000000" points="454.9204,-118.5 454.9204,-140.5 619.5542,-140.5 619.5542,-118.5 454.9204,-118.5"/>
<text text-anchor="middle" x="537.2373" y="-125.3" font-family="Helvetica,sans-Serif" font-size="14.00" fill="#000000">Server/maingameloop.h</text>
</a>
</g>
</g>
<!-- Node19&#45;&gt;Node25 -->
<g id="edge12" class="edge">
<title>Node19&#45;&gt;Node25</title>
<path fill="none" stroke="#191970" d="M601.0986,-171.835C585.9901,-161.8193 567.1829,-149.3516 553.9025,-140.5477"/>
<polygon fill="#191970" stroke="#191970" points="599.2283,-174.7943 609.4971,-177.4026 603.0961,-168.9599 599.2283,-174.7943"/>
</g>
<!-- Node20&#45;&gt;Node21 -->
<g id="edge7" class="edge">
<title>Node20&#45;&gt;Node21</title>
<path fill="none" stroke="#191970" d="M739.4767,-109.675C733.912,-100.2946 727.4768,-89.4465 722.791,-81.5477"/>
<polygon fill="#191970" stroke="#191970" points="736.5418,-111.5877 744.6541,-118.4026 742.5622,-108.0163 736.5418,-111.5877"/>
</g>
<!-- Node20&#45;&gt;Node24 -->
<g id="edge10" class="edge">
<title>Node20&#45;&gt;Node24</title>
<path fill="none" stroke="#191970" d="M790.4407,-114.7675C817.8525,-104.4663 853.8792,-90.9276 878.8392,-81.5477"/>
<polygon fill="#191970" stroke="#191970" points="788.8974,-111.6084 780.7678,-118.4026 791.3599,-118.161 788.8974,-111.6084"/>
</g>
<!-- Node22 -->
<g id="node9" class="node">
<title>Node22</title>
<g id="a_node9"><a xlink:href="../../d6/dda/Server_2main_8cpp.html" target="_top" xlink:title="Server/main.cpp">
<polygon fill="none" stroke="#000000" points="413.272,-.5 413.272,-22.5 531.2026,-22.5 531.2026,-.5 413.272,-.5"/>
<text text-anchor="middle" x="472.2373" y="-7.3" font-family="Helvetica,sans-Serif" font-size="14.00" fill="#000000">Server/main.cpp</text>
</a>
</g>
</g>
<!-- Node21&#45;&gt;Node22 -->
<g id="edge8" class="edge">
<title>Node21&#45;&gt;Node22</title>
<path fill="none" stroke="#191970" d="M660.8548,-57.1083C617.7091,-46.6756 558.5316,-32.3662 518.0356,-22.5742"/>
<polygon fill="#191970" stroke="#191970" points="660.0865,-60.5233 670.629,-59.4718 661.7318,-53.7194 660.0865,-60.5233"/>
</g>
<!-- Node23 -->
<g id="node10" class="node">
<title>Node23</title>
<g id="a_node10"><a xlink:href="../../d2/d44/serverconnection_8cpp.html" target="_top" xlink:title="Server/serverconnection.cpp">
<polygon fill="none" stroke="#000000" points="619.1377,-.5 619.1377,-22.5 813.3369,-22.5 813.3369,-.5 619.1377,-.5"/>
<text text-anchor="middle" x="716.2373" y="-7.3" font-family="Helvetica,sans-Serif" font-size="14.00" fill="#000000">Server/serverconnection.cpp</text>
</a>
</g>
</g>
<!-- Node21&#45;&gt;Node23 -->
<g id="edge9" class="edge">
<title>Node21&#45;&gt;Node23</title>
<path fill="none" stroke="#191970" d="M716.2373,-49.198C716.2373,-40.1726 716.2373,-30.0351 716.2373,-22.5477"/>
<polygon fill="#191970" stroke="#191970" points="712.7374,-49.4025 716.2373,-59.4026 719.7374,-49.4026 712.7374,-49.4025"/>
</g>
<!-- Node25&#45;&gt;Node22 -->
<g id="edge13" class="edge">
<title>Node25&#45;&gt;Node22</title>
<path fill="none" stroke="#191970" d="M464.1745,-114.8722C446.9609,-107.8367 430.6196,-97.4203 420.2373,-82 405.7125,-60.4269 433.7934,-36.2183 454.0421,-22.5206"/>
<polygon fill="#191970" stroke="#191970" points="463.202,-118.2445 473.795,-118.4433 465.638,-111.682 463.202,-118.2445"/>
</g>
<!-- Node26 -->
<g id="node13" class="node">
<title>Node26</title>
<g id="a_node13"><a xlink:href="../../dd/d30/maingameloop_8cpp.html" target="_top" xlink:title="Server/maingameloop.cpp">
<polygon fill="none" stroke="#000000" points="429.5273,-59.5 429.5273,-81.5 608.9473,-81.5 608.9473,-59.5 429.5273,-59.5"/>
<text text-anchor="middle" x="519.2373" y="-66.3" font-family="Helvetica,sans-Serif" font-size="14.00" fill="#000000">Server/maingameloop.cpp</text>
</a>
</g>
</g>
<!-- Node25&#45;&gt;Node26 -->
<g id="edge14" class="edge">
<title>Node25&#45;&gt;Node26</title>
<path fill="none" stroke="#191970" d="M530.9194,-108.7914C528.1212,-99.6194 524.9423,-89.1997 522.6078,-81.5477"/>
<polygon fill="#191970" stroke="#191970" points="527.5858,-109.8591 533.8516,-118.4026 534.2812,-107.8164 527.5858,-109.8591"/>
</g>
</g>
</svg>
