<?xml version="1.0" encoding="UTF-8" standalone="no"?>
<!DOCTYPE svg PUBLIC "-//W3C//DTD SVG 1.1//EN"
 "http://www.w3.org/Graphics/SVG/1.1/DTD/svg11.dtd">
<!-- Generated by graphviz version 2.40.1 (20161225.0304)
 -->
<!-- Title: ServerWorker::ReceiverThread Pages: 1 -->
<svg width="217pt" height="276pt"
 viewBox="0.00 0.00 217.48 276.00" xmlns="http://www.w3.org/2000/svg" xmlns:xlink="http://www.w3.org/1999/xlink">
<g id="graph0" class="graph" transform="scale(1 1) rotate(0) translate(4 272)">
<title>ServerWorker::ReceiverThread</title>
<!-- Node0 -->
<g id="node1" class="node">
<title>Node0</title>
<polygon fill="#bfbfbf" stroke="#000000" points="0,-.5 0,-164.5 209.4775,-164.5 209.4775,-.5 0,-.5"/>
<text text-anchor="middle" x="104.7388" y="-149.3" font-family="Helvetica,sans-Serif" font-size="14.00" fill="#000000">ServerWorker::ReceiverThread</text>
<polyline fill="none" stroke="#000000" points="0,-142.5 209.4775,-142.5 "/>
<text text-anchor="start" x="8" y="-127.3" font-family="Helvetica,sans-Serif" font-size="14.00" fill="#000000"># socket</text>
<text text-anchor="start" x="8" y="-113.3" font-family="Helvetica,sans-Serif" font-size="14.00" fill="#000000"># parentThread</text>
<text text-anchor="start" x="8" y="-99.3" font-family="Helvetica,sans-Serif" font-size="14.00" fill="#000000"># in</text>
<text text-anchor="start" x="8" y="-85.3" font-family="Helvetica,sans-Serif" font-size="14.00" fill="#000000"># isWork</text>
<text text-anchor="start" x="8" y="-71.3" font-family="Helvetica,sans-Serif" font-size="14.00" fill="#000000"># receiverMutex</text>
<polyline fill="none" stroke="#000000" points="0,-64.5 209.4775,-64.5 "/>
<text text-anchor="start" x="8" y="-49.3" font-family="Helvetica,sans-Serif" font-size="14.00" fill="#000000">+ ReceiverThread()</text>
<text text-anchor="start" x="8" y="-35.3" font-family="Helvetica,sans-Serif" font-size="14.00" fill="#000000">+ ~ReceiverThread()</text>
<text text-anchor="start" x="8" y="-21.3" font-family="Helvetica,sans-Serif" font-size="14.00" fill="#000000">+ stop()</text>
<text text-anchor="start" x="8" y="-7.3" font-family="Helvetica,sans-Serif" font-size="14.00" fill="#000000"># run()</text>
</g>
<!-- Node1 -->
<g id="node2" class="node">
<title>Node1</title>
<polygon fill="none" stroke="#bfbfbf" points="69.1147,-201.5 69.1147,-267.5 140.3628,-267.5 140.3628,-201.5 69.1147,-201.5"/>
<text text-anchor="middle" x="104.7388" y="-252.3" font-family="Helvetica,sans-Serif" font-size="14.00" fill="#000000">QThread</text>
<polyline fill="none" stroke="#bfbfbf" points="69.1147,-245.5 140.3628,-245.5 "/>
<text text-anchor="middle" x="104.7388" y="-230.3" font-family="Helvetica,sans-Serif" font-size="14.00" fill="#000000"> </text>
<polyline fill="none" stroke="#bfbfbf" points="69.1147,-223.5 140.3628,-223.5 "/>
<text text-anchor="middle" x="104.7388" y="-208.3" font-family="Helvetica,sans-Serif" font-size="14.00" fill="#000000"> </text>
</g>
<!-- Node1&#45;&gt;Node0 -->
<g id="edge1" class="edge">
<title>Node1&#45;&gt;Node0</title>
<path fill="none" stroke="#191970" d="M104.7388,-190.9937C104.7388,-182.6804 104.7388,-173.728 104.7388,-164.6579"/>
<polygon fill="none" stroke="#191970" points="101.2389,-191.1429 104.7388,-201.143 108.2389,-191.143 101.2389,-191.1429"/>
</g>
</g>
</svg>
