<?xml version="1.0" encoding="UTF-8" standalone="no"?>
<!DOCTYPE svg PUBLIC "-//W3C//DTD SVG 1.1//EN"
 "http://www.w3.org/Graphics/SVG/1.1/DTD/svg11.dtd">
<!-- Generated by graphviz version 2.40.1 (20161225.0304)
 -->
<!-- Title: std::basic_stringstream&lt; Char &gt; Pages: 1 -->
<svg width="640pt" height="664pt"
 viewBox="0.00 0.00 639.80 664.00" xmlns="http://www.w3.org/2000/svg" xmlns:xlink="http://www.w3.org/1999/xlink">
<g id="graph0" class="graph" transform="scale(1 1) rotate(0) translate(4 660)">
<title>std::basic_stringstream&lt; Char &gt;</title>
<!-- Node297 -->
<g id="node1" class="node">
<title>Node297</title>
<polygon fill="#bfbfbf" stroke="#000000" points="211.8535,-131.5 211.8535,-211.5 371.7979,-211.5 371.7979,-131.5 211.8535,-131.5"/>
<text text-anchor="start" x="219.8535" y="-196.3" font-family="Helvetica,sans-Serif" font-size="14.00" fill="#000000">std::basic_stringstream</text>
<text text-anchor="middle" x="291.8257" y="-182.3" font-family="Helvetica,sans-Serif" font-size="14.00" fill="#000000">&lt; Char &gt;</text>
<polyline fill="none" stroke="#000000" points="211.8535,-175.5 371.7979,-175.5 "/>
<text text-anchor="middle" x="291.8257" y="-160.3" font-family="Helvetica,sans-Serif" font-size="14.00" fill="#000000"> </text>
<polyline fill="none" stroke="#000000" points="211.8535,-153.5 371.7979,-153.5 "/>
<text text-anchor="middle" x="291.8257" y="-138.3" font-family="Helvetica,sans-Serif" font-size="14.00" fill="#000000"> </text>
</g>
<!-- Node303 -->
<g id="node7" class="node">
<title>Node303</title>
<g id="a_node7"><a xlink:title="STL class. ">
<polygon fill="none" stroke="#bfbfbf" points="0,-.5 0,-80.5 127.6514,-80.5 127.6514,-.5 0,-.5"/>
<text text-anchor="start" x="8" y="-65.3" font-family="Helvetica,sans-Serif" font-size="14.00" fill="#000000">std::stringstream&lt;</text>
<text text-anchor="middle" x="63.8257" y="-51.3" font-family="Helvetica,sans-Serif" font-size="14.00" fill="#000000"> char &gt;</text>
<polyline fill="none" stroke="#bfbfbf" points="0,-44.5 127.6514,-44.5 "/>
<text text-anchor="middle" x="63.8257" y="-29.3" font-family="Helvetica,sans-Serif" font-size="14.00" fill="#000000"> </text>
<polyline fill="none" stroke="#bfbfbf" points="0,-22.5 127.6514,-22.5 "/>
<text text-anchor="middle" x="63.8257" y="-7.3" font-family="Helvetica,sans-Serif" font-size="14.00" fill="#000000"> </text>
</a>
</g>
</g>
<!-- Node297&#45;&gt;Node303 -->
<g id="edge7" class="edge">
<title>Node297&#45;&gt;Node303</title>
<path fill="none" stroke="#191970" d="M213.2641,-126.3616C185.4373,-110.3733 154.4823,-92.5878 127.9954,-77.3694"/>
<polygon fill="none" stroke="#191970" points="211.7649,-129.5367 222.1793,-131.4839 215.2522,-123.4672 211.7649,-129.5367"/>
</g>
<!-- Node304 -->
<g id="node8" class="node">
<title>Node304</title>
<g id="a_node8"><a xlink:title="STL class. ">
<polygon fill="none" stroke="#bfbfbf" points="146.0327,-.5 146.0327,-80.5 275.6187,-80.5 275.6187,-.5 146.0327,-.5"/>
<text text-anchor="start" x="154.0327" y="-65.3" font-family="Helvetica,sans-Serif" font-size="14.00" fill="#000000">std::wstringstream</text>
<text text-anchor="middle" x="210.8257" y="-51.3" font-family="Helvetica,sans-Serif" font-size="14.00" fill="#000000">&lt; wchar_t &gt;</text>
<polyline fill="none" stroke="#bfbfbf" points="146.0327,-44.5 275.6187,-44.5 "/>
<text text-anchor="middle" x="210.8257" y="-29.3" font-family="Helvetica,sans-Serif" font-size="14.00" fill="#000000"> </text>
<polyline fill="none" stroke="#bfbfbf" points="146.0327,-22.5 275.6187,-22.5 "/>
<text text-anchor="middle" x="210.8257" y="-7.3" font-family="Helvetica,sans-Serif" font-size="14.00" fill="#000000"> </text>
</a>
</g>
</g>
<!-- Node297&#45;&gt;Node304 -->
<g id="edge8" class="edge">
<title>Node297&#45;&gt;Node304</title>
<path fill="none" stroke="#191970" d="M261.5874,-122.5961C253.0558,-108.7981 243.8738,-93.9482 235.6961,-80.7225"/>
<polygon fill="none" stroke="#191970" points="258.8469,-124.8191 267.0829,-131.4839 264.8007,-121.1377 258.8469,-124.8191"/>
</g>
<!-- Node305 -->
<g id="node9" class="node">
<title>Node305</title>
<polygon fill="none" stroke="#bfbfbf" points="293.8535,-.5 293.8535,-80.5 453.7979,-80.5 453.7979,-.5 293.8535,-.5"/>
<text text-anchor="start" x="301.8535" y="-65.3" font-family="Helvetica,sans-Serif" font-size="14.00" fill="#000000">std::basic_stringstream</text>
<text text-anchor="middle" x="373.8257" y="-51.3" font-family="Helvetica,sans-Serif" font-size="14.00" fill="#000000">&lt; wchar_t &gt;</text>
<polyline fill="none" stroke="#bfbfbf" points="293.8535,-44.5 453.7979,-44.5 "/>
<text text-anchor="middle" x="373.8257" y="-29.3" font-family="Helvetica,sans-Serif" font-size="14.00" fill="#000000"> </text>
<polyline fill="none" stroke="#bfbfbf" points="293.8535,-22.5 453.7979,-22.5 "/>
<text text-anchor="middle" x="373.8257" y="-7.3" font-family="Helvetica,sans-Serif" font-size="14.00" fill="#000000"> </text>
</g>
<!-- Node297&#45;&gt;Node305 -->
<g id="edge9" class="edge">
<title>Node297&#45;&gt;Node305</title>
<path fill="none" stroke="#ffa500" d="M322.1907,-122.9901C330.897,-109.0811 340.2907,-94.0742 348.6482,-80.7225"/>
<polygon fill="#ffa500" stroke="#ffa500" points="319.2131,-121.1505 316.8739,-131.4839 325.1465,-124.8646 319.2131,-121.1505"/>
<text text-anchor="middle" x="373.3462" y="-101.8" font-family="Helvetica,sans-Serif" font-size="14.00" fill="#000000"> &lt; wchar_t &gt;</text>
</g>
<!-- Node306 -->
<g id="node10" class="node">
<title>Node306</title>
<polygon fill="none" stroke="#bfbfbf" points="471.8535,-.5 471.8535,-80.5 631.7979,-80.5 631.7979,-.5 471.8535,-.5"/>
<text text-anchor="start" x="479.8535" y="-65.3" font-family="Helvetica,sans-Serif" font-size="14.00" fill="#000000">std::basic_stringstream</text>
<text text-anchor="middle" x="551.8257" y="-51.3" font-family="Helvetica,sans-Serif" font-size="14.00" fill="#000000">&lt; char &gt;</text>
<polyline fill="none" stroke="#bfbfbf" points="471.8535,-44.5 631.7979,-44.5 "/>
<text text-anchor="middle" x="551.8257" y="-29.3" font-family="Helvetica,sans-Serif" font-size="14.00" fill="#000000"> </text>
<polyline fill="none" stroke="#bfbfbf" points="471.8535,-22.5 631.7979,-22.5 "/>
<text text-anchor="middle" x="551.8257" y="-7.3" font-family="Helvetica,sans-Serif" font-size="14.00" fill="#000000"> </text>
</g>
<!-- Node297&#45;&gt;Node306 -->
<g id="edge10" class="edge">
<title>Node297&#45;&gt;Node306</title>
<path fill="none" stroke="#ffa500" d="M381.1662,-129.9924C392.8672,-124.3687 404.6633,-118.6041 415.8257,-113 436.151,-102.7956 457.9723,-91.3748 478.0554,-80.6704"/>
<polygon fill="#ffa500" stroke="#ffa500" points="379.326,-126.9928 371.8165,-134.4666 382.3477,-133.3071 379.326,-126.9928"/>
<text text-anchor="middle" x="469.4531" y="-101.8" font-family="Helvetica,sans-Serif" font-size="14.00" fill="#000000"> &lt; char &gt;</text>
</g>
<!-- Node298 -->
<g id="node2" class="node">
<title>Node298</title>
<g id="a_node2"><a xlink:title="STL class. ">
<polygon fill="none" stroke="#bfbfbf" points="223.5225,-249.5 223.5225,-329.5 360.1289,-329.5 360.1289,-249.5 223.5225,-249.5"/>
<text text-anchor="start" x="231.5225" y="-314.3" font-family="Helvetica,sans-Serif" font-size="14.00" fill="#000000">std::basic_iostream</text>
<text text-anchor="middle" x="291.8257" y="-300.3" font-family="Helvetica,sans-Serif" font-size="14.00" fill="#000000">&lt; Char &gt;</text>
<polyline fill="none" stroke="#bfbfbf" points="223.5225,-293.5 360.1289,-293.5 "/>
<text text-anchor="middle" x="291.8257" y="-278.3" font-family="Helvetica,sans-Serif" font-size="14.00" fill="#000000"> </text>
<polyline fill="none" stroke="#bfbfbf" points="223.5225,-271.5 360.1289,-271.5 "/>
<text text-anchor="middle" x="291.8257" y="-256.3" font-family="Helvetica,sans-Serif" font-size="14.00" fill="#000000"> </text>
</a>
</g>
</g>
<!-- Node298&#45;&gt;Node297 -->
<g id="edge1" class="edge">
<title>Node298&#45;&gt;Node297</title>
<path fill="none" stroke="#191970" d="M291.8257,-239.0368C291.8257,-229.8676 291.8257,-220.4174 291.8257,-211.5973"/>
<polygon fill="none" stroke="#191970" points="288.3258,-239.2211 291.8257,-249.2211 295.3258,-239.2212 288.3258,-239.2211"/>
</g>
<!-- Node299 -->
<g id="node3" class="node">
<title>Node299</title>
<g id="a_node3"><a xlink:title="STL class. ">
<polygon fill="none" stroke="#bfbfbf" points="153.4155,-367.5 153.4155,-447.5 282.2358,-447.5 282.2358,-367.5 153.4155,-367.5"/>
<text text-anchor="start" x="161.4155" y="-432.3" font-family="Helvetica,sans-Serif" font-size="14.00" fill="#000000">std::basic_istream</text>
<text text-anchor="middle" x="217.8257" y="-418.3" font-family="Helvetica,sans-Serif" font-size="14.00" fill="#000000">&lt; Char &gt;</text>
<polyline fill="none" stroke="#bfbfbf" points="153.4155,-411.5 282.2358,-411.5 "/>
<text text-anchor="middle" x="217.8257" y="-396.3" font-family="Helvetica,sans-Serif" font-size="14.00" fill="#000000"> </text>
<polyline fill="none" stroke="#bfbfbf" points="153.4155,-389.5 282.2358,-389.5 "/>
<text text-anchor="middle" x="217.8257" y="-374.3" font-family="Helvetica,sans-Serif" font-size="14.00" fill="#000000"> </text>
</a>
</g>
</g>
<!-- Node299&#45;&gt;Node298 -->
<g id="edge2" class="edge">
<title>Node299&#45;&gt;Node298</title>
<path fill="none" stroke="#191970" d="M248.5463,-358.5131C254.5839,-348.8856 260.8513,-338.8916 266.6799,-329.5973"/>
<polygon fill="none" stroke="#191970" points="245.4331,-356.8897 243.0853,-367.2211 251.3634,-360.6087 245.4331,-356.8897"/>
</g>
<!-- Node300 -->
<g id="node4" class="node">
<title>Node300</title>
<g id="a_node4"><a xlink:title="STL class. ">
<polygon fill="none" stroke="#bfbfbf" points="214.1777,-485.5 214.1777,-551.5 369.4736,-551.5 369.4736,-485.5 214.1777,-485.5"/>
<text text-anchor="middle" x="291.8257" y="-536.3" font-family="Helvetica,sans-Serif" font-size="14.00" fill="#000000">std::basic_ios&lt; Char &gt;</text>
<polyline fill="none" stroke="#bfbfbf" points="214.1777,-529.5 369.4736,-529.5 "/>
<text text-anchor="middle" x="291.8257" y="-514.3" font-family="Helvetica,sans-Serif" font-size="14.00" fill="#000000"> </text>
<polyline fill="none" stroke="#bfbfbf" points="214.1777,-507.5 369.4736,-507.5 "/>
<text text-anchor="middle" x="291.8257" y="-492.3" font-family="Helvetica,sans-Serif" font-size="14.00" fill="#000000"> </text>
</a>
</g>
</g>
<!-- Node300&#45;&gt;Node299 -->
<g id="edge3" class="edge">
<title>Node300&#45;&gt;Node299</title>
<path fill="none" stroke="#191970" d="M264.0935,-476.9018C257.7077,-467.3231 250.9282,-457.1538 244.5847,-447.6385"/>
<polygon fill="none" stroke="#191970" points="261.3644,-479.1178 269.8236,-485.4969 267.1887,-475.2349 261.3644,-479.1178"/>
</g>
<!-- Node302 -->
<g id="node6" class="node">
<title>Node302</title>
<g id="a_node6"><a xlink:title="STL class. ">
<polygon fill="none" stroke="#bfbfbf" points="300.0776,-367.5 300.0776,-447.5 433.5737,-447.5 433.5737,-367.5 300.0776,-367.5"/>
<text text-anchor="start" x="308.0776" y="-432.3" font-family="Helvetica,sans-Serif" font-size="14.00" fill="#000000">std::basic_ostream</text>
<text text-anchor="middle" x="366.8257" y="-418.3" font-family="Helvetica,sans-Serif" font-size="14.00" fill="#000000">&lt; Char &gt;</text>
<polyline fill="none" stroke="#bfbfbf" points="300.0776,-411.5 433.5737,-411.5 "/>
<text text-anchor="middle" x="366.8257" y="-396.3" font-family="Helvetica,sans-Serif" font-size="14.00" fill="#000000"> </text>
<polyline fill="none" stroke="#bfbfbf" points="300.0776,-389.5 433.5737,-389.5 "/>
<text text-anchor="middle" x="366.8257" y="-374.3" font-family="Helvetica,sans-Serif" font-size="14.00" fill="#000000"> </text>
</a>
</g>
</g>
<!-- Node300&#45;&gt;Node302 -->
<g id="edge6" class="edge">
<title>Node300&#45;&gt;Node302</title>
<path fill="none" stroke="#191970" d="M319.7346,-477.1948C326.2644,-467.5307 333.2102,-457.2509 339.7051,-447.6385"/>
<polygon fill="none" stroke="#191970" points="316.8236,-475.2514 314.1251,-485.4969 322.6238,-479.1705 316.8236,-475.2514"/>
</g>
<!-- Node301 -->
<g id="node5" class="node">
<title>Node301</title>
<g id="a_node5"><a xlink:title="STL class. ">
<polygon fill="none" stroke="#bfbfbf" points="242.5776,-589.5 242.5776,-655.5 341.0737,-655.5 341.0737,-589.5 242.5776,-589.5"/>
<text text-anchor="middle" x="291.8257" y="-640.3" font-family="Helvetica,sans-Serif" font-size="14.00" fill="#000000">std::ios_base</text>
<polyline fill="none" stroke="#bfbfbf" points="242.5776,-633.5 341.0737,-633.5 "/>
<text text-anchor="middle" x="291.8257" y="-618.3" font-family="Helvetica,sans-Serif" font-size="14.00" fill="#000000"> </text>
<polyline fill="none" stroke="#bfbfbf" points="242.5776,-611.5 341.0737,-611.5 "/>
<text text-anchor="middle" x="291.8257" y="-596.3" font-family="Helvetica,sans-Serif" font-size="14.00" fill="#000000"> </text>
</a>
</g>
</g>
<!-- Node301&#45;&gt;Node300 -->
<g id="edge4" class="edge">
<title>Node301&#45;&gt;Node300</title>
<path fill="none" stroke="#191970" d="M291.8257,-579.1737C291.8257,-570.0025 291.8257,-560.4608 291.8257,-551.7336"/>
<polygon fill="none" stroke="#191970" points="288.3258,-579.3078 291.8257,-589.3078 295.3258,-579.3078 288.3258,-579.3078"/>
</g>
<!-- Node302&#45;&gt;Node298 -->
<g id="edge5" class="edge">
<title>Node302&#45;&gt;Node298</title>
<path fill="none" stroke="#191970" d="M335.6899,-358.5131C329.5707,-348.8856 323.2186,-338.8916 317.3113,-329.5973"/>
<polygon fill="none" stroke="#191970" points="332.9067,-360.659 341.2247,-367.2211 338.8144,-356.9041 332.9067,-360.659"/>
</g>
</g>
</svg>
