<?xml version="1.0" encoding="UTF-8" standalone="no"?>
<!DOCTYPE svg PUBLIC "-//W3C//DTD SVG 1.1//EN"
 "http://www.w3.org/Graphics/SVG/1.1/DTD/svg11.dtd">
<!-- Generated by graphviz version 2.40.1 (20161225.0304)
 -->
<!-- Title: MapIniter::getRandomGrass Pages: 1 -->
<svg width="631pt" height="303pt"
 viewBox="0.00 0.00 630.93 303.00" xmlns="http://www.w3.org/2000/svg" xmlns:xlink="http://www.w3.org/1999/xlink">
<g id="graph0" class="graph" transform="scale(1 1) rotate(0) translate(4 299)">
<title>MapIniter::getRandomGrass</title>
<!-- Node3 -->
<g id="node1" class="node">
<title>Node3</title>
<polygon fill="#bfbfbf" stroke="#000000" points="0,-144.5 0,-166.5 191.8545,-166.5 191.8545,-144.5 0,-144.5"/>
<text text-anchor="middle" x="95.9272" y="-151.3" font-family="Helvetica,sans-Serif" font-size="14.00" fill="#000000">MapIniter::getRandomGrass</text>
</g>
<!-- Node4 -->
<g id="node2" class="node">
<title>Node4</title>
<g id="a_node2"><a xlink:href="../../de/d2b/classIBaseGameElement.html#ae2be75da1a2a9edfabe993770e24654a" target="_top" xlink:title="IBaseGameElement::nextStep">
<polygon fill="none" stroke="#000000" points="230.6982,-272.5 230.6982,-294.5 435.0215,-294.5 435.0215,-272.5 230.6982,-272.5"/>
<text text-anchor="middle" x="332.8599" y="-279.3" font-family="Helvetica,sans-Serif" font-size="14.00" fill="#000000">IBaseGameElement::nextStep</text>
</a>
</g>
</g>
<!-- Node3&#45;&gt;Node4 -->
<g id="edge1" class="edge">
<title>Node3&#45;&gt;Node4</title>
<path fill="none" stroke="#191970" d="M105.9219,-166.8118C126.3873,-189.1924 175.5614,-239.066 227.8545,-263.5 232.5162,-265.6782 237.3998,-267.6191 242.4027,-269.3487"/>
<polygon fill="#191970" stroke="#191970" points="241.5537,-272.7508 252.1434,-272.421 243.6594,-266.075 241.5537,-272.7508"/>
</g>
<!-- Node5 -->
<g id="node3" class="node">
<title>Node5</title>
<g id="a_node3"><a xlink:href="../../de/d2b/classIBaseGameElement.html#a2f95e7a61b5db7f2fbbfd32ff786f58c" target="_top" xlink:title="IBaseGameElement::setHelth">
<polygon fill="none" stroke="#000000" points="232.6499,-231.5 232.6499,-253.5 433.0698,-253.5 433.0698,-231.5 232.6499,-231.5"/>
<text text-anchor="middle" x="332.8599" y="-238.3" font-family="Helvetica,sans-Serif" font-size="14.00" fill="#000000">IBaseGameElement::setHelth</text>
</a>
</g>
</g>
<!-- Node3&#45;&gt;Node5 -->
<g id="edge2" class="edge">
<title>Node3&#45;&gt;Node5</title>
<path fill="none" stroke="#191970" d="M116.8874,-166.7122C142.4854,-180.0453 187.3828,-202.2787 227.8545,-216.5 241.2569,-221.2095 255.9066,-225.4058 269.8964,-228.9811"/>
<polygon fill="#191970" stroke="#191970" points="269.3906,-232.4616 279.9392,-231.4731 271.0765,-225.6677 269.3906,-232.4616"/>
</g>
<!-- Node6 -->
<g id="node4" class="node">
<title>Node6</title>
<g id="a_node4"><a xlink:href="../../d2/dc5/classInfinityDouble.html#a8d33637f68b523cf2b21abd1509c47bf" target="_top" xlink:title="InfinityDouble::Infinity\lDouble">
<polygon fill="none" stroke="#000000" points="473.8652,-137.5 473.8652,-173.5 622.9336,-173.5 622.9336,-137.5 473.8652,-137.5"/>
<text text-anchor="start" x="481.8652" y="-158.3" font-family="Helvetica,sans-Serif" font-size="14.00" fill="#000000">InfinityDouble::Infinity</text>
<text text-anchor="middle" x="548.3994" y="-144.3" font-family="Helvetica,sans-Serif" font-size="14.00" fill="#000000">Double</text>
</a>
</g>
</g>
<!-- Node3&#45;&gt;Node6 -->
<g id="edge3" class="edge">
<title>Node3&#45;&gt;Node6</title>
<path fill="none" stroke="#191970" d="M136.8715,-166.5012C162.7432,-172.8748 197.0001,-180.2618 227.8545,-183.5 320.6828,-193.2424 345.2443,-195.0488 437.8652,-183.5 451.171,-181.8409 465.1737,-179.0996 478.5732,-175.9649"/>
<polygon fill="#191970" stroke="#191970" points="479.7934,-179.2701 488.6807,-173.5025 478.1364,-172.469 479.7934,-179.2701"/>
</g>
<!-- Node7 -->
<g id="node5" class="node">
<title>Node7</title>
<g id="a_node5"><a xlink:href="../../d2/dc5/classInfinityDouble.html#a67fae871f96708313bedc644630ac8bc" target="_top" xlink:title="InfinityDouble::Infinity\lValue">
<polygon fill="none" stroke="#000000" points="258.3257,-137.5 258.3257,-173.5 407.394,-173.5 407.394,-137.5 258.3257,-137.5"/>
<text text-anchor="start" x="266.3257" y="-158.3" font-family="Helvetica,sans-Serif" font-size="14.00" fill="#000000">InfinityDouble::Infinity</text>
<text text-anchor="middle" x="332.8599" y="-144.3" font-family="Helvetica,sans-Serif" font-size="14.00" fill="#000000">Value</text>
</a>
</g>
</g>
<!-- Node3&#45;&gt;Node7 -->
<g id="edge4" class="edge">
<title>Node3&#45;&gt;Node7</title>
<path fill="none" stroke="#191970" d="M191.9553,-155.5C210.4851,-155.5 229.7751,-155.5 247.9214,-155.5"/>
<polygon fill="#191970" stroke="#191970" points="248.1648,-159.0001 258.1648,-155.5 248.1647,-152.0001 248.1648,-159.0001"/>
</g>
<!-- Node8 -->
<g id="node6" class="node">
<title>Node8</title>
<g id="a_node6"><a xlink:href="../../de/d2b/classIBaseGameElement.html#ac480b8140b5b290f49b4b96a47291180" target="_top" xlink:title="IBaseGameElement::setTransit\lWeight">
<polygon fill="none" stroke="#000000" points="227.8545,-82.5 227.8545,-118.5 437.8652,-118.5 437.8652,-82.5 227.8545,-82.5"/>
<text text-anchor="start" x="235.8545" y="-103.3" font-family="Helvetica,sans-Serif" font-size="14.00" fill="#000000">IBaseGameElement::setTransit</text>
<text text-anchor="middle" x="332.8599" y="-89.3" font-family="Helvetica,sans-Serif" font-size="14.00" fill="#000000">Weight</text>
</a>
</g>
</g>
<!-- Node3&#45;&gt;Node8 -->
<g id="edge6" class="edge">
<title>Node3&#45;&gt;Node8</title>
<path fill="none" stroke="#191970" d="M143.5891,-144.4361C172.6153,-137.6981 210.5989,-128.8809 244.9157,-120.9148"/>
<polygon fill="#191970" stroke="#191970" points="246.0093,-124.2541 254.9588,-118.5834 244.4264,-117.4354 246.0093,-124.2541"/>
</g>
<!-- Node9 -->
<g id="node7" class="node">
<title>Node9</title>
<g id="a_node7"><a xlink:href="../../d2/dc5/classInfinityDouble.html#adb0a2fa93aa5f90a93c3f4303436913a" target="_top" xlink:title="InfinityDouble::FromValue">
<polygon fill="none" stroke="#000000" points="244.8384,-41.5 244.8384,-63.5 420.8813,-63.5 420.8813,-41.5 244.8384,-41.5"/>
<text text-anchor="middle" x="332.8599" y="-48.3" font-family="Helvetica,sans-Serif" font-size="14.00" fill="#000000">InfinityDouble::FromValue</text>
</a>
</g>
</g>
<!-- Node3&#45;&gt;Node9 -->
<g id="edge7" class="edge">
<title>Node3&#45;&gt;Node9</title>
<path fill="none" stroke="#191970" d="M110.0366,-144.312C133.2252,-126.5042 181.4632,-91.8548 227.8545,-73.5 234.9652,-70.6866 242.5018,-68.2352 250.1437,-66.102"/>
<polygon fill="#191970" stroke="#191970" points="251.064,-69.4792 259.8558,-63.5669 249.296,-62.7061 251.064,-69.4792"/>
</g>
<!-- Node10 -->
<g id="node8" class="node">
<title>Node10</title>
<g id="a_node8"><a xlink:href="../../de/d2b/classIBaseGameElement.html#a324cba2176155a50b5a2239eb0a8b6a0" target="_top" xlink:title="IBaseGameElement::setType">
<polygon fill="none" stroke="#000000" points="233.812,-.5 233.812,-22.5 431.9077,-22.5 431.9077,-.5 233.812,-.5"/>
<text text-anchor="middle" x="332.8599" y="-7.3" font-family="Helvetica,sans-Serif" font-size="14.00" fill="#000000">IBaseGameElement::setType</text>
</a>
</g>
</g>
<!-- Node3&#45;&gt;Node10 -->
<g id="edge9" class="edge">
<title>Node3&#45;&gt;Node10</title>
<path fill="none" stroke="#191970" d="M104.3892,-144.1515C123.4438,-119.4881 172.4059,-60.9379 227.8545,-32.5 232.7655,-29.9813 237.9496,-27.7643 243.2775,-25.813"/>
<polygon fill="#191970" stroke="#191970" points="244.6113,-29.058 252.9949,-22.5798 242.4013,-22.416 244.6113,-29.058"/>
</g>
<!-- Node7&#45;&gt;Node6 -->
<g id="edge5" class="edge">
<title>Node7&#45;&gt;Node6</title>
<path fill="none" stroke="#191970" d="M407.6402,-155.5C425.696,-155.5 445.1191,-155.5 463.5974,-155.5"/>
<polygon fill="#191970" stroke="#191970" points="463.7513,-159.0001 473.7512,-155.5 463.7512,-152.0001 463.7513,-159.0001"/>
</g>
<!-- Node9&#45;&gt;Node6 -->
<g id="edge8" class="edge">
<title>Node9&#45;&gt;Node6</title>
<path fill="none" stroke="#191970" d="M408.9598,-63.5559C418.8976,-66.1979 428.7746,-69.4641 437.8652,-73.5 469.4295,-87.5135 500.5861,-111.8417 521.7339,-130.3705"/>
<polygon fill="#191970" stroke="#191970" points="519.5392,-133.1031 529.3289,-137.1543 524.2023,-127.8824 519.5392,-133.1031"/>
</g>
</g>
</svg>
