<?xml version="1.0" encoding="UTF-8" standalone="no"?>
<!DOCTYPE svg PUBLIC "-//W3C//DTD SVG 1.1//EN"
 "http://www.w3.org/Graphics/SVG/1.1/DTD/svg11.dtd">
<!-- Generated by graphviz version 2.40.1 (20161225.0304)
 -->
<!-- Title: MapIniter::getRandomGrass Pages: 1 -->
<!--zoomable 303 -->
<svg id="main" version="1.1" xmlns="http://www.w3.org/2000/svg" xmlns:xlink="http://www.w3.org/1999/xlink" xml:space="preserve" onload="init(evt)">
<style type="text/css"><![CDATA[
.edge:hover path { stroke: red; }
.edge:hover polygon { stroke: red; fill: red; }
]]></style>
<script type="text/javascript"><![CDATA[
var edges = document.getElementsByTagName('g');
if (edges && edges.length) {
  for (var i=0;i<edges.length;i++) {
    if (edges[i].id.substr(0,4)=='edge') {
      edges[i].setAttribute('class','edge');
    }
  }
}
]]></script>
        <defs>
                <circle id="rim" cx="0" cy="0" r="7"/>
                <circle id="rim2" cx="0" cy="0" r="3.5"/>
                <g id="zoomPlus">
                        <use xlink:href="#rim" fill="#404040">
                                <set attributeName="fill" to="#808080" begin="zoomplus.mouseover" end="zoomplus.mouseout"/>
                        </use>
                        <path d="M-4,0h8M0,-4v8" fill="none" stroke="white" stroke-width="1.5" pointer-events="none"/>
                </g>
                <g id="zoomMin">
                        <use xlink:href="#rim" fill="#404040">
                                <set attributeName="fill" to="#808080" begin="zoomminus.mouseover" end="zoomminus.mouseout"/>
                        </use>
                        <path d="M-4,0h8" fill="none" stroke="white" stroke-width="1.5" pointer-events="none"/>
                </g>
                <g id="dirArrow">
                        <path fill="none" stroke="white" stroke-width="1.5" d="M0,-3.0v7 M-2.5,-0.5L0,-3.0L2.5,-0.5"/>
                </g>
               <g id="resetDef">
                       <use xlink:href="#rim2" fill="#404040">
                               <set attributeName="fill" to="#808080" begin="reset.mouseover" end="reset.mouseout"/>
                       </use>
               </g>
        </defs>

<script type="text/javascript">
var viewWidth = 631;
var viewHeight = 303;
var sectionId = 'dynsection-2';
</script>
<script xlink:href="../../svgpan.js"/>
<svg id="graph" class="graph">
<g id="viewport">
<title>MapIniter::getRandomGrass</title>
<!-- Node3 -->
<g id="node1" class="node">
<title>Node3</title>
<polygon fill="#bfbfbf" stroke="#000000" points="0,-144.5 0,-166.5 191.8545,-166.5 191.8545,-144.5 0,-144.5"/>
<text text-anchor="middle" x="95.9272" y="-151.3" font-family="Helvetica,sans-Serif" font-size="14.00" fill="#000000">MapIniter::getRandomGrass</text>
</g>
<!-- Node4 -->
<g id="node2" class="node">
<title>Node4</title>
<g id="a_node2"><a xlink:href="../../de/d2b/classIBaseGameElement.html#ae2be75da1a2a9edfabe993770e24654a" target="_top" xlink:title="IBaseGameElement::nextStep">
<polygon fill="none" stroke="#000000" points="230.6982,-272.5 230.6982,-294.5 435.0215,-294.5 435.0215,-272.5 230.6982,-272.5"/>
<text text-anchor="middle" x="332.8599" y="-279.3" font-family="Helvetica,sans-Serif" font-size="14.00" fill="#000000">IBaseGameElement::nextStep</text>
</a>
</g>
</g>
<!-- Node3&#45;&gt;Node4 -->
<g id="edge1" class="edge">
<title>Node3&#45;&gt;Node4</title>
<path fill="none" stroke="#191970" d="M105.9219,-166.8118C126.3873,-189.1924 175.5614,-239.066 227.8545,-263.5 232.5162,-265.6782 237.3998,-267.6191 242.4027,-269.3487"/>
<polygon fill="#191970" stroke="#191970" points="241.5537,-272.7508 252.1434,-272.421 243.6594,-266.075 241.5537,-272.7508"/>
</g>
<!-- Node5 -->
<g id="node3" class="node">
<title>Node5</title>
<g id="a_node3"><a xlink:href="../../de/d2b/classIBaseGameElement.html#a2f95e7a61b5db7f2fbbfd32ff786f58c" target="_top" xlink:title="IBaseGameElement::setHelth">
<polygon fill="none" stroke="#000000" points="232.6499,-231.5 232.6499,-253.5 433.0698,-253.5 433.0698,-231.5 232.6499,-231.5"/>
<text text-anchor="middle" x="332.8599" y="-238.3" font-family="Helvetica,sans-Serif" font-size="14.00" fill="#000000">IBaseGameElement::setHelth</text>
</a>
</g>
</g>
<!-- Node3&#45;&gt;Node5 -->
<g id="edge2" class="edge">
<title>Node3&#45;&gt;Node5</title>
<path fill="none" stroke="#191970" d="M116.8874,-166.7122C142.4854,-180.0453 187.3828,-202.2787 227.8545,-216.5 241.2569,-221.2095 255.9066,-225.4058 269.8964,-228.9811"/>
<polygon fill="#191970" stroke="#191970" points="269.3906,-232.4616 279.9392,-231.4731 271.0765,-225.6677 269.3906,-232.4616"/>
</g>
<!-- Node6 -->
<g id="node4" class="node">
<title>Node6</title>
<g id="a_node4"><a xlink:href="../../d2/dc5/classInfinityDouble.html#a8d33637f68b523cf2b21abd1509c47bf" target="_top" xlink:title="InfinityDouble::Infinity\lDouble">
<polygon fill="none" stroke="#000000" points="473.8652,-137.5 473.8652,-173.5 622.9336,-173.5 622.9336,-137.5 473.8652,-137.5"/>
<text text-anchor="start" x="481.8652" y="-158.3" font-family="Helvetica,sans-Serif" font-size="14.00" fill="#000000">InfinityDouble::Infinity</text>
<text text-anchor="middle" x="548.3994" y="-144.3" font-family="Helvetica,sans-Serif" font-size="14.00" fill="#000000">Double</text>
</a>
</g>
</g>
<!-- Node3&#45;&gt;Node6 -->
<g id="edge3" class="edge">
<title>Node3&#45;&gt;Node6</title>
<path fill="none" stroke="#191970" d="M136.8715,-166.5012C162.7432,-172.8748 197.0001,-180.2618 227.8545,-183.5 320.6828,-193.2424 345.2443,-195.0488 437.8652,-183.5 451.171,-181.8409 465.1737,-179.0996 478.5732,-175.9649"/>
<polygon fill="#191970" stroke="#191970" points="479.7934,-179.2701 488.6807,-173.5025 478.1364,-172.469 479.7934,-179.2701"/>
</g>
<!-- Node7 -->
<g id="node5" class="node">
<title>Node7</title>
<g id="a_node5"><a xlink:href="../../d2/dc5/classInfinityDouble.html#a67fae871f96708313bedc644630ac8bc" target="_top" xlink:title="InfinityDouble::Infinity\lValue">
<polygon fill="none" stroke="#000000" points="258.3257,-137.5 258.3257,-173.5 407.394,-173.5 407.394,-137.5 258.3257,-137.5"/>
<text text-anchor="start" x="266.3257" y="-158.3" font-family="Helvetica,sans-Serif" font-size="14.00" fill="#000000">InfinityDouble::Infinity</text>
<text text-anchor="middle" x="332.8599" y="-144.3" font-family="Helvetica,sans-Serif" font-size="14.00" fill="#000000">Value</text>
</a>
</g>
</g>
<!-- Node3&#45;&gt;Node7 -->
<g id="edge4" class="edge">
<title>Node3&#45;&gt;Node7</title>
<path fill="none" stroke="#191970" d="M191.9553,-155.5C210.4851,-155.5 229.7751,-155.5 247.9214,-155.5"/>
<polygon fill="#191970" stroke="#191970" points="248.1648,-159.0001 258.1648,-155.5 248.1647,-152.0001 248.1648,-159.0001"/>
</g>
<!-- Node8 -->
<g id="node6" class="node">
<title>Node8</title>
<g id="a_node6"><a xlink:href="../../de/d2b/classIBaseGameElement.html#ac480b8140b5b290f49b4b96a47291180" target="_top" xlink:title="IBaseGameElement::setTransit\lWeight">
<polygon fill="none" stroke="#000000" points="227.8545,-82.5 227.8545,-118.5 437.8652,-118.5 437.8652,-82.5 227.8545,-82.5"/>
<text text-anchor="start" x="235.8545" y="-103.3" font-family="Helvetica,sans-Serif" font-size="14.00" fill="#000000">IBaseGameElement::setTransit</text>
<text text-anchor="middle" x="332.8599" y="-89.3" font-family="Helvetica,sans-Serif" font-size="14.00" fill="#000000">Weight</text>
</a>
</g>
</g>
<!-- Node3&#45;&gt;Node8 -->
<g id="edge6" class="edge">
<title>Node3&#45;&gt;Node8</title>
<path fill="none" stroke="#191970" d="M143.5891,-144.4361C172.6153,-137.6981 210.5989,-128.8809 244.9157,-120.9148"/>
<polygon fill="#191970" stroke="#191970" points="246.0093,-124.2541 254.9588,-118.5834 244.4264,-117.4354 246.0093,-124.2541"/>
</g>
<!-- Node9 -->
<g id="node7" class="node">
<title>Node9</title>
<g id="a_node7"><a xlink:href="../../d2/dc5/classInfinityDouble.html#adb0a2fa93aa5f90a93c3f4303436913a" target="_top" xlink:title="InfinityDouble::FromValue">
<polygon fill="none" stroke="#000000" points="244.8384,-41.5 244.8384,-63.5 420.8813,-63.5 420.8813,-41.5 244.8384,-41.5"/>
<text text-anchor="middle" x="332.8599" y="-48.3" font-family="Helvetica,sans-Serif" font-size="14.00" fill="#000000">InfinityDouble::FromValue</text>
</a>
</g>
</g>
<!-- Node3&#45;&gt;Node9 -->
<g id="edge7" class="edge">
<title>Node3&#45;&gt;Node9</title>
<path fill="none" stroke="#191970" d="M110.0366,-144.312C133.2252,-126.5042 181.4632,-91.8548 227.8545,-73.5 234.9652,-70.6866 242.5018,-68.2352 250.1437,-66.102"/>
<polygon fill="#191970" stroke="#191970" points="251.064,-69.4792 259.8558,-63.5669 249.296,-62.7061 251.064,-69.4792"/>
</g>
<!-- Node10 -->
<g id="node8" class="node">
<title>Node10</title>
<g id="a_node8"><a xlink:href="../../de/d2b/classIBaseGameElement.html#a324cba2176155a50b5a2239eb0a8b6a0" target="_top" xlink:title="IBaseGameElement::setType">
<polygon fill="none" stroke="#000000" points="233.812,-.5 233.812,-22.5 431.9077,-22.5 431.9077,-.5 233.812,-.5"/>
<text text-anchor="middle" x="332.8599" y="-7.3" font-family="Helvetica,sans-Serif" font-size="14.00" fill="#000000">IBaseGameElement::setType</text>
</a>
</g>
</g>
<!-- Node3&#45;&gt;Node10 -->
<g id="edge9" class="edge">
<title>Node3&#45;&gt;Node10</title>
<path fill="none" stroke="#191970" d="M104.3892,-144.1515C123.4438,-119.4881 172.4059,-60.9379 227.8545,-32.5 232.7655,-29.9813 237.9496,-27.7643 243.2775,-25.813"/>
<polygon fill="#191970" stroke="#191970" points="244.6113,-29.058 252.9949,-22.5798 242.4013,-22.416 244.6113,-29.058"/>
</g>
<!-- Node7&#45;&gt;Node6 -->
<g id="edge5" class="edge">
<title>Node7&#45;&gt;Node6</title>
<path fill="none" stroke="#191970" d="M407.6402,-155.5C425.696,-155.5 445.1191,-155.5 463.5974,-155.5"/>
<polygon fill="#191970" stroke="#191970" points="463.7513,-159.0001 473.7512,-155.5 463.7512,-152.0001 463.7513,-159.0001"/>
</g>
<!-- Node9&#45;&gt;Node6 -->
<g id="edge8" class="edge">
<title>Node9&#45;&gt;Node6</title>
<path fill="none" stroke="#191970" d="M408.9598,-63.5559C418.8976,-66.1979 428.7746,-69.4641 437.8652,-73.5 469.4295,-87.5135 500.5861,-111.8417 521.7339,-130.3705"/>
<polygon fill="#191970" stroke="#191970" points="519.5392,-133.1031 529.3289,-137.1543 524.2023,-127.8824 519.5392,-133.1031"/>
</g>
</g>
</svg>
        <g id="navigator" transform="translate(0 0)" fill="#404254">
                <rect fill="#f2f5e9" fill-opacity="0.5" stroke="#606060" stroke-width=".5" x="0" y="0" width="60" height="60"/>
                <use id="zoomplus" xlink:href="#zoomPlus" x="17" y="9" onmousedown="handleZoom(evt,'in')"/>
                <use id="zoomminus" xlink:href="#zoomMin" x="42" y="9" onmousedown="handleZoom(evt,'out')"/>
                <use id="reset" xlink:href="#resetDef" x="30" y="36" onmousedown="handleReset()"/>
                <g id="arrowUp" xlink:href="#dirArrow" transform="translate(30 24)" onmousedown="handlePan(0,-1)">
                  <use xlink:href="#rim" fill="#404040">
                        <set attributeName="fill" to="#808080" begin="arrowUp.mouseover" end="arrowUp.mouseout"/>
                  </use>
                  <path fill="none" stroke="white" stroke-width="1.5" d="M0,-3.0v7 M-2.5,-0.5L0,-3.0L2.5,-0.5"/>
                </g>
                <g id="arrowRight" xlink:href="#dirArrow" transform="rotate(90) translate(36 -43)" onmousedown="handlePan(1,0)">
                  <use xlink:href="#rim" fill="#404040">
                        <set attributeName="fill" to="#808080" begin="arrowRight.mouseover" end="arrowRight.mouseout"/>
                  </use>
                  <path fill="none" stroke="white" stroke-width="1.5" d="M0,-3.0v7 M-2.5,-0.5L0,-3.0L2.5,-0.5"/>
                </g>
                <g id="arrowDown" xlink:href="#dirArrow" transform="rotate(180) translate(-30 -48)" onmousedown="handlePan(0,1)">
                  <use xlink:href="#rim" fill="#404040">
                        <set attributeName="fill" to="#808080" begin="arrowDown.mouseover" end="arrowDown.mouseout"/>
                  </use>
                  <path fill="none" stroke="white" stroke-width="1.5" d="M0,-3.0v7 M-2.5,-0.5L0,-3.0L2.5,-0.5"/>
                </g>
                <g id="arrowLeft" xlink:href="#dirArrow" transform="rotate(270) translate(-36 17)" onmousedown="handlePan(-1,0)">
                  <use xlink:href="#rim" fill="#404040">
                        <set attributeName="fill" to="#808080" begin="arrowLeft.mouseover" end="arrowLeft.mouseout"/>
                  </use>
                  <path fill="none" stroke="white" stroke-width="1.5" d="M0,-3.0v7 M-2.5,-0.5L0,-3.0L2.5,-0.5"/>
                </g>
        </g>
        <svg viewBox="0 0 15 15" width="100%" height="30px" preserveAspectRatio="xMaxYMin meet">
         <g id="arrow_out" transform="scale(0.3 0.3)">
          <a xlink:href="classMapIniter_a8961b80aa1df5f628bd4e28e66a51d0b_cgraph_org.svg" target="_base">
           <rect id="button" ry="5" rx="5" y="6" x="6" height="38" width="38"
                fill="#f2f5e9" fill-opacity="0.5" stroke="#606060" stroke-width="1.0"/>
           <path id="arrow"
             d="M 11.500037,31.436501 C 11.940474,20.09759 22.043105,11.32322 32.158766,21.979434 L 37.068811,17.246167 C 37.068811,17.246167 37.088388,32 37.088388,32 L 22.160133,31.978069 C 22.160133,31.978069 26.997745,27.140456 26.997745,27.140456 C 18.528582,18.264221 13.291696,25.230495 11.500037,31.436501 z"
             style="fill:#404040;"/>
          </a>
         </g>
        </svg>
</svg>
