<?xml version="1.0" encoding="UTF-8" standalone="no"?>
<!DOCTYPE svg PUBLIC "-//W3C//DTD SVG 1.1//EN"
 "http://www.w3.org/Graphics/SVG/1.1/DTD/svg11.dtd">
<!-- Generated by graphviz version 2.40.1 (20161225.0304)
 -->
<!-- Title: Core/maps/listbsemap.cpp Pages: 1 -->
<svg width="714pt" height="326pt"
 viewBox="0.00 0.00 713.58 326.00" xmlns="http://www.w3.org/2000/svg" xmlns:xlink="http://www.w3.org/1999/xlink">
<g id="graph0" class="graph" transform="scale(1 1) rotate(0) translate(4 322)">
<title>Core/maps/listbsemap.cpp</title>
<!-- Node307 -->
<g id="node1" class="node">
<title>Node307</title>
<polygon fill="#bfbfbf" stroke="#000000" points="107.4692,-295.5 107.4692,-317.5 289.2065,-317.5 289.2065,-295.5 107.4692,-295.5"/>
<text text-anchor="middle" x="198.3379" y="-302.3" font-family="Helvetica,sans-Serif" font-size="14.00" fill="#000000">Core/maps/listbsemap.cpp</text>
</g>
<!-- Node308 -->
<g id="node2" class="node">
<title>Node308</title>
<g id="a_node2"><a xlink:href="$de/de1/a00065.html" xlink:title="listbsemap.h">
<polygon fill="none" stroke="#000000" points="114.0415,-236.5 114.0415,-258.5 208.6343,-258.5 208.6343,-236.5 114.0415,-236.5"/>
<text text-anchor="middle" x="161.3379" y="-243.3" font-family="Helvetica,sans-Serif" font-size="14.00" fill="#000000">listbsemap.h</text>
</a>
</g>
</g>
<!-- Node307&#45;&gt;Node308 -->
<g id="edge1" class="edge">
<title>Node307&#45;&gt;Node308</title>
<path fill="none" stroke="#191970" d="M191.3785,-295.4026C186.4172,-287.4914 179.6123,-276.6402 173.7335,-267.266"/>
<polygon fill="#191970" stroke="#191970" points="176.5442,-265.1601 168.2661,-258.5477 170.6139,-268.8791 176.5442,-265.1601"/>
</g>
<!-- Node321 -->
<g id="node15" class="node">
<title>Node321</title>
<g id="a_node15"><a xlink:href="$da/d24/a00068.html" xlink:title="../util/baseutil.h">
<polygon fill="none" stroke="#000000" points="203.645,-177.5 203.645,-199.5 313.0308,-199.5 313.0308,-177.5 203.645,-177.5"/>
<text text-anchor="middle" x="258.3379" y="-184.3" font-family="Helvetica,sans-Serif" font-size="14.00" fill="#000000">../util/baseutil.h</text>
</a>
</g>
</g>
<!-- Node307&#45;&gt;Node321 -->
<g id="edge16" class="edge">
<title>Node307&#45;&gt;Node321</title>
<path fill="none" stroke="#191970" d="M204.0909,-295.1857C214.2413,-275.2232 235.4528,-233.5073 248.1358,-208.5641"/>
<polygon fill="#191970" stroke="#191970" points="251.2772,-210.108 252.6899,-199.6078 245.0375,-206.9353 251.2772,-210.108"/>
</g>
<!-- Node309 -->
<g id="node3" class="node">
<title>Node309</title>
<polygon fill="none" stroke="#bfbfbf" points="137,-177.5 137,-199.5 185.6758,-199.5 185.6758,-177.5 137,-177.5"/>
<text text-anchor="middle" x="161.3379" y="-184.3" font-family="Helvetica,sans-Serif" font-size="14.00" fill="#000000">QList</text>
</g>
<!-- Node308&#45;&gt;Node309 -->
<g id="edge2" class="edge">
<title>Node308&#45;&gt;Node309</title>
<path fill="none" stroke="#191970" d="M161.3379,-236.4026C161.3379,-228.9034 161.3379,-218.7626 161.3379,-209.7421"/>
<polygon fill="#191970" stroke="#191970" points="164.838,-209.5477 161.3379,-199.5477 157.838,-209.5477 164.838,-209.5477"/>
</g>
<!-- Node310 -->
<g id="node4" class="node">
<title>Node310</title>
<g id="a_node4"><a xlink:href="$dc/dee/a00053.html" xlink:title="imap.h">
<polygon fill="none" stroke="#000000" points="61.3276,-177.5 61.3276,-199.5 119.3481,-199.5 119.3481,-177.5 61.3276,-177.5"/>
<text text-anchor="middle" x="90.3379" y="-184.3" font-family="Helvetica,sans-Serif" font-size="14.00" fill="#000000">imap.h</text>
</a>
</g>
</g>
<!-- Node308&#45;&gt;Node310 -->
<g id="edge3" class="edge">
<title>Node308&#45;&gt;Node310</title>
<path fill="none" stroke="#191970" d="M147.9833,-236.4026C137.6697,-227.8321 123.204,-215.8113 111.344,-205.9558"/>
<polygon fill="#191970" stroke="#191970" points="113.5606,-203.247 103.6326,-199.5477 109.0867,-208.6308 113.5606,-203.247"/>
</g>
<!-- Node311 -->
<g id="node5" class="node">
<title>Node311</title>
<polygon fill="none" stroke="#bfbfbf" points="0,-118.5 0,-140.5 62.6758,-140.5 62.6758,-118.5 0,-118.5"/>
<text text-anchor="middle" x="31.3379" y="-125.3" font-family="Helvetica,sans-Serif" font-size="14.00" fill="#000000">QSizeF</text>
</g>
<!-- Node310&#45;&gt;Node311 -->
<g id="edge4" class="edge">
<title>Node310&#45;&gt;Node311</title>
<path fill="none" stroke="#191970" d="M79.2404,-177.4026C70.9172,-169.0793 59.3398,-157.5019 49.6518,-147.8139"/>
<polygon fill="#191970" stroke="#191970" points="51.9316,-145.1439 42.3856,-140.5477 46.9818,-150.0937 51.9316,-145.1439"/>
</g>
<!-- Node312 -->
<g id="node6" class="node">
<title>Node312</title>
<polygon fill="none" stroke="#bfbfbf" points="21.6621,-59.5 21.6621,-81.5 89.0137,-81.5 89.0137,-59.5 21.6621,-59.5"/>
<text text-anchor="middle" x="55.3379" y="-66.3" font-family="Helvetica,sans-Serif" font-size="14.00" fill="#000000">QPointF</text>
</g>
<!-- Node310&#45;&gt;Node312 -->
<g id="edge5" class="edge">
<title>Node310&#45;&gt;Node312</title>
<path fill="none" stroke="#191970" d="M87.5847,-177.4499C84.0622,-163.5189 77.6577,-138.8672 71.3379,-118 68.6777,-109.2163 65.4937,-99.6078 62.669,-91.345"/>
<polygon fill="#191970" stroke="#191970" points="65.9299,-90.0656 59.3497,-81.7619 59.3155,-92.3567 65.9299,-90.0656"/>
</g>
<!-- Node313 -->
<g id="node7" class="node">
<title>Node313</title>
<g id="a_node7"><a xlink:href="$d6/d2d/a00047.html" xlink:title="ibasegameelement.h">
<polygon fill="none" stroke="#000000" points="178.3521,-118.5 178.3521,-140.5 324.3237,-140.5 324.3237,-118.5 178.3521,-118.5"/>
<text text-anchor="middle" x="251.3379" y="-125.3" font-family="Helvetica,sans-Serif" font-size="14.00" fill="#000000">ibasegameelement.h</text>
</a>
</g>
</g>
<!-- Node310&#45;&gt;Node313 -->
<g id="edge6" class="edge">
<title>Node310&#45;&gt;Node313</title>
<path fill="none" stroke="#191970" d="M119.4938,-177.8155C145.2707,-168.3693 183.1023,-154.5056 211.6369,-144.0488"/>
<polygon fill="#191970" stroke="#191970" points="213.1222,-147.2322 221.3072,-140.505 210.7135,-140.6596 213.1222,-147.2322"/>
</g>
<!-- Node313&#45;&gt;Node312 -->
<g id="edge10" class="edge">
<title>Node313&#45;&gt;Node312</title>
<path fill="none" stroke="#191970" d="M214.4718,-118.4026C181.67,-108.5285 133.6542,-94.0748 98.9524,-83.6288"/>
<polygon fill="#191970" stroke="#191970" points="99.6769,-80.1919 89.0925,-80.6608 97.6592,-86.8948 99.6769,-80.1919"/>
</g>
<!-- Node314 -->
<g id="node8" class="node">
<title>Node314</title>
<polygon fill="none" stroke="#bfbfbf" points="106.6621,-59.5 106.6621,-81.5 174.0137,-81.5 174.0137,-59.5 106.6621,-59.5"/>
<text text-anchor="middle" x="140.3379" y="-66.3" font-family="Helvetica,sans-Serif" font-size="14.00" fill="#000000">QObject</text>
</g>
<!-- Node313&#45;&gt;Node314 -->
<g id="edge7" class="edge">
<title>Node313&#45;&gt;Node314</title>
<path fill="none" stroke="#191970" d="M230.4596,-118.4026C213.4053,-109.3376 189.0891,-96.4128 170.012,-86.2727"/>
<polygon fill="#191970" stroke="#191970" points="171.5954,-83.1507 161.1225,-81.5477 168.3099,-89.3318 171.5954,-83.1507"/>
</g>
<!-- Node315 -->
<g id="node9" class="node">
<title>Node315</title>
<g id="a_node9"><a xlink:href="$d3/d8b/a00059.html" xlink:title="infinitydouble.h">
<polygon fill="none" stroke="#000000" points="230.6382,-59.5 230.6382,-81.5 340.0376,-81.5 340.0376,-59.5 230.6382,-59.5"/>
<text text-anchor="middle" x="285.3379" y="-66.3" font-family="Helvetica,sans-Serif" font-size="14.00" fill="#000000">infinitydouble.h</text>
</a>
</g>
</g>
<!-- Node313&#45;&gt;Node315 -->
<g id="edge8" class="edge">
<title>Node313&#45;&gt;Node315</title>
<path fill="none" stroke="#191970" d="M257.733,-118.4026C262.292,-110.4914 268.5452,-99.6402 273.9473,-90.266"/>
<polygon fill="#191970" stroke="#191970" points="277.0109,-91.9596 278.9714,-81.5477 270.9459,-88.4644 277.0109,-91.9596"/>
</g>
<!-- Node316 -->
<g id="node10" class="node">
<title>Node316</title>
<polygon fill="none" stroke="#bfbfbf" points="192.5449,-.5 192.5449,-22.5 294.1309,-22.5 294.1309,-.5 192.5449,-.5"/>
<text text-anchor="middle" x="243.3379" y="-7.3" font-family="Helvetica,sans-Serif" font-size="14.00" fill="#000000">QDataStream</text>
</g>
<!-- Node313&#45;&gt;Node316 -->
<g id="edge12" class="edge">
<title>Node313&#45;&gt;Node316</title>
<path fill="none" stroke="#191970" d="M241.6734,-118.3035C234.497,-109.2051 225.2959,-95.6791 221.3379,-82 216.4154,-64.9879 223.2093,-45.81 230.5095,-31.7558"/>
<polygon fill="#191970" stroke="#191970" points="233.6231,-33.3603 235.5065,-22.9342 227.5324,-29.9102 233.6231,-33.3603"/>
</g>
<!-- Node317 -->
<g id="node11" class="node">
<title>Node317</title>
<polygon fill="none" stroke="#bfbfbf" points="358.1621,-59.5 358.1621,-81.5 446.5137,-81.5 446.5137,-59.5 358.1621,-59.5"/>
<text text-anchor="middle" x="402.3379" y="-66.3" font-family="Helvetica,sans-Serif" font-size="14.00" fill="#000000">QByteArray</text>
</g>
<!-- Node313&#45;&gt;Node317 -->
<g id="edge11" class="edge">
<title>Node313&#45;&gt;Node317</title>
<path fill="none" stroke="#191970" d="M279.7398,-118.4026C303.6781,-109.0492 338.1337,-95.5864 364.4254,-85.3135"/>
<polygon fill="#191970" stroke="#191970" points="366.0228,-88.4471 374.0633,-81.5477 363.4753,-81.9271 366.0228,-88.4471"/>
</g>
<!-- Node318 -->
<g id="node12" class="node">
<title>Node318</title>
<polygon fill="none" stroke="#bfbfbf" points="464.6069,-59.5 464.6069,-81.5 528.0688,-81.5 528.0688,-59.5 464.6069,-59.5"/>
<text text-anchor="middle" x="496.3379" y="-66.3" font-family="Helvetica,sans-Serif" font-size="14.00" fill="#000000">QString</text>
</g>
<!-- Node313&#45;&gt;Node318 -->
<g id="edge13" class="edge">
<title>Node313&#45;&gt;Node318</title>
<path fill="none" stroke="#191970" d="M301.7917,-118.4115C340.9878,-109.6473 396.9269,-96.8145 454.8941,-82.0406"/>
<polygon fill="#191970" stroke="#191970" points="455.7734,-85.4284 464.5915,-79.5555 454.0357,-78.6476 455.7734,-85.4284"/>
</g>
<!-- Node319 -->
<g id="node13" class="node">
<title>Node319</title>
<polygon fill="none" stroke="#bfbfbf" points="545.5942,-59.5 545.5942,-81.5 603.0815,-81.5 603.0815,-59.5 545.5942,-59.5"/>
<text text-anchor="middle" x="574.3379" y="-66.3" font-family="Helvetica,sans-Serif" font-size="14.00" fill="#000000">QTime</text>
</g>
<!-- Node313&#45;&gt;Node319 -->
<g id="edge14" class="edge">
<title>Node313&#45;&gt;Node319</title>
<path fill="none" stroke="#191970" d="M324.6375,-118.4941C391.024,-108.3285 484.9626,-93.404 535.5434,-82.1825"/>
<polygon fill="#191970" stroke="#191970" points="536.3996,-85.577 545.357,-79.9188 534.8261,-78.7562 536.3996,-85.577"/>
</g>
<!-- Node320 -->
<g id="node14" class="node">
<title>Node320</title>
<polygon fill="none" stroke="#bfbfbf" points="621.0967,-59.5 621.0967,-81.5 705.5791,-81.5 705.5791,-59.5 621.0967,-59.5"/>
<text text-anchor="middle" x="663.3379" y="-66.3" font-family="Helvetica,sans-Serif" font-size="14.00" fill="#000000">QVector3D</text>
</g>
<!-- Node313&#45;&gt;Node320 -->
<g id="edge15" class="edge">
<title>Node313&#45;&gt;Node320</title>
<path fill="none" stroke="#191970" d="M324.65,-119.1777C327.5839,-118.7775 330.4885,-118.3836 333.3379,-118 453.9808,-101.7574 487.4707,-103.6585 610.6157,-82.1953"/>
<polygon fill="#191970" stroke="#191970" points="611.5792,-85.5796 620.8212,-80.3993 610.3659,-78.6856 611.5792,-85.5796"/>
</g>
<!-- Node315&#45;&gt;Node316 -->
<g id="edge9" class="edge">
<title>Node315&#45;&gt;Node316</title>
<path fill="none" stroke="#191970" d="M277.438,-59.4026C271.7476,-51.4089 263.9206,-40.4138 257.2004,-30.9736"/>
<polygon fill="#191970" stroke="#191970" points="259.853,-28.6646 251.2023,-22.5477 254.1504,-32.7241 259.853,-28.6646"/>
</g>
<!-- Node321&#45;&gt;Node312 -->
<g id="edge18" class="edge">
<title>Node321&#45;&gt;Node312</title>
<path fill="none" stroke="#191970" d="M236.5459,-177.3624C218.3967,-167.9693 191.9581,-154.0132 169.3379,-141 138.5317,-123.2775 103.9081,-101.6089 80.9864,-87.0103"/>
<polygon fill="#191970" stroke="#191970" points="82.8245,-84.0313 72.5132,-81.5962 79.0554,-89.93 82.8245,-84.0313"/>
</g>
<!-- Node321&#45;&gt;Node313 -->
<g id="edge19" class="edge">
<title>Node321&#45;&gt;Node313</title>
<path fill="none" stroke="#191970" d="M257.0212,-177.4026C256.1315,-169.9034 254.9284,-159.7626 253.8581,-150.7421"/>
<polygon fill="#191970" stroke="#191970" points="257.3025,-150.0656 252.6486,-140.5477 250.3513,-150.8904 257.3025,-150.0656"/>
</g>
<!-- Node322 -->
<g id="node16" class="node">
<title>Node322</title>
<polygon fill="none" stroke="#bfbfbf" points="341.938,-118.5 341.938,-140.5 400.7378,-140.5 400.7378,-118.5 341.938,-118.5"/>
<text text-anchor="middle" x="371.3379" y="-125.3" font-family="Helvetica,sans-Serif" font-size="14.00" fill="#000000">QPoint</text>
</g>
<!-- Node321&#45;&gt;Node322 -->
<g id="edge17" class="edge">
<title>Node321&#45;&gt;Node322</title>
<path fill="none" stroke="#191970" d="M279.5923,-177.4026C296.9539,-168.3376 321.7083,-155.4128 341.1291,-145.2727"/>
<polygon fill="#191970" stroke="#191970" points="342.9342,-148.2786 350.1788,-140.5477 339.6944,-142.0735 342.9342,-148.2786"/>
</g>
<!-- Node323 -->
<g id="node17" class="node">
<title>Node323</title>
<polygon fill="none" stroke="#bfbfbf" points="418.938,-118.5 418.938,-140.5 477.7378,-140.5 477.7378,-118.5 418.938,-118.5"/>
<text text-anchor="middle" x="448.3379" y="-125.3" font-family="Helvetica,sans-Serif" font-size="14.00" fill="#000000">math.h</text>
</g>
<!-- Node321&#45;&gt;Node323 -->
<g id="edge20" class="edge">
<title>Node321&#45;&gt;Node323</title>
<path fill="none" stroke="#191970" d="M294.0754,-177.4026C326.8515,-167.2247 375.2973,-152.181 409.1263,-141.6762"/>
<polygon fill="#191970" stroke="#191970" points="410.1757,-145.0153 418.6879,-138.7071 408.0998,-138.3302 410.1757,-145.0153"/>
</g>
</g>
</svg>
