<?xml version="1.0" encoding="UTF-8" standalone="no"?>
<!DOCTYPE svg PUBLIC "-//W3C//DTD SVG 1.1//EN"
 "http://www.w3.org/Graphics/SVG/1.1/DTD/svg11.dtd">
<!-- Generated by graphviz version 2.40.1 (20161225.0304)
 -->
<!-- Title: Core/connection/mailboxelement.h Pages: 1 -->
<svg width="617pt" height="208pt"
 viewBox="0.00 0.00 616.81 208.00" xmlns="http://www.w3.org/2000/svg" xmlns:xlink="http://www.w3.org/1999/xlink">
<g id="graph0" class="graph" transform="scale(1 1) rotate(0) translate(4 204)">
<title>Core/connection/mailboxelement.h</title>
<!-- Node18 -->
<g id="node1" class="node">
<title>Node18</title>
<polygon fill="#bfbfbf" stroke="#000000" points="102.3174,-177.5 102.3174,-199.5 333.8818,-199.5 333.8818,-177.5 102.3174,-177.5"/>
<text text-anchor="middle" x="218.0996" y="-184.3" font-family="Helvetica,sans-Serif" font-size="14.00" fill="#000000">Core/connection/mailboxelement.h</text>
</g>
<!-- Node19 -->
<g id="node2" class="node">
<title>Node19</title>
<g id="a_node2"><a xlink:href="$d4/d81/a00110.html" xlink:title="Server/serverworker.h">
<polygon fill="none" stroke="#000000" points="141.6309,-118.5 141.6309,-140.5 294.5684,-140.5 294.5684,-118.5 141.6309,-118.5"/>
<text text-anchor="middle" x="218.0996" y="-125.3" font-family="Helvetica,sans-Serif" font-size="14.00" fill="#000000">Server/serverworker.h</text>
</a>
</g>
</g>
<!-- Node18&#45;&gt;Node19 -->
<g id="edge1" class="edge">
<title>Node18&#45;&gt;Node19</title>
<path fill="none" stroke="#191970" d="M218.0996,-167.198C218.0996,-158.1726 218.0996,-148.0351 218.0996,-140.5477"/>
<polygon fill="#191970" stroke="#191970" points="214.5997,-167.4025 218.0996,-177.4026 221.5997,-167.4026 214.5997,-167.4025"/>
</g>
<!-- Node20 -->
<g id="node3" class="node">
<title>Node20</title>
<g id="a_node3"><a xlink:href="$d0/dc2/a00104.html" xlink:title="Server/serverconnection.h">
<polygon fill="none" stroke="#000000" points="7.3931,-59.5 7.3931,-81.5 186.8062,-81.5 186.8062,-59.5 7.3931,-59.5"/>
<text text-anchor="middle" x="97.0996" y="-66.3" font-family="Helvetica,sans-Serif" font-size="14.00" fill="#000000">Server/serverconnection.h</text>
</a>
</g>
</g>
<!-- Node18&#45;&gt;Node20 -->
<g id="edge6" class="edge">
<title>Node18&#45;&gt;Node20</title>
<path fill="none" stroke="#191970" d="M179.7884,-173.0914C163.8836,-165.2744 146.1382,-154.5365 133.0996,-141 116.3198,-123.5793 105.5966,-96.7898 100.5332,-81.7476"/>
<polygon fill="#191970" stroke="#191970" points="178.3503,-176.2827 188.8907,-177.3555 181.3199,-169.9438 178.3503,-176.2827"/>
</g>
<!-- Node24 -->
<g id="node7" class="node">
<title>Node24</title>
<g id="a_node7"><a xlink:href="$d1/dc1/a00092.html" xlink:title="Server/maingameloop.h">
<polygon fill="none" stroke="#000000" points="318.7827,-118.5 318.7827,-140.5 483.4165,-140.5 483.4165,-118.5 318.7827,-118.5"/>
<text text-anchor="middle" x="401.0996" y="-125.3" font-family="Helvetica,sans-Serif" font-size="14.00" fill="#000000">Server/maingameloop.h</text>
</a>
</g>
</g>
<!-- Node18&#45;&gt;Node24 -->
<g id="edge7" class="edge">
<title>Node18&#45;&gt;Node24</title>
<path fill="none" stroke="#191970" d="M262.123,-174.3067C294.2692,-163.9426 337.2291,-150.0921 366.8331,-140.5477"/>
<polygon fill="#191970" stroke="#191970" points="260.9641,-171.0028 252.5205,-177.4026 263.1121,-177.6651 260.9641,-171.0028"/>
</g>
<!-- Node19&#45;&gt;Node20 -->
<g id="edge2" class="edge">
<title>Node19&#45;&gt;Node20</title>
<path fill="none" stroke="#191970" d="M186.2042,-113.9477C165.3038,-103.7566 138.4872,-90.6807 119.7567,-81.5477"/>
<polygon fill="#191970" stroke="#191970" points="184.818,-117.1657 195.3404,-118.4026 187.886,-110.8738 184.818,-117.1657"/>
</g>
<!-- Node23 -->
<g id="node6" class="node">
<title>Node23</title>
<g id="a_node6"><a xlink:href="$df/d98/a00107.html" xlink:title="Server/serverworker.cpp">
<polygon fill="none" stroke="#000000" points="205.2378,-59.5 205.2378,-81.5 372.9614,-81.5 372.9614,-59.5 205.2378,-59.5"/>
<text text-anchor="middle" x="289.0996" y="-66.3" font-family="Helvetica,sans-Serif" font-size="14.00" fill="#000000">Server/serverworker.cpp</text>
</a>
</g>
</g>
<!-- Node19&#45;&gt;Node23 -->
<g id="edge5" class="edge">
<title>Node19&#45;&gt;Node23</title>
<path fill="none" stroke="#191970" d="M239.1747,-111.9869C251.0447,-102.1231 265.5074,-90.1048 275.8049,-81.5477"/>
<polygon fill="#191970" stroke="#191970" points="236.9083,-109.3194 231.4542,-118.4026 241.3822,-114.7032 236.9083,-109.3194"/>
</g>
<!-- Node21 -->
<g id="node4" class="node">
<title>Node21</title>
<g id="a_node4"><a xlink:href="$d6/db6/a00241.html" xlink:title="Server/main.cpp">
<polygon fill="none" stroke="#000000" points="277.1343,-.5 277.1343,-22.5 395.0649,-22.5 395.0649,-.5 277.1343,-.5"/>
<text text-anchor="middle" x="336.0996" y="-7.3" font-family="Helvetica,sans-Serif" font-size="14.00" fill="#000000">Server/main.cpp</text>
</a>
</g>
</g>
<!-- Node20&#45;&gt;Node21 -->
<g id="edge3" class="edge">
<title>Node20&#45;&gt;Node21</title>
<path fill="none" stroke="#191970" d="M151.6144,-57.0424C193.8528,-46.6153 251.6571,-32.3456 291.2398,-22.5742"/>
<polygon fill="#191970" stroke="#191970" points="150.643,-53.677 141.7733,-59.4718 152.3207,-60.473 150.643,-53.677"/>
</g>
<!-- Node22 -->
<g id="node5" class="node">
<title>Node22</title>
<g id="a_node5"><a xlink:href="$d4/d3a/a00101.html" xlink:title="Server/serverconnection.cpp">
<polygon fill="none" stroke="#000000" points="0,-.5 0,-22.5 194.1992,-22.5 194.1992,-.5 0,-.5"/>
<text text-anchor="middle" x="97.0996" y="-7.3" font-family="Helvetica,sans-Serif" font-size="14.00" fill="#000000">Server/serverconnection.cpp</text>
</a>
</g>
</g>
<!-- Node20&#45;&gt;Node22 -->
<g id="edge4" class="edge">
<title>Node20&#45;&gt;Node22</title>
<path fill="none" stroke="#191970" d="M97.0996,-49.198C97.0996,-40.1726 97.0996,-30.0351 97.0996,-22.5477"/>
<polygon fill="#191970" stroke="#191970" points="93.5997,-49.4025 97.0996,-59.4026 100.5997,-49.4026 93.5997,-49.4025"/>
</g>
<!-- Node24&#45;&gt;Node21 -->
<g id="edge8" class="edge">
<title>Node24&#45;&gt;Node21</title>
<path fill="none" stroke="#191970" d="M398.2525,-108.2765C395.628,-93.6946 390.7766,-74.2854 382.0996,-59 373.9389,-44.624 360.4043,-31.3917 350.1235,-22.5651"/>
<polygon fill="#191970" stroke="#191970" points="394.8253,-109.0115 399.8518,-118.338 401.7385,-107.9125 394.8253,-109.0115"/>
</g>
<!-- Node25 -->
<g id="node8" class="node">
<title>Node25</title>
<g id="a_node8"><a xlink:href="$db/dab/a00089.html" xlink:title="Server/maingameloop.cpp">
<polygon fill="none" stroke="#000000" points="429.3896,-59.5 429.3896,-81.5 608.8096,-81.5 608.8096,-59.5 429.3896,-59.5"/>
<text text-anchor="middle" x="519.0996" y="-66.3" font-family="Helvetica,sans-Serif" font-size="14.00" fill="#000000">Server/maingameloop.cpp</text>
</a>
</g>
</g>
<!-- Node24&#45;&gt;Node25 -->
<g id="edge9" class="edge">
<title>Node24&#45;&gt;Node25</title>
<path fill="none" stroke="#191970" d="M432.48,-113.8098C452.8219,-103.6389 478.8204,-90.6396 497.0042,-81.5477"/>
<polygon fill="#191970" stroke="#191970" points="430.6735,-110.7999 423.2945,-118.4026 433.8041,-117.0609 430.6735,-110.7999"/>
</g>
</g>
</svg>
