<?xml version="1.0" encoding="UTF-8" standalone="no"?>
<!DOCTYPE svg PUBLIC "-//W3C//DTD SVG 1.1//EN"
 "http://www.w3.org/Graphics/SVG/1.1/DTD/svg11.dtd">
<!-- Generated by graphviz version 2.40.1 (20161225.0304)
 -->
<!-- Title: MainGameLoop::startLooper Pages: 1 -->
<svg width="428pt" height="31pt"
 viewBox="0.00 0.00 428.39 31.00" xmlns="http://www.w3.org/2000/svg" xmlns:xlink="http://www.w3.org/1999/xlink">
<g id="graph0" class="graph" transform="scale(1 1) rotate(0) translate(4 27)">
<title>MainGameLoop::startLooper</title>
<!-- Node19 -->
<g id="node1" class="node">
<title>Node19</title>
<polygon fill="#bfbfbf" stroke="#000000" points="0,-.5 0,-22.5 194.2129,-22.5 194.2129,-.5 0,-.5"/>
<text text-anchor="middle" x="97.1064" y="-7.3" font-family="Helvetica,sans-Serif" font-size="14.00" fill="#000000">MainGameLoop::startLooper</text>
</g>
<!-- Node20 -->
<g id="node2" class="node">
<title>Node20</title>
<g id="a_node2"><a xlink:href="../../d3/d50/a00882.html#a3cfb6b17f20d62ad08b9402764f3aa6c" target="_top" xlink:title="initMainLooper">
<polygon fill="none" stroke="#000000" points="230.2129,-.5 230.2129,-22.5 338.0469,-22.5 338.0469,-.5 230.2129,-.5"/>
<text text-anchor="middle" x="284.1299" y="-7.3" font-family="Helvetica,sans-Serif" font-size="14.00" fill="#000000">initMainLooper</text>
</a>
</g>
</g>
<!-- Node19&#45;&gt;Node20 -->
<g id="edge1" class="edge">
<title>Node19&#45;&gt;Node20</title>
<path fill="none" stroke="#191970" d="M204.4632,-11.5C213.2818,-11.5 221.9324,-11.5 230.0918,-11.5"/>
<polygon fill="#191970" stroke="#191970" points="204.4527,-8.0001 194.4526,-11.5 204.4526,-15.0001 204.4527,-8.0001"/>
</g>
<!-- Node21 -->
<g id="node3" class="node">
<title>Node21</title>
<g id="a_node3"><a xlink:href="../../d3/d50/a00882.html#a0ddf1224851353fc92bfbff6f499fa97" target="_top" xlink:title="main">
<polygon fill="none" stroke="#000000" points="374.0469,-.5 374.0469,-22.5 420.3916,-22.5 420.3916,-.5 374.0469,-.5"/>
<text text-anchor="middle" x="397.2192" y="-7.3" font-family="Helvetica,sans-Serif" font-size="14.00" fill="#000000">main</text>
</a>
</g>
</g>
<!-- Node20&#45;&gt;Node21 -->
<g id="edge2" class="edge">
<title>Node20&#45;&gt;Node21</title>
<path fill="none" stroke="#191970" d="M348.5702,-11.5C357.559,-11.5 366.2763,-11.5 373.7892,-11.5"/>
<polygon fill="#191970" stroke="#191970" points="348.356,-8.0001 338.3559,-11.5 348.3559,-15.0001 348.356,-8.0001"/>
</g>
</g>
</svg>
