<?xml version="1.0" encoding="UTF-8" standalone="no"?>
<!DOCTYPE svg PUBLIC "-//W3C//DTD SVG 1.1//EN"
 "http://www.w3.org/Graphics/SVG/1.1/DTD/svg11.dtd">
<!-- Generated by graphviz version 2.40.1 (20161225.0304)
 -->
<!-- Title: MainGameLoop::getAllMapAsDiff Pages: 1 -->
<svg width="562pt" height="86pt"
 viewBox="0.00 0.00 561.96 86.00" xmlns="http://www.w3.org/2000/svg" xmlns:xlink="http://www.w3.org/1999/xlink">
<g id="graph0" class="graph" transform="scale(1 1) rotate(0) translate(4 82)">
<title>MainGameLoop::getAllMapAsDiff</title>
<!-- Node40 -->
<g id="node1" class="node">
<title>Node40</title>
<polygon fill="#bfbfbf" stroke="#000000" points="0,-24.5 0,-46.5 222.7393,-46.5 222.7393,-24.5 0,-24.5"/>
<text text-anchor="middle" x="111.3696" y="-31.3" font-family="Helvetica,sans-Serif" font-size="14.00" fill="#000000">MainGameLoop::getAllMapAsDiff</text>
</g>
<!-- Node41 -->
<g id="node2" class="node">
<title>Node41</title>
<g id="a_node2"><a xlink:href="../../d8/d4e/a00754.html#ab9de0ceedab969b5f7fd9e1131bc4cd5" target="_top" xlink:title="MainGameLoop::getProccessor\lForMessage">
<polygon fill="none" stroke="#000000" points="258.7393,-41.5 258.7393,-77.5 471.6143,-77.5 471.6143,-41.5 258.7393,-41.5"/>
<text text-anchor="start" x="266.7393" y="-62.3" font-family="Helvetica,sans-Serif" font-size="14.00" fill="#000000">MainGameLoop::getProccessor</text>
<text text-anchor="middle" x="365.1768" y="-48.3" font-family="Helvetica,sans-Serif" font-size="14.00" fill="#000000">ForMessage</text>
</a>
</g>
</g>
<!-- Node40&#45;&gt;Node41 -->
<g id="edge1" class="edge">
<title>Node40&#45;&gt;Node41</title>
<path fill="none" stroke="#191970" d="M233.0827,-47.0092C241.6388,-47.8183 250.2264,-48.6303 258.6895,-49.4306"/>
<polygon fill="#191970" stroke="#191970" points="233.3476,-43.5187 223.0625,-46.0617 232.6885,-50.4876 233.3476,-43.5187"/>
</g>
<!-- Node42 -->
<g id="node3" class="node">
<title>Node42</title>
<g id="a_node3"><a xlink:href="../../d3/d50/a00882.html#a3cfb6b17f20d62ad08b9402764f3aa6c" target="_top" xlink:title="initMainLooper">
<polygon fill="none" stroke="#000000" points="311.2598,-.5 311.2598,-22.5 419.0938,-22.5 419.0938,-.5 311.2598,-.5"/>
<text text-anchor="middle" x="365.1768" y="-7.3" font-family="Helvetica,sans-Serif" font-size="14.00" fill="#000000">initMainLooper</text>
</a>
</g>
</g>
<!-- Node40&#45;&gt;Node42 -->
<g id="edge2" class="edge">
<title>Node40&#45;&gt;Node42</title>
<path fill="none" stroke="#191970" d="M233.1329,-23.9861C260.5319,-21.3952 288.2509,-18.7741 311.17,-16.6069"/>
<polygon fill="#191970" stroke="#191970" points="232.6885,-20.5124 223.0625,-24.9383 233.3476,-27.4813 232.6885,-20.5124"/>
</g>
<!-- Node43 -->
<g id="node4" class="node">
<title>Node43</title>
<g id="a_node4"><a xlink:href="../../d3/d50/a00882.html#a0ddf1224851353fc92bfbff6f499fa97" target="_top" xlink:title="main">
<polygon fill="none" stroke="#000000" points="507.6143,-.5 507.6143,-22.5 553.959,-22.5 553.959,-.5 507.6143,-.5"/>
<text text-anchor="middle" x="530.7866" y="-7.3" font-family="Helvetica,sans-Serif" font-size="14.00" fill="#000000">main</text>
</a>
</g>
</g>
<!-- Node42&#45;&gt;Node43 -->
<g id="edge3" class="edge">
<title>Node42&#45;&gt;Node43</title>
<path fill="none" stroke="#191970" d="M429.7244,-11.5C457.0801,-11.5 487.2335,-11.5 507.421,-11.5"/>
<polygon fill="#191970" stroke="#191970" points="429.4037,-8.0001 419.4036,-11.5 429.4036,-15.0001 429.4037,-8.0001"/>
</g>
</g>
</svg>
