<?xml version="1.0" encoding="UTF-8" standalone="no"?>
<!DOCTYPE svg PUBLIC "-//W3C//DTD SVG 1.1//EN"
 "http://www.w3.org/Graphics/SVG/1.1/DTD/svg11.dtd">
<!-- Generated by graphviz version 2.40.1 (20161225.0304)
 -->
<!-- Title: MainGameLoop::getProccessorForMessage Pages: 1 -->
<!--zoomable 141 -->
<svg id="main" version="1.1" xmlns="http://www.w3.org/2000/svg" xmlns:xlink="http://www.w3.org/1999/xlink" xml:space="preserve" onload="init(evt)">
<style type="text/css"><![CDATA[
.edge:hover path { stroke: red; }
.edge:hover polygon { stroke: red; fill: red; }
]]></style>
<script type="text/javascript"><![CDATA[
var edges = document.getElementsByTagName('g');
if (edges && edges.length) {
  for (var i=0;i<edges.length;i++) {
    if (edges[i].id.substr(0,4)=='edge') {
      edges[i].setAttribute('class','edge');
    }
  }
}
]]></script>
        <defs>
                <circle id="rim" cx="0" cy="0" r="7"/>
                <circle id="rim2" cx="0" cy="0" r="3.5"/>
                <g id="zoomPlus">
                        <use xlink:href="#rim" fill="#404040">
                                <set attributeName="fill" to="#808080" begin="zoomplus.mouseover" end="zoomplus.mouseout"/>
                        </use>
                        <path d="M-4,0h8M0,-4v8" fill="none" stroke="white" stroke-width="1.5" pointer-events="none"/>
                </g>
                <g id="zoomMin">
                        <use xlink:href="#rim" fill="#404040">
                                <set attributeName="fill" to="#808080" begin="zoomminus.mouseover" end="zoomminus.mouseout"/>
                        </use>
                        <path d="M-4,0h8" fill="none" stroke="white" stroke-width="1.5" pointer-events="none"/>
                </g>
                <g id="dirArrow">
                        <path fill="none" stroke="white" stroke-width="1.5" d="M0,-3.0v7 M-2.5,-0.5L0,-3.0L2.5,-0.5"/>
                </g>
               <g id="resetDef">
                       <use xlink:href="#rim2" fill="#404040">
                               <set attributeName="fill" to="#808080" begin="reset.mouseover" end="reset.mouseout"/>
                       </use>
               </g>
        </defs>

<script type="text/javascript">
var viewWidth = 920;
var viewHeight = 141;
var sectionId = 'dynsection-8';
</script>
<script xlink:href="../../svgpan.js"/>
<svg id="graph" class="graph">
<g id="viewport">
<title>MainGameLoop::getProccessorForMessage</title>
<!-- Node30 -->
<g id="node1" class="node">
<title>Node30</title>
<polygon fill="#bfbfbf" stroke="#000000" points="0,-55.5 0,-91.5 212.875,-91.5 212.875,-55.5 0,-55.5"/>
<text text-anchor="start" x="8" y="-76.3" font-family="Helvetica,sans-Serif" font-size="14.00" fill="#000000">MainGameLoop::getProccessor</text>
<text text-anchor="middle" x="106.4375" y="-62.3" font-family="Helvetica,sans-Serif" font-size="14.00" fill="#000000">ForMessage</text>
</g>
<!-- Node31 -->
<g id="node2" class="node">
<title>Node31</title>
<g id="a_node2"><a xlink:href="../../d8/d4e/a00754.html#ac4cd47d8b350ae45ea09aaecad11a684" target="_top" xlink:title="MainGameLoop::getAllMapAsDiff">
<polygon fill="none" stroke="#000000" points="253.0176,-110.5 253.0176,-132.5 475.7568,-132.5 475.7568,-110.5 253.0176,-110.5"/>
<text text-anchor="middle" x="364.3872" y="-117.3" font-family="Helvetica,sans-Serif" font-size="14.00" fill="#000000">MainGameLoop::getAllMapAsDiff</text>
</a>
</g>
</g>
<!-- Node30&#45;&gt;Node31 -->
<g id="edge1" class="edge">
<title>Node30&#45;&gt;Node31</title>
<path fill="none" stroke="#191970" d="M196.4183,-91.509C213.8098,-94.899 231.8992,-98.3623 248.875,-101.5 261.8729,-103.9025 275.7102,-106.3732 289.1245,-108.7228"/>
<polygon fill="#191970" stroke="#191970" points="288.8266,-112.2236 299.2791,-110.4929 290.0287,-105.3276 288.8266,-112.2236"/>
</g>
<!-- Node32 -->
<g id="node3" class="node">
<title>Node32</title>
<g id="a_node3"><a xlink:href="../../d8/d4e/a00754.html#ac7722494194e946c7d045471858c3aee" target="_top" xlink:title="MainGameLoop::proccessGamer\lMessage">
<polygon fill="none" stroke="#000000" points="253.2876,-55.5 253.2876,-91.5 475.4868,-91.5 475.4868,-55.5 253.2876,-55.5"/>
<text text-anchor="start" x="261.2876" y="-76.3" font-family="Helvetica,sans-Serif" font-size="14.00" fill="#000000">MainGameLoop::proccessGamer</text>
<text text-anchor="middle" x="364.3872" y="-62.3" font-family="Helvetica,sans-Serif" font-size="14.00" fill="#000000">Message</text>
</a>
</g>
</g>
<!-- Node30&#45;&gt;Node32 -->
<g id="edge2" class="edge">
<title>Node30&#45;&gt;Node32</title>
<path fill="none" stroke="#191970" d="M213.2175,-73.5C222.99,-73.5 232.9377,-73.5 242.8271,-73.5"/>
<polygon fill="#191970" stroke="#191970" points="243.102,-77.0001 253.1019,-73.5 243.1019,-70.0001 243.102,-77.0001"/>
</g>
<!-- Node35 -->
<g id="node6" class="node">
<title>Node35</title>
<g id="a_node6"><a xlink:href="../../d8/d4e/a00754.html#a26ac1e61f11a51a84b6f2e770808d162" target="_top" xlink:title="MainGameLoop::proccessWatcher\lMessage">
<polygon fill="none" stroke="#000000" points="248.875,-.5 248.875,-36.5 479.8994,-36.5 479.8994,-.5 248.875,-.5"/>
<text text-anchor="start" x="256.875" y="-21.3" font-family="Helvetica,sans-Serif" font-size="14.00" fill="#000000">MainGameLoop::proccessWatcher</text>
<text text-anchor="middle" x="364.3872" y="-7.3" font-family="Helvetica,sans-Serif" font-size="14.00" fill="#000000">Message</text>
</a>
</g>
</g>
<!-- Node30&#45;&gt;Node35 -->
<g id="edge5" class="edge">
<title>Node30&#45;&gt;Node35</title>
<path fill="none" stroke="#191970" d="M190.8999,-55.4909C216.1756,-50.1017 244.0509,-44.1581 269.9258,-38.641"/>
<polygon fill="#191970" stroke="#191970" points="270.6848,-42.058 279.7351,-36.5495 269.225,-35.2119 270.6848,-42.058"/>
</g>
<!-- Node33 -->
<g id="node4" class="node">
<title>Node33</title>
<g id="a_node4"><a xlink:href="../../da/d3a/a00694.html#aa3c0b1cd0f29db8b63bb22dbfb78bbc5" target="_top" xlink:title="BaseBasis::BaseBasis">
<polygon fill="none" stroke="#000000" points="515.8994,-62.5 515.8994,-84.5 671.9678,-84.5 671.9678,-62.5 515.8994,-62.5"/>
<text text-anchor="middle" x="593.9336" y="-69.3" font-family="Helvetica,sans-Serif" font-size="14.00" fill="#000000">BaseBasis::BaseBasis</text>
</a>
</g>
</g>
<!-- Node32&#45;&gt;Node33 -->
<g id="edge3" class="edge">
<title>Node32&#45;&gt;Node33</title>
<path fill="none" stroke="#191970" d="M475.7983,-73.5C485.8023,-73.5 495.8403,-73.5 505.608,-73.5"/>
<polygon fill="#191970" stroke="#191970" points="505.6765,-77.0001 515.6765,-73.5 505.6764,-70.0001 505.6765,-77.0001"/>
</g>
<!-- Node34 -->
<g id="node5" class="node">
<title>Node34</title>
<g id="a_node5"><a xlink:href="../../d7/dc3/a00682.html#ae2be75da1a2a9edfabe993770e24654a" target="_top" xlink:title="IBaseGameElement::nextStep">
<polygon fill="none" stroke="#000000" points="707.9678,-62.5 707.9678,-84.5 912.291,-84.5 912.291,-62.5 707.9678,-62.5"/>
<text text-anchor="middle" x="810.1294" y="-69.3" font-family="Helvetica,sans-Serif" font-size="14.00" fill="#000000">IBaseGameElement::nextStep</text>
</a>
</g>
</g>
<!-- Node33&#45;&gt;Node34 -->
<g id="edge4" class="edge">
<title>Node33&#45;&gt;Node34</title>
<path fill="none" stroke="#191970" d="M671.9852,-73.5C680.3308,-73.5 688.936,-73.5 697.5791,-73.5"/>
<polygon fill="#191970" stroke="#191970" points="697.7297,-77.0001 707.7296,-73.5 697.7296,-70.0001 697.7297,-77.0001"/>
</g>
</g>
</svg>
        <g id="navigator" transform="translate(0 0)" fill="#404254">
                <rect fill="#f2f5e9" fill-opacity="0.5" stroke="#606060" stroke-width=".5" x="0" y="0" width="60" height="60"/>
                <use id="zoomplus" xlink:href="#zoomPlus" x="17" y="9" onmousedown="handleZoom(evt,'in')"/>
                <use id="zoomminus" xlink:href="#zoomMin" x="42" y="9" onmousedown="handleZoom(evt,'out')"/>
                <use id="reset" xlink:href="#resetDef" x="30" y="36" onmousedown="handleReset()"/>
                <g id="arrowUp" xlink:href="#dirArrow" transform="translate(30 24)" onmousedown="handlePan(0,-1)">
                  <use xlink:href="#rim" fill="#404040">
                        <set attributeName="fill" to="#808080" begin="arrowUp.mouseover" end="arrowUp.mouseout"/>
                  </use>
                  <path fill="none" stroke="white" stroke-width="1.5" d="M0,-3.0v7 M-2.5,-0.5L0,-3.0L2.5,-0.5"/>
                </g>
                <g id="arrowRight" xlink:href="#dirArrow" transform="rotate(90) translate(36 -43)" onmousedown="handlePan(1,0)">
                  <use xlink:href="#rim" fill="#404040">
                        <set attributeName="fill" to="#808080" begin="arrowRight.mouseover" end="arrowRight.mouseout"/>
                  </use>
                  <path fill="none" stroke="white" stroke-width="1.5" d="M0,-3.0v7 M-2.5,-0.5L0,-3.0L2.5,-0.5"/>
                </g>
                <g id="arrowDown" xlink:href="#dirArrow" transform="rotate(180) translate(-30 -48)" onmousedown="handlePan(0,1)">
                  <use xlink:href="#rim" fill="#404040">
                        <set attributeName="fill" to="#808080" begin="arrowDown.mouseover" end="arrowDown.mouseout"/>
                  </use>
                  <path fill="none" stroke="white" stroke-width="1.5" d="M0,-3.0v7 M-2.5,-0.5L0,-3.0L2.5,-0.5"/>
                </g>
                <g id="arrowLeft" xlink:href="#dirArrow" transform="rotate(270) translate(-36 17)" onmousedown="handlePan(-1,0)">
                  <use xlink:href="#rim" fill="#404040">
                        <set attributeName="fill" to="#808080" begin="arrowLeft.mouseover" end="arrowLeft.mouseout"/>
                  </use>
                  <path fill="none" stroke="white" stroke-width="1.5" d="M0,-3.0v7 M-2.5,-0.5L0,-3.0L2.5,-0.5"/>
                </g>
        </g>
        <svg viewBox="0 0 15 15" width="100%" height="30px" preserveAspectRatio="xMaxYMin meet">
         <g id="arrow_out" transform="scale(0.3 0.3)">
          <a xlink:href="a00754_ab9de0ceedab969b5f7fd9e1131bc4cd5_cgraph_org.svg" target="_base">
           <rect id="button" ry="5" rx="5" y="6" x="6" height="38" width="38"
                fill="#f2f5e9" fill-opacity="0.5" stroke="#606060" stroke-width="1.0"/>
           <path id="arrow"
             d="M 11.500037,31.436501 C 11.940474,20.09759 22.043105,11.32322 32.158766,21.979434 L 37.068811,17.246167 C 37.068811,17.246167 37.088388,32 37.088388,32 L 22.160133,31.978069 C 22.160133,31.978069 26.997745,27.140456 26.997745,27.140456 C 18.528582,18.264221 13.291696,25.230495 11.500037,31.436501 z"
             style="fill:#404040;"/>
          </a>
         </g>
        </svg>
</svg>
