<?xml version="1.0" encoding="UTF-8" standalone="no"?>
<!DOCTYPE svg PUBLIC "-//W3C//DTD SVG 1.1//EN"
 "http://www.w3.org/Graphics/SVG/1.1/DTD/svg11.dtd">
<!-- Generated by graphviz version 2.40.1 (20161225.0304)
 -->
<!-- Title: MainGameLoop::proccessGamerMessage Pages: 1 -->
<svg width="663pt" height="45pt"
 viewBox="0.00 0.00 662.59 45.00" xmlns="http://www.w3.org/2000/svg" xmlns:xlink="http://www.w3.org/1999/xlink">
<g id="graph0" class="graph" transform="scale(1 1) rotate(0) translate(4 41)">
<title>MainGameLoop::proccessGamerMessage</title>
<!-- Node22 -->
<g id="node1" class="node">
<title>Node22</title>
<polygon fill="#bfbfbf" stroke="#000000" points="0,-.5 0,-36.5 222.1992,-36.5 222.1992,-.5 0,-.5"/>
<text text-anchor="start" x="8" y="-21.3" font-family="Helvetica,sans-Serif" font-size="14.00" fill="#000000">MainGameLoop::proccessGamer</text>
<text text-anchor="middle" x="111.0996" y="-7.3" font-family="Helvetica,sans-Serif" font-size="14.00" fill="#000000">Message</text>
</g>
<!-- Node23 -->
<g id="node2" class="node">
<title>Node23</title>
<g id="a_node2"><a xlink:href="../../da/d3a/a00694.html#aa3c0b1cd0f29db8b63bb22dbfb78bbc5" target="_top" xlink:title="BaseBasis::BaseBasis">
<polygon fill="none" stroke="#000000" points="258.1992,-7.5 258.1992,-29.5 414.2676,-29.5 414.2676,-7.5 258.1992,-7.5"/>
<text text-anchor="middle" x="336.2334" y="-14.3" font-family="Helvetica,sans-Serif" font-size="14.00" fill="#000000">BaseBasis::BaseBasis</text>
</a>
</g>
</g>
<!-- Node22&#45;&gt;Node23 -->
<g id="edge1" class="edge">
<title>Node22&#45;&gt;Node23</title>
<path fill="none" stroke="#191970" d="M222.3474,-18.5C230.932,-18.5 239.5269,-18.5 247.9322,-18.5"/>
<polygon fill="#191970" stroke="#191970" points="248.0775,-22.0001 258.0775,-18.5 248.0775,-15.0001 248.0775,-22.0001"/>
</g>
<!-- Node24 -->
<g id="node3" class="node">
<title>Node24</title>
<g id="a_node3"><a xlink:href="../../d7/dc3/a00682.html#ae2be75da1a2a9edfabe993770e24654a" target="_top" xlink:title="IBaseGameElement::nextStep">
<polygon fill="none" stroke="#000000" points="450.2676,-7.5 450.2676,-29.5 654.5908,-29.5 654.5908,-7.5 450.2676,-7.5"/>
<text text-anchor="middle" x="552.4292" y="-14.3" font-family="Helvetica,sans-Serif" font-size="14.00" fill="#000000">IBaseGameElement::nextStep</text>
</a>
</g>
</g>
<!-- Node23&#45;&gt;Node24 -->
<g id="edge2" class="edge">
<title>Node23&#45;&gt;Node24</title>
<path fill="none" stroke="#191970" d="M414.285,-18.5C422.6306,-18.5 431.2358,-18.5 439.8789,-18.5"/>
<polygon fill="#191970" stroke="#191970" points="440.0295,-22.0001 450.0294,-18.5 440.0294,-15.0001 440.0295,-22.0001"/>
</g>
</g>
</svg>
