<?xml version="1.0" encoding="UTF-8" standalone="no"?>
<!DOCTYPE svg PUBLIC "-//W3C//DTD SVG 1.1//EN"
 "http://www.w3.org/Graphics/SVG/1.1/DTD/svg11.dtd">
<!-- Generated by graphviz version 2.40.1 (20161225.0304)
 -->
<!-- Title: MailReceiver::mailMessage Pages: 1 -->
<svg width="346pt" height="435pt"
 viewBox="0.00 0.00 346.14 435.00" xmlns="http://www.w3.org/2000/svg" xmlns:xlink="http://www.w3.org/1999/xlink">
<g id="graph0" class="graph" transform="scale(1 1) rotate(0) translate(4 431)">
<title>MailReceiver::mailMessage</title>
<!-- Node1 -->
<g id="node1" class="node">
<title>Node1</title>
<polygon fill="#bfbfbf" stroke="#000000" points="73.25,-.5 73.25,-80.5 260.415,-80.5 260.415,-.5 73.25,-.5"/>
<text text-anchor="middle" x="166.8325" y="-65.3" font-family="Helvetica,sans-Serif" font-size="14.00" fill="#000000">MailReceiver::mailMessage</text>
<polyline fill="none" stroke="#000000" points="73.25,-58.5 260.415,-58.5 "/>
<text text-anchor="start" x="81.25" y="-43.3" font-family="Helvetica,sans-Serif" font-size="14.00" fill="#000000">+ type</text>
<text text-anchor="start" x="81.25" y="-29.3" font-family="Helvetica,sans-Serif" font-size="14.00" fill="#000000">+ isReplace</text>
<polyline fill="none" stroke="#000000" points="73.25,-22.5 260.415,-22.5 "/>
<text text-anchor="start" x="81.25" y="-7.3" font-family="Helvetica,sans-Serif" font-size="14.00" fill="#000000">+ mailMessage()</text>
</g>
<!-- Node2 -->
<g id="node2" class="node">
<title>Node2</title>
<g id="a_node2"><a xlink:href="../../db/d44/a00162.html" target="_top" xlink:title="{MailSender\n||+ receiveResponce()\l+ setDefaultReceiver()\l}">
<polygon fill="none" stroke="#000000" points="0,-152.5 0,-232.5 155.665,-232.5 155.665,-152.5 0,-152.5"/>
<text text-anchor="middle" x="77.8325" y="-217.3" font-family="Helvetica,sans-Serif" font-size="14.00" fill="#000000">MailSender</text>
<polyline fill="none" stroke="#000000" points="0,-210.5 155.665,-210.5 "/>
<text text-anchor="middle" x="77.8325" y="-195.3" font-family="Helvetica,sans-Serif" font-size="14.00" fill="#000000"> </text>
<polyline fill="none" stroke="#000000" points="0,-188.5 155.665,-188.5 "/>
<text text-anchor="start" x="8" y="-173.3" font-family="Helvetica,sans-Serif" font-size="14.00" fill="#000000">+ receiveResponce()</text>
<text text-anchor="start" x="8" y="-159.3" font-family="Helvetica,sans-Serif" font-size="14.00" fill="#000000">+ setDefaultReceiver()</text>
</a>
</g>
</g>
<!-- Node2&#45;&gt;Node1 -->
<g id="edge1" class="edge">
<title>Node2&#45;&gt;Node1</title>
<path fill="none" stroke="#404040" d="M101.4492,-152.1659C112.4059,-133.4533 125.547,-111.0101 137.165,-91.1681"/>
<polygon fill="none" stroke="#404040" points="137.1966,-91.1141 136.7765,-83.9153 143.26,-80.7587 143.6801,-87.9575 137.1966,-91.1141"/>
<text text-anchor="middle" x="158.2686" y="-101.8" font-family="Helvetica,sans-Serif" font-size="14.00" fill="#000000"> +sender</text>
</g>
<!-- Node3 -->
<g id="node3" class="node">
<title>Node3</title>
<g id="a_node3"><a xlink:href="../../d3/d65/a00154.html" target="_top" xlink:title="{MailReceiver\n|# messages\l# mutex\l|+ MailReceiver()\l+ ~MailReceiver()\l+ sendMail()\l# nextMessage()\l}">
<polygon fill="none" stroke="#000000" points="14.5947,-304.5 14.5947,-426.5 141.0703,-426.5 141.0703,-304.5 14.5947,-304.5"/>
<text text-anchor="middle" x="77.8325" y="-411.3" font-family="Helvetica,sans-Serif" font-size="14.00" fill="#000000">MailReceiver</text>
<polyline fill="none" stroke="#000000" points="14.5947,-404.5 141.0703,-404.5 "/>
<text text-anchor="start" x="22.5947" y="-389.3" font-family="Helvetica,sans-Serif" font-size="14.00" fill="#000000"># messages</text>
<text text-anchor="start" x="22.5947" y="-375.3" font-family="Helvetica,sans-Serif" font-size="14.00" fill="#000000"># mutex</text>
<polyline fill="none" stroke="#000000" points="14.5947,-368.5 141.0703,-368.5 "/>
<text text-anchor="start" x="22.5947" y="-353.3" font-family="Helvetica,sans-Serif" font-size="14.00" fill="#000000">+ MailReceiver()</text>
<text text-anchor="start" x="22.5947" y="-339.3" font-family="Helvetica,sans-Serif" font-size="14.00" fill="#000000">+ ~MailReceiver()</text>
<text text-anchor="start" x="22.5947" y="-325.3" font-family="Helvetica,sans-Serif" font-size="14.00" fill="#000000">+ sendMail()</text>
<text text-anchor="start" x="22.5947" y="-311.3" font-family="Helvetica,sans-Serif" font-size="14.00" fill="#000000"># nextMessage()</text>
</a>
</g>
</g>
<!-- Node3&#45;&gt;Node2 -->
<g id="edge2" class="edge">
<title>Node3&#45;&gt;Node2</title>
<path fill="none" stroke="#404040" d="M77.8325,-304.0196C77.8325,-284.6731 77.8325,-263.4996 77.8325,-244.8493"/>
<polygon fill="none" stroke="#404040" points="77.8326,-244.6994 73.8326,-238.6994 77.8325,-232.6994 81.8326,-238.6994 77.8326,-244.6994"/>
<text text-anchor="middle" x="108.5669" y="-274.8" font-family="Helvetica,sans-Serif" font-size="14.00" fill="#000000"> #receiver</text>
</g>
<!-- Node4 -->
<g id="node4" class="node">
<title>Node4</title>
<g id="a_node4"><a xlink:href="../../d9/d38/a00166.html" target="_top" xlink:title="{MessageForServer\n|+ connectionType\l+ messageType\l+ items\l|+ MessageForServer()\l+ ~MessageForServer()\l+ toString()\l}">
<polygon fill="none" stroke="#000000" points="173.5293,-131.5 173.5293,-253.5 338.1357,-253.5 338.1357,-131.5 173.5293,-131.5"/>
<text text-anchor="middle" x="255.8325" y="-238.3" font-family="Helvetica,sans-Serif" font-size="14.00" fill="#000000">MessageForServer</text>
<polyline fill="none" stroke="#000000" points="173.5293,-231.5 338.1357,-231.5 "/>
<text text-anchor="start" x="181.5293" y="-216.3" font-family="Helvetica,sans-Serif" font-size="14.00" fill="#000000">+ connectionType</text>
<text text-anchor="start" x="181.5293" y="-202.3" font-family="Helvetica,sans-Serif" font-size="14.00" fill="#000000">+ messageType</text>
<text text-anchor="start" x="181.5293" y="-188.3" font-family="Helvetica,sans-Serif" font-size="14.00" fill="#000000">+ items</text>
<polyline fill="none" stroke="#000000" points="173.5293,-181.5 338.1357,-181.5 "/>
<text text-anchor="start" x="181.5293" y="-166.3" font-family="Helvetica,sans-Serif" font-size="14.00" fill="#000000">+ MessageForServer()</text>
<text text-anchor="start" x="181.5293" y="-152.3" font-family="Helvetica,sans-Serif" font-size="14.00" fill="#000000">+ ~MessageForServer()</text>
<text text-anchor="start" x="181.5293" y="-138.3" font-family="Helvetica,sans-Serif" font-size="14.00" fill="#000000">+ toString()</text>
</a>
</g>
</g>
<!-- Node4&#45;&gt;Node1 -->
<g id="edge3" class="edge">
<title>Node4&#45;&gt;Node1</title>
<path fill="none" stroke="#404040" d="M219.8894,-131.1139C212.1251,-117.8537 203.9998,-103.9766 196.5074,-91.1807"/>
<polygon fill="none" stroke="#404040" points="196.448,-91.0791 189.9644,-87.9225 190.3845,-80.7237 196.8681,-83.8803 196.448,-91.0791"/>
<text text-anchor="middle" x="243.2686" y="-101.8" font-family="Helvetica,sans-Serif" font-size="14.00" fill="#000000"> +message</text>
</g>
<!-- Node5 -->
<g id="node5" class="node">
<title>Node5</title>
<polygon fill="none" stroke="#bfbfbf" points="222.1567,-332.5 222.1567,-398.5 289.5083,-398.5 289.5083,-332.5 222.1567,-332.5"/>
<text text-anchor="middle" x="255.8325" y="-383.3" font-family="Helvetica,sans-Serif" font-size="14.00" fill="#000000">QObject</text>
<polyline fill="none" stroke="#bfbfbf" points="222.1567,-376.5 289.5083,-376.5 "/>
<text text-anchor="middle" x="255.8325" y="-361.3" font-family="Helvetica,sans-Serif" font-size="14.00" fill="#000000"> </text>
<polyline fill="none" stroke="#bfbfbf" points="222.1567,-354.5 289.5083,-354.5 "/>
<text text-anchor="middle" x="255.8325" y="-339.3" font-family="Helvetica,sans-Serif" font-size="14.00" fill="#000000"> </text>
</g>
<!-- Node5&#45;&gt;Node4 -->
<g id="edge4" class="edge">
<title>Node5&#45;&gt;Node4</title>
<path fill="none" stroke="#191970" d="M255.8325,-322.0782C255.8325,-301.4087 255.8325,-276.3326 255.8325,-253.7672"/>
<polygon fill="none" stroke="#191970" points="252.3326,-322.1438 255.8325,-332.1439 259.3326,-322.1439 252.3326,-322.1438"/>
</g>
</g>
</svg>
