<?xml version="1.0" encoding="UTF-8" standalone="no"?>
<!DOCTYPE svg PUBLIC "-//W3C//DTD SVG 1.1//EN"
 "http://www.w3.org/Graphics/SVG/1.1/DTD/svg11.dtd">
<!-- Generated by graphviz version 2.40.1 (20161225.0304)
 -->
<!-- Title: std::stack&lt; T &gt; Pages: 1 -->
<svg width="131pt" height="192pt"
 viewBox="0.00 0.00 130.53 192.00" xmlns="http://www.w3.org/2000/svg" xmlns:xlink="http://www.w3.org/1999/xlink">
<g id="graph0" class="graph" transform="scale(1 1) rotate(0) translate(4 188)">
<title>std::stack&lt; T &gt;</title>
<!-- Node827 -->
<g id="node1" class="node">
<title>Node827</title>
<polygon fill="#bfbfbf" stroke="#000000" points="0,-.5 0,-66.5 107.3213,-66.5 107.3213,-.5 0,-.5"/>
<text text-anchor="middle" x="53.6606" y="-51.3" font-family="Helvetica,sans-Serif" font-size="14.00" fill="#000000">std::stack&lt; T &gt;</text>
<polyline fill="none" stroke="#000000" points="0,-44.5 107.3213,-44.5 "/>
<text text-anchor="middle" x="53.6606" y="-29.3" font-family="Helvetica,sans-Serif" font-size="14.00" fill="#000000"> </text>
<polyline fill="none" stroke="#000000" points="0,-22.5 107.3213,-22.5 "/>
<text text-anchor="middle" x="53.6606" y="-7.3" font-family="Helvetica,sans-Serif" font-size="14.00" fill="#000000"> </text>
</g>
<!-- Node828 -->
<g id="node2" class="node">
<title>Node828</title>
<polygon fill="none" stroke="#bfbfbf" points="39.1606,-117.5 39.1606,-183.5 68.1606,-183.5 68.1606,-117.5 39.1606,-117.5"/>
<text text-anchor="middle" x="53.4365" y="-168.3" font-family="Helvetica,sans-Serif" font-size="14.00" fill="#000000">T</text>
<polyline fill="none" stroke="#bfbfbf" points="39.1606,-161.5 67.7124,-161.5 "/>
<text text-anchor="middle" x="53.4365" y="-146.3" font-family="Helvetica,sans-Serif" font-size="14.00" fill="#000000"> </text>
<polyline fill="none" stroke="#bfbfbf" points="39.1606,-139.5 67.7124,-139.5 "/>
<text text-anchor="middle" x="53.4365" y="-124.3" font-family="Helvetica,sans-Serif" font-size="14.00" fill="#000000"> </text>
</g>
<!-- Node828&#45;&gt;Node827 -->
<g id="edge1" class="edge">
<title>Node828&#45;&gt;Node827</title>
<path fill="none" stroke="#404040" d="M53.6606,-117.2855C53.6606,-105.4288 53.6606,-91.8562 53.6606,-79.1371"/>
<polygon fill="none" stroke="#404040" points="53.6607,-78.7976 49.6607,-72.7976 53.6606,-66.7976 57.6607,-72.7976 53.6607,-78.7976"/>
<text text-anchor="middle" x="88.0967" y="-87.8" font-family="Helvetica,sans-Serif" font-size="14.00" fill="#000000"> +elements</text>
</g>
</g>
</svg>
