<?xml version="1.0" encoding="UTF-8" standalone="no"?>
<!DOCTYPE svg PUBLIC "-//W3C//DTD SVG 1.1//EN"
 "http://www.w3.org/Graphics/SVG/1.1/DTD/svg11.dtd">
<!-- Generated by graphviz version 2.40.1 (20161225.0304)
 -->
<!-- Title: std::invalid_argument Pages: 1 -->
<svg width="157pt" height="281pt"
 viewBox="0.00 0.00 157.08 281.00" xmlns="http://www.w3.org/2000/svg" xmlns:xlink="http://www.w3.org/1999/xlink">
<g id="graph0" class="graph" transform="scale(1 1) rotate(0) translate(4 277)">
<title>std::invalid_argument</title>
<!-- Node472 -->
<g id="node1" class="node">
<title>Node472</title>
<polygon fill="#bfbfbf" stroke="#000000" points="0,-.5 0,-66.5 149.0752,-66.5 149.0752,-.5 0,-.5"/>
<text text-anchor="middle" x="74.5376" y="-51.3" font-family="Helvetica,sans-Serif" font-size="14.00" fill="#000000">std::invalid_argument</text>
<polyline fill="none" stroke="#000000" points="0,-44.5 149.0752,-44.5 "/>
<text text-anchor="middle" x="74.5376" y="-29.3" font-family="Helvetica,sans-Serif" font-size="14.00" fill="#000000"> </text>
<polyline fill="none" stroke="#000000" points="0,-22.5 149.0752,-22.5 "/>
<text text-anchor="middle" x="74.5376" y="-7.3" font-family="Helvetica,sans-Serif" font-size="14.00" fill="#000000"> </text>
</g>
<!-- Node473 -->
<g id="node2" class="node">
<title>Node473</title>
<g id="a_node2"><a xlink:title="STL class. ">
<polygon fill="none" stroke="#bfbfbf" points="20.2412,-103.5 20.2412,-169.5 128.834,-169.5 128.834,-103.5 20.2412,-103.5"/>
<text text-anchor="middle" x="74.5376" y="-154.3" font-family="Helvetica,sans-Serif" font-size="14.00" fill="#000000">std::logic_error</text>
<polyline fill="none" stroke="#bfbfbf" points="20.2412,-147.5 128.834,-147.5 "/>
<text text-anchor="middle" x="74.5376" y="-132.3" font-family="Helvetica,sans-Serif" font-size="14.00" fill="#000000"> </text>
<polyline fill="none" stroke="#bfbfbf" points="20.2412,-125.5 128.834,-125.5 "/>
<text text-anchor="middle" x="74.5376" y="-110.3" font-family="Helvetica,sans-Serif" font-size="14.00" fill="#000000"> </text>
</a>
</g>
</g>
<!-- Node473&#45;&gt;Node472 -->
<g id="edge1" class="edge">
<title>Node473&#45;&gt;Node472</title>
<path fill="none" stroke="#191970" d="M74.5376,-93.1362C74.5376,-84.256 74.5376,-75.0447 74.5376,-66.5947"/>
<polygon fill="none" stroke="#191970" points="71.0377,-93.3432 74.5376,-103.3432 78.0377,-93.3432 71.0377,-93.3432"/>
</g>
<!-- Node474 -->
<g id="node3" class="node">
<title>Node474</title>
<g id="a_node3"><a xlink:title="STL class. ">
<polygon fill="none" stroke="#bfbfbf" points="23.3447,-206.5 23.3447,-272.5 125.7305,-272.5 125.7305,-206.5 23.3447,-206.5"/>
<text text-anchor="middle" x="74.5376" y="-257.3" font-family="Helvetica,sans-Serif" font-size="14.00" fill="#000000">std::exception</text>
<polyline fill="none" stroke="#bfbfbf" points="23.3447,-250.5 125.7305,-250.5 "/>
<text text-anchor="middle" x="74.5376" y="-235.3" font-family="Helvetica,sans-Serif" font-size="14.00" fill="#000000"> </text>
<polyline fill="none" stroke="#bfbfbf" points="23.3447,-228.5 125.7305,-228.5 "/>
<text text-anchor="middle" x="74.5376" y="-213.3" font-family="Helvetica,sans-Serif" font-size="14.00" fill="#000000"> </text>
</a>
</g>
</g>
<!-- Node474&#45;&gt;Node473 -->
<g id="edge2" class="edge">
<title>Node474&#45;&gt;Node473</title>
<path fill="none" stroke="#191970" d="M74.5376,-196.1362C74.5376,-187.256 74.5376,-178.0447 74.5376,-169.5947"/>
<polygon fill="none" stroke="#191970" points="71.0377,-196.3432 74.5376,-206.3432 78.0377,-196.3432 71.0377,-196.3432"/>
</g>
</g>
</svg>
