<?xml version="1.0" encoding="UTF-8" standalone="no"?>
<!DOCTYPE svg PUBLIC "-//W3C//DTD SVG 1.1//EN"
 "http://www.w3.org/Graphics/SVG/1.1/DTD/svg11.dtd">
<!-- Generated by graphviz version 2.40.1 (20161225.0304)
 -->
<!-- Title: InfinityDouble Pages: 1 -->
<svg width="127pt" height="220pt"
 viewBox="0.00 0.00 126.70 220.00" xmlns="http://www.w3.org/2000/svg" xmlns:xlink="http://www.w3.org/1999/xlink">
<g id="graph0" class="graph" transform="scale(1 1) rotate(0) translate(4 216)">
<title>InfinityDouble</title>
<!-- Node49 -->
<g id="node1" class="node">
<title>Node49</title>
<polygon fill="#bfbfbf" stroke="#000000" points="0,-.5 0,-108.5 118.7031,-108.5 118.7031,-.5 0,-.5"/>
<text text-anchor="middle" x="59.3516" y="-93.3" font-family="Helvetica,sans-Serif" font-size="14.00" fill="#000000">InfinityDouble</text>
<polyline fill="none" stroke="#000000" points="0,-86.5 118.7031,-86.5 "/>
<text text-anchor="start" x="8" y="-71.3" font-family="Helvetica,sans-Serif" font-size="14.00" fill="#000000">&#45; w</text>
<text text-anchor="start" x="8" y="-57.3" font-family="Helvetica,sans-Serif" font-size="14.00" fill="#000000">&#45; isInfinity</text>
<polyline fill="none" stroke="#000000" points="0,-50.5 118.7031,-50.5 "/>
<text text-anchor="start" x="8" y="-35.3" font-family="Helvetica,sans-Serif" font-size="14.00" fill="#000000">+ FromValue()</text>
<text text-anchor="start" x="8" y="-21.3" font-family="Helvetica,sans-Serif" font-size="14.00" fill="#000000">+ InfinityValue()</text>
<text text-anchor="start" x="8" y="-7.3" font-family="Helvetica,sans-Serif" font-size="14.00" fill="#000000">&#45; InfinityDouble()</text>
</g>
<!-- Node50 -->
<g id="node2" class="node">
<title>Node50</title>
<polygon fill="none" stroke="#bfbfbf" points="25.6758,-145.5 25.6758,-211.5 93.0273,-211.5 93.0273,-145.5 25.6758,-145.5"/>
<text text-anchor="middle" x="59.3516" y="-196.3" font-family="Helvetica,sans-Serif" font-size="14.00" fill="#000000">QObject</text>
<polyline fill="none" stroke="#bfbfbf" points="25.6758,-189.5 93.0273,-189.5 "/>
<text text-anchor="middle" x="59.3516" y="-174.3" font-family="Helvetica,sans-Serif" font-size="14.00" fill="#000000"> </text>
<polyline fill="none" stroke="#bfbfbf" points="25.6758,-167.5 93.0273,-167.5 "/>
<text text-anchor="middle" x="59.3516" y="-152.3" font-family="Helvetica,sans-Serif" font-size="14.00" fill="#000000"> </text>
</g>
<!-- Node50&#45;&gt;Node49 -->
<g id="edge1" class="edge">
<title>Node50&#45;&gt;Node49</title>
<path fill="none" stroke="#191970" d="M59.3516,-135.2113C59.3516,-126.7144 59.3516,-117.7002 59.3516,-108.8938"/>
<polygon fill="none" stroke="#191970" points="55.8517,-135.2702 59.3516,-145.2703 62.8517,-135.2703 55.8517,-135.2702"/>
</g>
</g>
</svg>
