<?xml version="1.0" encoding="UTF-8" standalone="no"?>
<!DOCTYPE svg PUBLIC "-//W3C//DTD SVG 1.1//EN"
 "http://www.w3.org/Graphics/SVG/1.1/DTD/svg11.dtd">
<!-- Generated by graphviz version 2.40.1 (20161225.0304)
 -->
<!-- Title: std::wifstream Pages: 1 -->
<svg width="163pt" height="515pt"
 viewBox="0.00 0.00 163.30 515.00" xmlns="http://www.w3.org/2000/svg" xmlns:xlink="http://www.w3.org/1999/xlink">
<g id="graph0" class="graph" transform="scale(1 1) rotate(0) translate(4 511)">
<title>std::wifstream</title>
<!-- Node897 -->
<g id="node1" class="node">
<title>Node897</title>
<polygon fill="#bfbfbf" stroke="#000000" points="26.4722,-.5 26.4722,-66.5 128.8237,-66.5 128.8237,-.5 26.4722,-.5"/>
<text text-anchor="middle" x="77.6479" y="-51.3" font-family="Helvetica,sans-Serif" font-size="14.00" fill="#000000">std::wifstream</text>
<polyline fill="none" stroke="#000000" points="26.4722,-44.5 128.8237,-44.5 "/>
<text text-anchor="middle" x="77.6479" y="-29.3" font-family="Helvetica,sans-Serif" font-size="14.00" fill="#000000"> </text>
<polyline fill="none" stroke="#000000" points="26.4722,-22.5 128.8237,-22.5 "/>
<text text-anchor="middle" x="77.6479" y="-7.3" font-family="Helvetica,sans-Serif" font-size="14.00" fill="#000000"> </text>
</g>
<!-- Node898 -->
<g id="node2" class="node">
<title>Node898</title>
<g id="a_node2"><a xlink:title="STL class. ">
<polygon fill="none" stroke="#bfbfbf" points="11.293,-103.5 11.293,-183.5 144.0029,-183.5 144.0029,-103.5 11.293,-103.5"/>
<text text-anchor="start" x="19.293" y="-168.3" font-family="Helvetica,sans-Serif" font-size="14.00" fill="#000000">std::basic_ifstream</text>
<text text-anchor="middle" x="77.6479" y="-154.3" font-family="Helvetica,sans-Serif" font-size="14.00" fill="#000000">&lt; wchar_t &gt;</text>
<polyline fill="none" stroke="#bfbfbf" points="11.293,-147.5 144.0029,-147.5 "/>
<text text-anchor="middle" x="77.6479" y="-132.3" font-family="Helvetica,sans-Serif" font-size="14.00" fill="#000000"> </text>
<polyline fill="none" stroke="#bfbfbf" points="11.293,-125.5 144.0029,-125.5 "/>
<text text-anchor="middle" x="77.6479" y="-110.3" font-family="Helvetica,sans-Serif" font-size="14.00" fill="#000000"> </text>
</a>
</g>
</g>
<!-- Node898&#45;&gt;Node897 -->
<g id="edge1" class="edge">
<title>Node898&#45;&gt;Node897</title>
<path fill="none" stroke="#191970" d="M77.6479,-93.4195C77.6479,-84.3987 77.6479,-75.2 77.6479,-66.8045"/>
<polygon fill="none" stroke="#191970" points="74.148,-93.4763 77.6479,-103.4763 81.148,-93.4763 74.148,-93.4763"/>
</g>
<!-- Node899 -->
<g id="node3" class="node">
<title>Node899</title>
<g id="a_node3"><a xlink:title="STL class. ">
<polygon fill="none" stroke="#bfbfbf" points="13.2378,-220.5 13.2378,-300.5 142.0581,-300.5 142.0581,-220.5 13.2378,-220.5"/>
<text text-anchor="start" x="21.2378" y="-285.3" font-family="Helvetica,sans-Serif" font-size="14.00" fill="#000000">std::basic_istream</text>
<text text-anchor="middle" x="77.6479" y="-271.3" font-family="Helvetica,sans-Serif" font-size="14.00" fill="#000000">&lt; Char &gt;</text>
<polyline fill="none" stroke="#bfbfbf" points="13.2378,-264.5 142.0581,-264.5 "/>
<text text-anchor="middle" x="77.6479" y="-249.3" font-family="Helvetica,sans-Serif" font-size="14.00" fill="#000000"> </text>
<polyline fill="none" stroke="#bfbfbf" points="13.2378,-242.5 142.0581,-242.5 "/>
<text text-anchor="middle" x="77.6479" y="-227.3" font-family="Helvetica,sans-Serif" font-size="14.00" fill="#000000"> </text>
</a>
</g>
</g>
<!-- Node899&#45;&gt;Node898 -->
<g id="edge2" class="edge">
<title>Node899&#45;&gt;Node898</title>
<path fill="none" stroke="#191970" d="M77.6479,-210.0967C77.6479,-201.3218 77.6479,-192.2991 77.6479,-183.839"/>
<polygon fill="none" stroke="#191970" points="74.148,-210.2352 77.6479,-220.2352 81.148,-210.2353 74.148,-210.2352"/>
</g>
<!-- Node900 -->
<g id="node4" class="node">
<title>Node900</title>
<g id="a_node4"><a xlink:title="STL class. ">
<polygon fill="none" stroke="#bfbfbf" points="0,-337.5 0,-403.5 155.2959,-403.5 155.2959,-337.5 0,-337.5"/>
<text text-anchor="middle" x="77.6479" y="-388.3" font-family="Helvetica,sans-Serif" font-size="14.00" fill="#000000">std::basic_ios&lt; Char &gt;</text>
<polyline fill="none" stroke="#bfbfbf" points="0,-381.5 155.2959,-381.5 "/>
<text text-anchor="middle" x="77.6479" y="-366.3" font-family="Helvetica,sans-Serif" font-size="14.00" fill="#000000"> </text>
<polyline fill="none" stroke="#bfbfbf" points="0,-359.5 155.2959,-359.5 "/>
<text text-anchor="middle" x="77.6479" y="-344.3" font-family="Helvetica,sans-Serif" font-size="14.00" fill="#000000"> </text>
</a>
</g>
</g>
<!-- Node900&#45;&gt;Node899 -->
<g id="edge3" class="edge">
<title>Node900&#45;&gt;Node899</title>
<path fill="none" stroke="#191970" d="M77.6479,-327.4695C77.6479,-318.7133 77.6479,-309.5317 77.6479,-300.8719"/>
<polygon fill="none" stroke="#191970" points="74.148,-327.4963 77.6479,-337.4964 81.148,-327.4964 74.148,-327.4963"/>
</g>
<!-- Node901 -->
<g id="node5" class="node">
<title>Node901</title>
<g id="a_node5"><a xlink:title="STL class. ">
<polygon fill="none" stroke="#bfbfbf" points="28.3999,-440.5 28.3999,-506.5 126.896,-506.5 126.896,-440.5 28.3999,-440.5"/>
<text text-anchor="middle" x="77.6479" y="-491.3" font-family="Helvetica,sans-Serif" font-size="14.00" fill="#000000">std::ios_base</text>
<polyline fill="none" stroke="#bfbfbf" points="28.3999,-484.5 126.896,-484.5 "/>
<text text-anchor="middle" x="77.6479" y="-469.3" font-family="Helvetica,sans-Serif" font-size="14.00" fill="#000000"> </text>
<polyline fill="none" stroke="#bfbfbf" points="28.3999,-462.5 126.896,-462.5 "/>
<text text-anchor="middle" x="77.6479" y="-447.3" font-family="Helvetica,sans-Serif" font-size="14.00" fill="#000000"> </text>
</a>
</g>
</g>
<!-- Node901&#45;&gt;Node900 -->
<g id="edge4" class="edge">
<title>Node901&#45;&gt;Node900</title>
<path fill="none" stroke="#191970" d="M77.6479,-430.1362C77.6479,-421.256 77.6479,-412.0447 77.6479,-403.5947"/>
<polygon fill="none" stroke="#191970" points="74.148,-430.3432 77.6479,-440.3432 81.148,-430.3432 74.148,-430.3432"/>
</g>
</g>
</svg>
