<?xml version="1.0" encoding="UTF-8" standalone="no"?>
<!DOCTYPE svg PUBLIC "-//W3C//DTD SVG 1.1//EN"
 "http://www.w3.org/Graphics/SVG/1.1/DTD/svg11.dtd">
<!-- Generated by graphviz version 2.40.1 (20161225.0304)
 -->
<!-- Title: MainWindow::connectToServer Pages: 1 -->
<svg width="519pt" height="31pt"
 viewBox="0.00 0.00 519.37 31.00" xmlns="http://www.w3.org/2000/svg" xmlns:xlink="http://www.w3.org/1999/xlink">
<g id="graph0" class="graph" transform="scale(1 1) rotate(0) translate(4 27)">
<title>MainWindow::connectToServer</title>
<!-- Node7 -->
<g id="node1" class="node">
<title>Node7</title>
<polygon fill="#bfbfbf" stroke="#000000" points="0,-.5 0,-22.5 208.9717,-22.5 208.9717,-.5 0,-.5"/>
<text text-anchor="middle" x="104.4858" y="-7.3" font-family="Helvetica,sans-Serif" font-size="14.00" fill="#000000">MainWindow::connectToServer</text>
</g>
<!-- Node8 -->
<g id="node2" class="node">
<title>Node8</title>
<g id="a_node2"><a xlink:href="../../d6/d1a/classMainWindow.html#a8b244be8b7b7db1b08de2a2acb9409db" target="_top" xlink:title="MainWindow::MainWindow">
<polygon fill="none" stroke="#000000" points="244.9717,-.5 244.9717,-22.5 429.0264,-22.5 429.0264,-.5 244.9717,-.5"/>
<text text-anchor="middle" x="336.999" y="-7.3" font-family="Helvetica,sans-Serif" font-size="14.00" fill="#000000">MainWindow::MainWindow</text>
</a>
</g>
</g>
<!-- Node7&#45;&gt;Node8 -->
<g id="edge1" class="edge">
<title>Node7&#45;&gt;Node8</title>
<path fill="none" stroke="#191970" d="M219.2754,-11.5C227.8898,-11.5 236.5149,-11.5 244.9615,-11.5"/>
<polygon fill="#191970" stroke="#191970" points="219.1792,-8.0001 209.1792,-11.5 219.1792,-15.0001 219.1792,-8.0001"/>
</g>
<!-- Node9 -->
<g id="node3" class="node">
<title>Node9</title>
<g id="a_node3"><a xlink:href="../../d8/da0/GameView_2main_8cpp.html#a0ddf1224851353fc92bfbff6f499fa97" target="_top" xlink:title="main">
<polygon fill="none" stroke="#000000" points="465.0264,-.5 465.0264,-22.5 511.3711,-22.5 511.3711,-.5 465.0264,-.5"/>
<text text-anchor="middle" x="488.1987" y="-7.3" font-family="Helvetica,sans-Serif" font-size="14.00" fill="#000000">main</text>
</a>
</g>
</g>
<!-- Node8&#45;&gt;Node9 -->
<g id="edge2" class="edge">
<title>Node8&#45;&gt;Node9</title>
<path fill="none" stroke="#191970" d="M439.3136,-11.5C448.7229,-11.5 457.4986,-11.5 464.9439,-11.5"/>
<polygon fill="#191970" stroke="#191970" points="439.3081,-8.0001 429.308,-11.5 439.308,-15.0001 439.3081,-8.0001"/>
</g>
</g>
</svg>
