<?xml version="1.0" encoding="UTF-8" standalone="no"?>
<!DOCTYPE svg PUBLIC "-//W3C//DTD SVG 1.1//EN"
 "http://www.w3.org/Graphics/SVG/1.1/DTD/svg11.dtd">
<!-- Generated by graphviz version 2.40.1 (20161225.0304)
 -->
<!-- Title: std::bad_exception Pages: 1 -->
<svg width="142pt" height="178pt"
 viewBox="0.00 0.00 141.53 178.00" xmlns="http://www.w3.org/2000/svg" xmlns:xlink="http://www.w3.org/1999/xlink">
<g id="graph0" class="graph" transform="scale(1 1) rotate(0) translate(4 174)">
<title>std::bad_exception</title>
<!-- Node17 -->
<g id="node1" class="node">
<title>Node17</title>
<polygon fill="#bfbfbf" stroke="#000000" points="0,-.5 0,-66.5 133.5303,-66.5 133.5303,-.5 0,-.5"/>
<text text-anchor="middle" x="66.7651" y="-51.3" font-family="Helvetica,sans-Serif" font-size="14.00" fill="#000000">std::bad_exception</text>
<polyline fill="none" stroke="#000000" points="0,-44.5 133.5303,-44.5 "/>
<text text-anchor="middle" x="66.7651" y="-29.3" font-family="Helvetica,sans-Serif" font-size="14.00" fill="#000000"> </text>
<polyline fill="none" stroke="#000000" points="0,-22.5 133.5303,-22.5 "/>
<text text-anchor="middle" x="66.7651" y="-7.3" font-family="Helvetica,sans-Serif" font-size="14.00" fill="#000000"> </text>
</g>
<!-- Node18 -->
<g id="node2" class="node">
<title>Node18</title>
<g id="a_node2"><a xlink:title="STL class. ">
<polygon fill="none" stroke="#bfbfbf" points="15.5723,-103.5 15.5723,-169.5 117.958,-169.5 117.958,-103.5 15.5723,-103.5"/>
<text text-anchor="middle" x="66.7651" y="-154.3" font-family="Helvetica,sans-Serif" font-size="14.00" fill="#000000">std::exception</text>
<polyline fill="none" stroke="#bfbfbf" points="15.5723,-147.5 117.958,-147.5 "/>
<text text-anchor="middle" x="66.7651" y="-132.3" font-family="Helvetica,sans-Serif" font-size="14.00" fill="#000000"> </text>
<polyline fill="none" stroke="#bfbfbf" points="15.5723,-125.5 117.958,-125.5 "/>
<text text-anchor="middle" x="66.7651" y="-110.3" font-family="Helvetica,sans-Serif" font-size="14.00" fill="#000000"> </text>
</a>
</g>
</g>
<!-- Node18&#45;&gt;Node17 -->
<g id="edge1" class="edge">
<title>Node18&#45;&gt;Node17</title>
<path fill="none" stroke="#191970" d="M66.7651,-93.1362C66.7651,-84.256 66.7651,-75.0447 66.7651,-66.5947"/>
<polygon fill="none" stroke="#191970" points="63.2652,-93.3432 66.7651,-103.3432 70.2652,-93.3432 63.2652,-93.3432"/>
</g>
</g>
</svg>
