<?xml version="1.0" encoding="UTF-8" standalone="no"?>
<!DOCTYPE svg PUBLIC "-//W3C//DTD SVG 1.1//EN"
 "http://www.w3.org/Graphics/SVG/1.1/DTD/svg11.dtd">
<!-- Generated by graphviz version 2.40.1 (20161225.0304)
 -->
<!-- Title: std::basic_istringstream&lt; Char &gt; Pages: 1 -->
<svg width="644pt" height="546pt"
 viewBox="0.00 0.00 643.82 546.00" xmlns="http://www.w3.org/2000/svg" xmlns:xlink="http://www.w3.org/1999/xlink">
<g id="graph0" class="graph" transform="scale(1 1) rotate(0) translate(4 542)">
<title>std::basic_istringstream&lt; Char &gt;</title>
<!-- Node212 -->
<g id="node1" class="node">
<title>Node212</title>
<polygon fill="#bfbfbf" stroke="#000000" points="208.7656,-131.5 208.7656,-211.5 371.8203,-211.5 371.8203,-131.5 208.7656,-131.5"/>
<text text-anchor="start" x="216.7656" y="-196.3" font-family="Helvetica,sans-Serif" font-size="14.00" fill="#000000">std::basic_istringstream</text>
<text text-anchor="middle" x="290.293" y="-182.3" font-family="Helvetica,sans-Serif" font-size="14.00" fill="#000000">&lt; Char &gt;</text>
<polyline fill="none" stroke="#000000" points="208.7656,-175.5 371.8203,-175.5 "/>
<text text-anchor="middle" x="290.293" y="-160.3" font-family="Helvetica,sans-Serif" font-size="14.00" fill="#000000"> </text>
<polyline fill="none" stroke="#000000" points="208.7656,-153.5 371.8203,-153.5 "/>
<text text-anchor="middle" x="290.293" y="-138.3" font-family="Helvetica,sans-Serif" font-size="14.00" fill="#000000"> </text>
</g>
<!-- Node216 -->
<g id="node5" class="node">
<title>Node216</title>
<g id="a_node5"><a xlink:title="STL class. ">
<polygon fill="none" stroke="#bfbfbf" points="0,-.5 0,-80.5 122.5859,-80.5 122.5859,-.5 0,-.5"/>
<text text-anchor="start" x="8" y="-65.3" font-family="Helvetica,sans-Serif" font-size="14.00" fill="#000000">std::istringstream</text>
<text text-anchor="middle" x="61.293" y="-51.3" font-family="Helvetica,sans-Serif" font-size="14.00" fill="#000000">&lt; char &gt;</text>
<polyline fill="none" stroke="#bfbfbf" points="0,-44.5 122.5859,-44.5 "/>
<text text-anchor="middle" x="61.293" y="-29.3" font-family="Helvetica,sans-Serif" font-size="14.00" fill="#000000"> </text>
<polyline fill="none" stroke="#bfbfbf" points="0,-22.5 122.5859,-22.5 "/>
<text text-anchor="middle" x="61.293" y="-7.3" font-family="Helvetica,sans-Serif" font-size="14.00" fill="#000000"> </text>
</a>
</g>
</g>
<!-- Node212&#45;&gt;Node216 -->
<g id="edge4" class="edge">
<title>Node212&#45;&gt;Node216</title>
<path fill="none" stroke="#191970" d="M211.4455,-126.3951C182.3996,-109.7793 149.9534,-91.2184 122.6749,-75.6137"/>
<polygon fill="none" stroke="#191970" points="209.9231,-129.5564 220.3411,-131.4839 213.3989,-123.4803 209.9231,-129.5564"/>
</g>
<!-- Node217 -->
<g id="node6" class="node">
<title>Node217</title>
<g id="a_node6"><a xlink:title="STL class. ">
<polygon fill="none" stroke="#bfbfbf" points="140.9448,-.5 140.9448,-80.5 273.6411,-80.5 273.6411,-.5 140.9448,-.5"/>
<text text-anchor="start" x="148.9448" y="-65.3" font-family="Helvetica,sans-Serif" font-size="14.00" fill="#000000">std::wistringstream</text>
<text text-anchor="middle" x="207.293" y="-51.3" font-family="Helvetica,sans-Serif" font-size="14.00" fill="#000000">&lt; wchar_t &gt;</text>
<polyline fill="none" stroke="#bfbfbf" points="140.9448,-44.5 273.6411,-44.5 "/>
<text text-anchor="middle" x="207.293" y="-29.3" font-family="Helvetica,sans-Serif" font-size="14.00" fill="#000000"> </text>
<polyline fill="none" stroke="#bfbfbf" points="140.9448,-22.5 273.6411,-22.5 "/>
<text text-anchor="middle" x="207.293" y="-7.3" font-family="Helvetica,sans-Serif" font-size="14.00" fill="#000000"> </text>
</a>
</g>
</g>
<!-- Node212&#45;&gt;Node217 -->
<g id="edge5" class="edge">
<title>Node212&#45;&gt;Node217</title>
<path fill="none" stroke="#191970" d="M259.5577,-122.9901C250.7451,-109.0811 241.2369,-94.0742 232.7774,-80.7225"/>
<polygon fill="none" stroke="#191970" points="256.6306,-124.9099 264.9392,-131.4839 262.5437,-121.1634 256.6306,-124.9099"/>
</g>
<!-- Node218 -->
<g id="node7" class="node">
<title>Node218</title>
<polygon fill="none" stroke="#bfbfbf" points="291.7656,-.5 291.7656,-80.5 454.8203,-80.5 454.8203,-.5 291.7656,-.5"/>
<text text-anchor="start" x="299.7656" y="-65.3" font-family="Helvetica,sans-Serif" font-size="14.00" fill="#000000">std::basic_istringstream</text>
<text text-anchor="middle" x="373.293" y="-51.3" font-family="Helvetica,sans-Serif" font-size="14.00" fill="#000000">&lt; wchar_t &gt;</text>
<polyline fill="none" stroke="#bfbfbf" points="291.7656,-44.5 454.8203,-44.5 "/>
<text text-anchor="middle" x="373.293" y="-29.3" font-family="Helvetica,sans-Serif" font-size="14.00" fill="#000000"> </text>
<polyline fill="none" stroke="#bfbfbf" points="291.7656,-22.5 454.8203,-22.5 "/>
<text text-anchor="middle" x="373.293" y="-7.3" font-family="Helvetica,sans-Serif" font-size="14.00" fill="#000000"> </text>
</g>
<!-- Node212&#45;&gt;Node218 -->
<g id="edge6" class="edge">
<title>Node212&#45;&gt;Node218</title>
<path fill="none" stroke="#ffa500" d="M321.0283,-122.9901C329.8408,-109.0811 339.349,-94.0742 347.8085,-80.7225"/>
<polygon fill="#ffa500" stroke="#ffa500" points="318.0423,-121.1634 315.6467,-131.4839 323.9553,-124.9099 318.0423,-121.1634"/>
<text text-anchor="middle" x="372.8135" y="-101.8" font-family="Helvetica,sans-Serif" font-size="14.00" fill="#000000"> &lt; wchar_t &gt;</text>
</g>
<!-- Node219 -->
<g id="node8" class="node">
<title>Node219</title>
<polygon fill="none" stroke="#bfbfbf" points="472.7656,-.5 472.7656,-80.5 635.8203,-80.5 635.8203,-.5 472.7656,-.5"/>
<text text-anchor="start" x="480.7656" y="-65.3" font-family="Helvetica,sans-Serif" font-size="14.00" fill="#000000">std::basic_istringstream</text>
<text text-anchor="middle" x="554.293" y="-51.3" font-family="Helvetica,sans-Serif" font-size="14.00" fill="#000000">&lt; char &gt;</text>
<polyline fill="none" stroke="#bfbfbf" points="472.7656,-44.5 635.8203,-44.5 "/>
<text text-anchor="middle" x="554.293" y="-29.3" font-family="Helvetica,sans-Serif" font-size="14.00" fill="#000000"> </text>
<polyline fill="none" stroke="#bfbfbf" points="472.7656,-22.5 635.8203,-22.5 "/>
<text text-anchor="middle" x="554.293" y="-7.3" font-family="Helvetica,sans-Serif" font-size="14.00" fill="#000000"> </text>
</g>
<!-- Node212&#45;&gt;Node219 -->
<g id="edge7" class="edge">
<title>Node212&#45;&gt;Node219</title>
<path fill="none" stroke="#ffa500" d="M381.1193,-129.5534C392.658,-124.0601 404.2772,-118.4474 415.293,-113 436.0306,-102.7451 458.3212,-91.3074 478.8472,-80.6028"/>
<polygon fill="#ffa500" stroke="#ffa500" points="379.4314,-126.4802 371.8959,-133.9278 382.431,-132.8049 379.4314,-126.4802"/>
<text text-anchor="middle" x="469.9204" y="-101.8" font-family="Helvetica,sans-Serif" font-size="14.00" fill="#000000"> &lt; char &gt;</text>
</g>
<!-- Node213 -->
<g id="node2" class="node">
<title>Node213</title>
<g id="a_node2"><a xlink:title="STL class. ">
<polygon fill="none" stroke="#bfbfbf" points="225.8828,-249.5 225.8828,-329.5 354.7031,-329.5 354.7031,-249.5 225.8828,-249.5"/>
<text text-anchor="start" x="233.8828" y="-314.3" font-family="Helvetica,sans-Serif" font-size="14.00" fill="#000000">std::basic_istream</text>
<text text-anchor="middle" x="290.293" y="-300.3" font-family="Helvetica,sans-Serif" font-size="14.00" fill="#000000">&lt; Char &gt;</text>
<polyline fill="none" stroke="#bfbfbf" points="225.8828,-293.5 354.7031,-293.5 "/>
<text text-anchor="middle" x="290.293" y="-278.3" font-family="Helvetica,sans-Serif" font-size="14.00" fill="#000000"> </text>
<polyline fill="none" stroke="#bfbfbf" points="225.8828,-271.5 354.7031,-271.5 "/>
<text text-anchor="middle" x="290.293" y="-256.3" font-family="Helvetica,sans-Serif" font-size="14.00" fill="#000000"> </text>
</a>
</g>
</g>
<!-- Node213&#45;&gt;Node212 -->
<g id="edge1" class="edge">
<title>Node213&#45;&gt;Node212</title>
<path fill="none" stroke="#191970" d="M290.293,-239.0368C290.293,-229.8676 290.293,-220.4174 290.293,-211.5973"/>
<polygon fill="none" stroke="#191970" points="286.7931,-239.2211 290.293,-249.2211 293.7931,-239.2212 286.7931,-239.2211"/>
</g>
<!-- Node214 -->
<g id="node3" class="node">
<title>Node214</title>
<g id="a_node3"><a xlink:title="STL class. ">
<polygon fill="none" stroke="#bfbfbf" points="212.645,-367.5 212.645,-433.5 367.9409,-433.5 367.9409,-367.5 212.645,-367.5"/>
<text text-anchor="middle" x="290.293" y="-418.3" font-family="Helvetica,sans-Serif" font-size="14.00" fill="#000000">std::basic_ios&lt; Char &gt;</text>
<polyline fill="none" stroke="#bfbfbf" points="212.645,-411.5 367.9409,-411.5 "/>
<text text-anchor="middle" x="290.293" y="-396.3" font-family="Helvetica,sans-Serif" font-size="14.00" fill="#000000"> </text>
<polyline fill="none" stroke="#bfbfbf" points="212.645,-389.5 367.9409,-389.5 "/>
<text text-anchor="middle" x="290.293" y="-374.3" font-family="Helvetica,sans-Serif" font-size="14.00" fill="#000000"> </text>
</a>
</g>
</g>
<!-- Node214&#45;&gt;Node213 -->
<g id="edge2" class="edge">
<title>Node214&#45;&gt;Node213</title>
<path fill="none" stroke="#191970" d="M290.293,-357.4312C290.293,-348.2871 290.293,-338.6684 290.293,-329.6385"/>
<polygon fill="none" stroke="#191970" points="286.7931,-357.4968 290.293,-367.4969 293.7931,-357.4969 286.7931,-357.4968"/>
</g>
<!-- Node215 -->
<g id="node4" class="node">
<title>Node215</title>
<g id="a_node4"><a xlink:title="STL class. ">
<polygon fill="none" stroke="#bfbfbf" points="241.0449,-471.5 241.0449,-537.5 339.541,-537.5 339.541,-471.5 241.0449,-471.5"/>
<text text-anchor="middle" x="290.293" y="-522.3" font-family="Helvetica,sans-Serif" font-size="14.00" fill="#000000">std::ios_base</text>
<polyline fill="none" stroke="#bfbfbf" points="241.0449,-515.5 339.541,-515.5 "/>
<text text-anchor="middle" x="290.293" y="-500.3" font-family="Helvetica,sans-Serif" font-size="14.00" fill="#000000"> </text>
<polyline fill="none" stroke="#bfbfbf" points="241.0449,-493.5 339.541,-493.5 "/>
<text text-anchor="middle" x="290.293" y="-478.3" font-family="Helvetica,sans-Serif" font-size="14.00" fill="#000000"> </text>
</a>
</g>
</g>
<!-- Node215&#45;&gt;Node214 -->
<g id="edge3" class="edge">
<title>Node215&#45;&gt;Node214</title>
<path fill="none" stroke="#191970" d="M290.293,-461.1737C290.293,-452.0025 290.293,-442.4608 290.293,-433.7336"/>
<polygon fill="none" stroke="#191970" points="286.7931,-461.3078 290.293,-471.3078 293.7931,-461.3078 286.7931,-461.3078"/>
</g>
</g>
</svg>
