<?xml version="1.0" encoding="UTF-8" standalone="no"?>
<!DOCTYPE svg PUBLIC "-//W3C//DTD SVG 1.1//EN"
 "http://www.w3.org/Graphics/SVG/1.1/DTD/svg11.dtd">
<!-- Generated by graphviz version 2.40.1 (20161225.0304)
 -->
<!-- Title: MailSender Pages: 1 -->
<svg width="164pt" height="248pt"
 viewBox="0.00 0.00 163.67 248.00" xmlns="http://www.w3.org/2000/svg" xmlns:xlink="http://www.w3.org/1999/xlink">
<g id="graph0" class="graph" transform="scale(1 1) rotate(0) translate(4 244)">
<title>MailSender</title>
<!-- Node67 -->
<g id="node1" class="node">
<title>Node67</title>
<polygon fill="#bfbfbf" stroke="#000000" points="0,-.5 0,-80.5 155.665,-80.5 155.665,-.5 0,-.5"/>
<text text-anchor="middle" x="77.8325" y="-65.3" font-family="Helvetica,sans-Serif" font-size="14.00" fill="#000000">MailSender</text>
<polyline fill="none" stroke="#000000" points="0,-58.5 155.665,-58.5 "/>
<text text-anchor="middle" x="77.8325" y="-43.3" font-family="Helvetica,sans-Serif" font-size="14.00" fill="#000000"> </text>
<polyline fill="none" stroke="#000000" points="0,-36.5 155.665,-36.5 "/>
<text text-anchor="start" x="8" y="-21.3" font-family="Helvetica,sans-Serif" font-size="14.00" fill="#000000">+ receiveResponce()</text>
<text text-anchor="start" x="8" y="-7.3" font-family="Helvetica,sans-Serif" font-size="14.00" fill="#000000">+ setDefaultReceiver()</text>
</g>
<!-- Node68 -->
<g id="node2" class="node">
<title>Node68</title>
<g id="a_node2"><a xlink:href="$d7/d58/classMailReceiver.html" xlink:title="{MailReceiver\n|# messages\l# mutex\l# isQueueLock\l|+ sendMail()\l# nextMessage()\l}">
<polygon fill="none" stroke="#000000" points="17.6982,-131.5 17.6982,-239.5 137.9668,-239.5 137.9668,-131.5 17.6982,-131.5"/>
<text text-anchor="middle" x="77.8325" y="-224.3" font-family="Helvetica,sans-Serif" font-size="14.00" fill="#000000">MailReceiver</text>
<polyline fill="none" stroke="#000000" points="17.6982,-217.5 137.9668,-217.5 "/>
<text text-anchor="start" x="25.6982" y="-202.3" font-family="Helvetica,sans-Serif" font-size="14.00" fill="#000000"># messages</text>
<text text-anchor="start" x="25.6982" y="-188.3" font-family="Helvetica,sans-Serif" font-size="14.00" fill="#000000"># mutex</text>
<text text-anchor="start" x="25.6982" y="-174.3" font-family="Helvetica,sans-Serif" font-size="14.00" fill="#000000"># isQueueLock</text>
<polyline fill="none" stroke="#000000" points="17.6982,-167.5 137.9668,-167.5 "/>
<text text-anchor="start" x="25.6982" y="-152.3" font-family="Helvetica,sans-Serif" font-size="14.00" fill="#000000">+ sendMail()</text>
<text text-anchor="start" x="25.6982" y="-138.3" font-family="Helvetica,sans-Serif" font-size="14.00" fill="#000000"># nextMessage()</text>
</a>
</g>
</g>
<!-- Node68&#45;&gt;Node67 -->
<g id="edge1" class="edge">
<title>Node68&#45;&gt;Node67</title>
<path fill="none" stroke="#404040" d="M77.8325,-131.0948C77.8325,-118.5586 77.8325,-105.2514 77.8325,-92.8067"/>
<polygon fill="none" stroke="#404040" points="77.8326,-92.7101 73.8326,-86.7101 77.8325,-80.7101 81.8326,-86.71 77.8326,-92.7101"/>
<text text-anchor="middle" x="108.5669" y="-101.8" font-family="Helvetica,sans-Serif" font-size="14.00" fill="#000000"> #receiver</text>
</g>
</g>
</svg>
