<?xml version="1.0" encoding="UTF-8" standalone="no"?>
<!DOCTYPE svg PUBLIC "-//W3C//DTD SVG 1.1//EN"
 "http://www.w3.org/Graphics/SVG/1.1/DTD/svg11.dtd">
<!-- Generated by graphviz version 2.40.1 (20161225.0304)
 -->
<!-- Title: Server/serverconnection.cpp Pages: 1 -->
<!--zoomable 444 -->
<svg id="main" version="1.1" xmlns="http://www.w3.org/2000/svg" xmlns:xlink="http://www.w3.org/1999/xlink" xml:space="preserve" onload="init(evt)">
<style type="text/css"><![CDATA[
.edge:hover path { stroke: red; }
.edge:hover polygon { stroke: red; fill: red; }
]]></style>
<script type="text/javascript"><![CDATA[
var edges = document.getElementsByTagName('g');
if (edges && edges.length) {
  for (var i=0;i<edges.length;i++) {
    if (edges[i].id.substr(0,4)=='edge') {
      edges[i].setAttribute('class','edge');
    }
  }
}
]]></script>
        <defs>
                <circle id="rim" cx="0" cy="0" r="7"/>
                <circle id="rim2" cx="0" cy="0" r="3.5"/>
                <g id="zoomPlus">
                        <use xlink:href="#rim" fill="#404040">
                                <set attributeName="fill" to="#808080" begin="zoomplus.mouseover" end="zoomplus.mouseout"/>
                        </use>
                        <path d="M-4,0h8M0,-4v8" fill="none" stroke="white" stroke-width="1.5" pointer-events="none"/>
                </g>
                <g id="zoomMin">
                        <use xlink:href="#rim" fill="#404040">
                                <set attributeName="fill" to="#808080" begin="zoomminus.mouseover" end="zoomminus.mouseout"/>
                        </use>
                        <path d="M-4,0h8" fill="none" stroke="white" stroke-width="1.5" pointer-events="none"/>
                </g>
                <g id="dirArrow">
                        <path fill="none" stroke="white" stroke-width="1.5" d="M0,-3.0v7 M-2.5,-0.5L0,-3.0L2.5,-0.5"/>
                </g>
               <g id="resetDef">
                       <use xlink:href="#rim2" fill="#404040">
                               <set attributeName="fill" to="#808080" begin="reset.mouseover" end="reset.mouseout"/>
                       </use>
               </g>
        </defs>

<script type="text/javascript">
var viewWidth = 967;
var viewHeight = 444;
var sectionId = 'dynsection-0';
</script>
<script xlink:href="../../svgpan.js"/>
<svg id="graph" class="graph">
<g id="viewport">
<title>Server/serverconnection.cpp</title>
<!-- Node0 -->
<g id="node1" class="node">
<title>Node0</title>
<polygon fill="#bfbfbf" stroke="#000000" points="470.5244,-413.5 470.5244,-435.5 664.7236,-435.5 664.7236,-413.5 470.5244,-413.5"/>
<text text-anchor="middle" x="567.624" y="-420.3" font-family="Helvetica,sans-Serif" font-size="14.00" fill="#000000">Server/serverconnection.cpp</text>
</g>
<!-- Node1 -->
<g id="node2" class="node">
<title>Node1</title>
<g id="a_node2"><a xlink:href="../../d0/dc2/a00104.html" target="_top" xlink:title="serverconnection.h">
<polygon fill="none" stroke="#000000" points="436.4795,-354.5 436.4795,-376.5 570.7686,-376.5 570.7686,-354.5 436.4795,-354.5"/>
<text text-anchor="middle" x="503.624" y="-361.3" font-family="Helvetica,sans-Serif" font-size="14.00" fill="#000000">serverconnection.h</text>
</a>
</g>
</g>
<!-- Node0&#45;&gt;Node1 -->
<g id="edge1" class="edge">
<title>Node0&#45;&gt;Node1</title>
<path fill="none" stroke="#191970" d="M555.5861,-413.4026C546.4681,-404.9969 533.75,-393.2723 523.1784,-383.5267"/>
<polygon fill="#191970" stroke="#191970" points="525.3327,-380.7524 515.608,-376.5477 520.5881,-385.8991 525.3327,-380.7524"/>
</g>
<!-- Node22 -->
<g id="node23" class="node">
<title>Node22</title>
<g id="a_node23"><a xlink:href="../../db/db2/a00020.html" target="_top" xlink:title="coreconst.h">
<polygon fill="none" stroke="#000000" points="631.438,-354.5 631.438,-376.5 719.8101,-376.5 719.8101,-354.5 631.438,-354.5"/>
<text text-anchor="middle" x="675.624" y="-361.3" font-family="Helvetica,sans-Serif" font-size="14.00" fill="#000000">coreconst.h</text>
</a>
</g>
</g>
<!-- Node0&#45;&gt;Node22 -->
<g id="edge33" class="edge">
<title>Node0&#45;&gt;Node22</title>
<path fill="none" stroke="#191970" d="M587.938,-413.4026C604.456,-404.3788 627.9755,-391.5302 646.4985,-381.4112"/>
<polygon fill="#191970" stroke="#191970" points="648.3033,-384.4135 655.4011,-376.5477 644.9473,-378.2704 648.3033,-384.4135"/>
</g>
<!-- Node2 -->
<g id="node3" class="node">
<title>Node2</title>
<polygon fill="none" stroke="#bfbfbf" points="0,-118.5 0,-140.5 71.248,-140.5 71.248,-118.5 0,-118.5"/>
<text text-anchor="middle" x="35.624" y="-125.3" font-family="Helvetica,sans-Serif" font-size="14.00" fill="#000000">QThread</text>
</g>
<!-- Node1&#45;&gt;Node2 -->
<g id="edge2" class="edge">
<title>Node1&#45;&gt;Node2</title>
<path fill="none" stroke="#191970" d="M436.3487,-363.5368C346.1401,-359.743 191.9463,-348.8301 145.624,-318 84.6584,-277.4239 53.0482,-190.6685 41.2186,-150.5936"/>
<polygon fill="#191970" stroke="#191970" points="44.5441,-149.4908 38.4563,-140.8196 37.808,-151.3946 44.5441,-149.4908"/>
</g>
<!-- Node3 -->
<g id="node4" class="node">
<title>Node3</title>
<polygon fill="none" stroke="#bfbfbf" points="574.6689,-295.5 574.6689,-317.5 664.5791,-317.5 664.5791,-295.5 574.6689,-295.5"/>
<text text-anchor="middle" x="619.624" y="-302.3" font-family="Helvetica,sans-Serif" font-size="14.00" fill="#000000">QTcpServer</text>
</g>
<!-- Node1&#45;&gt;Node3 -->
<g id="edge3" class="edge">
<title>Node1&#45;&gt;Node3</title>
<path fill="none" stroke="#191970" d="M525.4427,-354.4026C543.3463,-345.2964 568.908,-332.2952 588.8848,-322.1346"/>
<polygon fill="#191970" stroke="#191970" points="590.5766,-325.2009 597.9031,-317.5477 587.4031,-318.9616 590.5766,-325.2009"/>
</g>
<!-- Node4 -->
<g id="node5" class="node">
<title>Node4</title>
<polygon fill="none" stroke="#bfbfbf" points="693.2861,-177.5 693.2861,-199.5 741.9619,-199.5 741.9619,-177.5 693.2861,-177.5"/>
<text text-anchor="middle" x="717.624" y="-184.3" font-family="Helvetica,sans-Serif" font-size="14.00" fill="#000000">QList</text>
</g>
<!-- Node1&#45;&gt;Node4 -->
<g id="edge4" class="edge">
<title>Node1&#45;&gt;Node4</title>
<path fill="none" stroke="#191970" d="M512.1293,-354.2574C523.4465,-339.6896 544.4962,-313.9196 565.624,-295 605.8233,-259.0022 658.4754,-224.526 690.0847,-204.9857"/>
<polygon fill="#191970" stroke="#191970" points="692.0987,-207.8565 698.798,-199.6486 688.4424,-201.8873 692.0987,-207.8565"/>
</g>
<!-- Node5 -->
<g id="node6" class="node">
<title>Node5</title>
<g id="a_node6"><a xlink:href="../../d4/d81/a00110.html" target="_top" xlink:title="serverworker.h">
<polygon fill="none" stroke="#000000" points="154.7173,-295.5 154.7173,-317.5 262.5308,-317.5 262.5308,-295.5 154.7173,-295.5"/>
<text text-anchor="middle" x="208.624" y="-302.3" font-family="Helvetica,sans-Serif" font-size="14.00" fill="#000000">serverworker.h</text>
</a>
</g>
</g>
<!-- Node1&#45;&gt;Node5 -->
<g id="edge5" class="edge">
<title>Node1&#45;&gt;Node5</title>
<path fill="none" stroke="#191970" d="M448.4828,-354.4718C398.6624,-344.5077 325.3192,-329.839 272.8656,-319.3483"/>
<polygon fill="#191970" stroke="#191970" points="273.4883,-315.9036 262.9961,-317.3744 272.1154,-322.7677 273.4883,-315.9036"/>
</g>
<!-- Node8 -->
<g id="node9" class="node">
<title>Node8</title>
<g id="a_node9"><a xlink:href="../../d7/d46/a00002.html" target="_top" xlink:title="connection/mailboxelement.h">
<polygon fill="none" stroke="#000000" points="320.959,-236.5 320.959,-258.5 518.2891,-258.5 518.2891,-236.5 320.959,-236.5"/>
<text text-anchor="middle" x="419.624" y="-243.3" font-family="Helvetica,sans-Serif" font-size="14.00" fill="#000000">connection/mailboxelement.h</text>
</a>
</g>
</g>
<!-- Node1&#45;&gt;Node8 -->
<g id="edge32" class="edge">
<title>Node1&#45;&gt;Node8</title>
<path fill="none" stroke="#191970" d="M495.5698,-354.1857C481.2334,-334.0466 451.1363,-291.7673 433.4384,-266.9059"/>
<polygon fill="#191970" stroke="#191970" points="436.182,-264.7247 427.5313,-258.6078 430.4793,-268.7842 436.182,-264.7247"/>
</g>
<!-- Node5&#45;&gt;Node2 -->
<g id="edge7" class="edge">
<title>Node5&#45;&gt;Node2</title>
<path fill="none" stroke="#191970" d="M197.8021,-295.4279C168.9181,-265.8761 89.7654,-184.8932 53.8165,-148.1131"/>
<polygon fill="#191970" stroke="#191970" points="55.9347,-145.273 46.4419,-140.568 50.9287,-150.1658 55.9347,-145.273"/>
</g>
<!-- Node6 -->
<g id="node7" class="node">
<title>Node6</title>
<polygon fill="none" stroke="#bfbfbf" points="88.8862,-118.5 88.8862,-140.5 180.3618,-140.5 180.3618,-118.5 88.8862,-118.5"/>
<text text-anchor="middle" x="134.624" y="-125.3" font-family="Helvetica,sans-Serif" font-size="14.00" fill="#000000">QTcpSocket</text>
</g>
<!-- Node5&#45;&gt;Node6 -->
<g id="edge6" class="edge">
<title>Node5&#45;&gt;Node6</title>
<path fill="none" stroke="#191970" d="M203.995,-295.4279C191.8477,-266.3727 158.9148,-187.6008 143.1966,-150.0046"/>
<polygon fill="#191970" stroke="#191970" points="146.3378,-148.444 139.2513,-140.568 139.8795,-151.1442 146.3378,-148.444"/>
</g>
<!-- Node7 -->
<g id="node8" class="node">
<title>Node7</title>
<polygon fill="none" stroke="#bfbfbf" points="257.8311,-.5 257.8311,-22.5 359.417,-22.5 359.417,-.5 257.8311,-.5"/>
<text text-anchor="middle" x="308.624" y="-7.3" font-family="Helvetica,sans-Serif" font-size="14.00" fill="#000000">QDataStream</text>
</g>
<!-- Node5&#45;&gt;Node7 -->
<g id="edge8" class="edge">
<title>Node5&#45;&gt;Node7</title>
<path fill="none" stroke="#191970" d="M208.624,-295.4375C208.624,-274.5417 208.624,-227.8333 208.624,-188.5 208.624,-188.5 208.624,-188.5 208.624,-129.5 208.624,-84.7225 251.0519,-48.2132 280.6355,-28.199"/>
<polygon fill="#191970" stroke="#191970" points="282.8746,-30.9176 289.343,-22.5264 279.0537,-25.0524 282.8746,-30.9176"/>
</g>
<!-- Node5&#45;&gt;Node8 -->
<g id="edge9" class="edge">
<title>Node5&#45;&gt;Node8</title>
<path fill="none" stroke="#191970" d="M248.3115,-295.4026C282.7931,-285.7608 332.8917,-271.7522 370.0124,-261.3724"/>
<polygon fill="#191970" stroke="#191970" points="371.4265,-264.6114 380.1145,-258.5477 369.5414,-257.87 371.4265,-264.6114"/>
</g>
<!-- Node8&#45;&gt;Node4 -->
<g id="edge28" class="edge">
<title>Node8&#45;&gt;Node4</title>
<path fill="none" stroke="#191970" d="M500.0642,-236.4636C550.4898,-228.7576 616.9025,-217.1766 683.4335,-200.0446"/>
<polygon fill="#191970" stroke="#191970" points="684.4602,-203.3938 693.2485,-197.4764 682.6882,-196.6218 684.4602,-203.3938"/>
</g>
<!-- Node9 -->
<g id="node10" class="node">
<title>Node9</title>
<g id="a_node10"><a xlink:href="../../d4/dee/a00008.html" target="_top" xlink:title="simpleconnection.h">
<polygon fill="none" stroke="#000000" points="236.7002,-177.5 236.7002,-199.5 372.5479,-199.5 372.5479,-177.5 236.7002,-177.5"/>
<text text-anchor="middle" x="304.624" y="-184.3" font-family="Helvetica,sans-Serif" font-size="14.00" fill="#000000">simpleconnection.h</text>
</a>
</g>
</g>
<!-- Node8&#45;&gt;Node9 -->
<g id="edge10" class="edge">
<title>Node8&#45;&gt;Node9</title>
<path fill="none" stroke="#191970" d="M397.9934,-236.4026C380.2442,-227.2964 354.9028,-214.2952 335.0983,-204.1346"/>
<polygon fill="#191970" stroke="#191970" points="336.6527,-200.9984 326.1577,-199.5477 333.4574,-207.2266 336.6527,-200.9984"/>
</g>
<!-- Node12 -->
<g id="node13" class="node">
<title>Node12</title>
<polygon fill="none" stroke="#bfbfbf" points="602.1621,-118.5 602.1621,-140.5 671.0859,-140.5 671.0859,-118.5 602.1621,-118.5"/>
<text text-anchor="middle" x="636.624" y="-125.3" font-family="Helvetica,sans-Serif" font-size="14.00" fill="#000000">QQueue</text>
</g>
<!-- Node8&#45;&gt;Node12 -->
<g id="edge30" class="edge">
<title>Node8&#45;&gt;Node12</title>
<path fill="none" stroke="#191970" d="M422.5647,-236.3846C427.2878,-220.7373 438.0786,-192.4087 457.624,-177 504.3289,-140.1799 530.5608,-155.3796 592.1244,-141.2205"/>
<polygon fill="#191970" stroke="#191970" points="593.0295,-144.6022 601.8923,-138.7969 591.3437,-137.8082 593.0295,-144.6022"/>
</g>
<!-- Node13 -->
<g id="node14" class="node">
<title>Node13</title>
<g id="a_node14"><a xlink:href="../../d6/d2d/a00047.html" target="_top" xlink:title="ibasegameelement.h">
<polygon fill="none" stroke="#000000" points="438.6382,-118.5 438.6382,-140.5 584.6099,-140.5 584.6099,-118.5 438.6382,-118.5"/>
<text text-anchor="middle" x="511.624" y="-125.3" font-family="Helvetica,sans-Serif" font-size="14.00" fill="#000000">ibasegameelement.h</text>
</a>
</g>
</g>
<!-- Node8&#45;&gt;Node13 -->
<g id="edge27" class="edge">
<title>Node8&#45;&gt;Node13</title>
<path fill="none" stroke="#191970" d="M417.3646,-236.4721C414.9666,-221.679 412.9534,-195.1707 424.624,-177 433.9427,-162.4911 449.2955,-152.0629 464.531,-144.7438"/>
<polygon fill="#191970" stroke="#191970" points="466.2171,-147.8252 473.9471,-140.5797 463.3859,-141.4233 466.2171,-147.8252"/>
</g>
<!-- Node20 -->
<g id="node21" class="node">
<title>Node20</title>
<polygon fill="none" stroke="#bfbfbf" points="467.1172,-177.5 467.1172,-199.5 532.1309,-199.5 532.1309,-177.5 467.1172,-177.5"/>
<text text-anchor="middle" x="499.624" y="-184.3" font-family="Helvetica,sans-Serif" font-size="14.00" fill="#000000">QMutex</text>
</g>
<!-- Node8&#45;&gt;Node20 -->
<g id="edge29" class="edge">
<title>Node8&#45;&gt;Node20</title>
<path fill="none" stroke="#191970" d="M434.6714,-236.4026C446.4041,-227.7497 462.9057,-215.5798 476.3398,-205.6721"/>
<polygon fill="#191970" stroke="#191970" points="478.6735,-208.3 484.6441,-199.5477 474.5186,-202.6663 478.6735,-208.3"/>
</g>
<!-- Node21 -->
<g id="node22" class="node">
<title>Node21</title>
<polygon fill="none" stroke="#bfbfbf" points="549.7588,-177.5 549.7588,-199.5 675.4893,-199.5 675.4893,-177.5 549.7588,-177.5"/>
<text text-anchor="middle" x="612.624" y="-184.3" font-family="Helvetica,sans-Serif" font-size="14.00" fill="#000000">qtconcurrentrun.h</text>
</g>
<!-- Node8&#45;&gt;Node21 -->
<g id="edge31" class="edge">
<title>Node8&#45;&gt;Node21</title>
<path fill="none" stroke="#191970" d="M455.9258,-236.4026C487.3311,-226.802 532.8992,-212.8718 566.8088,-202.5057"/>
<polygon fill="#191970" stroke="#191970" points="567.9451,-205.8183 576.485,-199.5477 565.8986,-199.1241 567.9451,-205.8183"/>
</g>
<!-- Node9&#45;&gt;Node2 -->
<g id="edge13" class="edge">
<title>Node9&#45;&gt;Node2</title>
<path fill="none" stroke="#191970" d="M248.5178,-177.427C205.2152,-168.705 143.5824,-155.9115 81.5621,-141.3975"/>
<polygon fill="#191970" stroke="#191970" points="82.1436,-137.9388 71.6076,-139.0537 80.5392,-144.7525 82.1436,-137.9388"/>
</g>
<!-- Node9&#45;&gt;Node6 -->
<g id="edge15" class="edge">
<title>Node9&#45;&gt;Node6</title>
<path fill="none" stroke="#191970" d="M272.6483,-177.4026C245.3418,-167.9256 205.8794,-154.2298 176.1382,-143.9079"/>
<polygon fill="#191970" stroke="#191970" points="177.0511,-140.52 166.4563,-140.5477 174.756,-147.133 177.0511,-140.52"/>
</g>
<!-- Node9&#45;&gt;Node7 -->
<g id="edge16" class="edge">
<title>Node9&#45;&gt;Node7</title>
<path fill="none" stroke="#191970" d="M296.2316,-177.223C280.4056,-154.4981 249.1585,-101.723 265.624,-59 269.9731,-47.7156 278.3834,-37.4489 286.6213,-29.3707"/>
<polygon fill="#191970" stroke="#191970" points="289.0038,-31.9347 294.0166,-22.6008 284.2772,-26.7714 289.0038,-31.9347"/>
</g>
<!-- Node10 -->
<g id="node11" class="node">
<title>Node10</title>
<polygon fill="none" stroke="#bfbfbf" points="313.1069,-118.5 313.1069,-140.5 420.1411,-140.5 420.1411,-118.5 313.1069,-118.5"/>
<text text-anchor="middle" x="366.624" y="-125.3" font-family="Helvetica,sans-Serif" font-size="14.00" fill="#000000">QHostAddress</text>
</g>
<!-- Node9&#45;&gt;Node10 -->
<g id="edge11" class="edge">
<title>Node9&#45;&gt;Node10</title>
<path fill="none" stroke="#191970" d="M316.2857,-177.4026C325.1188,-168.9969 337.4395,-157.2723 347.6807,-147.5267"/>
<polygon fill="#191970" stroke="#191970" points="350.1832,-149.9768 355.0146,-140.5477 345.3576,-144.9059 350.1832,-149.9768"/>
</g>
<!-- Node11 -->
<g id="node12" class="node">
<title>Node11</title>
<polygon fill="none" stroke="#bfbfbf" points="274.9482,-59.5 274.9482,-81.5 342.2998,-81.5 342.2998,-59.5 274.9482,-59.5"/>
<text text-anchor="middle" x="308.624" y="-66.3" font-family="Helvetica,sans-Serif" font-size="14.00" fill="#000000">QObject</text>
</g>
<!-- Node9&#45;&gt;Node11 -->
<g id="edge12" class="edge">
<title>Node9&#45;&gt;Node11</title>
<path fill="none" stroke="#191970" d="M303.992,-177.0125C303.3322,-163.0511 302.5333,-138.7808 303.624,-118 304.0722,-109.4605 304.9707,-100.093 305.8839,-91.9503"/>
<polygon fill="#191970" stroke="#191970" points="309.3857,-92.1434 307.0975,-81.7986 302.4352,-91.3124 309.3857,-92.1434"/>
</g>
<!-- Node9&#45;&gt;Node12 -->
<g id="edge14" class="edge">
<title>Node9&#45;&gt;Node12</title>
<path fill="none" stroke="#191970" d="M372.7154,-179.2402C429.209,-171.1158 511.8077,-158.2203 592.1736,-141.1824"/>
<polygon fill="#191970" stroke="#191970" points="592.9172,-144.6026 601.9614,-139.0841 591.4499,-137.7581 592.9172,-144.6026"/>
</g>
<!-- Node9&#45;&gt;Node13 -->
<g id="edge17" class="edge">
<title>Node9&#45;&gt;Node13</title>
<path fill="none" stroke="#191970" d="M343.5591,-177.4026C377.3871,-167.7608 426.5359,-153.7522 462.9529,-143.3724"/>
<polygon fill="#191970" stroke="#191970" points="464.2059,-146.6548 472.8635,-140.5477 462.2871,-139.9229 464.2059,-146.6548"/>
</g>
<!-- Node13&#45;&gt;Node7 -->
<g id="edge23" class="edge">
<title>Node13&#45;&gt;Node7</title>
<path fill="none" stroke="#191970" d="M473.4979,-118.4256C448.615,-110.307 415.9804,-97.9333 389.624,-82 365.5767,-67.4627 341.7672,-45.6045 326.2515,-30.0856"/>
<polygon fill="#191970" stroke="#191970" points="328.4353,-27.3134 318.9366,-22.6204 323.4355,-32.2126 328.4353,-27.3134"/>
</g>
<!-- Node13&#45;&gt;Node11 -->
<g id="edge18" class="edge">
<title>Node13&#45;&gt;Node11</title>
<path fill="none" stroke="#191970" d="M473.4413,-118.4026C439.0073,-108.3946 388.3856,-93.6819 352.3415,-83.2061"/>
<polygon fill="#191970" stroke="#191970" points="353.1669,-79.8012 342.5874,-80.3711 351.2132,-86.523 353.1669,-79.8012"/>
</g>
<!-- Node14 -->
<g id="node15" class="node">
<title>Node14</title>
<g id="a_node15"><a xlink:href="../../d3/d8b/a00059.html" target="_top" xlink:title="infinitydouble.h">
<polygon fill="none" stroke="#000000" points="398.9243,-59.5 398.9243,-81.5 508.3237,-81.5 508.3237,-59.5 398.9243,-59.5"/>
<text text-anchor="middle" x="453.624" y="-66.3" font-family="Helvetica,sans-Serif" font-size="14.00" fill="#000000">infinitydouble.h</text>
</a>
</g>
</g>
<!-- Node13&#45;&gt;Node14 -->
<g id="edge19" class="edge">
<title>Node13&#45;&gt;Node14</title>
<path fill="none" stroke="#191970" d="M500.7147,-118.4026C492.5325,-110.0793 481.1513,-98.5019 471.6275,-88.8139"/>
<polygon fill="#191970" stroke="#191970" points="473.9908,-86.2253 464.4845,-81.5477 468.9989,-91.1326 473.9908,-86.2253"/>
</g>
<!-- Node15 -->
<g id="node16" class="node">
<title>Node15</title>
<polygon fill="none" stroke="#bfbfbf" points="525.9482,-59.5 525.9482,-81.5 593.2998,-81.5 593.2998,-59.5 525.9482,-59.5"/>
<text text-anchor="middle" x="559.624" y="-66.3" font-family="Helvetica,sans-Serif" font-size="14.00" fill="#000000">QPointF</text>
</g>
<!-- Node13&#45;&gt;Node15 -->
<g id="edge21" class="edge">
<title>Node13&#45;&gt;Node15</title>
<path fill="none" stroke="#191970" d="M520.6525,-118.4026C527.2898,-110.2441 536.4708,-98.9592 544.2546,-89.3916"/>
<polygon fill="#191970" stroke="#191970" points="547.0402,-91.5136 550.6361,-81.5477 541.6102,-87.096 547.0402,-91.5136"/>
</g>
<!-- Node16 -->
<g id="node17" class="node">
<title>Node16</title>
<polygon fill="none" stroke="#bfbfbf" points="611.4482,-59.5 611.4482,-81.5 699.7998,-81.5 699.7998,-59.5 611.4482,-59.5"/>
<text text-anchor="middle" x="655.624" y="-66.3" font-family="Helvetica,sans-Serif" font-size="14.00" fill="#000000">QByteArray</text>
</g>
<!-- Node13&#45;&gt;Node16 -->
<g id="edge22" class="edge">
<title>Node13&#45;&gt;Node16</title>
<path fill="none" stroke="#191970" d="M538.7093,-118.4026C561.4373,-109.0904 594.1069,-95.7049 619.1373,-85.4494"/>
<polygon fill="#191970" stroke="#191970" points="620.7337,-88.5778 628.6602,-81.5477 618.0798,-82.1004 620.7337,-88.5778"/>
</g>
<!-- Node17 -->
<g id="node18" class="node">
<title>Node17</title>
<polygon fill="none" stroke="#bfbfbf" points="717.8931,-59.5 717.8931,-81.5 781.355,-81.5 781.355,-59.5 717.8931,-59.5"/>
<text text-anchor="middle" x="749.624" y="-66.3" font-family="Helvetica,sans-Serif" font-size="14.00" fill="#000000">QString</text>
</g>
<!-- Node13&#45;&gt;Node17 -->
<g id="edge24" class="edge">
<title>Node13&#45;&gt;Node17</title>
<path fill="none" stroke="#191970" d="M559.5166,-118.4731C597.2995,-109.656 651.5652,-96.7333 708.0488,-82.0892"/>
<polygon fill="#191970" stroke="#191970" points="709.0763,-85.4384 717.8713,-79.5309 707.3119,-78.6644 709.0763,-85.4384"/>
</g>
<!-- Node18 -->
<g id="node19" class="node">
<title>Node18</title>
<polygon fill="none" stroke="#bfbfbf" points="798.8804,-59.5 798.8804,-81.5 856.3677,-81.5 856.3677,-59.5 798.8804,-59.5"/>
<text text-anchor="middle" x="827.624" y="-66.3" font-family="Helvetica,sans-Serif" font-size="14.00" fill="#000000">QTime</text>
</g>
<!-- Node13&#45;&gt;Node18 -->
<g id="edge25" class="edge">
<title>Node13&#45;&gt;Node18</title>
<path fill="none" stroke="#191970" d="M582.8032,-118.4849C647.4382,-108.2961 739.0486,-93.3459 788.7057,-82.2204"/>
<polygon fill="#191970" stroke="#191970" points="789.6945,-85.5839 798.6404,-79.9074 788.1072,-78.7662 789.6945,-85.5839"/>
</g>
<!-- Node19 -->
<g id="node20" class="node">
<title>Node19</title>
<polygon fill="none" stroke="#bfbfbf" points="874.3828,-59.5 874.3828,-81.5 958.8652,-81.5 958.8652,-59.5 874.3828,-59.5"/>
<text text-anchor="middle" x="916.624" y="-66.3" font-family="Helvetica,sans-Serif" font-size="14.00" fill="#000000">QVector3D</text>
</g>
<!-- Node13&#45;&gt;Node19 -->
<g id="edge26" class="edge">
<title>Node13&#45;&gt;Node19</title>
<path fill="none" stroke="#191970" d="M584.9377,-119.1895C587.8712,-118.7861 590.7753,-118.3883 593.624,-118 711.2642,-101.9661 743.8754,-103.346 864.3945,-82.1092"/>
<polygon fill="#191970" stroke="#191970" points="865.1499,-85.5299 874.3828,-80.3333 863.9245,-78.638 865.1499,-85.5299"/>
</g>
<!-- Node14&#45;&gt;Node7 -->
<g id="edge20" class="edge">
<title>Node14&#45;&gt;Node7</title>
<path fill="none" stroke="#191970" d="M426.3506,-59.4026C403.4649,-50.0904 370.5683,-36.7049 345.3641,-26.4494"/>
<polygon fill="#191970" stroke="#191970" points="346.3568,-23.0748 335.7751,-22.5477 343.7186,-29.5586 346.3568,-23.0748"/>
</g>
<!-- Node23 -->
<g id="node24" class="node">
<title>Node23</title>
<polygon fill="none" stroke="#bfbfbf" points="682.2344,-295.5 682.2344,-317.5 713.0137,-317.5 713.0137,-295.5 682.2344,-295.5"/>
<text text-anchor="middle" x="697.624" y="-302.3" font-family="Helvetica,sans-Serif" font-size="14.00" fill="#000000">Qt</text>
</g>
<!-- Node22&#45;&gt;Node23 -->
<g id="edge34" class="edge">
<title>Node22&#45;&gt;Node23</title>
<path fill="none" stroke="#191970" d="M679.7621,-354.4026C682.6198,-346.7386 686.5064,-336.3155 689.9244,-327.149"/>
<polygon fill="#191970" stroke="#191970" points="693.2901,-328.1404 693.5045,-317.5477 686.7312,-325.6946 693.2901,-328.1404"/>
</g>
</g>
</svg>
        <g id="navigator" transform="translate(0 0)" fill="#404254">
                <rect fill="#f2f5e9" fill-opacity="0.5" stroke="#606060" stroke-width=".5" x="0" y="0" width="60" height="60"/>
                <use id="zoomplus" xlink:href="#zoomPlus" x="17" y="9" onmousedown="handleZoom(evt,'in')"/>
                <use id="zoomminus" xlink:href="#zoomMin" x="42" y="9" onmousedown="handleZoom(evt,'out')"/>
                <use id="reset" xlink:href="#resetDef" x="30" y="36" onmousedown="handleReset()"/>
                <g id="arrowUp" xlink:href="#dirArrow" transform="translate(30 24)" onmousedown="handlePan(0,-1)">
                  <use xlink:href="#rim" fill="#404040">
                        <set attributeName="fill" to="#808080" begin="arrowUp.mouseover" end="arrowUp.mouseout"/>
                  </use>
                  <path fill="none" stroke="white" stroke-width="1.5" d="M0,-3.0v7 M-2.5,-0.5L0,-3.0L2.5,-0.5"/>
                </g>
                <g id="arrowRight" xlink:href="#dirArrow" transform="rotate(90) translate(36 -43)" onmousedown="handlePan(1,0)">
                  <use xlink:href="#rim" fill="#404040">
                        <set attributeName="fill" to="#808080" begin="arrowRight.mouseover" end="arrowRight.mouseout"/>
                  </use>
                  <path fill="none" stroke="white" stroke-width="1.5" d="M0,-3.0v7 M-2.5,-0.5L0,-3.0L2.5,-0.5"/>
                </g>
                <g id="arrowDown" xlink:href="#dirArrow" transform="rotate(180) translate(-30 -48)" onmousedown="handlePan(0,1)">
                  <use xlink:href="#rim" fill="#404040">
                        <set attributeName="fill" to="#808080" begin="arrowDown.mouseover" end="arrowDown.mouseout"/>
                  </use>
                  <path fill="none" stroke="white" stroke-width="1.5" d="M0,-3.0v7 M-2.5,-0.5L0,-3.0L2.5,-0.5"/>
                </g>
                <g id="arrowLeft" xlink:href="#dirArrow" transform="rotate(270) translate(-36 17)" onmousedown="handlePan(-1,0)">
                  <use xlink:href="#rim" fill="#404040">
                        <set attributeName="fill" to="#808080" begin="arrowLeft.mouseover" end="arrowLeft.mouseout"/>
                  </use>
                  <path fill="none" stroke="white" stroke-width="1.5" d="M0,-3.0v7 M-2.5,-0.5L0,-3.0L2.5,-0.5"/>
                </g>
        </g>
        <svg viewBox="0 0 15 15" width="100%" height="30px" preserveAspectRatio="xMaxYMin meet">
         <g id="arrow_out" transform="scale(0.3 0.3)">
          <a xlink:href="a00102_org.svg" target="_base">
           <rect id="button" ry="5" rx="5" y="6" x="6" height="38" width="38"
                fill="#f2f5e9" fill-opacity="0.5" stroke="#606060" stroke-width="1.0"/>
           <path id="arrow"
             d="M 11.500037,31.436501 C 11.940474,20.09759 22.043105,11.32322 32.158766,21.979434 L 37.068811,17.246167 C 37.068811,17.246167 37.088388,32 37.088388,32 L 22.160133,31.978069 C 22.160133,31.978069 26.997745,27.140456 26.997745,27.140456 C 18.528582,18.264221 13.291696,25.230495 11.500037,31.436501 z"
             style="fill:#404040;"/>
          </a>
         </g>
        </svg>
</svg>
