<?xml version="1.0" encoding="UTF-8" standalone="no"?>
<!DOCTYPE svg PUBLIC "-//W3C//DTD SVG 1.1//EN"
 "http://www.w3.org/Graphics/SVG/1.1/DTD/svg11.dtd">
<!-- Generated by graphviz version 2.40.1 (20161225.0304)
 -->
<!-- Title: ServerWorker::ReceiverThread Pages: 1 -->
<!--zoomable 637 -->
<svg id="main" version="1.1" xmlns="http://www.w3.org/2000/svg" xmlns:xlink="http://www.w3.org/1999/xlink" xml:space="preserve" onload="init(evt)">
<style type="text/css"><![CDATA[
.edge:hover path { stroke: red; }
.edge:hover polygon { stroke: red; fill: red; }
]]></style>
<script type="text/javascript"><![CDATA[
var edges = document.getElementsByTagName('g');
if (edges && edges.length) {
  for (var i=0;i<edges.length;i++) {
    if (edges[i].id.substr(0,4)=='edge') {
      edges[i].setAttribute('class','edge');
    }
  }
}
]]></script>
        <defs>
                <circle id="rim" cx="0" cy="0" r="7"/>
                <circle id="rim2" cx="0" cy="0" r="3.5"/>
                <g id="zoomPlus">
                        <use xlink:href="#rim" fill="#404040">
                                <set attributeName="fill" to="#808080" begin="zoomplus.mouseover" end="zoomplus.mouseout"/>
                        </use>
                        <path d="M-4,0h8M0,-4v8" fill="none" stroke="white" stroke-width="1.5" pointer-events="none"/>
                </g>
                <g id="zoomMin">
                        <use xlink:href="#rim" fill="#404040">
                                <set attributeName="fill" to="#808080" begin="zoomminus.mouseover" end="zoomminus.mouseout"/>
                        </use>
                        <path d="M-4,0h8" fill="none" stroke="white" stroke-width="1.5" pointer-events="none"/>
                </g>
                <g id="dirArrow">
                        <path fill="none" stroke="white" stroke-width="1.5" d="M0,-3.0v7 M-2.5,-0.5L0,-3.0L2.5,-0.5"/>
                </g>
               <g id="resetDef">
                       <use xlink:href="#rim2" fill="#404040">
                               <set attributeName="fill" to="#808080" begin="reset.mouseover" end="reset.mouseout"/>
                       </use>
               </g>
        </defs>

<script type="text/javascript">
var viewWidth = 306;
var viewHeight = 637;
var sectionId = 'dynsection-1';
</script>
<script xlink:href="../../svgpan.js"/>
<svg id="graph" class="graph">
<g id="viewport">
<title>ServerWorker::ReceiverThread</title>
<!-- Node2 -->
<g id="node1" class="node">
<title>Node2</title>
<polygon fill="#bfbfbf" stroke="#000000" points="0,-.5 0,-150.5 209.4775,-150.5 209.4775,-.5 0,-.5"/>
<text text-anchor="middle" x="104.7388" y="-135.3" font-family="Helvetica,sans-Serif" font-size="14.00" fill="#000000">ServerWorker::ReceiverThread</text>
<polyline fill="none" stroke="#000000" points="0,-128.5 209.4775,-128.5 "/>
<text text-anchor="start" x="8" y="-113.3" font-family="Helvetica,sans-Serif" font-size="14.00" fill="#000000"># socket</text>
<text text-anchor="start" x="8" y="-99.3" font-family="Helvetica,sans-Serif" font-size="14.00" fill="#000000"># in</text>
<text text-anchor="start" x="8" y="-85.3" font-family="Helvetica,sans-Serif" font-size="14.00" fill="#000000"># isWork</text>
<text text-anchor="start" x="8" y="-71.3" font-family="Helvetica,sans-Serif" font-size="14.00" fill="#000000"># receiverMutex</text>
<polyline fill="none" stroke="#000000" points="0,-64.5 209.4775,-64.5 "/>
<text text-anchor="start" x="8" y="-49.3" font-family="Helvetica,sans-Serif" font-size="14.00" fill="#000000">+ ReceiverThread()</text>
<text text-anchor="start" x="8" y="-35.3" font-family="Helvetica,sans-Serif" font-size="14.00" fill="#000000">+ ~ReceiverThread()</text>
<text text-anchor="start" x="8" y="-21.3" font-family="Helvetica,sans-Serif" font-size="14.00" fill="#000000">+ stop()</text>
<text text-anchor="start" x="8" y="-7.3" font-family="Helvetica,sans-Serif" font-size="14.00" fill="#000000"># run()</text>
</g>
<!-- Node3 -->
<g id="node2" class="node">
<title>Node3</title>
<polygon fill="none" stroke="#bfbfbf" points="53.1147,-396.5 53.1147,-462.5 124.3628,-462.5 124.3628,-396.5 53.1147,-396.5"/>
<text text-anchor="middle" x="88.7388" y="-447.3" font-family="Helvetica,sans-Serif" font-size="14.00" fill="#000000">QThread</text>
<polyline fill="none" stroke="#bfbfbf" points="53.1147,-440.5 124.3628,-440.5 "/>
<text text-anchor="middle" x="88.7388" y="-425.3" font-family="Helvetica,sans-Serif" font-size="14.00" fill="#000000"> </text>
<polyline fill="none" stroke="#bfbfbf" points="53.1147,-418.5 124.3628,-418.5 "/>
<text text-anchor="middle" x="88.7388" y="-403.3" font-family="Helvetica,sans-Serif" font-size="14.00" fill="#000000"> </text>
</g>
<!-- Node3&#45;&gt;Node2 -->
<g id="edge1" class="edge">
<title>Node3&#45;&gt;Node2</title>
<path fill="none" stroke="#191970" d="M90.6974,-386.1651C93.3459,-327.5667 98.1096,-222.1696 101.3465,-150.5548"/>
<polygon fill="none" stroke="#191970" points="87.1992,-386.0487 90.244,-396.1965 94.1921,-386.3648 87.1992,-386.0487"/>
</g>
<!-- Node4 -->
<g id="node3" class="node">
<title>Node4</title>
<g id="a_node3"><a xlink:href="../../da/d78/classServerWorker.html" target="_top" xlink:title="{ServerWorker\n|# socket\l# isWork\l# out\l# workerMutex\l# responceMessage\l|+ ServerWorker()\l+ receiveResponce()\l# run()\l}">
<polygon fill="none" stroke="#000000" points="116.958,-201.5 116.958,-351.5 262.5195,-351.5 262.5195,-201.5 116.958,-201.5"/>
<text text-anchor="middle" x="189.7388" y="-336.3" font-family="Helvetica,sans-Serif" font-size="14.00" fill="#000000">ServerWorker</text>
<polyline fill="none" stroke="#000000" points="116.958,-329.5 262.5195,-329.5 "/>
<text text-anchor="start" x="124.958" y="-314.3" font-family="Helvetica,sans-Serif" font-size="14.00" fill="#000000"># socket</text>
<text text-anchor="start" x="124.958" y="-300.3" font-family="Helvetica,sans-Serif" font-size="14.00" fill="#000000"># isWork</text>
<text text-anchor="start" x="124.958" y="-286.3" font-family="Helvetica,sans-Serif" font-size="14.00" fill="#000000"># out</text>
<text text-anchor="start" x="124.958" y="-272.3" font-family="Helvetica,sans-Serif" font-size="14.00" fill="#000000"># workerMutex</text>
<text text-anchor="start" x="124.958" y="-258.3" font-family="Helvetica,sans-Serif" font-size="14.00" fill="#000000"># responceMessage</text>
<polyline fill="none" stroke="#000000" points="116.958,-251.5 262.5195,-251.5 "/>
<text text-anchor="start" x="124.958" y="-236.3" font-family="Helvetica,sans-Serif" font-size="14.00" fill="#000000">+ ServerWorker()</text>
<text text-anchor="start" x="124.958" y="-222.3" font-family="Helvetica,sans-Serif" font-size="14.00" fill="#000000">+ receiveResponce()</text>
<text text-anchor="start" x="124.958" y="-208.3" font-family="Helvetica,sans-Serif" font-size="14.00" fill="#000000"># run()</text>
</a>
</g>
</g>
<!-- Node3&#45;&gt;Node4 -->
<g id="edge3" class="edge">
<title>Node3&#45;&gt;Node4</title>
<path fill="none" stroke="#191970" d="M116.3705,-387.642C123.7386,-376.4805 131.93,-364.0717 140.0918,-351.7079"/>
<polygon fill="none" stroke="#191970" points="113.2425,-386.0274 110.6543,-396.3013 119.0845,-389.8839 113.2425,-386.0274"/>
</g>
<!-- Node4&#45;&gt;Node2 -->
<g id="edge2" class="edge">
<title>Node4&#45;&gt;Node2</title>
<path fill="none" stroke="#404040" d="M157.967,-201.3692C152.5329,-188.519 146.8483,-175.0767 141.3014,-161.9599"/>
<polygon fill="none" stroke="#404040" points="141.146,-161.5922 135.1249,-157.624 136.472,-150.5398 142.4931,-154.508 141.146,-161.5922"/>
<text text-anchor="middle" x="197.604" y="-171.8" font-family="Helvetica,sans-Serif" font-size="14.00" fill="#000000"> #parentThread</text>
</g>
<!-- Node5 -->
<g id="node4" class="node">
<title>Node5</title>
<g id="a_node4"><a xlink:href="../../de/d1e/classMailSender.html" target="_top" xlink:title="{MailSender\n||+ receiveResponce()\l+ setDefaultReceiver()\l}">
<polygon fill="none" stroke="#000000" points="141.9063,-389.5 141.9063,-469.5 297.5713,-469.5 297.5713,-389.5 141.9063,-389.5"/>
<text text-anchor="middle" x="219.7388" y="-454.3" font-family="Helvetica,sans-Serif" font-size="14.00" fill="#000000">MailSender</text>
<polyline fill="none" stroke="#000000" points="141.9063,-447.5 297.5713,-447.5 "/>
<text text-anchor="middle" x="219.7388" y="-432.3" font-family="Helvetica,sans-Serif" font-size="14.00" fill="#000000"> </text>
<polyline fill="none" stroke="#000000" points="141.9063,-425.5 297.5713,-425.5 "/>
<text text-anchor="start" x="149.9063" y="-410.3" font-family="Helvetica,sans-Serif" font-size="14.00" fill="#000000">+ receiveResponce()</text>
<text text-anchor="start" x="149.9063" y="-396.3" font-family="Helvetica,sans-Serif" font-size="14.00" fill="#000000">+ setDefaultReceiver()</text>
</a>
</g>
</g>
<!-- Node5&#45;&gt;Node4 -->
<g id="edge4" class="edge">
<title>Node5&#45;&gt;Node4</title>
<path fill="none" stroke="#191970" d="M209.8769,-379.2043C208.1441,-370.3674 206.3074,-360.9998 204.4758,-351.6588"/>
<polygon fill="none" stroke="#191970" points="206.4978,-380.1614 211.8566,-389.3011 213.367,-378.8144 206.4978,-380.1614"/>
</g>
<!-- Node6 -->
<g id="node5" class="node">
<title>Node6</title>
<g id="a_node5"><a xlink:href="../../d7/d58/classMailReceiver.html" target="_top" xlink:title="{MailReceiver\n|# messages\l# mutex\l# isQueueLock\l|+ sendMail()\l# nextMessage()\l}">
<polygon fill="none" stroke="#000000" points="159.6045,-520.5 159.6045,-628.5 279.873,-628.5 279.873,-520.5 159.6045,-520.5"/>
<text text-anchor="middle" x="219.7388" y="-613.3" font-family="Helvetica,sans-Serif" font-size="14.00" fill="#000000">MailReceiver</text>
<polyline fill="none" stroke="#000000" points="159.6045,-606.5 279.873,-606.5 "/>
<text text-anchor="start" x="167.6045" y="-591.3" font-family="Helvetica,sans-Serif" font-size="14.00" fill="#000000"># messages</text>
<text text-anchor="start" x="167.6045" y="-577.3" font-family="Helvetica,sans-Serif" font-size="14.00" fill="#000000"># mutex</text>
<text text-anchor="start" x="167.6045" y="-563.3" font-family="Helvetica,sans-Serif" font-size="14.00" fill="#000000"># isQueueLock</text>
<polyline fill="none" stroke="#000000" points="159.6045,-556.5 279.873,-556.5 "/>
<text text-anchor="start" x="167.6045" y="-541.3" font-family="Helvetica,sans-Serif" font-size="14.00" fill="#000000">+ sendMail()</text>
<text text-anchor="start" x="167.6045" y="-527.3" font-family="Helvetica,sans-Serif" font-size="14.00" fill="#000000"># nextMessage()</text>
</a>
</g>
</g>
<!-- Node6&#45;&gt;Node5 -->
<g id="edge5" class="edge">
<title>Node6&#45;&gt;Node5</title>
<path fill="none" stroke="#404040" d="M219.7388,-520.0948C219.7388,-507.5586 219.7388,-494.2514 219.7388,-481.8067"/>
<polygon fill="none" stroke="#404040" points="219.7389,-481.7101 215.7388,-475.7101 219.7388,-469.7101 223.7388,-475.71 219.7389,-481.7101"/>
<text text-anchor="middle" x="250.4731" y="-490.8" font-family="Helvetica,sans-Serif" font-size="14.00" fill="#000000"> #receiver</text>
</g>
</g>
</svg>
        <g id="navigator" transform="translate(0 0)" fill="#404254">
                <rect fill="#f2f5e9" fill-opacity="0.5" stroke="#606060" stroke-width=".5" x="0" y="0" width="60" height="60"/>
                <use id="zoomplus" xlink:href="#zoomPlus" x="17" y="9" onmousedown="handleZoom(evt,'in')"/>
                <use id="zoomminus" xlink:href="#zoomMin" x="42" y="9" onmousedown="handleZoom(evt,'out')"/>
                <use id="reset" xlink:href="#resetDef" x="30" y="36" onmousedown="handleReset()"/>
                <g id="arrowUp" xlink:href="#dirArrow" transform="translate(30 24)" onmousedown="handlePan(0,-1)">
                  <use xlink:href="#rim" fill="#404040">
                        <set attributeName="fill" to="#808080" begin="arrowUp.mouseover" end="arrowUp.mouseout"/>
                  </use>
                  <path fill="none" stroke="white" stroke-width="1.5" d="M0,-3.0v7 M-2.5,-0.5L0,-3.0L2.5,-0.5"/>
                </g>
                <g id="arrowRight" xlink:href="#dirArrow" transform="rotate(90) translate(36 -43)" onmousedown="handlePan(1,0)">
                  <use xlink:href="#rim" fill="#404040">
                        <set attributeName="fill" to="#808080" begin="arrowRight.mouseover" end="arrowRight.mouseout"/>
                  </use>
                  <path fill="none" stroke="white" stroke-width="1.5" d="M0,-3.0v7 M-2.5,-0.5L0,-3.0L2.5,-0.5"/>
                </g>
                <g id="arrowDown" xlink:href="#dirArrow" transform="rotate(180) translate(-30 -48)" onmousedown="handlePan(0,1)">
                  <use xlink:href="#rim" fill="#404040">
                        <set attributeName="fill" to="#808080" begin="arrowDown.mouseover" end="arrowDown.mouseout"/>
                  </use>
                  <path fill="none" stroke="white" stroke-width="1.5" d="M0,-3.0v7 M-2.5,-0.5L0,-3.0L2.5,-0.5"/>
                </g>
                <g id="arrowLeft" xlink:href="#dirArrow" transform="rotate(270) translate(-36 17)" onmousedown="handlePan(-1,0)">
                  <use xlink:href="#rim" fill="#404040">
                        <set attributeName="fill" to="#808080" begin="arrowLeft.mouseover" end="arrowLeft.mouseout"/>
                  </use>
                  <path fill="none" stroke="white" stroke-width="1.5" d="M0,-3.0v7 M-2.5,-0.5L0,-3.0L2.5,-0.5"/>
                </g>
        </g>
        <svg viewBox="0 0 15 15" width="100%" height="30px" preserveAspectRatio="xMaxYMin meet">
         <g id="arrow_out" transform="scale(0.3 0.3)">
          <a xlink:href="classServerWorker_1_1ReceiverThread__coll__graph_org.svg" target="_base">
           <rect id="button" ry="5" rx="5" y="6" x="6" height="38" width="38"
                fill="#f2f5e9" fill-opacity="0.5" stroke="#606060" stroke-width="1.0"/>
           <path id="arrow"
             d="M 11.500037,31.436501 C 11.940474,20.09759 22.043105,11.32322 32.158766,21.979434 L 37.068811,17.246167 C 37.068811,17.246167 37.088388,32 37.088388,32 L 22.160133,31.978069 C 22.160133,31.978069 26.997745,27.140456 26.997745,27.140456 C 18.528582,18.264221 13.291696,25.230495 11.500037,31.436501 z"
             style="fill:#404040;"/>
          </a>
         </g>
        </svg>
</svg>
