<?xml version="1.0" encoding="UTF-8" standalone="no"?>
<!DOCTYPE svg PUBLIC "-//W3C//DTD SVG 1.1//EN"
 "http://www.w3.org/Graphics/SVG/1.1/DTD/svg11.dtd">
<!-- Generated by graphviz version 2.40.1 (20161225.0304)
 -->
<!-- Title: std::unordered_set&lt; K &gt; Pages: 1 -->
<svg width="174pt" height="192pt"
 viewBox="0.00 0.00 174.21 192.00" xmlns="http://www.w3.org/2000/svg" xmlns:xlink="http://www.w3.org/1999/xlink">
<g id="graph0" class="graph" transform="scale(1 1) rotate(0) translate(4 188)">
<title>std::unordered_set&lt; K &gt;</title>
<!-- Node872 -->
<g id="node1" class="node">
<title>Node872</title>
<polygon fill="#bfbfbf" stroke="#000000" points="0,-.5 0,-66.5 166.2129,-66.5 166.2129,-.5 0,-.5"/>
<text text-anchor="middle" x="83.1064" y="-51.3" font-family="Helvetica,sans-Serif" font-size="14.00" fill="#000000">std::unordered_set&lt; K &gt;</text>
<polyline fill="none" stroke="#000000" points="0,-44.5 166.2129,-44.5 "/>
<text text-anchor="middle" x="83.1064" y="-29.3" font-family="Helvetica,sans-Serif" font-size="14.00" fill="#000000"> </text>
<polyline fill="none" stroke="#000000" points="0,-22.5 166.2129,-22.5 "/>
<text text-anchor="middle" x="83.1064" y="-7.3" font-family="Helvetica,sans-Serif" font-size="14.00" fill="#000000"> </text>
</g>
<!-- Node873 -->
<g id="node2" class="node">
<title>Node873</title>
<polygon fill="none" stroke="#bfbfbf" points="68.6064,-117.5 68.6064,-183.5 97.6064,-183.5 97.6064,-117.5 68.6064,-117.5"/>
<text text-anchor="middle" x="82.7754" y="-168.3" font-family="Helvetica,sans-Serif" font-size="14.00" fill="#000000">K</text>
<polyline fill="none" stroke="#bfbfbf" points="68.6064,-161.5 96.9443,-161.5 "/>
<text text-anchor="middle" x="82.7754" y="-146.3" font-family="Helvetica,sans-Serif" font-size="14.00" fill="#000000"> </text>
<polyline fill="none" stroke="#bfbfbf" points="68.6064,-139.5 96.9443,-139.5 "/>
<text text-anchor="middle" x="82.7754" y="-124.3" font-family="Helvetica,sans-Serif" font-size="14.00" fill="#000000"> </text>
</g>
<!-- Node873&#45;&gt;Node872 -->
<g id="edge1" class="edge">
<title>Node873&#45;&gt;Node872</title>
<path fill="none" stroke="#404040" d="M83.1064,-117.2855C83.1064,-105.4288 83.1064,-91.8562 83.1064,-79.1371"/>
<polygon fill="none" stroke="#404040" points="83.1065,-78.7976 79.1065,-72.7976 83.1064,-66.7976 87.1065,-72.7976 83.1065,-78.7976"/>
<text text-anchor="middle" x="103.5322" y="-87.8" font-family="Helvetica,sans-Serif" font-size="14.00" fill="#000000"> +keys</text>
</g>
</g>
</svg>
