<?xml version="1.0" encoding="UTF-8" standalone="no"?>
<!DOCTYPE svg PUBLIC "-//W3C//DTD SVG 1.1//EN"
 "http://www.w3.org/Graphics/SVG/1.1/DTD/svg11.dtd">
<!-- Generated by graphviz version 2.40.1 (20161225.0304)
 -->
<!-- Title: Core/infinitydouble.cpp Pages: 1 -->
<svg width="166pt" height="149pt"
 viewBox="0.00 0.00 166.42 149.00" xmlns="http://www.w3.org/2000/svg" xmlns:xlink="http://www.w3.org/1999/xlink">
<g id="graph0" class="graph" transform="scale(1 1) rotate(0) translate(4 145)">
<title>Core/infinitydouble.cpp</title>
<!-- Node0 -->
<g id="node1" class="node">
<title>Node0</title>
<polygon fill="#bfbfbf" stroke="#000000" points="0,-118.5 0,-140.5 158.4199,-140.5 158.4199,-118.5 0,-118.5"/>
<text text-anchor="middle" x="79.21" y="-125.3" font-family="Helvetica,sans-Serif" font-size="14.00" fill="#000000">Core/infinitydouble.cpp</text>
</g>
<!-- Node1 -->
<g id="node2" class="node">
<title>Node1</title>
<g id="a_node2"><a xlink:href="../../d3/d8b/a00059.html" target="_top" xlink:title="infinitydouble.h">
<polygon fill="none" stroke="#000000" points="24.5103,-59.5 24.5103,-81.5 133.9097,-81.5 133.9097,-59.5 24.5103,-59.5"/>
<text text-anchor="middle" x="79.21" y="-66.3" font-family="Helvetica,sans-Serif" font-size="14.00" fill="#000000">infinitydouble.h</text>
</a>
</g>
</g>
<!-- Node0&#45;&gt;Node1 -->
<g id="edge1" class="edge">
<title>Node0&#45;&gt;Node1</title>
<path fill="none" stroke="#191970" d="M79.21,-118.4026C79.21,-110.9034 79.21,-100.7626 79.21,-91.7421"/>
<polygon fill="#191970" stroke="#191970" points="82.7101,-91.5477 79.21,-81.5477 75.7101,-91.5477 82.7101,-91.5477"/>
</g>
<!-- Node2 -->
<g id="node3" class="node">
<title>Node2</title>
<polygon fill="none" stroke="#bfbfbf" points="28.417,-.5 28.417,-22.5 130.0029,-22.5 130.0029,-.5 28.417,-.5"/>
<text text-anchor="middle" x="79.21" y="-7.3" font-family="Helvetica,sans-Serif" font-size="14.00" fill="#000000">QDataStream</text>
</g>
<!-- Node1&#45;&gt;Node2 -->
<g id="edge2" class="edge">
<title>Node1&#45;&gt;Node2</title>
<path fill="none" stroke="#191970" d="M79.21,-59.4026C79.21,-51.9034 79.21,-41.7626 79.21,-32.7421"/>
<polygon fill="#191970" stroke="#191970" points="82.7101,-32.5477 79.21,-22.5477 75.7101,-32.5477 82.7101,-32.5477"/>
</g>
</g>
</svg>
