<?xml version="1.0" encoding="UTF-8" standalone="no"?>
<!DOCTYPE svg PUBLIC "-//W3C//DTD SVG 1.1//EN"
 "http://www.w3.org/Graphics/SVG/1.1/DTD/svg11.dtd">
<!-- Generated by graphviz version 2.40.1 (20161225.0304)
 -->
<!-- Title: std::wistringstream Pages: 1 -->
<svg width="171pt" height="515pt"
 viewBox="0.00 0.00 171.05 515.00" xmlns="http://www.w3.org/2000/svg" xmlns:xlink="http://www.w3.org/1999/xlink">
<g id="graph0" class="graph" transform="scale(1 1) rotate(0) translate(4 511)">
<title>std::wistringstream</title>
<!-- Node926 -->
<g id="node1" class="node">
<title>Node926</title>
<polygon fill="#bfbfbf" stroke="#000000" points="15.1792,-.5 15.1792,-66.5 147.8755,-66.5 147.8755,-.5 15.1792,-.5"/>
<text text-anchor="middle" x="81.5273" y="-51.3" font-family="Helvetica,sans-Serif" font-size="14.00" fill="#000000">std::wistringstream</text>
<polyline fill="none" stroke="#000000" points="15.1792,-44.5 147.8755,-44.5 "/>
<text text-anchor="middle" x="81.5273" y="-29.3" font-family="Helvetica,sans-Serif" font-size="14.00" fill="#000000"> </text>
<polyline fill="none" stroke="#000000" points="15.1792,-22.5 147.8755,-22.5 "/>
<text text-anchor="middle" x="81.5273" y="-7.3" font-family="Helvetica,sans-Serif" font-size="14.00" fill="#000000"> </text>
</g>
<!-- Node927 -->
<g id="node2" class="node">
<title>Node927</title>
<g id="a_node2"><a xlink:title="STL class. ">
<polygon fill="none" stroke="#bfbfbf" points="0,-103.5 0,-183.5 163.0547,-183.5 163.0547,-103.5 0,-103.5"/>
<text text-anchor="start" x="8" y="-168.3" font-family="Helvetica,sans-Serif" font-size="14.00" fill="#000000">std::basic_istringstream</text>
<text text-anchor="middle" x="81.5273" y="-154.3" font-family="Helvetica,sans-Serif" font-size="14.00" fill="#000000">&lt; wchar_t &gt;</text>
<polyline fill="none" stroke="#bfbfbf" points="0,-147.5 163.0547,-147.5 "/>
<text text-anchor="middle" x="81.5273" y="-132.3" font-family="Helvetica,sans-Serif" font-size="14.00" fill="#000000"> </text>
<polyline fill="none" stroke="#bfbfbf" points="0,-125.5 163.0547,-125.5 "/>
<text text-anchor="middle" x="81.5273" y="-110.3" font-family="Helvetica,sans-Serif" font-size="14.00" fill="#000000"> </text>
</a>
</g>
</g>
<!-- Node927&#45;&gt;Node926 -->
<g id="edge1" class="edge">
<title>Node927&#45;&gt;Node926</title>
<path fill="none" stroke="#191970" d="M81.5273,-93.4195C81.5273,-84.3987 81.5273,-75.2 81.5273,-66.8045"/>
<polygon fill="none" stroke="#191970" points="78.0274,-93.4763 81.5273,-103.4763 85.0274,-93.4763 78.0274,-93.4763"/>
</g>
<!-- Node928 -->
<g id="node3" class="node">
<title>Node928</title>
<g id="a_node3"><a xlink:title="STL class. ">
<polygon fill="none" stroke="#bfbfbf" points="17.1172,-220.5 17.1172,-300.5 145.9375,-300.5 145.9375,-220.5 17.1172,-220.5"/>
<text text-anchor="start" x="25.1172" y="-285.3" font-family="Helvetica,sans-Serif" font-size="14.00" fill="#000000">std::basic_istream</text>
<text text-anchor="middle" x="81.5273" y="-271.3" font-family="Helvetica,sans-Serif" font-size="14.00" fill="#000000">&lt; Char &gt;</text>
<polyline fill="none" stroke="#bfbfbf" points="17.1172,-264.5 145.9375,-264.5 "/>
<text text-anchor="middle" x="81.5273" y="-249.3" font-family="Helvetica,sans-Serif" font-size="14.00" fill="#000000"> </text>
<polyline fill="none" stroke="#bfbfbf" points="17.1172,-242.5 145.9375,-242.5 "/>
<text text-anchor="middle" x="81.5273" y="-227.3" font-family="Helvetica,sans-Serif" font-size="14.00" fill="#000000"> </text>
</a>
</g>
</g>
<!-- Node928&#45;&gt;Node927 -->
<g id="edge2" class="edge">
<title>Node928&#45;&gt;Node927</title>
<path fill="none" stroke="#191970" d="M81.5273,-210.0967C81.5273,-201.3218 81.5273,-192.2991 81.5273,-183.839"/>
<polygon fill="none" stroke="#191970" points="78.0274,-210.2352 81.5273,-220.2352 85.0274,-210.2353 78.0274,-210.2352"/>
</g>
<!-- Node929 -->
<g id="node4" class="node">
<title>Node929</title>
<g id="a_node4"><a xlink:title="STL class. ">
<polygon fill="none" stroke="#bfbfbf" points="3.8794,-337.5 3.8794,-403.5 159.1753,-403.5 159.1753,-337.5 3.8794,-337.5"/>
<text text-anchor="middle" x="81.5273" y="-388.3" font-family="Helvetica,sans-Serif" font-size="14.00" fill="#000000">std::basic_ios&lt; Char &gt;</text>
<polyline fill="none" stroke="#bfbfbf" points="3.8794,-381.5 159.1753,-381.5 "/>
<text text-anchor="middle" x="81.5273" y="-366.3" font-family="Helvetica,sans-Serif" font-size="14.00" fill="#000000"> </text>
<polyline fill="none" stroke="#bfbfbf" points="3.8794,-359.5 159.1753,-359.5 "/>
<text text-anchor="middle" x="81.5273" y="-344.3" font-family="Helvetica,sans-Serif" font-size="14.00" fill="#000000"> </text>
</a>
</g>
</g>
<!-- Node929&#45;&gt;Node928 -->
<g id="edge3" class="edge">
<title>Node929&#45;&gt;Node928</title>
<path fill="none" stroke="#191970" d="M81.5273,-327.4695C81.5273,-318.7133 81.5273,-309.5317 81.5273,-300.8719"/>
<polygon fill="none" stroke="#191970" points="78.0274,-327.4963 81.5273,-337.4964 85.0274,-327.4964 78.0274,-327.4963"/>
</g>
<!-- Node930 -->
<g id="node5" class="node">
<title>Node930</title>
<g id="a_node5"><a xlink:title="STL class. ">
<polygon fill="none" stroke="#bfbfbf" points="32.2793,-440.5 32.2793,-506.5 130.7754,-506.5 130.7754,-440.5 32.2793,-440.5"/>
<text text-anchor="middle" x="81.5273" y="-491.3" font-family="Helvetica,sans-Serif" font-size="14.00" fill="#000000">std::ios_base</text>
<polyline fill="none" stroke="#bfbfbf" points="32.2793,-484.5 130.7754,-484.5 "/>
<text text-anchor="middle" x="81.5273" y="-469.3" font-family="Helvetica,sans-Serif" font-size="14.00" fill="#000000"> </text>
<polyline fill="none" stroke="#bfbfbf" points="32.2793,-462.5 130.7754,-462.5 "/>
<text text-anchor="middle" x="81.5273" y="-447.3" font-family="Helvetica,sans-Serif" font-size="14.00" fill="#000000"> </text>
</a>
</g>
</g>
<!-- Node930&#45;&gt;Node929 -->
<g id="edge4" class="edge">
<title>Node930&#45;&gt;Node929</title>
<path fill="none" stroke="#191970" d="M81.5273,-430.1362C81.5273,-421.256 81.5273,-412.0447 81.5273,-403.5947"/>
<polygon fill="none" stroke="#191970" points="78.0274,-430.3432 81.5273,-440.3432 85.0274,-430.3432 78.0274,-430.3432"/>
</g>
</g>
</svg>
