<?xml version="1.0" encoding="UTF-8" standalone="no"?>
<!DOCTYPE svg PUBLIC "-//W3C//DTD SVG 1.1//EN"
 "http://www.w3.org/Graphics/SVG/1.1/DTD/svg11.dtd">
<!-- Generated by graphviz version 2.40.1 (20161225.0304)
 -->
<!-- Title: std::runtime_error Pages: 1 -->
<svg width="134pt" height="178pt"
 viewBox="0.00 0.00 134.48 178.00" xmlns="http://www.w3.org/2000/svg" xmlns:xlink="http://www.w3.org/1999/xlink">
<g id="graph0" class="graph" transform="scale(1 1) rotate(0) translate(4 174)">
<title>std::runtime_error</title>
<!-- Node800 -->
<g id="node1" class="node">
<title>Node800</title>
<polygon fill="#bfbfbf" stroke="#000000" points="0,-.5 0,-66.5 126.4824,-66.5 126.4824,-.5 0,-.5"/>
<text text-anchor="middle" x="63.2412" y="-51.3" font-family="Helvetica,sans-Serif" font-size="14.00" fill="#000000">std::runtime_error</text>
<polyline fill="none" stroke="#000000" points="0,-44.5 126.4824,-44.5 "/>
<text text-anchor="middle" x="63.2412" y="-29.3" font-family="Helvetica,sans-Serif" font-size="14.00" fill="#000000"> </text>
<polyline fill="none" stroke="#000000" points="0,-22.5 126.4824,-22.5 "/>
<text text-anchor="middle" x="63.2412" y="-7.3" font-family="Helvetica,sans-Serif" font-size="14.00" fill="#000000"> </text>
</g>
<!-- Node801 -->
<g id="node2" class="node">
<title>Node801</title>
<g id="a_node2"><a xlink:title="STL class. ">
<polygon fill="none" stroke="#bfbfbf" points="12.0483,-103.5 12.0483,-169.5 114.4341,-169.5 114.4341,-103.5 12.0483,-103.5"/>
<text text-anchor="middle" x="63.2412" y="-154.3" font-family="Helvetica,sans-Serif" font-size="14.00" fill="#000000">std::exception</text>
<polyline fill="none" stroke="#bfbfbf" points="12.0483,-147.5 114.4341,-147.5 "/>
<text text-anchor="middle" x="63.2412" y="-132.3" font-family="Helvetica,sans-Serif" font-size="14.00" fill="#000000"> </text>
<polyline fill="none" stroke="#bfbfbf" points="12.0483,-125.5 114.4341,-125.5 "/>
<text text-anchor="middle" x="63.2412" y="-110.3" font-family="Helvetica,sans-Serif" font-size="14.00" fill="#000000"> </text>
</a>
</g>
</g>
<!-- Node801&#45;&gt;Node800 -->
<g id="edge1" class="edge">
<title>Node801&#45;&gt;Node800</title>
<path fill="none" stroke="#191970" d="M63.2412,-93.1362C63.2412,-84.256 63.2412,-75.0447 63.2412,-66.5947"/>
<polygon fill="none" stroke="#191970" points="59.7413,-93.3432 63.2412,-103.3432 66.7413,-93.3432 59.7413,-93.3432"/>
</g>
</g>
</svg>
