<?xml version="1.0" encoding="UTF-8" standalone="no"?>
<!DOCTYPE svg PUBLIC "-//W3C//DTD SVG 1.1//EN"
 "http://www.w3.org/Graphics/SVG/1.1/DTD/svg11.dtd">
<!-- Generated by graphviz version 2.40.1 (20161225.0304)
 -->
<!-- Title: std::underflow_error Pages: 1 -->
<svg width="149pt" height="281pt"
 viewBox="0.00 0.00 148.50 281.00" xmlns="http://www.w3.org/2000/svg" xmlns:xlink="http://www.w3.org/1999/xlink">
<g id="graph0" class="graph" transform="scale(1 1) rotate(0) translate(4 277)">
<title>std::underflow_error</title>
<!-- Node851 -->
<g id="node1" class="node">
<title>Node851</title>
<polygon fill="#bfbfbf" stroke="#000000" points="0,-.5 0,-66.5 140.5029,-66.5 140.5029,-.5 0,-.5"/>
<text text-anchor="middle" x="70.2515" y="-51.3" font-family="Helvetica,sans-Serif" font-size="14.00" fill="#000000">std::underflow_error</text>
<polyline fill="none" stroke="#000000" points="0,-44.5 140.5029,-44.5 "/>
<text text-anchor="middle" x="70.2515" y="-29.3" font-family="Helvetica,sans-Serif" font-size="14.00" fill="#000000"> </text>
<polyline fill="none" stroke="#000000" points="0,-22.5 140.5029,-22.5 "/>
<text text-anchor="middle" x="70.2515" y="-7.3" font-family="Helvetica,sans-Serif" font-size="14.00" fill="#000000"> </text>
</g>
<!-- Node852 -->
<g id="node2" class="node">
<title>Node852</title>
<g id="a_node2"><a xlink:title="STL class. ">
<polygon fill="none" stroke="#bfbfbf" points="7.0103,-103.5 7.0103,-169.5 133.4927,-169.5 133.4927,-103.5 7.0103,-103.5"/>
<text text-anchor="middle" x="70.2515" y="-154.3" font-family="Helvetica,sans-Serif" font-size="14.00" fill="#000000">std::runtime_error</text>
<polyline fill="none" stroke="#bfbfbf" points="7.0103,-147.5 133.4927,-147.5 "/>
<text text-anchor="middle" x="70.2515" y="-132.3" font-family="Helvetica,sans-Serif" font-size="14.00" fill="#000000"> </text>
<polyline fill="none" stroke="#bfbfbf" points="7.0103,-125.5 133.4927,-125.5 "/>
<text text-anchor="middle" x="70.2515" y="-110.3" font-family="Helvetica,sans-Serif" font-size="14.00" fill="#000000"> </text>
</a>
</g>
</g>
<!-- Node852&#45;&gt;Node851 -->
<g id="edge1" class="edge">
<title>Node852&#45;&gt;Node851</title>
<path fill="none" stroke="#191970" d="M70.2515,-93.1362C70.2515,-84.256 70.2515,-75.0447 70.2515,-66.5947"/>
<polygon fill="none" stroke="#191970" points="66.7516,-93.3432 70.2515,-103.3432 73.7516,-93.3432 66.7516,-93.3432"/>
</g>
<!-- Node853 -->
<g id="node3" class="node">
<title>Node853</title>
<g id="a_node3"><a xlink:title="STL class. ">
<polygon fill="none" stroke="#bfbfbf" points="19.0586,-206.5 19.0586,-272.5 121.4443,-272.5 121.4443,-206.5 19.0586,-206.5"/>
<text text-anchor="middle" x="70.2515" y="-257.3" font-family="Helvetica,sans-Serif" font-size="14.00" fill="#000000">std::exception</text>
<polyline fill="none" stroke="#bfbfbf" points="19.0586,-250.5 121.4443,-250.5 "/>
<text text-anchor="middle" x="70.2515" y="-235.3" font-family="Helvetica,sans-Serif" font-size="14.00" fill="#000000"> </text>
<polyline fill="none" stroke="#bfbfbf" points="19.0586,-228.5 121.4443,-228.5 "/>
<text text-anchor="middle" x="70.2515" y="-213.3" font-family="Helvetica,sans-Serif" font-size="14.00" fill="#000000"> </text>
</a>
</g>
</g>
<!-- Node853&#45;&gt;Node852 -->
<g id="edge2" class="edge">
<title>Node853&#45;&gt;Node852</title>
<path fill="none" stroke="#191970" d="M70.2515,-196.1362C70.2515,-187.256 70.2515,-178.0447 70.2515,-169.5947"/>
<polygon fill="none" stroke="#191970" points="66.7516,-196.3432 70.2515,-206.3432 73.7516,-196.3432 66.7516,-196.3432"/>
</g>
</g>
</svg>
