<?xml version="1.0" encoding="UTF-8" standalone="no"?>
<!DOCTYPE svg PUBLIC "-//W3C//DTD SVG 1.1//EN"
 "http://www.w3.org/Graphics/SVG/1.1/DTD/svg11.dtd">
<!-- Generated by graphviz version 2.40.1 (20161225.0304)
 -->
<!-- Title: Core/maps/listbsemap.h Pages: 1 -->
<svg width="435pt" height="149pt"
 viewBox="0.00 0.00 435.07 149.00" xmlns="http://www.w3.org/2000/svg" xmlns:xlink="http://www.w3.org/1999/xlink">
<g id="graph0" class="graph" transform="scale(1 1) rotate(0) translate(4 145)">
<title>Core/maps/listbsemap.h</title>
<!-- Node13 -->
<g id="node1" class="node">
<title>Node13</title>
<polygon fill="#bfbfbf" stroke="#000000" points="94.3931,-118.5 94.3931,-140.5 261.3442,-140.5 261.3442,-118.5 94.3931,-118.5"/>
<text text-anchor="middle" x="177.8687" y="-125.3" font-family="Helvetica,sans-Serif" font-size="14.00" fill="#000000">Core/maps/listbsemap.h</text>
</g>
<!-- Node14 -->
<g id="node2" class="node">
<title>Node14</title>
<g id="a_node2"><a xlink:href="$d1/ddf/listbsemap_8cpp.html" xlink:title="Core/maps/listbsemap.cpp">
<polygon fill="none" stroke="#000000" points="0,-59.5 0,-81.5 181.7373,-81.5 181.7373,-59.5 0,-59.5"/>
<text text-anchor="middle" x="90.8687" y="-66.3" font-family="Helvetica,sans-Serif" font-size="14.00" fill="#000000">Core/maps/listbsemap.cpp</text>
</a>
</g>
</g>
<!-- Node13&#45;&gt;Node14 -->
<g id="edge1" class="edge">
<title>Node13&#45;&gt;Node14</title>
<path fill="none" stroke="#191970" d="M152.8798,-112.5536C138.1828,-102.5866 120.02,-90.2693 107.1593,-81.5477"/>
<polygon fill="#191970" stroke="#191970" points="151.2638,-115.6865 161.5046,-118.4026 155.1927,-109.8931 151.2638,-115.6865"/>
</g>
<!-- Node15 -->
<g id="node3" class="node">
<title>Node15</title>
<g id="a_node3"><a xlink:href="$d8/d03/mapiniter_8h.html" xlink:title="Server/mapiniter.h">
<polygon fill="none" stroke="#000000" points="200.062,-59.5 200.062,-81.5 329.6753,-81.5 329.6753,-59.5 200.062,-59.5"/>
<text text-anchor="middle" x="264.8687" y="-66.3" font-family="Helvetica,sans-Serif" font-size="14.00" fill="#000000">Server/mapiniter.h</text>
</a>
</g>
</g>
<!-- Node13&#45;&gt;Node15 -->
<g id="edge2" class="edge">
<title>Node13&#45;&gt;Node15</title>
<path fill="none" stroke="#191970" d="M202.8575,-112.5536C217.5545,-102.5866 235.7173,-90.2693 248.578,-81.5477"/>
<polygon fill="#191970" stroke="#191970" points="200.5446,-109.8931 194.2327,-118.4026 204.4735,-115.6865 200.5446,-109.8931"/>
</g>
<!-- Node16 -->
<g id="node4" class="node">
<title>Node16</title>
<g id="a_node4"><a xlink:href="$dd/d30/maingameloop_8cpp.html" xlink:title="Server/maingameloop.cpp">
<polygon fill="none" stroke="#000000" points="85.1587,-.5 85.1587,-22.5 264.5786,-22.5 264.5786,-.5 85.1587,-.5"/>
<text text-anchor="middle" x="174.8687" y="-7.3" font-family="Helvetica,sans-Serif" font-size="14.00" fill="#000000">Server/maingameloop.cpp</text>
</a>
</g>
</g>
<!-- Node15&#45;&gt;Node16 -->
<g id="edge3" class="edge">
<title>Node15&#45;&gt;Node16</title>
<path fill="none" stroke="#191970" d="M239.4475,-53.835C224.1693,-43.8193 205.1508,-31.3516 191.7211,-22.5477"/>
<polygon fill="#191970" stroke="#191970" points="237.6583,-56.8471 247.9403,-59.4026 241.4961,-50.9929 237.6583,-56.8471"/>
</g>
<!-- Node17 -->
<g id="node5" class="node">
<title>Node17</title>
<g id="a_node5"><a xlink:href="$d5/d55/mapiniter_8cpp.html" xlink:title="Server/mapiniter.cpp">
<polygon fill="none" stroke="#000000" points="282.6689,-.5 282.6689,-22.5 427.0684,-22.5 427.0684,-.5 282.6689,-.5"/>
<text text-anchor="middle" x="354.8687" y="-7.3" font-family="Helvetica,sans-Serif" font-size="14.00" fill="#000000">Server/mapiniter.cpp</text>
</a>
</g>
</g>
<!-- Node15&#45;&gt;Node17 -->
<g id="edge4" class="edge">
<title>Node15&#45;&gt;Node17</title>
<path fill="none" stroke="#191970" d="M290.2898,-53.835C305.568,-43.8193 324.5865,-31.3516 338.0162,-22.5477"/>
<polygon fill="#191970" stroke="#191970" points="288.2412,-50.9929 281.797,-59.4026 292.079,-56.8471 288.2412,-50.9929"/>
</g>
</g>
</svg>
