<?xml version="1.0" encoding="UTF-8" standalone="no"?>
<!DOCTYPE svg PUBLIC "-//W3C//DTD SVG 1.1//EN"
 "http://www.w3.org/Graphics/SVG/1.1/DTD/svg11.dtd">
<!-- Generated by graphviz version 2.40.1 (20161225.0304)
 -->
<!-- Title: std::length_error Pages: 1 -->
<svg width="126pt" height="281pt"
 viewBox="0.00 0.00 125.94 281.00" xmlns="http://www.w3.org/2000/svg" xmlns:xlink="http://www.w3.org/1999/xlink">
<g id="graph0" class="graph" transform="scale(1 1) rotate(0) translate(4 277)">
<title>std::length_error</title>
<!-- Node597 -->
<g id="node1" class="node">
<title>Node597</title>
<polygon fill="#bfbfbf" stroke="#000000" points="0,-.5 0,-66.5 117.9443,-66.5 117.9443,-.5 0,-.5"/>
<text text-anchor="middle" x="58.9722" y="-51.3" font-family="Helvetica,sans-Serif" font-size="14.00" fill="#000000">std::length_error</text>
<polyline fill="none" stroke="#000000" points="0,-44.5 117.9443,-44.5 "/>
<text text-anchor="middle" x="58.9722" y="-29.3" font-family="Helvetica,sans-Serif" font-size="14.00" fill="#000000"> </text>
<polyline fill="none" stroke="#000000" points="0,-22.5 117.9443,-22.5 "/>
<text text-anchor="middle" x="58.9722" y="-7.3" font-family="Helvetica,sans-Serif" font-size="14.00" fill="#000000"> </text>
</g>
<!-- Node598 -->
<g id="node2" class="node">
<title>Node598</title>
<g id="a_node2"><a xlink:title="STL class. ">
<polygon fill="none" stroke="#bfbfbf" points="4.6758,-103.5 4.6758,-169.5 113.2686,-169.5 113.2686,-103.5 4.6758,-103.5"/>
<text text-anchor="middle" x="58.9722" y="-154.3" font-family="Helvetica,sans-Serif" font-size="14.00" fill="#000000">std::logic_error</text>
<polyline fill="none" stroke="#bfbfbf" points="4.6758,-147.5 113.2686,-147.5 "/>
<text text-anchor="middle" x="58.9722" y="-132.3" font-family="Helvetica,sans-Serif" font-size="14.00" fill="#000000"> </text>
<polyline fill="none" stroke="#bfbfbf" points="4.6758,-125.5 113.2686,-125.5 "/>
<text text-anchor="middle" x="58.9722" y="-110.3" font-family="Helvetica,sans-Serif" font-size="14.00" fill="#000000"> </text>
</a>
</g>
</g>
<!-- Node598&#45;&gt;Node597 -->
<g id="edge1" class="edge">
<title>Node598&#45;&gt;Node597</title>
<path fill="none" stroke="#191970" d="M58.9722,-93.1362C58.9722,-84.256 58.9722,-75.0447 58.9722,-66.5947"/>
<polygon fill="none" stroke="#191970" points="55.4723,-93.3432 58.9722,-103.3432 62.4723,-93.3432 55.4723,-93.3432"/>
</g>
<!-- Node599 -->
<g id="node3" class="node">
<title>Node599</title>
<g id="a_node3"><a xlink:title="STL class. ">
<polygon fill="none" stroke="#bfbfbf" points="7.7793,-206.5 7.7793,-272.5 110.165,-272.5 110.165,-206.5 7.7793,-206.5"/>
<text text-anchor="middle" x="58.9722" y="-257.3" font-family="Helvetica,sans-Serif" font-size="14.00" fill="#000000">std::exception</text>
<polyline fill="none" stroke="#bfbfbf" points="7.7793,-250.5 110.165,-250.5 "/>
<text text-anchor="middle" x="58.9722" y="-235.3" font-family="Helvetica,sans-Serif" font-size="14.00" fill="#000000"> </text>
<polyline fill="none" stroke="#bfbfbf" points="7.7793,-228.5 110.165,-228.5 "/>
<text text-anchor="middle" x="58.9722" y="-213.3" font-family="Helvetica,sans-Serif" font-size="14.00" fill="#000000"> </text>
</a>
</g>
</g>
<!-- Node599&#45;&gt;Node598 -->
<g id="edge2" class="edge">
<title>Node599&#45;&gt;Node598</title>
<path fill="none" stroke="#191970" d="M58.9722,-196.1362C58.9722,-187.256 58.9722,-178.0447 58.9722,-169.5947"/>
<polygon fill="none" stroke="#191970" points="55.4723,-196.3432 58.9722,-206.3432 62.4723,-196.3432 55.4723,-196.3432"/>
</g>
</g>
</svg>
