<?xml version="1.0" encoding="UTF-8" standalone="no"?>
<!DOCTYPE svg PUBLIC "-//W3C//DTD SVG 1.1//EN"
 "http://www.w3.org/Graphics/SVG/1.1/DTD/svg11.dtd">
<!-- Generated by graphviz version 2.40.1 (20161225.0304)
 -->
<!-- Title: IBaseGameElement::nextStep Pages: 1 -->
<!--zoomable 289 -->
<svg id="main" version="1.1" xmlns="http://www.w3.org/2000/svg" xmlns:xlink="http://www.w3.org/1999/xlink" xml:space="preserve" onload="init(evt)">
<style type="text/css"><![CDATA[
.edge:hover path { stroke: red; }
.edge:hover polygon { stroke: red; fill: red; }
]]></style>
<script type="text/javascript"><![CDATA[
var edges = document.getElementsByTagName('g');
if (edges && edges.length) {
  for (var i=0;i<edges.length;i++) {
    if (edges[i].id.substr(0,4)=='edge') {
      edges[i].setAttribute('class','edge');
    }
  }
}
]]></script>
        <defs>
                <circle id="rim" cx="0" cy="0" r="7"/>
                <circle id="rim2" cx="0" cy="0" r="3.5"/>
                <g id="zoomPlus">
                        <use xlink:href="#rim" target="_top" target="_top" fill="#404040">
                                <set attributeName="fill" to="#808080" begin="zoomplus.mouseover" end="zoomplus.mouseout"/>
                        </use>
                        <path d="M-4,0h8M0,-4v8" fill="none" stroke="white" stroke-width="1.5" pointer-events="none"/>
                </g>
                <g id="zoomMin">
                        <use xlink:href="#rim" target="_top" target="_top" fill="#404040">
                                <set attributeName="fill" to="#808080" begin="zoomminus.mouseover" end="zoomminus.mouseout"/>
                        </use>
                        <path d="M-4,0h8" fill="none" stroke="white" stroke-width="1.5" pointer-events="none"/>
                </g>
                <g id="dirArrow">
                        <path fill="none" stroke="white" stroke-width="1.5" d="M0,-3.0v7 M-2.5,-0.5L0,-3.0L2.5,-0.5"/>
                </g>
               <g id="resetDef">
                       <use xlink:href="#rim2" target="_top" target="_top" fill="#404040">
                               <set attributeName="fill" to="#808080" begin="reset.mouseover" end="reset.mouseout"/>
                       </use>
               </g>
        </defs>

<script type="text/javascript">
var viewWidth = 989;
var viewHeight = 289;
var sectionId = 'dynsection-4';
</script>
<script xlink:href="../../svgpan.js" target="_top" target="_top"/>
<svg id="graph" class="graph">
<g id="viewport">
<title>IBaseGameElement::nextStep</title>
<!-- Node22 -->
<g id="node1" class="node">
<title>Node22</title>
<polygon fill="#bfbfbf" stroke="#000000" points="0,-121.5 0,-143.5 204.3232,-143.5 204.3232,-121.5 0,-121.5"/>
<text text-anchor="middle" x="102.1616" y="-128.3" font-family="Helvetica,sans-Serif" font-size="14.00" fill="#000000">IBaseGameElement::nextStep</text>
</g>
<!-- Node23 -->
<g id="node2" class="node">
<title>Node23</title>
<g id="a_node2"><a xlink:href="../../de/d2b/classIBaseGameElement.html#ae72e1c7b4ecb3cf88e2a86ff4a331e88" target="_top" target="_top" target="_top" xlink:title="IBaseGameElement::IBaseGame\lElement">
<polygon fill="none" stroke="#000000" points="240.3232,-244.5 240.3232,-280.5 463.3086,-280.5 463.3086,-244.5 240.3232,-244.5"/>
<text text-anchor="start" x="248.3232" y="-265.3" font-family="Helvetica,sans-Serif" font-size="14.00" fill="#000000">IBaseGameElement::IBaseGame</text>
<text text-anchor="middle" x="351.8159" y="-251.3" font-family="Helvetica,sans-Serif" font-size="14.00" fill="#000000">Element</text>
</a>
</g>
</g>
<!-- Node22&#45;&gt;Node23 -->
<g id="edge1" class="edge">
<title>Node22&#45;&gt;Node23</title>
<path fill="none" stroke="#191970" d="M121.0372,-150.5607C146.228,-173.6692 193.1626,-213.3492 240.3232,-235.5 247.4437,-238.8444 255.0212,-241.7995 262.7452,-244.4059"/>
<polygon fill="#191970" stroke="#191970" points="123.3538,-147.9354 113.6496,-143.6834 118.5842,-153.059 123.3538,-147.9354"/>
</g>
<!-- Node24 -->
<g id="node3" class="node">
<title>Node24</title>
<g id="a_node3"><a xlink:href="../../d7/d78/classDiffElement.html#abb725fa0a448bf536959a5c469556599" target="_top" target="_top" target="_top" xlink:title="DiffElement::DiffElement">
<polygon fill="none" stroke="#000000" points="267.814,-203.5 267.814,-225.5 435.8179,-225.5 435.8179,-203.5 267.814,-203.5"/>
<text text-anchor="middle" x="351.8159" y="-210.3" font-family="Helvetica,sans-Serif" font-size="14.00" fill="#000000">DiffElement::DiffElement</text>
</a>
</g>
</g>
<!-- Node22&#45;&gt;Node24 -->
<g id="edge2" class="edge">
<title>Node22&#45;&gt;Node24</title>
<path fill="none" stroke="#191970" d="M131.6585,-148.2867C159.0869,-162.3435 201.4502,-182.4898 240.3232,-194.5 251.6906,-198.012 263.9121,-200.9811 275.9491,-203.4677"/>
<polygon fill="#191970" stroke="#191970" points="133.0981,-145.0906 122.6098,-143.5918 129.8743,-151.304 133.0981,-145.0906"/>
</g>
<!-- Node25 -->
<g id="node4" class="node">
<title>Node25</title>
<g id="a_node4"><a xlink:href="../../d8/d5e/classBaseBasis.html#aa3c0b1cd0f29db8b63bb22dbfb78bbc5" target="_top" target="_top" target="_top" xlink:title="BaseBasis::BaseBasis">
<polygon fill="none" stroke="#000000" points="273.7817,-162.5 273.7817,-184.5 429.8501,-184.5 429.8501,-162.5 273.7817,-162.5"/>
<text text-anchor="middle" x="351.8159" y="-169.3" font-family="Helvetica,sans-Serif" font-size="14.00" fill="#000000">BaseBasis::BaseBasis</text>
</a>
</g>
</g>
<!-- Node22&#45;&gt;Node25 -->
<g id="edge3" class="edge">
<title>Node22&#45;&gt;Node25</title>
<path fill="none" stroke="#191970" d="M179.6243,-145.2215C213.19,-150.7339 252.1205,-157.1273 284.4647,-162.4391"/>
<polygon fill="#191970" stroke="#191970" points="179.8278,-141.7081 169.3928,-143.5412 178.6934,-148.6156 179.8278,-141.7081"/>
</g>
<!-- Node28 -->
<g id="node7" class="node">
<title>Node28</title>
<g id="a_node7"><a xlink:href="../../d2/d7f/classBaseTank.html#ab09f29abaec12417480cae3a5f900a41" target="_top" target="_top" target="_top" xlink:title="BaseTank::BaseTank">
<polygon fill="none" stroke="#000000" points="278.4438,-121.5 278.4438,-143.5 425.188,-143.5 425.188,-121.5 278.4438,-121.5"/>
<text text-anchor="middle" x="351.8159" y="-128.3" font-family="Helvetica,sans-Serif" font-size="14.00" fill="#000000">BaseTank::BaseTank</text>
</a>
</g>
</g>
<!-- Node22&#45;&gt;Node28 -->
<g id="edge6" class="edge">
<title>Node22&#45;&gt;Node28</title>
<path fill="none" stroke="#191970" d="M214.6468,-132.5C236.2603,-132.5 258.3722,-132.5 278.3564,-132.5"/>
<polygon fill="#191970" stroke="#191970" points="214.4259,-129.0001 204.4259,-132.5 214.4259,-136.0001 214.4259,-129.0001"/>
</g>
<!-- Node29 -->
<g id="node8" class="node">
<title>Node29</title>
<g id="a_node8"><a xlink:href="../../db/d01/classListBseMap.html#a634c821cf280b64eb56ceac190635b1a" target="_top" target="_top" target="_top" xlink:title="ListBseMap::proccessAllInR">
<polygon fill="none" stroke="#000000" points="256.6714,-80.5 256.6714,-102.5 446.9604,-102.5 446.9604,-80.5 256.6714,-80.5"/>
<text text-anchor="middle" x="351.8159" y="-87.3" font-family="Helvetica,sans-Serif" font-size="14.00" fill="#000000">ListBseMap::proccessAllInR</text>
</a>
</g>
</g>
<!-- Node22&#45;&gt;Node29 -->
<g id="edge7" class="edge">
<title>Node22&#45;&gt;Node29</title>
<path fill="none" stroke="#191970" d="M179.6243,-119.7785C213.19,-114.2661 252.1205,-107.8727 284.4647,-102.5609"/>
<polygon fill="#191970" stroke="#191970" points="178.6934,-116.3844 169.3928,-121.4588 179.8278,-123.2919 178.6934,-116.3844"/>
</g>
<!-- Node30 -->
<g id="node9" class="node">
<title>Node30</title>
<g id="a_node9"><a xlink:href="../../d6/df5/classMapIniter.html#ae6dfbed9cc8569db78442c0bfe57e252" target="_top" target="_top" target="_top" xlink:title="MapIniter::initSimapleMap">
<polygon fill="none" stroke="#000000" points="521.4844,-20.5 521.4844,-42.5 699.332,-42.5 699.332,-20.5 521.4844,-20.5"/>
<text text-anchor="middle" x="610.4082" y="-27.3" font-family="Helvetica,sans-Serif" font-size="14.00" fill="#000000">MapIniter::initSimapleMap</text>
</a>
</g>
</g>
<!-- Node22&#45;&gt;Node30 -->
<g id="edge8" class="edge">
<title>Node22&#45;&gt;Node30</title>
<path fill="none" stroke="#191970" d="M131.0351,-116.5963C158.3432,-102.3283 200.9016,-82.0596 240.3232,-71.5 334.1158,-46.3764 445.2945,-36.9649 521.1424,-33.4764"/>
<polygon fill="#191970" stroke="#191970" points="129.2358,-113.5888 122.0421,-121.3671 132.5162,-119.7725 129.2358,-113.5888"/>
</g>
<!-- Node32 -->
<g id="node11" class="node">
<title>Node32</title>
<g id="a_node11"><a xlink:href="../../d6/df5/classMapIniter.html#a8961b80aa1df5f628bd4e28e66a51d0b" target="_top" target="_top" target="_top" xlink:title="MapIniter::getRandomGrass">
<polygon fill="none" stroke="#000000" points="255.8887,-.5 255.8887,-22.5 447.7432,-22.5 447.7432,-.5 255.8887,-.5"/>
<text text-anchor="middle" x="351.8159" y="-7.3" font-family="Helvetica,sans-Serif" font-size="14.00" fill="#000000">MapIniter::getRandomGrass</text>
</a>
</g>
</g>
<!-- Node22&#45;&gt;Node32 -->
<g id="edge10" class="edge">
<title>Node22&#45;&gt;Node32</title>
<path fill="none" stroke="#191970" d="M122.8152,-114.5721C148.5992,-93.1133 194.8649,-57.5681 240.3232,-37.5 254.6876,-31.1587 270.8039,-26.2552 286.223,-22.506"/>
<polygon fill="#191970" stroke="#191970" points="120.2694,-112.1408 114.887,-121.2667 124.7856,-117.4892 120.2694,-112.1408"/>
</g>
<!-- Node26 -->
<g id="node5" class="node">
<title>Node26</title>
<g id="a_node5"><a xlink:href="../../d2/d11/classMainGameLoop.html#ac7722494194e946c7d045471858c3aee" target="_top" target="_top" target="_top" xlink:title="MainGameLoop::proccessGamer\lMessage">
<polygon fill="none" stroke="#000000" points="499.3086,-155.5 499.3086,-191.5 721.5078,-191.5 721.5078,-155.5 499.3086,-155.5"/>
<text text-anchor="start" x="507.3086" y="-176.3" font-family="Helvetica,sans-Serif" font-size="14.00" fill="#000000">MainGameLoop::proccessGamer</text>
<text text-anchor="middle" x="610.4082" y="-162.3" font-family="Helvetica,sans-Serif" font-size="14.00" fill="#000000">Message</text>
</a>
</g>
</g>
<!-- Node25&#45;&gt;Node26 -->
<g id="edge4" class="edge">
<title>Node25&#45;&gt;Node26</title>
<path fill="none" stroke="#191970" d="M440.1712,-173.5C459.0976,-173.5 479.3291,-173.5 498.9976,-173.5"/>
<polygon fill="#191970" stroke="#191970" points="440.1039,-170.0001 430.1039,-173.5 440.1039,-177.0001 440.1039,-170.0001"/>
</g>
<!-- Node27 -->
<g id="node6" class="node">
<title>Node27</title>
<g id="a_node6"><a xlink:href="../../d2/d11/classMainGameLoop.html#ab9de0ceedab969b5f7fd9e1131bc4cd5" target="_top" target="_top" target="_top" xlink:title="MainGameLoop::getProccessor\lForMessage">
<polygon fill="none" stroke="#000000" points="762.5732,-155.5 762.5732,-191.5 975.4482,-191.5 975.4482,-155.5 762.5732,-155.5"/>
<text text-anchor="start" x="770.5732" y="-176.3" font-family="Helvetica,sans-Serif" font-size="14.00" fill="#000000">MainGameLoop::getProccessor</text>
<text text-anchor="middle" x="869.0107" y="-162.3" font-family="Helvetica,sans-Serif" font-size="14.00" fill="#000000">ForMessage</text>
</a>
</g>
</g>
<!-- Node26&#45;&gt;Node27 -->
<g id="edge5" class="edge">
<title>Node26&#45;&gt;Node27</title>
<path fill="none" stroke="#191970" d="M731.7855,-173.5C742.0229,-173.5 752.3268,-173.5 762.4392,-173.5"/>
<polygon fill="#191970" stroke="#191970" points="731.5798,-170.0001 721.5798,-173.5 731.5797,-177.0001 731.5798,-170.0001"/>
</g>
<!-- Node31 -->
<g id="node10" class="node">
<title>Node31</title>
<g id="a_node10"><a xlink:href="../../d2/d11/classMainGameLoop.html#a0632599cb00fa2c86ba1c71904c1f59f" target="_top" target="_top" target="_top" xlink:title="MainGameLoop::MainGameLoop">
<polygon fill="none" stroke="#000000" points="757.5078,-20.5 757.5078,-42.5 980.5137,-42.5 980.5137,-20.5 757.5078,-20.5"/>
<text text-anchor="middle" x="869.0107" y="-27.3" font-family="Helvetica,sans-Serif" font-size="14.00" fill="#000000">MainGameLoop::MainGameLoop</text>
</a>
</g>
</g>
<!-- Node30&#45;&gt;Node31 -->
<g id="edge9" class="edge">
<title>Node30&#45;&gt;Node31</title>
<path fill="none" stroke="#191970" d="M709.5963,-31.5C725.258,-31.5 741.5438,-31.5 757.4636,-31.5"/>
<polygon fill="#191970" stroke="#191970" points="709.4046,-28.0001 699.4045,-31.5 709.4045,-35.0001 709.4046,-28.0001"/>
</g>
<!-- Node32&#45;&gt;Node30 -->
<g id="edge11" class="edge">
<title>Node32&#45;&gt;Node30</title>
<path fill="none" stroke="#191970" d="M458.3092,-19.7364C479.2486,-21.3559 501.012,-23.0391 521.3079,-24.6088"/>
<polygon fill="#191970" stroke="#191970" points="458.3463,-16.2289 448.1061,-18.9473 457.8064,-23.208 458.3463,-16.2289"/>
</g>
</g>
</svg>
        <g id="navigator" transform="translate(0 0)" fill="#404254">
                <rect fill="#f2f5e9" fill-opacity="0.5" stroke="#606060" stroke-width=".5" x="0" y="0" width="60" height="60"/>
                <use id="zoomplus" xlink:href="#zoomPlus" target="_top" target="_top" x="17" y="9" onmousedown="handleZoom(evt,'in')"/>
                <use id="zoomminus" xlink:href="#zoomMin" target="_top" target="_top" x="42" y="9" onmousedown="handleZoom(evt,'out')"/>
                <use id="reset" xlink:href="#resetDef" target="_top" target="_top" x="30" y="36" onmousedown="handleReset()"/>
                <g id="arrowUp" xlink:href="#dirArrow" target="_top" target="_top" transform="translate(30 24)" onmousedown="handlePan(0,-1)">
                  <use xlink:href="#rim" target="_top" target="_top" fill="#404040">
                        <set attributeName="fill" to="#808080" begin="arrowUp.mouseover" end="arrowUp.mouseout"/>
                  </use>
                  <path fill="none" stroke="white" stroke-width="1.5" d="M0,-3.0v7 M-2.5,-0.5L0,-3.0L2.5,-0.5"/>
                </g>
                <g id="arrowRight" xlink:href="#dirArrow" target="_top" target="_top" transform="rotate(90) translate(36 -43)" onmousedown="handlePan(1,0)">
                  <use xlink:href="#rim" target="_top" target="_top" fill="#404040">
                        <set attributeName="fill" to="#808080" begin="arrowRight.mouseover" end="arrowRight.mouseout"/>
                  </use>
                  <path fill="none" stroke="white" stroke-width="1.5" d="M0,-3.0v7 M-2.5,-0.5L0,-3.0L2.5,-0.5"/>
                </g>
                <g id="arrowDown" xlink:href="#dirArrow" target="_top" target="_top" transform="rotate(180) translate(-30 -48)" onmousedown="handlePan(0,1)">
                  <use xlink:href="#rim" target="_top" target="_top" fill="#404040">
                        <set attributeName="fill" to="#808080" begin="arrowDown.mouseover" end="arrowDown.mouseout"/>
                  </use>
                  <path fill="none" stroke="white" stroke-width="1.5" d="M0,-3.0v7 M-2.5,-0.5L0,-3.0L2.5,-0.5"/>
                </g>
                <g id="arrowLeft" xlink:href="#dirArrow" target="_top" target="_top" transform="rotate(270) translate(-36 17)" onmousedown="handlePan(-1,0)">
                  <use xlink:href="#rim" target="_top" target="_top" fill="#404040">
                        <set attributeName="fill" to="#808080" begin="arrowLeft.mouseover" end="arrowLeft.mouseout"/>
                  </use>
                  <path fill="none" stroke="white" stroke-width="1.5" d="M0,-3.0v7 M-2.5,-0.5L0,-3.0L2.5,-0.5"/>
                </g>
        </g>
        <svg viewBox="0 0 15 15" width="100%" height="30px" preserveAspectRatio="xMaxYMin meet">
         <g id="arrow_out" transform="scale(0.3 0.3)">
          <a xlink:href="classIBaseGameElement_ae2be75da1a2a9edfabe993770e24654a_icgraph_org.svg" target="_top" target="_top" target="_base">
           <rect id="button" ry="5" rx="5" y="6" x="6" height="38" width="38"
                fill="#f2f5e9" fill-opacity="0.5" stroke="#606060" stroke-width="1.0"/>
           <path id="arrow"
             d="M 11.500037,31.436501 C 11.940474,20.09759 22.043105,11.32322 32.158766,21.979434 L 37.068811,17.246167 C 37.068811,17.246167 37.088388,32 37.088388,32 L 22.160133,31.978069 C 22.160133,31.978069 26.997745,27.140456 26.997745,27.140456 C 18.528582,18.264221 13.291696,25.230495 11.500037,31.436501 z"
             style="fill:#404040;"/>
          </a>
         </g>
        </svg>
</svg>
