<?xml version="1.0" encoding="UTF-8" standalone="no"?>
<!DOCTYPE svg PUBLIC "-//W3C//DTD SVG 1.1//EN"
 "http://www.w3.org/Graphics/SVG/1.1/DTD/svg11.dtd">
<!-- Generated by graphviz version 2.40.1 (20161225.0304)
 -->
<!-- Title: IBaseGameElement::setTransitWeight Pages: 1 -->
<svg width="919pt" height="45pt"
 viewBox="0.00 0.00 918.72 45.00" xmlns="http://www.w3.org/2000/svg" xmlns:xlink="http://www.w3.org/1999/xlink">
<g id="graph0" class="graph" transform="scale(1 1) rotate(0) translate(4 41)">
<title>IBaseGameElement::setTransitWeight</title>
<!-- Node47 -->
<g id="node1" class="node">
<title>Node47</title>
<polygon fill="#bfbfbf" stroke="#000000" points="0,-.5 0,-36.5 210.0107,-36.5 210.0107,-.5 0,-.5"/>
<text text-anchor="start" x="8" y="-21.3" font-family="Helvetica,sans-Serif" font-size="14.00" fill="#000000">IBaseGameElement::setTransit</text>
<text text-anchor="middle" x="105.0054" y="-7.3" font-family="Helvetica,sans-Serif" font-size="14.00" fill="#000000">Weight</text>
</g>
<!-- Node48 -->
<g id="node2" class="node">
<title>Node48</title>
<g id="a_node2"><a xlink:href="../../d6/df5/classMapIniter.html#a8961b80aa1df5f628bd4e28e66a51d0b" target="_top" xlink:title="MapIniter::getRandomGrass">
<polygon fill="none" stroke="#000000" points="246.0107,-7.5 246.0107,-29.5 437.8652,-29.5 437.8652,-7.5 246.0107,-7.5"/>
<text text-anchor="middle" x="341.938" y="-14.3" font-family="Helvetica,sans-Serif" font-size="14.00" fill="#000000">MapIniter::getRandomGrass</text>
</a>
</g>
</g>
<!-- Node47&#45;&gt;Node48 -->
<g id="edge1" class="edge">
<title>Node47&#45;&gt;Node48</title>
<path fill="none" stroke="#191970" d="M220.3497,-18.5C228.9221,-18.5 237.5164,-18.5 245.9527,-18.5"/>
<polygon fill="#191970" stroke="#191970" points="220.3073,-15.0001 210.3073,-18.5 220.3072,-22.0001 220.3073,-15.0001"/>
</g>
<!-- Node49 -->
<g id="node3" class="node">
<title>Node49</title>
<g id="a_node3"><a xlink:href="../../d6/df5/classMapIniter.html#ae6dfbed9cc8569db78442c0bfe57e252" target="_top" xlink:title="MapIniter::initSimapleMap">
<polygon fill="none" stroke="#000000" points="473.8652,-7.5 473.8652,-29.5 651.7129,-29.5 651.7129,-7.5 473.8652,-7.5"/>
<text text-anchor="middle" x="562.7891" y="-14.3" font-family="Helvetica,sans-Serif" font-size="14.00" fill="#000000">MapIniter::initSimapleMap</text>
</a>
</g>
</g>
<!-- Node48&#45;&gt;Node49 -->
<g id="edge2" class="edge">
<title>Node48&#45;&gt;Node49</title>
<path fill="none" stroke="#191970" d="M448.2082,-18.5C456.788,-18.5 465.4013,-18.5 473.8406,-18.5"/>
<polygon fill="#191970" stroke="#191970" points="448.1641,-15.0001 438.164,-18.5 448.164,-22.0001 448.1641,-15.0001"/>
</g>
<!-- Node50 -->
<g id="node4" class="node">
<title>Node50</title>
<g id="a_node4"><a xlink:href="../../d2/d11/classMainGameLoop.html#a0632599cb00fa2c86ba1c71904c1f59f" target="_top" xlink:title="MainGameLoop::MainGameLoop">
<polygon fill="none" stroke="#000000" points="687.7129,-7.5 687.7129,-29.5 910.7188,-29.5 910.7188,-7.5 687.7129,-7.5"/>
<text text-anchor="middle" x="799.2158" y="-14.3" font-family="Helvetica,sans-Serif" font-size="14.00" fill="#000000">MainGameLoop::MainGameLoop</text>
</a>
</g>
</g>
<!-- Node49&#45;&gt;Node50 -->
<g id="edge3" class="edge">
<title>Node49&#45;&gt;Node50</title>
<path fill="none" stroke="#191970" d="M662.0268,-18.5C670.4456,-18.5 678.9963,-18.5 687.502,-18.5"/>
<polygon fill="#191970" stroke="#191970" points="661.835,-15.0001 651.835,-18.5 661.835,-22.0001 661.835,-15.0001"/>
</g>
</g>
</svg>
