<?xml version="1.0" encoding="UTF-8" standalone="no"?>
<!DOCTYPE svg PUBLIC "-//W3C//DTD SVG 1.1//EN"
 "http://www.w3.org/Graphics/SVG/1.1/DTD/svg11.dtd">
<!-- Generated by graphviz version 2.40.1 (20161225.0304)
 -->
<!-- Title: BaseBasis::BaseBasis Pages: 1 -->
<svg width="671pt" height="45pt"
 viewBox="0.00 0.00 671.14 45.00" xmlns="http://www.w3.org/2000/svg" xmlns:xlink="http://www.w3.org/1999/xlink">
<g id="graph0" class="graph" transform="scale(1 1) rotate(0) translate(4 41)">
<title>BaseBasis::BaseBasis</title>
<!-- Node2 -->
<g id="node1" class="node">
<title>Node2</title>
<polygon fill="#bfbfbf" stroke="#000000" points="0,-7.5 0,-29.5 156.0684,-29.5 156.0684,-7.5 0,-7.5"/>
<text text-anchor="middle" x="78.0342" y="-14.3" font-family="Helvetica,sans-Serif" font-size="14.00" fill="#000000">BaseBasis::BaseBasis</text>
</g>
<!-- Node3 -->
<g id="node2" class="node">
<title>Node3</title>
<g id="a_node2"><a xlink:href="$d2/d11/classMainGameLoop.html#ac7722494194e946c7d045471858c3aee" xlink:title="MainGameLoop::proccessGamer\lMessage">
<polygon fill="none" stroke="#000000" points="192.0684,-.5 192.0684,-36.5 414.2676,-36.5 414.2676,-.5 192.0684,-.5"/>
<text text-anchor="start" x="200.0684" y="-21.3" font-family="Helvetica,sans-Serif" font-size="14.00" fill="#000000">MainGameLoop::proccessGamer</text>
<text text-anchor="middle" x="303.168" y="-7.3" font-family="Helvetica,sans-Serif" font-size="14.00" fill="#000000">Message</text>
</a>
</g>
</g>
<!-- Node2&#45;&gt;Node3 -->
<g id="edge1" class="edge">
<title>Node2&#45;&gt;Node3</title>
<path fill="none" stroke="#191970" d="M166.2863,-18.5C174.69,-18.5 183.2836,-18.5 191.8674,-18.5"/>
<polygon fill="#191970" stroke="#191970" points="166.1433,-15.0001 156.1432,-18.5 166.1432,-22.0001 166.1433,-15.0001"/>
</g>
<!-- Node4 -->
<g id="node3" class="node">
<title>Node4</title>
<g id="a_node3"><a xlink:href="$d2/d11/classMainGameLoop.html#ab9de0ceedab969b5f7fd9e1131bc4cd5" xlink:title="MainGameLoop::getProccessor\lForMessage">
<polygon fill="none" stroke="#000000" points="450.2676,-.5 450.2676,-36.5 663.1426,-36.5 663.1426,-.5 450.2676,-.5"/>
<text text-anchor="start" x="458.2676" y="-21.3" font-family="Helvetica,sans-Serif" font-size="14.00" fill="#000000">MainGameLoop::getProccessor</text>
<text text-anchor="middle" x="556.7051" y="-7.3" font-family="Helvetica,sans-Serif" font-size="14.00" fill="#000000">ForMessage</text>
</a>
</g>
</g>
<!-- Node3&#45;&gt;Node4 -->
<g id="edge2" class="edge">
<title>Node3&#45;&gt;Node4</title>
<path fill="none" stroke="#191970" d="M424.3986,-18.5C432.9601,-18.5 441.5554,-18.5 450.0278,-18.5"/>
<polygon fill="#191970" stroke="#191970" points="424.3731,-15.0001 414.373,-18.5 424.373,-22.0001 424.3731,-15.0001"/>
</g>
</g>
</svg>
