<?xml version="1.0" encoding="UTF-8" standalone="no"?>
<!DOCTYPE svg PUBLIC "-//W3C//DTD SVG 1.1//EN"
 "http://www.w3.org/Graphics/SVG/1.1/DTD/svg11.dtd">
<!-- Generated by graphviz version 2.40.1 (20161225.0304)
 -->
<!-- Title: QMainWindow Pages: 1 -->
<svg width="150pt" height="220pt"
 viewBox="0.00 0.00 150.05 220.00" xmlns="http://www.w3.org/2000/svg" xmlns:xlink="http://www.w3.org/1999/xlink">
<g id="graph0" class="graph" transform="scale(1 1) rotate(0) translate(4 216)">
<title>QMainWindow</title>
<!-- Node97 -->
<g id="node1" class="node">
<title>Node97</title>
<polygon fill="#bfbfbf" stroke="#000000" points="17.5137,-145.5 17.5137,-211.5 124.541,-211.5 124.541,-145.5 17.5137,-145.5"/>
<text text-anchor="middle" x="71.0273" y="-196.3" font-family="Helvetica,sans-Serif" font-size="14.00" fill="#000000">QMainWindow</text>
<polyline fill="none" stroke="#000000" points="17.5137,-189.5 124.541,-189.5 "/>
<text text-anchor="middle" x="71.0273" y="-174.3" font-family="Helvetica,sans-Serif" font-size="14.00" fill="#000000"> </text>
<polyline fill="none" stroke="#000000" points="17.5137,-167.5 124.541,-167.5 "/>
<text text-anchor="middle" x="71.0273" y="-152.3" font-family="Helvetica,sans-Serif" font-size="14.00" fill="#000000"> </text>
</g>
<!-- Node98 -->
<g id="node2" class="node">
<title>Node98</title>
<g id="a_node2"><a xlink:href="$dd/d4c/a00177.html" xlink:title="{MainWindow\n|# connection\l&#45; ui\l|+ MainWindow()\l+ ~MainWindow()\l# connectToServer()\l}">
<polygon fill="none" stroke="#000000" points="0,-.5 0,-108.5 142.0547,-108.5 142.0547,-.5 0,-.5"/>
<text text-anchor="middle" x="71.0273" y="-93.3" font-family="Helvetica,sans-Serif" font-size="14.00" fill="#000000">MainWindow</text>
<polyline fill="none" stroke="#000000" points="0,-86.5 142.0547,-86.5 "/>
<text text-anchor="start" x="8" y="-71.3" font-family="Helvetica,sans-Serif" font-size="14.00" fill="#000000"># connection</text>
<text text-anchor="start" x="8" y="-57.3" font-family="Helvetica,sans-Serif" font-size="14.00" fill="#000000">&#45; ui</text>
<polyline fill="none" stroke="#000000" points="0,-50.5 142.0547,-50.5 "/>
<text text-anchor="start" x="8" y="-35.3" font-family="Helvetica,sans-Serif" font-size="14.00" fill="#000000">+ MainWindow()</text>
<text text-anchor="start" x="8" y="-21.3" font-family="Helvetica,sans-Serif" font-size="14.00" fill="#000000">+ ~MainWindow()</text>
<text text-anchor="start" x="8" y="-7.3" font-family="Helvetica,sans-Serif" font-size="14.00" fill="#000000"># connectToServer()</text>
</a>
</g>
</g>
<!-- Node97&#45;&gt;Node98 -->
<g id="edge1" class="edge">
<title>Node97&#45;&gt;Node98</title>
<path fill="none" stroke="#191970" d="M71.0273,-135.2113C71.0273,-126.7144 71.0273,-117.7002 71.0273,-108.8938"/>
<polygon fill="none" stroke="#191970" points="67.5274,-135.2702 71.0273,-145.2703 74.5274,-135.2703 67.5274,-135.2702"/>
</g>
</g>
</svg>
