<?xml version="1.0" encoding="UTF-8" standalone="no"?>
<!DOCTYPE svg PUBLIC "-//W3C//DTD SVG 1.1//EN"
 "http://www.w3.org/Graphics/SVG/1.1/DTD/svg11.dtd">
<!-- Generated by graphviz version 2.40.1 (20161225.0304)
 -->
<!-- Title: Server/maingameloop.h Pages: 1 -->
<svg width="324pt" height="90pt"
 viewBox="0.00 0.00 323.68 90.00" xmlns="http://www.w3.org/2000/svg" xmlns:xlink="http://www.w3.org/1999/xlink">
<g id="graph0" class="graph" transform="scale(1 1) rotate(0) translate(4 86)">
<title>Server/maingameloop.h</title>
<!-- Node27 -->
<g id="node1" class="node">
<title>Node27</title>
<polygon fill="#bfbfbf" stroke="#000000" points="59.6484,-59.5 59.6484,-81.5 224.2822,-81.5 224.2822,-59.5 59.6484,-59.5"/>
<text text-anchor="middle" x="141.9653" y="-66.3" font-family="Helvetica,sans-Serif" font-size="14.00" fill="#000000">Server/maingameloop.h</text>
</g>
<!-- Node28 -->
<g id="node2" class="node">
<title>Node28</title>
<g id="a_node2"><a xlink:href="../../d6/dda/Server_2main_8cpp.html" target="_top" xlink:title="Server/main.cpp">
<polygon fill="none" stroke="#000000" points="0,-.5 0,-22.5 117.9307,-22.5 117.9307,-.5 0,-.5"/>
<text text-anchor="middle" x="58.9653" y="-7.3" font-family="Helvetica,sans-Serif" font-size="14.00" fill="#000000">Server/main.cpp</text>
</a>
</g>
</g>
<!-- Node27&#45;&gt;Node28 -->
<g id="edge1" class="edge">
<title>Node27&#45;&gt;Node28</title>
<path fill="none" stroke="#191970" d="M118.1254,-53.5536C104.1041,-43.5866 86.7764,-31.2693 74.507,-22.5477"/>
<polygon fill="#191970" stroke="#191970" points="116.1752,-56.4614 126.3537,-59.4026 120.2309,-50.756 116.1752,-56.4614"/>
</g>
<!-- Node29 -->
<g id="node3" class="node">
<title>Node29</title>
<g id="a_node3"><a xlink:href="../../dd/d30/maingameloop_8cpp.html" target="_top" xlink:title="Server/maingameloop.cpp">
<polygon fill="none" stroke="#000000" points="136.2554,-.5 136.2554,-22.5 315.6753,-22.5 315.6753,-.5 136.2554,-.5"/>
<text text-anchor="middle" x="225.9653" y="-7.3" font-family="Helvetica,sans-Serif" font-size="14.00" fill="#000000">Server/maingameloop.cpp</text>
</a>
</g>
</g>
<!-- Node27&#45;&gt;Node29 -->
<g id="edge2" class="edge">
<title>Node27&#45;&gt;Node29</title>
<path fill="none" stroke="#191970" d="M166.0925,-53.5536C180.2827,-43.5866 197.8192,-31.2693 210.2364,-22.5477"/>
<polygon fill="#191970" stroke="#191970" points="163.9366,-50.7907 157.7651,-59.4026 167.96,-56.5189 163.9366,-50.7907"/>
</g>
</g>
</svg>
