<?xml version="1.0" encoding="UTF-8" standalone="no"?>
<!DOCTYPE svg PUBLIC "-//W3C//DTD SVG 1.1//EN"
 "http://www.w3.org/Graphics/SVG/1.1/DTD/svg11.dtd">
<!-- Generated by graphviz version 2.40.1 (20161225.0304)
 -->
<!-- Title: Server/maingameloop.cpp Pages: 1 -->
<svg width="1144pt" height="385pt"
 viewBox="0.00 0.00 1144.06 385.00" xmlns="http://www.w3.org/2000/svg" xmlns:xlink="http://www.w3.org/1999/xlink">
<g id="graph0" class="graph" transform="scale(1 1) rotate(0) translate(4 381)">
<title>Server/maingameloop.cpp</title>
<!-- Node0 -->
<g id="node1" class="node">
<title>Node0</title>
<polygon fill="#bfbfbf" stroke="#000000" points="607.6279,-354.5 607.6279,-376.5 787.0479,-376.5 787.0479,-354.5 607.6279,-354.5"/>
<text text-anchor="middle" x="697.3379" y="-361.3" font-family="Helvetica,sans-Serif" font-size="14.00" fill="#000000">Server/maingameloop.cpp</text>
</g>
<!-- Node1 -->
<g id="node2" class="node">
<title>Node1</title>
<g id="a_node2"><a xlink:href="../../df/dd1/maingameloop_8h.html" target="_top" xlink:title="maingameloop.h">
<polygon fill="none" stroke="#000000" points="580.583,-295.5 580.583,-317.5 700.0928,-317.5 700.0928,-295.5 580.583,-295.5"/>
<text text-anchor="middle" x="640.3379" y="-302.3" font-family="Helvetica,sans-Serif" font-size="14.00" fill="#000000">maingameloop.h</text>
</a>
</g>
</g>
<!-- Node0&#45;&gt;Node1 -->
<g id="edge1" class="edge">
<title>Node0&#45;&gt;Node1</title>
<path fill="none" stroke="#191970" d="M686.6166,-354.4026C678.5755,-346.0793 667.3906,-334.5019 658.031,-324.8139"/>
<polygon fill="#191970" stroke="#191970" points="660.4764,-322.3078 651.0111,-317.5477 655.4421,-327.1715 660.4764,-322.3078"/>
</g>
<!-- Node28 -->
<g id="node29" class="node">
<title>Node28</title>
<g id="a_node29"><a xlink:href="../../d8/d03/mapiniter_8h.html" target="_top" xlink:title="mapiniter.h">
<polygon fill="none" stroke="#000000" points="55.0933,-295.5 55.0933,-317.5 139.5825,-317.5 139.5825,-295.5 55.0933,-295.5"/>
<text text-anchor="middle" x="97.3379" y="-302.3" font-family="Helvetica,sans-Serif" font-size="14.00" fill="#000000">mapiniter.h</text>
</a>
</g>
</g>
<!-- Node0&#45;&gt;Node28 -->
<g id="edge39" class="edge">
<title>Node0&#45;&gt;Node28</title>
<path fill="none" stroke="#191970" d="M607.5118,-356.6671C480.456,-344.1733 252.3243,-321.7403 149.7786,-311.6567"/>
<polygon fill="#191970" stroke="#191970" points="149.9614,-308.1579 139.6669,-310.6623 149.2763,-315.1243 149.9614,-308.1579"/>
</g>
<!-- Node30 -->
<g id="node31" class="node">
<title>Node30</title>
<polygon fill="none" stroke="#bfbfbf" points="808.7139,-295.5 808.7139,-317.5 879.9619,-317.5 879.9619,-295.5 808.7139,-295.5"/>
<text text-anchor="middle" x="844.3379" y="-302.3" font-family="Helvetica,sans-Serif" font-size="14.00" fill="#000000">QtGlobal</text>
</g>
<!-- Node0&#45;&gt;Node30 -->
<g id="edge45" class="edge">
<title>Node0&#45;&gt;Node30</title>
<path fill="none" stroke="#191970" d="M724.9875,-354.4026C748.2916,-345.0492 781.8345,-331.5864 807.4297,-321.3135"/>
<polygon fill="#191970" stroke="#191970" points="808.8356,-324.5207 816.8123,-317.5477 806.2282,-318.0244 808.8356,-324.5207"/>
</g>
<!-- Node31 -->
<g id="node32" class="node">
<title>Node31</title>
<g id="a_node32"><a xlink:href="../../db/d5e/coreutil_8h.html" target="_top" xlink:title="coreutil.h">
<polygon fill="none" stroke="#000000" points="717.9346,-295.5 717.9346,-317.5 790.7412,-317.5 790.7412,-295.5 717.9346,-295.5"/>
<text text-anchor="middle" x="754.3379" y="-302.3" font-family="Helvetica,sans-Serif" font-size="14.00" fill="#000000">coreutil.h</text>
</a>
</g>
</g>
<!-- Node0&#45;&gt;Node31 -->
<g id="edge46" class="edge">
<title>Node0&#45;&gt;Node31</title>
<path fill="none" stroke="#191970" d="M708.0592,-354.4026C716.1003,-346.0793 727.2852,-334.5019 736.6448,-324.8139"/>
<polygon fill="#191970" stroke="#191970" points="739.2337,-327.1715 743.6647,-317.5477 734.1994,-322.3078 739.2337,-327.1715"/>
</g>
<!-- Node2 -->
<g id="node3" class="node">
<title>Node2</title>
<g id="a_node3"><a xlink:href="../../d4/dcf/imap_8h.html" target="_top" xlink:title="imap.h">
<polygon fill="none" stroke="#000000" points="2.3276,-177.5 2.3276,-199.5 60.3481,-199.5 60.3481,-177.5 2.3276,-177.5"/>
<text text-anchor="middle" x="31.3379" y="-184.3" font-family="Helvetica,sans-Serif" font-size="14.00" fill="#000000">imap.h</text>
</a>
</g>
</g>
<!-- Node1&#45;&gt;Node2 -->
<g id="edge2" class="edge">
<title>Node1&#45;&gt;Node2</title>
<path fill="none" stroke="#191970" d="M580.5094,-303.9937C446.5774,-298.0062 130.9954,-281.6634 88.3379,-259 67.307,-247.8266 51.2248,-225.2338 41.5881,-208.6232"/>
<polygon fill="#191970" stroke="#191970" points="44.551,-206.7472 36.6702,-199.6659 38.415,-210.1161 44.551,-206.7472"/>
</g>
<!-- Node13 -->
<g id="node14" class="node">
<title>Node13</title>
<g id="a_node14"><a xlink:href="../../d2/d35/mailboxelement_8h.html" target="_top" xlink:title="connection/mailboxelement.h">
<polygon fill="none" stroke="#000000" points="792.6729,-236.5 792.6729,-258.5 990.0029,-258.5 990.0029,-236.5 792.6729,-236.5"/>
<text text-anchor="middle" x="891.3379" y="-243.3" font-family="Helvetica,sans-Serif" font-size="14.00" fill="#000000">connection/mailboxelement.h</text>
</a>
</g>
</g>
<!-- Node1&#45;&gt;Node13 -->
<g id="edge15" class="edge">
<title>Node1&#45;&gt;Node13</title>
<path fill="none" stroke="#191970" d="M687.2546,-295.4718C728.9397,-285.6733 789.9794,-271.3253 834.4384,-260.8748"/>
<polygon fill="#191970" stroke="#191970" points="835.2919,-264.2696 844.2257,-258.5742 833.6901,-257.4554 835.2919,-264.2696"/>
</g>
<!-- Node16 -->
<g id="node17" class="node">
<title>Node16</title>
<polygon fill="none" stroke="#bfbfbf" points="656.7139,-118.5 656.7139,-140.5 727.9619,-140.5 727.9619,-118.5 656.7139,-118.5"/>
<text text-anchor="middle" x="692.3379" y="-125.3" font-family="Helvetica,sans-Serif" font-size="14.00" fill="#000000">QThread</text>
</g>
<!-- Node1&#45;&gt;Node16 -->
<g id="edge29" class="edge">
<title>Node1&#45;&gt;Node16</title>
<path fill="none" stroke="#191970" d="M693.2962,-295.4349C713.105,-288.4482 733.6232,-277.1572 745.3379,-259 782.6035,-201.2403 674.5904,-241.6213 645.3379,-200 632.8351,-182.2107 650.4393,-161.4608 667.5516,-147.0998"/>
<polygon fill="#191970" stroke="#191970" points="670.0991,-149.5479 675.7786,-140.604 665.7612,-144.054 670.0991,-149.5479"/>
</g>
<!-- Node22 -->
<g id="node23" class="node">
<title>Node22</title>
<polygon fill="none" stroke="#bfbfbf" points="450.3726,-236.5 450.3726,-258.5 526.3032,-258.5 526.3032,-236.5 450.3726,-236.5"/>
<text text-anchor="middle" x="488.3379" y="-243.3" font-family="Helvetica,sans-Serif" font-size="14.00" fill="#000000">functional</text>
</g>
<!-- Node1&#45;&gt;Node22 -->
<g id="edge30" class="edge">
<title>Node1&#45;&gt;Node22</title>
<path fill="none" stroke="#191970" d="M611.7479,-295.4026C587.5449,-286.008 552.6614,-272.4677 526.1521,-262.1779"/>
<polygon fill="#191970" stroke="#191970" points="527.3886,-258.9035 516.7997,-258.5477 524.8556,-265.4291 527.3886,-258.9035"/>
</g>
<!-- Node23 -->
<g id="node24" class="node">
<title>Node23</title>
<g id="a_node24"><a xlink:href="../../d4/dfd/basetank_8h.html" target="_top" xlink:title="GameElements/basetank.h">
<polygon fill="none" stroke="#000000" points="247.9038,-236.5 247.9038,-258.5 432.772,-258.5 432.772,-236.5 247.9038,-236.5"/>
<text text-anchor="middle" x="340.3379" y="-243.3" font-family="Helvetica,sans-Serif" font-size="14.00" fill="#000000">GameElements/basetank.h</text>
</a>
</g>
</g>
<!-- Node1&#45;&gt;Node23 -->
<g id="edge31" class="edge">
<title>Node1&#45;&gt;Node23</title>
<path fill="none" stroke="#191970" d="M584.2621,-295.4718C533.8363,-285.5547 459.7141,-270.9773 406.4246,-260.4971"/>
<polygon fill="#191970" stroke="#191970" points="406.8802,-257.0197 396.3927,-258.5241 405.5294,-263.8881 406.8802,-257.0197"/>
</g>
<!-- Node25 -->
<g id="node26" class="node">
<title>Node25</title>
<g id="a_node26"><a xlink:href="../../d7/dc7/coreconst_8h.html" target="_top" xlink:title="coreconst.h">
<polygon fill="none" stroke="#000000" points="1012.1519,-236.5 1012.1519,-258.5 1100.5239,-258.5 1100.5239,-236.5 1012.1519,-236.5"/>
<text text-anchor="middle" x="1056.3379" y="-243.3" font-family="Helvetica,sans-Serif" font-size="14.00" fill="#000000">coreconst.h</text>
</a>
</g>
</g>
<!-- Node1&#45;&gt;Node25 -->
<g id="edge35" class="edge">
<title>Node1&#45;&gt;Node25</title>
<path fill="none" stroke="#191970" d="M700.1532,-296.3742C703.2576,-295.8977 706.3334,-295.4367 709.3379,-295 837.8657,-276.32 871.1455,-279.8579 999.3379,-259 1000.2316,-258.8546 1001.1326,-258.7053 1002.0393,-258.5525"/>
<polygon fill="#191970" stroke="#191970" points="1002.6655,-261.9961 1011.9003,-256.803 1001.4427,-255.1037 1002.6655,-261.9961"/>
</g>
<!-- Node27 -->
<g id="node28" class="node">
<title>Node27</title>
<g id="a_node28"><a xlink:href="../../d2/d78/basebasis_8h.html" target="_top" xlink:title="GameElements/basebasis.h">
<polygon fill="none" stroke="#000000" points="544.7935,-236.5 544.7935,-258.5 735.8823,-258.5 735.8823,-236.5 544.7935,-236.5"/>
<text text-anchor="middle" x="640.3379" y="-243.3" font-family="Helvetica,sans-Serif" font-size="14.00" fill="#000000">GameElements/basebasis.h</text>
</a>
</g>
</g>
<!-- Node1&#45;&gt;Node27 -->
<g id="edge37" class="edge">
<title>Node1&#45;&gt;Node27</title>
<path fill="none" stroke="#191970" d="M640.3379,-295.4026C640.3379,-287.9034 640.3379,-277.7626 640.3379,-268.7421"/>
<polygon fill="#191970" stroke="#191970" points="643.838,-268.5477 640.3379,-258.5477 636.838,-268.5477 643.838,-268.5477"/>
</g>
<!-- Node3 -->
<g id="node4" class="node">
<title>Node3</title>
<polygon fill="none" stroke="#bfbfbf" points="0,-118.5 0,-140.5 62.6758,-140.5 62.6758,-118.5 0,-118.5"/>
<text text-anchor="middle" x="31.3379" y="-125.3" font-family="Helvetica,sans-Serif" font-size="14.00" fill="#000000">QSizeF</text>
</g>
<!-- Node2&#45;&gt;Node3 -->
<g id="edge3" class="edge">
<title>Node2&#45;&gt;Node3</title>
<path fill="none" stroke="#191970" d="M31.3379,-177.4026C31.3379,-169.9034 31.3379,-159.7626 31.3379,-150.7421"/>
<polygon fill="#191970" stroke="#191970" points="34.838,-150.5477 31.3379,-140.5477 27.838,-150.5477 34.838,-150.5477"/>
</g>
<!-- Node4 -->
<g id="node5" class="node">
<title>Node4</title>
<polygon fill="none" stroke="#bfbfbf" points="253.6621,-59.5 253.6621,-81.5 321.0137,-81.5 321.0137,-59.5 253.6621,-59.5"/>
<text text-anchor="middle" x="287.3379" y="-66.3" font-family="Helvetica,sans-Serif" font-size="14.00" fill="#000000">QPointF</text>
</g>
<!-- Node2&#45;&gt;Node4 -->
<g id="edge4" class="edge">
<title>Node2&#45;&gt;Node4</title>
<path fill="none" stroke="#191970" d="M55.4217,-177.3988C101.3544,-156.2268 201.5545,-110.0408 253.9319,-85.8981"/>
<polygon fill="#191970" stroke="#191970" points="255.515,-89.0223 263.1315,-81.6576 252.5847,-82.6652 255.515,-89.0223"/>
</g>
<!-- Node5 -->
<g id="node6" class="node">
<title>Node5</title>
<g id="a_node6"><a xlink:href="../../d0/d4c/ibasegameelement_8h.html" target="_top" xlink:title="ibasegameelement.h">
<polygon fill="none" stroke="#000000" points="477.3521,-118.5 477.3521,-140.5 623.3237,-140.5 623.3237,-118.5 477.3521,-118.5"/>
<text text-anchor="middle" x="550.3379" y="-125.3" font-family="Helvetica,sans-Serif" font-size="14.00" fill="#000000">ibasegameelement.h</text>
</a>
</g>
</g>
<!-- Node2&#45;&gt;Node5 -->
<g id="edge5" class="edge">
<title>Node2&#45;&gt;Node5</title>
<path fill="none" stroke="#191970" d="M60.8034,-179.9466C65.31,-178.8342 69.9286,-177.8042 74.3379,-177 210.7127,-152.1285 371.6124,-139.4967 467.0777,-133.7172"/>
<polygon fill="#191970" stroke="#191970" points="467.4736,-137.2 477.2482,-133.1125 467.0581,-130.2123 467.4736,-137.2"/>
</g>
<!-- Node5&#45;&gt;Node4 -->
<g id="edge9" class="edge">
<title>Node5&#45;&gt;Node4</title>
<path fill="none" stroke="#191970" d="M501.1781,-118.4718C452.2834,-107.503 377.9752,-90.8331 331.0737,-80.3115"/>
<polygon fill="#191970" stroke="#191970" points="331.7367,-76.8733 321.2131,-78.0994 330.2044,-83.7035 331.7367,-76.8733"/>
</g>
<!-- Node6 -->
<g id="node7" class="node">
<title>Node6</title>
<polygon fill="none" stroke="#bfbfbf" points="901.6621,-59.5 901.6621,-81.5 969.0137,-81.5 969.0137,-59.5 901.6621,-59.5"/>
<text text-anchor="middle" x="935.3379" y="-66.3" font-family="Helvetica,sans-Serif" font-size="14.00" fill="#000000">QObject</text>
</g>
<!-- Node5&#45;&gt;Node6 -->
<g id="edge6" class="edge">
<title>Node5&#45;&gt;Node6</title>
<path fill="none" stroke="#191970" d="M622.3018,-118.4718C701.4259,-106.3463 826.0125,-87.2538 891.6061,-77.2017"/>
<polygon fill="#191970" stroke="#191970" points="892.2566,-80.643 901.611,-75.6685 891.1962,-73.7238 892.2566,-80.643"/>
</g>
<!-- Node7 -->
<g id="node8" class="node">
<title>Node7</title>
<g id="a_node8"><a xlink:href="../../d5/df2/infinitydouble_8h.html" target="_top" xlink:title="infinitydouble.h">
<polygon fill="none" stroke="#000000" points="456.6382,-59.5 456.6382,-81.5 566.0376,-81.5 566.0376,-59.5 456.6382,-59.5"/>
<text text-anchor="middle" x="511.3379" y="-66.3" font-family="Helvetica,sans-Serif" font-size="14.00" fill="#000000">infinitydouble.h</text>
</a>
</g>
</g>
<!-- Node5&#45;&gt;Node7 -->
<g id="edge7" class="edge">
<title>Node5&#45;&gt;Node7</title>
<path fill="none" stroke="#191970" d="M543.0023,-118.4026C537.7184,-110.4089 530.4504,-99.4138 524.2102,-89.9736"/>
<polygon fill="#191970" stroke="#191970" points="527.0747,-87.9599 518.6406,-81.5477 521.2352,-91.8199 527.0747,-87.9599"/>
</g>
<!-- Node8 -->
<g id="node9" class="node">
<title>Node8</title>
<polygon fill="none" stroke="#bfbfbf" points="460.5449,-.5 460.5449,-22.5 562.1309,-22.5 562.1309,-.5 460.5449,-.5"/>
<text text-anchor="middle" x="511.3379" y="-7.3" font-family="Helvetica,sans-Serif" font-size="14.00" fill="#000000">QDataStream</text>
</g>
<!-- Node5&#45;&gt;Node8 -->
<g id="edge11" class="edge">
<title>Node5&#45;&gt;Node8</title>
<path fill="none" stroke="#191970" d="M499.1708,-118.4796C479.4865,-111.4764 458.9619,-100.1611 447.3379,-82 434.2579,-61.5642 457.2154,-41.3866 479.186,-27.8891"/>
<polygon fill="#191970" stroke="#191970" points="481.2222,-30.7542 488.1142,-22.7073 477.7084,-24.7 481.2222,-30.7542"/>
</g>
<!-- Node9 -->
<g id="node10" class="node">
<title>Node9</title>
<polygon fill="none" stroke="#bfbfbf" points="584.1621,-59.5 584.1621,-81.5 672.5137,-81.5 672.5137,-59.5 584.1621,-59.5"/>
<text text-anchor="middle" x="628.3379" y="-66.3" font-family="Helvetica,sans-Serif" font-size="14.00" fill="#000000">QByteArray</text>
</g>
<!-- Node5&#45;&gt;Node9 -->
<g id="edge10" class="edge">
<title>Node5&#45;&gt;Node9</title>
<path fill="none" stroke="#191970" d="M565.0091,-118.4026C576.4485,-109.7497 592.5375,-97.5798 605.6358,-87.6721"/>
<polygon fill="#191970" stroke="#191970" points="607.8685,-90.3718 613.7325,-81.5477 603.6456,-84.789 607.8685,-90.3718"/>
</g>
<!-- Node10 -->
<g id="node11" class="node">
<title>Node10</title>
<polygon fill="none" stroke="#bfbfbf" points="1048.6069,-59.5 1048.6069,-81.5 1112.0688,-81.5 1112.0688,-59.5 1048.6069,-59.5"/>
<text text-anchor="middle" x="1080.3379" y="-66.3" font-family="Helvetica,sans-Serif" font-size="14.00" fill="#000000">QString</text>
</g>
<!-- Node5&#45;&gt;Node10 -->
<g id="edge12" class="edge">
<title>Node5&#45;&gt;Node10</title>
<path fill="none" stroke="#191970" d="M623.4207,-120.7589C631.4897,-119.8166 639.587,-118.8809 647.3379,-118 794.3699,-101.2889 831.2585,-98.2894 978.3379,-82 997.9736,-79.8253 1019.7308,-77.3775 1038.0899,-75.301"/>
<polygon fill="#191970" stroke="#191970" points="1038.6414,-78.761 1048.184,-74.158 1037.8537,-71.8054 1038.6414,-78.761"/>
</g>
<!-- Node11 -->
<g id="node12" class="node">
<title>Node11</title>
<polygon fill="none" stroke="#bfbfbf" points="690.5942,-59.5 690.5942,-81.5 748.0815,-81.5 748.0815,-59.5 690.5942,-59.5"/>
<text text-anchor="middle" x="719.3379" y="-66.3" font-family="Helvetica,sans-Serif" font-size="14.00" fill="#000000">QTime</text>
</g>
<!-- Node5&#45;&gt;Node11 -->
<g id="edge13" class="edge">
<title>Node5&#45;&gt;Node11</title>
<path fill="none" stroke="#191970" d="M582.1255,-118.4026C610.1304,-108.6257 650.9966,-94.3588 680.8451,-83.9383"/>
<polygon fill="#191970" stroke="#191970" points="682.2232,-87.1644 690.5107,-80.5639 679.9159,-80.5556 682.2232,-87.1644"/>
</g>
<!-- Node12 -->
<g id="node13" class="node">
<title>Node12</title>
<polygon fill="none" stroke="#bfbfbf" points="766.0967,-59.5 766.0967,-81.5 850.5791,-81.5 850.5791,-59.5 766.0967,-59.5"/>
<text text-anchor="middle" x="808.3379" y="-66.3" font-family="Helvetica,sans-Serif" font-size="14.00" fill="#000000">QVector3D</text>
</g>
<!-- Node5&#45;&gt;Node12 -->
<g id="edge14" class="edge">
<title>Node5&#45;&gt;Node12</title>
<path fill="none" stroke="#191970" d="M598.5631,-118.4718C643.403,-108.2177 710.0304,-92.9812 756.112,-82.4431"/>
<polygon fill="#191970" stroke="#191970" points="756.9391,-85.8444 765.9072,-80.2031 755.3786,-79.0206 756.9391,-85.8444"/>
</g>
<!-- Node7&#45;&gt;Node8 -->
<g id="edge8" class="edge">
<title>Node7&#45;&gt;Node8</title>
<path fill="none" stroke="#191970" d="M511.3379,-59.4026C511.3379,-51.9034 511.3379,-41.7626 511.3379,-32.7421"/>
<polygon fill="#191970" stroke="#191970" points="514.838,-32.5477 511.3379,-22.5477 507.838,-32.5477 514.838,-32.5477"/>
</g>
<!-- Node13&#45;&gt;Node5 -->
<g id="edge24" class="edge">
<title>Node13&#45;&gt;Node5</title>
<path fill="none" stroke="#191970" d="M792.5272,-238.6554C746.359,-231.9828 691.5201,-220.3245 645.3379,-200 615.9946,-187.0862 587.1154,-163.7097 569.0438,-147.4308"/>
<polygon fill="#191970" stroke="#191970" points="571.2637,-144.717 561.5382,-140.5138 566.5198,-149.8645 571.2637,-144.717"/>
</g>
<!-- Node14 -->
<g id="node15" class="node">
<title>Node14</title>
<g id="a_node15"><a xlink:href="../../d1/d70/simpleconnection_8h.html" target="_top" xlink:title="simpleconnection.h">
<polygon fill="none" stroke="#000000" points="919.4141,-177.5 919.4141,-199.5 1055.2617,-199.5 1055.2617,-177.5 919.4141,-177.5"/>
<text text-anchor="middle" x="987.3379" y="-184.3" font-family="Helvetica,sans-Serif" font-size="14.00" fill="#000000">simpleconnection.h</text>
</a>
</g>
</g>
<!-- Node13&#45;&gt;Node14 -->
<g id="edge16" class="edge">
<title>Node13&#45;&gt;Node14</title>
<path fill="none" stroke="#191970" d="M909.3948,-236.4026C923.8763,-227.5025 944.4121,-214.8815 960.7694,-204.8285"/>
<polygon fill="#191970" stroke="#191970" points="962.675,-207.7656 969.362,-199.5477 959.0097,-201.8019 962.675,-207.7656"/>
</g>
<!-- Node17 -->
<g id="node18" class="node">
<title>Node17</title>
<polygon fill="none" stroke="#bfbfbf" points="760.876,-118.5 760.876,-140.5 829.7998,-140.5 829.7998,-118.5 760.876,-118.5"/>
<text text-anchor="middle" x="795.3379" y="-125.3" font-family="Helvetica,sans-Serif" font-size="14.00" fill="#000000">QQueue</text>
</g>
<!-- Node13&#45;&gt;Node17 -->
<g id="edge27" class="edge">
<title>Node13&#45;&gt;Node17</title>
<path fill="none" stroke="#191970" d="M890.838,-236.3888C889.6529,-221.5012 885.6731,-194.8863 872.3379,-177 862.2491,-163.4681 847.0623,-152.9269 832.8353,-145.2501"/>
<polygon fill="#191970" stroke="#191970" points="834.1902,-142.0131 823.6879,-140.6163 831.0269,-148.2576 834.1902,-142.0131"/>
</g>
<!-- Node19 -->
<g id="node20" class="node">
<title>Node19</title>
<polygon fill="none" stroke="#bfbfbf" points="423,-177.5 423,-199.5 471.6758,-199.5 471.6758,-177.5 423,-177.5"/>
<text text-anchor="middle" x="447.3379" y="-184.3" font-family="Helvetica,sans-Serif" font-size="14.00" fill="#000000">QList</text>
</g>
<!-- Node13&#45;&gt;Node19 -->
<g id="edge25" class="edge">
<title>Node13&#45;&gt;Node19</title>
<path fill="none" stroke="#191970" d="M808.3457,-236.4718C710.2236,-223.433 551.4773,-202.3383 481.8888,-193.0912"/>
<polygon fill="#191970" stroke="#191970" points="482.2709,-189.6113 471.897,-191.7635 481.3488,-196.5503 482.2709,-189.6113"/>
</g>
<!-- Node20 -->
<g id="node21" class="node">
<title>Node20</title>
<polygon fill="none" stroke="#bfbfbf" points="654.8311,-177.5 654.8311,-199.5 719.8447,-199.5 719.8447,-177.5 654.8311,-177.5"/>
<text text-anchor="middle" x="687.3379" y="-184.3" font-family="Helvetica,sans-Serif" font-size="14.00" fill="#000000">QMutex</text>
</g>
<!-- Node13&#45;&gt;Node20 -->
<g id="edge26" class="edge">
<title>Node13&#45;&gt;Node20</title>
<path fill="none" stroke="#191970" d="M852.9671,-236.4026C817.9414,-226.2726 766.2492,-211.3224 729.9521,-200.8247"/>
<polygon fill="#191970" stroke="#191970" points="730.7281,-197.4058 720.1494,-197.9896 728.7833,-204.1302 730.7281,-197.4058"/>
</g>
<!-- Node21 -->
<g id="node22" class="node">
<title>Node21</title>
<polygon fill="none" stroke="#bfbfbf" points="737.4727,-177.5 737.4727,-199.5 863.2031,-199.5 863.2031,-177.5 737.4727,-177.5"/>
<text text-anchor="middle" x="800.3379" y="-184.3" font-family="Helvetica,sans-Serif" font-size="14.00" fill="#000000">qtconcurrentrun.h</text>
</g>
<!-- Node13&#45;&gt;Node21 -->
<g id="edge28" class="edge">
<title>Node13&#45;&gt;Node21</title>
<path fill="none" stroke="#191970" d="M874.2215,-236.4026C860.6213,-227.5849 841.388,-215.1149 825.9543,-205.1084"/>
<polygon fill="#191970" stroke="#191970" points="827.6724,-202.0511 817.3775,-199.5477 823.8642,-207.9247 827.6724,-202.0511"/>
</g>
<!-- Node14&#45;&gt;Node5 -->
<g id="edge23" class="edge">
<title>Node14&#45;&gt;Node5</title>
<path fill="none" stroke="#191970" d="M919.0566,-179.2813C841.9745,-168.8743 716.5494,-151.9405 633.738,-140.76"/>
<polygon fill="#191970" stroke="#191970" points="633.9834,-137.2614 623.605,-139.3919 633.0468,-144.1985 633.9834,-137.2614"/>
</g>
<!-- Node14&#45;&gt;Node6 -->
<g id="edge18" class="edge">
<title>Node14&#45;&gt;Node6</title>
<path fill="none" stroke="#191970" d="M982.3519,-177.1857C973.5938,-157.3116 955.3341,-115.876 944.3261,-90.8962"/>
<polygon fill="#191970" stroke="#191970" points="947.4683,-89.3472 940.2328,-81.6078 941.0627,-92.1701 947.4683,-89.3472"/>
</g>
<!-- Node14&#45;&gt;Node8 -->
<g id="edge22" class="edge">
<title>Node14&#45;&gt;Node8</title>
<path fill="none" stroke="#191970" d="M1053.115,-177.4061C1075.0381,-170.4804 1097.6031,-159.2394 1112.3379,-141 1135.3776,-112.4804 1146.2361,-85.9124 1121.3379,-59 1102.8604,-39.0277 723.119,-20.5946 572.3041,-14.0335"/>
<polygon fill="#191970" stroke="#191970" points="572.4199,-10.5353 562.278,-13.6001 572.1175,-17.5288 572.4199,-10.5353"/>
</g>
<!-- Node15 -->
<g id="node16" class="node">
<title>Node15</title>
<polygon fill="none" stroke="#bfbfbf" points="995.8208,-118.5 995.8208,-140.5 1102.855,-140.5 1102.855,-118.5 995.8208,-118.5"/>
<text text-anchor="middle" x="1049.3379" y="-125.3" font-family="Helvetica,sans-Serif" font-size="14.00" fill="#000000">QHostAddress</text>
</g>
<!-- Node14&#45;&gt;Node15 -->
<g id="edge17" class="edge">
<title>Node14&#45;&gt;Node15</title>
<path fill="none" stroke="#191970" d="M998.9996,-177.4026C1007.8327,-168.9969 1020.1534,-157.2723 1030.3945,-147.5267"/>
<polygon fill="#191970" stroke="#191970" points="1032.8971,-149.9768 1037.7285,-140.5477 1028.0715,-144.9059 1032.8971,-149.9768"/>
</g>
<!-- Node14&#45;&gt;Node16 -->
<g id="edge19" class="edge">
<title>Node14&#45;&gt;Node16</title>
<path fill="none" stroke="#191970" d="M932.1967,-177.4718C876.2262,-166.2777 790.5669,-149.1458 738.1925,-138.6709"/>
<polygon fill="#191970" stroke="#191970" points="738.6723,-135.1977 728.1801,-136.6684 737.2995,-142.0617 738.6723,-135.1977"/>
</g>
<!-- Node14&#45;&gt;Node17 -->
<g id="edge20" class="edge">
<title>Node14&#45;&gt;Node17</title>
<path fill="none" stroke="#191970" d="M951.2242,-177.4026C919.5862,-167.6805 873.4997,-153.5185 839.6404,-143.1138"/>
<polygon fill="#191970" stroke="#191970" points="840.5834,-139.7421 829.9965,-140.1503 838.5272,-146.4333 840.5834,-139.7421"/>
</g>
<!-- Node18 -->
<g id="node19" class="node">
<title>Node18</title>
<polygon fill="none" stroke="#bfbfbf" points="847.6001,-118.5 847.6001,-140.5 939.0757,-140.5 939.0757,-118.5 847.6001,-118.5"/>
<text text-anchor="middle" x="893.3379" y="-125.3" font-family="Helvetica,sans-Serif" font-size="14.00" fill="#000000">QTcpSocket</text>
</g>
<!-- Node14&#45;&gt;Node18 -->
<g id="edge21" class="edge">
<title>Node14&#45;&gt;Node18</title>
<path fill="none" stroke="#191970" d="M969.6572,-177.4026C955.6087,-168.5849 935.7413,-156.1149 919.7988,-146.1084"/>
<polygon fill="#191970" stroke="#191970" points="921.2698,-142.8995 910.9393,-140.5477 917.5485,-148.8284 921.2698,-142.8995"/>
</g>
<!-- Node23&#45;&gt;Node5 -->
<g id="edge32" class="edge">
<title>Node23&#45;&gt;Node5</title>
<path fill="none" stroke="#191970" d="M390.755,-236.4411C418.5606,-228.8987 452.9041,-217.1243 480.3379,-200 502.3127,-186.2832 522.5963,-164.3961 535.6097,-148.6462"/>
<polygon fill="#191970" stroke="#191970" points="538.5238,-150.6073 542.056,-140.6186 533.0657,-146.2244 538.5238,-150.6073"/>
</g>
<!-- Node24 -->
<g id="node25" class="node">
<title>Node24</title>
<g id="a_node25"><a xlink:href="../../d3/da1/basebulet_8h.html" target="_top" xlink:title="basebulet.h">
<polygon fill="none" stroke="#000000" points="300.1416,-177.5 300.1416,-199.5 388.5342,-199.5 388.5342,-177.5 300.1416,-177.5"/>
<text text-anchor="middle" x="344.3379" y="-184.3" font-family="Helvetica,sans-Serif" font-size="14.00" fill="#000000">basebulet.h</text>
</a>
</g>
</g>
<!-- Node23&#45;&gt;Node24 -->
<g id="edge33" class="edge">
<title>Node23&#45;&gt;Node24</title>
<path fill="none" stroke="#191970" d="M341.0903,-236.4026C341.5987,-228.9034 342.2862,-218.7626 342.8977,-209.7421"/>
<polygon fill="#191970" stroke="#191970" points="346.4044,-209.7616 343.5889,-199.5477 339.4204,-209.288 346.4044,-209.7616"/>
</g>
<!-- Node24&#45;&gt;Node5 -->
<g id="edge34" class="edge">
<title>Node24&#45;&gt;Node5</title>
<path fill="none" stroke="#191970" d="M383.0849,-177.4026C416.7494,-167.7608 465.6608,-153.7522 501.9019,-143.3724"/>
<polygon fill="#191970" stroke="#191970" points="503.1148,-146.6659 511.7646,-140.5477 501.1874,-139.9364 503.1148,-146.6659"/>
</g>
<!-- Node26 -->
<g id="node27" class="node">
<title>Node26</title>
<polygon fill="none" stroke="#bfbfbf" points="1072.9482,-177.5 1072.9482,-199.5 1103.7275,-199.5 1103.7275,-177.5 1072.9482,-177.5"/>
<text text-anchor="middle" x="1088.3379" y="-184.3" font-family="Helvetica,sans-Serif" font-size="14.00" fill="#000000">Qt</text>
</g>
<!-- Node25&#45;&gt;Node26 -->
<g id="edge36" class="edge">
<title>Node25&#45;&gt;Node26</title>
<path fill="none" stroke="#191970" d="M1062.3568,-236.4026C1066.603,-228.5738 1072.4106,-217.866 1077.4582,-208.5594"/>
<polygon fill="#191970" stroke="#191970" points="1080.6549,-210.0067 1082.3459,-199.5477 1074.5016,-206.6693 1080.6549,-210.0067"/>
</g>
<!-- Node27&#45;&gt;Node5 -->
<g id="edge38" class="edge">
<title>Node27&#45;&gt;Node5</title>
<path fill="none" stroke="#191970" d="M618.2752,-236.3253C603.9424,-228.0523 585.85,-215.5414 574.3379,-200 563.5005,-185.3695 557.3239,-165.5024 553.9597,-150.5869"/>
<polygon fill="#191970" stroke="#191970" points="557.3837,-149.8604 551.9807,-140.7469 550.5212,-151.2407 557.3837,-149.8604"/>
</g>
<!-- Node28&#45;&gt;Node2 -->
<g id="edge40" class="edge">
<title>Node28&#45;&gt;Node2</title>
<path fill="none" stroke="#191970" d="M62.9539,-295.3403C46.0184,-287.9061 27.1665,-276.2663 17.3379,-259 8.5604,-243.5802 13.8522,-223.5407 20.2923,-208.7701"/>
<polygon fill="#191970" stroke="#191970" points="23.5691,-210.0336 24.7755,-199.5076 17.2684,-206.9839 23.5691,-210.0336"/>
</g>
<!-- Node28&#45;&gt;Node5 -->
<g id="edge44" class="edge">
<title>Node28&#45;&gt;Node5</title>
<path fill="none" stroke="#191970" d="M91.4307,-295.2367C84.443,-280.1767 75.2998,-253.367 88.3379,-236 133.1754,-176.2756 346.5774,-147.7101 467.0475,-136.1388"/>
<polygon fill="#191970" stroke="#191970" points="467.7098,-139.592 477.3377,-135.17 467.0537,-132.6229 467.7098,-139.592"/>
</g>
<!-- Node29 -->
<g id="node30" class="node">
<title>Node29</title>
<g id="a_node30"><a xlink:href="../../d2/d06/listbsemap_8h.html" target="_top" xlink:title="maps/listbsemap.h">
<polygon fill="none" stroke="#000000" points="96.9795,-236.5 96.9795,-258.5 229.6963,-258.5 229.6963,-236.5 96.9795,-236.5"/>
<text text-anchor="middle" x="163.3379" y="-243.3" font-family="Helvetica,sans-Serif" font-size="14.00" fill="#000000">maps/listbsemap.h</text>
</a>
</g>
</g>
<!-- Node28&#45;&gt;Node29 -->
<g id="edge41" class="edge">
<title>Node28&#45;&gt;Node29</title>
<path fill="none" stroke="#191970" d="M109.752,-295.4026C119.2471,-286.9145 132.528,-275.0421 143.4924,-265.2407"/>
<polygon fill="#191970" stroke="#191970" points="145.8567,-267.8218 150.9795,-258.5477 141.1914,-262.603 145.8567,-267.8218"/>
</g>
<!-- Node29&#45;&gt;Node2 -->
<g id="edge43" class="edge">
<title>Node29&#45;&gt;Node2</title>
<path fill="none" stroke="#191970" d="M138.5097,-236.4026C117.8601,-227.1728 88.2579,-213.9415 65.3948,-203.7224"/>
<polygon fill="#191970" stroke="#191970" points="66.6125,-200.433 56.0548,-199.5477 63.7561,-206.8237 66.6125,-200.433"/>
</g>
<!-- Node29&#45;&gt;Node19 -->
<g id="edge42" class="edge">
<title>Node29&#45;&gt;Node19</title>
<path fill="none" stroke="#191970" d="M219.6881,-236.4849C267.1387,-227.108 336.7676,-213.1109 397.3379,-200 402.4307,-198.8976 407.8068,-197.6986 413.071,-196.5045"/>
<polygon fill="#191970" stroke="#191970" points="413.9858,-199.8857 422.952,-194.2414 412.423,-193.0624 413.9858,-199.8857"/>
</g>
<!-- Node31&#45;&gt;Node10 -->
<g id="edge47" class="edge">
<title>Node31&#45;&gt;Node10</title>
<path fill="none" stroke="#191970" d="M791.0854,-296.6797C793.8685,-296.0677 796.642,-295.4987 799.3379,-295 867.5329,-282.3857 1061.9132,-309.6022 1109.3379,-259 1117.7541,-250.0199 1115.8988,-129.6591 1112.3379,-118 1109.2238,-107.8039 1103.105,-97.8164 1097.0446,-89.6513"/>
<polygon fill="#191970" stroke="#191970" points="1099.5966,-87.2368 1090.6364,-81.5829 1094.1151,-91.5904 1099.5966,-87.2368"/>
</g>
</g>
</svg>
