<?xml version="1.0" encoding="UTF-8" standalone="no"?>
<!DOCTYPE svg PUBLIC "-//W3C//DTD SVG 1.1//EN"
 "http://www.w3.org/Graphics/SVG/1.1/DTD/svg11.dtd">
<!-- Generated by graphviz version 2.40.1 (20161225.0304)
 -->
<!-- Title: std::map&lt; K, T &gt; Pages: 1 -->
<svg width="152pt" height="192pt"
 viewBox="0.00 0.00 152.37 192.00" xmlns="http://www.w3.org/2000/svg" xmlns:xlink="http://www.w3.org/1999/xlink">
<g id="graph0" class="graph" transform="scale(1 1) rotate(0) translate(4 188)">
<title>std::map&lt; K, T &gt;</title>
<!-- Node646 -->
<g id="node1" class="node">
<title>Node646</title>
<polygon fill="#bfbfbf" stroke="#000000" points="0,-.5 0,-66.5 118.9971,-66.5 118.9971,-.5 0,-.5"/>
<text text-anchor="middle" x="59.4985" y="-51.3" font-family="Helvetica,sans-Serif" font-size="14.00" fill="#000000">std::map&lt; K, T &gt;</text>
<polyline fill="none" stroke="#000000" points="0,-44.5 118.9971,-44.5 "/>
<text text-anchor="middle" x="59.4985" y="-29.3" font-family="Helvetica,sans-Serif" font-size="14.00" fill="#000000"> </text>
<polyline fill="none" stroke="#000000" points="0,-22.5 118.9971,-22.5 "/>
<text text-anchor="middle" x="59.4985" y="-7.3" font-family="Helvetica,sans-Serif" font-size="14.00" fill="#000000"> </text>
</g>
<!-- Node647 -->
<g id="node2" class="node">
<title>Node647</title>
<polygon fill="none" stroke="#bfbfbf" points="12.9985,-117.5 12.9985,-183.5 41.9985,-183.5 41.9985,-117.5 12.9985,-117.5"/>
<text text-anchor="middle" x="27.1675" y="-168.3" font-family="Helvetica,sans-Serif" font-size="14.00" fill="#000000">K</text>
<polyline fill="none" stroke="#bfbfbf" points="12.9985,-161.5 41.3364,-161.5 "/>
<text text-anchor="middle" x="27.1675" y="-146.3" font-family="Helvetica,sans-Serif" font-size="14.00" fill="#000000"> </text>
<polyline fill="none" stroke="#bfbfbf" points="12.9985,-139.5 41.3364,-139.5 "/>
<text text-anchor="middle" x="27.1675" y="-124.3" font-family="Helvetica,sans-Serif" font-size="14.00" fill="#000000"> </text>
</g>
<!-- Node647&#45;&gt;Node646 -->
<g id="edge1" class="edge">
<title>Node647&#45;&gt;Node646</title>
<path fill="none" stroke="#404040" d="M24.7637,-117.3563C24.7707,-106.84 25.7066,-95.2786 28.647,-85 29.3412,-82.5731 30.1802,-80.1445 31.1304,-77.7362"/>
<polygon fill="none" stroke="#404040" points="31.2033,-77.5794 30.1049,-70.4524 36.2612,-66.6974 37.3596,-73.8244 31.2033,-77.5794"/>
<text text-anchor="middle" x="49.9243" y="-87.8" font-family="Helvetica,sans-Serif" font-size="14.00" fill="#000000"> +keys</text>
</g>
<!-- Node648 -->
<g id="node3" class="node">
<title>Node648</title>
<polygon fill="none" stroke="#bfbfbf" points="76.9985,-117.5 76.9985,-183.5 105.9985,-183.5 105.9985,-117.5 76.9985,-117.5"/>
<text text-anchor="middle" x="91.2744" y="-168.3" font-family="Helvetica,sans-Serif" font-size="14.00" fill="#000000">T</text>
<polyline fill="none" stroke="#bfbfbf" points="76.9985,-161.5 105.5503,-161.5 "/>
<text text-anchor="middle" x="91.2744" y="-146.3" font-family="Helvetica,sans-Serif" font-size="14.00" fill="#000000"> </text>
<polyline fill="none" stroke="#bfbfbf" points="76.9985,-139.5 105.5503,-139.5 "/>
<text text-anchor="middle" x="91.2744" y="-124.3" font-family="Helvetica,sans-Serif" font-size="14.00" fill="#000000"> </text>
</g>
<!-- Node648&#45;&gt;Node646 -->
<g id="edge2" class="edge">
<title>Node648&#45;&gt;Node646</title>
<path fill="none" stroke="#404040" d="M82.4142,-117.2855C79.1376,-105.3053 75.3818,-91.5732 71.8718,-78.7399"/>
<polygon fill="none" stroke="#404040" points="71.7714,-78.3725 66.3302,-73.6403 68.6056,-66.7976 74.0468,-71.5298 71.7714,-78.3725"/>
<text text-anchor="middle" x="109.9346" y="-87.8" font-family="Helvetica,sans-Serif" font-size="14.00" fill="#000000"> +elements</text>
</g>
</g>
</svg>
