<?xml version="1.0" encoding="UTF-8" standalone="no"?>
<!DOCTYPE svg PUBLIC "-//W3C//DTD SVG 1.1//EN"
 "http://www.w3.org/Graphics/SVG/1.1/DTD/svg11.dtd">
<!-- Generated by graphviz version 2.40.1 (20161225.0304)
 -->
<!-- Title: Core/core.h Pages: 1 -->
<svg width="130pt" height="149pt"
 viewBox="0.00 0.00 129.84 149.00" xmlns="http://www.w3.org/2000/svg" xmlns:xlink="http://www.w3.org/1999/xlink">
<g id="graph0" class="graph" transform="scale(1 1) rotate(0) translate(4 145)">
<title>Core/core.h</title>
<!-- Node0 -->
<g id="node1" class="node">
<title>Node0</title>
<polygon fill="#bfbfbf" stroke="#000000" points="16.3481,-118.5 16.3481,-140.5 105.4927,-140.5 105.4927,-118.5 16.3481,-118.5"/>
<text text-anchor="middle" x="60.9204" y="-125.3" font-family="Helvetica,sans-Serif" font-size="14.00" fill="#000000">Core/core.h</text>
</g>
<!-- Node1 -->
<g id="node2" class="node">
<title>Node1</title>
<g id="a_node2"><a xlink:href="../../d4/d51/a00017.html" target="_top" xlink:title="core_global.h">
<polygon fill="none" stroke="#000000" points="10.8896,-59.5 10.8896,-81.5 110.9512,-81.5 110.9512,-59.5 10.8896,-59.5"/>
<text text-anchor="middle" x="60.9204" y="-66.3" font-family="Helvetica,sans-Serif" font-size="14.00" fill="#000000">core_global.h</text>
</a>
</g>
</g>
<!-- Node0&#45;&gt;Node1 -->
<g id="edge1" class="edge">
<title>Node0&#45;&gt;Node1</title>
<path fill="none" stroke="#191970" d="M60.9204,-118.4026C60.9204,-110.9034 60.9204,-100.7626 60.9204,-91.7421"/>
<polygon fill="#191970" stroke="#191970" points="64.4205,-91.5477 60.9204,-81.5477 57.4205,-91.5477 64.4205,-91.5477"/>
</g>
<!-- Node2 -->
<g id="node3" class="node">
<title>Node2</title>
<polygon fill="none" stroke="#bfbfbf" points="0,-.5 0,-22.5 121.8408,-22.5 121.8408,-.5 0,-.5"/>
<text text-anchor="middle" x="60.9204" y="-7.3" font-family="Helvetica,sans-Serif" font-size="14.00" fill="#000000">QtCore/qglobal.h</text>
</g>
<!-- Node1&#45;&gt;Node2 -->
<g id="edge2" class="edge">
<title>Node1&#45;&gt;Node2</title>
<path fill="none" stroke="#191970" d="M60.9204,-59.4026C60.9204,-51.9034 60.9204,-41.7626 60.9204,-32.7421"/>
<polygon fill="#191970" stroke="#191970" points="64.4205,-32.5477 60.9204,-22.5477 57.4205,-32.5477 64.4205,-32.5477"/>
</g>
</g>
</svg>
