<?xml version="1.0" encoding="UTF-8" standalone="no"?>
<!DOCTYPE svg PUBLIC "-//W3C//DTD SVG 1.1//EN"
 "http://www.w3.org/Graphics/SVG/1.1/DTD/svg11.dtd">
<!-- Generated by graphviz version 2.40.1 (20161225.0304)
 -->
<!-- Title: std::logic_error Pages: 1 -->
<svg width="579pt" height="281pt"
 viewBox="0.00 0.00 579.34 281.00" xmlns="http://www.w3.org/2000/svg" xmlns:xlink="http://www.w3.org/1999/xlink">
<g id="graph0" class="graph" transform="scale(1 1) rotate(0) translate(4 277)">
<title>std::logic_error</title>
<!-- Node610 -->
<g id="node1" class="node">
<title>Node610</title>
<polygon fill="#bfbfbf" stroke="#000000" points="239.562,-103.5 239.562,-169.5 348.1548,-169.5 348.1548,-103.5 239.562,-103.5"/>
<text text-anchor="middle" x="293.8584" y="-154.3" font-family="Helvetica,sans-Serif" font-size="14.00" fill="#000000">std::logic_error</text>
<polyline fill="none" stroke="#000000" points="239.562,-147.5 348.1548,-147.5 "/>
<text text-anchor="middle" x="293.8584" y="-132.3" font-family="Helvetica,sans-Serif" font-size="14.00" fill="#000000"> </text>
<polyline fill="none" stroke="#000000" points="239.562,-125.5 348.1548,-125.5 "/>
<text text-anchor="middle" x="293.8584" y="-110.3" font-family="Helvetica,sans-Serif" font-size="14.00" fill="#000000"> </text>
</g>
<!-- Node612 -->
<g id="node3" class="node">
<title>Node612</title>
<g id="a_node3"><a xlink:title="STL class. ">
<polygon fill="none" stroke="#bfbfbf" points="0,-.5 0,-66.5 125.7168,-66.5 125.7168,-.5 0,-.5"/>
<text text-anchor="middle" x="62.8584" y="-51.3" font-family="Helvetica,sans-Serif" font-size="14.00" fill="#000000">std::domain_error</text>
<polyline fill="none" stroke="#bfbfbf" points="0,-44.5 125.7168,-44.5 "/>
<text text-anchor="middle" x="62.8584" y="-29.3" font-family="Helvetica,sans-Serif" font-size="14.00" fill="#000000"> </text>
<polyline fill="none" stroke="#bfbfbf" points="0,-22.5 125.7168,-22.5 "/>
<text text-anchor="middle" x="62.8584" y="-7.3" font-family="Helvetica,sans-Serif" font-size="14.00" fill="#000000"> </text>
</a>
</g>
</g>
<!-- Node610&#45;&gt;Node612 -->
<g id="edge2" class="edge">
<title>Node610&#45;&gt;Node612</title>
<path fill="none" stroke="#191970" d="M229.9274,-109.2694C200.5662,-96.6252 165.3479,-81.2639 133.8584,-67 131.2512,-65.819 128.594,-64.6064 125.9125,-63.3752"/>
<polygon fill="none" stroke="#191970" points="228.673,-112.5398 239.2424,-113.2744 231.438,-106.109 228.673,-112.5398"/>
</g>
<!-- Node613 -->
<g id="node4" class="node">
<title>Node613</title>
<g id="a_node4"><a xlink:title="STL class. ">
<polygon fill="none" stroke="#bfbfbf" points="143.3208,-.5 143.3208,-66.5 292.396,-66.5 292.396,-.5 143.3208,-.5"/>
<text text-anchor="middle" x="217.8584" y="-51.3" font-family="Helvetica,sans-Serif" font-size="14.00" fill="#000000">std::invalid_argument</text>
<polyline fill="none" stroke="#bfbfbf" points="143.3208,-44.5 292.396,-44.5 "/>
<text text-anchor="middle" x="217.8584" y="-29.3" font-family="Helvetica,sans-Serif" font-size="14.00" fill="#000000"> </text>
<polyline fill="none" stroke="#bfbfbf" points="143.3208,-22.5 292.396,-22.5 "/>
<text text-anchor="middle" x="217.8584" y="-7.3" font-family="Helvetica,sans-Serif" font-size="14.00" fill="#000000"> </text>
</a>
</g>
</g>
<!-- Node610&#45;&gt;Node613 -->
<g id="edge3" class="edge">
<title>Node610&#45;&gt;Node613</title>
<path fill="none" stroke="#191970" d="M263.3529,-95.157C256.347,-85.6621 248.9872,-75.6877 242.2778,-66.5947"/>
<polygon fill="none" stroke="#191970" points="260.6395,-97.3746 269.3932,-103.3432 266.2722,-93.2185 260.6395,-97.3746"/>
</g>
<!-- Node614 -->
<g id="node5" class="node">
<title>Node614</title>
<g id="a_node5"><a xlink:title="STL class. ">
<polygon fill="none" stroke="#bfbfbf" points="310.8862,-.5 310.8862,-66.5 428.8306,-66.5 428.8306,-.5 310.8862,-.5"/>
<text text-anchor="middle" x="369.8584" y="-51.3" font-family="Helvetica,sans-Serif" font-size="14.00" fill="#000000">std::length_error</text>
<polyline fill="none" stroke="#bfbfbf" points="310.8862,-44.5 428.8306,-44.5 "/>
<text text-anchor="middle" x="369.8584" y="-29.3" font-family="Helvetica,sans-Serif" font-size="14.00" fill="#000000"> </text>
<polyline fill="none" stroke="#bfbfbf" points="310.8862,-22.5 428.8306,-22.5 "/>
<text text-anchor="middle" x="369.8584" y="-7.3" font-family="Helvetica,sans-Serif" font-size="14.00" fill="#000000"> </text>
</a>
</g>
</g>
<!-- Node610&#45;&gt;Node614 -->
<g id="edge4" class="edge">
<title>Node610&#45;&gt;Node614</title>
<path fill="none" stroke="#191970" d="M324.3639,-95.157C331.3698,-85.6621 338.7296,-75.6877 345.439,-66.5947"/>
<polygon fill="none" stroke="#191970" points="321.4446,-93.2185 318.3236,-103.3432 327.0773,-97.3746 321.4446,-93.2185"/>
</g>
<!-- Node615 -->
<g id="node6" class="node">
<title>Node615</title>
<g id="a_node6"><a xlink:title="STL class. ">
<polygon fill="none" stroke="#bfbfbf" points="446.3726,-.5 446.3726,-66.5 571.3442,-66.5 571.3442,-.5 446.3726,-.5"/>
<text text-anchor="middle" x="508.8584" y="-51.3" font-family="Helvetica,sans-Serif" font-size="14.00" fill="#000000">std::out_of_range</text>
<polyline fill="none" stroke="#bfbfbf" points="446.3726,-44.5 571.3442,-44.5 "/>
<text text-anchor="middle" x="508.8584" y="-29.3" font-family="Helvetica,sans-Serif" font-size="14.00" fill="#000000"> </text>
<polyline fill="none" stroke="#bfbfbf" points="446.3726,-22.5 571.3442,-22.5 "/>
<text text-anchor="middle" x="508.8584" y="-7.3" font-family="Helvetica,sans-Serif" font-size="14.00" fill="#000000"> </text>
</a>
</g>
</g>
<!-- Node610&#45;&gt;Node615 -->
<g id="edge5" class="edge">
<title>Node610&#45;&gt;Node615</title>
<path fill="none" stroke="#191970" d="M357.6584,-105.9353C385.5646,-92.5663 418.2058,-76.9289 446.0037,-63.6118"/>
<polygon fill="none" stroke="#191970" points="355.8962,-102.8986 348.3899,-110.3756 358.9206,-109.2115 355.8962,-102.8986"/>
</g>
<!-- Node611 -->
<g id="node2" class="node">
<title>Node611</title>
<g id="a_node2"><a xlink:title="STL class. ">
<polygon fill="none" stroke="#bfbfbf" points="242.6655,-206.5 242.6655,-272.5 345.0513,-272.5 345.0513,-206.5 242.6655,-206.5"/>
<text text-anchor="middle" x="293.8584" y="-257.3" font-family="Helvetica,sans-Serif" font-size="14.00" fill="#000000">std::exception</text>
<polyline fill="none" stroke="#bfbfbf" points="242.6655,-250.5 345.0513,-250.5 "/>
<text text-anchor="middle" x="293.8584" y="-235.3" font-family="Helvetica,sans-Serif" font-size="14.00" fill="#000000"> </text>
<polyline fill="none" stroke="#bfbfbf" points="242.6655,-228.5 345.0513,-228.5 "/>
<text text-anchor="middle" x="293.8584" y="-213.3" font-family="Helvetica,sans-Serif" font-size="14.00" fill="#000000"> </text>
</a>
</g>
</g>
<!-- Node611&#45;&gt;Node610 -->
<g id="edge1" class="edge">
<title>Node611&#45;&gt;Node610</title>
<path fill="none" stroke="#191970" d="M293.8584,-196.1362C293.8584,-187.256 293.8584,-178.0447 293.8584,-169.5947"/>
<polygon fill="none" stroke="#191970" points="290.3585,-196.3432 293.8584,-206.3432 297.3585,-196.3432 290.3585,-196.3432"/>
</g>
</g>
</svg>
