<?xml version="1.0" encoding="UTF-8" standalone="no"?>
<!DOCTYPE svg PUBLIC "-//W3C//DTD SVG 1.1//EN"
 "http://www.w3.org/Graphics/SVG/1.1/DTD/svg11.dtd">
<!-- Generated by graphviz version 2.40.1 (20161225.0304)
 -->
<!-- Title: ListBseMap::proccessAllInR Pages: 1 -->
<svg width="439pt" height="72pt"
 viewBox="0.00 0.00 438.61 72.00" xmlns="http://www.w3.org/2000/svg" xmlns:xlink="http://www.w3.org/1999/xlink">
<g id="graph0" class="graph" transform="scale(1 1) rotate(0) translate(4 68)">
<title>ListBseMap::proccessAllInR</title>
<!-- Node14 -->
<g id="node1" class="node">
<title>Node14</title>
<polygon fill="#bfbfbf" stroke="#000000" points="0,-20.5 0,-42.5 190.2891,-42.5 190.2891,-20.5 0,-20.5"/>
<text text-anchor="middle" x="95.1445" y="-27.3" font-family="Helvetica,sans-Serif" font-size="14.00" fill="#000000">ListBseMap::proccessAllInR</text>
</g>
<!-- Node15 -->
<g id="node2" class="node">
<title>Node15</title>
<g id="a_node2"><a xlink:href="../../de/d2b/classIBaseGameElement.html#ae2be75da1a2a9edfabe993770e24654a" target="_top" xlink:title="IBaseGameElement::nextStep">
<polygon fill="none" stroke="#000000" points="226.2891,-41.5 226.2891,-63.5 430.6123,-63.5 430.6123,-41.5 226.2891,-41.5"/>
<text text-anchor="middle" x="328.4507" y="-48.3" font-family="Helvetica,sans-Serif" font-size="14.00" fill="#000000">IBaseGameElement::nextStep</text>
</a>
</g>
</g>
<!-- Node14&#45;&gt;Node15 -->
<g id="edge1" class="edge">
<title>Node14&#45;&gt;Node15</title>
<path fill="none" stroke="#191970" d="M190.3756,-40.0718C198.7978,-40.8299 207.3744,-41.6019 215.9214,-42.3712"/>
<polygon fill="#191970" stroke="#191970" points="215.6567,-45.8614 225.9302,-43.2721 216.2843,-38.8896 215.6567,-45.8614"/>
</g>
<!-- Node16 -->
<g id="node3" class="node">
<title>Node16</title>
<g id="a_node3"><a xlink:href="../../dc/d5f/baseutil_8h.html#a1ab36c07a61bd9f450ed0ac1ba68ed94" target="_top" xlink:title="distanceBetweenElement">
<polygon fill="none" stroke="#000000" points="241.458,-.5 241.458,-22.5 415.4434,-22.5 415.4434,-.5 241.458,-.5"/>
<text text-anchor="middle" x="328.4507" y="-7.3" font-family="Helvetica,sans-Serif" font-size="14.00" fill="#000000">distanceBetweenElement</text>
</a>
</g>
</g>
<!-- Node14&#45;&gt;Node16 -->
<g id="edge2" class="edge">
<title>Node14&#45;&gt;Node16</title>
<path fill="none" stroke="#191970" d="M190.3756,-23.3364C203.8299,-22.183 217.678,-20.9959 231.1704,-19.8393"/>
<polygon fill="#191970" stroke="#191970" points="231.7418,-23.3032 241.4063,-18.9618 231.1439,-16.3288 231.7418,-23.3032"/>
</g>
</g>
</svg>
