<?xml version="1.0" encoding="UTF-8" standalone="no"?>
<!DOCTYPE svg PUBLIC "-//W3C//DTD SVG 1.1//EN"
 "http://www.w3.org/Graphics/SVG/1.1/DTD/svg11.dtd">
<!-- Generated by graphviz version 2.40.1 (20161225.0304)
 -->
<!-- Title: ServerConnection Pages: 1 -->
<svg width="257pt" height="450pt"
 viewBox="0.00 0.00 256.65 450.00" xmlns="http://www.w3.org/2000/svg" xmlns:xlink="http://www.w3.org/1999/xlink">
<g id="graph0" class="graph" transform="scale(1 1) rotate(0) translate(4 446)">
<title>ServerConnection</title>
<!-- Node3 -->
<g id="node1" class="node">
<title>Node3</title>
<polygon fill="#bfbfbf" stroke="#000000" points="0,-.5 0,-164.5 157.627,-164.5 157.627,-.5 0,-.5"/>
<text text-anchor="middle" x="78.8135" y="-149.3" font-family="Helvetica,sans-Serif" font-size="14.00" fill="#000000">ServerConnection</text>
<polyline fill="none" stroke="#000000" points="0,-142.5 157.627,-142.5 "/>
<text text-anchor="start" x="8" y="-127.3" font-family="Helvetica,sans-Serif" font-size="14.00" fill="#000000"># server</text>
<text text-anchor="start" x="8" y="-113.3" font-family="Helvetica,sans-Serif" font-size="14.00" fill="#000000"># connections</text>
<polyline fill="none" stroke="#000000" points="0,-106.5 157.627,-106.5 "/>
<text text-anchor="start" x="8" y="-91.3" font-family="Helvetica,sans-Serif" font-size="14.00" fill="#000000">+ ~ServerConnection()</text>
<text text-anchor="start" x="8" y="-77.3" font-family="Helvetica,sans-Serif" font-size="14.00" fill="#000000">+ startServer()</text>
<text text-anchor="start" x="8" y="-63.3" font-family="Helvetica,sans-Serif" font-size="14.00" fill="#000000">+ receiveResponce()</text>
<text text-anchor="start" x="8" y="-49.3" font-family="Helvetica,sans-Serif" font-size="14.00" fill="#000000">+ getServerInstance()</text>
<text text-anchor="start" x="8" y="-35.3" font-family="Helvetica,sans-Serif" font-size="14.00" fill="#000000"># ServerConnection()</text>
<text text-anchor="start" x="8" y="-21.3" font-family="Helvetica,sans-Serif" font-size="14.00" fill="#000000"># run()</text>
<text text-anchor="start" x="8" y="-7.3" font-family="Helvetica,sans-Serif" font-size="14.00" fill="#000000"># onWorkerStop()</text>
</g>
<!-- Node3&#45;&gt;Node3 -->
<g id="edge4" class="edge">
<title>Node3&#45;&gt;Node3</title>
<path fill="none" stroke="#404040" d="M157.8244,-99.134C168.5115,-96.3454 175.627,-90.8008 175.627,-82.5 175.627,-77.5714 173.1185,-73.6145 168.8433,-70.6292"/>
<polygon fill="none" stroke="#404040" points="168.8394,-70.6275 161.7447,-71.9184 157.8244,-65.866 164.9191,-64.5751 168.8394,-70.6275"/>
<text text-anchor="middle" x="207.5371" y="-78.3" font-family="Helvetica,sans-Serif" font-size="14.00" fill="#000000"> #instance</text>
</g>
<!-- Node4 -->
<g id="node2" class="node">
<title>Node4</title>
<polygon fill="none" stroke="#bfbfbf" points="4.1895,-209.5 4.1895,-275.5 75.4375,-275.5 75.4375,-209.5 4.1895,-209.5"/>
<text text-anchor="middle" x="39.8135" y="-260.3" font-family="Helvetica,sans-Serif" font-size="14.00" fill="#000000">QThread</text>
<polyline fill="none" stroke="#bfbfbf" points="4.1895,-253.5 75.4375,-253.5 "/>
<text text-anchor="middle" x="39.8135" y="-238.3" font-family="Helvetica,sans-Serif" font-size="14.00" fill="#000000"> </text>
<polyline fill="none" stroke="#bfbfbf" points="4.1895,-231.5 75.4375,-231.5 "/>
<text text-anchor="middle" x="39.8135" y="-216.3" font-family="Helvetica,sans-Serif" font-size="14.00" fill="#000000"> </text>
</g>
<!-- Node4&#45;&gt;Node3 -->
<g id="edge1" class="edge">
<title>Node4&#45;&gt;Node3</title>
<path fill="none" stroke="#191970" d="M50.3147,-199.4182C52.9369,-188.6602 55.8373,-176.7614 58.7543,-164.794"/>
<polygon fill="none" stroke="#191970" points="46.8621,-198.8035 47.8943,-209.3479 53.663,-200.4612 46.8621,-198.8035"/>
</g>
<!-- Node5 -->
<g id="node3" class="node">
<title>Node5</title>
<g id="a_node3"><a xlink:href="../../de/d1e/classMailSender.html" target="_top" xlink:title="{MailSender\n||+ receiveResponce()\l+ setDefaultReceiver()\l}">
<polygon fill="none" stroke="#000000" points="92.981,-202.5 92.981,-282.5 248.646,-282.5 248.646,-202.5 92.981,-202.5"/>
<text text-anchor="middle" x="170.8135" y="-267.3" font-family="Helvetica,sans-Serif" font-size="14.00" fill="#000000">MailSender</text>
<polyline fill="none" stroke="#000000" points="92.981,-260.5 248.646,-260.5 "/>
<text text-anchor="middle" x="170.8135" y="-245.3" font-family="Helvetica,sans-Serif" font-size="14.00" fill="#000000"> </text>
<polyline fill="none" stroke="#000000" points="92.981,-238.5 248.646,-238.5 "/>
<text text-anchor="start" x="100.981" y="-223.3" font-family="Helvetica,sans-Serif" font-size="14.00" fill="#000000">+ receiveResponce()</text>
<text text-anchor="start" x="100.981" y="-209.3" font-family="Helvetica,sans-Serif" font-size="14.00" fill="#000000">+ setDefaultReceiver()</text>
</a>
</g>
</g>
<!-- Node5&#45;&gt;Node3 -->
<g id="edge2" class="edge">
<title>Node5&#45;&gt;Node3</title>
<path fill="none" stroke="#191970" d="M142.5029,-193.2642C137.2756,-184.1732 131.6887,-174.4569 126.0768,-164.697"/>
<polygon fill="none" stroke="#191970" points="139.5791,-195.2008 147.598,-202.1252 145.6474,-191.7115 139.5791,-195.2008"/>
</g>
<!-- Node6 -->
<g id="node4" class="node">
<title>Node6</title>
<g id="a_node4"><a xlink:href="../../d7/d58/classMailReceiver.html" target="_top" xlink:title="{MailReceiver\n|# messages\l# mutex\l# isQueueLock\l|+ sendMail()\l# nextMessage()\l}">
<polygon fill="none" stroke="#000000" points="110.6792,-333.5 110.6792,-441.5 230.9478,-441.5 230.9478,-333.5 110.6792,-333.5"/>
<text text-anchor="middle" x="170.8135" y="-426.3" font-family="Helvetica,sans-Serif" font-size="14.00" fill="#000000">MailReceiver</text>
<polyline fill="none" stroke="#000000" points="110.6792,-419.5 230.9478,-419.5 "/>
<text text-anchor="start" x="118.6792" y="-404.3" font-family="Helvetica,sans-Serif" font-size="14.00" fill="#000000"># messages</text>
<text text-anchor="start" x="118.6792" y="-390.3" font-family="Helvetica,sans-Serif" font-size="14.00" fill="#000000"># mutex</text>
<text text-anchor="start" x="118.6792" y="-376.3" font-family="Helvetica,sans-Serif" font-size="14.00" fill="#000000"># isQueueLock</text>
<polyline fill="none" stroke="#000000" points="110.6792,-369.5 230.9478,-369.5 "/>
<text text-anchor="start" x="118.6792" y="-354.3" font-family="Helvetica,sans-Serif" font-size="14.00" fill="#000000">+ sendMail()</text>
<text text-anchor="start" x="118.6792" y="-340.3" font-family="Helvetica,sans-Serif" font-size="14.00" fill="#000000"># nextMessage()</text>
</a>
</g>
</g>
<!-- Node6&#45;&gt;Node5 -->
<g id="edge3" class="edge">
<title>Node6&#45;&gt;Node5</title>
<path fill="none" stroke="#404040" d="M170.8135,-333.0948C170.8135,-320.5586 170.8135,-307.2514 170.8135,-294.8067"/>
<polygon fill="none" stroke="#404040" points="170.8136,-294.7101 166.8135,-288.7101 170.8135,-282.7101 174.8135,-288.71 170.8136,-294.7101"/>
<text text-anchor="middle" x="201.5479" y="-303.8" font-family="Helvetica,sans-Serif" font-size="14.00" fill="#000000"> #receiver</text>
</g>
</g>
</svg>
