<?xml version="1.0" encoding="UTF-8" standalone="no"?>
<!DOCTYPE svg PUBLIC "-//W3C//DTD SVG 1.1//EN"
 "http://www.w3.org/Graphics/SVG/1.1/DTD/svg11.dtd">
<!-- Generated by graphviz version 2.40.1 (20161225.0304)
 -->
<!-- Title: MainGameLoop Pages: 1 -->
<svg width="407pt" height="416pt"
 viewBox="0.00 0.00 406.76 416.00" xmlns="http://www.w3.org/2000/svg" xmlns:xlink="http://www.w3.org/1999/xlink">
<g id="graph0" class="graph" transform="scale(1 1) rotate(0) translate(4 412)">
<title>MainGameLoop</title>
<!-- Node635 -->
<g id="node1" class="node">
<title>Node635</title>
<polygon fill="#bfbfbf" stroke="#000000" points="73.5518,-.5 73.5518,-220.5 274.7168,-220.5 274.7168,-.5 73.5518,-.5"/>
<text text-anchor="middle" x="174.1343" y="-205.3" font-family="Helvetica,sans-Serif" font-size="14.00" fill="#000000">MainGameLoop</text>
<polyline fill="none" stroke="#000000" points="73.5518,-198.5 274.7168,-198.5 "/>
<text text-anchor="start" x="81.5518" y="-183.3" font-family="Helvetica,sans-Serif" font-size="14.00" fill="#000000"># isWork</text>
<text text-anchor="start" x="81.5518" y="-169.3" font-family="Helvetica,sans-Serif" font-size="14.00" fill="#000000"># watchers</text>
<text text-anchor="start" x="81.5518" y="-155.3" font-family="Helvetica,sans-Serif" font-size="14.00" fill="#000000"># gamersList</text>
<text text-anchor="start" x="81.5518" y="-141.3" font-family="Helvetica,sans-Serif" font-size="14.00" fill="#000000"># gamersItems</text>
<polyline fill="none" stroke="#000000" points="73.5518,-134.5 274.7168,-134.5 "/>
<text text-anchor="start" x="81.5518" y="-119.3" font-family="Helvetica,sans-Serif" font-size="14.00" fill="#000000">+ ~MainGameLoop()</text>
<text text-anchor="start" x="81.5518" y="-105.3" font-family="Helvetica,sans-Serif" font-size="14.00" fill="#000000">+ startLooper()</text>
<text text-anchor="start" x="81.5518" y="-91.3" font-family="Helvetica,sans-Serif" font-size="14.00" fill="#000000">+ getLooperInstance()</text>
<text text-anchor="start" x="81.5518" y="-77.3" font-family="Helvetica,sans-Serif" font-size="14.00" fill="#000000"># run()</text>
<text text-anchor="start" x="81.5518" y="-63.3" font-family="Helvetica,sans-Serif" font-size="14.00" fill="#000000"># getAllMapAsDiff()</text>
<text text-anchor="start" x="81.5518" y="-49.3" font-family="Helvetica,sans-Serif" font-size="14.00" fill="#000000">&#45; MainGameLoop()</text>
<text text-anchor="start" x="81.5518" y="-35.3" font-family="Helvetica,sans-Serif" font-size="14.00" fill="#000000">&#45; proccessGamerMessage()</text>
<text text-anchor="start" x="81.5518" y="-21.3" font-family="Helvetica,sans-Serif" font-size="14.00" fill="#000000">&#45; proccessWatcherMessage()</text>
<text text-anchor="start" x="81.5518" y="-7.3" font-family="Helvetica,sans-Serif" font-size="14.00" fill="#000000">&#45; getProccessorForMessage()</text>
</g>
<!-- Node635&#45;&gt;Node635 -->
<g id="edge4" class="edge">
<title>Node635&#45;&gt;Node635</title>
<path fill="none" stroke="#404040" d="M274.917,-131.4784C285.7493,-127.4381 292.7168,-120.4453 292.7168,-110.5 292.7168,-104.4396 290.1295,-99.4755 285.657,-95.6079"/>
<polygon fill="none" stroke="#404040" points="285.3572,-95.438 278.165,-95.9599 274.917,-89.5216 282.1092,-88.9998 285.3572,-95.438"/>
<text text-anchor="middle" x="323.0649" y="-106.3" font-family="Helvetica,sans-Serif" font-size="14.00" fill="#000000"> &#45;instance</text>
</g>
<!-- Node636 -->
<g id="node2" class="node">
<title>Node636</title>
<g id="a_node2"><a xlink:href="$d4/d8f/a00742.html" xlink:title="{MailReceiver\n|# messages\l# mutex\l# isQueueLock\l|+ sendMail()\l# nextMessage()\l}">
<polygon fill="none" stroke="#000000" points="0,-285.5 0,-393.5 120.2686,-393.5 120.2686,-285.5 0,-285.5"/>
<text text-anchor="middle" x="60.1343" y="-378.3" font-family="Helvetica,sans-Serif" font-size="14.00" fill="#000000">MailReceiver</text>
<polyline fill="none" stroke="#000000" points="0,-371.5 120.2686,-371.5 "/>
<text text-anchor="start" x="8" y="-356.3" font-family="Helvetica,sans-Serif" font-size="14.00" fill="#000000"># messages</text>
<text text-anchor="start" x="8" y="-342.3" font-family="Helvetica,sans-Serif" font-size="14.00" fill="#000000"># mutex</text>
<text text-anchor="start" x="8" y="-328.3" font-family="Helvetica,sans-Serif" font-size="14.00" fill="#000000"># isQueueLock</text>
<polyline fill="none" stroke="#000000" points="0,-321.5 120.2686,-321.5 "/>
<text text-anchor="start" x="8" y="-306.3" font-family="Helvetica,sans-Serif" font-size="14.00" fill="#000000">+ sendMail()</text>
<text text-anchor="start" x="8" y="-292.3" font-family="Helvetica,sans-Serif" font-size="14.00" fill="#000000"># nextMessage()</text>
</a>
</g>
</g>
<!-- Node636&#45;&gt;Node635 -->
<g id="edge1" class="edge">
<title>Node636&#45;&gt;Node635</title>
<path fill="none" stroke="#191970" d="M91.7992,-275.8925C100.3553,-258.7051 109.8677,-239.5969 119.3008,-220.648"/>
<polygon fill="none" stroke="#191970" points="88.474,-274.7183 87.1507,-285.2302 94.7405,-277.8379 88.474,-274.7183"/>
</g>
<!-- Node637 -->
<g id="node3" class="node">
<title>Node637</title>
<polygon fill="none" stroke="#bfbfbf" points="138.5103,-306.5 138.5103,-372.5 209.7583,-372.5 209.7583,-306.5 138.5103,-306.5"/>
<text text-anchor="middle" x="174.1343" y="-357.3" font-family="Helvetica,sans-Serif" font-size="14.00" fill="#000000">QThread</text>
<polyline fill="none" stroke="#bfbfbf" points="138.5103,-350.5 209.7583,-350.5 "/>
<text text-anchor="middle" x="174.1343" y="-335.3" font-family="Helvetica,sans-Serif" font-size="14.00" fill="#000000"> </text>
<polyline fill="none" stroke="#bfbfbf" points="138.5103,-328.5 209.7583,-328.5 "/>
<text text-anchor="middle" x="174.1343" y="-313.3" font-family="Helvetica,sans-Serif" font-size="14.00" fill="#000000"> </text>
</g>
<!-- Node637&#45;&gt;Node635 -->
<g id="edge2" class="edge">
<title>Node637&#45;&gt;Node635</title>
<path fill="none" stroke="#191970" d="M174.1343,-296.1007C174.1343,-274.564 174.1343,-247.4727 174.1343,-220.6958"/>
<polygon fill="none" stroke="#191970" points="170.6344,-296.2014 174.1343,-306.2014 177.6344,-296.2015 170.6344,-296.2014"/>
</g>
<!-- Node638 -->
<g id="node4" class="node">
<title>Node638</title>
<g id="a_node4"><a xlink:href="$d4/deb/a00710.html" xlink:title="{IMap\n||+ IMap()\l+ getSize()\l+ insertElement()\l+ proccessAllInR()\l+ getCount()\l+ getElementAtPosition()\l}">
<polygon fill="none" stroke="#000000" points="227.5122,-271.5 227.5122,-407.5 398.7563,-407.5 398.7563,-271.5 227.5122,-271.5"/>
<text text-anchor="middle" x="313.1343" y="-392.3" font-family="Helvetica,sans-Serif" font-size="14.00" fill="#000000">IMap</text>
<polyline fill="none" stroke="#000000" points="227.5122,-385.5 398.7563,-385.5 "/>
<text text-anchor="middle" x="313.1343" y="-370.3" font-family="Helvetica,sans-Serif" font-size="14.00" fill="#000000"> </text>
<polyline fill="none" stroke="#000000" points="227.5122,-363.5 398.7563,-363.5 "/>
<text text-anchor="start" x="235.5122" y="-348.3" font-family="Helvetica,sans-Serif" font-size="14.00" fill="#000000">+ IMap()</text>
<text text-anchor="start" x="235.5122" y="-334.3" font-family="Helvetica,sans-Serif" font-size="14.00" fill="#000000">+ getSize()</text>
<text text-anchor="start" x="235.5122" y="-320.3" font-family="Helvetica,sans-Serif" font-size="14.00" fill="#000000">+ insertElement()</text>
<text text-anchor="start" x="235.5122" y="-306.3" font-family="Helvetica,sans-Serif" font-size="14.00" fill="#000000">+ proccessAllInR()</text>
<text text-anchor="start" x="235.5122" y="-292.3" font-family="Helvetica,sans-Serif" font-size="14.00" fill="#000000">+ getCount()</text>
<text text-anchor="start" x="235.5122" y="-278.3" font-family="Helvetica,sans-Serif" font-size="14.00" fill="#000000">+ getElementAtPosition()</text>
</a>
</g>
</g>
<!-- Node638&#45;&gt;Node635 -->
<g id="edge3" class="edge">
<title>Node638&#45;&gt;Node635</title>
<path fill="none" stroke="#404040" d="M271.806,-271.4125C264.0898,-258.7 255.8158,-245.0688 247.4678,-231.3157"/>
<polygon fill="none" stroke="#404040" points="247.3043,-231.0462 240.7716,-227.9927 241.0777,-220.7881 247.6104,-223.8416 247.3043,-231.0462"/>
<text text-anchor="middle" x="278.0273" y="-241.8" font-family="Helvetica,sans-Serif" font-size="14.00" fill="#000000"> &#45;map</text>
</g>
</g>
</svg>
