<?xml version="1.0" encoding="UTF-8" standalone="no"?>
<!DOCTYPE svg PUBLIC "-//W3C//DTD SVG 1.1//EN"
 "http://www.w3.org/Graphics/SVG/1.1/DTD/svg11.dtd">
<!-- Generated by graphviz version 2.40.1 (20161225.0304)
 -->
<!-- Title: std::queue&lt; T &gt; Pages: 1 -->
<svg width="134pt" height="192pt"
 viewBox="0.00 0.00 133.66 192.00" xmlns="http://www.w3.org/2000/svg" xmlns:xlink="http://www.w3.org/1999/xlink">
<g id="graph0" class="graph" transform="scale(1 1) rotate(0) translate(4 188)">
<title>std::queue&lt; T &gt;</title>
<!-- Node735 -->
<g id="node1" class="node">
<title>Node735</title>
<polygon fill="#bfbfbf" stroke="#000000" points="0,-.5 0,-66.5 113.5762,-66.5 113.5762,-.5 0,-.5"/>
<text text-anchor="middle" x="56.7881" y="-51.3" font-family="Helvetica,sans-Serif" font-size="14.00" fill="#000000">std::queue&lt; T &gt;</text>
<polyline fill="none" stroke="#000000" points="0,-44.5 113.5762,-44.5 "/>
<text text-anchor="middle" x="56.7881" y="-29.3" font-family="Helvetica,sans-Serif" font-size="14.00" fill="#000000"> </text>
<polyline fill="none" stroke="#000000" points="0,-22.5 113.5762,-22.5 "/>
<text text-anchor="middle" x="56.7881" y="-7.3" font-family="Helvetica,sans-Serif" font-size="14.00" fill="#000000"> </text>
</g>
<!-- Node736 -->
<g id="node2" class="node">
<title>Node736</title>
<polygon fill="none" stroke="#bfbfbf" points="42.2881,-117.5 42.2881,-183.5 71.2881,-183.5 71.2881,-117.5 42.2881,-117.5"/>
<text text-anchor="middle" x="56.564" y="-168.3" font-family="Helvetica,sans-Serif" font-size="14.00" fill="#000000">T</text>
<polyline fill="none" stroke="#bfbfbf" points="42.2881,-161.5 70.8398,-161.5 "/>
<text text-anchor="middle" x="56.564" y="-146.3" font-family="Helvetica,sans-Serif" font-size="14.00" fill="#000000"> </text>
<polyline fill="none" stroke="#bfbfbf" points="42.2881,-139.5 70.8398,-139.5 "/>
<text text-anchor="middle" x="56.564" y="-124.3" font-family="Helvetica,sans-Serif" font-size="14.00" fill="#000000"> </text>
</g>
<!-- Node736&#45;&gt;Node735 -->
<g id="edge1" class="edge">
<title>Node736&#45;&gt;Node735</title>
<path fill="none" stroke="#404040" d="M56.7881,-117.2855C56.7881,-105.4288 56.7881,-91.8562 56.7881,-79.1371"/>
<polygon fill="none" stroke="#404040" points="56.7882,-78.7976 52.7881,-72.7976 56.7881,-66.7976 60.7881,-72.7976 56.7882,-78.7976"/>
<text text-anchor="middle" x="91.2241" y="-87.8" font-family="Helvetica,sans-Serif" font-size="14.00" fill="#000000"> +elements</text>
</g>
</g>
</svg>
