<?xml version="1.0" encoding="UTF-8" standalone="no"?>
<!DOCTYPE svg PUBLIC "-//W3C//DTD SVG 1.1//EN"
 "http://www.w3.org/Graphics/SVG/1.1/DTD/svg11.dtd">
<!-- Generated by graphviz version 2.40.1 (20161225.0304)
 -->
<!-- Title: Server/mapiniter.cpp Pages: 1 -->
<svg width="691pt" height="385pt"
 viewBox="0.00 0.00 691.35 385.00" xmlns="http://www.w3.org/2000/svg" xmlns:xlink="http://www.w3.org/1999/xlink">
<g id="graph0" class="graph" transform="scale(1 1) rotate(0) translate(4 381)">
<title>Server/mapiniter.cpp</title>
<!-- Node0 -->
<g id="node1" class="node">
<title>Node0</title>
<polygon fill="#bfbfbf" stroke="#000000" points="384.4761,-354.5 384.4761,-376.5 528.8755,-376.5 528.8755,-354.5 384.4761,-354.5"/>
<text text-anchor="middle" x="456.6758" y="-361.3" font-family="Helvetica,sans-Serif" font-size="14.00" fill="#000000">Server/mapiniter.cpp</text>
</g>
<!-- Node1 -->
<g id="node2" class="node">
<title>Node1</title>
<g id="a_node2"><a xlink:href="../../d8/d03/mapiniter_8h.html" target="_top" xlink:title="mapiniter.h">
<polygon fill="none" stroke="#000000" points="414.4312,-295.5 414.4312,-317.5 498.9204,-317.5 498.9204,-295.5 414.4312,-295.5"/>
<text text-anchor="middle" x="456.6758" y="-302.3" font-family="Helvetica,sans-Serif" font-size="14.00" fill="#000000">mapiniter.h</text>
</a>
</g>
</g>
<!-- Node0&#45;&gt;Node1 -->
<g id="edge1" class="edge">
<title>Node0&#45;&gt;Node1</title>
<path fill="none" stroke="#191970" d="M456.6758,-354.4026C456.6758,-346.9034 456.6758,-336.7626 456.6758,-327.7421"/>
<polygon fill="#191970" stroke="#191970" points="460.1759,-327.5477 456.6758,-317.5477 453.1759,-327.5477 460.1759,-327.5477"/>
</g>
<!-- Node2 -->
<g id="node3" class="node">
<title>Node2</title>
<g id="a_node3"><a xlink:href="../../d4/dcf/imap_8h.html" target="_top" xlink:title="imap.h">
<polygon fill="none" stroke="#000000" points="455.6655,-177.5 455.6655,-199.5 513.686,-199.5 513.686,-177.5 455.6655,-177.5"/>
<text text-anchor="middle" x="484.6758" y="-184.3" font-family="Helvetica,sans-Serif" font-size="14.00" fill="#000000">imap.h</text>
</a>
</g>
</g>
<!-- Node1&#45;&gt;Node2 -->
<g id="edge2" class="edge">
<title>Node1&#45;&gt;Node2</title>
<path fill="none" stroke="#191970" d="M459.3605,-295.1857C464.0345,-275.4882 473.7342,-234.611 479.677,-209.5662"/>
<polygon fill="#191970" stroke="#191970" points="483.1366,-210.1457 482.04,-199.6078 476.3257,-208.5295 483.1366,-210.1457"/>
</g>
<!-- Node5 -->
<g id="node6" class="node">
<title>Node5</title>
<g id="a_node6"><a xlink:href="../../d0/d4c/ibasegameelement_8h.html" target="_top" xlink:title="ibasegameelement.h">
<polygon fill="none" stroke="#000000" points="315.6899,-118.5 315.6899,-140.5 461.6616,-140.5 461.6616,-118.5 315.6899,-118.5"/>
<text text-anchor="middle" x="388.6758" y="-125.3" font-family="Helvetica,sans-Serif" font-size="14.00" fill="#000000">ibasegameelement.h</text>
</a>
</g>
</g>
<!-- Node1&#45;&gt;Node5 -->
<g id="edge18" class="edge">
<title>Node1&#45;&gt;Node5</title>
<path fill="none" stroke="#191970" d="M452.4221,-295.4279C441.2597,-266.3727 410.997,-187.6008 396.5533,-150.0046"/>
<polygon fill="#191970" stroke="#191970" points="399.7814,-148.6476 392.9279,-140.568 393.247,-151.158 399.7814,-148.6476"/>
</g>
<!-- Node13 -->
<g id="node14" class="node">
<title>Node13</title>
<g id="a_node14"><a xlink:href="../../d2/d06/listbsemap_8h.html" target="_top" xlink:title="maps/listbsemap.h">
<polygon fill="none" stroke="#000000" points="484.3174,-236.5 484.3174,-258.5 617.0342,-258.5 617.0342,-236.5 484.3174,-236.5"/>
<text text-anchor="middle" x="550.6758" y="-243.3" font-family="Helvetica,sans-Serif" font-size="14.00" fill="#000000">maps/listbsemap.h</text>
</a>
</g>
</g>
<!-- Node1&#45;&gt;Node13 -->
<g id="edge15" class="edge">
<title>Node1&#45;&gt;Node13</title>
<path fill="none" stroke="#191970" d="M474.3565,-295.4026C488.405,-286.5849 508.2724,-274.1149 524.2149,-264.1084"/>
<polygon fill="#191970" stroke="#191970" points="526.4652,-266.8284 533.0744,-258.5477 522.7438,-260.8995 526.4652,-266.8284"/>
</g>
<!-- Node3 -->
<g id="node4" class="node">
<title>Node3</title>
<polygon fill="none" stroke="#bfbfbf" points="517.3379,-118.5 517.3379,-140.5 580.0137,-140.5 580.0137,-118.5 517.3379,-118.5"/>
<text text-anchor="middle" x="548.6758" y="-125.3" font-family="Helvetica,sans-Serif" font-size="14.00" fill="#000000">QSizeF</text>
</g>
<!-- Node2&#45;&gt;Node3 -->
<g id="edge3" class="edge">
<title>Node2&#45;&gt;Node3</title>
<path fill="none" stroke="#191970" d="M496.7137,-177.4026C505.8317,-168.9969 518.5498,-157.2723 529.1214,-147.5267"/>
<polygon fill="#191970" stroke="#191970" points="531.7117,-149.8991 536.6918,-140.5477 526.9671,-144.7524 531.7117,-149.8991"/>
</g>
<!-- Node4 -->
<g id="node5" class="node">
<title>Node4</title>
<polygon fill="none" stroke="#bfbfbf" points="616,-59.5 616,-81.5 683.3516,-81.5 683.3516,-59.5 616,-59.5"/>
<text text-anchor="middle" x="649.6758" y="-66.3" font-family="Helvetica,sans-Serif" font-size="14.00" fill="#000000">QPointF</text>
</g>
<!-- Node2&#45;&gt;Node4 -->
<g id="edge4" class="edge">
<title>Node2&#45;&gt;Node4</title>
<path fill="none" stroke="#191970" d="M485.4627,-177.3788C487.1403,-161.9848 492.3764,-134.2476 508.6758,-118 515.855,-110.8436 567.2436,-94.6042 605.9262,-83.1115"/>
<polygon fill="#191970" stroke="#191970" points="607.3504,-86.3406 615.9514,-80.154 605.3697,-79.6266 607.3504,-86.3406"/>
</g>
<!-- Node2&#45;&gt;Node5 -->
<g id="edge5" class="edge">
<title>Node2&#45;&gt;Node5</title>
<path fill="none" stroke="#191970" d="M466.6189,-177.4026C452.1374,-168.5025 431.6016,-155.8815 415.2442,-145.8285"/>
<polygon fill="#191970" stroke="#191970" points="417.0039,-142.8019 406.6517,-140.5477 413.3387,-148.7656 417.0039,-142.8019"/>
</g>
<!-- Node5&#45;&gt;Node4 -->
<g id="edge9" class="edge">
<title>Node5&#45;&gt;Node4</title>
<path fill="none" stroke="#191970" d="M442.5896,-118.4856C484.5607,-109.7441 544.4982,-96.898 606.0267,-82.0837"/>
<polygon fill="#191970" stroke="#191970" points="607.0176,-85.445 615.9128,-79.6895 605.37,-78.6416 607.0176,-85.445"/>
</g>
<!-- Node6 -->
<g id="node7" class="node">
<title>Node6</title>
<polygon fill="none" stroke="#bfbfbf" points="0,-59.5 0,-81.5 67.3516,-81.5 67.3516,-59.5 0,-59.5"/>
<text text-anchor="middle" x="33.6758" y="-66.3" font-family="Helvetica,sans-Serif" font-size="14.00" fill="#000000">QObject</text>
</g>
<!-- Node5&#45;&gt;Node6 -->
<g id="edge6" class="edge">
<title>Node5&#45;&gt;Node6</title>
<path fill="none" stroke="#191970" d="M315.5098,-120.8507C254.1623,-113.0371 164.1163,-100.2632 77.5145,-82.2384"/>
<polygon fill="#191970" stroke="#191970" points="78.0258,-78.7693 67.5189,-80.131 76.5817,-85.6188 78.0258,-78.7693"/>
</g>
<!-- Node7 -->
<g id="node8" class="node">
<title>Node7</title>
<g id="a_node8"><a xlink:href="../../d5/df2/infinitydouble_8h.html" target="_top" xlink:title="infinitydouble.h">
<polygon fill="none" stroke="#000000" points="84.9761,-59.5 84.9761,-81.5 194.3755,-81.5 194.3755,-59.5 84.9761,-59.5"/>
<text text-anchor="middle" x="139.6758" y="-66.3" font-family="Helvetica,sans-Serif" font-size="14.00" fill="#000000">infinitydouble.h</text>
</a>
</g>
</g>
<!-- Node5&#45;&gt;Node7 -->
<g id="edge7" class="edge">
<title>Node5&#45;&gt;Node7</title>
<path fill="none" stroke="#191970" d="M342.1329,-118.4718C300.8668,-108.6939 240.481,-94.3856 196.4001,-83.9407"/>
<polygon fill="#191970" stroke="#191970" points="196.9502,-80.4742 186.4126,-81.5742 195.3362,-87.2856 196.9502,-80.4742"/>
</g>
<!-- Node8 -->
<g id="node9" class="node">
<title>Node8</title>
<polygon fill="none" stroke="#bfbfbf" points="129.8828,-.5 129.8828,-22.5 231.4688,-22.5 231.4688,-.5 129.8828,-.5"/>
<text text-anchor="middle" x="180.6758" y="-7.3" font-family="Helvetica,sans-Serif" font-size="14.00" fill="#000000">QDataStream</text>
</g>
<!-- Node5&#45;&gt;Node8 -->
<g id="edge11" class="edge">
<title>Node5&#45;&gt;Node8</title>
<path fill="none" stroke="#191970" d="M330.6552,-118.4833C302.2014,-111.2243 268.3958,-99.6987 241.6758,-82 221.5978,-68.7008 204.2519,-47.044 193.2452,-31.2382"/>
<polygon fill="#191970" stroke="#191970" points="196.0037,-29.0677 187.5244,-22.7154 190.1917,-32.969 196.0037,-29.0677"/>
</g>
<!-- Node9 -->
<g id="node10" class="node">
<title>Node9</title>
<polygon fill="none" stroke="#bfbfbf" points="250.5,-59.5 250.5,-81.5 338.8516,-81.5 338.8516,-59.5 250.5,-59.5"/>
<text text-anchor="middle" x="294.6758" y="-66.3" font-family="Helvetica,sans-Serif" font-size="14.00" fill="#000000">QByteArray</text>
</g>
<!-- Node5&#45;&gt;Node9 -->
<g id="edge10" class="edge">
<title>Node5&#45;&gt;Node9</title>
<path fill="none" stroke="#191970" d="M370.9951,-118.4026C356.9466,-109.5849 337.0792,-97.1149 321.1367,-87.1084"/>
<polygon fill="#191970" stroke="#191970" points="322.6077,-83.8995 312.2772,-81.5477 318.8864,-89.8284 322.6077,-83.8995"/>
</g>
<!-- Node10 -->
<g id="node11" class="node">
<title>Node10</title>
<polygon fill="none" stroke="#bfbfbf" points="356.9448,-59.5 356.9448,-81.5 420.4067,-81.5 420.4067,-59.5 356.9448,-59.5"/>
<text text-anchor="middle" x="388.6758" y="-66.3" font-family="Helvetica,sans-Serif" font-size="14.00" fill="#000000">QString</text>
</g>
<!-- Node5&#45;&gt;Node10 -->
<g id="edge12" class="edge">
<title>Node5&#45;&gt;Node10</title>
<path fill="none" stroke="#191970" d="M388.6758,-118.4026C388.6758,-110.9034 388.6758,-100.7626 388.6758,-91.7421"/>
<polygon fill="#191970" stroke="#191970" points="392.1759,-91.5477 388.6758,-81.5477 385.1759,-91.5477 392.1759,-91.5477"/>
</g>
<!-- Node11 -->
<g id="node12" class="node">
<title>Node11</title>
<polygon fill="none" stroke="#bfbfbf" points="437.9321,-59.5 437.9321,-81.5 495.4194,-81.5 495.4194,-59.5 437.9321,-59.5"/>
<text text-anchor="middle" x="466.6758" y="-66.3" font-family="Helvetica,sans-Serif" font-size="14.00" fill="#000000">QTime</text>
</g>
<!-- Node5&#45;&gt;Node11 -->
<g id="edge13" class="edge">
<title>Node5&#45;&gt;Node11</title>
<path fill="none" stroke="#191970" d="M403.347,-118.4026C414.7864,-109.7497 430.8754,-97.5798 443.9737,-87.6721"/>
<polygon fill="#191970" stroke="#191970" points="446.2064,-90.3718 452.0704,-81.5477 441.9835,-84.789 446.2064,-90.3718"/>
</g>
<!-- Node12 -->
<g id="node13" class="node">
<title>Node12</title>
<polygon fill="none" stroke="#bfbfbf" points="513.4346,-59.5 513.4346,-81.5 597.917,-81.5 597.917,-59.5 513.4346,-59.5"/>
<text text-anchor="middle" x="555.6758" y="-66.3" font-family="Helvetica,sans-Serif" font-size="14.00" fill="#000000">QVector3D</text>
</g>
<!-- Node5&#45;&gt;Node12 -->
<g id="edge14" class="edge">
<title>Node5&#45;&gt;Node12</title>
<path fill="none" stroke="#191970" d="M420.0872,-118.4026C446.9118,-108.9256 485.6778,-95.2298 514.8942,-84.9079"/>
<polygon fill="#191970" stroke="#191970" points="516.1423,-88.179 524.4052,-81.5477 513.8104,-81.5788 516.1423,-88.179"/>
</g>
<!-- Node7&#45;&gt;Node8 -->
<g id="edge8" class="edge">
<title>Node7&#45;&gt;Node8</title>
<path fill="none" stroke="#191970" d="M147.3876,-59.4026C152.9424,-51.4089 160.5831,-40.4138 167.1433,-30.9736"/>
<polygon fill="#191970" stroke="#191970" points="170.1661,-32.7569 172.9986,-22.5477 164.4178,-28.7623 170.1661,-32.7569"/>
</g>
<!-- Node13&#45;&gt;Node2 -->
<g id="edge17" class="edge">
<title>Node13&#45;&gt;Node2</title>
<path fill="none" stroke="#191970" d="M538.2617,-236.4026C528.7666,-227.9145 515.4856,-216.0421 504.5213,-206.2407"/>
<polygon fill="#191970" stroke="#191970" points="506.8222,-203.603 497.0342,-199.5477 502.157,-208.8218 506.8222,-203.603"/>
</g>
<!-- Node14 -->
<g id="node15" class="node">
<title>Node14</title>
<polygon fill="none" stroke="#bfbfbf" points="531.3379,-177.5 531.3379,-199.5 580.0137,-199.5 580.0137,-177.5 531.3379,-177.5"/>
<text text-anchor="middle" x="555.6758" y="-184.3" font-family="Helvetica,sans-Serif" font-size="14.00" fill="#000000">QList</text>
</g>
<!-- Node13&#45;&gt;Node14 -->
<g id="edge16" class="edge">
<title>Node13&#45;&gt;Node14</title>
<path fill="none" stroke="#191970" d="M551.6162,-236.4026C552.2518,-228.9034 553.1112,-218.7626 553.8756,-209.7421"/>
<polygon fill="#191970" stroke="#191970" points="557.3825,-209.8076 554.7395,-199.5477 550.4075,-209.2164 557.3825,-209.8076"/>
</g>
</g>
</svg>
