<?xml version="1.0" encoding="UTF-8" standalone="no"?>
<!DOCTYPE svg PUBLIC "-//W3C//DTD SVG 1.1//EN"
 "http://www.w3.org/Graphics/SVG/1.1/DTD/svg11.dtd">
<!-- Generated by graphviz version 2.40.1 (20161225.0304)
 -->
<!-- Title: SimpleConnection::Receiver Pages: 1 -->
<svg width="201pt" height="304pt"
 viewBox="0.00 0.00 200.64 304.00" xmlns="http://www.w3.org/2000/svg" xmlns:xlink="http://www.w3.org/1999/xlink">
<g id="graph0" class="graph" transform="scale(1 1) rotate(0) translate(4 300)">
<title>SimpleConnection::Receiver</title>
<!-- Node0 -->
<g id="node1" class="node">
<title>Node0</title>
<polygon fill="#bfbfbf" stroke="#000000" points="0,-.5 0,-192.5 192.6406,-192.5 192.6406,-.5 0,-.5"/>
<text text-anchor="middle" x="96.3203" y="-177.3" font-family="Helvetica,sans-Serif" font-size="14.00" fill="#000000">SimpleConnection::Receiver</text>
<polyline fill="none" stroke="#000000" points="0,-170.5 192.6406,-170.5 "/>
<text text-anchor="start" x="8" y="-155.3" font-family="Helvetica,sans-Serif" font-size="14.00" fill="#000000"># socket</text>
<text text-anchor="start" x="8" y="-141.3" font-family="Helvetica,sans-Serif" font-size="14.00" fill="#000000"># in</text>
<text text-anchor="start" x="8" y="-127.3" font-family="Helvetica,sans-Serif" font-size="14.00" fill="#000000"># parentThread</text>
<text text-anchor="start" x="8" y="-113.3" font-family="Helvetica,sans-Serif" font-size="14.00" fill="#000000"># isStart</text>
<text text-anchor="start" x="8" y="-99.3" font-family="Helvetica,sans-Serif" font-size="14.00" fill="#000000"># isWork</text>
<text text-anchor="start" x="8" y="-85.3" font-family="Helvetica,sans-Serif" font-size="14.00" fill="#000000"># isLoopActive</text>
<polyline fill="none" stroke="#000000" points="0,-78.5 192.6406,-78.5 "/>
<text text-anchor="start" x="8" y="-63.3" font-family="Helvetica,sans-Serif" font-size="14.00" fill="#000000">+ Receiver()</text>
<text text-anchor="start" x="8" y="-49.3" font-family="Helvetica,sans-Serif" font-size="14.00" fill="#000000">+ ~Receiver()</text>
<text text-anchor="start" x="8" y="-35.3" font-family="Helvetica,sans-Serif" font-size="14.00" fill="#000000">+ istThreadStart()</text>
<text text-anchor="start" x="8" y="-21.3" font-family="Helvetica,sans-Serif" font-size="14.00" fill="#000000">+ stop()</text>
<text text-anchor="start" x="8" y="-7.3" font-family="Helvetica,sans-Serif" font-size="14.00" fill="#000000"># run()</text>
</g>
<!-- Node1 -->
<g id="node2" class="node">
<title>Node1</title>
<polygon fill="none" stroke="#bfbfbf" points="60.6963,-229.5 60.6963,-295.5 131.9443,-295.5 131.9443,-229.5 60.6963,-229.5"/>
<text text-anchor="middle" x="96.3203" y="-280.3" font-family="Helvetica,sans-Serif" font-size="14.00" fill="#000000">QThread</text>
<polyline fill="none" stroke="#bfbfbf" points="60.6963,-273.5 131.9443,-273.5 "/>
<text text-anchor="middle" x="96.3203" y="-258.3" font-family="Helvetica,sans-Serif" font-size="14.00" fill="#000000"> </text>
<polyline fill="none" stroke="#bfbfbf" points="60.6963,-251.5 131.9443,-251.5 "/>
<text text-anchor="middle" x="96.3203" y="-236.3" font-family="Helvetica,sans-Serif" font-size="14.00" fill="#000000"> </text>
</g>
<!-- Node1&#45;&gt;Node0 -->
<g id="edge1" class="edge">
<title>Node1&#45;&gt;Node0</title>
<path fill="none" stroke="#191970" d="M96.3203,-219.1722C96.3203,-210.8496 96.3203,-201.8312 96.3203,-192.5906"/>
<polygon fill="none" stroke="#191970" points="92.8204,-219.3064 96.3203,-229.3064 99.8204,-219.3064 92.8204,-219.3064"/>
</g>
</g>
</svg>
