<?xml version="1.0" encoding="UTF-8" standalone="no"?>
<!DOCTYPE svg PUBLIC "-//W3C//DTD SVG 1.1//EN"
 "http://www.w3.org/Graphics/SVG/1.1/DTD/svg11.dtd">
<!-- Generated by graphviz version 2.40.1 (20161225.0304)
 -->
<!-- Title: std::valarray&lt; T &gt; Pages: 1 -->
<svg width="139pt" height="192pt"
 viewBox="0.00 0.00 139.09 192.00" xmlns="http://www.w3.org/2000/svg" xmlns:xlink="http://www.w3.org/1999/xlink">
<g id="graph0" class="graph" transform="scale(1 1) rotate(0) translate(4 188)">
<title>std::valarray&lt; T &gt;</title>
<!-- Node875 -->
<g id="node1" class="node">
<title>Node875</title>
<polygon fill="#bfbfbf" stroke="#000000" points="0,-.5 0,-66.5 124.4385,-66.5 124.4385,-.5 0,-.5"/>
<text text-anchor="middle" x="62.2192" y="-51.3" font-family="Helvetica,sans-Serif" font-size="14.00" fill="#000000">std::valarray&lt; T &gt;</text>
<polyline fill="none" stroke="#000000" points="0,-44.5 124.4385,-44.5 "/>
<text text-anchor="middle" x="62.2192" y="-29.3" font-family="Helvetica,sans-Serif" font-size="14.00" fill="#000000"> </text>
<polyline fill="none" stroke="#000000" points="0,-22.5 124.4385,-22.5 "/>
<text text-anchor="middle" x="62.2192" y="-7.3" font-family="Helvetica,sans-Serif" font-size="14.00" fill="#000000"> </text>
</g>
<!-- Node876 -->
<g id="node2" class="node">
<title>Node876</title>
<polygon fill="none" stroke="#bfbfbf" points="47.7192,-117.5 47.7192,-183.5 76.7192,-183.5 76.7192,-117.5 47.7192,-117.5"/>
<text text-anchor="middle" x="61.9951" y="-168.3" font-family="Helvetica,sans-Serif" font-size="14.00" fill="#000000">T</text>
<polyline fill="none" stroke="#bfbfbf" points="47.7192,-161.5 76.271,-161.5 "/>
<text text-anchor="middle" x="61.9951" y="-146.3" font-family="Helvetica,sans-Serif" font-size="14.00" fill="#000000"> </text>
<polyline fill="none" stroke="#bfbfbf" points="47.7192,-139.5 76.271,-139.5 "/>
<text text-anchor="middle" x="61.9951" y="-124.3" font-family="Helvetica,sans-Serif" font-size="14.00" fill="#000000"> </text>
</g>
<!-- Node876&#45;&gt;Node875 -->
<g id="edge1" class="edge">
<title>Node876&#45;&gt;Node875</title>
<path fill="none" stroke="#404040" d="M62.2192,-117.2855C62.2192,-105.4288 62.2192,-91.8562 62.2192,-79.1371"/>
<polygon fill="none" stroke="#404040" points="62.2193,-78.7976 58.2193,-72.7976 62.2192,-66.7976 66.2193,-72.7976 62.2193,-78.7976"/>
<text text-anchor="middle" x="96.6553" y="-87.8" font-family="Helvetica,sans-Serif" font-size="14.00" fill="#000000"> +elements</text>
</g>
</g>
</svg>
