<?xml version="1.0" encoding="UTF-8" standalone="no"?>
<!DOCTYPE svg PUBLIC "-//W3C//DTD SVG 1.1//EN"
 "http://www.w3.org/Graphics/SVG/1.1/DTD/svg11.dtd">
<!-- Generated by graphviz version 2.40.1 (20161225.0304)
 -->
<!-- Title: std::ostringstream Pages: 1 -->
<svg width="176pt" height="515pt"
 viewBox="0.00 0.00 175.73 515.00" xmlns="http://www.w3.org/2000/svg" xmlns:xlink="http://www.w3.org/1999/xlink">
<g id="graph0" class="graph" transform="scale(1 1) rotate(0) translate(4 511)">
<title>std::ostringstream</title>
<!-- Node686 -->
<g id="node1" class="node">
<title>Node686</title>
<polygon fill="#bfbfbf" stroke="#000000" points="20.2344,-.5 20.2344,-66.5 147.4961,-66.5 147.4961,-.5 20.2344,-.5"/>
<text text-anchor="middle" x="83.8652" y="-51.3" font-family="Helvetica,sans-Serif" font-size="14.00" fill="#000000">std::ostringstream</text>
<polyline fill="none" stroke="#000000" points="20.2344,-44.5 147.4961,-44.5 "/>
<text text-anchor="middle" x="83.8652" y="-29.3" font-family="Helvetica,sans-Serif" font-size="14.00" fill="#000000"> </text>
<polyline fill="none" stroke="#000000" points="20.2344,-22.5 147.4961,-22.5 "/>
<text text-anchor="middle" x="83.8652" y="-7.3" font-family="Helvetica,sans-Serif" font-size="14.00" fill="#000000"> </text>
</g>
<!-- Node687 -->
<g id="node2" class="node">
<title>Node687</title>
<g id="a_node2"><a xlink:title="STL class. ">
<polygon fill="none" stroke="#bfbfbf" points="0,-103.5 0,-183.5 167.7305,-183.5 167.7305,-103.5 0,-103.5"/>
<text text-anchor="start" x="8" y="-168.3" font-family="Helvetica,sans-Serif" font-size="14.00" fill="#000000">std::basic_ostringstream</text>
<text text-anchor="middle" x="83.8652" y="-154.3" font-family="Helvetica,sans-Serif" font-size="14.00" fill="#000000">&lt; char &gt;</text>
<polyline fill="none" stroke="#bfbfbf" points="0,-147.5 167.7305,-147.5 "/>
<text text-anchor="middle" x="83.8652" y="-132.3" font-family="Helvetica,sans-Serif" font-size="14.00" fill="#000000"> </text>
<polyline fill="none" stroke="#bfbfbf" points="0,-125.5 167.7305,-125.5 "/>
<text text-anchor="middle" x="83.8652" y="-110.3" font-family="Helvetica,sans-Serif" font-size="14.00" fill="#000000"> </text>
</a>
</g>
</g>
<!-- Node687&#45;&gt;Node686 -->
<g id="edge1" class="edge">
<title>Node687&#45;&gt;Node686</title>
<path fill="none" stroke="#191970" d="M83.8652,-93.4195C83.8652,-84.3987 83.8652,-75.2 83.8652,-66.8045"/>
<polygon fill="none" stroke="#191970" points="80.3653,-93.4763 83.8652,-103.4763 87.3653,-93.4763 80.3653,-93.4763"/>
</g>
<!-- Node688 -->
<g id="node3" class="node">
<title>Node688</title>
<g id="a_node3"><a xlink:title="STL class. ">
<polygon fill="none" stroke="#bfbfbf" points="17.1172,-220.5 17.1172,-300.5 150.6133,-300.5 150.6133,-220.5 17.1172,-220.5"/>
<text text-anchor="start" x="25.1172" y="-285.3" font-family="Helvetica,sans-Serif" font-size="14.00" fill="#000000">std::basic_ostream</text>
<text text-anchor="middle" x="83.8652" y="-271.3" font-family="Helvetica,sans-Serif" font-size="14.00" fill="#000000">&lt; Char &gt;</text>
<polyline fill="none" stroke="#bfbfbf" points="17.1172,-264.5 150.6133,-264.5 "/>
<text text-anchor="middle" x="83.8652" y="-249.3" font-family="Helvetica,sans-Serif" font-size="14.00" fill="#000000"> </text>
<polyline fill="none" stroke="#bfbfbf" points="17.1172,-242.5 150.6133,-242.5 "/>
<text text-anchor="middle" x="83.8652" y="-227.3" font-family="Helvetica,sans-Serif" font-size="14.00" fill="#000000"> </text>
</a>
</g>
</g>
<!-- Node688&#45;&gt;Node687 -->
<g id="edge2" class="edge">
<title>Node688&#45;&gt;Node687</title>
<path fill="none" stroke="#191970" d="M83.8652,-210.0967C83.8652,-201.3218 83.8652,-192.2991 83.8652,-183.839"/>
<polygon fill="none" stroke="#191970" points="80.3653,-210.2352 83.8652,-220.2352 87.3653,-210.2353 80.3653,-210.2352"/>
</g>
<!-- Node689 -->
<g id="node4" class="node">
<title>Node689</title>
<g id="a_node4"><a xlink:title="STL class. ">
<polygon fill="none" stroke="#bfbfbf" points="6.2173,-337.5 6.2173,-403.5 161.5132,-403.5 161.5132,-337.5 6.2173,-337.5"/>
<text text-anchor="middle" x="83.8652" y="-388.3" font-family="Helvetica,sans-Serif" font-size="14.00" fill="#000000">std::basic_ios&lt; Char &gt;</text>
<polyline fill="none" stroke="#bfbfbf" points="6.2173,-381.5 161.5132,-381.5 "/>
<text text-anchor="middle" x="83.8652" y="-366.3" font-family="Helvetica,sans-Serif" font-size="14.00" fill="#000000"> </text>
<polyline fill="none" stroke="#bfbfbf" points="6.2173,-359.5 161.5132,-359.5 "/>
<text text-anchor="middle" x="83.8652" y="-344.3" font-family="Helvetica,sans-Serif" font-size="14.00" fill="#000000"> </text>
</a>
</g>
</g>
<!-- Node689&#45;&gt;Node688 -->
<g id="edge3" class="edge">
<title>Node689&#45;&gt;Node688</title>
<path fill="none" stroke="#191970" d="M83.8652,-327.4695C83.8652,-318.7133 83.8652,-309.5317 83.8652,-300.8719"/>
<polygon fill="none" stroke="#191970" points="80.3653,-327.4963 83.8652,-337.4964 87.3653,-327.4964 80.3653,-327.4963"/>
</g>
<!-- Node690 -->
<g id="node5" class="node">
<title>Node690</title>
<g id="a_node5"><a xlink:title="STL class. ">
<polygon fill="none" stroke="#bfbfbf" points="34.6172,-440.5 34.6172,-506.5 133.1133,-506.5 133.1133,-440.5 34.6172,-440.5"/>
<text text-anchor="middle" x="83.8652" y="-491.3" font-family="Helvetica,sans-Serif" font-size="14.00" fill="#000000">std::ios_base</text>
<polyline fill="none" stroke="#bfbfbf" points="34.6172,-484.5 133.1133,-484.5 "/>
<text text-anchor="middle" x="83.8652" y="-469.3" font-family="Helvetica,sans-Serif" font-size="14.00" fill="#000000"> </text>
<polyline fill="none" stroke="#bfbfbf" points="34.6172,-462.5 133.1133,-462.5 "/>
<text text-anchor="middle" x="83.8652" y="-447.3" font-family="Helvetica,sans-Serif" font-size="14.00" fill="#000000"> </text>
</a>
</g>
</g>
<!-- Node690&#45;&gt;Node689 -->
<g id="edge4" class="edge">
<title>Node690&#45;&gt;Node689</title>
<path fill="none" stroke="#191970" d="M83.8652,-430.1362C83.8652,-421.256 83.8652,-412.0447 83.8652,-403.5947"/>
<polygon fill="none" stroke="#191970" points="80.3653,-430.3432 83.8652,-440.3432 87.3653,-430.3432 80.3653,-430.3432"/>
</g>
</g>
</svg>
