<?xml version="1.0" encoding="UTF-8" standalone="no"?>
<!DOCTYPE svg PUBLIC "-//W3C//DTD SVG 1.1//EN"
 "http://www.w3.org/Graphics/SVG/1.1/DTD/svg11.dtd">
<!-- Generated by graphviz version 2.40.1 (20161225.0304)
 -->
<!-- Title: Core/core.h Pages: 1 -->
<svg width="248pt" height="90pt"
 viewBox="0.00 0.00 247.93 90.00" xmlns="http://www.w3.org/2000/svg" xmlns:xlink="http://www.w3.org/1999/xlink">
<g id="graph0" class="graph" transform="scale(1 1) rotate(0) translate(4 86)">
<title>Core/core.h</title>
<!-- Node3 -->
<g id="node1" class="node">
<title>Node3</title>
<polygon fill="#bfbfbf" stroke="#000000" points="71.3931,-59.5 71.3931,-81.5 160.5376,-81.5 160.5376,-59.5 71.3931,-59.5"/>
<text text-anchor="middle" x="115.9653" y="-66.3" font-family="Helvetica,sans-Serif" font-size="14.00" fill="#000000">Core/core.h</text>
</g>
<!-- Node4 -->
<g id="node2" class="node">
<title>Node4</title>
<g id="a_node2"><a xlink:href="../../da/d45/a00011.html" target="_top" xlink:title="Core/core.cpp">
<polygon fill="none" stroke="#000000" points="0,-.5 0,-22.5 103.9307,-22.5 103.9307,-.5 0,-.5"/>
<text text-anchor="middle" x="51.9653" y="-7.3" font-family="Helvetica,sans-Serif" font-size="14.00" fill="#000000">Core/core.cpp</text>
</a>
</g>
</g>
<!-- Node3&#45;&gt;Node4 -->
<g id="edge1" class="edge">
<title>Node3&#45;&gt;Node4</title>
<path fill="none" stroke="#191970" d="M96.3483,-52.4155C85.7683,-42.6621 73.053,-30.9402 63.9493,-22.5477"/>
<polygon fill="#191970" stroke="#191970" points="94.2026,-55.1979 103.9274,-59.4026 98.9473,-50.0511 94.2026,-55.1979"/>
</g>
<!-- Node5 -->
<g id="node3" class="node">
<title>Node5</title>
<g id="a_node3"><a xlink:href="../../d6/db6/a00241.html" target="_top" xlink:title="Server/main.cpp">
<polygon fill="none" stroke="#000000" points="122,-.5 122,-22.5 239.9307,-22.5 239.9307,-.5 122,-.5"/>
<text text-anchor="middle" x="180.9653" y="-7.3" font-family="Helvetica,sans-Serif" font-size="14.00" fill="#000000">Server/main.cpp</text>
</a>
</g>
</g>
<!-- Node3&#45;&gt;Node5 -->
<g id="edge2" class="edge">
<title>Node3&#45;&gt;Node5</title>
<path fill="none" stroke="#191970" d="M135.8889,-52.4155C146.6342,-42.6621 159.5482,-30.9402 168.7942,-22.5477"/>
<polygon fill="#191970" stroke="#191970" points="133.2435,-50.0899 128.1913,-59.4026 137.9483,-55.2731 133.2435,-50.0899"/>
</g>
</g>
</svg>
