<?xml version="1.0" encoding="UTF-8" standalone="no"?>
<!DOCTYPE svg PUBLIC "-//W3C//DTD SVG 1.1//EN"
 "http://www.w3.org/Graphics/SVG/1.1/DTD/svg11.dtd">
<!-- Generated by graphviz version 2.40.1 (20161225.0304)
 -->
<!-- Title: initServer Pages: 1 -->
<svg width="344pt" height="127pt"
 viewBox="0.00 0.00 344.21 127.00" xmlns="http://www.w3.org/2000/svg" xmlns:xlink="http://www.w3.org/1999/xlink">
<g id="graph0" class="graph" transform="scale(1 1) rotate(0) translate(4 123)">
<title>initServer</title>
<!-- Node6 -->
<g id="node1" class="node">
<title>Node6</title>
<polygon fill="#bfbfbf" stroke="#000000" points="0,-48.5 0,-70.5 75.1309,-70.5 75.1309,-48.5 0,-48.5"/>
<text text-anchor="middle" x="37.5654" y="-55.3" font-family="Helvetica,sans-Serif" font-size="14.00" fill="#000000">initServer</text>
</g>
<!-- Node7 -->
<g id="node2" class="node">
<title>Node7</title>
<g id="a_node2"><a xlink:href="$d5/d24/classServerConnection.html#af558fe509b60eb019281316513f6d188" xlink:title="ServerConnection::onWorkerStop">
<polygon fill="none" stroke="#000000" points="111.1309,-96.5 111.1309,-118.5 336.208,-118.5 336.208,-96.5 111.1309,-96.5"/>
<text text-anchor="middle" x="223.6694" y="-103.3" font-family="Helvetica,sans-Serif" font-size="14.00" fill="#000000">ServerConnection::onWorkerStop</text>
</a>
</g>
</g>
<!-- Node6&#45;&gt;Node7 -->
<g id="edge1" class="edge">
<title>Node6&#45;&gt;Node7</title>
<path fill="none" stroke="#191970" d="M63.0449,-70.5538C77.0282,-76.2732 94.7984,-82.9837 111.1309,-87.5 120.4549,-90.0783 130.3089,-92.3999 140.1528,-94.4691"/>
<polygon fill="#191970" stroke="#191970" points="139.4781,-97.9034 149.9733,-96.4543 140.8651,-91.0422 139.4781,-97.9034"/>
</g>
<!-- Node8 -->
<g id="node3" class="node">
<title>Node8</title>
<g id="a_node3"><a xlink:href="$d5/d24/classServerConnection.html#ad64d541093e285a983911f22ab9a0bff" xlink:title="ServerConnection::getServer\lInstance">
<polygon fill="none" stroke="#000000" points="125.4009,-41.5 125.4009,-77.5 321.938,-77.5 321.938,-41.5 125.4009,-41.5"/>
<text text-anchor="start" x="133.4009" y="-62.3" font-family="Helvetica,sans-Serif" font-size="14.00" fill="#000000">ServerConnection::getServer</text>
<text text-anchor="middle" x="223.6694" y="-48.3" font-family="Helvetica,sans-Serif" font-size="14.00" fill="#000000">Instance</text>
</a>
</g>
</g>
<!-- Node6&#45;&gt;Node8 -->
<g id="edge2" class="edge">
<title>Node6&#45;&gt;Node8</title>
<path fill="none" stroke="#191970" d="M75.2264,-59.5C87.0208,-59.5 100.6819,-59.5 114.8452,-59.5"/>
<polygon fill="#191970" stroke="#191970" points="115.2275,-63.0001 125.2275,-59.5 115.2274,-56.0001 115.2275,-63.0001"/>
</g>
<!-- Node9 -->
<g id="node4" class="node">
<title>Node9</title>
<g id="a_node4"><a xlink:href="$d5/d24/classServerConnection.html#a1d45a6a7b2370c82ed2849959bb18c2a" xlink:title="ServerConnection::startServer">
<polygon fill="none" stroke="#000000" points="121.5181,-.5 121.5181,-22.5 325.8208,-22.5 325.8208,-.5 121.5181,-.5"/>
<text text-anchor="middle" x="223.6694" y="-7.3" font-family="Helvetica,sans-Serif" font-size="14.00" fill="#000000">ServerConnection::startServer</text>
</a>
</g>
</g>
<!-- Node6&#45;&gt;Node9 -->
<g id="edge3" class="edge">
<title>Node6&#45;&gt;Node9</title>
<path fill="none" stroke="#191970" d="M64.4632,-48.3979C78.2402,-43.0279 95.3884,-36.825 111.1309,-32.5 121.8775,-29.5475 133.3157,-26.8809 144.6269,-24.5166"/>
<polygon fill="#191970" stroke="#191970" points="145.406,-27.93 154.5138,-22.5171 144.0184,-21.0689 145.406,-27.93"/>
</g>
</g>
</svg>
