<?xml version="1.0" encoding="UTF-8" standalone="no"?>
<!DOCTYPE svg PUBLIC "-//W3C//DTD SVG 1.1//EN"
 "http://www.w3.org/Graphics/SVG/1.1/DTD/svg11.dtd">
<!-- Generated by graphviz version 2.40.1 (20161225.0304)
 -->
<!-- Title: main Pages: 1 -->
<svg width="474pt" height="250pt"
 viewBox="0.00 0.00 473.55 250.00" xmlns="http://www.w3.org/2000/svg" xmlns:xlink="http://www.w3.org/1999/xlink">
<g id="graph0" class="graph" transform="scale(1 1) rotate(0) translate(4 246)">
<title>main</title>
<!-- Node12 -->
<g id="node1" class="node">
<title>Node12</title>
<polygon fill="#bfbfbf" stroke="#000000" points="0,-104.5 0,-126.5 46.3447,-126.5 46.3447,-104.5 0,-104.5"/>
<text text-anchor="middle" x="23.1724" y="-111.3" font-family="Helvetica,sans-Serif" font-size="14.00" fill="#000000">main</text>
</g>
<!-- Node13 -->
<g id="node2" class="node">
<title>Node13</title>
<g id="a_node2"><a xlink:href="$d6/dda/Server_2main_8cpp.html#a3cfb6b17f20d62ad08b9402764f3aa6c" xlink:title="initMainLooper">
<polygon fill="none" stroke="#000000" points="82.3447,-149.5 82.3447,-171.5 190.1787,-171.5 190.1787,-149.5 82.3447,-149.5"/>
<text text-anchor="middle" x="136.2617" y="-156.3" font-family="Helvetica,sans-Serif" font-size="14.00" fill="#000000">initMainLooper</text>
</a>
</g>
</g>
<!-- Node12&#45;&gt;Node13 -->
<g id="edge1" class="edge">
<title>Node12&#45;&gt;Node13</title>
<path fill="none" stroke="#191970" d="M46.6046,-124.824C61.6394,-130.8066 81.4966,-138.7081 98.7012,-145.5541"/>
<polygon fill="#191970" stroke="#191970" points="97.8825,-148.9952 108.468,-149.4404 100.4706,-142.4912 97.8825,-148.9952"/>
</g>
<!-- Node17 -->
<g id="node6" class="node">
<title>Node17</title>
<g id="a_node6"><a xlink:href="$d6/dda/Server_2main_8cpp.html#a29060721f5ddfa26790f0778bde74ff2" xlink:title="initServer">
<polygon fill="none" stroke="#000000" points="98.6963,-84.5 98.6963,-106.5 173.8271,-106.5 173.8271,-84.5 98.6963,-84.5"/>
<text text-anchor="middle" x="136.2617" y="-91.3" font-family="Helvetica,sans-Serif" font-size="14.00" fill="#000000">initServer</text>
</a>
</g>
</g>
<!-- Node12&#45;&gt;Node17 -->
<g id="edge5" class="edge">
<title>Node12&#45;&gt;Node17</title>
<path fill="none" stroke="#191970" d="M46.6046,-111.356C58.7998,-109.1992 74.1679,-106.4814 88.7196,-103.9079"/>
<polygon fill="#191970" stroke="#191970" points="89.3768,-107.3461 98.6144,-102.158 88.1577,-100.453 89.3768,-107.3461"/>
</g>
<!-- Node14 -->
<g id="node3" class="node">
<title>Node14</title>
<g id="a_node3"><a xlink:href="$d2/d11/classMainGameLoop.html#ac4cd47d8b350ae45ea09aaecad11a684" xlink:title="MainGameLoop::getAllMapAsDiff">
<polygon fill="none" stroke="#000000" points="234.4946,-219.5 234.4946,-241.5 457.2339,-241.5 457.2339,-219.5 234.4946,-219.5"/>
<text text-anchor="middle" x="345.8643" y="-226.3" font-family="Helvetica,sans-Serif" font-size="14.00" fill="#000000">MainGameLoop::getAllMapAsDiff</text>
</a>
</g>
</g>
<!-- Node13&#45;&gt;Node14 -->
<g id="edge2" class="edge">
<title>Node13&#45;&gt;Node14</title>
<path fill="none" stroke="#191970" d="M152.3593,-171.6952C169.7584,-183.2442 198.6972,-200.8859 226.1787,-210.5 233.3793,-213.0191 240.9375,-215.2256 248.6081,-217.1577"/>
<polygon fill="#191970" stroke="#191970" points="247.8291,-220.57 258.3658,-219.4611 249.4374,-213.7572 247.8291,-220.57"/>
</g>
<!-- Node15 -->
<g id="node4" class="node">
<title>Node15</title>
<g id="a_node4"><a xlink:href="$d2/d11/classMainGameLoop.html#ae4df98e12ba90efd73b144455d9fd52d" xlink:title="MainGameLoop::getLooperInstance">
<polygon fill="none" stroke="#000000" points="226.1787,-178.5 226.1787,-200.5 465.5498,-200.5 465.5498,-178.5 226.1787,-178.5"/>
<text text-anchor="middle" x="345.8643" y="-185.3" font-family="Helvetica,sans-Serif" font-size="14.00" fill="#000000">MainGameLoop::getLooperInstance</text>
</a>
</g>
</g>
<!-- Node13&#45;&gt;Node15 -->
<g id="edge3" class="edge">
<title>Node13&#45;&gt;Node15</title>
<path fill="none" stroke="#191970" d="M190.2396,-167.9682C210.2251,-170.7334 233.4641,-173.9486 255.793,-177.038"/>
<polygon fill="#191970" stroke="#191970" points="255.5878,-180.5429 265.9732,-178.4465 256.5472,-173.6089 255.5878,-180.5429"/>
</g>
<!-- Node16 -->
<g id="node5" class="node">
<title>Node16</title>
<g id="a_node5"><a xlink:href="$d2/d11/classMainGameLoop.html#a2329f4e9c9a4ad9ecbed39d5c297245f" xlink:title="MainGameLoop::startLooper">
<polygon fill="none" stroke="#000000" points="248.7578,-137.5 248.7578,-159.5 442.9707,-159.5 442.9707,-137.5 248.7578,-137.5"/>
<text text-anchor="middle" x="345.8643" y="-144.3" font-family="Helvetica,sans-Serif" font-size="14.00" fill="#000000">MainGameLoop::startLooper</text>
</a>
</g>
</g>
<!-- Node13&#45;&gt;Node16 -->
<g id="edge4" class="edge">
<title>Node13&#45;&gt;Node16</title>
<path fill="none" stroke="#191970" d="M190.2396,-157.4097C205.0055,-156.5643 221.5475,-155.6173 238.1862,-154.6647"/>
<polygon fill="#191970" stroke="#191970" points="238.7601,-158.1377 248.5437,-154.0717 238.36,-151.1491 238.7601,-158.1377"/>
</g>
<!-- Node18 -->
<g id="node7" class="node">
<title>Node18</title>
<g id="a_node7"><a xlink:href="$d5/d24/classServerConnection.html#af558fe509b60eb019281316513f6d188" xlink:title="ServerConnection::onWorkerStop">
<polygon fill="none" stroke="#000000" points="233.3257,-96.5 233.3257,-118.5 458.4028,-118.5 458.4028,-96.5 233.3257,-96.5"/>
<text text-anchor="middle" x="345.8643" y="-103.3" font-family="Helvetica,sans-Serif" font-size="14.00" fill="#000000">ServerConnection::onWorkerStop</text>
</a>
</g>
</g>
<!-- Node17&#45;&gt;Node18 -->
<g id="edge6" class="edge">
<title>Node17&#45;&gt;Node18</title>
<path fill="none" stroke="#191970" d="M174.2192,-97.6731C188.3214,-98.4805 205.1951,-99.4465 222.7774,-100.4531"/>
<polygon fill="#191970" stroke="#191970" points="223.0121,-103.9722 233.1958,-101.0496 223.4122,-96.9836 223.0121,-103.9722"/>
</g>
<!-- Node19 -->
<g id="node8" class="node">
<title>Node19</title>
<g id="a_node8"><a xlink:href="$d5/d24/classServerConnection.html#ad64d541093e285a983911f22ab9a0bff" xlink:title="ServerConnection::getServer\lInstance">
<polygon fill="none" stroke="#000000" points="247.5957,-41.5 247.5957,-77.5 444.1328,-77.5 444.1328,-41.5 247.5957,-41.5"/>
<text text-anchor="start" x="255.5957" y="-62.3" font-family="Helvetica,sans-Serif" font-size="14.00" fill="#000000">ServerConnection::getServer</text>
<text text-anchor="middle" x="345.8643" y="-48.3" font-family="Helvetica,sans-Serif" font-size="14.00" fill="#000000">Instance</text>
</a>
</g>
</g>
<!-- Node17&#45;&gt;Node19 -->
<g id="edge7" class="edge">
<title>Node17&#45;&gt;Node19</title>
<path fill="none" stroke="#191970" d="M174.2192,-88.9807C192.203,-85.8919 214.6938,-82.029 237.4136,-78.1268"/>
<polygon fill="#191970" stroke="#191970" points="238.2379,-81.5366 247.5011,-76.3942 237.0529,-74.6376 238.2379,-81.5366"/>
</g>
<!-- Node20 -->
<g id="node9" class="node">
<title>Node20</title>
<g id="a_node9"><a xlink:href="$d5/d24/classServerConnection.html#a1d45a6a7b2370c82ed2849959bb18c2a" xlink:title="ServerConnection::startServer">
<polygon fill="none" stroke="#000000" points="243.7129,-.5 243.7129,-22.5 448.0156,-22.5 448.0156,-.5 243.7129,-.5"/>
<text text-anchor="middle" x="345.8643" y="-7.3" font-family="Helvetica,sans-Serif" font-size="14.00" fill="#000000">ServerConnection::startServer</text>
</a>
</g>
</g>
<!-- Node17&#45;&gt;Node20 -->
<g id="edge8" class="edge">
<title>Node17&#45;&gt;Node20</title>
<path fill="none" stroke="#191970" d="M148.314,-84.4012C164.6565,-70.0125 195.3577,-45.2566 226.1787,-32.5 232.8793,-29.7267 239.9383,-27.3195 247.1388,-25.2302"/>
<polygon fill="#191970" stroke="#191970" points="248.2759,-28.5489 257.0249,-22.5735 246.4592,-21.7887 248.2759,-28.5489"/>
</g>
</g>
</svg>
