<?xml version="1.0" encoding="UTF-8" standalone="no"?>
<!DOCTYPE svg PUBLIC "-//W3C//DTD SVG 1.1//EN"
 "http://www.w3.org/Graphics/SVG/1.1/DTD/svg11.dtd">
<!-- Generated by graphviz version 2.40.1 (20161225.0304)
 -->
<!-- Title: initMainLooper Pages: 1 -->
<svg width="391pt" height="113pt"
 viewBox="0.00 0.00 391.21 113.00" xmlns="http://www.w3.org/2000/svg" xmlns:xlink="http://www.w3.org/1999/xlink">
<g id="graph0" class="graph" transform="scale(1 1) rotate(0) translate(4 109)">
<title>initMainLooper</title>
<!-- Node0 -->
<g id="node1" class="node">
<title>Node0</title>
<polygon fill="#bfbfbf" stroke="#000000" points="0,-41.5 0,-63.5 107.834,-63.5 107.834,-41.5 0,-41.5"/>
<text text-anchor="middle" x="53.917" y="-48.3" font-family="Helvetica,sans-Serif" font-size="14.00" fill="#000000">initMainLooper</text>
</g>
<!-- Node1 -->
<g id="node2" class="node">
<title>Node1</title>
<g id="a_node2"><a xlink:href="$d2/d11/classMainGameLoop.html#ac4cd47d8b350ae45ea09aaecad11a684" xlink:title="MainGameLoop::getAllMapAsDiff">
<polygon fill="none" stroke="#000000" points="152.1499,-82.5 152.1499,-104.5 374.8892,-104.5 374.8892,-82.5 152.1499,-82.5"/>
<text text-anchor="middle" x="263.5195" y="-89.3" font-family="Helvetica,sans-Serif" font-size="14.00" fill="#000000">MainGameLoop::getAllMapAsDiff</text>
</a>
</g>
</g>
<!-- Node0&#45;&gt;Node1 -->
<g id="edge1" class="edge">
<title>Node0&#45;&gt;Node1</title>
<path fill="none" stroke="#191970" d="M98.6163,-63.533C113.01,-66.9264 129.0581,-70.5431 143.834,-73.5 156.4269,-76.02 169.8091,-78.474 182.8907,-80.7504"/>
<polygon fill="#191970" stroke="#191970" points="182.3695,-84.2121 192.8175,-82.4548 183.554,-77.313 182.3695,-84.2121"/>
</g>
<!-- Node2 -->
<g id="node3" class="node">
<title>Node2</title>
<g id="a_node3"><a xlink:href="$d2/d11/classMainGameLoop.html#ae4df98e12ba90efd73b144455d9fd52d" xlink:title="MainGameLoop::getLooperInstance">
<polygon fill="none" stroke="#000000" points="143.834,-41.5 143.834,-63.5 383.2051,-63.5 383.2051,-41.5 143.834,-41.5"/>
<text text-anchor="middle" x="263.5195" y="-48.3" font-family="Helvetica,sans-Serif" font-size="14.00" fill="#000000">MainGameLoop::getLooperInstance</text>
</a>
</g>
</g>
<!-- Node0&#45;&gt;Node2 -->
<g id="edge2" class="edge">
<title>Node0&#45;&gt;Node2</title>
<path fill="none" stroke="#191970" d="M107.8949,-52.5C116.0028,-52.5 124.6462,-52.5 133.547,-52.5"/>
<polygon fill="#191970" stroke="#191970" points="133.691,-56.0001 143.691,-52.5 133.6909,-49.0001 133.691,-56.0001"/>
</g>
<!-- Node3 -->
<g id="node4" class="node">
<title>Node3</title>
<g id="a_node4"><a xlink:href="$d2/d11/classMainGameLoop.html#a2329f4e9c9a4ad9ecbed39d5c297245f" xlink:title="MainGameLoop::startLooper">
<polygon fill="none" stroke="#000000" points="166.4131,-.5 166.4131,-22.5 360.626,-22.5 360.626,-.5 166.4131,-.5"/>
<text text-anchor="middle" x="263.5195" y="-7.3" font-family="Helvetica,sans-Serif" font-size="14.00" fill="#000000">MainGameLoop::startLooper</text>
</a>
</g>
</g>
<!-- Node0&#45;&gt;Node3 -->
<g id="edge3" class="edge">
<title>Node0&#45;&gt;Node3</title>
<path fill="none" stroke="#191970" d="M101.8969,-41.4071C115.4322,-38.3923 130.188,-35.2133 143.834,-32.5 157.9557,-29.6921 173.0544,-26.8887 187.6056,-24.2871"/>
<polygon fill="#191970" stroke="#191970" points="188.3375,-27.712 197.5732,-22.5207 187.1159,-20.8194 188.3375,-27.712"/>
</g>
</g>
</svg>
