<?xml version="1.0" encoding="UTF-8" standalone="no"?>
<!DOCTYPE svg PUBLIC "-//W3C//DTD SVG 1.1//EN"
 "http://www.w3.org/Graphics/SVG/1.1/DTD/svg11.dtd">
<!-- Generated by graphviz version 2.40.1 (20161225.0304)
 -->
<!-- Title: std::out_of_range Pages: 1 -->
<svg width="133pt" height="281pt"
 viewBox="0.00 0.00 132.97 281.00" xmlns="http://www.w3.org/2000/svg" xmlns:xlink="http://www.w3.org/1999/xlink">
<g id="graph0" class="graph" transform="scale(1 1) rotate(0) translate(4 277)">
<title>std::out_of_range</title>
<!-- Node699 -->
<g id="node1" class="node">
<title>Node699</title>
<polygon fill="#bfbfbf" stroke="#000000" points="0,-.5 0,-66.5 124.9717,-66.5 124.9717,-.5 0,-.5"/>
<text text-anchor="middle" x="62.4858" y="-51.3" font-family="Helvetica,sans-Serif" font-size="14.00" fill="#000000">std::out_of_range</text>
<polyline fill="none" stroke="#000000" points="0,-44.5 124.9717,-44.5 "/>
<text text-anchor="middle" x="62.4858" y="-29.3" font-family="Helvetica,sans-Serif" font-size="14.00" fill="#000000"> </text>
<polyline fill="none" stroke="#000000" points="0,-22.5 124.9717,-22.5 "/>
<text text-anchor="middle" x="62.4858" y="-7.3" font-family="Helvetica,sans-Serif" font-size="14.00" fill="#000000"> </text>
</g>
<!-- Node700 -->
<g id="node2" class="node">
<title>Node700</title>
<g id="a_node2"><a xlink:title="STL class. ">
<polygon fill="none" stroke="#bfbfbf" points="8.1895,-103.5 8.1895,-169.5 116.7822,-169.5 116.7822,-103.5 8.1895,-103.5"/>
<text text-anchor="middle" x="62.4858" y="-154.3" font-family="Helvetica,sans-Serif" font-size="14.00" fill="#000000">std::logic_error</text>
<polyline fill="none" stroke="#bfbfbf" points="8.1895,-147.5 116.7822,-147.5 "/>
<text text-anchor="middle" x="62.4858" y="-132.3" font-family="Helvetica,sans-Serif" font-size="14.00" fill="#000000"> </text>
<polyline fill="none" stroke="#bfbfbf" points="8.1895,-125.5 116.7822,-125.5 "/>
<text text-anchor="middle" x="62.4858" y="-110.3" font-family="Helvetica,sans-Serif" font-size="14.00" fill="#000000"> </text>
</a>
</g>
</g>
<!-- Node700&#45;&gt;Node699 -->
<g id="edge1" class="edge">
<title>Node700&#45;&gt;Node699</title>
<path fill="none" stroke="#191970" d="M62.4858,-93.1362C62.4858,-84.256 62.4858,-75.0447 62.4858,-66.5947"/>
<polygon fill="none" stroke="#191970" points="58.9859,-93.3432 62.4858,-103.3432 65.9859,-93.3432 58.9859,-93.3432"/>
</g>
<!-- Node701 -->
<g id="node3" class="node">
<title>Node701</title>
<g id="a_node3"><a xlink:title="STL class. ">
<polygon fill="none" stroke="#bfbfbf" points="11.293,-206.5 11.293,-272.5 113.6787,-272.5 113.6787,-206.5 11.293,-206.5"/>
<text text-anchor="middle" x="62.4858" y="-257.3" font-family="Helvetica,sans-Serif" font-size="14.00" fill="#000000">std::exception</text>
<polyline fill="none" stroke="#bfbfbf" points="11.293,-250.5 113.6787,-250.5 "/>
<text text-anchor="middle" x="62.4858" y="-235.3" font-family="Helvetica,sans-Serif" font-size="14.00" fill="#000000"> </text>
<polyline fill="none" stroke="#bfbfbf" points="11.293,-228.5 113.6787,-228.5 "/>
<text text-anchor="middle" x="62.4858" y="-213.3" font-family="Helvetica,sans-Serif" font-size="14.00" fill="#000000"> </text>
</a>
</g>
</g>
<!-- Node701&#45;&gt;Node700 -->
<g id="edge2" class="edge">
<title>Node701&#45;&gt;Node700</title>
<path fill="none" stroke="#191970" d="M62.4858,-196.1362C62.4858,-187.256 62.4858,-178.0447 62.4858,-169.5947"/>
<polygon fill="none" stroke="#191970" points="58.9859,-196.3432 62.4858,-206.3432 65.9859,-196.3432 58.9859,-196.3432"/>
</g>
</g>
</svg>
