<?xml version="1.0" encoding="UTF-8" standalone="no"?>
<!DOCTYPE svg PUBLIC "-//W3C//DTD SVG 1.1//EN"
 "http://www.w3.org/Graphics/SVG/1.1/DTD/svg11.dtd">
<!-- Generated by graphviz version 2.40.1 (20161225.0304)
 -->
<!-- Title: SimpleConnection Pages: 1 -->
<!--zoomable 604 -->
<svg id="main" version="1.1" xmlns="http://www.w3.org/2000/svg" xmlns:xlink="http://www.w3.org/1999/xlink" xml:space="preserve" onload="init(evt)">
<style type="text/css"><![CDATA[
.edge:hover path { stroke: red; }
.edge:hover polygon { stroke: red; fill: red; }
]]></style>
<script type="text/javascript"><![CDATA[
var edges = document.getElementsByTagName('g');
if (edges && edges.length) {
  for (var i=0;i<edges.length;i++) {
    if (edges[i].id.substr(0,4)=='edge') {
      edges[i].setAttribute('class','edge');
    }
  }
}
]]></script>
        <defs>
                <circle id="rim" cx="0" cy="0" r="7"/>
                <circle id="rim2" cx="0" cy="0" r="3.5"/>
                <g id="zoomPlus">
                        <use xlink:href="#rim" fill="#404040">
                                <set attributeName="fill" to="#808080" begin="zoomplus.mouseover" end="zoomplus.mouseout"/>
                        </use>
                        <path d="M-4,0h8M0,-4v8" fill="none" stroke="white" stroke-width="1.5" pointer-events="none"/>
                </g>
                <g id="zoomMin">
                        <use xlink:href="#rim" fill="#404040">
                                <set attributeName="fill" to="#808080" begin="zoomminus.mouseover" end="zoomminus.mouseout"/>
                        </use>
                        <path d="M-4,0h8" fill="none" stroke="white" stroke-width="1.5" pointer-events="none"/>
                </g>
                <g id="dirArrow">
                        <path fill="none" stroke="white" stroke-width="1.5" d="M0,-3.0v7 M-2.5,-0.5L0,-3.0L2.5,-0.5"/>
                </g>
               <g id="resetDef">
                       <use xlink:href="#rim2" fill="#404040">
                               <set attributeName="fill" to="#808080" begin="reset.mouseover" end="reset.mouseout"/>
                       </use>
               </g>
        </defs>

<script type="text/javascript">
var viewWidth = 224;
var viewHeight = 604;
var sectionId = 'dynsection-1';
</script>
<script xlink:href="../../svgpan.js"/>
<svg id="graph" class="graph">
<g id="viewport">
<title>SimpleConnection</title>
<!-- Node2 -->
<g id="node1" class="node">
<title>Node2</title>
<polygon fill="#bfbfbf" stroke="#000000" points="8.4369,-243.5 8.4369,-491.5 167.6225,-491.5 167.6225,-243.5 8.4369,-243.5"/>
<text text-anchor="middle" x="88.0297" y="-476.3" font-family="Helvetica,sans-Serif" font-size="14.00" fill="#000000">SimpleConnection</text>
<polyline fill="none" stroke="#000000" points="8.4369,-469.5 167.6225,-469.5 "/>
<text text-anchor="start" x="16.4369" y="-454.3" font-family="Helvetica,sans-Serif" font-size="14.00" fill="#000000"># isWork</text>
<text text-anchor="start" x="16.4369" y="-440.3" font-family="Helvetica,sans-Serif" font-size="14.00" fill="#000000"># adress</text>
<text text-anchor="start" x="16.4369" y="-426.3" font-family="Helvetica,sans-Serif" font-size="14.00" fill="#000000"># socket</text>
<text text-anchor="start" x="16.4369" y="-412.3" font-family="Helvetica,sans-Serif" font-size="14.00" fill="#000000"># out</text>
<text text-anchor="start" x="16.4369" y="-398.3" font-family="Helvetica,sans-Serif" font-size="14.00" fill="#000000"># mutex</text>
<text text-anchor="start" x="16.4369" y="-384.3" font-family="Helvetica,sans-Serif" font-size="14.00" fill="#000000"># messages</text>
<polyline fill="none" stroke="#000000" points="8.4369,-377.5 167.6225,-377.5 "/>
<text text-anchor="start" x="16.4369" y="-362.3" font-family="Helvetica,sans-Serif" font-size="14.00" fill="#000000">+ SimpleConnection()</text>
<text text-anchor="start" x="16.4369" y="-348.3" font-family="Helvetica,sans-Serif" font-size="14.00" fill="#000000">+ ~SimpleConnection()</text>
<text text-anchor="start" x="16.4369" y="-334.3" font-family="Helvetica,sans-Serif" font-size="14.00" fill="#000000">+ openConnection()</text>
<text text-anchor="start" x="16.4369" y="-320.3" font-family="Helvetica,sans-Serif" font-size="14.00" fill="#000000">+ sendDiff()</text>
<text text-anchor="start" x="16.4369" y="-306.3" font-family="Helvetica,sans-Serif" font-size="14.00" fill="#000000">+ getBulder()</text>
<text text-anchor="start" x="16.4369" y="-292.3" font-family="Helvetica,sans-Serif" font-size="14.00" fill="#000000"># run()</text>
<text text-anchor="start" x="16.4369" y="-278.3" font-family="Helvetica,sans-Serif" font-size="14.00" fill="#000000"># addMessage()</text>
<text text-anchor="start" x="16.4369" y="-264.3" font-family="Helvetica,sans-Serif" font-size="14.00" fill="#000000"># onSocketError()</text>
<text text-anchor="start" x="16.4369" y="-250.3" font-family="Helvetica,sans-Serif" font-size="14.00" fill="#000000"># onReadyRead()</text>
</g>
<!-- Node4 -->
<g id="node3" class="node">
<title>Node4</title>
<g id="a_node3"><a xlink:href="../../d9/d90/a00178.html" target="_top" xlink:title="{SimpleConnection::Receiver\lThread\n|# socket\l# in\l# isStart\l# isWork\l# isLoopActive\l|+ ReceiverThread()\l+ ~ReceiverThread()\l+ istThreadStart()\l+ stop()\l# run()\l}">
<polygon fill="none" stroke="#000000" points="23.7094,-.5 23.7094,-192.5 216.35,-192.5 216.35,-.5 23.7094,-.5"/>
<text text-anchor="start" x="31.7094" y="-177.3" font-family="Helvetica,sans-Serif" font-size="14.00" fill="#000000">SimpleConnection::Receiver</text>
<text text-anchor="middle" x="120.0297" y="-163.3" font-family="Helvetica,sans-Serif" font-size="14.00" fill="#000000">Thread</text>
<polyline fill="none" stroke="#000000" points="23.7094,-156.5 216.35,-156.5 "/>
<text text-anchor="start" x="31.7094" y="-141.3" font-family="Helvetica,sans-Serif" font-size="14.00" fill="#000000"># socket</text>
<text text-anchor="start" x="31.7094" y="-127.3" font-family="Helvetica,sans-Serif" font-size="14.00" fill="#000000"># in</text>
<text text-anchor="start" x="31.7094" y="-113.3" font-family="Helvetica,sans-Serif" font-size="14.00" fill="#000000"># isStart</text>
<text text-anchor="start" x="31.7094" y="-99.3" font-family="Helvetica,sans-Serif" font-size="14.00" fill="#000000"># isWork</text>
<text text-anchor="start" x="31.7094" y="-85.3" font-family="Helvetica,sans-Serif" font-size="14.00" fill="#000000"># isLoopActive</text>
<polyline fill="none" stroke="#000000" points="23.7094,-78.5 216.35,-78.5 "/>
<text text-anchor="start" x="31.7094" y="-63.3" font-family="Helvetica,sans-Serif" font-size="14.00" fill="#000000">+ ReceiverThread()</text>
<text text-anchor="start" x="31.7094" y="-49.3" font-family="Helvetica,sans-Serif" font-size="14.00" fill="#000000">+ ~ReceiverThread()</text>
<text text-anchor="start" x="31.7094" y="-35.3" font-family="Helvetica,sans-Serif" font-size="14.00" fill="#000000">+ istThreadStart()</text>
<text text-anchor="start" x="31.7094" y="-21.3" font-family="Helvetica,sans-Serif" font-size="14.00" fill="#000000">+ stop()</text>
<text text-anchor="start" x="31.7094" y="-7.3" font-family="Helvetica,sans-Serif" font-size="14.00" fill="#000000"># run()</text>
</a>
</g>
</g>
<!-- Node2&#45;&gt;Node4 -->
<g id="edge4" class="edge">
<title>Node2&#45;&gt;Node4</title>
<path fill="none" stroke="#404040" d="M8.2879,-273.2697C-.3041,-253.0567 -3.2378,-231.581 5.2992,-211 8.4142,-203.4904 12.2873,-196.2175 16.7078,-189.2235"/>
<polygon fill="none" stroke="#404040" points="16.7937,-189.0974 16.8671,-181.8867 23.5514,-179.181 23.478,-186.3918 16.7937,-189.0974"/>
<text text-anchor="middle" x="53.8949" y="-213.8" font-family="Helvetica,sans-Serif" font-size="14.00" fill="#000000"> #parentThread</text>
</g>
<!-- Node3 -->
<g id="node2" class="node">
<title>Node3</title>
<polygon fill="none" stroke="#bfbfbf" points="106.4057,-529.5 106.4057,-595.5 177.6537,-595.5 177.6537,-529.5 106.4057,-529.5"/>
<text text-anchor="middle" x="142.0297" y="-580.3" font-family="Helvetica,sans-Serif" font-size="14.00" fill="#000000">QThread</text>
<polyline fill="none" stroke="#bfbfbf" points="106.4057,-573.5 177.6537,-573.5 "/>
<text text-anchor="middle" x="142.0297" y="-558.3" font-family="Helvetica,sans-Serif" font-size="14.00" fill="#000000"> </text>
<polyline fill="none" stroke="#bfbfbf" points="106.4057,-551.5 177.6537,-551.5 "/>
<text text-anchor="middle" x="142.0297" y="-536.3" font-family="Helvetica,sans-Serif" font-size="14.00" fill="#000000"> </text>
</g>
<!-- Node3&#45;&gt;Node2 -->
<g id="edge1" class="edge">
<title>Node3&#45;&gt;Node2</title>
<path fill="none" stroke="#191970" d="M130.1829,-519.72C127.7968,-511.1035 125.1772,-501.6438 122.4479,-491.7882"/>
<polygon fill="none" stroke="#191970" points="126.8274,-520.7177 132.8693,-529.4209 133.5735,-518.8495 126.8274,-520.7177"/>
</g>
<!-- Node3&#45;&gt;Node4 -->
<g id="edge3" class="edge">
<title>Node3&#45;&gt;Node4</title>
<path fill="none" stroke="#191970" d="M166.9312,-520.1539C171.1092,-511.1426 174.8062,-501.479 177.0297,-492 205.5571,-370.3837 208.2067,-330.2569 171.0297,-211 169.1515,-204.9752 167.0444,-198.8461 164.7843,-192.7136"/>
<polygon fill="none" stroke="#191970" points="163.7186,-518.7554 162.4447,-529.2734 169.9997,-521.8456 163.7186,-518.7554"/>
</g>
<!-- Node4&#45;&gt;Node2 -->
<g id="edge2" class="edge">
<title>Node4&#45;&gt;Node2</title>
<path fill="none" stroke="#404040" d="M108.6535,-192.8418C107.1701,-205.4045 105.6287,-218.4584 104.0866,-231.5183"/>
<polygon fill="none" stroke="#404040" points="104.079,-231.5827 107.3478,-238.0104 102.6718,-243.4999 99.403,-237.0722 104.079,-231.5827"/>
<text text-anchor="middle" x="136.7641" y="-213.8" font-family="Helvetica,sans-Serif" font-size="14.00" fill="#000000"> #receiver</text>
</g>
</g>
</svg>
        <g id="navigator" transform="translate(0 0)" fill="#404254">
                <rect fill="#f2f5e9" fill-opacity="0.5" stroke="#606060" stroke-width=".5" x="0" y="0" width="60" height="60"/>
                <use id="zoomplus" xlink:href="#zoomPlus" x="17" y="9" onmousedown="handleZoom(evt,'in')"/>
                <use id="zoomminus" xlink:href="#zoomMin" x="42" y="9" onmousedown="handleZoom(evt,'out')"/>
                <use id="reset" xlink:href="#resetDef" x="30" y="36" onmousedown="handleReset()"/>
                <g id="arrowUp" xlink:href="#dirArrow" transform="translate(30 24)" onmousedown="handlePan(0,-1)">
                  <use xlink:href="#rim" fill="#404040">
                        <set attributeName="fill" to="#808080" begin="arrowUp.mouseover" end="arrowUp.mouseout"/>
                  </use>
                  <path fill="none" stroke="white" stroke-width="1.5" d="M0,-3.0v7 M-2.5,-0.5L0,-3.0L2.5,-0.5"/>
                </g>
                <g id="arrowRight" xlink:href="#dirArrow" transform="rotate(90) translate(36 -43)" onmousedown="handlePan(1,0)">
                  <use xlink:href="#rim" fill="#404040">
                        <set attributeName="fill" to="#808080" begin="arrowRight.mouseover" end="arrowRight.mouseout"/>
                  </use>
                  <path fill="none" stroke="white" stroke-width="1.5" d="M0,-3.0v7 M-2.5,-0.5L0,-3.0L2.5,-0.5"/>
                </g>
                <g id="arrowDown" xlink:href="#dirArrow" transform="rotate(180) translate(-30 -48)" onmousedown="handlePan(0,1)">
                  <use xlink:href="#rim" fill="#404040">
                        <set attributeName="fill" to="#808080" begin="arrowDown.mouseover" end="arrowDown.mouseout"/>
                  </use>
                  <path fill="none" stroke="white" stroke-width="1.5" d="M0,-3.0v7 M-2.5,-0.5L0,-3.0L2.5,-0.5"/>
                </g>
                <g id="arrowLeft" xlink:href="#dirArrow" transform="rotate(270) translate(-36 17)" onmousedown="handlePan(-1,0)">
                  <use xlink:href="#rim" fill="#404040">
                        <set attributeName="fill" to="#808080" begin="arrowLeft.mouseover" end="arrowLeft.mouseout"/>
                  </use>
                  <path fill="none" stroke="white" stroke-width="1.5" d="M0,-3.0v7 M-2.5,-0.5L0,-3.0L2.5,-0.5"/>
                </g>
        </g>
        <svg viewBox="0 0 15 15" width="100%" height="30px" preserveAspectRatio="xMaxYMin meet">
         <g id="arrow_out" transform="scale(0.3 0.3)">
          <a xlink:href="a00168_org.svg" target="_base">
           <rect id="button" ry="5" rx="5" y="6" x="6" height="38" width="38"
                fill="#f2f5e9" fill-opacity="0.5" stroke="#606060" stroke-width="1.0"/>
           <path id="arrow"
             d="M 11.500037,31.436501 C 11.940474,20.09759 22.043105,11.32322 32.158766,21.979434 L 37.068811,17.246167 C 37.068811,17.246167 37.088388,32 37.088388,32 L 22.160133,31.978069 C 22.160133,31.978069 26.997745,27.140456 26.997745,27.140456 C 18.528582,18.264221 13.291696,25.230495 11.500037,31.436501 z"
             style="fill:#404040;"/>
          </a>
         </g>
        </svg>
</svg>
