<?xml version="1.0" encoding="UTF-8" standalone="no"?>
<!DOCTYPE svg PUBLIC "-//W3C//DTD SVG 1.1//EN"
 "http://www.w3.org/Graphics/SVG/1.1/DTD/svg11.dtd">
<!-- Generated by graphviz version 2.40.1 (20161225.0304)
 -->
<!-- Title: GameView/mainwindow.h Pages: 1 -->
<svg width="362pt" height="90pt"
 viewBox="0.00 0.00 361.88 90.00" xmlns="http://www.w3.org/2000/svg" xmlns:xlink="http://www.w3.org/1999/xlink">
<g id="graph0" class="graph" transform="scale(1 1) rotate(0) translate(4 86)">
<title>GameView/mainwindow.h</title>
<!-- Node16 -->
<g id="node1" class="node">
<title>Node16</title>
<polygon fill="#bfbfbf" stroke="#000000" points="77.4312,-59.5 77.4312,-81.5 253.4878,-81.5 253.4878,-59.5 77.4312,-59.5"/>
<text text-anchor="middle" x="165.4595" y="-66.3" font-family="Helvetica,sans-Serif" font-size="14.00" fill="#000000">GameView/mainwindow.h</text>
</g>
<!-- Node17 -->
<g id="node2" class="node">
<title>Node17</title>
<g id="a_node2"><a xlink:href="../../da/d2e/a00238.html" target="_top" xlink:title="GameView/main.cpp">
<polygon fill="none" stroke="#000000" points="0,-.5 0,-22.5 144.9189,-22.5 144.9189,-.5 0,-.5"/>
<text text-anchor="middle" x="72.4595" y="-7.3" font-family="Helvetica,sans-Serif" font-size="14.00" fill="#000000">GameView/main.cpp</text>
</a>
</g>
</g>
<!-- Node16&#45;&gt;Node17 -->
<g id="edge1" class="edge">
<title>Node16&#45;&gt;Node17</title>
<path fill="none" stroke="#191970" d="M139.1909,-53.835C123.4035,-43.8193 103.751,-31.3516 89.8736,-22.5477"/>
<polygon fill="#191970" stroke="#191970" points="137.6478,-57.0009 147.9669,-59.4026 141.3978,-51.0901 137.6478,-57.0009"/>
</g>
<!-- Node18 -->
<g id="node3" class="node">
<title>Node18</title>
<g id="a_node3"><a xlink:href="../../da/dec/a00080.html" target="_top" xlink:title="GameView/mainwindow.cpp">
<polygon fill="none" stroke="#000000" points="163.0381,-.5 163.0381,-22.5 353.8809,-22.5 353.8809,-.5 163.0381,-.5"/>
<text text-anchor="middle" x="258.4595" y="-7.3" font-family="Helvetica,sans-Serif" font-size="14.00" fill="#000000">GameView/mainwindow.cpp</text>
</a>
</g>
</g>
<!-- Node16&#45;&gt;Node18 -->
<g id="edge2" class="edge">
<title>Node16&#45;&gt;Node18</title>
<path fill="none" stroke="#191970" d="M191.728,-53.835C207.5155,-43.8193 227.168,-31.3516 241.0453,-22.5477"/>
<polygon fill="#191970" stroke="#191970" points="189.5212,-51.0901 182.9521,-59.4026 193.2711,-57.0009 189.5212,-51.0901"/>
</g>
</g>
</svg>
