<?xml version="1.0" encoding="UTF-8" standalone="no"?>
<!DOCTYPE svg PUBLIC "-//W3C//DTD SVG 1.1//EN"
 "http://www.w3.org/Graphics/SVG/1.1/DTD/svg11.dtd">
<!-- Generated by graphviz version 2.40.1 (20161225.0304)
 -->
<!-- Title: std::logic_error Pages: 1 -->
<svg width="117pt" height="178pt"
 viewBox="0.00 0.00 116.59 178.00" xmlns="http://www.w3.org/2000/svg" xmlns:xlink="http://www.w3.org/1999/xlink">
<g id="graph0" class="graph" transform="scale(1 1) rotate(0) translate(4 174)">
<title>std::logic_error</title>
<!-- Node616 -->
<g id="node1" class="node">
<title>Node616</title>
<polygon fill="#bfbfbf" stroke="#000000" points="0,-.5 0,-66.5 108.5928,-66.5 108.5928,-.5 0,-.5"/>
<text text-anchor="middle" x="54.2964" y="-51.3" font-family="Helvetica,sans-Serif" font-size="14.00" fill="#000000">std::logic_error</text>
<polyline fill="none" stroke="#000000" points="0,-44.5 108.5928,-44.5 "/>
<text text-anchor="middle" x="54.2964" y="-29.3" font-family="Helvetica,sans-Serif" font-size="14.00" fill="#000000"> </text>
<polyline fill="none" stroke="#000000" points="0,-22.5 108.5928,-22.5 "/>
<text text-anchor="middle" x="54.2964" y="-7.3" font-family="Helvetica,sans-Serif" font-size="14.00" fill="#000000"> </text>
</g>
<!-- Node617 -->
<g id="node2" class="node">
<title>Node617</title>
<g id="a_node2"><a xlink:title="STL class. ">
<polygon fill="none" stroke="#bfbfbf" points="3.1035,-103.5 3.1035,-169.5 105.4893,-169.5 105.4893,-103.5 3.1035,-103.5"/>
<text text-anchor="middle" x="54.2964" y="-154.3" font-family="Helvetica,sans-Serif" font-size="14.00" fill="#000000">std::exception</text>
<polyline fill="none" stroke="#bfbfbf" points="3.1035,-147.5 105.4893,-147.5 "/>
<text text-anchor="middle" x="54.2964" y="-132.3" font-family="Helvetica,sans-Serif" font-size="14.00" fill="#000000"> </text>
<polyline fill="none" stroke="#bfbfbf" points="3.1035,-125.5 105.4893,-125.5 "/>
<text text-anchor="middle" x="54.2964" y="-110.3" font-family="Helvetica,sans-Serif" font-size="14.00" fill="#000000"> </text>
</a>
</g>
</g>
<!-- Node617&#45;&gt;Node616 -->
<g id="edge1" class="edge">
<title>Node617&#45;&gt;Node616</title>
<path fill="none" stroke="#191970" d="M54.2964,-93.1362C54.2964,-84.256 54.2964,-75.0447 54.2964,-66.5947"/>
<polygon fill="none" stroke="#191970" points="50.7965,-93.3432 54.2964,-103.3432 57.7965,-93.3432 50.7965,-93.3432"/>
</g>
</g>
</svg>
