<?xml version="1.0" encoding="UTF-8" standalone="no"?>
<!DOCTYPE svg PUBLIC "-//W3C//DTD SVG 1.1//EN"
 "http://www.w3.org/Graphics/SVG/1.1/DTD/svg11.dtd">
<!-- Generated by graphviz version 2.40.1 (20161225.0304)
 -->
<!-- Title: std::vector&lt; T &gt; Pages: 1 -->
<svg width="133pt" height="192pt"
 viewBox="0.00 0.00 133.26 192.00" xmlns="http://www.w3.org/2000/svg" xmlns:xlink="http://www.w3.org/1999/xlink">
<g id="graph0" class="graph" transform="scale(1 1) rotate(0) translate(4 188)">
<title>std::vector&lt; T &gt;</title>
<!-- Node878 -->
<g id="node1" class="node">
<title>Node878</title>
<polygon fill="#bfbfbf" stroke="#000000" points="0,-.5 0,-66.5 112.7695,-66.5 112.7695,-.5 0,-.5"/>
<text text-anchor="middle" x="56.3848" y="-51.3" font-family="Helvetica,sans-Serif" font-size="14.00" fill="#000000">std::vector&lt; T &gt;</text>
<polyline fill="none" stroke="#000000" points="0,-44.5 112.7695,-44.5 "/>
<text text-anchor="middle" x="56.3848" y="-29.3" font-family="Helvetica,sans-Serif" font-size="14.00" fill="#000000"> </text>
<polyline fill="none" stroke="#000000" points="0,-22.5 112.7695,-22.5 "/>
<text text-anchor="middle" x="56.3848" y="-7.3" font-family="Helvetica,sans-Serif" font-size="14.00" fill="#000000"> </text>
</g>
<!-- Node879 -->
<g id="node2" class="node">
<title>Node879</title>
<polygon fill="none" stroke="#bfbfbf" points="41.8848,-117.5 41.8848,-183.5 70.8848,-183.5 70.8848,-117.5 41.8848,-117.5"/>
<text text-anchor="middle" x="56.1606" y="-168.3" font-family="Helvetica,sans-Serif" font-size="14.00" fill="#000000">T</text>
<polyline fill="none" stroke="#bfbfbf" points="41.8848,-161.5 70.4365,-161.5 "/>
<text text-anchor="middle" x="56.1606" y="-146.3" font-family="Helvetica,sans-Serif" font-size="14.00" fill="#000000"> </text>
<polyline fill="none" stroke="#bfbfbf" points="41.8848,-139.5 70.4365,-139.5 "/>
<text text-anchor="middle" x="56.1606" y="-124.3" font-family="Helvetica,sans-Serif" font-size="14.00" fill="#000000"> </text>
</g>
<!-- Node879&#45;&gt;Node878 -->
<g id="edge1" class="edge">
<title>Node879&#45;&gt;Node878</title>
<path fill="none" stroke="#404040" d="M56.3848,-117.2855C56.3848,-105.4288 56.3848,-91.8562 56.3848,-79.1371"/>
<polygon fill="none" stroke="#404040" points="56.3849,-78.7976 52.3848,-72.7976 56.3848,-66.7976 60.3848,-72.7976 56.3849,-78.7976"/>
<text text-anchor="middle" x="90.8208" y="-87.8" font-family="Helvetica,sans-Serif" font-size="14.00" fill="#000000"> +elements</text>
</g>
</g>
</svg>
