<?xml version="1.0" encoding="UTF-8" standalone="no"?>
<!DOCTYPE svg PUBLIC "-//W3C//DTD SVG 1.1//EN"
 "http://www.w3.org/Graphics/SVG/1.1/DTD/svg11.dtd">
<!-- Generated by graphviz version 2.40.1 (20161225.0304)
 -->
<!-- Title: std::wstring Pages: 1 -->
<svg width="133pt" height="192pt"
 viewBox="0.00 0.00 133.33 192.00" xmlns="http://www.w3.org/2000/svg" xmlns:xlink="http://www.w3.org/1999/xlink">
<g id="graph0" class="graph" transform="scale(1 1) rotate(0) translate(4 188)">
<title>std::wstring</title>
<!-- Node959 -->
<g id="node1" class="node">
<title>Node959</title>
<polygon fill="#bfbfbf" stroke="#000000" points="19.2671,-.5 19.2671,-66.5 106.0669,-66.5 106.0669,-.5 19.2671,-.5"/>
<text text-anchor="middle" x="62.667" y="-51.3" font-family="Helvetica,sans-Serif" font-size="14.00" fill="#000000">std::wstring</text>
<polyline fill="none" stroke="#000000" points="19.2671,-44.5 106.0669,-44.5 "/>
<text text-anchor="middle" x="62.667" y="-29.3" font-family="Helvetica,sans-Serif" font-size="14.00" fill="#000000"> </text>
<polyline fill="none" stroke="#000000" points="19.2671,-22.5 106.0669,-22.5 "/>
<text text-anchor="middle" x="62.667" y="-7.3" font-family="Helvetica,sans-Serif" font-size="14.00" fill="#000000"> </text>
</g>
<!-- Node960 -->
<g id="node2" class="node">
<title>Node960</title>
<g id="a_node2"><a xlink:title="STL class. ">
<polygon fill="none" stroke="#bfbfbf" points="0,-103.5 0,-183.5 125.334,-183.5 125.334,-103.5 0,-103.5"/>
<text text-anchor="start" x="8" y="-168.3" font-family="Helvetica,sans-Serif" font-size="14.00" fill="#000000">std::basic_string&lt;</text>
<text text-anchor="middle" x="62.667" y="-154.3" font-family="Helvetica,sans-Serif" font-size="14.00" fill="#000000"> wchar_t &gt;</text>
<polyline fill="none" stroke="#bfbfbf" points="0,-147.5 125.334,-147.5 "/>
<text text-anchor="middle" x="62.667" y="-132.3" font-family="Helvetica,sans-Serif" font-size="14.00" fill="#000000"> </text>
<polyline fill="none" stroke="#bfbfbf" points="0,-125.5 125.334,-125.5 "/>
<text text-anchor="middle" x="62.667" y="-110.3" font-family="Helvetica,sans-Serif" font-size="14.00" fill="#000000"> </text>
</a>
</g>
</g>
<!-- Node960&#45;&gt;Node959 -->
<g id="edge1" class="edge">
<title>Node960&#45;&gt;Node959</title>
<path fill="none" stroke="#191970" d="M62.667,-93.4195C62.667,-84.3987 62.667,-75.2 62.667,-66.8045"/>
<polygon fill="none" stroke="#191970" points="59.1671,-93.4763 62.667,-103.4763 66.1671,-93.4763 59.1671,-93.4763"/>
</g>
</g>
</svg>
