<?xml version="1.0" encoding="UTF-8" standalone="no"?>
<!DOCTYPE svg PUBLIC "-//W3C//DTD SVG 1.1//EN"
 "http://www.w3.org/Graphics/SVG/1.1/DTD/svg11.dtd">
<!-- Generated by graphviz version 2.40.1 (20161225.0304)
 -->
<!-- Title: std::exception Pages: 1 -->
<svg width="1385pt" height="281pt"
 viewBox="0.00 0.00 1385.45 281.00" xmlns="http://www.w3.org/2000/svg" xmlns:xlink="http://www.w3.org/1999/xlink">
<g id="graph0" class="graph" transform="scale(1 1) rotate(0) translate(4 277)">
<title>std::exception</title>
<!-- Node399 -->
<g id="node1" class="node">
<title>Node399</title>
<polygon fill="#bfbfbf" stroke="#000000" points="393.0034,-206.5 393.0034,-272.5 495.3892,-272.5 495.3892,-206.5 393.0034,-206.5"/>
<text text-anchor="middle" x="444.1963" y="-257.3" font-family="Helvetica,sans-Serif" font-size="14.00" fill="#000000">std::exception</text>
<polyline fill="none" stroke="#000000" points="393.0034,-250.5 495.3892,-250.5 "/>
<text text-anchor="middle" x="444.1963" y="-235.3" font-family="Helvetica,sans-Serif" font-size="14.00" fill="#000000"> </text>
<polyline fill="none" stroke="#000000" points="393.0034,-228.5 495.3892,-228.5 "/>
<text text-anchor="middle" x="444.1963" y="-213.3" font-family="Helvetica,sans-Serif" font-size="14.00" fill="#000000"> </text>
</g>
<!-- Node400 -->
<g id="node2" class="node">
<title>Node400</title>
<g id="a_node2"><a xlink:title="STL class. ">
<polygon fill="none" stroke="#bfbfbf" points="0,-103.5 0,-169.5 102.3926,-169.5 102.3926,-103.5 0,-103.5"/>
<text text-anchor="middle" x="51.1963" y="-154.3" font-family="Helvetica,sans-Serif" font-size="14.00" fill="#000000">std::bad_alloc</text>
<polyline fill="none" stroke="#bfbfbf" points="0,-147.5 102.3926,-147.5 "/>
<text text-anchor="middle" x="51.1963" y="-132.3" font-family="Helvetica,sans-Serif" font-size="14.00" fill="#000000"> </text>
<polyline fill="none" stroke="#bfbfbf" points="0,-125.5 102.3926,-125.5 "/>
<text text-anchor="middle" x="51.1963" y="-110.3" font-family="Helvetica,sans-Serif" font-size="14.00" fill="#000000"> </text>
</a>
</g>
</g>
<!-- Node399&#45;&gt;Node400 -->
<g id="edge1" class="edge">
<title>Node399&#45;&gt;Node400</title>
<path fill="none" stroke="#191970" d="M382.8118,-232.368C314.7907,-223.1749 202.629,-204.1534 111.1963,-170 108.2905,-168.9146 105.3561,-167.7041 102.4288,-166.4051"/>
<polygon fill="none" stroke="#191970" points="382.5568,-235.8647 392.9295,-233.7068 383.4751,-228.9252 382.5568,-235.8647"/>
</g>
<!-- Node401 -->
<g id="node3" class="node">
<title>Node401</title>
<g id="a_node3"><a xlink:title="STL class. ">
<polygon fill="none" stroke="#bfbfbf" points="120.5586,-103.5 120.5586,-169.5 219.834,-169.5 219.834,-103.5 120.5586,-103.5"/>
<text text-anchor="middle" x="170.1963" y="-154.3" font-family="Helvetica,sans-Serif" font-size="14.00" fill="#000000">std::bad_cast</text>
<polyline fill="none" stroke="#bfbfbf" points="120.5586,-147.5 219.834,-147.5 "/>
<text text-anchor="middle" x="170.1963" y="-132.3" font-family="Helvetica,sans-Serif" font-size="14.00" fill="#000000"> </text>
<polyline fill="none" stroke="#bfbfbf" points="120.5586,-125.5 219.834,-125.5 "/>
<text text-anchor="middle" x="170.1963" y="-110.3" font-family="Helvetica,sans-Serif" font-size="14.00" fill="#000000"> </text>
</a>
</g>
</g>
<!-- Node399&#45;&gt;Node401 -->
<g id="edge2" class="edge">
<title>Node399&#45;&gt;Node401</title>
<path fill="none" stroke="#191970" d="M383.1877,-223.6215C339.2078,-211.2792 278.9143,-192.4996 228.1963,-170 225.5389,-168.8211 222.8475,-167.5531 220.1539,-166.2244"/>
<polygon fill="none" stroke="#191970" points="382.3034,-227.0083 392.8752,-226.3102 384.1755,-220.2633 382.3034,-227.0083"/>
</g>
<!-- Node402 -->
<g id="node4" class="node">
<title>Node402</title>
<g id="a_node4"><a xlink:title="STL class. ">
<polygon fill="none" stroke="#bfbfbf" points="237.4312,-103.5 237.4312,-169.5 370.9614,-169.5 370.9614,-103.5 237.4312,-103.5"/>
<text text-anchor="middle" x="304.1963" y="-154.3" font-family="Helvetica,sans-Serif" font-size="14.00" fill="#000000">std::bad_exception</text>
<polyline fill="none" stroke="#bfbfbf" points="237.4312,-147.5 370.9614,-147.5 "/>
<text text-anchor="middle" x="304.1963" y="-132.3" font-family="Helvetica,sans-Serif" font-size="14.00" fill="#000000"> </text>
<polyline fill="none" stroke="#bfbfbf" points="237.4312,-125.5 370.9614,-125.5 "/>
<text text-anchor="middle" x="304.1963" y="-110.3" font-family="Helvetica,sans-Serif" font-size="14.00" fill="#000000"> </text>
</a>
</g>
</g>
<!-- Node399&#45;&gt;Node402 -->
<g id="edge3" class="edge">
<title>Node399&#45;&gt;Node402</title>
<path fill="none" stroke="#191970" d="M390.729,-200.1633C377.0195,-190.0771 362.4127,-179.3306 349.1794,-169.5947"/>
<polygon fill="none" stroke="#191970" points="388.9997,-203.2363 399.1288,-206.3432 393.148,-197.5978 388.9997,-203.2363"/>
</g>
<!-- Node403 -->
<g id="node5" class="node">
<title>Node403</title>
<g id="a_node5"><a xlink:title="STL class. ">
<polygon fill="none" stroke="#bfbfbf" points="388.7173,-103.5 388.7173,-169.5 499.6753,-169.5 499.6753,-103.5 388.7173,-103.5"/>
<text text-anchor="middle" x="444.1963" y="-154.3" font-family="Helvetica,sans-Serif" font-size="14.00" fill="#000000">std::bad_typeid</text>
<polyline fill="none" stroke="#bfbfbf" points="388.7173,-147.5 499.6753,-147.5 "/>
<text text-anchor="middle" x="444.1963" y="-132.3" font-family="Helvetica,sans-Serif" font-size="14.00" fill="#000000"> </text>
<polyline fill="none" stroke="#bfbfbf" points="388.7173,-125.5 499.6753,-125.5 "/>
<text text-anchor="middle" x="444.1963" y="-110.3" font-family="Helvetica,sans-Serif" font-size="14.00" fill="#000000"> </text>
</a>
</g>
</g>
<!-- Node399&#45;&gt;Node403 -->
<g id="edge4" class="edge">
<title>Node399&#45;&gt;Node403</title>
<path fill="none" stroke="#191970" d="M444.1963,-196.1362C444.1963,-187.256 444.1963,-178.0447 444.1963,-169.5947"/>
<polygon fill="none" stroke="#191970" points="440.6964,-196.3432 444.1963,-206.3432 447.6964,-196.3432 440.6964,-196.3432"/>
</g>
<!-- Node404 -->
<g id="node6" class="node">
<title>Node404</title>
<g id="a_node6"><a xlink:title="STL class. ">
<polygon fill="none" stroke="#bfbfbf" points="517.9932,-103.5 517.9932,-169.5 662.3994,-169.5 662.3994,-103.5 517.9932,-103.5"/>
<text text-anchor="middle" x="590.1963" y="-154.3" font-family="Helvetica,sans-Serif" font-size="14.00" fill="#000000">std::ios_base::failure</text>
<polyline fill="none" stroke="#bfbfbf" points="517.9932,-147.5 662.3994,-147.5 "/>
<text text-anchor="middle" x="590.1963" y="-132.3" font-family="Helvetica,sans-Serif" font-size="14.00" fill="#000000"> </text>
<polyline fill="none" stroke="#bfbfbf" points="517.9932,-125.5 662.3994,-125.5 "/>
<text text-anchor="middle" x="590.1963" y="-110.3" font-family="Helvetica,sans-Serif" font-size="14.00" fill="#000000"> </text>
</a>
</g>
</g>
<!-- Node399&#45;&gt;Node404 -->
<g id="edge5" class="edge">
<title>Node399&#45;&gt;Node404</title>
<path fill="none" stroke="#191970" d="M499.5507,-200.4486C513.9645,-190.2799 529.3547,-179.4225 543.2854,-169.5947"/>
<polygon fill="none" stroke="#191970" points="497.3489,-197.7186 491.1953,-206.3432 501.3841,-203.4385 497.3489,-197.7186"/>
</g>
<!-- Node405 -->
<g id="node7" class="node">
<title>Node405</title>
<g id="a_node7"><a xlink:title="STL class. ">
<polygon fill="none" stroke="#bfbfbf" points="679.8999,-103.5 679.8999,-169.5 788.4927,-169.5 788.4927,-103.5 679.8999,-103.5"/>
<text text-anchor="middle" x="734.1963" y="-154.3" font-family="Helvetica,sans-Serif" font-size="14.00" fill="#000000">std::logic_error</text>
<polyline fill="none" stroke="#bfbfbf" points="679.8999,-147.5 788.4927,-147.5 "/>
<text text-anchor="middle" x="734.1963" y="-132.3" font-family="Helvetica,sans-Serif" font-size="14.00" fill="#000000"> </text>
<polyline fill="none" stroke="#bfbfbf" points="679.8999,-125.5 788.4927,-125.5 "/>
<text text-anchor="middle" x="734.1963" y="-110.3" font-family="Helvetica,sans-Serif" font-size="14.00" fill="#000000"> </text>
</a>
</g>
</g>
<!-- Node399&#45;&gt;Node405 -->
<g id="edge6" class="edge">
<title>Node399&#45;&gt;Node405</title>
<path fill="none" stroke="#191970" d="M505.5528,-224.1437C551.8736,-211.7335 616.5694,-192.6409 671.1963,-170 674.0572,-168.8142 676.9602,-167.5406 679.8697,-166.2076"/>
<polygon fill="none" stroke="#191970" points="504.433,-220.8196 495.6645,-226.7664 506.2276,-227.5857 504.433,-220.8196"/>
</g>
<!-- Node410 -->
<g id="node12" class="node">
<title>Node410</title>
<g id="a_node12"><a xlink:title="STL class. ">
<polygon fill="none" stroke="#bfbfbf" points="1026.9551,-103.5 1026.9551,-169.5 1153.4375,-169.5 1153.4375,-103.5 1026.9551,-103.5"/>
<text text-anchor="middle" x="1090.1963" y="-154.3" font-family="Helvetica,sans-Serif" font-size="14.00" fill="#000000">std::runtime_error</text>
<polyline fill="none" stroke="#bfbfbf" points="1026.9551,-147.5 1153.4375,-147.5 "/>
<text text-anchor="middle" x="1090.1963" y="-132.3" font-family="Helvetica,sans-Serif" font-size="14.00" fill="#000000"> </text>
<polyline fill="none" stroke="#bfbfbf" points="1026.9551,-125.5 1153.4375,-125.5 "/>
<text text-anchor="middle" x="1090.1963" y="-110.3" font-family="Helvetica,sans-Serif" font-size="14.00" fill="#000000"> </text>
</a>
</g>
</g>
<!-- Node399&#45;&gt;Node410 -->
<g id="edge11" class="edge">
<title>Node399&#45;&gt;Node410</title>
<path fill="none" stroke="#191970" d="M505.3965,-229.7421C627.9579,-210.2005 902.4015,-166.4425 1026.7742,-146.6122"/>
<polygon fill="none" stroke="#191970" points="504.7509,-226.3007 495.4268,-231.3317 505.8532,-233.2134 504.7509,-226.3007"/>
</g>
<!-- Node406 -->
<g id="node8" class="node">
<title>Node406</title>
<g id="a_node8"><a xlink:title="STL class. ">
<polygon fill="none" stroke="#bfbfbf" points="364.3379,-.5 364.3379,-66.5 490.0547,-66.5 490.0547,-.5 364.3379,-.5"/>
<text text-anchor="middle" x="427.1963" y="-51.3" font-family="Helvetica,sans-Serif" font-size="14.00" fill="#000000">std::domain_error</text>
<polyline fill="none" stroke="#bfbfbf" points="364.3379,-44.5 490.0547,-44.5 "/>
<text text-anchor="middle" x="427.1963" y="-29.3" font-family="Helvetica,sans-Serif" font-size="14.00" fill="#000000"> </text>
<polyline fill="none" stroke="#bfbfbf" points="364.3379,-22.5 490.0547,-22.5 "/>
<text text-anchor="middle" x="427.1963" y="-7.3" font-family="Helvetica,sans-Serif" font-size="14.00" fill="#000000"> </text>
</a>
</g>
</g>
<!-- Node405&#45;&gt;Node406 -->
<g id="edge7" class="edge">
<title>Node405&#45;&gt;Node406</title>
<path fill="none" stroke="#191970" d="M669.7987,-102.8491C595.2323,-77.5101 569.6161,-90.9067 498.1963,-67 495.6113,-66.1347 492.997,-65.2002 490.3735,-64.2125"/>
<polygon fill="none" stroke="#191970" points="669.0475,-106.2953 679.6423,-106.3188 671.3746,-99.6934 669.0475,-106.2953"/>
</g>
<!-- Node407 -->
<g id="node9" class="node">
<title>Node407</title>
<g id="a_node9"><a xlink:title="STL class. ">
<polygon fill="none" stroke="#bfbfbf" points="507.6587,-.5 507.6587,-66.5 656.7339,-66.5 656.7339,-.5 507.6587,-.5"/>
<text text-anchor="middle" x="582.1963" y="-51.3" font-family="Helvetica,sans-Serif" font-size="14.00" fill="#000000">std::invalid_argument</text>
<polyline fill="none" stroke="#bfbfbf" points="507.6587,-44.5 656.7339,-44.5 "/>
<text text-anchor="middle" x="582.1963" y="-29.3" font-family="Helvetica,sans-Serif" font-size="14.00" fill="#000000"> </text>
<polyline fill="none" stroke="#bfbfbf" points="507.6587,-22.5 656.7339,-22.5 "/>
<text text-anchor="middle" x="582.1963" y="-7.3" font-family="Helvetica,sans-Serif" font-size="14.00" fill="#000000"> </text>
</a>
</g>
</g>
<!-- Node405&#45;&gt;Node407 -->
<g id="edge8" class="edge">
<title>Node405&#45;&gt;Node407</title>
<path fill="none" stroke="#191970" d="M676.5671,-97.4486C661.5609,-87.2799 645.5382,-76.4225 631.035,-66.5947"/>
<polygon fill="none" stroke="#191970" points="675.0241,-100.6309 685.2659,-103.3432 678.9509,-94.836 675.0241,-100.6309"/>
</g>
<!-- Node408 -->
<g id="node10" class="node">
<title>Node408</title>
<g id="a_node10"><a xlink:title="STL class. ">
<polygon fill="none" stroke="#bfbfbf" points="675.2241,-.5 675.2241,-66.5 793.1685,-66.5 793.1685,-.5 675.2241,-.5"/>
<text text-anchor="middle" x="734.1963" y="-51.3" font-family="Helvetica,sans-Serif" font-size="14.00" fill="#000000">std::length_error</text>
<polyline fill="none" stroke="#bfbfbf" points="675.2241,-44.5 793.1685,-44.5 "/>
<text text-anchor="middle" x="734.1963" y="-29.3" font-family="Helvetica,sans-Serif" font-size="14.00" fill="#000000"> </text>
<polyline fill="none" stroke="#bfbfbf" points="675.2241,-22.5 793.1685,-22.5 "/>
<text text-anchor="middle" x="734.1963" y="-7.3" font-family="Helvetica,sans-Serif" font-size="14.00" fill="#000000"> </text>
</a>
</g>
</g>
<!-- Node405&#45;&gt;Node408 -->
<g id="edge9" class="edge">
<title>Node405&#45;&gt;Node408</title>
<path fill="none" stroke="#191970" d="M734.1963,-93.1362C734.1963,-84.256 734.1963,-75.0447 734.1963,-66.5947"/>
<polygon fill="none" stroke="#191970" points="730.6964,-93.3432 734.1963,-103.3432 737.6964,-93.3432 730.6964,-93.3432"/>
</g>
<!-- Node409 -->
<g id="node11" class="node">
<title>Node409</title>
<g id="a_node11"><a xlink:title="STL class. ">
<polygon fill="none" stroke="#bfbfbf" points="810.7104,-.5 810.7104,-66.5 935.6821,-66.5 935.6821,-.5 810.7104,-.5"/>
<text text-anchor="middle" x="873.1963" y="-51.3" font-family="Helvetica,sans-Serif" font-size="14.00" fill="#000000">std::out_of_range</text>
<polyline fill="none" stroke="#bfbfbf" points="810.7104,-44.5 935.6821,-44.5 "/>
<text text-anchor="middle" x="873.1963" y="-29.3" font-family="Helvetica,sans-Serif" font-size="14.00" fill="#000000"> </text>
<polyline fill="none" stroke="#bfbfbf" points="810.7104,-22.5 935.6821,-22.5 "/>
<text text-anchor="middle" x="873.1963" y="-7.3" font-family="Helvetica,sans-Serif" font-size="14.00" fill="#000000"> </text>
</a>
</g>
</g>
<!-- Node405&#45;&gt;Node409 -->
<g id="edge10" class="edge">
<title>Node405&#45;&gt;Node409</title>
<path fill="none" stroke="#191970" d="M787.2817,-97.1633C800.8932,-87.0771 815.3957,-76.3306 828.5345,-66.5947"/>
<polygon fill="none" stroke="#191970" points="784.8927,-94.5774 778.9419,-103.3432 789.0602,-100.2016 784.8927,-94.5774"/>
</g>
<!-- Node411 -->
<g id="node13" class="node">
<title>Node411</title>
<g id="a_node13"><a xlink:title="STL class. ">
<polygon fill="none" stroke="#bfbfbf" points="953.231,-.5 953.231,-66.5 1085.1616,-66.5 1085.1616,-.5 953.231,-.5"/>
<text text-anchor="middle" x="1019.1963" y="-51.3" font-family="Helvetica,sans-Serif" font-size="14.00" fill="#000000">std::overflow_error</text>
<polyline fill="none" stroke="#bfbfbf" points="953.231,-44.5 1085.1616,-44.5 "/>
<text text-anchor="middle" x="1019.1963" y="-29.3" font-family="Helvetica,sans-Serif" font-size="14.00" fill="#000000"> </text>
<polyline fill="none" stroke="#bfbfbf" points="953.231,-22.5 1085.1616,-22.5 "/>
<text text-anchor="middle" x="1019.1963" y="-7.3" font-family="Helvetica,sans-Serif" font-size="14.00" fill="#000000"> </text>
</a>
</g>
</g>
<!-- Node410&#45;&gt;Node411 -->
<g id="edge12" class="edge">
<title>Node410&#45;&gt;Node411</title>
<path fill="none" stroke="#191970" d="M1061.4993,-94.8691C1055.0139,-85.4607 1048.2138,-75.5958 1042.0091,-66.5947"/>
<polygon fill="none" stroke="#191970" points="1058.7834,-97.0962 1067.3406,-103.3432 1064.5468,-93.1233 1058.7834,-97.0962"/>
</g>
<!-- Node412 -->
<g id="node14" class="node">
<title>Node412</title>
<g id="a_node14"><a xlink:title="STL class. ">
<polygon fill="none" stroke="#bfbfbf" points="1103.3931,-.5 1103.3931,-66.5 1218.9995,-66.5 1218.9995,-.5 1103.3931,-.5"/>
<text text-anchor="middle" x="1161.1963" y="-51.3" font-family="Helvetica,sans-Serif" font-size="14.00" fill="#000000">std::range_error</text>
<polyline fill="none" stroke="#bfbfbf" points="1103.3931,-44.5 1218.9995,-44.5 "/>
<text text-anchor="middle" x="1161.1963" y="-29.3" font-family="Helvetica,sans-Serif" font-size="14.00" fill="#000000"> </text>
<polyline fill="none" stroke="#bfbfbf" points="1103.3931,-22.5 1218.9995,-22.5 "/>
<text text-anchor="middle" x="1161.1963" y="-7.3" font-family="Helvetica,sans-Serif" font-size="14.00" fill="#000000"> </text>
</a>
</g>
</g>
<!-- Node410&#45;&gt;Node412 -->
<g id="edge13" class="edge">
<title>Node410&#45;&gt;Node412</title>
<path fill="none" stroke="#191970" d="M1118.8933,-94.8691C1125.3787,-85.4607 1132.1788,-75.5958 1138.3834,-66.5947"/>
<polygon fill="none" stroke="#191970" points="1115.8458,-93.1233 1113.052,-103.3432 1121.6092,-97.0962 1115.8458,-93.1233"/>
</g>
<!-- Node413 -->
<g id="node15" class="node">
<title>Node413</title>
<g id="a_node15"><a xlink:title="STL class. ">
<polygon fill="none" stroke="#bfbfbf" points="1236.9448,-.5 1236.9448,-66.5 1377.4478,-66.5 1377.4478,-.5 1236.9448,-.5"/>
<text text-anchor="middle" x="1307.1963" y="-51.3" font-family="Helvetica,sans-Serif" font-size="14.00" fill="#000000">std::underflow_error</text>
<polyline fill="none" stroke="#bfbfbf" points="1236.9448,-44.5 1377.4478,-44.5 "/>
<text text-anchor="middle" x="1307.1963" y="-29.3" font-family="Helvetica,sans-Serif" font-size="14.00" fill="#000000"> </text>
<polyline fill="none" stroke="#bfbfbf" points="1236.9448,-22.5 1377.4478,-22.5 "/>
<text text-anchor="middle" x="1307.1963" y="-7.3" font-family="Helvetica,sans-Serif" font-size="14.00" fill="#000000"> </text>
</a>
</g>
</g>
<!-- Node410&#45;&gt;Node413 -->
<g id="edge14" class="edge">
<title>Node410&#45;&gt;Node413</title>
<path fill="none" stroke="#191970" d="M1162.6269,-102.1205C1186.6947,-90.6966 1213.4345,-78.0045 1237.3066,-66.6735"/>
<polygon fill="none" stroke="#191970" points="1161.0782,-98.9813 1153.545,-106.4312 1164.0798,-105.3051 1161.0782,-98.9813"/>
</g>
</g>
</svg>
