<?xml version="1.0" encoding="UTF-8" standalone="no"?>
<!DOCTYPE svg PUBLIC "-//W3C//DTD SVG 1.1//EN"
 "http://www.w3.org/Graphics/SVG/1.1/DTD/svg11.dtd">
<!-- Generated by graphviz version 2.40.1 (20161225.0304)
 -->
<!-- Title: MainWindow Pages: 1 -->
<svg width="292pt" height="492pt"
 viewBox="0.00 0.00 292.11 492.00" xmlns="http://www.w3.org/2000/svg" xmlns:xlink="http://www.w3.org/1999/xlink">
<g id="graph0" class="graph" transform="scale(1 1) rotate(0) translate(4 488)">
<title>MainWindow</title>
<!-- Node2 -->
<g id="node1" class="node">
<title>Node2</title>
<polygon fill="#bfbfbf" stroke="#000000" points="28.4863,-.5 28.4863,-94.5 170.541,-94.5 170.541,-.5 28.4863,-.5"/>
<text text-anchor="middle" x="99.5137" y="-79.3" font-family="Helvetica,sans-Serif" font-size="14.00" fill="#000000">MainWindow</text>
<polyline fill="none" stroke="#000000" points="28.4863,-72.5 170.541,-72.5 "/>
<text text-anchor="start" x="36.4863" y="-57.3" font-family="Helvetica,sans-Serif" font-size="14.00" fill="#000000">&#45; ui</text>
<polyline fill="none" stroke="#000000" points="28.4863,-50.5 170.541,-50.5 "/>
<text text-anchor="start" x="36.4863" y="-35.3" font-family="Helvetica,sans-Serif" font-size="14.00" fill="#000000">+ MainWindow()</text>
<text text-anchor="start" x="36.4863" y="-21.3" font-family="Helvetica,sans-Serif" font-size="14.00" fill="#000000">+ ~MainWindow()</text>
<text text-anchor="start" x="36.4863" y="-7.3" font-family="Helvetica,sans-Serif" font-size="14.00" fill="#000000"># connectToServer()</text>
</g>
<!-- Node3 -->
<g id="node2" class="node">
<title>Node3</title>
<polygon fill="none" stroke="#bfbfbf" points="0,-229.5 0,-295.5 107.0273,-295.5 107.0273,-229.5 0,-229.5"/>
<text text-anchor="middle" x="53.5137" y="-280.3" font-family="Helvetica,sans-Serif" font-size="14.00" fill="#000000">QMainWindow</text>
<polyline fill="none" stroke="#bfbfbf" points="0,-273.5 107.0273,-273.5 "/>
<text text-anchor="middle" x="53.5137" y="-258.3" font-family="Helvetica,sans-Serif" font-size="14.00" fill="#000000"> </text>
<polyline fill="none" stroke="#bfbfbf" points="0,-251.5 107.0273,-251.5 "/>
<text text-anchor="middle" x="53.5137" y="-236.3" font-family="Helvetica,sans-Serif" font-size="14.00" fill="#000000"> </text>
</g>
<!-- Node3&#45;&gt;Node2 -->
<g id="edge1" class="edge">
<title>Node3&#45;&gt;Node2</title>
<path fill="none" stroke="#191970" d="M62.7862,-219.1608C70.5095,-183.0632 81.4893,-131.7442 89.4299,-94.6307"/>
<polygon fill="none" stroke="#191970" points="59.2701,-218.8664 60.6004,-229.3774 66.1152,-220.331 59.2701,-218.8664"/>
</g>
<!-- Node4 -->
<g id="node3" class="node">
<title>Node4</title>
<g id="a_node3"><a xlink:href="../../dc/dfe/a00125.html" target="_top" xlink:title="{SimpleConnection\n|# isWork\l# adress\l# socket\l# out\l# mutex\l# messages\l|+ SimpleConnection()\l+ ~SimpleConnection()\l+ openConnection()\l+ sendDiff()\l+ getBulder()\l# run()\l# addMessage()\l# onSocketError()\l}">
<polygon fill="none" stroke="#000000" points="124.9209,-145.5 124.9209,-379.5 284.1064,-379.5 284.1064,-145.5 124.9209,-145.5"/>
<text text-anchor="middle" x="204.5137" y="-364.3" font-family="Helvetica,sans-Serif" font-size="14.00" fill="#000000">SimpleConnection</text>
<polyline fill="none" stroke="#000000" points="124.9209,-357.5 284.1064,-357.5 "/>
<text text-anchor="start" x="132.9209" y="-342.3" font-family="Helvetica,sans-Serif" font-size="14.00" fill="#000000"># isWork</text>
<text text-anchor="start" x="132.9209" y="-328.3" font-family="Helvetica,sans-Serif" font-size="14.00" fill="#000000"># adress</text>
<text text-anchor="start" x="132.9209" y="-314.3" font-family="Helvetica,sans-Serif" font-size="14.00" fill="#000000"># socket</text>
<text text-anchor="start" x="132.9209" y="-300.3" font-family="Helvetica,sans-Serif" font-size="14.00" fill="#000000"># out</text>
<text text-anchor="start" x="132.9209" y="-286.3" font-family="Helvetica,sans-Serif" font-size="14.00" fill="#000000"># mutex</text>
<text text-anchor="start" x="132.9209" y="-272.3" font-family="Helvetica,sans-Serif" font-size="14.00" fill="#000000"># messages</text>
<polyline fill="none" stroke="#000000" points="124.9209,-265.5 284.1064,-265.5 "/>
<text text-anchor="start" x="132.9209" y="-250.3" font-family="Helvetica,sans-Serif" font-size="14.00" fill="#000000">+ SimpleConnection()</text>
<text text-anchor="start" x="132.9209" y="-236.3" font-family="Helvetica,sans-Serif" font-size="14.00" fill="#000000">+ ~SimpleConnection()</text>
<text text-anchor="start" x="132.9209" y="-222.3" font-family="Helvetica,sans-Serif" font-size="14.00" fill="#000000">+ openConnection()</text>
<text text-anchor="start" x="132.9209" y="-208.3" font-family="Helvetica,sans-Serif" font-size="14.00" fill="#000000">+ sendDiff()</text>
<text text-anchor="start" x="132.9209" y="-194.3" font-family="Helvetica,sans-Serif" font-size="14.00" fill="#000000">+ getBulder()</text>
<text text-anchor="start" x="132.9209" y="-180.3" font-family="Helvetica,sans-Serif" font-size="14.00" fill="#000000"># run()</text>
<text text-anchor="start" x="132.9209" y="-166.3" font-family="Helvetica,sans-Serif" font-size="14.00" fill="#000000"># addMessage()</text>
<text text-anchor="start" x="132.9209" y="-152.3" font-family="Helvetica,sans-Serif" font-size="14.00" fill="#000000"># onSocketError()</text>
</a>
</g>
</g>
<!-- Node4&#45;&gt;Node2 -->
<g id="edge2" class="edge">
<title>Node4&#45;&gt;Node2</title>
<path fill="none" stroke="#404040" d="M147.2514,-145.2487C140.5645,-131.5565 133.9815,-118.0769 127.9411,-105.7085"/>
<polygon fill="none" stroke="#404040" points="127.825,-105.4707 121.5977,-101.8346 122.5589,-94.6879 128.7862,-98.3239 127.825,-105.4707"/>
<text text-anchor="middle" x="175.21" y="-115.8" font-family="Helvetica,sans-Serif" font-size="14.00" fill="#000000"> #connection</text>
</g>
<!-- Node5 -->
<g id="node4" class="node">
<title>Node5</title>
<polygon fill="none" stroke="#bfbfbf" points="168.8896,-417.5 168.8896,-483.5 240.1377,-483.5 240.1377,-417.5 168.8896,-417.5"/>
<text text-anchor="middle" x="204.5137" y="-468.3" font-family="Helvetica,sans-Serif" font-size="14.00" fill="#000000">QThread</text>
<polyline fill="none" stroke="#bfbfbf" points="168.8896,-461.5 240.1377,-461.5 "/>
<text text-anchor="middle" x="204.5137" y="-446.3" font-family="Helvetica,sans-Serif" font-size="14.00" fill="#000000"> </text>
<polyline fill="none" stroke="#bfbfbf" points="168.8896,-439.5 240.1377,-439.5 "/>
<text text-anchor="middle" x="204.5137" y="-424.3" font-family="Helvetica,sans-Serif" font-size="14.00" fill="#000000"> </text>
</g>
<!-- Node5&#45;&gt;Node4 -->
<g id="edge3" class="edge">
<title>Node5&#45;&gt;Node4</title>
<path fill="none" stroke="#191970" d="M204.5137,-407.0793C204.5137,-398.6402 204.5137,-389.4266 204.5137,-379.8689"/>
<polygon fill="none" stroke="#191970" points="201.0138,-407.3221 204.5137,-417.3221 208.0138,-407.3222 201.0138,-407.3221"/>
</g>
</g>
</svg>
