<?xml version="1.0" encoding="UTF-8" standalone="no"?>
<!DOCTYPE svg PUBLIC "-//W3C//DTD SVG 1.1//EN"
 "http://www.w3.org/Graphics/SVG/1.1/DTD/svg11.dtd">
<!-- Generated by graphviz version 2.40.1 (20161225.0304)
 -->
<!-- Title: std::wios Pages: 1 -->
<svg width="182pt" height="281pt"
 viewBox="0.00 0.00 181.97 281.00" xmlns="http://www.w3.org/2000/svg" xmlns:xlink="http://www.w3.org/1999/xlink">
<g id="graph0" class="graph" transform="scale(1 1) rotate(0) translate(4 277)">
<title>std::wios</title>
<!-- Node907 -->
<g id="node1" class="node">
<title>Node907</title>
<polygon fill="#bfbfbf" stroke="#000000" points="51.7549,-.5 51.7549,-66.5 122.2168,-66.5 122.2168,-.5 51.7549,-.5"/>
<text text-anchor="middle" x="86.9858" y="-51.3" font-family="Helvetica,sans-Serif" font-size="14.00" fill="#000000">std::wios</text>
<polyline fill="none" stroke="#000000" points="51.7549,-44.5 122.2168,-44.5 "/>
<text text-anchor="middle" x="86.9858" y="-29.3" font-family="Helvetica,sans-Serif" font-size="14.00" fill="#000000"> </text>
<polyline fill="none" stroke="#000000" points="51.7549,-22.5 122.2168,-22.5 "/>
<text text-anchor="middle" x="86.9858" y="-7.3" font-family="Helvetica,sans-Serif" font-size="14.00" fill="#000000"> </text>
</g>
<!-- Node908 -->
<g id="node2" class="node">
<title>Node908</title>
<g id="a_node2"><a xlink:title="STL class. ">
<polygon fill="none" stroke="#bfbfbf" points="0,-103.5 0,-169.5 173.9717,-169.5 173.9717,-103.5 0,-103.5"/>
<text text-anchor="middle" x="86.9858" y="-154.3" font-family="Helvetica,sans-Serif" font-size="14.00" fill="#000000">std::basic_ios&lt; wchar_t &gt;</text>
<polyline fill="none" stroke="#bfbfbf" points="0,-147.5 173.9717,-147.5 "/>
<text text-anchor="middle" x="86.9858" y="-132.3" font-family="Helvetica,sans-Serif" font-size="14.00" fill="#000000"> </text>
<polyline fill="none" stroke="#bfbfbf" points="0,-125.5 173.9717,-125.5 "/>
<text text-anchor="middle" x="86.9858" y="-110.3" font-family="Helvetica,sans-Serif" font-size="14.00" fill="#000000"> </text>
</a>
</g>
</g>
<!-- Node908&#45;&gt;Node907 -->
<g id="edge1" class="edge">
<title>Node908&#45;&gt;Node907</title>
<path fill="none" stroke="#191970" d="M86.9858,-93.1362C86.9858,-84.256 86.9858,-75.0447 86.9858,-66.5947"/>
<polygon fill="none" stroke="#191970" points="83.4859,-93.3432 86.9858,-103.3432 90.4859,-93.3432 83.4859,-93.3432"/>
</g>
<!-- Node909 -->
<g id="node3" class="node">
<title>Node909</title>
<g id="a_node3"><a xlink:title="STL class. ">
<polygon fill="none" stroke="#bfbfbf" points="37.7378,-206.5 37.7378,-272.5 136.2339,-272.5 136.2339,-206.5 37.7378,-206.5"/>
<text text-anchor="middle" x="86.9858" y="-257.3" font-family="Helvetica,sans-Serif" font-size="14.00" fill="#000000">std::ios_base</text>
<polyline fill="none" stroke="#bfbfbf" points="37.7378,-250.5 136.2339,-250.5 "/>
<text text-anchor="middle" x="86.9858" y="-235.3" font-family="Helvetica,sans-Serif" font-size="14.00" fill="#000000"> </text>
<polyline fill="none" stroke="#bfbfbf" points="37.7378,-228.5 136.2339,-228.5 "/>
<text text-anchor="middle" x="86.9858" y="-213.3" font-family="Helvetica,sans-Serif" font-size="14.00" fill="#000000"> </text>
</a>
</g>
</g>
<!-- Node909&#45;&gt;Node908 -->
<g id="edge2" class="edge">
<title>Node909&#45;&gt;Node908</title>
<path fill="none" stroke="#191970" d="M86.9858,-196.1362C86.9858,-187.256 86.9858,-178.0447 86.9858,-169.5947"/>
<polygon fill="none" stroke="#191970" points="83.4859,-196.3432 86.9858,-206.3432 90.4859,-196.3432 83.4859,-196.3432"/>
</g>
</g>
</svg>
