<?xml version="1.0" encoding="UTF-8" standalone="no"?>
<!DOCTYPE svg PUBLIC "-//W3C//DTD SVG 1.1//EN"
 "http://www.w3.org/Graphics/SVG/1.1/DTD/svg11.dtd">
<!-- Generated by graphviz version 2.40.1 (20161225.0304)
 -->
<!-- Title: ServerConnection::getServerInstance Pages: 1 -->
<svg width="398pt" height="45pt"
 viewBox="0.00 0.00 398.01 45.00" xmlns="http://www.w3.org/2000/svg" xmlns:xlink="http://www.w3.org/1999/xlink">
<g id="graph0" class="graph" transform="scale(1 1) rotate(0) translate(4 41)">
<title>ServerConnection::getServerInstance</title>
<!-- Node5 -->
<g id="node1" class="node">
<title>Node5</title>
<polygon fill="#bfbfbf" stroke="#000000" points="0,-.5 0,-36.5 196.5371,-36.5 196.5371,-.5 0,-.5"/>
<text text-anchor="start" x="8" y="-21.3" font-family="Helvetica,sans-Serif" font-size="14.00" fill="#000000">ServerConnection::getServer</text>
<text text-anchor="middle" x="98.2686" y="-7.3" font-family="Helvetica,sans-Serif" font-size="14.00" fill="#000000">Instance</text>
</g>
<!-- Node6 -->
<g id="node2" class="node">
<title>Node6</title>
<g id="a_node2"><a xlink:href="../../d6/db6/a00241.html#a29060721f5ddfa26790f0778bde74ff2" target="_top" xlink:title="initServer">
<polygon fill="none" stroke="#000000" points="232.5371,-7.5 232.5371,-29.5 307.668,-29.5 307.668,-7.5 232.5371,-7.5"/>
<text text-anchor="middle" x="270.1025" y="-14.3" font-family="Helvetica,sans-Serif" font-size="14.00" fill="#000000">initServer</text>
</a>
</g>
</g>
<!-- Node5&#45;&gt;Node6 -->
<g id="edge1" class="edge">
<title>Node5&#45;&gt;Node6</title>
<path fill="none" stroke="#191970" d="M206.96,-18.5C215.9065,-18.5 224.4978,-18.5 232.3065,-18.5"/>
<polygon fill="#191970" stroke="#191970" points="206.7311,-15.0001 196.731,-18.5 206.731,-22.0001 206.7311,-15.0001"/>
</g>
<!-- Node7 -->
<g id="node3" class="node">
<title>Node7</title>
<g id="a_node3"><a xlink:href="../../d6/db6/a00241.html#a0ddf1224851353fc92bfbff6f499fa97" target="_top" xlink:title="main">
<polygon fill="none" stroke="#000000" points="343.668,-7.5 343.668,-29.5 390.0127,-29.5 390.0127,-7.5 343.668,-7.5"/>
<text text-anchor="middle" x="366.8403" y="-14.3" font-family="Helvetica,sans-Serif" font-size="14.00" fill="#000000">main</text>
</a>
</g>
</g>
<!-- Node6&#45;&gt;Node7 -->
<g id="edge2" class="edge">
<title>Node6&#45;&gt;Node7</title>
<path fill="none" stroke="#191970" d="M317.8476,-18.5C326.8333,-18.5 335.8476,-18.5 343.65,-18.5"/>
<polygon fill="#191970" stroke="#191970" points="317.7809,-15.0001 307.7809,-18.5 317.7809,-22.0001 317.7809,-15.0001"/>
</g>
</g>
</svg>
