<?xml version="1.0" encoding="UTF-8" standalone="no"?>
<!DOCTYPE svg PUBLIC "-//W3C//DTD SVG 1.1//EN"
 "http://www.w3.org/Graphics/SVG/1.1/DTD/svg11.dtd">
<!-- Generated by graphviz version 2.40.1 (20161225.0304)
 -->
<!-- Title: MainGameLoop::GamerInformation Pages: 1 -->
<svg width="244pt" height="435pt"
 viewBox="0.00 0.00 244.21 435.00" xmlns="http://www.w3.org/2000/svg" xmlns:xlink="http://www.w3.org/1999/xlink">
<g id="graph0" class="graph" transform="scale(1 1) rotate(0) translate(4 431)">
<title>MainGameLoop::GamerInformation</title>
<!-- Node1 -->
<g id="node1" class="node">
<title>Node1</title>
<polygon fill="#bfbfbf" stroke="#000000" points="0,-.5 0,-136.5 236.2129,-136.5 236.2129,-.5 0,-.5"/>
<text text-anchor="middle" x="118.1064" y="-121.3" font-family="Helvetica,sans-Serif" font-size="14.00" fill="#000000">MainGameLoop::GamerInformation</text>
<polyline fill="none" stroke="#000000" points="0,-114.5 236.2129,-114.5 "/>
<text text-anchor="start" x="8" y="-99.3" font-family="Helvetica,sans-Serif" font-size="14.00" fill="#000000">+ name</text>
<text text-anchor="start" x="8" y="-85.3" font-family="Helvetica,sans-Serif" font-size="14.00" fill="#000000">+ lifeCount</text>
<text text-anchor="start" x="8" y="-71.3" font-family="Helvetica,sans-Serif" font-size="14.00" fill="#000000">+ position</text>
<text text-anchor="start" x="8" y="-57.3" font-family="Helvetica,sans-Serif" font-size="14.00" fill="#000000">+ minion</text>
<text text-anchor="start" x="8" y="-43.3" font-family="Helvetica,sans-Serif" font-size="14.00" fill="#000000">+ personalDiff</text>
<polyline fill="none" stroke="#000000" points="0,-36.5 236.2129,-36.5 "/>
<text text-anchor="start" x="8" y="-21.3" font-family="Helvetica,sans-Serif" font-size="14.00" fill="#000000">+ GamerInformation()</text>
<text text-anchor="start" x="8" y="-7.3" font-family="Helvetica,sans-Serif" font-size="14.00" fill="#000000">+ ~GamerInformation()</text>
</g>
<!-- Node2 -->
<g id="node2" class="node">
<title>Node2</title>
<g id="a_node2"><a xlink:href="../../d5/d13/a00205.html" target="_top" xlink:title="{MailSender\n||+ receiveResponce()\l+ setDefaultReceiver()\l}">
<polygon fill="none" stroke="#000000" points="40.2739,-187.5 40.2739,-267.5 195.939,-267.5 195.939,-187.5 40.2739,-187.5"/>
<text text-anchor="middle" x="118.1064" y="-252.3" font-family="Helvetica,sans-Serif" font-size="14.00" fill="#000000">MailSender</text>
<polyline fill="none" stroke="#000000" points="40.2739,-245.5 195.939,-245.5 "/>
<text text-anchor="middle" x="118.1064" y="-230.3" font-family="Helvetica,sans-Serif" font-size="14.00" fill="#000000"> </text>
<polyline fill="none" stroke="#000000" points="40.2739,-223.5 195.939,-223.5 "/>
<text text-anchor="start" x="48.2739" y="-208.3" font-family="Helvetica,sans-Serif" font-size="14.00" fill="#000000">+ receiveResponce()</text>
<text text-anchor="start" x="48.2739" y="-194.3" font-family="Helvetica,sans-Serif" font-size="14.00" fill="#000000">+ setDefaultReceiver()</text>
</a>
</g>
</g>
<!-- Node2&#45;&gt;Node1 -->
<g id="edge1" class="edge">
<title>Node2&#45;&gt;Node1</title>
<path fill="none" stroke="#404040" d="M118.1064,-187.3776C118.1064,-175.6149 118.1064,-162.3136 118.1064,-148.9756"/>
<polygon fill="none" stroke="#404040" points="118.1065,-148.7593 114.1065,-142.7593 118.1064,-136.7593 122.1065,-142.7593 118.1065,-148.7593"/>
<text text-anchor="middle" x="145.5425" y="-157.8" font-family="Helvetica,sans-Serif" font-size="14.00" fill="#000000"> +sender</text>
</g>
<!-- Node3 -->
<g id="node3" class="node">
<title>Node3</title>
<g id="a_node3"><a xlink:href="../../de/db1/a00197.html" target="_top" xlink:title="{MailReceiver\n|# messages\l# mutex\l# isQueueLock\l|+ sendMail()\l# nextMessage()\l}">
<polygon fill="none" stroke="#000000" points="57.9722,-318.5 57.9722,-426.5 178.2407,-426.5 178.2407,-318.5 57.9722,-318.5"/>
<text text-anchor="middle" x="118.1064" y="-411.3" font-family="Helvetica,sans-Serif" font-size="14.00" fill="#000000">MailReceiver</text>
<polyline fill="none" stroke="#000000" points="57.9722,-404.5 178.2407,-404.5 "/>
<text text-anchor="start" x="65.9722" y="-389.3" font-family="Helvetica,sans-Serif" font-size="14.00" fill="#000000"># messages</text>
<text text-anchor="start" x="65.9722" y="-375.3" font-family="Helvetica,sans-Serif" font-size="14.00" fill="#000000"># mutex</text>
<text text-anchor="start" x="65.9722" y="-361.3" font-family="Helvetica,sans-Serif" font-size="14.00" fill="#000000"># isQueueLock</text>
<polyline fill="none" stroke="#000000" points="57.9722,-354.5 178.2407,-354.5 "/>
<text text-anchor="start" x="65.9722" y="-339.3" font-family="Helvetica,sans-Serif" font-size="14.00" fill="#000000">+ sendMail()</text>
<text text-anchor="start" x="65.9722" y="-325.3" font-family="Helvetica,sans-Serif" font-size="14.00" fill="#000000"># nextMessage()</text>
</a>
</g>
</g>
<!-- Node3&#45;&gt;Node2 -->
<g id="edge2" class="edge">
<title>Node3&#45;&gt;Node2</title>
<path fill="none" stroke="#404040" d="M118.1064,-318.0948C118.1064,-305.5586 118.1064,-292.2514 118.1064,-279.8067"/>
<polygon fill="none" stroke="#404040" points="118.1065,-279.7101 114.1065,-273.7101 118.1064,-267.7101 122.1065,-273.71 118.1065,-279.7101"/>
<text text-anchor="middle" x="148.8408" y="-288.8" font-family="Helvetica,sans-Serif" font-size="14.00" fill="#000000"> #receiver</text>
</g>
</g>
</svg>
