<?xml version="1.0" encoding="UTF-8" standalone="no"?>
<!DOCTYPE svg PUBLIC "-//W3C//DTD SVG 1.1//EN"
 "http://www.w3.org/Graphics/SVG/1.1/DTD/svg11.dtd">
<!-- Generated by graphviz version 2.40.1 (20161225.0304)
 -->
<!-- Title: Core/connection/mailboxelement.h Pages: 1 -->
<!--zoomable 208 -->
<svg id="main" version="1.1" xmlns="http://www.w3.org/2000/svg" xmlns:xlink="http://www.w3.org/1999/xlink" xml:space="preserve" onload="init(evt)">
<style type="text/css"><![CDATA[
.edge:hover path { stroke: red; }
.edge:hover polygon { stroke: red; fill: red; }
]]></style>
<script type="text/javascript"><![CDATA[
var edges = document.getElementsByTagName('g');
if (edges && edges.length) {
  for (var i=0;i<edges.length;i++) {
    if (edges[i].id.substr(0,4)=='edge') {
      edges[i].setAttribute('class','edge');
    }
  }
}
]]></script>
        <defs>
                <circle id="rim" cx="0" cy="0" r="7"/>
                <circle id="rim2" cx="0" cy="0" r="3.5"/>
                <g id="zoomPlus">
                        <use xlink:href="#rim" fill="#404040">
                                <set attributeName="fill" to="#808080" begin="zoomplus.mouseover" end="zoomplus.mouseout"/>
                        </use>
                        <path d="M-4,0h8M0,-4v8" fill="none" stroke="white" stroke-width="1.5" pointer-events="none"/>
                </g>
                <g id="zoomMin">
                        <use xlink:href="#rim" fill="#404040">
                                <set attributeName="fill" to="#808080" begin="zoomminus.mouseover" end="zoomminus.mouseout"/>
                        </use>
                        <path d="M-4,0h8" fill="none" stroke="white" stroke-width="1.5" pointer-events="none"/>
                </g>
                <g id="dirArrow">
                        <path fill="none" stroke="white" stroke-width="1.5" d="M0,-3.0v7 M-2.5,-0.5L0,-3.0L2.5,-0.5"/>
                </g>
               <g id="resetDef">
                       <use xlink:href="#rim2" fill="#404040">
                               <set attributeName="fill" to="#808080" begin="reset.mouseover" end="reset.mouseout"/>
                       </use>
               </g>
        </defs>

<script type="text/javascript">
var viewWidth = 617;
var viewHeight = 208;
var sectionId = 'dynsection-1';
</script>
<script xlink:href="../../svgpan.js"/>
<svg id="graph" class="graph">
<g id="viewport">
<title>Core/connection/mailboxelement.h</title>
<!-- Node18 -->
<g id="node1" class="node">
<title>Node18</title>
<polygon fill="#bfbfbf" stroke="#000000" points="102.3174,-177.5 102.3174,-199.5 333.8818,-199.5 333.8818,-177.5 102.3174,-177.5"/>
<text text-anchor="middle" x="218.0996" y="-184.3" font-family="Helvetica,sans-Serif" font-size="14.00" fill="#000000">Core/connection/mailboxelement.h</text>
</g>
<!-- Node19 -->
<g id="node2" class="node">
<title>Node19</title>
<g id="a_node2"><a xlink:href="../../d8/dfb/serverworker_8h.html" target="_top" xlink:title="Server/serverworker.h">
<polygon fill="none" stroke="#000000" points="141.6309,-118.5 141.6309,-140.5 294.5684,-140.5 294.5684,-118.5 141.6309,-118.5"/>
<text text-anchor="middle" x="218.0996" y="-125.3" font-family="Helvetica,sans-Serif" font-size="14.00" fill="#000000">Server/serverworker.h</text>
</a>
</g>
</g>
<!-- Node18&#45;&gt;Node19 -->
<g id="edge1" class="edge">
<title>Node18&#45;&gt;Node19</title>
<path fill="none" stroke="#191970" d="M218.0996,-167.198C218.0996,-158.1726 218.0996,-148.0351 218.0996,-140.5477"/>
<polygon fill="#191970" stroke="#191970" points="214.5997,-167.4025 218.0996,-177.4026 221.5997,-167.4026 214.5997,-167.4025"/>
</g>
<!-- Node20 -->
<g id="node3" class="node">
<title>Node20</title>
<g id="a_node3"><a xlink:href="../../dd/d06/serverconnection_8h.html" target="_top" xlink:title="Server/serverconnection.h">
<polygon fill="none" stroke="#000000" points="7.3931,-59.5 7.3931,-81.5 186.8062,-81.5 186.8062,-59.5 7.3931,-59.5"/>
<text text-anchor="middle" x="97.0996" y="-66.3" font-family="Helvetica,sans-Serif" font-size="14.00" fill="#000000">Server/serverconnection.h</text>
</a>
</g>
</g>
<!-- Node18&#45;&gt;Node20 -->
<g id="edge6" class="edge">
<title>Node18&#45;&gt;Node20</title>
<path fill="none" stroke="#191970" d="M179.7884,-173.0914C163.8836,-165.2744 146.1382,-154.5365 133.0996,-141 116.3198,-123.5793 105.5966,-96.7898 100.5332,-81.7476"/>
<polygon fill="#191970" stroke="#191970" points="178.3503,-176.2827 188.8907,-177.3555 181.3199,-169.9438 178.3503,-176.2827"/>
</g>
<!-- Node24 -->
<g id="node7" class="node">
<title>Node24</title>
<g id="a_node7"><a xlink:href="../../df/dd1/maingameloop_8h.html" target="_top" xlink:title="Server/maingameloop.h">
<polygon fill="none" stroke="#000000" points="318.7827,-118.5 318.7827,-140.5 483.4165,-140.5 483.4165,-118.5 318.7827,-118.5"/>
<text text-anchor="middle" x="401.0996" y="-125.3" font-family="Helvetica,sans-Serif" font-size="14.00" fill="#000000">Server/maingameloop.h</text>
</a>
</g>
</g>
<!-- Node18&#45;&gt;Node24 -->
<g id="edge7" class="edge">
<title>Node18&#45;&gt;Node24</title>
<path fill="none" stroke="#191970" d="M262.123,-174.3067C294.2692,-163.9426 337.2291,-150.0921 366.8331,-140.5477"/>
<polygon fill="#191970" stroke="#191970" points="260.9641,-171.0028 252.5205,-177.4026 263.1121,-177.6651 260.9641,-171.0028"/>
</g>
<!-- Node19&#45;&gt;Node20 -->
<g id="edge2" class="edge">
<title>Node19&#45;&gt;Node20</title>
<path fill="none" stroke="#191970" d="M186.2042,-113.9477C165.3038,-103.7566 138.4872,-90.6807 119.7567,-81.5477"/>
<polygon fill="#191970" stroke="#191970" points="184.818,-117.1657 195.3404,-118.4026 187.886,-110.8738 184.818,-117.1657"/>
</g>
<!-- Node23 -->
<g id="node6" class="node">
<title>Node23</title>
<g id="a_node6"><a xlink:href="../../d7/d0e/serverworker_8cpp.html" target="_top" xlink:title="Server/serverworker.cpp">
<polygon fill="none" stroke="#000000" points="205.2378,-59.5 205.2378,-81.5 372.9614,-81.5 372.9614,-59.5 205.2378,-59.5"/>
<text text-anchor="middle" x="289.0996" y="-66.3" font-family="Helvetica,sans-Serif" font-size="14.00" fill="#000000">Server/serverworker.cpp</text>
</a>
</g>
</g>
<!-- Node19&#45;&gt;Node23 -->
<g id="edge5" class="edge">
<title>Node19&#45;&gt;Node23</title>
<path fill="none" stroke="#191970" d="M239.1747,-111.9869C251.0447,-102.1231 265.5074,-90.1048 275.8049,-81.5477"/>
<polygon fill="#191970" stroke="#191970" points="236.9083,-109.3194 231.4542,-118.4026 241.3822,-114.7032 236.9083,-109.3194"/>
</g>
<!-- Node21 -->
<g id="node4" class="node">
<title>Node21</title>
<g id="a_node4"><a xlink:href="../../d6/dda/Server_2main_8cpp.html" target="_top" xlink:title="Server/main.cpp">
<polygon fill="none" stroke="#000000" points="277.1343,-.5 277.1343,-22.5 395.0649,-22.5 395.0649,-.5 277.1343,-.5"/>
<text text-anchor="middle" x="336.0996" y="-7.3" font-family="Helvetica,sans-Serif" font-size="14.00" fill="#000000">Server/main.cpp</text>
</a>
</g>
</g>
<!-- Node20&#45;&gt;Node21 -->
<g id="edge3" class="edge">
<title>Node20&#45;&gt;Node21</title>
<path fill="none" stroke="#191970" d="M151.6144,-57.0424C193.8528,-46.6153 251.6571,-32.3456 291.2398,-22.5742"/>
<polygon fill="#191970" stroke="#191970" points="150.643,-53.677 141.7733,-59.4718 152.3207,-60.473 150.643,-53.677"/>
</g>
<!-- Node22 -->
<g id="node5" class="node">
<title>Node22</title>
<g id="a_node5"><a xlink:href="../../d2/d44/serverconnection_8cpp.html" target="_top" xlink:title="Server/serverconnection.cpp">
<polygon fill="none" stroke="#000000" points="0,-.5 0,-22.5 194.1992,-22.5 194.1992,-.5 0,-.5"/>
<text text-anchor="middle" x="97.0996" y="-7.3" font-family="Helvetica,sans-Serif" font-size="14.00" fill="#000000">Server/serverconnection.cpp</text>
</a>
</g>
</g>
<!-- Node20&#45;&gt;Node22 -->
<g id="edge4" class="edge">
<title>Node20&#45;&gt;Node22</title>
<path fill="none" stroke="#191970" d="M97.0996,-49.198C97.0996,-40.1726 97.0996,-30.0351 97.0996,-22.5477"/>
<polygon fill="#191970" stroke="#191970" points="93.5997,-49.4025 97.0996,-59.4026 100.5997,-49.4026 93.5997,-49.4025"/>
</g>
<!-- Node24&#45;&gt;Node21 -->
<g id="edge8" class="edge">
<title>Node24&#45;&gt;Node21</title>
<path fill="none" stroke="#191970" d="M398.2525,-108.2765C395.628,-93.6946 390.7766,-74.2854 382.0996,-59 373.9389,-44.624 360.4043,-31.3917 350.1235,-22.5651"/>
<polygon fill="#191970" stroke="#191970" points="394.8253,-109.0115 399.8518,-118.338 401.7385,-107.9125 394.8253,-109.0115"/>
</g>
<!-- Node25 -->
<g id="node8" class="node">
<title>Node25</title>
<g id="a_node8"><a xlink:href="../../dd/d30/maingameloop_8cpp.html" target="_top" xlink:title="Server/maingameloop.cpp">
<polygon fill="none" stroke="#000000" points="429.3896,-59.5 429.3896,-81.5 608.8096,-81.5 608.8096,-59.5 429.3896,-59.5"/>
<text text-anchor="middle" x="519.0996" y="-66.3" font-family="Helvetica,sans-Serif" font-size="14.00" fill="#000000">Server/maingameloop.cpp</text>
</a>
</g>
</g>
<!-- Node24&#45;&gt;Node25 -->
<g id="edge9" class="edge">
<title>Node24&#45;&gt;Node25</title>
<path fill="none" stroke="#191970" d="M432.48,-113.8098C452.8219,-103.6389 478.8204,-90.6396 497.0042,-81.5477"/>
<polygon fill="#191970" stroke="#191970" points="430.6735,-110.7999 423.2945,-118.4026 433.8041,-117.0609 430.6735,-110.7999"/>
</g>
</g>
</svg>
        <g id="navigator" transform="translate(0 0)" fill="#404254">
                <rect fill="#f2f5e9" fill-opacity="0.5" stroke="#606060" stroke-width=".5" x="0" y="0" width="60" height="60"/>
                <use id="zoomplus" xlink:href="#zoomPlus" x="17" y="9" onmousedown="handleZoom(evt,'in')"/>
                <use id="zoomminus" xlink:href="#zoomMin" x="42" y="9" onmousedown="handleZoom(evt,'out')"/>
                <use id="reset" xlink:href="#resetDef" x="30" y="36" onmousedown="handleReset()"/>
                <g id="arrowUp" xlink:href="#dirArrow" transform="translate(30 24)" onmousedown="handlePan(0,-1)">
                  <use xlink:href="#rim" fill="#404040">
                        <set attributeName="fill" to="#808080" begin="arrowUp.mouseover" end="arrowUp.mouseout"/>
                  </use>
                  <path fill="none" stroke="white" stroke-width="1.5" d="M0,-3.0v7 M-2.5,-0.5L0,-3.0L2.5,-0.5"/>
                </g>
                <g id="arrowRight" xlink:href="#dirArrow" transform="rotate(90) translate(36 -43)" onmousedown="handlePan(1,0)">
                  <use xlink:href="#rim" fill="#404040">
                        <set attributeName="fill" to="#808080" begin="arrowRight.mouseover" end="arrowRight.mouseout"/>
                  </use>
                  <path fill="none" stroke="white" stroke-width="1.5" d="M0,-3.0v7 M-2.5,-0.5L0,-3.0L2.5,-0.5"/>
                </g>
                <g id="arrowDown" xlink:href="#dirArrow" transform="rotate(180) translate(-30 -48)" onmousedown="handlePan(0,1)">
                  <use xlink:href="#rim" fill="#404040">
                        <set attributeName="fill" to="#808080" begin="arrowDown.mouseover" end="arrowDown.mouseout"/>
                  </use>
                  <path fill="none" stroke="white" stroke-width="1.5" d="M0,-3.0v7 M-2.5,-0.5L0,-3.0L2.5,-0.5"/>
                </g>
                <g id="arrowLeft" xlink:href="#dirArrow" transform="rotate(270) translate(-36 17)" onmousedown="handlePan(-1,0)">
                  <use xlink:href="#rim" fill="#404040">
                        <set attributeName="fill" to="#808080" begin="arrowLeft.mouseover" end="arrowLeft.mouseout"/>
                  </use>
                  <path fill="none" stroke="white" stroke-width="1.5" d="M0,-3.0v7 M-2.5,-0.5L0,-3.0L2.5,-0.5"/>
                </g>
        </g>
        <svg viewBox="0 0 15 15" width="100%" height="30px" preserveAspectRatio="xMaxYMin meet">
         <g id="arrow_out" transform="scale(0.3 0.3)">
          <a xlink:href="mailboxelement_8h__dep__incl_org.svg" target="_base">
           <rect id="button" ry="5" rx="5" y="6" x="6" height="38" width="38"
                fill="#f2f5e9" fill-opacity="0.5" stroke="#606060" stroke-width="1.0"/>
           <path id="arrow"
             d="M 11.500037,31.436501 C 11.940474,20.09759 22.043105,11.32322 32.158766,21.979434 L 37.068811,17.246167 C 37.068811,17.246167 37.088388,32 37.088388,32 L 22.160133,31.978069 C 22.160133,31.978069 26.997745,27.140456 26.997745,27.140456 C 18.528582,18.264221 13.291696,25.230495 11.500037,31.436501 z"
             style="fill:#404040;"/>
          </a>
         </g>
        </svg>
</svg>
