<?xml version="1.0" encoding="UTF-8" standalone="no"?>
<!DOCTYPE svg PUBLIC "-//W3C//DTD SVG 1.1//EN"
 "http://www.w3.org/Graphics/SVG/1.1/DTD/svg11.dtd">
<!-- Generated by graphviz version 2.40.1 (20161225.0304)
 -->
<!-- Title: Core/imap.h Pages: 1 -->
<svg width="575pt" height="208pt"
 viewBox="0.00 0.00 575.49 208.00" xmlns="http://www.w3.org/2000/svg" xmlns:xlink="http://www.w3.org/1999/xlink">
<g id="graph0" class="graph" transform="scale(1 1) rotate(0) translate(4 204)">
<title>Core/imap.h</title>
<!-- Node11 -->
<g id="node1" class="node">
<title>Node11</title>
<polygon fill="#bfbfbf" stroke="#000000" points="217.3931,-177.5 217.3931,-199.5 309.6479,-199.5 309.6479,-177.5 217.3931,-177.5"/>
<text text-anchor="middle" x="263.5205" y="-184.3" font-family="Helvetica,sans-Serif" font-size="14.00" fill="#000000">Core/imap.h</text>
</g>
<!-- Node12 -->
<g id="node2" class="node">
<title>Node12</title>
<g id="a_node2"><a xlink:href="../../db/df5/imap_8cpp.html" target="_top" xlink:title="Core/imap.cpp">
<polygon fill="none" stroke="#000000" points="0,-118.5 0,-140.5 107.041,-140.5 107.041,-118.5 0,-118.5"/>
<text text-anchor="middle" x="53.5205" y="-125.3" font-family="Helvetica,sans-Serif" font-size="14.00" fill="#000000">Core/imap.cpp</text>
</a>
</g>
</g>
<!-- Node11&#45;&gt;Node12 -->
<g id="edge1" class="edge">
<title>Node11&#45;&gt;Node12</title>
<path fill="none" stroke="#191970" d="M213.9531,-174.5739C176.9639,-164.1817 127.1074,-150.1744 92.8428,-140.5477"/>
<polygon fill="#191970" stroke="#191970" points="213.4472,-178.0672 224.0211,-177.4026 215.3406,-171.3281 213.4472,-178.0672"/>
</g>
<!-- Node13 -->
<g id="node3" class="node">
<title>Node13</title>
<g id="a_node3"><a xlink:href="../../d2/d06/listbsemap_8h.html" target="_top" xlink:title="Core/maps/listbsemap.h">
<polygon fill="none" stroke="#000000" points="125.0449,-118.5 125.0449,-140.5 291.9961,-140.5 291.9961,-118.5 125.0449,-118.5"/>
<text text-anchor="middle" x="208.5205" y="-125.3" font-family="Helvetica,sans-Serif" font-size="14.00" fill="#000000">Core/maps/listbsemap.h</text>
</a>
</g>
</g>
<!-- Node11&#45;&gt;Node13 -->
<g id="edge2" class="edge">
<title>Node11&#45;&gt;Node13</title>
<path fill="none" stroke="#191970" d="M246.1252,-169.8395C237.1426,-160.2037 226.4893,-148.7756 218.8192,-140.5477"/>
<polygon fill="#191970" stroke="#191970" points="243.7965,-172.4744 253.1754,-177.4026 248.9168,-167.7013 243.7965,-172.4744"/>
</g>
<!-- Node15 -->
<g id="node5" class="node">
<title>Node15</title>
<g id="a_node5"><a xlink:href="../../d8/d03/mapiniter_8h.html" target="_top" xlink:title="Server/mapiniter.h">
<polygon fill="none" stroke="#000000" points="254.7139,-59.5 254.7139,-81.5 384.3271,-81.5 384.3271,-59.5 254.7139,-59.5"/>
<text text-anchor="middle" x="319.5205" y="-66.3" font-family="Helvetica,sans-Serif" font-size="14.00" fill="#000000">Server/mapiniter.h</text>
</a>
</g>
</g>
<!-- Node11&#45;&gt;Node15 -->
<g id="edge10" class="edge">
<title>Node11&#45;&gt;Node15</title>
<path fill="none" stroke="#191970" d="M280.9856,-169.7009C287.9057,-161.4146 295.4133,-151.2436 300.5205,-141 310.249,-121.4875 315.4817,-96.3701 317.8683,-81.9876"/>
<polygon fill="#191970" stroke="#191970" points="278.3021,-167.4529 274.3721,-177.2919 283.58,-172.0512 278.3021,-167.4529"/>
</g>
<!-- Node18 -->
<g id="node8" class="node">
<title>Node18</title>
<g id="a_node8"><a xlink:href="../../df/dd1/maingameloop_8h.html" target="_top" xlink:title="Server/maingameloop.h">
<polygon fill="none" stroke="#000000" points="347.2036,-118.5 347.2036,-140.5 511.8374,-140.5 511.8374,-118.5 347.2036,-118.5"/>
<text text-anchor="middle" x="429.5205" y="-125.3" font-family="Helvetica,sans-Serif" font-size="14.00" fill="#000000">Server/maingameloop.h</text>
</a>
</g>
</g>
<!-- Node11&#45;&gt;Node18 -->
<g id="edge7" class="edge">
<title>Node11&#45;&gt;Node18</title>
<path fill="none" stroke="#191970" d="M304.2106,-174.0379C333.2852,-163.7041 371.8149,-150.0098 398.4372,-140.5477"/>
<polygon fill="#191970" stroke="#191970" points="302.9942,-170.7556 294.7438,-177.4026 305.3386,-177.3514 302.9942,-170.7556"/>
</g>
<!-- Node14 -->
<g id="node4" class="node">
<title>Node14</title>
<g id="a_node4"><a xlink:href="../../d1/ddf/listbsemap_8cpp.html" target="_top" xlink:title="Core/maps/listbsemap.cpp">
<polygon fill="none" stroke="#000000" points="54.6519,-59.5 54.6519,-81.5 236.3892,-81.5 236.3892,-59.5 54.6519,-59.5"/>
<text text-anchor="middle" x="145.5205" y="-66.3" font-family="Helvetica,sans-Serif" font-size="14.00" fill="#000000">Core/maps/listbsemap.cpp</text>
</a>
</g>
</g>
<!-- Node13&#45;&gt;Node14 -->
<g id="edge3" class="edge">
<title>Node13&#45;&gt;Node14</title>
<path fill="none" stroke="#191970" d="M189.2099,-111.4155C178.7953,-101.6621 166.2787,-89.9402 157.3172,-81.5477"/>
<polygon fill="#191970" stroke="#191970" points="186.9792,-114.1216 196.6707,-118.4026 191.7641,-109.0123 186.9792,-114.1216"/>
</g>
<!-- Node13&#45;&gt;Node15 -->
<g id="edge4" class="edge">
<title>Node13&#45;&gt;Node15</title>
<path fill="none" stroke="#191970" d="M238.2995,-113.6715C257.3957,-103.5213 281.7082,-90.5984 298.7359,-81.5477"/>
<polygon fill="#191970" stroke="#191970" points="236.5862,-110.6185 229.3988,-118.4026 239.8716,-116.7996 236.5862,-110.6185"/>
</g>
<!-- Node16 -->
<g id="node6" class="node">
<title>Node16</title>
<g id="a_node6"><a xlink:href="../../dd/d30/maingameloop_8cpp.html" target="_top" xlink:title="Server/maingameloop.cpp">
<polygon fill="none" stroke="#000000" points="331.8105,-.5 331.8105,-22.5 511.2305,-22.5 511.2305,-.5 331.8105,-.5"/>
<text text-anchor="middle" x="421.5205" y="-7.3" font-family="Helvetica,sans-Serif" font-size="14.00" fill="#000000">Server/maingameloop.cpp</text>
</a>
</g>
</g>
<!-- Node15&#45;&gt;Node16 -->
<g id="edge5" class="edge">
<title>Node15&#45;&gt;Node16</title>
<path fill="none" stroke="#191970" d="M347.3647,-54.394C364.8385,-44.2867 386.9163,-31.5162 402.4211,-22.5477"/>
<polygon fill="#191970" stroke="#191970" points="345.6097,-51.3658 338.7059,-59.4026 349.1146,-57.4252 345.6097,-51.3658"/>
</g>
<!-- Node17 -->
<g id="node7" class="node">
<title>Node17</title>
<g id="a_node7"><a xlink:href="../../d5/d55/mapiniter_8cpp.html" target="_top" xlink:title="Server/mapiniter.cpp">
<polygon fill="none" stroke="#000000" points="169.3208,-.5 169.3208,-22.5 313.7202,-22.5 313.7202,-.5 169.3208,-.5"/>
<text text-anchor="middle" x="241.5205" y="-7.3" font-family="Helvetica,sans-Serif" font-size="14.00" fill="#000000">Server/mapiniter.cpp</text>
</a>
</g>
</g>
<!-- Node15&#45;&gt;Node17 -->
<g id="edge6" class="edge">
<title>Node15&#45;&gt;Node17</title>
<path fill="none" stroke="#191970" d="M296.743,-53.2709C283.6332,-43.3545 267.5474,-31.187 256.1259,-22.5477"/>
<polygon fill="#191970" stroke="#191970" points="294.7624,-56.1612 304.8493,-59.4026 298.9853,-50.5784 294.7624,-56.1612"/>
</g>
<!-- Node18&#45;&gt;Node16 -->
<g id="edge9" class="edge">
<title>Node18&#45;&gt;Node16</title>
<path fill="none" stroke="#191970" d="M428.0744,-108.1696C426.3689,-83.0142 423.5989,-42.1562 422.2736,-22.6078"/>
<polygon fill="#191970" stroke="#191970" points="424.5849,-108.4453 428.7534,-118.1857 431.5689,-107.9718 424.5849,-108.4453"/>
</g>
<!-- Node19 -->
<g id="node9" class="node">
<title>Node19</title>
<g id="a_node9"><a xlink:href="../../d6/dda/Server_2main_8cpp.html" target="_top" xlink:title="Server/main.cpp">
<polygon fill="none" stroke="#000000" points="449.5552,-59.5 449.5552,-81.5 567.4858,-81.5 567.4858,-59.5 449.5552,-59.5"/>
<text text-anchor="middle" x="508.5205" y="-66.3" font-family="Helvetica,sans-Serif" font-size="14.00" fill="#000000">Server/main.cpp</text>
</a>
</g>
</g>
<!-- Node18&#45;&gt;Node19 -->
<g id="edge8" class="edge">
<title>Node18&#45;&gt;Node19</title>
<path fill="none" stroke="#191970" d="M452.59,-112.2709C465.8679,-102.3545 482.1599,-90.187 493.7278,-81.5477"/>
<polygon fill="#191970" stroke="#191970" points="450.2976,-109.6145 444.3798,-118.4026 454.4863,-115.223 450.2976,-109.6145"/>
</g>
</g>
</svg>
