<?xml version="1.0" encoding="UTF-8" standalone="no"?>
<!DOCTYPE svg PUBLIC "-//W3C//DTD SVG 1.1//EN"
 "http://www.w3.org/Graphics/SVG/1.1/DTD/svg11.dtd">
<!-- Generated by graphviz version 2.40.1 (20161225.0304)
 -->
<!-- Title: InfinityDouble::FromValue Pages: 1 -->
<svg width="885pt" height="31pt"
 viewBox="0.00 0.00 884.75 31.00" xmlns="http://www.w3.org/2000/svg" xmlns:xlink="http://www.w3.org/1999/xlink">
<g id="graph0" class="graph" transform="scale(1 1) rotate(0) translate(4 27)">
<title>InfinityDouble::FromValue</title>
<!-- Node9 -->
<g id="node1" class="node">
<title>Node9</title>
<polygon fill="#bfbfbf" stroke="#000000" points="0,-.5 0,-22.5 176.043,-22.5 176.043,-.5 0,-.5"/>
<text text-anchor="middle" x="88.0215" y="-7.3" font-family="Helvetica,sans-Serif" font-size="14.00" fill="#000000">InfinityDouble::FromValue</text>
</g>
<!-- Node10 -->
<g id="node2" class="node">
<title>Node10</title>
<g id="a_node2"><a xlink:href="$d6/df5/classMapIniter.html#a8961b80aa1df5f628bd4e28e66a51d0b" xlink:title="MapIniter::getRandomGrass">
<polygon fill="none" stroke="#000000" points="212.043,-.5 212.043,-22.5 403.8975,-22.5 403.8975,-.5 212.043,-.5"/>
<text text-anchor="middle" x="307.9702" y="-7.3" font-family="Helvetica,sans-Serif" font-size="14.00" fill="#000000">MapIniter::getRandomGrass</text>
</a>
</g>
</g>
<!-- Node9&#45;&gt;Node10 -->
<g id="edge1" class="edge">
<title>Node9&#45;&gt;Node10</title>
<path fill="none" stroke="#191970" d="M186.4451,-11.5C194.8797,-11.5 203.406,-11.5 211.8225,-11.5"/>
<polygon fill="#191970" stroke="#191970" points="186.2157,-8.0001 176.2157,-11.5 186.2157,-15.0001 186.2157,-8.0001"/>
</g>
<!-- Node11 -->
<g id="node3" class="node">
<title>Node11</title>
<g id="a_node3"><a xlink:href="$d6/df5/classMapIniter.html#ae6dfbed9cc8569db78442c0bfe57e252" xlink:title="MapIniter::initSimapleMap">
<polygon fill="none" stroke="#000000" points="439.8975,-.5 439.8975,-22.5 617.7451,-22.5 617.7451,-.5 439.8975,-.5"/>
<text text-anchor="middle" x="528.8213" y="-7.3" font-family="Helvetica,sans-Serif" font-size="14.00" fill="#000000">MapIniter::initSimapleMap</text>
</a>
</g>
</g>
<!-- Node10&#45;&gt;Node11 -->
<g id="edge2" class="edge">
<title>Node10&#45;&gt;Node11</title>
<path fill="none" stroke="#191970" d="M414.2404,-11.5C422.8202,-11.5 431.4336,-11.5 439.8728,-11.5"/>
<polygon fill="#191970" stroke="#191970" points="414.1963,-8.0001 404.1963,-11.5 414.1962,-15.0001 414.1963,-8.0001"/>
</g>
<!-- Node12 -->
<g id="node4" class="node">
<title>Node12</title>
<g id="a_node4"><a xlink:href="$d2/d11/classMainGameLoop.html#a0632599cb00fa2c86ba1c71904c1f59f" xlink:title="MainGameLoop::MainGameLoop">
<polygon fill="none" stroke="#000000" points="653.7451,-.5 653.7451,-22.5 876.751,-22.5 876.751,-.5 653.7451,-.5"/>
<text text-anchor="middle" x="765.248" y="-7.3" font-family="Helvetica,sans-Serif" font-size="14.00" fill="#000000">MainGameLoop::MainGameLoop</text>
</a>
</g>
</g>
<!-- Node11&#45;&gt;Node12 -->
<g id="edge3" class="edge">
<title>Node11&#45;&gt;Node12</title>
<path fill="none" stroke="#191970" d="M628.0591,-11.5C636.4779,-11.5 645.0285,-11.5 653.5342,-11.5"/>
<polygon fill="#191970" stroke="#191970" points="627.8672,-8.0001 617.8672,-11.5 627.8672,-15.0001 627.8672,-8.0001"/>
</g>
</g>
</svg>
