<?xml version="1.0" encoding="UTF-8" standalone="no"?>
<!DOCTYPE svg PUBLIC "-//W3C//DTD SVG 1.1//EN"
 "http://www.w3.org/Graphics/SVG/1.1/DTD/svg11.dtd">
<!-- Generated by graphviz version 2.40.1 (20161225.0304)
 -->
<!-- Title: std::list&lt; T &gt; Pages: 1 -->
<svg width="123pt" height="192pt"
 viewBox="0.00 0.00 122.75 192.00" xmlns="http://www.w3.org/2000/svg" xmlns:xlink="http://www.w3.org/1999/xlink">
<g id="graph0" class="graph" transform="scale(1 1) rotate(0) translate(4 188)">
<title>std::list&lt; T &gt;</title>
<!-- Node604 -->
<g id="node1" class="node">
<title>Node604</title>
<polygon fill="#bfbfbf" stroke="#000000" points="0,-.5 0,-66.5 91.7559,-66.5 91.7559,-.5 0,-.5"/>
<text text-anchor="middle" x="45.8779" y="-51.3" font-family="Helvetica,sans-Serif" font-size="14.00" fill="#000000">std::list&lt; T &gt;</text>
<polyline fill="none" stroke="#000000" points="0,-44.5 91.7559,-44.5 "/>
<text text-anchor="middle" x="45.8779" y="-29.3" font-family="Helvetica,sans-Serif" font-size="14.00" fill="#000000"> </text>
<polyline fill="none" stroke="#000000" points="0,-22.5 91.7559,-22.5 "/>
<text text-anchor="middle" x="45.8779" y="-7.3" font-family="Helvetica,sans-Serif" font-size="14.00" fill="#000000"> </text>
</g>
<!-- Node605 -->
<g id="node2" class="node">
<title>Node605</title>
<polygon fill="none" stroke="#bfbfbf" points="31.3779,-117.5 31.3779,-183.5 60.3779,-183.5 60.3779,-117.5 31.3779,-117.5"/>
<text text-anchor="middle" x="45.6538" y="-168.3" font-family="Helvetica,sans-Serif" font-size="14.00" fill="#000000">T</text>
<polyline fill="none" stroke="#bfbfbf" points="31.3779,-161.5 59.9297,-161.5 "/>
<text text-anchor="middle" x="45.6538" y="-146.3" font-family="Helvetica,sans-Serif" font-size="14.00" fill="#000000"> </text>
<polyline fill="none" stroke="#bfbfbf" points="31.3779,-139.5 59.9297,-139.5 "/>
<text text-anchor="middle" x="45.6538" y="-124.3" font-family="Helvetica,sans-Serif" font-size="14.00" fill="#000000"> </text>
</g>
<!-- Node605&#45;&gt;Node604 -->
<g id="edge1" class="edge">
<title>Node605&#45;&gt;Node604</title>
<path fill="none" stroke="#404040" d="M45.8779,-117.2855C45.8779,-105.4288 45.8779,-91.8562 45.8779,-79.1371"/>
<polygon fill="none" stroke="#404040" points="45.878,-78.7976 41.878,-72.7976 45.8779,-66.7976 49.878,-72.7976 45.878,-78.7976"/>
<text text-anchor="middle" x="80.314" y="-87.8" font-family="Helvetica,sans-Serif" font-size="14.00" fill="#000000"> +elements</text>
</g>
</g>
</svg>
