<?xml version="1.0" encoding="UTF-8" standalone="no"?>
<!DOCTYPE svg PUBLIC "-//W3C//DTD SVG 1.1//EN"
 "http://www.w3.org/Graphics/SVG/1.1/DTD/svg11.dtd">
<!-- Generated by graphviz version 2.40.1 (20161225.0304)
 -->
<!-- Title: std::set&lt; K &gt; Pages: 1 -->
<svg width="103pt" height="192pt"
 viewBox="0.00 0.00 102.60 192.00" xmlns="http://www.w3.org/2000/svg" xmlns:xlink="http://www.w3.org/1999/xlink">
<g id="graph0" class="graph" transform="scale(1 1) rotate(0) translate(4 188)">
<title>std::set&lt; K &gt;</title>
<!-- Node817 -->
<g id="node1" class="node">
<title>Node817</title>
<polygon fill="#bfbfbf" stroke="#000000" points="0,-.5 0,-66.5 94.5996,-66.5 94.5996,-.5 0,-.5"/>
<text text-anchor="middle" x="47.2998" y="-51.3" font-family="Helvetica,sans-Serif" font-size="14.00" fill="#000000">std::set&lt; K &gt;</text>
<polyline fill="none" stroke="#000000" points="0,-44.5 94.5996,-44.5 "/>
<text text-anchor="middle" x="47.2998" y="-29.3" font-family="Helvetica,sans-Serif" font-size="14.00" fill="#000000"> </text>
<polyline fill="none" stroke="#000000" points="0,-22.5 94.5996,-22.5 "/>
<text text-anchor="middle" x="47.2998" y="-7.3" font-family="Helvetica,sans-Serif" font-size="14.00" fill="#000000"> </text>
</g>
<!-- Node818 -->
<g id="node2" class="node">
<title>Node818</title>
<polygon fill="none" stroke="#bfbfbf" points="32.7998,-117.5 32.7998,-183.5 61.7998,-183.5 61.7998,-117.5 32.7998,-117.5"/>
<text text-anchor="middle" x="46.9688" y="-168.3" font-family="Helvetica,sans-Serif" font-size="14.00" fill="#000000">K</text>
<polyline fill="none" stroke="#bfbfbf" points="32.7998,-161.5 61.1377,-161.5 "/>
<text text-anchor="middle" x="46.9688" y="-146.3" font-family="Helvetica,sans-Serif" font-size="14.00" fill="#000000"> </text>
<polyline fill="none" stroke="#bfbfbf" points="32.7998,-139.5 61.1377,-139.5 "/>
<text text-anchor="middle" x="46.9688" y="-124.3" font-family="Helvetica,sans-Serif" font-size="14.00" fill="#000000"> </text>
</g>
<!-- Node818&#45;&gt;Node817 -->
<g id="edge1" class="edge">
<title>Node818&#45;&gt;Node817</title>
<path fill="none" stroke="#404040" d="M47.2998,-117.2855C47.2998,-105.4288 47.2998,-91.8562 47.2998,-79.1371"/>
<polygon fill="none" stroke="#404040" points="47.2999,-78.7976 43.2999,-72.7976 47.2998,-66.7976 51.2999,-72.7976 47.2999,-78.7976"/>
<text text-anchor="middle" x="67.7256" y="-87.8" font-family="Helvetica,sans-Serif" font-size="14.00" fill="#000000"> +keys</text>
</g>
</g>
</svg>
