<?xml version="1.0" encoding="UTF-8" standalone="no"?>
<!DOCTYPE svg PUBLIC "-//W3C//DTD SVG 1.1//EN"
 "http://www.w3.org/Graphics/SVG/1.1/DTD/svg11.dtd">
<!-- Generated by graphviz version 2.40.1 (20161225.0304)
 -->
<!-- Title: MessageForServer Pages: 1 -->
<svg width="143pt" height="192pt"
 viewBox="0.00 0.00 143.04 192.00" xmlns="http://www.w3.org/2000/svg" xmlns:xlink="http://www.w3.org/1999/xlink">
<g id="graph0" class="graph" transform="scale(1 1) rotate(0) translate(4 188)">
<title>MessageForServer</title>
<!-- Node90 -->
<g id="node1" class="node">
<title>Node90</title>
<polygon fill="#bfbfbf" stroke="#000000" points="0,-.5 0,-80.5 135.041,-80.5 135.041,-.5 0,-.5"/>
<text text-anchor="middle" x="67.5205" y="-65.3" font-family="Helvetica,sans-Serif" font-size="14.00" fill="#000000">MessageForServer</text>
<polyline fill="none" stroke="#000000" points="0,-58.5 135.041,-58.5 "/>
<text text-anchor="start" x="8" y="-43.3" font-family="Helvetica,sans-Serif" font-size="14.00" fill="#000000">+ connectionType</text>
<text text-anchor="start" x="8" y="-29.3" font-family="Helvetica,sans-Serif" font-size="14.00" fill="#000000">+ messageType</text>
<polyline fill="none" stroke="#000000" points="0,-22.5 135.041,-22.5 "/>
<text text-anchor="start" x="8" y="-7.3" font-family="Helvetica,sans-Serif" font-size="14.00" fill="#000000">+ toString()</text>
</g>
<!-- Node91 -->
<g id="node2" class="node">
<title>Node91</title>
<polygon fill="none" stroke="#bfbfbf" points="33.8447,-117.5 33.8447,-183.5 101.1963,-183.5 101.1963,-117.5 33.8447,-117.5"/>
<text text-anchor="middle" x="67.5205" y="-168.3" font-family="Helvetica,sans-Serif" font-size="14.00" fill="#000000">QObject</text>
<polyline fill="none" stroke="#bfbfbf" points="33.8447,-161.5 101.1963,-161.5 "/>
<text text-anchor="middle" x="67.5205" y="-146.3" font-family="Helvetica,sans-Serif" font-size="14.00" fill="#000000"> </text>
<polyline fill="none" stroke="#bfbfbf" points="33.8447,-139.5 101.1963,-139.5 "/>
<text text-anchor="middle" x="67.5205" y="-124.3" font-family="Helvetica,sans-Serif" font-size="14.00" fill="#000000"> </text>
</g>
<!-- Node91&#45;&gt;Node90 -->
<g id="edge1" class="edge">
<title>Node91&#45;&gt;Node90</title>
<path fill="none" stroke="#191970" d="M67.5205,-107.4695C67.5205,-98.7133 67.5205,-89.5317 67.5205,-80.8719"/>
<polygon fill="none" stroke="#191970" points="64.0206,-107.4963 67.5205,-117.4964 71.0206,-107.4964 64.0206,-107.4963"/>
</g>
</g>
</svg>
