<?xml version="1.0" encoding="UTF-8" standalone="no"?>
<!DOCTYPE svg PUBLIC "-//W3C//DTD SVG 1.1//EN"
 "http://www.w3.org/Graphics/SVG/1.1/DTD/svg11.dtd">
<!-- Generated by graphviz version 2.40.1 (20161225.0304)
 -->
<!-- Title: MainGameLoop::getAllMapAsDiff Pages: 1 -->
<svg width="562pt" height="86pt"
 viewBox="0.00 0.00 561.96 86.00" xmlns="http://www.w3.org/2000/svg" xmlns:xlink="http://www.w3.org/1999/xlink">
<g id="graph0" class="graph" transform="scale(1 1) rotate(0) translate(4 82)">
<title>MainGameLoop::getAllMapAsDiff</title>
<!-- Node15 -->
<g id="node1" class="node">
<title>Node15</title>
<polygon fill="#bfbfbf" stroke="#000000" points="0,-31.5 0,-53.5 222.7393,-53.5 222.7393,-31.5 0,-31.5"/>
<text text-anchor="middle" x="111.3696" y="-38.3" font-family="Helvetica,sans-Serif" font-size="14.00" fill="#000000">MainGameLoop::getAllMapAsDiff</text>
</g>
<!-- Node16 -->
<g id="node2" class="node">
<title>Node16</title>
<g id="a_node2"><a xlink:href="$d6/dda/Server_2main_8cpp.html#a3cfb6b17f20d62ad08b9402764f3aa6c" xlink:title="initMainLooper">
<polygon fill="none" stroke="#000000" points="311.2598,-55.5 311.2598,-77.5 419.0938,-77.5 419.0938,-55.5 311.2598,-55.5"/>
<text text-anchor="middle" x="365.1768" y="-62.3" font-family="Helvetica,sans-Serif" font-size="14.00" fill="#000000">initMainLooper</text>
</a>
</g>
</g>
<!-- Node15&#45;&gt;Node16 -->
<g id="edge1" class="edge">
<title>Node15&#45;&gt;Node16</title>
<path fill="none" stroke="#191970" d="M233.1329,-54.0139C260.5319,-56.6048 288.2509,-59.2259 311.17,-61.3931"/>
<polygon fill="#191970" stroke="#191970" points="233.3476,-50.5187 223.0625,-53.0617 232.6885,-57.4876 233.3476,-50.5187"/>
</g>
<!-- Node18 -->
<g id="node4" class="node">
<title>Node18</title>
<g id="a_node4"><a xlink:href="$d2/d11/classMainGameLoop.html#ab9de0ceedab969b5f7fd9e1131bc4cd5" xlink:title="MainGameLoop::getProccessor\lForMessage">
<polygon fill="none" stroke="#000000" points="258.7393,-.5 258.7393,-36.5 471.6143,-36.5 471.6143,-.5 258.7393,-.5"/>
<text text-anchor="start" x="266.7393" y="-21.3" font-family="Helvetica,sans-Serif" font-size="14.00" fill="#000000">MainGameLoop::getProccessor</text>
<text text-anchor="middle" x="365.1768" y="-7.3" font-family="Helvetica,sans-Serif" font-size="14.00" fill="#000000">ForMessage</text>
</a>
</g>
</g>
<!-- Node15&#45;&gt;Node18 -->
<g id="edge3" class="edge">
<title>Node15&#45;&gt;Node18</title>
<path fill="none" stroke="#191970" d="M233.0827,-30.9908C241.6388,-30.1817 250.2264,-29.3697 258.6895,-28.5694"/>
<polygon fill="#191970" stroke="#191970" points="232.6885,-27.5124 223.0625,-31.9383 233.3476,-34.4813 232.6885,-27.5124"/>
</g>
<!-- Node17 -->
<g id="node3" class="node">
<title>Node17</title>
<g id="a_node3"><a xlink:href="$d6/dda/Server_2main_8cpp.html#a0ddf1224851353fc92bfbff6f499fa97" xlink:title="main">
<polygon fill="none" stroke="#000000" points="507.6143,-55.5 507.6143,-77.5 553.959,-77.5 553.959,-55.5 507.6143,-55.5"/>
<text text-anchor="middle" x="530.7866" y="-62.3" font-family="Helvetica,sans-Serif" font-size="14.00" fill="#000000">main</text>
</a>
</g>
</g>
<!-- Node16&#45;&gt;Node17 -->
<g id="edge2" class="edge">
<title>Node16&#45;&gt;Node17</title>
<path fill="none" stroke="#191970" d="M429.7244,-66.5C457.0801,-66.5 487.2335,-66.5 507.421,-66.5"/>
<polygon fill="#191970" stroke="#191970" points="429.4037,-63.0001 419.4036,-66.5 429.4036,-70.0001 429.4037,-63.0001"/>
</g>
</g>
</svg>
