<?xml version="1.0" encoding="UTF-8" standalone="no"?>
<!DOCTYPE svg PUBLIC "-//W3C//DTD SVG 1.1//EN"
 "http://www.w3.org/Graphics/SVG/1.1/DTD/svg11.dtd">
<!-- Generated by graphviz version 2.40.1 (20161225.0304)
 -->
<!-- Title: MainGameLoop::getProccessorForMessage Pages: 1 -->
<svg width="920pt" height="141pt"
 viewBox="0.00 0.00 920.29 141.00" xmlns="http://www.w3.org/2000/svg" xmlns:xlink="http://www.w3.org/1999/xlink">
<g id="graph0" class="graph" transform="scale(1 1) rotate(0) translate(4 137)">
<title>MainGameLoop::getProccessorForMessage</title>
<!-- Node23 -->
<g id="node1" class="node">
<title>Node23</title>
<polygon fill="#bfbfbf" stroke="#000000" points="0,-55.5 0,-91.5 212.875,-91.5 212.875,-55.5 0,-55.5"/>
<text text-anchor="start" x="8" y="-76.3" font-family="Helvetica,sans-Serif" font-size="14.00" fill="#000000">MainGameLoop::getProccessor</text>
<text text-anchor="middle" x="106.4375" y="-62.3" font-family="Helvetica,sans-Serif" font-size="14.00" fill="#000000">ForMessage</text>
</g>
<!-- Node24 -->
<g id="node2" class="node">
<title>Node24</title>
<g id="a_node2"><a xlink:href="$d2/d11/classMainGameLoop.html#ac4cd47d8b350ae45ea09aaecad11a684" xlink:title="MainGameLoop::getAllMapAsDiff">
<polygon fill="none" stroke="#000000" points="253.0176,-110.5 253.0176,-132.5 475.7568,-132.5 475.7568,-110.5 253.0176,-110.5"/>
<text text-anchor="middle" x="364.3872" y="-117.3" font-family="Helvetica,sans-Serif" font-size="14.00" fill="#000000">MainGameLoop::getAllMapAsDiff</text>
</a>
</g>
</g>
<!-- Node23&#45;&gt;Node24 -->
<g id="edge1" class="edge">
<title>Node23&#45;&gt;Node24</title>
<path fill="none" stroke="#191970" d="M196.4183,-91.509C213.8098,-94.899 231.8992,-98.3623 248.875,-101.5 261.8729,-103.9025 275.7102,-106.3732 289.1245,-108.7228"/>
<polygon fill="#191970" stroke="#191970" points="288.8266,-112.2236 299.2791,-110.4929 290.0287,-105.3276 288.8266,-112.2236"/>
</g>
<!-- Node25 -->
<g id="node3" class="node">
<title>Node25</title>
<g id="a_node3"><a xlink:href="$d2/d11/classMainGameLoop.html#ac7722494194e946c7d045471858c3aee" xlink:title="MainGameLoop::proccessGamer\lMessage">
<polygon fill="none" stroke="#000000" points="253.2876,-55.5 253.2876,-91.5 475.4868,-91.5 475.4868,-55.5 253.2876,-55.5"/>
<text text-anchor="start" x="261.2876" y="-76.3" font-family="Helvetica,sans-Serif" font-size="14.00" fill="#000000">MainGameLoop::proccessGamer</text>
<text text-anchor="middle" x="364.3872" y="-62.3" font-family="Helvetica,sans-Serif" font-size="14.00" fill="#000000">Message</text>
</a>
</g>
</g>
<!-- Node23&#45;&gt;Node25 -->
<g id="edge2" class="edge">
<title>Node23&#45;&gt;Node25</title>
<path fill="none" stroke="#191970" d="M213.2175,-73.5C222.99,-73.5 232.9377,-73.5 242.8271,-73.5"/>
<polygon fill="#191970" stroke="#191970" points="243.102,-77.0001 253.1019,-73.5 243.1019,-70.0001 243.102,-77.0001"/>
</g>
<!-- Node28 -->
<g id="node6" class="node">
<title>Node28</title>
<g id="a_node6"><a xlink:href="$d2/d11/classMainGameLoop.html#a26ac1e61f11a51a84b6f2e770808d162" xlink:title="MainGameLoop::proccessWatcher\lMessage">
<polygon fill="none" stroke="#000000" points="248.875,-.5 248.875,-36.5 479.8994,-36.5 479.8994,-.5 248.875,-.5"/>
<text text-anchor="start" x="256.875" y="-21.3" font-family="Helvetica,sans-Serif" font-size="14.00" fill="#000000">MainGameLoop::proccessWatcher</text>
<text text-anchor="middle" x="364.3872" y="-7.3" font-family="Helvetica,sans-Serif" font-size="14.00" fill="#000000">Message</text>
</a>
</g>
</g>
<!-- Node23&#45;&gt;Node28 -->
<g id="edge5" class="edge">
<title>Node23&#45;&gt;Node28</title>
<path fill="none" stroke="#191970" d="M190.8999,-55.4909C216.1756,-50.1017 244.0509,-44.1581 269.9258,-38.641"/>
<polygon fill="#191970" stroke="#191970" points="270.6848,-42.058 279.7351,-36.5495 269.225,-35.2119 270.6848,-42.058"/>
</g>
<!-- Node26 -->
<g id="node4" class="node">
<title>Node26</title>
<g id="a_node4"><a xlink:href="$d8/d5e/classBaseBasis.html#aa3c0b1cd0f29db8b63bb22dbfb78bbc5" xlink:title="BaseBasis::BaseBasis">
<polygon fill="none" stroke="#000000" points="515.8994,-62.5 515.8994,-84.5 671.9678,-84.5 671.9678,-62.5 515.8994,-62.5"/>
<text text-anchor="middle" x="593.9336" y="-69.3" font-family="Helvetica,sans-Serif" font-size="14.00" fill="#000000">BaseBasis::BaseBasis</text>
</a>
</g>
</g>
<!-- Node25&#45;&gt;Node26 -->
<g id="edge3" class="edge">
<title>Node25&#45;&gt;Node26</title>
<path fill="none" stroke="#191970" d="M475.7983,-73.5C485.8023,-73.5 495.8403,-73.5 505.608,-73.5"/>
<polygon fill="#191970" stroke="#191970" points="505.6765,-77.0001 515.6765,-73.5 505.6764,-70.0001 505.6765,-77.0001"/>
</g>
<!-- Node27 -->
<g id="node5" class="node">
<title>Node27</title>
<g id="a_node5"><a xlink:href="$de/d2b/classIBaseGameElement.html#ae2be75da1a2a9edfabe993770e24654a" xlink:title="IBaseGameElement::nextStep">
<polygon fill="none" stroke="#000000" points="707.9678,-62.5 707.9678,-84.5 912.291,-84.5 912.291,-62.5 707.9678,-62.5"/>
<text text-anchor="middle" x="810.1294" y="-69.3" font-family="Helvetica,sans-Serif" font-size="14.00" fill="#000000">IBaseGameElement::nextStep</text>
</a>
</g>
</g>
<!-- Node26&#45;&gt;Node27 -->
<g id="edge4" class="edge">
<title>Node26&#45;&gt;Node27</title>
<path fill="none" stroke="#191970" d="M671.9852,-73.5C680.3308,-73.5 688.936,-73.5 697.5791,-73.5"/>
<polygon fill="#191970" stroke="#191970" points="697.7297,-77.0001 707.7296,-73.5 697.7296,-70.0001 697.7297,-77.0001"/>
</g>
</g>
</svg>
