<?xml version="1.0" encoding="UTF-8" standalone="no"?>
<!DOCTYPE svg PUBLIC "-//W3C//DTD SVG 1.1//EN"
 "http://www.w3.org/Graphics/SVG/1.1/DTD/svg11.dtd">
<!-- Generated by graphviz version 2.40.1 (20161225.0304)
 -->
<!-- Title: MainGameLoop::MainGameLoop Pages: 1 -->
<svg width="1104pt" height="303pt"
 viewBox="0.00 0.00 1103.79 303.00" xmlns="http://www.w3.org/2000/svg" xmlns:xlink="http://www.w3.org/1999/xlink">
<g id="graph0" class="graph" transform="scale(1 1) rotate(0) translate(4 299)">
<title>MainGameLoop::MainGameLoop</title>
<!-- Node2 -->
<g id="node1" class="node">
<title>Node2</title>
<polygon fill="#bfbfbf" stroke="#000000" points="0,-207.5 0,-229.5 223.0059,-229.5 223.0059,-207.5 0,-207.5"/>
<text text-anchor="middle" x="111.5029" y="-214.3" font-family="Helvetica,sans-Serif" font-size="14.00" fill="#000000">MainGameLoop::MainGameLoop</text>
</g>
<!-- Node3 -->
<g id="node2" class="node">
<title>Node3</title>
<g id="a_node2"><a xlink:href="$d6/df5/classMapIniter.html#a1137dec968988621ea18091fdf379987" xlink:title="MapIniter::MapIniter">
<polygon fill="none" stroke="#000000" points="277.6816,-228.5 277.6816,-250.5 418.1777,-250.5 418.1777,-228.5 277.6816,-228.5"/>
<text text-anchor="middle" x="347.9297" y="-235.3" font-family="Helvetica,sans-Serif" font-size="14.00" fill="#000000">MapIniter::MapIniter</text>
</a>
</g>
</g>
<!-- Node2&#45;&gt;Node3 -->
<g id="edge1" class="edge">
<title>Node2&#45;&gt;Node3</title>
<path fill="none" stroke="#191970" d="M223.1391,-228.4158C238.0516,-229.7404 253.1042,-231.0774 267.3436,-232.3421"/>
<polygon fill="#191970" stroke="#191970" points="267.2842,-235.8506 277.5547,-233.2491 267.9036,-228.878 267.2842,-235.8506"/>
</g>
<!-- Node4 -->
<g id="node3" class="node">
<title>Node4</title>
<g id="a_node3"><a xlink:href="$d6/df5/classMapIniter.html#ae6dfbed9cc8569db78442c0bfe57e252" xlink:title="MapIniter::initSimapleMap">
<polygon fill="none" stroke="#000000" points="259.0059,-187.5 259.0059,-209.5 436.8535,-209.5 436.8535,-187.5 259.0059,-187.5"/>
<text text-anchor="middle" x="347.9297" y="-194.3" font-family="Helvetica,sans-Serif" font-size="14.00" fill="#000000">MapIniter::initSimapleMap</text>
</a>
</g>
</g>
<!-- Node2&#45;&gt;Node4 -->
<g id="edge2" class="edge">
<title>Node2&#45;&gt;Node4</title>
<path fill="none" stroke="#191970" d="M223.1391,-209.0564C231.6392,-208.3373 240.1848,-207.6144 248.5993,-206.9026"/>
<polygon fill="#191970" stroke="#191970" points="249.117,-210.3714 258.7864,-206.0409 248.5269,-203.3963 249.117,-210.3714"/>
</g>
<!-- Node5 -->
<g id="node4" class="node">
<title>Node5</title>
<g id="a_node4"><a xlink:href="$de/d2b/classIBaseGameElement.html#ae2be75da1a2a9edfabe993770e24654a" xlink:title="IBaseGameElement::nextStep">
<polygon fill="none" stroke="#000000" points="703.5518,-272.5 703.5518,-294.5 907.875,-294.5 907.875,-272.5 703.5518,-272.5"/>
<text text-anchor="middle" x="805.7134" y="-279.3" font-family="Helvetica,sans-Serif" font-size="14.00" fill="#000000">IBaseGameElement::nextStep</text>
</a>
</g>
</g>
<!-- Node4&#45;&gt;Node5 -->
<g id="edge3" class="edge">
<title>Node4&#45;&gt;Node5</title>
<path fill="none" stroke="#191970" d="M407.3076,-209.5251C491.8671,-225.2259 646.6481,-253.9652 736.3654,-270.6237"/>
<polygon fill="#191970" stroke="#191970" points="735.9698,-274.1099 746.4407,-272.4944 737.2477,-267.2276 735.9698,-274.1099"/>
</g>
<!-- Node6 -->
<g id="node5" class="node">
<title>Node6</title>
<g id="a_node5"><a xlink:href="$d6/df5/classMapIniter.html#a8961b80aa1df5f628bd4e28e66a51d0b" xlink:title="MapIniter::getRandomGrass">
<polygon fill="none" stroke="#000000" points="472.8535,-167.5 472.8535,-189.5 664.708,-189.5 664.708,-167.5 472.8535,-167.5"/>
<text text-anchor="middle" x="568.7808" y="-174.3" font-family="Helvetica,sans-Serif" font-size="14.00" fill="#000000">MapIniter::getRandomGrass</text>
</a>
</g>
</g>
<!-- Node4&#45;&gt;Node6 -->
<g id="edge4" class="edge">
<title>Node4&#45;&gt;Node6</title>
<path fill="none" stroke="#191970" d="M437.1217,-190.4229C445.5541,-189.6593 454.1583,-188.8801 462.7272,-188.1041"/>
<polygon fill="#191970" stroke="#191970" points="463.1144,-191.5834 472.7579,-187.1957 462.483,-184.612 463.1144,-191.5834"/>
</g>
<!-- Node6&#45;&gt;Node5 -->
<g id="edge5" class="edge">
<title>Node6&#45;&gt;Node5</title>
<path fill="none" stroke="#191970" d="M588.2439,-189.503C607.8784,-200.7797 638.8974,-219.0813 664.708,-236.5 681.286,-247.6879 682.4126,-255.4205 700.708,-263.5 705.8009,-265.7491 711.1421,-267.7457 716.6036,-269.5181"/>
<polygon fill="#191970" stroke="#191970" points="715.9535,-272.9762 726.5364,-272.4724 717.9492,-266.2667 715.9535,-272.9762"/>
</g>
<!-- Node7 -->
<g id="node6" class="node">
<title>Node7</title>
<g id="a_node6"><a xlink:href="$de/d2b/classIBaseGameElement.html#a2f95e7a61b5db7f2fbbfd32ff786f58c" xlink:title="IBaseGameElement::setHelth">
<polygon fill="none" stroke="#000000" points="705.5034,-231.5 705.5034,-253.5 905.9233,-253.5 905.9233,-231.5 705.5034,-231.5"/>
<text text-anchor="middle" x="805.7134" y="-238.3" font-family="Helvetica,sans-Serif" font-size="14.00" fill="#000000">IBaseGameElement::setHelth</text>
</a>
</g>
</g>
<!-- Node6&#45;&gt;Node7 -->
<g id="edge6" class="edge">
<title>Node6&#45;&gt;Node7</title>
<path fill="none" stroke="#191970" d="M605.6403,-189.5203C632.04,-197.3146 668.4739,-207.8703 700.708,-216.5 716.4828,-220.7232 733.6558,-225.0771 749.4574,-228.9857"/>
<polygon fill="#191970" stroke="#191970" points="749.0681,-232.4942 759.6147,-231.484 750.7401,-225.6968 749.0681,-232.4942"/>
</g>
<!-- Node8 -->
<g id="node7" class="node">
<title>Node8</title>
<g id="a_node7"><a xlink:href="$d2/dc5/classInfinityDouble.html#a8d33637f68b523cf2b21abd1509c47bf" xlink:title="InfinityDouble::Infinity\lDouble">
<polygon fill="none" stroke="#000000" points="946.7188,-137.5 946.7188,-173.5 1095.7871,-173.5 1095.7871,-137.5 946.7188,-137.5"/>
<text text-anchor="start" x="954.7188" y="-158.3" font-family="Helvetica,sans-Serif" font-size="14.00" fill="#000000">InfinityDouble::Infinity</text>
<text text-anchor="middle" x="1021.2529" y="-144.3" font-family="Helvetica,sans-Serif" font-size="14.00" fill="#000000">Double</text>
</a>
</g>
</g>
<!-- Node6&#45;&gt;Node8 -->
<g id="edge7" class="edge">
<title>Node6&#45;&gt;Node8</title>
<path fill="none" stroke="#191970" d="M664.9727,-186.9843C733.707,-191.3248 828.2386,-193.7843 910.7188,-183.5 924.0245,-181.8409 938.0272,-179.0996 951.4267,-175.9649"/>
<polygon fill="#191970" stroke="#191970" points="952.6469,-179.2701 961.5343,-173.5025 950.99,-172.469 952.6469,-179.2701"/>
</g>
<!-- Node9 -->
<g id="node8" class="node">
<title>Node9</title>
<g id="a_node8"><a xlink:href="$d2/dc5/classInfinityDouble.html#a67fae871f96708313bedc644630ac8bc" xlink:title="InfinityDouble::Infinity\lValue">
<polygon fill="none" stroke="#000000" points="731.1792,-137.5 731.1792,-173.5 880.2476,-173.5 880.2476,-137.5 731.1792,-137.5"/>
<text text-anchor="start" x="739.1792" y="-158.3" font-family="Helvetica,sans-Serif" font-size="14.00" fill="#000000">InfinityDouble::Infinity</text>
<text text-anchor="middle" x="805.7134" y="-144.3" font-family="Helvetica,sans-Serif" font-size="14.00" fill="#000000">Value</text>
</a>
</g>
</g>
<!-- Node6&#45;&gt;Node9 -->
<g id="edge8" class="edge">
<title>Node6&#45;&gt;Node9</title>
<path fill="none" stroke="#191970" d="M664.8088,-169.1782C683.4248,-167.371 702.8081,-165.4894 721.028,-163.7207"/>
<polygon fill="#191970" stroke="#191970" points="721.4033,-167.2009 731.0183,-162.751 720.7269,-160.2336 721.4033,-167.2009"/>
</g>
<!-- Node10 -->
<g id="node9" class="node">
<title>Node10</title>
<g id="a_node9"><a xlink:href="$de/d2b/classIBaseGameElement.html#ac480b8140b5b290f49b4b96a47291180" xlink:title="IBaseGameElement::setTransit\lWeight">
<polygon fill="none" stroke="#000000" points="700.708,-82.5 700.708,-118.5 910.7188,-118.5 910.7188,-82.5 700.708,-82.5"/>
<text text-anchor="start" x="708.708" y="-103.3" font-family="Helvetica,sans-Serif" font-size="14.00" fill="#000000">IBaseGameElement::setTransit</text>
<text text-anchor="middle" x="805.7134" y="-89.3" font-family="Helvetica,sans-Serif" font-size="14.00" fill="#000000">Weight</text>
</a>
</g>
</g>
<!-- Node6&#45;&gt;Node10 -->
<g id="edge10" class="edge">
<title>Node6&#45;&gt;Node10</title>
<path fill="none" stroke="#191970" d="M595.5323,-167.4431C621.9862,-156.7282 663.7528,-140.3961 700.708,-128.5 708.3689,-126.0339 716.3921,-123.6123 724.4443,-121.2887"/>
<polygon fill="#191970" stroke="#191970" points="725.5918,-124.6014 734.2581,-118.5068 723.6826,-117.8668 725.5918,-124.6014"/>
</g>
<!-- Node11 -->
<g id="node10" class="node">
<title>Node11</title>
<g id="a_node10"><a xlink:href="$d2/dc5/classInfinityDouble.html#adb0a2fa93aa5f90a93c3f4303436913a" xlink:title="InfinityDouble::FromValue">
<polygon fill="none" stroke="#000000" points="717.6919,-41.5 717.6919,-63.5 893.7349,-63.5 893.7349,-41.5 717.6919,-41.5"/>
<text text-anchor="middle" x="805.7134" y="-48.3" font-family="Helvetica,sans-Serif" font-size="14.00" fill="#000000">InfinityDouble::FromValue</text>
</a>
</g>
</g>
<!-- Node6&#45;&gt;Node11 -->
<g id="edge11" class="edge">
<title>Node6&#45;&gt;Node11</title>
<path fill="none" stroke="#191970" d="M579.184,-167.2163C599.9971,-145.3865 649.203,-97.4217 700.708,-73.5 706.4066,-70.8533 712.4306,-68.5394 718.5949,-66.5166"/>
<polygon fill="#191970" stroke="#191970" points="719.8053,-69.8074 728.3705,-63.5714 717.7859,-63.105 719.8053,-69.8074"/>
</g>
<!-- Node12 -->
<g id="node11" class="node">
<title>Node12</title>
<g id="a_node11"><a xlink:href="$de/d2b/classIBaseGameElement.html#a324cba2176155a50b5a2239eb0a8b6a0" xlink:title="IBaseGameElement::setType">
<polygon fill="none" stroke="#000000" points="706.6655,-.5 706.6655,-22.5 904.7612,-22.5 904.7612,-.5 706.6655,-.5"/>
<text text-anchor="middle" x="805.7134" y="-7.3" font-family="Helvetica,sans-Serif" font-size="14.00" fill="#000000">IBaseGameElement::setType</text>
</a>
</g>
</g>
<!-- Node6&#45;&gt;Node12 -->
<g id="edge13" class="edge">
<title>Node6&#45;&gt;Node12</title>
<path fill="none" stroke="#191970" d="M575.399,-167.1369C592.3166,-139.1977 640.114,-66.9278 700.708,-32.5 704.9309,-30.1007 709.3855,-27.9723 713.9804,-26.0847"/>
<polygon fill="#191970" stroke="#191970" points="715.4127,-29.2869 723.5802,-22.5384 712.9869,-22.7206 715.4127,-29.2869"/>
</g>
<!-- Node9&#45;&gt;Node8 -->
<g id="edge9" class="edge">
<title>Node9&#45;&gt;Node8</title>
<path fill="none" stroke="#191970" d="M880.4937,-155.5C898.5495,-155.5 917.9726,-155.5 936.4509,-155.5"/>
<polygon fill="#191970" stroke="#191970" points="936.6048,-159.0001 946.6047,-155.5 936.6047,-152.0001 936.6048,-159.0001"/>
</g>
<!-- Node11&#45;&gt;Node8 -->
<g id="edge12" class="edge">
<title>Node11&#45;&gt;Node8</title>
<path fill="none" stroke="#191970" d="M881.8133,-63.5559C891.7511,-66.1979 901.6282,-69.4641 910.7188,-73.5 942.283,-87.5135 973.4396,-111.8417 994.5874,-130.3705"/>
<polygon fill="#191970" stroke="#191970" points="992.3927,-133.1031 1002.1825,-137.1543 997.0558,-127.8824 992.3927,-133.1031"/>
</g>
</g>
</svg>
