<?xml version="1.0" encoding="UTF-8" standalone="no"?>
<!DOCTYPE svg PUBLIC "-//W3C//DTD SVG 1.1//EN"
 "http://www.w3.org/Graphics/SVG/1.1/DTD/svg11.dtd">
<!-- Generated by graphviz version 2.40.1 (20161225.0304)
 -->
<!-- Title: MessageForServer Pages: 1 -->
<svg width="173pt" height="234pt"
 viewBox="0.00 0.00 172.61 234.00" xmlns="http://www.w3.org/2000/svg" xmlns:xlink="http://www.w3.org/1999/xlink">
<g id="graph0" class="graph" transform="scale(1 1) rotate(0) translate(4 230)">
<title>MessageForServer</title>
<!-- Node2 -->
<g id="node1" class="node">
<title>Node2</title>
<polygon fill="#bfbfbf" stroke="#000000" points="0,-.5 0,-122.5 164.6064,-122.5 164.6064,-.5 0,-.5"/>
<text text-anchor="middle" x="82.3032" y="-107.3" font-family="Helvetica,sans-Serif" font-size="14.00" fill="#000000">MessageForServer</text>
<polyline fill="none" stroke="#000000" points="0,-100.5 164.6064,-100.5 "/>
<text text-anchor="start" x="8" y="-85.3" font-family="Helvetica,sans-Serif" font-size="14.00" fill="#000000">+ connectionType</text>
<text text-anchor="start" x="8" y="-71.3" font-family="Helvetica,sans-Serif" font-size="14.00" fill="#000000">+ messageType</text>
<text text-anchor="start" x="8" y="-57.3" font-family="Helvetica,sans-Serif" font-size="14.00" fill="#000000">+ items</text>
<polyline fill="none" stroke="#000000" points="0,-50.5 164.6064,-50.5 "/>
<text text-anchor="start" x="8" y="-35.3" font-family="Helvetica,sans-Serif" font-size="14.00" fill="#000000">+ MessageForServer()</text>
<text text-anchor="start" x="8" y="-21.3" font-family="Helvetica,sans-Serif" font-size="14.00" fill="#000000">+ ~MessageForServer()</text>
<text text-anchor="start" x="8" y="-7.3" font-family="Helvetica,sans-Serif" font-size="14.00" fill="#000000">+ toString()</text>
</g>
<!-- Node3 -->
<g id="node2" class="node">
<title>Node3</title>
<polygon fill="none" stroke="#bfbfbf" points="48.6274,-159.5 48.6274,-225.5 115.979,-225.5 115.979,-159.5 48.6274,-159.5"/>
<text text-anchor="middle" x="82.3032" y="-210.3" font-family="Helvetica,sans-Serif" font-size="14.00" fill="#000000">QObject</text>
<polyline fill="none" stroke="#bfbfbf" points="48.6274,-203.5 115.979,-203.5 "/>
<text text-anchor="middle" x="82.3032" y="-188.3" font-family="Helvetica,sans-Serif" font-size="14.00" fill="#000000"> </text>
<polyline fill="none" stroke="#bfbfbf" points="48.6274,-181.5 115.979,-181.5 "/>
<text text-anchor="middle" x="82.3032" y="-166.3" font-family="Helvetica,sans-Serif" font-size="14.00" fill="#000000"> </text>
</g>
<!-- Node3&#45;&gt;Node2 -->
<g id="edge1" class="edge">
<title>Node3&#45;&gt;Node2</title>
<path fill="none" stroke="#191970" d="M82.3032,-149.3358C82.3032,-140.7765 82.3032,-131.6391 82.3032,-122.6133"/>
<polygon fill="none" stroke="#191970" points="78.8033,-149.4431 82.3032,-159.4432 85.8033,-149.4432 78.8033,-149.4431"/>
</g>
</g>
</svg>
