<?xml version="1.0" encoding="UTF-8" standalone="no"?>
<!DOCTYPE svg PUBLIC "-//W3C//DTD SVG 1.1//EN"
 "http://www.w3.org/Graphics/SVG/1.1/DTD/svg11.dtd">
<!-- Generated by graphviz version 2.40.1 (20161225.0304)
 -->
<!-- Title: InfinityDouble Pages: 1 -->
<svg width="130pt" height="206pt"
 viewBox="0.00 0.00 130.22 206.00" xmlns="http://www.w3.org/2000/svg" xmlns:xlink="http://www.w3.org/1999/xlink">
<g id="graph0" class="graph" transform="scale(1 1) rotate(0) translate(4 202)">
<title>InfinityDouble</title>
<!-- Node2 -->
<g id="node1" class="node">
<title>Node2</title>
<polygon fill="#bfbfbf" stroke="#000000" points="0,-.5 0,-94.5 122.2168,-94.5 122.2168,-.5 0,-.5"/>
<text text-anchor="middle" x="61.1084" y="-79.3" font-family="Helvetica,sans-Serif" font-size="14.00" fill="#000000">InfinityDouble</text>
<polyline fill="none" stroke="#000000" points="0,-72.5 122.2168,-72.5 "/>
<text text-anchor="middle" x="61.1084" y="-57.3" font-family="Helvetica,sans-Serif" font-size="14.00" fill="#000000"> </text>
<polyline fill="none" stroke="#000000" points="0,-50.5 122.2168,-50.5 "/>
<text text-anchor="start" x="8" y="-35.3" font-family="Helvetica,sans-Serif" font-size="14.00" fill="#000000">+ InfinityDouble()</text>
<text text-anchor="start" x="8" y="-21.3" font-family="Helvetica,sans-Serif" font-size="14.00" fill="#000000">+ FromValue()</text>
<text text-anchor="start" x="8" y="-7.3" font-family="Helvetica,sans-Serif" font-size="14.00" fill="#000000">+ InfinityValue()</text>
</g>
<!-- Node3 -->
<g id="node2" class="node">
<title>Node3</title>
<polygon fill="none" stroke="#bfbfbf" points="27.4326,-131.5 27.4326,-197.5 94.7842,-197.5 94.7842,-131.5 27.4326,-131.5"/>
<text text-anchor="middle" x="61.1084" y="-182.3" font-family="Helvetica,sans-Serif" font-size="14.00" fill="#000000">QObject</text>
<polyline fill="none" stroke="#bfbfbf" points="27.4326,-175.5 94.7842,-175.5 "/>
<text text-anchor="middle" x="61.1084" y="-160.3" font-family="Helvetica,sans-Serif" font-size="14.00" fill="#000000"> </text>
<polyline fill="none" stroke="#bfbfbf" points="27.4326,-153.5 94.7842,-153.5 "/>
<text text-anchor="middle" x="61.1084" y="-138.3" font-family="Helvetica,sans-Serif" font-size="14.00" fill="#000000"> </text>
</g>
<!-- Node3&#45;&gt;Node2 -->
<g id="edge1" class="edge">
<title>Node3&#45;&gt;Node2</title>
<path fill="none" stroke="#191970" d="M61.1084,-121.1032C61.1084,-112.5217 61.1084,-103.4747 61.1084,-94.7722"/>
<polygon fill="none" stroke="#191970" points="57.6085,-121.2854 61.1084,-131.2855 64.6085,-121.2855 57.6085,-121.2854"/>
</g>
</g>
</svg>
