<?xml version="1.0" encoding="UTF-8" standalone="no"?>
<!DOCTYPE svg PUBLIC "-//W3C//DTD SVG 1.1//EN"
 "http://www.w3.org/Graphics/SVG/1.1/DTD/svg11.dtd">
<!-- Generated by graphviz version 2.40.1 (20161225.0304)
 -->
<!-- Title: InfinityDouble Pages: 1 -->
<svg width="121pt" height="192pt"
 viewBox="0.00 0.00 120.63 192.00" xmlns="http://www.w3.org/2000/svg" xmlns:xlink="http://www.w3.org/1999/xlink">
<g id="graph0" class="graph" transform="scale(1 1) rotate(0) translate(4 188)">
<title>InfinityDouble</title>
<!-- Node2 -->
<g id="node1" class="node">
<title>Node2</title>
<polygon fill="#bfbfbf" stroke="#000000" points="0,-.5 0,-80.5 112.626,-80.5 112.626,-.5 0,-.5"/>
<text text-anchor="middle" x="56.313" y="-65.3" font-family="Helvetica,sans-Serif" font-size="14.00" fill="#000000">InfinityDouble</text>
<polyline fill="none" stroke="#000000" points="0,-58.5 112.626,-58.5 "/>
<text text-anchor="middle" x="56.313" y="-43.3" font-family="Helvetica,sans-Serif" font-size="14.00" fill="#000000"> </text>
<polyline fill="none" stroke="#000000" points="0,-36.5 112.626,-36.5 "/>
<text text-anchor="start" x="8" y="-21.3" font-family="Helvetica,sans-Serif" font-size="14.00" fill="#000000">+ FromValue()</text>
<text text-anchor="start" x="8" y="-7.3" font-family="Helvetica,sans-Serif" font-size="14.00" fill="#000000">+ InfinityValue()</text>
</g>
<!-- Node3 -->
<g id="node2" class="node">
<title>Node3</title>
<polygon fill="none" stroke="#bfbfbf" points="22.6372,-117.5 22.6372,-183.5 89.9888,-183.5 89.9888,-117.5 22.6372,-117.5"/>
<text text-anchor="middle" x="56.313" y="-168.3" font-family="Helvetica,sans-Serif" font-size="14.00" fill="#000000">QObject</text>
<polyline fill="none" stroke="#bfbfbf" points="22.6372,-161.5 89.9888,-161.5 "/>
<text text-anchor="middle" x="56.313" y="-146.3" font-family="Helvetica,sans-Serif" font-size="14.00" fill="#000000"> </text>
<polyline fill="none" stroke="#bfbfbf" points="22.6372,-139.5 89.9888,-139.5 "/>
<text text-anchor="middle" x="56.313" y="-124.3" font-family="Helvetica,sans-Serif" font-size="14.00" fill="#000000"> </text>
</g>
<!-- Node3&#45;&gt;Node2 -->
<g id="edge1" class="edge">
<title>Node3&#45;&gt;Node2</title>
<path fill="none" stroke="#191970" d="M56.313,-107.4695C56.313,-98.7133 56.313,-89.5317 56.313,-80.8719"/>
<polygon fill="none" stroke="#191970" points="52.8131,-107.4963 56.313,-117.4964 59.8131,-107.4964 52.8131,-107.4963"/>
</g>
</g>
</svg>
