<?xml version="1.0" encoding="UTF-8" standalone="no"?>
<!DOCTYPE svg PUBLIC "-//W3C//DTD SVG 1.1//EN"
 "http://www.w3.org/Graphics/SVG/1.1/DTD/svg11.dtd">
<!-- Generated by graphviz version 2.40.1 (20161225.0304)
 -->
<!-- Title: Core/GameElements/basebasis.h Pages: 1 -->
<svg width="521pt" height="149pt"
 viewBox="0.00 0.00 520.76 149.00" xmlns="http://www.w3.org/2000/svg" xmlns:xlink="http://www.w3.org/1999/xlink">
<g id="graph0" class="graph" transform="scale(1 1) rotate(0) translate(4 145)">
<title>Core/GameElements/basebasis.h</title>
<!-- Node123 -->
<g id="node1" class="node">
<title>Node123</title>
<polygon fill="#bfbfbf" stroke="#000000" points="117.3931,-118.5 117.3931,-140.5 342.7163,-140.5 342.7163,-118.5 117.3931,-118.5"/>
<text text-anchor="middle" x="230.0547" y="-125.3" font-family="Helvetica,sans-Serif" font-size="14.00" fill="#000000">Core/GameElements/basebasis.h</text>
</g>
<!-- Node124 -->
<g id="node2" class="node">
<title>Node124</title>
<g id="a_node2"><a xlink:href="$d7/d29/basebasis_8cpp.html" xlink:title="Core/GameElements/basebasis.cpp">
<polygon fill="none" stroke="#000000" points="0,-59.5 0,-81.5 240.1094,-81.5 240.1094,-59.5 0,-59.5"/>
<text text-anchor="middle" x="120.0547" y="-66.3" font-family="Helvetica,sans-Serif" font-size="14.00" fill="#000000">Core/GameElements/basebasis.cpp</text>
</a>
</g>
</g>
<!-- Node123&#45;&gt;Node124 -->
<g id="edge1" class="edge">
<title>Node123&#45;&gt;Node124</title>
<path fill="none" stroke="#191970" d="M200.544,-113.6715C181.6198,-103.5213 157.5264,-90.5984 140.6521,-81.5477"/>
<polygon fill="#191970" stroke="#191970" points="198.8978,-116.7602 209.3645,-118.4026 202.2064,-110.5915 198.8978,-116.7602"/>
</g>
<!-- Node125 -->
<g id="node3" class="node">
<title>Node125</title>
<g id="a_node3"><a xlink:href="$df/dd1/maingameloop_8h.html" xlink:title="Server/maingameloop.h">
<polygon fill="none" stroke="#000000" points="257.7378,-59.5 257.7378,-81.5 422.3716,-81.5 422.3716,-59.5 257.7378,-59.5"/>
<text text-anchor="middle" x="340.0547" y="-66.3" font-family="Helvetica,sans-Serif" font-size="14.00" fill="#000000">Server/maingameloop.h</text>
</a>
</g>
</g>
<!-- Node123&#45;&gt;Node125 -->
<g id="edge2" class="edge">
<title>Node123&#45;&gt;Node125</title>
<path fill="none" stroke="#191970" d="M259.5654,-113.6715C278.4895,-103.5213 302.583,-90.5984 319.4573,-81.5477"/>
<polygon fill="#191970" stroke="#191970" points="257.9029,-110.5915 250.7448,-118.4026 261.2116,-116.7602 257.9029,-110.5915"/>
</g>
<!-- Node126 -->
<g id="node4" class="node">
<title>Node126</title>
<g id="a_node4"><a xlink:href="$d6/dda/Server_2main_8cpp.html" xlink:title="Server/main.cpp">
<polygon fill="none" stroke="#000000" points="197.0894,-.5 197.0894,-22.5 315.02,-22.5 315.02,-.5 197.0894,-.5"/>
<text text-anchor="middle" x="256.0547" y="-7.3" font-family="Helvetica,sans-Serif" font-size="14.00" fill="#000000">Server/main.cpp</text>
</a>
</g>
</g>
<!-- Node125&#45;&gt;Node126 -->
<g id="edge3" class="edge">
<title>Node125&#45;&gt;Node126</title>
<path fill="none" stroke="#191970" d="M315.9276,-53.5536C301.7373,-43.5866 284.2008,-31.2693 271.7836,-22.5477"/>
<polygon fill="#191970" stroke="#191970" points="314.06,-56.5189 324.2549,-59.4026 318.0835,-50.7907 314.06,-56.5189"/>
</g>
<!-- Node127 -->
<g id="node5" class="node">
<title>Node127</title>
<g id="a_node5"><a xlink:href="$dd/d30/maingameloop_8cpp.html" xlink:title="Server/maingameloop.cpp">
<polygon fill="none" stroke="#000000" points="333.3447,-.5 333.3447,-22.5 512.7646,-22.5 512.7646,-.5 333.3447,-.5"/>
<text text-anchor="middle" x="423.0547" y="-7.3" font-family="Helvetica,sans-Serif" font-size="14.00" fill="#000000">Server/maingameloop.cpp</text>
</a>
</g>
</g>
<!-- Node125&#45;&gt;Node127 -->
<g id="edge4" class="edge">
<title>Node125&#45;&gt;Node127</title>
<path fill="none" stroke="#191970" d="M363.8946,-53.5536C377.9159,-43.5866 395.2436,-31.2693 407.513,-22.5477"/>
<polygon fill="#191970" stroke="#191970" points="361.7891,-50.756 355.6664,-59.4026 365.8448,-56.4614 361.7891,-50.756"/>
</g>
</g>
</svg>
