<?xml version="1.0" encoding="UTF-8" standalone="no"?>
<!DOCTYPE svg PUBLIC "-//W3C//DTD SVG 1.1//EN"
 "http://www.w3.org/Graphics/SVG/1.1/DTD/svg11.dtd">
<!-- Generated by graphviz version 2.40.1 (20161225.0304)
 -->
<!-- Title: std::basic_iostream&lt; Char &gt; Pages: 1 -->
<svg width="1465pt" height="677pt"
 viewBox="0.00 0.00 1465.23 677.00" xmlns="http://www.w3.org/2000/svg" xmlns:xlink="http://www.w3.org/1999/xlink">
<g id="graph0" class="graph" transform="scale(1 1) rotate(0) translate(4 673)">
<title>std::basic_iostream&lt; Char &gt;</title>
<!-- Node143 -->
<g id="node1" class="node">
<title>Node143</title>
<polygon fill="#bfbfbf" stroke="#000000" points="559.9517,-262.5 559.9517,-342.5 696.5581,-342.5 696.5581,-262.5 559.9517,-262.5"/>
<text text-anchor="start" x="567.9517" y="-327.3" font-family="Helvetica,sans-Serif" font-size="14.00" fill="#000000">std::basic_iostream</text>
<text text-anchor="middle" x="628.2549" y="-313.3" font-family="Helvetica,sans-Serif" font-size="14.00" fill="#000000">&lt; Char &gt;</text>
<polyline fill="none" stroke="#000000" points="559.9517,-306.5 696.5581,-306.5 "/>
<text text-anchor="middle" x="628.2549" y="-291.3" font-family="Helvetica,sans-Serif" font-size="14.00" fill="#000000"> </text>
<polyline fill="none" stroke="#000000" points="559.9517,-284.5 696.5581,-284.5 "/>
<text text-anchor="middle" x="628.2549" y="-269.3" font-family="Helvetica,sans-Serif" font-size="14.00" fill="#000000"> </text>
</g>
<!-- Node148 -->
<g id="node6" class="node">
<title>Node148</title>
<polygon fill="none" stroke="#bfbfbf" points="0,-138.5 0,-204.5 154.5098,-204.5 154.5098,-138.5 0,-138.5"/>
<text text-anchor="middle" x="77.2549" y="-189.3" font-family="Helvetica,sans-Serif" font-size="14.00" fill="#000000">basic_fstream&lt; char &gt;</text>
<polyline fill="none" stroke="#bfbfbf" points="0,-182.5 154.5098,-182.5 "/>
<text text-anchor="middle" x="77.2549" y="-167.3" font-family="Helvetica,sans-Serif" font-size="14.00" fill="#000000"> </text>
<polyline fill="none" stroke="#bfbfbf" points="0,-160.5 154.5098,-160.5 "/>
<text text-anchor="middle" x="77.2549" y="-145.3" font-family="Helvetica,sans-Serif" font-size="14.00" fill="#000000"> </text>
</g>
<!-- Node143&#45;&gt;Node148 -->
<g id="edge6" class="edge">
<title>Node143&#45;&gt;Node148</title>
<path fill="none" stroke="#191970" d="M549.9629,-293.294C456.3198,-280.9144 295.6156,-255.3013 163.2549,-212 156.6671,-209.8448 149.926,-207.3067 143.2594,-204.5693"/>
<polygon fill="none" stroke="#191970" points="549.5586,-296.7709 559.9275,-294.5948 550.4647,-289.8298 549.5586,-296.7709"/>
</g>
<!-- Node149 -->
<g id="node7" class="node">
<title>Node149</title>
<polygon fill="none" stroke="#bfbfbf" points="172.1069,-138.5 172.1069,-204.5 348.4028,-204.5 348.4028,-138.5 172.1069,-138.5"/>
<text text-anchor="middle" x="260.2549" y="-189.3" font-family="Helvetica,sans-Serif" font-size="14.00" fill="#000000">basic_fstream&lt; wchar_t &gt;</text>
<polyline fill="none" stroke="#bfbfbf" points="172.1069,-182.5 348.4028,-182.5 "/>
<text text-anchor="middle" x="260.2549" y="-167.3" font-family="Helvetica,sans-Serif" font-size="14.00" fill="#000000"> </text>
<polyline fill="none" stroke="#bfbfbf" points="172.1069,-160.5 348.4028,-160.5 "/>
<text text-anchor="middle" x="260.2549" y="-145.3" font-family="Helvetica,sans-Serif" font-size="14.00" fill="#000000"> </text>
</g>
<!-- Node143&#45;&gt;Node149 -->
<g id="edge7" class="edge">
<title>Node143&#45;&gt;Node149</title>
<path fill="none" stroke="#191970" d="M550.2468,-278.1219C495.8077,-260.7025 421.6578,-236.1616 357.2549,-212 351.0184,-209.6603 344.5884,-207.1645 338.1468,-204.6046"/>
<polygon fill="none" stroke="#191970" points="549.2423,-281.4752 559.833,-281.1809 551.3703,-274.8065 549.2423,-281.4752"/>
</g>
<!-- Node150 -->
<g id="node8" class="node">
<title>Node150</title>
<polygon fill="none" stroke="#bfbfbf" points="366.5103,-131.5 366.5103,-211.5 499.9995,-211.5 499.9995,-131.5 366.5103,-131.5"/>
<text text-anchor="start" x="374.5103" y="-196.3" font-family="Helvetica,sans-Serif" font-size="14.00" fill="#000000">basic_stringstream</text>
<text text-anchor="middle" x="433.2549" y="-182.3" font-family="Helvetica,sans-Serif" font-size="14.00" fill="#000000">&lt; char &gt;</text>
<polyline fill="none" stroke="#bfbfbf" points="366.5103,-175.5 499.9995,-175.5 "/>
<text text-anchor="middle" x="433.2549" y="-160.3" font-family="Helvetica,sans-Serif" font-size="14.00" fill="#000000"> </text>
<polyline fill="none" stroke="#bfbfbf" points="366.5103,-153.5 499.9995,-153.5 "/>
<text text-anchor="middle" x="433.2549" y="-138.3" font-family="Helvetica,sans-Serif" font-size="14.00" fill="#000000"> </text>
</g>
<!-- Node143&#45;&gt;Node150 -->
<g id="edge8" class="edge">
<title>Node143&#45;&gt;Node150</title>
<path fill="none" stroke="#191970" d="M560.1247,-256.7305C538.3024,-242.0704 514.3152,-225.9559 493.1281,-211.7225"/>
<polygon fill="none" stroke="#191970" points="558.4363,-259.8127 568.6889,-262.4839 562.3398,-254.0021 558.4363,-259.8127"/>
</g>
<!-- Node151 -->
<g id="node9" class="node">
<title>Node151</title>
<polygon fill="none" stroke="#bfbfbf" points="517.5103,-131.5 517.5103,-211.5 650.9995,-211.5 650.9995,-131.5 517.5103,-131.5"/>
<text text-anchor="start" x="525.5103" y="-196.3" font-family="Helvetica,sans-Serif" font-size="14.00" fill="#000000">basic_stringstream</text>
<text text-anchor="middle" x="584.2549" y="-182.3" font-family="Helvetica,sans-Serif" font-size="14.00" fill="#000000">&lt; wchar_t &gt;</text>
<polyline fill="none" stroke="#bfbfbf" points="517.5103,-175.5 650.9995,-175.5 "/>
<text text-anchor="middle" x="584.2549" y="-160.3" font-family="Helvetica,sans-Serif" font-size="14.00" fill="#000000"> </text>
<polyline fill="none" stroke="#bfbfbf" points="517.5103,-153.5 650.9995,-153.5 "/>
<text text-anchor="middle" x="584.2549" y="-138.3" font-family="Helvetica,sans-Serif" font-size="14.00" fill="#000000"> </text>
</g>
<!-- Node143&#45;&gt;Node151 -->
<g id="edge9" class="edge">
<title>Node143&#45;&gt;Node151</title>
<path fill="none" stroke="#191970" d="M611.564,-252.8066C607.0049,-239.233 602.1223,-224.6963 597.7647,-211.7225"/>
<polygon fill="none" stroke="#191970" points="608.3125,-254.1187 614.8144,-262.4839 614.9482,-251.8899 608.3125,-254.1187"/>
</g>
<!-- Node152 -->
<g id="node10" class="node">
<title>Node152</title>
<g id="a_node10"><a xlink:title="STL class. ">
<polygon fill="none" stroke="#bfbfbf" points="669.4551,-131.5 669.4551,-211.5 799.0547,-211.5 799.0547,-131.5 669.4551,-131.5"/>
<text text-anchor="start" x="677.4551" y="-196.3" font-family="Helvetica,sans-Serif" font-size="14.00" fill="#000000">std::basic_fstream</text>
<text text-anchor="middle" x="734.2549" y="-182.3" font-family="Helvetica,sans-Serif" font-size="14.00" fill="#000000">&lt; Char &gt;</text>
<polyline fill="none" stroke="#bfbfbf" points="669.4551,-175.5 799.0547,-175.5 "/>
<text text-anchor="middle" x="734.2549" y="-160.3" font-family="Helvetica,sans-Serif" font-size="14.00" fill="#000000"> </text>
<polyline fill="none" stroke="#bfbfbf" points="669.4551,-153.5 799.0547,-153.5 "/>
<text text-anchor="middle" x="734.2549" y="-138.3" font-family="Helvetica,sans-Serif" font-size="14.00" fill="#000000"> </text>
</a>
</g>
</g>
<!-- Node143&#45;&gt;Node152 -->
<g id="edge10" class="edge">
<title>Node143&#45;&gt;Node152</title>
<path fill="none" stroke="#191970" d="M667.1889,-254.3834C678.5325,-240.3644 690.8028,-225.2002 701.7084,-211.7225"/>
<polygon fill="none" stroke="#191970" points="664.2038,-252.5084 660.6343,-262.4839 669.6455,-256.9116 664.2038,-252.5084"/>
</g>
<!-- Node157 -->
<g id="node15" class="node">
<title>Node157</title>
<g id="a_node15"><a xlink:title="STL class. ">
<polygon fill="none" stroke="#bfbfbf" points="817.2827,-131.5 817.2827,-211.5 977.2271,-211.5 977.2271,-131.5 817.2827,-131.5"/>
<text text-anchor="start" x="825.2827" y="-196.3" font-family="Helvetica,sans-Serif" font-size="14.00" fill="#000000">std::basic_stringstream</text>
<text text-anchor="middle" x="897.2549" y="-182.3" font-family="Helvetica,sans-Serif" font-size="14.00" fill="#000000">&lt; Char &gt;</text>
<polyline fill="none" stroke="#bfbfbf" points="817.2827,-175.5 977.2271,-175.5 "/>
<text text-anchor="middle" x="897.2549" y="-160.3" font-family="Helvetica,sans-Serif" font-size="14.00" fill="#000000"> </text>
<polyline fill="none" stroke="#bfbfbf" points="817.2827,-153.5 977.2271,-153.5 "/>
<text text-anchor="middle" x="897.2549" y="-138.3" font-family="Helvetica,sans-Serif" font-size="14.00" fill="#000000"> </text>
</a>
</g>
</g>
<!-- Node143&#45;&gt;Node157 -->
<g id="edge15" class="edge">
<title>Node143&#45;&gt;Node157</title>
<path fill="none" stroke="#191970" d="M705.9989,-264.6395C740.7835,-247.6998 781.7702,-227.7398 816.8606,-210.6511"/>
<polygon fill="none" stroke="#191970" points="704.2891,-261.5791 696.831,-269.1042 707.354,-267.8726 704.2891,-261.5791"/>
</g>
<!-- Node162 -->
<g id="node20" class="node">
<title>Node162</title>
<polygon fill="none" stroke="#bfbfbf" points="994.9517,-131.5 994.9517,-211.5 1131.5581,-211.5 1131.5581,-131.5 994.9517,-131.5"/>
<text text-anchor="start" x="1002.9517" y="-196.3" font-family="Helvetica,sans-Serif" font-size="14.00" fill="#000000">std::basic_iostream</text>
<text text-anchor="middle" x="1063.2549" y="-182.3" font-family="Helvetica,sans-Serif" font-size="14.00" fill="#000000">&lt; wchar_t &gt;</text>
<polyline fill="none" stroke="#bfbfbf" points="994.9517,-175.5 1131.5581,-175.5 "/>
<text text-anchor="middle" x="1063.2549" y="-160.3" font-family="Helvetica,sans-Serif" font-size="14.00" fill="#000000"> </text>
<polyline fill="none" stroke="#bfbfbf" points="994.9517,-153.5 1131.5581,-153.5 "/>
<text text-anchor="middle" x="1063.2549" y="-138.3" font-family="Helvetica,sans-Serif" font-size="14.00" fill="#000000"> </text>
</g>
<!-- Node143&#45;&gt;Node162 -->
<g id="edge20" class="edge">
<title>Node143&#45;&gt;Node162</title>
<path fill="none" stroke="#ffa500" d="M706.8261,-288.2173C780.4772,-273.5338 892.9171,-247.7636 986.2549,-212 989.0758,-210.9191 991.9259,-209.76 994.7834,-208.5413"/>
<polygon fill="#ffa500" stroke="#ffa500" points="705.8306,-284.8461 696.6971,-290.2155 707.1854,-291.7138 705.8306,-284.8461"/>
<text text-anchor="middle" x="967.7754" y="-232.8" font-family="Helvetica,sans-Serif" font-size="14.00" fill="#000000"> &lt; wchar_t &gt;</text>
</g>
<!-- Node163 -->
<g id="node21" class="node">
<title>Node163</title>
<polygon fill="none" stroke="#bfbfbf" points="1149.9517,-131.5 1149.9517,-211.5 1286.5581,-211.5 1286.5581,-131.5 1149.9517,-131.5"/>
<text text-anchor="start" x="1157.9517" y="-196.3" font-family="Helvetica,sans-Serif" font-size="14.00" fill="#000000">std::basic_iostream</text>
<text text-anchor="middle" x="1218.2549" y="-182.3" font-family="Helvetica,sans-Serif" font-size="14.00" fill="#000000">&lt; char &gt;</text>
<polyline fill="none" stroke="#bfbfbf" points="1149.9517,-175.5 1286.5581,-175.5 "/>
<text text-anchor="middle" x="1218.2549" y="-160.3" font-family="Helvetica,sans-Serif" font-size="14.00" fill="#000000"> </text>
<polyline fill="none" stroke="#bfbfbf" points="1149.9517,-153.5 1286.5581,-153.5 "/>
<text text-anchor="middle" x="1218.2549" y="-138.3" font-family="Helvetica,sans-Serif" font-size="14.00" fill="#000000"> </text>
</g>
<!-- Node143&#45;&gt;Node163 -->
<g id="edge21" class="edge">
<title>Node143&#45;&gt;Node163</title>
<path fill="none" stroke="#ffa500" d="M706.9112,-297.6324C809.5097,-289.2729 993.2466,-267.3569 1140.2549,-212 1143.3964,-210.8171 1146.574,-209.5383 1149.7582,-208.189"/>
<polygon fill="#ffa500" stroke="#ffa500" points="706.3248,-294.1678 696.6324,-298.4466 706.8775,-301.146 706.3248,-294.1678"/>
<text text-anchor="middle" x="1113.8823" y="-232.8" font-family="Helvetica,sans-Serif" font-size="14.00" fill="#000000"> &lt; char &gt;</text>
</g>
<!-- Node144 -->
<g id="node2" class="node">
<title>Node144</title>
<g id="a_node2"><a xlink:title="STL class. ">
<polygon fill="none" stroke="#bfbfbf" points="489.8447,-380.5 489.8447,-460.5 618.665,-460.5 618.665,-380.5 489.8447,-380.5"/>
<text text-anchor="start" x="497.8447" y="-445.3" font-family="Helvetica,sans-Serif" font-size="14.00" fill="#000000">std::basic_istream</text>
<text text-anchor="middle" x="554.2549" y="-431.3" font-family="Helvetica,sans-Serif" font-size="14.00" fill="#000000">&lt; Char &gt;</text>
<polyline fill="none" stroke="#bfbfbf" points="489.8447,-424.5 618.665,-424.5 "/>
<text text-anchor="middle" x="554.2549" y="-409.3" font-family="Helvetica,sans-Serif" font-size="14.00" fill="#000000"> </text>
<polyline fill="none" stroke="#bfbfbf" points="489.8447,-402.5 618.665,-402.5 "/>
<text text-anchor="middle" x="554.2549" y="-387.3" font-family="Helvetica,sans-Serif" font-size="14.00" fill="#000000"> </text>
</a>
</g>
</g>
<!-- Node144&#45;&gt;Node143 -->
<g id="edge1" class="edge">
<title>Node144&#45;&gt;Node143</title>
<path fill="none" stroke="#191970" d="M584.9755,-371.5131C591.0131,-361.8856 597.2805,-351.8916 603.1091,-342.5973"/>
<polygon fill="none" stroke="#191970" points="581.8623,-369.8897 579.5145,-380.2211 587.7926,-373.6087 581.8623,-369.8897"/>
</g>
<!-- Node145 -->
<g id="node3" class="node">
<title>Node145</title>
<g id="a_node3"><a xlink:title="STL class. ">
<polygon fill="none" stroke="#bfbfbf" points="550.6069,-498.5 550.6069,-564.5 705.9028,-564.5 705.9028,-498.5 550.6069,-498.5"/>
<text text-anchor="middle" x="628.2549" y="-549.3" font-family="Helvetica,sans-Serif" font-size="14.00" fill="#000000">std::basic_ios&lt; Char &gt;</text>
<polyline fill="none" stroke="#bfbfbf" points="550.6069,-542.5 705.9028,-542.5 "/>
<text text-anchor="middle" x="628.2549" y="-527.3" font-family="Helvetica,sans-Serif" font-size="14.00" fill="#000000"> </text>
<polyline fill="none" stroke="#bfbfbf" points="550.6069,-520.5 705.9028,-520.5 "/>
<text text-anchor="middle" x="628.2549" y="-505.3" font-family="Helvetica,sans-Serif" font-size="14.00" fill="#000000"> </text>
</a>
</g>
</g>
<!-- Node145&#45;&gt;Node144 -->
<g id="edge2" class="edge">
<title>Node145&#45;&gt;Node144</title>
<path fill="none" stroke="#191970" d="M600.5227,-489.9018C594.1369,-480.3231 587.3574,-470.1538 581.0139,-460.6385"/>
<polygon fill="none" stroke="#191970" points="597.7936,-492.1178 606.2528,-498.4969 603.6179,-488.2349 597.7936,-492.1178"/>
</g>
<!-- Node147 -->
<g id="node5" class="node">
<title>Node147</title>
<g id="a_node5"><a xlink:title="STL class. ">
<polygon fill="none" stroke="#bfbfbf" points="636.5068,-380.5 636.5068,-460.5 770.0029,-460.5 770.0029,-380.5 636.5068,-380.5"/>
<text text-anchor="start" x="644.5068" y="-445.3" font-family="Helvetica,sans-Serif" font-size="14.00" fill="#000000">std::basic_ostream</text>
<text text-anchor="middle" x="703.2549" y="-431.3" font-family="Helvetica,sans-Serif" font-size="14.00" fill="#000000">&lt; Char &gt;</text>
<polyline fill="none" stroke="#bfbfbf" points="636.5068,-424.5 770.0029,-424.5 "/>
<text text-anchor="middle" x="703.2549" y="-409.3" font-family="Helvetica,sans-Serif" font-size="14.00" fill="#000000"> </text>
<polyline fill="none" stroke="#bfbfbf" points="636.5068,-402.5 770.0029,-402.5 "/>
<text text-anchor="middle" x="703.2549" y="-387.3" font-family="Helvetica,sans-Serif" font-size="14.00" fill="#000000"> </text>
</a>
</g>
</g>
<!-- Node145&#45;&gt;Node147 -->
<g id="edge5" class="edge">
<title>Node145&#45;&gt;Node147</title>
<path fill="none" stroke="#191970" d="M656.1638,-490.1948C662.6936,-480.5307 669.6394,-470.2509 676.1343,-460.6385"/>
<polygon fill="none" stroke="#191970" points="653.2528,-488.2514 650.5543,-498.4969 659.053,-492.1705 653.2528,-488.2514"/>
</g>
<!-- Node146 -->
<g id="node4" class="node">
<title>Node146</title>
<g id="a_node4"><a xlink:title="STL class. ">
<polygon fill="none" stroke="#bfbfbf" points="579.0068,-602.5 579.0068,-668.5 677.5029,-668.5 677.5029,-602.5 579.0068,-602.5"/>
<text text-anchor="middle" x="628.2549" y="-653.3" font-family="Helvetica,sans-Serif" font-size="14.00" fill="#000000">std::ios_base</text>
<polyline fill="none" stroke="#bfbfbf" points="579.0068,-646.5 677.5029,-646.5 "/>
<text text-anchor="middle" x="628.2549" y="-631.3" font-family="Helvetica,sans-Serif" font-size="14.00" fill="#000000"> </text>
<polyline fill="none" stroke="#bfbfbf" points="579.0068,-624.5 677.5029,-624.5 "/>
<text text-anchor="middle" x="628.2549" y="-609.3" font-family="Helvetica,sans-Serif" font-size="14.00" fill="#000000"> </text>
</a>
</g>
</g>
<!-- Node146&#45;&gt;Node145 -->
<g id="edge3" class="edge">
<title>Node146&#45;&gt;Node145</title>
<path fill="none" stroke="#191970" d="M628.2549,-592.1737C628.2549,-583.0025 628.2549,-573.4608 628.2549,-564.7336"/>
<polygon fill="none" stroke="#191970" points="624.755,-592.3078 628.2549,-602.3078 631.755,-592.3078 624.755,-592.3078"/>
</g>
<!-- Node147&#45;&gt;Node143 -->
<g id="edge4" class="edge">
<title>Node147&#45;&gt;Node143</title>
<path fill="none" stroke="#191970" d="M672.1191,-371.5131C665.9999,-361.8856 659.6478,-351.8916 653.7405,-342.5973"/>
<polygon fill="none" stroke="#191970" points="669.3359,-373.659 677.6539,-380.2211 675.2436,-369.9041 669.3359,-373.659"/>
</g>
<!-- Node153 -->
<g id="node11" class="node">
<title>Node153</title>
<g id="a_node11"><a xlink:title="STL class. ">
<polygon fill="none" stroke="#bfbfbf" points="181.0068,-7.5 181.0068,-73.5 321.5029,-73.5 321.5029,-7.5 181.0068,-7.5"/>
<text text-anchor="middle" x="251.2549" y="-58.3" font-family="Helvetica,sans-Serif" font-size="14.00" fill="#000000">std::fstream&lt; char &gt;</text>
<polyline fill="none" stroke="#bfbfbf" points="181.0068,-51.5 321.5029,-51.5 "/>
<text text-anchor="middle" x="251.2549" y="-36.3" font-family="Helvetica,sans-Serif" font-size="14.00" fill="#000000"> </text>
<polyline fill="none" stroke="#bfbfbf" points="181.0068,-29.5 321.5029,-29.5 "/>
<text text-anchor="middle" x="251.2549" y="-14.3" font-family="Helvetica,sans-Serif" font-size="14.00" fill="#000000"> </text>
</a>
</g>
</g>
<!-- Node152&#45;&gt;Node153 -->
<g id="edge11" class="edge">
<title>Node152&#45;&gt;Node153</title>
<path fill="none" stroke="#191970" d="M659.9074,-131.4272C575.7458,-106.9818 398.1549,-102.9036 330.2549,-81 323.8009,-78.918 317.2317,-76.3553 310.7775,-73.5386"/>
<polygon fill="none" stroke="#191970" points="658.8629,-134.7676 669.4523,-134.429 660.963,-128.0901 658.8629,-134.7676"/>
</g>
<!-- Node154 -->
<g id="node12" class="node">
<title>Node154</title>
<g id="a_node12"><a xlink:title="STL class. ">
<polygon fill="none" stroke="#bfbfbf" points="339.0586,-7.5 339.0586,-73.5 511.4512,-73.5 511.4512,-7.5 339.0586,-7.5"/>
<text text-anchor="middle" x="425.2549" y="-58.3" font-family="Helvetica,sans-Serif" font-size="14.00" fill="#000000">std::wfstream&lt; wchar_t &gt;</text>
<polyline fill="none" stroke="#bfbfbf" points="339.0586,-51.5 511.4512,-51.5 "/>
<text text-anchor="middle" x="425.2549" y="-36.3" font-family="Helvetica,sans-Serif" font-size="14.00" fill="#000000"> </text>
<polyline fill="none" stroke="#bfbfbf" points="339.0586,-29.5 511.4512,-29.5 "/>
<text text-anchor="middle" x="425.2549" y="-14.3" font-family="Helvetica,sans-Serif" font-size="14.00" fill="#000000"> </text>
</a>
</g>
</g>
<!-- Node152&#45;&gt;Node154 -->
<g id="edge12" class="edge">
<title>Node152&#45;&gt;Node154</title>
<path fill="none" stroke="#191970" d="M659.7648,-130.9715C598.1761,-103.9952 578.8989,-103.9488 520.2549,-81 514.1607,-78.6152 507.8731,-76.0871 501.5711,-73.5051"/>
<polygon fill="none" stroke="#191970" points="658.6089,-134.2879 669.1684,-135.153 661.4531,-127.8918 658.6089,-134.2879"/>
</g>
<!-- Node155 -->
<g id="node13" class="node">
<title>Node155</title>
<polygon fill="none" stroke="#bfbfbf" points="529.4551,-.5 529.4551,-80.5 659.0547,-80.5 659.0547,-.5 529.4551,-.5"/>
<text text-anchor="start" x="537.4551" y="-65.3" font-family="Helvetica,sans-Serif" font-size="14.00" fill="#000000">std::basic_fstream</text>
<text text-anchor="middle" x="594.2549" y="-51.3" font-family="Helvetica,sans-Serif" font-size="14.00" fill="#000000">&lt; wchar_t &gt;</text>
<polyline fill="none" stroke="#bfbfbf" points="529.4551,-44.5 659.0547,-44.5 "/>
<text text-anchor="middle" x="594.2549" y="-29.3" font-family="Helvetica,sans-Serif" font-size="14.00" fill="#000000"> </text>
<polyline fill="none" stroke="#bfbfbf" points="529.4551,-22.5 659.0547,-22.5 "/>
<text text-anchor="middle" x="594.2549" y="-7.3" font-family="Helvetica,sans-Serif" font-size="14.00" fill="#000000"> </text>
</g>
<!-- Node152&#45;&gt;Node155 -->
<g id="edge13" class="edge">
<title>Node152&#45;&gt;Node155</title>
<path fill="none" stroke="#ffa500" d="M669.6908,-124.9089C665.0288,-121.0003 660.4861,-117.0076 656.2139,-113 645.708,-103.145 635.187,-91.6151 625.8744,-80.6868"/>
<polygon fill="#ffa500" stroke="#ffa500" points="667.6658,-127.7743 677.6226,-131.3954 672.0972,-122.3555 667.6658,-127.7743"/>
<text text-anchor="middle" x="693.7754" y="-101.8" font-family="Helvetica,sans-Serif" font-size="14.00" fill="#000000"> &lt; wchar_t &gt;</text>
</g>
<!-- Node156 -->
<g id="node14" class="node">
<title>Node156</title>
<polygon fill="none" stroke="#bfbfbf" points="677.4551,-.5 677.4551,-80.5 807.0547,-80.5 807.0547,-.5 677.4551,-.5"/>
<text text-anchor="start" x="685.4551" y="-65.3" font-family="Helvetica,sans-Serif" font-size="14.00" fill="#000000">std::basic_fstream</text>
<text text-anchor="middle" x="742.2549" y="-51.3" font-family="Helvetica,sans-Serif" font-size="14.00" fill="#000000">&lt; char &gt;</text>
<polyline fill="none" stroke="#bfbfbf" points="677.4551,-44.5 807.0547,-44.5 "/>
<text text-anchor="middle" x="742.2549" y="-29.3" font-family="Helvetica,sans-Serif" font-size="14.00" fill="#000000"> </text>
<polyline fill="none" stroke="#bfbfbf" points="677.4551,-22.5 807.0547,-22.5 "/>
<text text-anchor="middle" x="742.2549" y="-7.3" font-family="Helvetica,sans-Serif" font-size="14.00" fill="#000000"> </text>
</g>
<!-- Node152&#45;&gt;Node156 -->
<g id="edge14" class="edge">
<title>Node152&#45;&gt;Node156</title>
<path fill="none" stroke="#ffa500" d="M737.3138,-121.4109C738.1357,-107.9509 739.0139,-93.5704 739.7985,-80.7225"/>
<polygon fill="#ffa500" stroke="#ffa500" points="733.8148,-121.2891 736.6986,-131.4839 740.8018,-121.7158 733.8148,-121.2891"/>
<text text-anchor="middle" x="765.8823" y="-101.8" font-family="Helvetica,sans-Serif" font-size="14.00" fill="#000000"> &lt; char &gt;</text>
</g>
<!-- Node158 -->
<g id="node16" class="node">
<title>Node158</title>
<g id="a_node16"><a xlink:title="STL class. ">
<polygon fill="none" stroke="#bfbfbf" points="825.4292,-.5 825.4292,-80.5 953.0806,-80.5 953.0806,-.5 825.4292,-.5"/>
<text text-anchor="start" x="833.4292" y="-65.3" font-family="Helvetica,sans-Serif" font-size="14.00" fill="#000000">std::stringstream&lt;</text>
<text text-anchor="middle" x="889.2549" y="-51.3" font-family="Helvetica,sans-Serif" font-size="14.00" fill="#000000"> char &gt;</text>
<polyline fill="none" stroke="#bfbfbf" points="825.4292,-44.5 953.0806,-44.5 "/>
<text text-anchor="middle" x="889.2549" y="-29.3" font-family="Helvetica,sans-Serif" font-size="14.00" fill="#000000"> </text>
<polyline fill="none" stroke="#bfbfbf" points="825.4292,-22.5 953.0806,-22.5 "/>
<text text-anchor="middle" x="889.2549" y="-7.3" font-family="Helvetica,sans-Serif" font-size="14.00" fill="#000000"> </text>
</a>
</g>
</g>
<!-- Node157&#45;&gt;Node158 -->
<g id="edge16" class="edge">
<title>Node157&#45;&gt;Node158</title>
<path fill="none" stroke="#191970" d="M894.196,-121.4109C893.374,-107.9509 892.4958,-93.5704 891.7112,-80.7225"/>
<polygon fill="none" stroke="#191970" points="890.708,-121.7158 894.8111,-131.4839 897.695,-121.2891 890.708,-121.7158"/>
</g>
<!-- Node159 -->
<g id="node17" class="node">
<title>Node159</title>
<g id="a_node17"><a xlink:title="STL class. ">
<polygon fill="none" stroke="#bfbfbf" points="971.4619,-.5 971.4619,-80.5 1101.0479,-80.5 1101.0479,-.5 971.4619,-.5"/>
<text text-anchor="start" x="979.4619" y="-65.3" font-family="Helvetica,sans-Serif" font-size="14.00" fill="#000000">std::wstringstream</text>
<text text-anchor="middle" x="1036.2549" y="-51.3" font-family="Helvetica,sans-Serif" font-size="14.00" fill="#000000">&lt; wchar_t &gt;</text>
<polyline fill="none" stroke="#bfbfbf" points="971.4619,-44.5 1101.0479,-44.5 "/>
<text text-anchor="middle" x="1036.2549" y="-29.3" font-family="Helvetica,sans-Serif" font-size="14.00" fill="#000000"> </text>
<polyline fill="none" stroke="#bfbfbf" points="971.4619,-22.5 1101.0479,-22.5 "/>
<text text-anchor="middle" x="1036.2549" y="-7.3" font-family="Helvetica,sans-Serif" font-size="14.00" fill="#000000"> </text>
</a>
</g>
</g>
<!-- Node157&#45;&gt;Node159 -->
<g id="edge17" class="edge">
<title>Node157&#45;&gt;Node159</title>
<path fill="none" stroke="#191970" d="M947.0616,-124.5598C962.2813,-110.2161 978.8744,-94.578 993.5761,-80.7225"/>
<polygon fill="none" stroke="#191970" points="944.5917,-122.0782 939.7147,-131.4839 949.3927,-127.1724 944.5917,-122.0782"/>
</g>
<!-- Node160 -->
<g id="node18" class="node">
<title>Node160</title>
<polygon fill="none" stroke="#bfbfbf" points="1119.2827,-.5 1119.2827,-80.5 1279.2271,-80.5 1279.2271,-.5 1119.2827,-.5"/>
<text text-anchor="start" x="1127.2827" y="-65.3" font-family="Helvetica,sans-Serif" font-size="14.00" fill="#000000">std::basic_stringstream</text>
<text text-anchor="middle" x="1199.2549" y="-51.3" font-family="Helvetica,sans-Serif" font-size="14.00" fill="#000000">&lt; wchar_t &gt;</text>
<polyline fill="none" stroke="#bfbfbf" points="1119.2827,-44.5 1279.2271,-44.5 "/>
<text text-anchor="middle" x="1199.2549" y="-29.3" font-family="Helvetica,sans-Serif" font-size="14.00" fill="#000000"> </text>
<polyline fill="none" stroke="#bfbfbf" points="1119.2827,-22.5 1279.2271,-22.5 "/>
<text text-anchor="middle" x="1199.2549" y="-7.3" font-family="Helvetica,sans-Serif" font-size="14.00" fill="#000000"> </text>
</g>
<!-- Node157&#45;&gt;Node160 -->
<g id="edge18" class="edge">
<title>Node157&#45;&gt;Node160</title>
<path fill="none" stroke="#ffa500" d="M986.5626,-130.9231C1042.47,-107.2046 1058.4165,-103.2334 1110.2549,-81 1113.2192,-79.7286 1116.2337,-78.4229 1119.2747,-77.0949"/>
<polygon fill="#ffa500" stroke="#ffa500" points="985.0578,-127.7598 977.2351,-134.9051 987.8063,-134.1977 985.0578,-127.7598"/>
<text text-anchor="middle" x="1102.7754" y="-101.8" font-family="Helvetica,sans-Serif" font-size="14.00" fill="#000000"> &lt; wchar_t &gt;</text>
</g>
<!-- Node161 -->
<g id="node19" class="node">
<title>Node161</title>
<polygon fill="none" stroke="#bfbfbf" points="1297.2827,-.5 1297.2827,-80.5 1457.2271,-80.5 1457.2271,-.5 1297.2827,-.5"/>
<text text-anchor="start" x="1305.2827" y="-65.3" font-family="Helvetica,sans-Serif" font-size="14.00" fill="#000000">std::basic_stringstream</text>
<text text-anchor="middle" x="1377.2549" y="-51.3" font-family="Helvetica,sans-Serif" font-size="14.00" fill="#000000">&lt; char &gt;</text>
<polyline fill="none" stroke="#bfbfbf" points="1297.2827,-44.5 1457.2271,-44.5 "/>
<text text-anchor="middle" x="1377.2549" y="-29.3" font-family="Helvetica,sans-Serif" font-size="14.00" fill="#000000"> </text>
<polyline fill="none" stroke="#bfbfbf" points="1297.2827,-22.5 1457.2271,-22.5 "/>
<text text-anchor="middle" x="1377.2549" y="-7.3" font-family="Helvetica,sans-Serif" font-size="14.00" fill="#000000"> </text>
</g>
<!-- Node157&#45;&gt;Node161 -->
<g id="edge19" class="edge">
<title>Node157&#45;&gt;Node161</title>
<path fill="none" stroke="#ffa500" d="M987.0347,-131.0804C1056.6368,-113.0881 1078.1332,-124.2759 1145.2549,-113 1209.4823,-102.2103 1226.5078,-101.7093 1288.2549,-81 1291.152,-80.0284 1294.0816,-78.9931 1297.025,-77.908"/>
<polygon fill="#ffa500" stroke="#ffa500" points="986.1066,-127.7056 977.3603,-133.6851 987.9264,-134.4649 986.1066,-127.7056"/>
<text text-anchor="middle" x="1251.8823" y="-101.8" font-family="Helvetica,sans-Serif" font-size="14.00" fill="#000000"> &lt; char &gt;</text>
</g>
</g>
</svg>
