<?xml version="1.0" encoding="UTF-8" standalone="no"?>
<!DOCTYPE svg PUBLIC "-//W3C//DTD SVG 1.1//EN"
 "http://www.w3.org/Graphics/SVG/1.1/DTD/svg11.dtd">
<!-- Generated by graphviz version 2.40.1 (20161225.0304)
 -->
<!-- Title: Core/ibasegameelement.h Pages: 1 -->
<svg width="2241pt" height="326pt"
 viewBox="0.00 0.00 2241.37 326.00" xmlns="http://www.w3.org/2000/svg" xmlns:xlink="http://www.w3.org/1999/xlink">
<g id="graph0" class="graph" transform="scale(1 1) rotate(0) translate(4 322)">
<title>Core/ibasegameelement.h</title>
<!-- Node206 -->
<g id="node1" class="node">
<title>Node206</title>
<polygon fill="#bfbfbf" stroke="#000000" points="1491.1343,-295.5 1491.1343,-317.5 1671.3403,-317.5 1671.3403,-295.5 1491.1343,-295.5"/>
<text text-anchor="middle" x="1581.2373" y="-302.3" font-family="Helvetica,sans-Serif" font-size="14.00" fill="#000000">Core/ibasegameelement.h</text>
</g>
<!-- Node207 -->
<g id="node2" class="node">
<title>Node207</title>
<g id="a_node2"><a xlink:href="$d1/d70/simpleconnection_8h.html" xlink:title="Core/connection/simpleconnection.h">
<polygon fill="none" stroke="#000000" points="286.3931,-236.5 286.3931,-258.5 528.0815,-258.5 528.0815,-236.5 286.3931,-236.5"/>
<text text-anchor="middle" x="407.2373" y="-243.3" font-family="Helvetica,sans-Serif" font-size="14.00" fill="#000000">Core/connection/simpleconnection.h</text>
</a>
</g>
</g>
<!-- Node206&#45;&gt;Node207 -->
<g id="edge1" class="edge">
<title>Node206&#45;&gt;Node207</title>
<path fill="none" stroke="#191970" d="M1481.0442,-301.4647C1265.9581,-290.6555 760.7238,-265.2647 528.2173,-253.5799"/>
<polygon fill="#191970" stroke="#191970" points="1480.9018,-304.9619 1491.0649,-301.9683 1481.2532,-297.9707 1480.9018,-304.9619"/>
</g>
<!-- Node212 -->
<g id="node7" class="node">
<title>Node212</title>
<g id="a_node7"><a xlink:href="$d2/d35/mailboxelement_8h.html" xlink:title="Core/connection/mailboxelement.h">
<polygon fill="none" stroke="#000000" points="513.4551,-177.5 513.4551,-199.5 745.0195,-199.5 745.0195,-177.5 513.4551,-177.5"/>
<text text-anchor="middle" x="629.2373" y="-184.3" font-family="Helvetica,sans-Serif" font-size="14.00" fill="#000000">Core/connection/mailboxelement.h</text>
</a>
</g>
</g>
<!-- Node206&#45;&gt;Node212 -->
<g id="edge40" class="edge">
<title>Node206&#45;&gt;Node212</title>
<path fill="none" stroke="#191970" d="M1480.8986,-304.9076C1348.9984,-301.561 1110.4334,-291.1826 909.2373,-259 819.8915,-244.7086 717.3394,-215.5222 664.6209,-199.5499"/>
<polygon fill="#191970" stroke="#191970" points="1480.9049,-308.4087 1490.9877,-305.1551 1481.0766,-301.4108 1480.9049,-308.4087"/>
</g>
<!-- Node220 -->
<g id="node15" class="node">
<title>Node220</title>
<g id="a_node15"><a xlink:href="$d2/d78/basebasis_8h.html" xlink:title="Core/GameElements/basebasis.h">
<polygon fill="none" stroke="#000000" points="918.5757,-236.5 918.5757,-258.5 1143.8989,-258.5 1143.8989,-236.5 918.5757,-236.5"/>
<text text-anchor="middle" x="1031.2373" y="-243.3" font-family="Helvetica,sans-Serif" font-size="14.00" fill="#000000">Core/GameElements/basebasis.h</text>
</a>
</g>
</g>
<!-- Node206&#45;&gt;Node220 -->
<g id="edge17" class="edge">
<title>Node206&#45;&gt;Node220</title>
<path fill="none" stroke="#191970" d="M1481.0838,-295.7563C1382.7384,-285.2065 1233.4177,-269.1884 1134.1367,-258.5383"/>
<polygon fill="#191970" stroke="#191970" points="1480.7156,-299.2368 1491.0319,-296.8234 1481.4623,-292.2767 1480.7156,-299.2368"/>
</g>
<!-- Node222 -->
<g id="node17" class="node">
<title>Node222</title>
<g id="a_node17"><a xlink:href="$d3/da1/basebulet_8h.html" xlink:title="Core/GameElements/basebulet.h">
<polygon fill="none" stroke="#000000" points="1311.7378,-236.5 1311.7378,-258.5 1534.7368,-258.5 1534.7368,-236.5 1311.7378,-236.5"/>
<text text-anchor="middle" x="1423.2373" y="-243.3" font-family="Helvetica,sans-Serif" font-size="14.00" fill="#000000">Core/GameElements/basebulet.h</text>
</a>
</g>
</g>
<!-- Node206&#45;&gt;Node222 -->
<g id="edge20" class="edge">
<title>Node206&#45;&gt;Node222</title>
<path fill="none" stroke="#191970" d="M1542.1467,-291.9029C1514.5161,-281.5851 1478.0518,-267.9687 1452.8226,-258.5477"/>
<polygon fill="#191970" stroke="#191970" points="1540.9261,-295.1831 1551.5187,-295.4026 1543.375,-288.6254 1540.9261,-295.1831"/>
</g>
<!-- Node224 -->
<g id="node19" class="node">
<title>Node224</title>
<g id="a_node19"><a xlink:href="$d4/dfd/basetank_8h.html" xlink:title="Core/GameElements/basetank.h">
<polygon fill="none" stroke="#000000" points="1314.686,-177.5 1314.686,-199.5 1533.7886,-199.5 1533.7886,-177.5 1314.686,-177.5"/>
<text text-anchor="middle" x="1424.2373" y="-184.3" font-family="Helvetica,sans-Serif" font-size="14.00" fill="#000000">Core/GameElements/basetank.h</text>
</a>
</g>
</g>
<!-- Node206&#45;&gt;Node224 -->
<g id="edge25" class="edge">
<title>Node206&#45;&gt;Node224</title>
<path fill="none" stroke="#191970" d="M1574.4414,-285.6775C1568.426,-270.1444 1558.2475,-249.3818 1543.2373,-236 1523.3952,-218.3105 1496.1475,-206.7856 1472.7317,-199.5246"/>
<polygon fill="#191970" stroke="#191970" points="1571.2739,-287.213 1577.949,-295.4407 1577.8617,-284.8462 1571.2739,-287.213"/>
</g>
<!-- Node226 -->
<g id="node21" class="node">
<title>Node226</title>
<g id="a_node21"><a xlink:href="$db/d59/ibasegameelement_8cpp.html" xlink:title="Core/ibasegameelement.cpp">
<polygon fill="none" stroke="#000000" points="1887.7412,-236.5 1887.7412,-258.5 2082.7334,-258.5 2082.7334,-236.5 1887.7412,-236.5"/>
<text text-anchor="middle" x="1985.2373" y="-243.3" font-family="Helvetica,sans-Serif" font-size="14.00" fill="#000000">Core/ibasegameelement.cpp</text>
</a>
</g>
</g>
<!-- Node206&#45;&gt;Node226 -->
<g id="edge26" class="edge">
<title>Node206&#45;&gt;Node226</title>
<path fill="none" stroke="#191970" d="M1666.7063,-294.0181C1738.7057,-283.5034 1840.7229,-268.6048 1909.7501,-258.5241"/>
<polygon fill="#191970" stroke="#191970" points="1666.1419,-290.5633 1656.7527,-295.4718 1667.1535,-297.4899 1666.1419,-290.5633"/>
</g>
<!-- Node227 -->
<g id="node22" class="node">
<title>Node227</title>
<g id="a_node22"><a xlink:href="$d4/dcf/imap_8h.html" xlink:title="Core/imap.h">
<polygon fill="none" stroke="#000000" points="1628.1099,-236.5 1628.1099,-258.5 1720.3647,-258.5 1720.3647,-236.5 1628.1099,-236.5"/>
<text text-anchor="middle" x="1674.2373" y="-243.3" font-family="Helvetica,sans-Serif" font-size="14.00" fill="#000000">Core/imap.h</text>
</a>
</g>
</g>
<!-- Node206&#45;&gt;Node227 -->
<g id="edge27" class="edge">
<title>Node206&#45;&gt;Node227</title>
<path fill="none" stroke="#191970" d="M1607.5058,-289.835C1623.2933,-279.8193 1642.9458,-267.3516 1656.8232,-258.5477"/>
<polygon fill="#191970" stroke="#191970" points="1605.299,-287.0901 1598.7299,-295.4026 1609.049,-293.0009 1605.299,-287.0901"/>
</g>
<!-- Node231 -->
<g id="node26" class="node">
<title>Node231</title>
<g id="a_node26"><a xlink:href="$d8/d03/mapiniter_8h.html" xlink:title="Server/mapiniter.h">
<polygon fill="none" stroke="#000000" points="1566.4307,-118.5 1566.4307,-140.5 1696.0439,-140.5 1696.0439,-118.5 1566.4307,-118.5"/>
<text text-anchor="middle" x="1631.2373" y="-125.3" font-family="Helvetica,sans-Serif" font-size="14.00" fill="#000000">Server/mapiniter.h</text>
</a>
</g>
</g>
<!-- Node206&#45;&gt;Node231 -->
<g id="edge41" class="edge">
<title>Node206&#45;&gt;Node231</title>
<path fill="none" stroke="#191970" d="M1587.1679,-285.5057C1597.8425,-247.7175 1619.9395,-169.4942 1628.1108,-140.568"/>
<polygon fill="#191970" stroke="#191970" points="1583.7154,-284.853 1584.365,-295.4279 1590.4518,-286.7559 1583.7154,-284.853"/>
</g>
<!-- Node233 -->
<g id="node28" class="node">
<title>Node233</title>
<g id="a_node28"><a xlink:href="$dc/d5f/baseutil_8h.html" xlink:title="Core/util/baseutil.h">
<polygon fill="none" stroke="#000000" points="1738.2617,-236.5 1738.2617,-258.5 1870.2129,-258.5 1870.2129,-236.5 1738.2617,-236.5"/>
<text text-anchor="middle" x="1804.2373" y="-243.3" font-family="Helvetica,sans-Serif" font-size="14.00" fill="#000000">Core/util/baseutil.h</text>
</a>
</g>
</g>
<!-- Node206&#45;&gt;Node233 -->
<g id="edge36" class="edge">
<title>Node206&#45;&gt;Node233</title>
<path fill="none" stroke="#191970" d="M1632.6022,-292.9102C1671.9681,-282.495 1725.6037,-268.3044 1762.3807,-258.5742"/>
<polygon fill="#191970" stroke="#191970" points="1631.6924,-289.5304 1622.9203,-295.4718 1633.4829,-296.2975 1631.6924,-289.5304"/>
</g>
<!-- Node234 -->
<g id="node29" class="node">
<title>Node234</title>
<g id="a_node29"><a xlink:href="$d5/d5a/field_8h.html" xlink:title="GameView/field.h">
<polygon fill="none" stroke="#000000" points="2100.502,-236.5 2100.502,-258.5 2225.9727,-258.5 2225.9727,-236.5 2100.502,-236.5"/>
<text text-anchor="middle" x="2163.2373" y="-243.3" font-family="Helvetica,sans-Serif" font-size="14.00" fill="#000000">GameView/field.h</text>
</a>
</g>
</g>
<!-- Node206&#45;&gt;Node234 -->
<g id="edge38" class="edge">
<title>Node206&#45;&gt;Node234</title>
<path fill="none" stroke="#191970" d="M1681.799,-299.0896C1784.8166,-291.0396 1949.505,-276.8997 2091.2373,-259 2094.2514,-258.6193 2097.3331,-258.209 2100.4434,-257.7778"/>
<polygon fill="#191970" stroke="#191970" points="1681.4146,-295.6089 1671.7159,-299.8735 1681.9572,-302.5878 1681.4146,-295.6089"/>
</g>
<!-- Node208 -->
<g id="node3" class="node">
<title>Node208</title>
<g id="a_node3"><a xlink:href="$d2/db5/simpleconnection_8cpp.html" xlink:title="Core/connection/simpleconnection.cpp">
<polygon fill="none" stroke="#000000" points="0,-177.5 0,-199.5 256.4746,-199.5 256.4746,-177.5 0,-177.5"/>
<text text-anchor="middle" x="128.2373" y="-184.3" font-family="Helvetica,sans-Serif" font-size="14.00" fill="#000000">Core/connection/simpleconnection.cpp</text>
</a>
</g>
</g>
<!-- Node207&#45;&gt;Node208 -->
<g id="edge2" class="edge">
<title>Node207&#45;&gt;Node208</title>
<path fill="none" stroke="#191970" d="M345.153,-234.3711C295.7171,-223.9169 227.2998,-209.4487 180.605,-199.5742"/>
<polygon fill="#191970" stroke="#191970" points="344.579,-237.827 355.0868,-236.4718 346.0274,-230.9785 344.579,-237.827"/>
</g>
<!-- Node209 -->
<g id="node4" class="node">
<title>Node209</title>
<g id="a_node4"><a xlink:href="$d9/d53/mainwindow_8h.html" xlink:title="GameView/mainwindow.h">
<polygon fill="none" stroke="#000000" points="319.209,-177.5 319.209,-199.5 495.2656,-199.5 495.2656,-177.5 319.209,-177.5"/>
<text text-anchor="middle" x="407.2373" y="-184.3" font-family="Helvetica,sans-Serif" font-size="14.00" fill="#000000">GameView/mainwindow.h</text>
</a>
</g>
</g>
<!-- Node207&#45;&gt;Node209 -->
<g id="edge3" class="edge">
<title>Node207&#45;&gt;Node209</title>
<path fill="none" stroke="#191970" d="M407.2373,-226.198C407.2373,-217.1726 407.2373,-207.0351 407.2373,-199.5477"/>
<polygon fill="#191970" stroke="#191970" points="403.7374,-226.4025 407.2373,-236.4026 410.7374,-226.4026 403.7374,-226.4025"/>
</g>
<!-- Node207&#45;&gt;Node212 -->
<g id="edge6" class="edge">
<title>Node207&#45;&gt;Node212</title>
<path fill="none" stroke="#191970" d="M458.6211,-233.8439C497.7874,-223.4349 551.0339,-209.2838 587.5684,-199.5742"/>
<polygon fill="#191970" stroke="#191970" points="457.4989,-230.5206 448.7334,-236.4718 459.2969,-237.2858 457.4989,-230.5206"/>
</g>
<!-- Node217 -->
<g id="node12" class="node">
<title>Node217</title>
<g id="a_node12"><a xlink:href="$d7/d0e/serverworker_8cpp.html" xlink:title="Server/serverworker.cpp">
<polygon fill="none" stroke="#000000" points="394.3755,-59.5 394.3755,-81.5 562.0991,-81.5 562.0991,-59.5 394.3755,-59.5"/>
<text text-anchor="middle" x="478.2373" y="-66.3" font-family="Helvetica,sans-Serif" font-size="14.00" fill="#000000">Server/serverworker.cpp</text>
</a>
</g>
</g>
<!-- Node207&#45;&gt;Node217 -->
<g id="edge16" class="edge">
<title>Node207&#45;&gt;Node217</title>
<path fill="none" stroke="#191970" d="M353.6215,-232.4547C337.221,-225.2436 320.7541,-214.8326 310.2373,-200 289.0813,-170.1621 281.0177,-147.0546 303.2373,-118 315.8592,-101.4955 361.9918,-89.3825 403.7215,-81.5203"/>
<polygon fill="#191970" stroke="#191970" points="352.6419,-235.8339 363.2247,-236.3398 355.2672,-229.3448 352.6419,-235.8339"/>
</g>
<!-- Node210 -->
<g id="node5" class="node">
<title>Node210</title>
<g id="a_node5"><a xlink:href="$d8/da0/GameView_2main_8cpp.html" xlink:title="GameView/main.cpp">
<polygon fill="none" stroke="#000000" points="520.7778,-118.5 520.7778,-140.5 665.6968,-140.5 665.6968,-118.5 520.7778,-118.5"/>
<text text-anchor="middle" x="593.2373" y="-125.3" font-family="Helvetica,sans-Serif" font-size="14.00" fill="#000000">GameView/main.cpp</text>
</a>
</g>
</g>
<!-- Node209&#45;&gt;Node210 -->
<g id="edge4" class="edge">
<title>Node209&#45;&gt;Node210</title>
<path fill="none" stroke="#191970" d="M451.9824,-174.3067C484.6556,-163.9426 528.3198,-150.0921 558.409,-140.5477"/>
<polygon fill="#191970" stroke="#191970" points="450.6962,-171.0427 442.2225,-177.4026 452.8127,-177.7151 450.6962,-171.0427"/>
</g>
<!-- Node211 -->
<g id="node6" class="node">
<title>Node211</title>
<g id="a_node6"><a xlink:href="$d8/dd9/mainwindow_8cpp.html" xlink:title="GameView/mainwindow.cpp">
<polygon fill="none" stroke="#000000" points="311.8159,-118.5 311.8159,-140.5 502.6587,-140.5 502.6587,-118.5 311.8159,-118.5"/>
<text text-anchor="middle" x="407.2373" y="-125.3" font-family="Helvetica,sans-Serif" font-size="14.00" fill="#000000">GameView/mainwindow.cpp</text>
</a>
</g>
</g>
<!-- Node209&#45;&gt;Node211 -->
<g id="edge5" class="edge">
<title>Node209&#45;&gt;Node211</title>
<path fill="none" stroke="#191970" d="M407.2373,-167.198C407.2373,-158.1726 407.2373,-148.0351 407.2373,-140.5477"/>
<polygon fill="#191970" stroke="#191970" points="403.7374,-167.4025 407.2373,-177.4026 410.7374,-167.4026 403.7374,-167.4025"/>
</g>
<!-- Node213 -->
<g id="node8" class="node">
<title>Node213</title>
<g id="a_node8"><a xlink:href="$d8/dfb/serverworker_8h.html" xlink:title="Server/serverworker.h">
<polygon fill="none" stroke="#000000" points="683.7686,-118.5 683.7686,-140.5 836.7061,-140.5 836.7061,-118.5 683.7686,-118.5"/>
<text text-anchor="middle" x="760.2373" y="-125.3" font-family="Helvetica,sans-Serif" font-size="14.00" fill="#000000">Server/serverworker.h</text>
</a>
</g>
</g>
<!-- Node212&#45;&gt;Node213 -->
<g id="edge7" class="edge">
<title>Node212&#45;&gt;Node213</title>
<path fill="none" stroke="#191970" d="M663.1587,-173.2224C685.8726,-162.9925 715.2466,-149.763 735.7077,-140.5477"/>
<polygon fill="#191970" stroke="#191970" points="661.558,-170.1047 653.8774,-177.4026 664.4326,-176.4872 661.558,-170.1047"/>
</g>
<!-- Node214 -->
<g id="node9" class="node">
<title>Node214</title>
<g id="a_node9"><a xlink:href="$dd/d06/serverconnection_8h.html" xlink:title="Server/serverconnection.h">
<polygon fill="none" stroke="#000000" points="774.5308,-59.5 774.5308,-81.5 953.9438,-81.5 953.9438,-59.5 774.5308,-59.5"/>
<text text-anchor="middle" x="864.2373" y="-66.3" font-family="Helvetica,sans-Serif" font-size="14.00" fill="#000000">Server/serverconnection.h</text>
</a>
</g>
</g>
<!-- Node212&#45;&gt;Node214 -->
<g id="edge12" class="edge">
<title>Node212&#45;&gt;Node214</title>
<path fill="none" stroke="#191970" d="M733.8233,-175.8965C780.4717,-168.2403 828.6401,-156.8383 845.2373,-141 861.6529,-125.3351 864.4015,-97.1086 864.5699,-81.5459"/>
<polygon fill="#191970" stroke="#191970" points="733.2303,-172.4467 723.904,-177.4736 734.3296,-179.3599 733.2303,-172.4467"/>
</g>
<!-- Node218 -->
<g id="node13" class="node">
<title>Node218</title>
<g id="a_node13"><a xlink:href="$df/dd1/maingameloop_8h.html" xlink:title="Server/maingameloop.h">
<polygon fill="none" stroke="#000000" points="1111.9204,-118.5 1111.9204,-140.5 1276.5542,-140.5 1276.5542,-118.5 1111.9204,-118.5"/>
<text text-anchor="middle" x="1194.2373" y="-125.3" font-family="Helvetica,sans-Serif" font-size="14.00" fill="#000000">Server/maingameloop.h</text>
</a>
</g>
</g>
<!-- Node212&#45;&gt;Node218 -->
<g id="edge13" class="edge">
<title>Node212&#45;&gt;Node218</title>
<path fill="none" stroke="#191970" d="M744.9112,-176.4208C854.0269,-165.0264 1014.8849,-148.2288 1111.6225,-138.127"/>
<polygon fill="#191970" stroke="#191970" points="744.4291,-172.952 734.8467,-177.4718 745.1562,-179.9141 744.4291,-172.952"/>
</g>
<!-- Node213&#45;&gt;Node214 -->
<g id="edge8" class="edge">
<title>Node213&#45;&gt;Node214</title>
<path fill="none" stroke="#191970" d="M788.6275,-113.394C806.4439,-103.2867 828.9546,-90.5162 844.7634,-81.5477"/>
<polygon fill="#191970" stroke="#191970" points="786.7697,-110.4239 779.7989,-118.4026 790.2238,-116.5124 786.7697,-110.4239"/>
</g>
<!-- Node213&#45;&gt;Node217 -->
<g id="edge11" class="edge">
<title>Node213&#45;&gt;Node217</title>
<path fill="none" stroke="#191970" d="M697.4854,-116.3711C647.518,-105.9169 578.365,-91.4487 531.1681,-81.5742"/>
<polygon fill="#191970" stroke="#191970" points="697.0212,-119.8497 707.5261,-118.4718 698.4548,-112.998 697.0212,-119.8497"/>
</g>
<!-- Node215 -->
<g id="node10" class="node">
<title>Node215</title>
<g id="a_node10"><a xlink:href="$d6/dda/Server_2main_8cpp.html" xlink:title="Server/main.cpp">
<polygon fill="none" stroke="#000000" points="985.272,-.5 985.272,-22.5 1103.2026,-22.5 1103.2026,-.5 985.272,-.5"/>
<text text-anchor="middle" x="1044.2373" y="-7.3" font-family="Helvetica,sans-Serif" font-size="14.00" fill="#000000">Server/main.cpp</text>
</a>
</g>
</g>
<!-- Node214&#45;&gt;Node215 -->
<g id="edge9" class="edge">
<title>Node214&#45;&gt;Node215</title>
<path fill="none" stroke="#191970" d="M907.9485,-56.1725C939.5222,-45.8233 981.5394,-32.051 1010.5325,-22.5477"/>
<polygon fill="#191970" stroke="#191970" points="906.5063,-52.9619 898.0939,-59.4026 908.6867,-59.6137 906.5063,-52.9619"/>
</g>
<!-- Node216 -->
<g id="node11" class="node">
<title>Node216</title>
<g id="a_node11"><a xlink:href="$d2/d44/serverconnection_8cpp.html" xlink:title="Server/serverconnection.cpp">
<polygon fill="none" stroke="#000000" points="767.1377,-.5 767.1377,-22.5 961.3369,-22.5 961.3369,-.5 767.1377,-.5"/>
<text text-anchor="middle" x="864.2373" y="-7.3" font-family="Helvetica,sans-Serif" font-size="14.00" fill="#000000">Server/serverconnection.cpp</text>
</a>
</g>
</g>
<!-- Node214&#45;&gt;Node216 -->
<g id="edge10" class="edge">
<title>Node214&#45;&gt;Node216</title>
<path fill="none" stroke="#191970" d="M864.2373,-49.198C864.2373,-40.1726 864.2373,-30.0351 864.2373,-22.5477"/>
<polygon fill="#191970" stroke="#191970" points="860.7374,-49.4025 864.2373,-59.4026 867.7374,-49.4026 860.7374,-49.4025"/>
</g>
<!-- Node218&#45;&gt;Node215 -->
<g id="edge14" class="edge">
<title>Node218&#45;&gt;Node215</title>
<path fill="none" stroke="#191970" d="M1172.0057,-112.0111C1140.7211,-87.4006 1084.6074,-43.2578 1058.4207,-22.6576"/>
<polygon fill="#191970" stroke="#191970" points="1170.1021,-114.9668 1180.1257,-118.3988 1174.4301,-109.4651 1170.1021,-114.9668"/>
</g>
<!-- Node219 -->
<g id="node14" class="node">
<title>Node219</title>
<g id="a_node14"><a xlink:href="$dd/d30/maingameloop_8cpp.html" xlink:title="Server/maingameloop.cpp">
<polygon fill="none" stroke="#000000" points="1175.5273,-59.5 1175.5273,-81.5 1354.9473,-81.5 1354.9473,-59.5 1175.5273,-59.5"/>
<text text-anchor="middle" x="1265.2373" y="-66.3" font-family="Helvetica,sans-Serif" font-size="14.00" fill="#000000">Server/maingameloop.cpp</text>
</a>
</g>
</g>
<!-- Node218&#45;&gt;Node219 -->
<g id="edge15" class="edge">
<title>Node218&#45;&gt;Node219</title>
<path fill="none" stroke="#191970" d="M1215.3124,-111.9869C1227.1824,-102.1231 1241.6451,-90.1048 1251.9426,-81.5477"/>
<polygon fill="#191970" stroke="#191970" points="1213.046,-109.3194 1207.5919,-118.4026 1217.5199,-114.7032 1213.046,-109.3194"/>
</g>
<!-- Node220&#45;&gt;Node218 -->
<g id="edge19" class="edge">
<title>Node220&#45;&gt;Node218</title>
<path fill="none" stroke="#191970" d="M1031.7856,-226.1908C1033.2961,-210.6896 1037.7588,-190.1893 1050.2373,-177 1063.4446,-163.0404 1108.4242,-149.5538 1144.6401,-140.5411"/>
<polygon fill="#191970" stroke="#191970" points="1028.277,-226.2166 1031.1352,-236.4186 1035.2629,-226.6609 1028.277,-226.2166"/>
</g>
<!-- Node221 -->
<g id="node16" class="node">
<title>Node221</title>
<g id="a_node16"><a xlink:href="$d7/d29/basebasis_8cpp.html" xlink:title="Core/GameElements/basebasis.cpp">
<polygon fill="none" stroke="#000000" points="763.1826,-177.5 763.1826,-199.5 1003.292,-199.5 1003.292,-177.5 763.1826,-177.5"/>
<text text-anchor="middle" x="883.2373" y="-184.3" font-family="Helvetica,sans-Serif" font-size="14.00" fill="#000000">Core/GameElements/basebasis.cpp</text>
</a>
</g>
</g>
<!-- Node220&#45;&gt;Node221 -->
<g id="edge18" class="edge">
<title>Node220&#45;&gt;Node221</title>
<path fill="none" stroke="#191970" d="M993.9408,-232.6318C968.1431,-222.3476 934.3761,-208.8864 910.9501,-199.5477"/>
<polygon fill="#191970" stroke="#191970" points="992.8144,-235.9506 1003.3996,-236.4026 995.4066,-229.4482 992.8144,-235.9506"/>
</g>
<!-- Node223 -->
<g id="node18" class="node">
<title>Node223</title>
<g id="a_node18"><a xlink:href="$d8/d0d/basebulet_8cpp.html" xlink:title="Core/GameElements/basebulet.cpp">
<polygon fill="none" stroke="#000000" points="1059.3447,-177.5 1059.3447,-199.5 1297.1299,-199.5 1297.1299,-177.5 1059.3447,-177.5"/>
<text text-anchor="middle" x="1178.2373" y="-184.3" font-family="Helvetica,sans-Serif" font-size="14.00" fill="#000000">Core/GameElements/basebulet.cpp</text>
</a>
</g>
</g>
<!-- Node222&#45;&gt;Node223 -->
<g id="edge21" class="edge">
<title>Node222&#45;&gt;Node223</title>
<path fill="none" stroke="#191970" d="M1367.6278,-234.1083C1324.3053,-223.6756 1264.8853,-209.3662 1224.2233,-199.5742"/>
<polygon fill="#191970" stroke="#191970" points="1366.9006,-237.5332 1377.4421,-236.4718 1368.5395,-230.7277 1366.9006,-237.5332"/>
</g>
<!-- Node222&#45;&gt;Node224 -->
<g id="edge22" class="edge">
<title>Node222&#45;&gt;Node224</title>
<path fill="none" stroke="#191970" d="M1423.5984,-226.198C1423.7513,-217.1726 1423.9231,-207.0351 1424.0501,-199.5477"/>
<polygon fill="#191970" stroke="#191970" points="1420.0955,-226.3446 1423.4254,-236.4026 1427.0945,-226.4633 1420.0955,-226.3446"/>
</g>
<!-- Node224&#45;&gt;Node218 -->
<g id="edge24" class="edge">
<title>Node224&#45;&gt;Node218</title>
<path fill="none" stroke="#191970" d="M1371.5179,-174.9763C1330.8929,-164.5551 1275.4196,-150.325 1237.4078,-140.5742"/>
<polygon fill="#191970" stroke="#191970" points="1370.6898,-178.3772 1381.2459,-177.4718 1372.4292,-171.5967 1370.6898,-178.3772"/>
</g>
<!-- Node225 -->
<g id="node20" class="node">
<title>Node225</title>
<g id="a_node20"><a xlink:href="$d7/dc8/basetank_8cpp.html" xlink:title="Core/GameElements/basetank.cpp">
<polygon fill="none" stroke="#000000" points="1307.293,-118.5 1307.293,-140.5 1541.1816,-140.5 1541.1816,-118.5 1307.293,-118.5"/>
<text text-anchor="middle" x="1424.2373" y="-125.3" font-family="Helvetica,sans-Serif" font-size="14.00" fill="#000000">Core/GameElements/basetank.cpp</text>
</a>
</g>
</g>
<!-- Node224&#45;&gt;Node225 -->
<g id="edge23" class="edge">
<title>Node224&#45;&gt;Node225</title>
<path fill="none" stroke="#191970" d="M1424.2373,-167.198C1424.2373,-158.1726 1424.2373,-148.0351 1424.2373,-140.5477"/>
<polygon fill="#191970" stroke="#191970" points="1420.7374,-167.4025 1424.2373,-177.4026 1427.7374,-167.4026 1420.7374,-167.4025"/>
</g>
<!-- Node227&#45;&gt;Node218 -->
<g id="edge34" class="edge">
<title>Node227&#45;&gt;Node218</title>
<path fill="none" stroke="#191970" d="M1649.5157,-230.6825C1624.0435,-214.2214 1582.6111,-189.8078 1543.2373,-177 1518.451,-168.9373 1371.8725,-150.5445 1276.7275,-139.158"/>
<polygon fill="#191970" stroke="#191970" points="1647.8651,-233.7858 1658.1447,-236.3511 1651.7084,-227.9353 1647.8651,-233.7858"/>
</g>
<!-- Node228 -->
<g id="node23" class="node">
<title>Node228</title>
<g id="a_node23"><a xlink:href="$db/df5/imap_8cpp.html" xlink:title="Core/imap.cpp">
<polygon fill="none" stroke="#000000" points="1666.7168,-177.5 1666.7168,-199.5 1773.7578,-199.5 1773.7578,-177.5 1666.7168,-177.5"/>
<text text-anchor="middle" x="1720.2373" y="-184.3" font-family="Helvetica,sans-Serif" font-size="14.00" fill="#000000">Core/imap.cpp</text>
</a>
</g>
</g>
<!-- Node227&#45;&gt;Node228 -->
<g id="edge28" class="edge">
<title>Node227&#45;&gt;Node228</title>
<path fill="none" stroke="#191970" d="M1689.2385,-228.2593C1696.6542,-218.7479 1705.3371,-207.6111 1711.6239,-199.5477"/>
<polygon fill="#191970" stroke="#191970" points="1686.278,-226.3642 1682.8896,-236.4026 1691.7985,-230.6683 1686.278,-226.3642"/>
</g>
<!-- Node229 -->
<g id="node24" class="node">
<title>Node229</title>
<g id="a_node24"><a xlink:href="$d2/d06/listbsemap_8h.html" xlink:title="Core/maps/listbsemap.h">
<polygon fill="none" stroke="#000000" points="1791.7617,-177.5 1791.7617,-199.5 1958.7129,-199.5 1958.7129,-177.5 1791.7617,-177.5"/>
<text text-anchor="middle" x="1875.2373" y="-184.3" font-family="Helvetica,sans-Serif" font-size="14.00" fill="#000000">Core/maps/listbsemap.h</text>
</a>
</g>
</g>
<!-- Node227&#45;&gt;Node229 -->
<g id="edge29" class="edge">
<title>Node227&#45;&gt;Node229</title>
<path fill="none" stroke="#191970" d="M1721.6804,-233.5739C1757.0844,-223.1817 1804.8042,-209.1744 1837.6003,-199.5477"/>
<polygon fill="#191970" stroke="#191970" points="1720.6532,-230.2277 1712.0439,-236.4026 1722.6248,-236.9443 1720.6532,-230.2277"/>
</g>
<!-- Node227&#45;&gt;Node231 -->
<g id="edge35" class="edge">
<title>Node227&#45;&gt;Node231</title>
<path fill="none" stroke="#191970" d="M1666.5873,-226.507C1657.4312,-201.3811 1642.4406,-160.2438 1635.2851,-140.6078"/>
<polygon fill="#191970" stroke="#191970" points="1663.4019,-227.9884 1670.1143,-236.1857 1669.9789,-225.5917 1663.4019,-227.9884"/>
</g>
<!-- Node230 -->
<g id="node25" class="node">
<title>Node230</title>
<g id="a_node25"><a xlink:href="$d1/ddf/listbsemap_8cpp.html" xlink:title="Core/maps/listbsemap.cpp">
<polygon fill="none" stroke="#000000" points="1839.3687,-118.5 1839.3687,-140.5 2021.106,-140.5 2021.106,-118.5 1839.3687,-118.5"/>
<text text-anchor="middle" x="1930.2373" y="-125.3" font-family="Helvetica,sans-Serif" font-size="14.00" fill="#000000">Core/maps/listbsemap.cpp</text>
</a>
</g>
</g>
<!-- Node229&#45;&gt;Node230 -->
<g id="edge30" class="edge">
<title>Node229&#45;&gt;Node230</title>
<path fill="none" stroke="#191970" d="M1892.6326,-169.8395C1901.6152,-160.2037 1912.2685,-148.7756 1919.9386,-140.5477"/>
<polygon fill="#191970" stroke="#191970" points="1889.841,-167.7013 1885.5824,-177.4026 1894.9613,-172.4744 1889.841,-167.7013"/>
</g>
<!-- Node229&#45;&gt;Node231 -->
<g id="edge31" class="edge">
<title>Node229&#45;&gt;Node231</title>
<path fill="none" stroke="#191970" d="M1819.8548,-175.1083C1776.7091,-164.6756 1717.5316,-150.3662 1677.0356,-140.5742"/>
<polygon fill="#191970" stroke="#191970" points="1819.0865,-178.5233 1829.629,-177.4718 1820.7318,-171.7194 1819.0865,-178.5233"/>
</g>
<!-- Node231&#45;&gt;Node219 -->
<g id="edge32" class="edge">
<title>Node231&#45;&gt;Node219</title>
<path fill="none" stroke="#191970" d="M1555.9961,-117.371C1490.6803,-106.8419 1396.9162,-91.7269 1333.6795,-81.533"/>
<polygon fill="#191970" stroke="#191970" points="1555.796,-120.8838 1566.2256,-119.02 1556.9101,-113.973 1555.796,-120.8838"/>
</g>
<!-- Node232 -->
<g id="node27" class="node">
<title>Node232</title>
<g id="a_node27"><a xlink:href="$d5/d55/mapiniter_8cpp.html" xlink:title="Server/mapiniter.cpp">
<polygon fill="none" stroke="#000000" points="1559.0376,-59.5 1559.0376,-81.5 1703.437,-81.5 1703.437,-59.5 1559.0376,-59.5"/>
<text text-anchor="middle" x="1631.2373" y="-66.3" font-family="Helvetica,sans-Serif" font-size="14.00" fill="#000000">Server/mapiniter.cpp</text>
</a>
</g>
</g>
<!-- Node231&#45;&gt;Node232 -->
<g id="edge33" class="edge">
<title>Node231&#45;&gt;Node232</title>
<path fill="none" stroke="#191970" d="M1631.2373,-108.198C1631.2373,-99.1726 1631.2373,-89.0351 1631.2373,-81.5477"/>
<polygon fill="#191970" stroke="#191970" points="1627.7374,-108.4025 1631.2373,-118.4026 1634.7374,-108.4026 1627.7374,-108.4025"/>
</g>
<!-- Node233&#45;&gt;Node230 -->
<g id="edge37" class="edge">
<title>Node233&#45;&gt;Node230</title>
<path fill="none" stroke="#191970" d="M1880.466,-234.3721C1917.4453,-226.2919 1956.2366,-214.664 1967.2373,-200 1981.6706,-180.7603 1959.3905,-155.1054 1943.6365,-140.6441"/>
<polygon fill="#191970" stroke="#191970" points="1879.6775,-230.9614 1870.617,-236.453 1881.1245,-237.8102 1879.6775,-230.9614"/>
</g>
<!-- Node235 -->
<g id="node30" class="node">
<title>Node235</title>
<g id="a_node30"><a xlink:href="$d4/dd0/field_8cpp.html" xlink:title="GameView/field.cpp">
<polygon fill="none" stroke="#000000" points="2093.1089,-177.5 2093.1089,-199.5 2233.3657,-199.5 2233.3657,-177.5 2093.1089,-177.5"/>
<text text-anchor="middle" x="2163.2373" y="-184.3" font-family="Helvetica,sans-Serif" font-size="14.00" fill="#000000">GameView/field.cpp</text>
</a>
</g>
</g>
<!-- Node234&#45;&gt;Node235 -->
<g id="edge39" class="edge">
<title>Node234&#45;&gt;Node235</title>
<path fill="none" stroke="#191970" d="M2163.2373,-226.198C2163.2373,-217.1726 2163.2373,-207.0351 2163.2373,-199.5477"/>
<polygon fill="#191970" stroke="#191970" points="2159.7374,-226.4025 2163.2373,-236.4026 2166.7374,-226.4026 2159.7374,-226.4025"/>
</g>
</g>
</svg>
