<?xml version="1.0" encoding="UTF-8" standalone="no"?>
<!DOCTYPE svg PUBLIC "-//W3C//DTD SVG 1.1//EN"
 "http://www.w3.org/Graphics/SVG/1.1/DTD/svg11.dtd">
<!-- Generated by graphviz version 2.40.1 (20161225.0304)
 -->
<!-- Title: Core/GameElements/basebulet.h Pages: 1 -->
<svg width="654pt" height="208pt"
 viewBox="0.00 0.00 653.60 208.00" xmlns="http://www.w3.org/2000/svg" xmlns:xlink="http://www.w3.org/1999/xlink">
<g id="graph0" class="graph" transform="scale(1 1) rotate(0) translate(4 204)">
<title>Core/GameElements/basebulet.h</title>
<!-- Node10 -->
<g id="node1" class="node">
<title>Node10</title>
<polygon fill="#bfbfbf" stroke="#000000" points="130.3931,-177.5 130.3931,-199.5 353.3921,-199.5 353.3921,-177.5 130.3931,-177.5"/>
<text text-anchor="middle" x="241.8926" y="-184.3" font-family="Helvetica,sans-Serif" font-size="14.00" fill="#000000">Core/GameElements/basebulet.h</text>
</g>
<!-- Node11 -->
<g id="node2" class="node">
<title>Node11</title>
<g id="a_node2"><a xlink:href="$d8/d0d/basebulet_8cpp.html" xlink:title="Core/GameElements/basebulet.cpp">
<polygon fill="none" stroke="#000000" points="0,-118.5 0,-140.5 237.7852,-140.5 237.7852,-118.5 0,-118.5"/>
<text text-anchor="middle" x="118.8926" y="-125.3" font-family="Helvetica,sans-Serif" font-size="14.00" fill="#000000">Core/GameElements/basebulet.cpp</text>
</a>
</g>
</g>
<!-- Node10&#45;&gt;Node11 -->
<g id="edge1" class="edge">
<title>Node10&#45;&gt;Node11</title>
<path fill="none" stroke="#191970" d="M209.4699,-172.9477C188.2241,-162.7566 160.9643,-149.6807 141.9242,-140.5477"/>
<polygon fill="#191970" stroke="#191970" points="208.2271,-176.2333 218.7572,-177.4026 211.2546,-169.9218 208.2271,-176.2333"/>
</g>
<!-- Node12 -->
<g id="node3" class="node">
<title>Node12</title>
<g id="a_node3"><a xlink:href="$d4/dfd/basetank_8h.html" xlink:title="Core/GameElements/basetank.h">
<polygon fill="none" stroke="#000000" points="255.3413,-118.5 255.3413,-140.5 474.4438,-140.5 474.4438,-118.5 255.3413,-118.5"/>
<text text-anchor="middle" x="364.8926" y="-125.3" font-family="Helvetica,sans-Serif" font-size="14.00" fill="#000000">Core/GameElements/basetank.h</text>
</a>
</g>
</g>
<!-- Node10&#45;&gt;Node12 -->
<g id="edge2" class="edge">
<title>Node10&#45;&gt;Node12</title>
<path fill="none" stroke="#191970" d="M274.3152,-172.9477C295.5611,-162.7566 322.8209,-149.6807 341.861,-140.5477"/>
<polygon fill="#191970" stroke="#191970" points="272.5306,-169.9218 265.0279,-177.4026 275.5581,-176.2333 272.5306,-169.9218"/>
</g>
<!-- Node13 -->
<g id="node4" class="node">
<title>Node13</title>
<g id="a_node4"><a xlink:href="$d7/dc8/basetank_8cpp.html" xlink:title="Core/GameElements/basetank.cpp">
<polygon fill="none" stroke="#000000" points="138.9482,-59.5 138.9482,-81.5 372.8369,-81.5 372.8369,-59.5 138.9482,-59.5"/>
<text text-anchor="middle" x="255.8926" y="-66.3" font-family="Helvetica,sans-Serif" font-size="14.00" fill="#000000">Core/GameElements/basetank.cpp</text>
</a>
</g>
</g>
<!-- Node12&#45;&gt;Node13 -->
<g id="edge3" class="edge">
<title>Node12&#45;&gt;Node13</title>
<path fill="none" stroke="#191970" d="M335.3942,-113.533C316.6811,-103.4039 292.9476,-90.5573 276.3027,-81.5477"/>
<polygon fill="#191970" stroke="#191970" points="333.9301,-116.7203 344.3905,-118.4026 337.2623,-110.5642 333.9301,-116.7203"/>
</g>
<!-- Node14 -->
<g id="node5" class="node">
<title>Node14</title>
<g id="a_node5"><a xlink:href="$df/dd1/maingameloop_8h.html" xlink:title="Server/maingameloop.h">
<polygon fill="none" stroke="#000000" points="390.5757,-59.5 390.5757,-81.5 555.2095,-81.5 555.2095,-59.5 390.5757,-59.5"/>
<text text-anchor="middle" x="472.8926" y="-66.3" font-family="Helvetica,sans-Serif" font-size="14.00" fill="#000000">Server/maingameloop.h</text>
</a>
</g>
</g>
<!-- Node12&#45;&gt;Node14 -->
<g id="edge4" class="edge">
<title>Node12&#45;&gt;Node14</title>
<path fill="none" stroke="#191970" d="M394.1204,-113.533C412.6617,-103.4039 436.1775,-90.5573 452.6697,-81.5477"/>
<polygon fill="#191970" stroke="#191970" points="392.3044,-110.5367 385.2066,-118.4026 395.6604,-116.6798 392.3044,-110.5367"/>
</g>
<!-- Node15 -->
<g id="node6" class="node">
<title>Node15</title>
<g id="a_node6"><a xlink:href="$d6/dda/Server_2main_8cpp.html" xlink:title="Server/main.cpp">
<polygon fill="none" stroke="#000000" points="329.9272,-.5 329.9272,-22.5 447.8579,-22.5 447.8579,-.5 329.9272,-.5"/>
<text text-anchor="middle" x="388.8926" y="-7.3" font-family="Helvetica,sans-Serif" font-size="14.00" fill="#000000">Server/main.cpp</text>
</a>
</g>
</g>
<!-- Node14&#45;&gt;Node15 -->
<g id="edge5" class="edge">
<title>Node14&#45;&gt;Node15</title>
<path fill="none" stroke="#191970" d="M448.7655,-53.5536C434.5752,-43.5866 417.0387,-31.2693 404.6215,-22.5477"/>
<polygon fill="#191970" stroke="#191970" points="446.8979,-56.5189 457.0928,-59.4026 450.9214,-50.7907 446.8979,-56.5189"/>
</g>
<!-- Node16 -->
<g id="node7" class="node">
<title>Node16</title>
<g id="a_node7"><a xlink:href="$dd/d30/maingameloop_8cpp.html" xlink:title="Server/maingameloop.cpp">
<polygon fill="none" stroke="#000000" points="466.1826,-.5 466.1826,-22.5 645.6025,-22.5 645.6025,-.5 466.1826,-.5"/>
<text text-anchor="middle" x="555.8926" y="-7.3" font-family="Helvetica,sans-Serif" font-size="14.00" fill="#000000">Server/maingameloop.cpp</text>
</a>
</g>
</g>
<!-- Node14&#45;&gt;Node16 -->
<g id="edge6" class="edge">
<title>Node14&#45;&gt;Node16</title>
<path fill="none" stroke="#191970" d="M496.7325,-53.5536C510.7538,-43.5866 528.0815,-31.2693 540.3509,-22.5477"/>
<polygon fill="#191970" stroke="#191970" points="494.627,-50.756 488.5042,-59.4026 498.6827,-56.4614 494.627,-50.756"/>
</g>
</g>
</svg>
