<?xml version="1.0" encoding="UTF-8" standalone="no"?>
<!DOCTYPE svg PUBLIC "-//W3C//DTD SVG 1.1//EN"
 "http://www.w3.org/Graphics/SVG/1.1/DTD/svg11.dtd">
<!-- Generated by graphviz version 2.40.1 (20161225.0304)
 -->
<!-- Title: Core/connection/simpleconnection.cpp Pages: 1 -->
<svg width="754pt" height="267pt"
 viewBox="0.00 0.00 753.85 267.00" xmlns="http://www.w3.org/2000/svg" xmlns:xlink="http://www.w3.org/1999/xlink">
<g id="graph0" class="graph" transform="scale(1 1) rotate(0) translate(4 263)">
<title>Core/connection/simpleconnection.cpp</title>
<!-- Node0 -->
<g id="node1" class="node">
<title>Node0</title>
<polygon fill="#bfbfbf" stroke="#000000" points="396.9143,-236.5 396.9143,-258.5 653.3889,-258.5 653.3889,-236.5 396.9143,-236.5"/>
<text text-anchor="middle" x="525.1516" y="-243.3" font-family="Helvetica,sans-Serif" font-size="14.00" fill="#000000">Core/connection/simpleconnection.cpp</text>
</g>
<!-- Node1 -->
<g id="node2" class="node">
<title>Node1</title>
<g id="a_node2"><a xlink:href="../../d4/dee/a00008.html" target="_top" xlink:title="simpleconnection.h">
<polygon fill="none" stroke="#000000" points="204.2278,-177.5 204.2278,-199.5 340.0754,-199.5 340.0754,-177.5 204.2278,-177.5"/>
<text text-anchor="middle" x="272.1516" y="-184.3" font-family="Helvetica,sans-Serif" font-size="14.00" fill="#000000">simpleconnection.h</text>
</a>
</g>
</g>
<!-- Node0&#45;&gt;Node1 -->
<g id="edge1" class="edge">
<title>Node0&#45;&gt;Node1</title>
<path fill="none" stroke="#191970" d="M477.861,-236.4718C435.8438,-226.6733 374.3177,-212.3253 329.5044,-201.8748"/>
<polygon fill="#191970" stroke="#191970" points="330.1728,-198.4368 319.6392,-199.5742 328.583,-205.2539 330.1728,-198.4368"/>
</g>
<!-- Node15 -->
<g id="node16" class="node">
<title>Node15</title>
<g id="a_node16"><a xlink:href="../../db/db2/a00020.html" target="_top" xlink:title="../coreconst.h">
<polygon fill="none" stroke="#000000" points="475.1311,-177.5 475.1311,-199.5 575.1721,-199.5 575.1721,-177.5 475.1311,-177.5"/>
<text text-anchor="middle" x="525.1516" y="-184.3" font-family="Helvetica,sans-Serif" font-size="14.00" fill="#000000">../coreconst.h</text>
</a>
</g>
</g>
<!-- Node0&#45;&gt;Node15 -->
<g id="edge18" class="edge">
<title>Node0&#45;&gt;Node15</title>
<path fill="none" stroke="#191970" d="M525.1516,-236.4026C525.1516,-228.9034 525.1516,-218.7626 525.1516,-209.7421"/>
<polygon fill="#191970" stroke="#191970" points="528.6517,-209.5477 525.1516,-199.5477 521.6517,-209.5477 528.6517,-209.5477"/>
</g>
<!-- Node17 -->
<g id="node18" class="node">
<title>Node17</title>
<polygon fill="none" stroke="#bfbfbf" points="592.8586,-177.5 592.8586,-199.5 687.4446,-199.5 687.4446,-177.5 592.8586,-177.5"/>
<text text-anchor="middle" x="640.1516" y="-184.3" font-family="Helvetica,sans-Serif" font-size="14.00" fill="#000000">QMetaEnum</text>
</g>
<!-- Node0&#45;&gt;Node17 -->
<g id="edge20" class="edge">
<title>Node0&#45;&gt;Node17</title>
<path fill="none" stroke="#191970" d="M546.7822,-236.4026C564.5314,-227.2964 589.8728,-214.2952 609.6773,-204.1346"/>
<polygon fill="#191970" stroke="#191970" points="611.3183,-207.2266 618.618,-199.5477 608.1229,-200.9984 611.3183,-207.2266"/>
</g>
<!-- Node2 -->
<g id="node3" class="node">
<title>Node2</title>
<polygon fill="none" stroke="#bfbfbf" points="501.6345,-118.5 501.6345,-140.5 608.6687,-140.5 608.6687,-118.5 501.6345,-118.5"/>
<text text-anchor="middle" x="555.1516" y="-125.3" font-family="Helvetica,sans-Serif" font-size="14.00" fill="#000000">QHostAddress</text>
</g>
<!-- Node1&#45;&gt;Node2 -->
<g id="edge2" class="edge">
<title>Node1&#45;&gt;Node2</title>
<path fill="none" stroke="#191970" d="M325.0497,-177.4718C372.3455,-167.6115 441.7393,-153.1443 491.9436,-142.6776"/>
<polygon fill="#191970" stroke="#191970" points="492.9579,-146.0415 502.0331,-140.5742 491.5292,-139.1889 492.9579,-146.0415"/>
</g>
<!-- Node3 -->
<g id="node4" class="node">
<title>Node3</title>
<polygon fill="none" stroke="#bfbfbf" points="62.4758,-59.5 62.4758,-81.5 129.8274,-81.5 129.8274,-59.5 62.4758,-59.5"/>
<text text-anchor="middle" x="96.1516" y="-66.3" font-family="Helvetica,sans-Serif" font-size="14.00" fill="#000000">QObject</text>
</g>
<!-- Node1&#45;&gt;Node3 -->
<g id="edge3" class="edge">
<title>Node1&#45;&gt;Node3</title>
<path fill="none" stroke="#191970" d="M280.3667,-177.2577C290.2631,-162.2214 303.9425,-135.4386 290.1516,-118 249.0224,-65.9919 209.1659,-96.1509 140.0071,-82.1694"/>
<polygon fill="#191970" stroke="#191970" points="140.5797,-78.71 130.0509,-79.8904 139.0178,-85.5335 140.5797,-78.71"/>
</g>
<!-- Node4 -->
<g id="node5" class="node">
<title>Node4</title>
<polygon fill="none" stroke="#bfbfbf" points="13.5276,-118.5 13.5276,-140.5 84.7756,-140.5 84.7756,-118.5 13.5276,-118.5"/>
<text text-anchor="middle" x="49.1516" y="-125.3" font-family="Helvetica,sans-Serif" font-size="14.00" fill="#000000">QThread</text>
</g>
<!-- Node1&#45;&gt;Node4 -->
<g id="edge4" class="edge">
<title>Node1&#45;&gt;Node4</title>
<path fill="none" stroke="#191970" d="M230.4686,-177.4718C191.8854,-167.2637 134.639,-152.1177 94.8296,-141.5852"/>
<polygon fill="#191970" stroke="#191970" points="95.6688,-138.1869 85.1062,-139.0126 93.8783,-144.954 95.6688,-138.1869"/>
</g>
<!-- Node5 -->
<g id="node6" class="node">
<title>Node5</title>
<polygon fill="none" stroke="#bfbfbf" points="102.6897,-118.5 102.6897,-140.5 171.6135,-140.5 171.6135,-118.5 102.6897,-118.5"/>
<text text-anchor="middle" x="137.1516" y="-125.3" font-family="Helvetica,sans-Serif" font-size="14.00" fill="#000000">QQueue</text>
</g>
<!-- Node1&#45;&gt;Node5 -->
<g id="edge5" class="edge">
<title>Node1&#45;&gt;Node5</title>
<path fill="none" stroke="#191970" d="M246.7591,-177.4026C225.546,-168.1316 195.0947,-154.8233 171.6698,-144.5857"/>
<polygon fill="#191970" stroke="#191970" points="172.995,-141.3453 162.4302,-140.5477 170.1917,-147.7595 172.995,-141.3453"/>
</g>
<!-- Node6 -->
<g id="node7" class="node">
<title>Node6</title>
<polygon fill="none" stroke="#bfbfbf" points="189.4138,-118.5 189.4138,-140.5 280.8894,-140.5 280.8894,-118.5 189.4138,-118.5"/>
<text text-anchor="middle" x="235.1516" y="-125.3" font-family="Helvetica,sans-Serif" font-size="14.00" fill="#000000">QTcpSocket</text>
</g>
<!-- Node1&#45;&gt;Node6 -->
<g id="edge6" class="edge">
<title>Node1&#45;&gt;Node6</title>
<path fill="none" stroke="#191970" d="M265.1922,-177.4026C260.2309,-169.4914 253.426,-158.6402 247.5472,-149.266"/>
<polygon fill="#191970" stroke="#191970" points="250.3579,-147.1601 242.0798,-140.5477 244.4276,-150.8791 250.3579,-147.1601"/>
</g>
<!-- Node7 -->
<g id="node8" class="node">
<title>Node7</title>
<polygon fill="none" stroke="#bfbfbf" points="557.3586,-.5 557.3586,-22.5 658.9446,-22.5 658.9446,-.5 557.3586,-.5"/>
<text text-anchor="middle" x="608.1516" y="-7.3" font-family="Helvetica,sans-Serif" font-size="14.00" fill="#000000">QDataStream</text>
</g>
<!-- Node1&#45;&gt;Node7 -->
<g id="edge7" class="edge">
<title>Node1&#45;&gt;Node7</title>
<path fill="none" stroke="#191970" d="M204.1288,-186.0856C133.2897,-181.9712 29.1966,-170.8743 4.1516,-141 -2.4157,-133.1664 .6797,-127.6146 4.1516,-118 15.7287,-85.9399 22.9417,-74.7873 53.1516,-59 96.0664,-36.5733 411.534,-20.1642 546.8226,-14.0837"/>
<polygon fill="#191970" stroke="#191970" points="547.187,-17.5711 557.0214,-13.6296 546.8756,-10.578 547.187,-17.5711"/>
</g>
<!-- Node8 -->
<g id="node9" class="node">
<title>Node8</title>
<g id="a_node9"><a xlink:href="../../d6/d2d/a00047.html" target="_top" xlink:title="ibasegameelement.h">
<polygon fill="none" stroke="#000000" points="337.1658,-118.5 337.1658,-140.5 483.1374,-140.5 483.1374,-118.5 337.1658,-118.5"/>
<text text-anchor="middle" x="410.1516" y="-125.3" font-family="Helvetica,sans-Serif" font-size="14.00" fill="#000000">ibasegameelement.h</text>
</a>
</g>
</g>
<!-- Node1&#45;&gt;Node8 -->
<g id="edge8" class="edge">
<title>Node1&#45;&gt;Node8</title>
<path fill="none" stroke="#191970" d="M298.1083,-177.4026C319.7929,-168.1316 350.9208,-154.8233 374.8663,-144.5857"/>
<polygon fill="#191970" stroke="#191970" points="376.4923,-147.6971 384.3112,-140.5477 373.7404,-141.2607 376.4923,-147.6971"/>
</g>
<!-- Node8&#45;&gt;Node3 -->
<g id="edge9" class="edge">
<title>Node8&#45;&gt;Node3</title>
<path fill="none" stroke="#191970" d="M337.0506,-118.6527C284.5493,-110.4194 211.9243,-98.1296 140.1315,-82.3195"/>
<polygon fill="#191970" stroke="#191970" points="140.5307,-78.8228 130.009,-80.0654 139.0091,-85.6554 140.5307,-78.8228"/>
</g>
<!-- Node8&#45;&gt;Node7 -->
<g id="edge14" class="edge">
<title>Node8&#45;&gt;Node7</title>
<path fill="none" stroke="#191970" d="M479.6395,-118.4169C523.0144,-110.1453 573.4912,-97.6 589.1516,-82 602.0152,-69.186 606.4321,-48.6411 607.8274,-33.0276"/>
<polygon fill="#191970" stroke="#191970" points="611.3402,-32.8862 608.387,-22.7113 604.3504,-32.507 611.3402,-32.8862"/>
</g>
<!-- Node9 -->
<g id="node10" class="node">
<title>Node9</title>
<g id="a_node10"><a xlink:href="../../d3/d8b/a00059.html" target="_top" xlink:title="infinitydouble.h">
<polygon fill="none" stroke="#000000" points="636.4519,-59.5 636.4519,-81.5 745.8513,-81.5 745.8513,-59.5 636.4519,-59.5"/>
<text text-anchor="middle" x="691.1516" y="-66.3" font-family="Helvetica,sans-Serif" font-size="14.00" fill="#000000">infinitydouble.h</text>
</a>
</g>
</g>
<!-- Node8&#45;&gt;Node9 -->
<g id="edge10" class="edge">
<title>Node8&#45;&gt;Node9</title>
<path fill="none" stroke="#191970" d="M462.6759,-118.4718C509.6374,-108.6115 578.5408,-94.1443 628.3903,-83.6776"/>
<polygon fill="#191970" stroke="#191970" points="629.3411,-87.0544 638.4085,-81.5742 627.9026,-80.2038 629.3411,-87.0544"/>
</g>
<!-- Node10 -->
<g id="node11" class="node">
<title>Node10</title>
<polygon fill="none" stroke="#bfbfbf" points="147.4758,-59.5 147.4758,-81.5 214.8274,-81.5 214.8274,-59.5 147.4758,-59.5"/>
<text text-anchor="middle" x="181.1516" y="-66.3" font-family="Helvetica,sans-Serif" font-size="14.00" fill="#000000">QPointF</text>
</g>
<!-- Node8&#45;&gt;Node10 -->
<g id="edge12" class="edge">
<title>Node8&#45;&gt;Node10</title>
<path fill="none" stroke="#191970" d="M366.1457,-118.4109C330.5699,-109.4124 278.9377,-96.2775 224.7319,-82.1337"/>
<polygon fill="#191970" stroke="#191970" points="225.5032,-78.7178 214.9432,-79.5759 223.7334,-85.4904 225.5032,-78.7178"/>
</g>
<!-- Node11 -->
<g id="node12" class="node">
<title>Node11</title>
<polygon fill="none" stroke="#bfbfbf" points="232.9758,-59.5 232.9758,-81.5 321.3274,-81.5 321.3274,-59.5 232.9758,-59.5"/>
<text text-anchor="middle" x="277.1516" y="-66.3" font-family="Helvetica,sans-Serif" font-size="14.00" fill="#000000">QByteArray</text>
</g>
<!-- Node8&#45;&gt;Node11 -->
<g id="edge13" class="edge">
<title>Node8&#45;&gt;Node11</title>
<path fill="none" stroke="#191970" d="M385.1353,-118.4026C364.3293,-109.1728 334.5028,-95.9415 311.4666,-85.7224"/>
<polygon fill="#191970" stroke="#191970" points="312.6159,-82.4034 302.0557,-81.5477 309.7774,-88.8021 312.6159,-82.4034"/>
</g>
<!-- Node12 -->
<g id="node13" class="node">
<title>Node12</title>
<polygon fill="none" stroke="#bfbfbf" points="339.4206,-59.5 339.4206,-81.5 402.8826,-81.5 402.8826,-59.5 339.4206,-59.5"/>
<text text-anchor="middle" x="371.1516" y="-66.3" font-family="Helvetica,sans-Serif" font-size="14.00" fill="#000000">QString</text>
</g>
<!-- Node8&#45;&gt;Node12 -->
<g id="edge15" class="edge">
<title>Node8&#45;&gt;Node12</title>
<path fill="none" stroke="#191970" d="M402.816,-118.4026C397.5321,-110.4089 390.2641,-99.4138 384.0239,-89.9736"/>
<polygon fill="#191970" stroke="#191970" points="386.8885,-87.9599 378.4543,-81.5477 381.0489,-91.8199 386.8885,-87.9599"/>
</g>
<!-- Node13 -->
<g id="node14" class="node">
<title>Node13</title>
<polygon fill="none" stroke="#bfbfbf" points="420.4079,-59.5 420.4079,-81.5 477.8952,-81.5 477.8952,-59.5 420.4079,-59.5"/>
<text text-anchor="middle" x="449.1516" y="-66.3" font-family="Helvetica,sans-Serif" font-size="14.00" fill="#000000">QTime</text>
</g>
<!-- Node8&#45;&gt;Node13 -->
<g id="edge16" class="edge">
<title>Node8&#45;&gt;Node13</title>
<path fill="none" stroke="#191970" d="M417.4872,-118.4026C422.7711,-110.4089 430.0391,-99.4138 436.2793,-89.9736"/>
<polygon fill="#191970" stroke="#191970" points="439.2543,-91.8199 441.8489,-81.5477 433.4147,-87.9599 439.2543,-91.8199"/>
</g>
<!-- Node14 -->
<g id="node15" class="node">
<title>Node14</title>
<polygon fill="none" stroke="#bfbfbf" points="495.9104,-59.5 495.9104,-81.5 580.3928,-81.5 580.3928,-59.5 495.9104,-59.5"/>
<text text-anchor="middle" x="538.1516" y="-66.3" font-family="Helvetica,sans-Serif" font-size="14.00" fill="#000000">QVector3D</text>
</g>
<!-- Node8&#45;&gt;Node14 -->
<g id="edge17" class="edge">
<title>Node8&#45;&gt;Node14</title>
<path fill="none" stroke="#191970" d="M434.2274,-118.4026C454.1619,-109.214 482.7003,-96.0596 504.8294,-85.8595"/>
<polygon fill="#191970" stroke="#191970" points="506.5672,-88.9124 514.1837,-81.5477 503.6369,-82.5552 506.5672,-88.9124"/>
</g>
<!-- Node9&#45;&gt;Node7 -->
<g id="edge11" class="edge">
<title>Node9&#45;&gt;Node7</title>
<path fill="none" stroke="#191970" d="M675.5399,-59.4026C663.2513,-50.6673 645.9204,-38.3477 631.9116,-28.3896"/>
<polygon fill="#191970" stroke="#191970" points="633.8717,-25.4888 623.6933,-22.5477 629.816,-31.1942 633.8717,-25.4888"/>
</g>
<!-- Node16 -->
<g id="node17" class="node">
<title>Node16</title>
<polygon fill="none" stroke="#bfbfbf" points="626.7619,-118.5 626.7619,-140.5 657.5412,-140.5 657.5412,-118.5 626.7619,-118.5"/>
<text text-anchor="middle" x="642.1516" y="-125.3" font-family="Helvetica,sans-Serif" font-size="14.00" fill="#000000">Qt</text>
</g>
<!-- Node15&#45;&gt;Node16 -->
<g id="edge19" class="edge">
<title>Node15&#45;&gt;Node16</title>
<path fill="none" stroke="#191970" d="M547.1584,-177.4026C567.1592,-167.3167 596.6359,-152.4524 617.4389,-141.962"/>
<polygon fill="#191970" stroke="#191970" points="619.2449,-144.9711 626.5979,-137.3433 616.093,-138.7209 619.2449,-144.9711"/>
</g>
</g>
</svg>
