<?xml version="1.0" encoding="UTF-8" standalone="no"?>
<!DOCTYPE svg PUBLIC "-//W3C//DTD SVG 1.1//EN"
 "http://www.w3.org/Graphics/SVG/1.1/DTD/svg11.dtd">
<!-- Generated by graphviz version 2.40.1 (20161225.0304)
 -->
<!-- Title: Графічна ієрархія класів Pages: 1 -->
<svg width="256pt" height="72pt"
 viewBox="0.00 0.00 256.13 72.00" xmlns="http://www.w3.org/2000/svg" xmlns:xlink="http://www.w3.org/1999/xlink">
<g id="graph0" class="graph" transform="scale(1 1) rotate(0) translate(4 68)">
<title>Графічна ієрархія класів</title>
<!-- Node0 -->
<g id="node1" class="node">
<title>Node0</title>
<g id="a_node1"><a xlink:title="STL class. ">
<polygon fill="none" stroke="#bfbfbf" points="0,-13.5 0,-49.5 125.334,-49.5 125.334,-13.5 0,-13.5"/>
<text text-anchor="start" x="8" y="-34.3" font-family="Helvetica,sans-Serif" font-size="14.00" fill="#000000">std::basic_string&lt;</text>
<text text-anchor="middle" x="62.667" y="-20.3" font-family="Helvetica,sans-Serif" font-size="14.00" fill="#000000"> Char &gt;</text>
</a>
</g>
</g>
<!-- Node1 -->
<g id="node2" class="node">
<title>Node1</title>
<g id="a_node2"><a xlink:title="STL class. ">
<polygon fill="none" stroke="#bfbfbf" points="166.3892,-41.5 166.3892,-63.5 243.0786,-63.5 243.0786,-41.5 166.3892,-41.5"/>
<text text-anchor="middle" x="204.7339" y="-48.3" font-family="Helvetica,sans-Serif" font-size="14.00" fill="#000000">std::string</text>
</a>
</g>
</g>
<!-- Node0&#45;&gt;Node1 -->
<g id="edge1" class="edge">
<title>Node0&#45;&gt;Node1</title>
<path fill="none" stroke="#191970" d="M135.4829,-42.2635C146.0216,-43.8213 156.5079,-45.3713 166.0132,-46.7764"/>
<polygon fill="#191970" stroke="#191970" points="135.7975,-38.772 125.3931,-40.772 134.7738,-45.6968 135.7975,-38.772"/>
</g>
<!-- Node2 -->
<g id="node3" class="node">
<title>Node2</title>
<g id="a_node3"><a xlink:title="STL class. ">
<polygon fill="none" stroke="#bfbfbf" points="161.334,-.5 161.334,-22.5 248.1338,-22.5 248.1338,-.5 161.334,-.5"/>
<text text-anchor="middle" x="204.7339" y="-7.3" font-family="Helvetica,sans-Serif" font-size="14.00" fill="#000000">std::wstring</text>
</a>
</g>
</g>
<!-- Node0&#45;&gt;Node2 -->
<g id="edge2" class="edge">
<title>Node0&#45;&gt;Node2</title>
<path fill="none" stroke="#191970" d="M135.3147,-21.2727C144.1155,-20.0338 152.8832,-18.7995 161.0771,-17.646"/>
<polygon fill="#191970" stroke="#191970" points="134.8076,-17.8095 125.3931,-22.6695 135.7834,-24.7412 134.8076,-17.8095"/>
</g>
</g>
</svg>
