<?xml version="1.0" encoding="UTF-8" standalone="no"?>
<!DOCTYPE svg PUBLIC "-//W3C//DTD SVG 1.1//EN"
 "http://www.w3.org/Graphics/SVG/1.1/DTD/svg11.dtd">
<!-- Generated by graphviz version 2.40.1 (20161225.0304)
 -->
<!-- Title: Графічна ієрархія класів Pages: 1 -->
<svg width="476pt" height="400pt"
 viewBox="0.00 0.00 475.87 400.00" xmlns="http://www.w3.org/2000/svg" xmlns:xlink="http://www.w3.org/1999/xlink">
<g id="graph0" class="graph" transform="scale(1 1) rotate(0) translate(4 396)">
<title>Графічна ієрархія класів</title>
<!-- Node0 -->
<g id="node1" class="node">
<title>Node0</title>
<g id="a_node1"><a xlink:title="STL class. ">
<polygon fill="none" stroke="#bfbfbf" points="0,-246.5 0,-268.5 102.3857,-268.5 102.3857,-246.5 0,-246.5"/>
<text text-anchor="middle" x="51.1929" y="-253.3" font-family="Helvetica,sans-Serif" font-size="14.00" fill="#000000">std::exception</text>
</a>
</g>
</g>
<!-- Node1 -->
<g id="node2" class="node">
<title>Node1</title>
<g id="a_node2"><a xlink:title="STL class. ">
<polygon fill="none" stroke="#bfbfbf" points="159.3926,-369.5 159.3926,-391.5 261.7852,-391.5 261.7852,-369.5 159.3926,-369.5"/>
<text text-anchor="middle" x="210.5889" y="-376.3" font-family="Helvetica,sans-Serif" font-size="14.00" fill="#000000">std::bad_alloc</text>
</a>
</g>
</g>
<!-- Node0&#45;&gt;Node1 -->
<g id="edge1" class="edge">
<title>Node0&#45;&gt;Node1</title>
<path fill="none" stroke="#191970" d="M62.8399,-277.4468C77.5154,-300.8224 104.9111,-339.0783 138.3857,-360.5 144.7402,-364.5665 151.9215,-367.8169 159.2289,-370.4124"/>
<polygon fill="#191970" stroke="#191970" points="65.7102,-275.4311 57.5158,-268.7152 59.7336,-279.0753 65.7102,-275.4311"/>
</g>
<!-- Node2 -->
<g id="node3" class="node">
<title>Node2</title>
<g id="a_node3"><a xlink:title="STL class. ">
<polygon fill="none" stroke="#bfbfbf" points="160.9512,-328.5 160.9512,-350.5 260.2266,-350.5 260.2266,-328.5 160.9512,-328.5"/>
<text text-anchor="middle" x="210.5889" y="-335.3" font-family="Helvetica,sans-Serif" font-size="14.00" fill="#000000">std::bad_cast</text>
</a>
</g>
</g>
<!-- Node0&#45;&gt;Node2 -->
<g id="edge2" class="edge">
<title>Node0&#45;&gt;Node2</title>
<path fill="none" stroke="#191970" d="M71.928,-275.417C88.8219,-289.2007 113.8198,-307.8095 138.3857,-319.5 145.6677,-322.9654 153.6576,-325.9253 161.5853,-328.4214"/>
<polygon fill="#191970" stroke="#191970" points="73.8011,-272.4221 63.8774,-268.711 69.3209,-277.8005 73.8011,-272.4221"/>
</g>
<!-- Node3 -->
<g id="node4" class="node">
<title>Node3</title>
<g id="a_node4"><a xlink:title="STL class. ">
<polygon fill="none" stroke="#bfbfbf" points="143.8237,-287.5 143.8237,-309.5 277.354,-309.5 277.354,-287.5 143.8237,-287.5"/>
<text text-anchor="middle" x="210.5889" y="-294.3" font-family="Helvetica,sans-Serif" font-size="14.00" fill="#000000">std::bad_exception</text>
</a>
</g>
</g>
<!-- Node0&#45;&gt;Node3 -->
<g id="edge3" class="edge">
<title>Node0&#45;&gt;Node3</title>
<path fill="none" stroke="#191970" d="M104.2084,-271.1367C124.8347,-276.4422 148.1564,-282.4411 167.6959,-287.467"/>
<polygon fill="#191970" stroke="#191970" points="104.8844,-267.6967 94.3277,-268.5952 103.1406,-274.476 104.8844,-267.6967"/>
</g>
<!-- Node4 -->
<g id="node5" class="node">
<title>Node4</title>
<g id="a_node5"><a xlink:title="STL class. ">
<polygon fill="none" stroke="#bfbfbf" points="155.1099,-246.5 155.1099,-268.5 266.0679,-268.5 266.0679,-246.5 155.1099,-246.5"/>
<text text-anchor="middle" x="210.5889" y="-253.3" font-family="Helvetica,sans-Serif" font-size="14.00" fill="#000000">std::bad_typeid</text>
</a>
</g>
</g>
<!-- Node0&#45;&gt;Node4 -->
<g id="edge4" class="edge">
<title>Node0&#45;&gt;Node4</title>
<path fill="none" stroke="#191970" d="M112.5097,-257.5C126.4804,-257.5 141.2482,-257.5 154.9658,-257.5"/>
<polygon fill="#191970" stroke="#191970" points="112.5042,-254.0001 102.5042,-257.5 112.5041,-261.0001 112.5042,-254.0001"/>
</g>
<!-- Node5 -->
<g id="node6" class="node">
<title>Node5</title>
<g id="a_node6"><a xlink:title="STL class. ">
<polygon fill="none" stroke="#bfbfbf" points="138.3857,-205.5 138.3857,-227.5 282.792,-227.5 282.792,-205.5 138.3857,-205.5"/>
<text text-anchor="middle" x="210.5889" y="-212.3" font-family="Helvetica,sans-Serif" font-size="14.00" fill="#000000">std::ios_base::failure</text>
</a>
</g>
</g>
<!-- Node0&#45;&gt;Node5 -->
<g id="edge5" class="edge">
<title>Node0&#45;&gt;Node5</title>
<path fill="none" stroke="#191970" d="M104.2084,-243.8633C124.8347,-238.5578 148.1564,-232.5589 167.6959,-227.533"/>
<polygon fill="#191970" stroke="#191970" points="103.1406,-240.524 94.3277,-246.4048 104.8844,-247.3033 103.1406,-240.524"/>
</g>
<!-- Node6 -->
<g id="node7" class="node">
<title>Node6</title>
<g id="a_node7"><a xlink:title="STL class. ">
<polygon fill="none" stroke="#bfbfbf" points="156.2925,-164.5 156.2925,-186.5 264.8853,-186.5 264.8853,-164.5 156.2925,-164.5"/>
<text text-anchor="middle" x="210.5889" y="-171.3" font-family="Helvetica,sans-Serif" font-size="14.00" fill="#000000">std::logic_error</text>
</a>
</g>
</g>
<!-- Node0&#45;&gt;Node6 -->
<g id="edge6" class="edge">
<title>Node0&#45;&gt;Node6</title>
<path fill="none" stroke="#191970" d="M72.3135,-239.7395C89.2518,-226.2596 114.1241,-208.1225 138.3857,-196.5 146.5094,-192.6083 155.4993,-189.289 164.2982,-186.516"/>
<polygon fill="#191970" stroke="#191970" points="69.7831,-237.2855 64.2243,-246.305 74.1945,-242.7206 69.7831,-237.2855"/>
</g>
<!-- Node11 -->
<g id="node12" class="node">
<title>Node11</title>
<g id="a_node12"><a xlink:title="STL class. ">
<polygon fill="none" stroke="#bfbfbf" points="147.3477,-62.5 147.3477,-84.5 273.8301,-84.5 273.8301,-62.5 147.3477,-62.5"/>
<text text-anchor="middle" x="210.5889" y="-69.3" font-family="Helvetica,sans-Serif" font-size="14.00" fill="#000000">std::runtime_error</text>
</a>
</g>
</g>
<!-- Node0&#45;&gt;Node11 -->
<g id="edge11" class="edge">
<title>Node0&#45;&gt;Node11</title>
<path fill="none" stroke="#191970" d="M67.0679,-238.763C84.4811,-218.2495 113.2935,-184.4215 138.3857,-155.5 160.5122,-129.9969 186.7763,-100.3154 200.7269,-84.5957"/>
<polygon fill="#191970" stroke="#191970" points="64.3589,-236.546 60.5591,-246.4361 69.697,-241.0742 64.3589,-236.546"/>
</g>
<!-- Node7 -->
<g id="node8" class="node">
<title>Node7</title>
<g id="a_node8"><a xlink:title="STL class. ">
<polygon fill="none" stroke="#bfbfbf" points="330.4712,-246.5 330.4712,-268.5 456.188,-268.5 456.188,-246.5 330.4712,-246.5"/>
<text text-anchor="middle" x="393.3296" y="-253.3" font-family="Helvetica,sans-Serif" font-size="14.00" fill="#000000">std::domain_error</text>
</a>
</g>
</g>
<!-- Node6&#45;&gt;Node7 -->
<g id="edge7" class="edge">
<title>Node6&#45;&gt;Node7</title>
<path fill="none" stroke="#191970" d="M271.5711,-190.4364C275.481,-192.2397 279.2605,-194.2531 282.792,-196.5 303.2517,-209.5173 298.1974,-224.6972 318.792,-237.5 324.4814,-241.0369 330.7917,-243.9551 337.2635,-246.3614"/>
<polygon fill="#191970" stroke="#191970" points="272.8455,-187.1761 262.2664,-186.5993 270.1768,-193.6474 272.8455,-187.1761"/>
</g>
<!-- Node8 -->
<g id="node9" class="node">
<title>Node8</title>
<g id="a_node9"><a xlink:title="STL class. ">
<polygon fill="none" stroke="#bfbfbf" points="318.792,-205.5 318.792,-227.5 467.8672,-227.5 467.8672,-205.5 318.792,-205.5"/>
<text text-anchor="middle" x="393.3296" y="-212.3" font-family="Helvetica,sans-Serif" font-size="14.00" fill="#000000">std::invalid_argument</text>
</a>
</g>
</g>
<!-- Node6&#45;&gt;Node8 -->
<g id="edge8" class="edge">
<title>Node6&#45;&gt;Node8</title>
<path fill="none" stroke="#191970" d="M270.0822,-188.848C294.0424,-194.2238 321.3461,-200.3497 344.1547,-205.467"/>
<polygon fill="#191970" stroke="#191970" points="270.5648,-185.3694 260.0411,-186.5952 269.0323,-192.1996 270.5648,-185.3694"/>
</g>
<!-- Node9 -->
<g id="node10" class="node">
<title>Node9</title>
<g id="a_node10"><a xlink:title="STL class. ">
<polygon fill="none" stroke="#bfbfbf" points="334.3574,-164.5 334.3574,-186.5 452.3018,-186.5 452.3018,-164.5 334.3574,-164.5"/>
<text text-anchor="middle" x="393.3296" y="-171.3" font-family="Helvetica,sans-Serif" font-size="14.00" fill="#000000">std::length_error</text>
</a>
</g>
</g>
<!-- Node6&#45;&gt;Node9 -->
<g id="edge9" class="edge">
<title>Node6&#45;&gt;Node9</title>
<path fill="none" stroke="#191970" d="M275.0887,-175.5C294.2981,-175.5 315.2468,-175.5 334.1025,-175.5"/>
<polygon fill="#191970" stroke="#191970" points="274.9224,-172.0001 264.9223,-175.5 274.9223,-179.0001 274.9224,-172.0001"/>
</g>
<!-- Node10 -->
<g id="node11" class="node">
<title>Node10</title>
<g id="a_node11"><a xlink:title="STL class. ">
<polygon fill="none" stroke="#bfbfbf" points="330.8438,-123.5 330.8438,-145.5 455.8154,-145.5 455.8154,-123.5 330.8438,-123.5"/>
<text text-anchor="middle" x="393.3296" y="-130.3" font-family="Helvetica,sans-Serif" font-size="14.00" fill="#000000">std::out_of_range</text>
</a>
</g>
</g>
<!-- Node6&#45;&gt;Node10 -->
<g id="edge10" class="edge">
<title>Node6&#45;&gt;Node10</title>
<path fill="none" stroke="#191970" d="M270.0822,-162.152C294.0424,-156.7762 321.3461,-150.6503 344.1547,-145.533"/>
<polygon fill="#191970" stroke="#191970" points="269.0323,-158.8004 260.0411,-164.4048 270.5648,-165.6306 269.0323,-158.8004"/>
</g>
<!-- Node12 -->
<g id="node13" class="node">
<title>Node12</title>
<g id="a_node13"><a xlink:title="STL class. ">
<polygon fill="none" stroke="#bfbfbf" points="327.3643,-82.5 327.3643,-104.5 459.2949,-104.5 459.2949,-82.5 327.3643,-82.5"/>
<text text-anchor="middle" x="393.3296" y="-89.3" font-family="Helvetica,sans-Serif" font-size="14.00" fill="#000000">std::overflow_error</text>
</a>
</g>
</g>
<!-- Node11&#45;&gt;Node12 -->
<g id="edge12" class="edge">
<title>Node11&#45;&gt;Node12</title>
<path fill="none" stroke="#191970" d="M284.2239,-81.559C298.4521,-83.1162 313.277,-84.7387 327.246,-86.2675"/>
<polygon fill="#191970" stroke="#191970" points="284.3113,-78.0477 273.9898,-80.4389 283.5497,-85.0062 284.3113,-78.0477"/>
</g>
<!-- Node13 -->
<g id="node14" class="node">
<title>Node13</title>
<g id="a_node14"><a xlink:title="STL class. ">
<polygon fill="none" stroke="#bfbfbf" points="335.5264,-41.5 335.5264,-63.5 451.1328,-63.5 451.1328,-41.5 335.5264,-41.5"/>
<text text-anchor="middle" x="393.3296" y="-48.3" font-family="Helvetica,sans-Serif" font-size="14.00" fill="#000000">std::range_error</text>
</a>
</g>
</g>
<!-- Node11&#45;&gt;Node13 -->
<g id="edge13" class="edge">
<title>Node11&#45;&gt;Node13</title>
<path fill="none" stroke="#191970" d="M284.4002,-65.0178C301.3283,-63.0725 319.092,-61.0312 335.2474,-59.1746"/>
<polygon fill="#191970" stroke="#191970" points="283.5249,-61.5953 273.9898,-66.2142 284.3241,-68.5495 283.5249,-61.5953"/>
</g>
<!-- Node14 -->
<g id="node15" class="node">
<title>Node14</title>
<g id="a_node15"><a xlink:title="STL class. ">
<polygon fill="none" stroke="#bfbfbf" points="323.0781,-.5 323.0781,-22.5 463.5811,-22.5 463.5811,-.5 323.0781,-.5"/>
<text text-anchor="middle" x="393.3296" y="-7.3" font-family="Helvetica,sans-Serif" font-size="14.00" fill="#000000">std::underflow_error</text>
</a>
</g>
</g>
<!-- Node11&#45;&gt;Node14 -->
<g id="edge14" class="edge">
<title>Node11&#45;&gt;Node14</title>
<path fill="none" stroke="#191970" d="M247.3416,-58.6573C268.1485,-50.4862 294.7452,-40.4264 318.792,-32.5 329.3899,-29.0067 340.9509,-25.5711 351.7366,-22.523"/>
<polygon fill="#191970" stroke="#191970" points="245.9368,-55.449 237.9248,-62.3814 248.5112,-61.9585 245.9368,-55.449"/>
</g>
</g>
</svg>
