<?xml version="1.0" encoding="UTF-8" standalone="no"?>
<!DOCTYPE svg PUBLIC "-//W3C//DTD SVG 1.1//EN"
 "http://www.w3.org/Graphics/SVG/1.1/DTD/svg11.dtd">
<!-- Generated by graphviz version 2.40.1 (20161225.0304)
 -->
<!-- Title: Graphical Class Hierarchy Pages: 1 -->
<svg width="350pt" height="236pt"
 viewBox="0.00 0.00 350.39 236.00" xmlns="http://www.w3.org/2000/svg" xmlns:xlink="http://www.w3.org/1999/xlink">
<g id="graph0" class="graph" transform="scale(1 1) rotate(0) translate(4 232)">
<title>Graphical Class Hierarchy</title>
<!-- Node26 -->
<g id="node1" class="node">
<title>Node26</title>
<g id="a_node1"><a xlink:href="d3/d65/a00154.html" target="_top" xlink:title="MailReceiver">
<polygon fill="none" stroke="#000000" points="0,-205.5 0,-227.5 96.9102,-227.5 96.9102,-205.5 0,-205.5"/>
<text text-anchor="middle" x="48.4551" y="-212.3" font-family="Helvetica,sans-Serif" font-size="14.00" fill="#000000">MailReceiver</text>
</a>
</g>
</g>
<!-- Node0 -->
<g id="node2" class="node">
<title>Node0</title>
<g id="a_node2"><a xlink:href="d7/d03/a00254.html" target="_top" xlink:title="MainGameLoop">
<polygon fill="none" stroke="#000000" points="179.8423,-205.5 179.8423,-227.5 295.4556,-227.5 295.4556,-205.5 179.8423,-205.5"/>
<text text-anchor="middle" x="237.6489" y="-212.3" font-family="Helvetica,sans-Serif" font-size="14.00" fill="#000000">MainGameLoop</text>
</a>
</g>
</g>
<!-- Node26&#45;&gt;Node0 -->
<g id="edge1" class="edge">
<title>Node26&#45;&gt;Node0</title>
<path fill="none" stroke="#191970" d="M107.1788,-216.5C130.2517,-216.5 156.667,-216.5 179.6673,-216.5"/>
<polygon fill="#191970" stroke="#191970" points="107.1772,-213.0001 97.1772,-216.5 107.1772,-220.0001 107.1772,-213.0001"/>
</g>
<!-- Node25 -->
<g id="node3" class="node">
<title>Node25</title>
<g id="a_node3"><a xlink:href="db/d44/a00162.html" target="_top" xlink:title="MailSender">
<polygon fill="none" stroke="#000000" points="5.0483,-154.5 5.0483,-176.5 91.8618,-176.5 91.8618,-154.5 5.0483,-154.5"/>
<text text-anchor="middle" x="48.4551" y="-161.3" font-family="Helvetica,sans-Serif" font-size="14.00" fill="#000000">MailSender</text>
</a>
</g>
</g>
<!-- Node4 -->
<g id="node4" class="node">
<title>Node4</title>
<g id="a_node4"><a xlink:href="da/d2e/a00238.html" target="_top" xlink:title="ServerConnection">
<polygon fill="none" stroke="#000000" points="173.6182,-164.5 173.6182,-186.5 301.6797,-186.5 301.6797,-164.5 173.6182,-164.5"/>
<text text-anchor="middle" x="237.6489" y="-171.3" font-family="Helvetica,sans-Serif" font-size="14.00" fill="#000000">ServerConnection</text>
</a>
</g>
</g>
<!-- Node25&#45;&gt;Node4 -->
<g id="edge2" class="edge">
<title>Node25&#45;&gt;Node4</title>
<path fill="none" stroke="#191970" d="M102.5553,-168.3595C124.6966,-169.5298 150.4866,-170.893 173.5635,-172.1127"/>
<polygon fill="#191970" stroke="#191970" points="102.5063,-164.8521 92.3355,-167.8193 102.1368,-171.8424 102.5063,-164.8521"/>
</g>
<!-- Node5 -->
<g id="node5" class="node">
<title>Node5</title>
<g id="a_node5"><a xlink:href="d2/dc8/a00242.html" target="_top" xlink:title="ServerWorker">
<polygon fill="none" stroke="#000000" points="186.5996,-123.5 186.5996,-145.5 288.6982,-145.5 288.6982,-123.5 186.5996,-123.5"/>
<text text-anchor="middle" x="237.6489" y="-130.3" font-family="Helvetica,sans-Serif" font-size="14.00" fill="#000000">ServerWorker</text>
</a>
</g>
</g>
<!-- Node25&#45;&gt;Node5 -->
<g id="edge3" class="edge">
<title>Node25&#45;&gt;Node5</title>
<path fill="none" stroke="#191970" d="M102.5213,-156.6411C128.8474,-152.3275 160.3382,-147.1676 186.2944,-142.9146"/>
<polygon fill="#191970" stroke="#191970" points="101.6379,-153.2391 92.3355,-158.3101 102.7699,-160.147 101.6379,-153.2391"/>
</g>
<!-- Node2 -->
<g id="node6" class="node">
<title>Node2</title>
<polygon fill="none" stroke="#bfbfbf" points="12.8311,-102.5 12.8311,-124.5 84.0791,-124.5 84.0791,-102.5 12.8311,-102.5"/>
<text text-anchor="middle" x="48.4551" y="-109.3" font-family="Helvetica,sans-Serif" font-size="14.00" fill="#000000">QThread</text>
</g>
<!-- Node2&#45;&gt;Node0 -->
<g id="edge4" class="edge">
<title>Node2&#45;&gt;Node0</title>
<path fill="none" stroke="#191970" d="M77.8728,-130.3954C84.4962,-134.8688 91.2372,-140.0003 96.9102,-145.5 116.8305,-164.8121 109.5878,-181.4718 132.9102,-196.5 146.7599,-205.4243 163.639,-210.5608 179.7671,-213.4644"/>
<polygon fill="#191970" stroke="#191970" points="79.3341,-127.1752 69.0252,-124.7307 75.5597,-133.0704 79.3341,-127.1752"/>
</g>
<!-- Node2&#45;&gt;Node4 -->
<g id="edge5" class="edge">
<title>Node2&#45;&gt;Node4</title>
<path fill="none" stroke="#191970" d="M75.8241,-129.5001C91.9673,-138.3221 113.0633,-148.8108 132.9102,-155.5 145.8041,-159.8458 159.9279,-163.3448 173.5125,-166.125"/>
<polygon fill="#191970" stroke="#191970" points="77.3761,-126.3581 66.9385,-124.5397 73.964,-132.4702 77.3761,-126.3581"/>
</g>
<!-- Node2&#45;&gt;Node5 -->
<g id="edge6" class="edge">
<title>Node2&#45;&gt;Node5</title>
<path fill="none" stroke="#191970" d="M94.7186,-118.6351C122.4634,-121.7147 157.793,-125.6362 186.3851,-128.8099"/>
<polygon fill="#191970" stroke="#191970" points="94.8114,-115.124 84.4863,-117.4994 94.0391,-122.0813 94.8114,-115.124"/>
</g>
<!-- Node6 -->
<g id="node7" class="node">
<title>Node6</title>
<g id="a_node7"><a xlink:href="d0/da7/a00250.html" target="_top" xlink:title="ServerWorker::ReceiverThread">
<polygon fill="none" stroke="#000000" points="132.9102,-82.5 132.9102,-104.5 342.3877,-104.5 342.3877,-82.5 132.9102,-82.5"/>
<text text-anchor="middle" x="237.6489" y="-89.3" font-family="Helvetica,sans-Serif" font-size="14.00" fill="#000000">ServerWorker::ReceiverThread</text>
</a>
</g>
</g>
<!-- Node2&#45;&gt;Node6 -->
<g id="edge7" class="edge">
<title>Node2&#45;&gt;Node6</title>
<path fill="none" stroke="#191970" d="M94.6,-108.6219C106.5559,-107.3581 119.9263,-105.9447 133.5623,-104.5032"/>
<polygon fill="#191970" stroke="#191970" points="94.0629,-105.1591 84.4863,-109.6911 94.7989,-112.1203 94.0629,-105.1591"/>
</g>
<!-- Node7 -->
<g id="node8" class="node">
<title>Node7</title>
<g id="a_node8"><a xlink:href="d5/dcb/a00170.html" target="_top" xlink:title="SimpleConnection">
<polygon fill="none" stroke="#000000" points="172.8389,-41.5 172.8389,-63.5 302.459,-63.5 302.459,-41.5 172.8389,-41.5"/>
<text text-anchor="middle" x="237.6489" y="-48.3" font-family="Helvetica,sans-Serif" font-size="14.00" fill="#000000">SimpleConnection</text>
</a>
</g>
</g>
<!-- Node2&#45;&gt;Node7 -->
<g id="edge8" class="edge">
<title>Node2&#45;&gt;Node7</title>
<path fill="none" stroke="#191970" d="M76.5063,-97.568C92.5799,-89.0356 113.3832,-78.9779 132.9102,-72.5 145.5611,-68.3032 159.3809,-64.885 172.7113,-62.1395"/>
<polygon fill="#191970" stroke="#191970" points="74.7581,-94.5344 67.6344,-102.3768 78.0938,-100.6885 74.7581,-94.5344"/>
</g>
<!-- Node8 -->
<g id="node9" class="node">
<title>Node8</title>
<g id="a_node9"><a xlink:href="d9/d90/a00178.html" target="_top" xlink:title="SimpleConnection::Receiver">
<polygon fill="none" stroke="#000000" points="141.3286,-.5 141.3286,-22.5 333.9692,-22.5 333.9692,-.5 141.3286,-.5"/>
<text text-anchor="middle" x="237.6489" y="-7.3" font-family="Helvetica,sans-Serif" font-size="14.00" fill="#000000">SimpleConnection::Receiver</text>
</a>
</g>
</g>
<!-- Node2&#45;&gt;Node8 -->
<g id="edge9" class="edge">
<title>Node2&#45;&gt;Node8</title>
<path fill="none" stroke="#191970" d="M62.5712,-94.3826C77.7466,-75.3075 103.6666,-46.712 132.9102,-31.5 139.8079,-27.9119 147.2615,-24.9628 154.903,-22.5396"/>
<polygon fill="#191970" stroke="#191970" points="59.7253,-92.3413 56.3814,-102.3946 65.2648,-96.6209 59.7253,-92.3413"/>
</g>
</g>
</svg>
