<?xml version="1.0" encoding="UTF-8" standalone="no"?>
<!DOCTYPE svg PUBLIC "-//W3C//DTD SVG 1.1//EN"
 "http://www.w3.org/Graphics/SVG/1.1/DTD/svg11.dtd">
<!-- Generated by graphviz version 2.40.1 (20161225.0304)
 -->
<!-- Title: Графічна ієрархія класів Pages: 1 -->
<svg width="1051pt" height="979pt"
 viewBox="0.00 0.00 1051.22 979.00" xmlns="http://www.w3.org/2000/svg" xmlns:xlink="http://www.w3.org/1999/xlink">
<g id="graph0" class="graph" transform="scale(1 1) rotate(0) translate(4 975)">
<title>Графічна ієрархія класів</title>
<!-- Node0 -->
<g id="node1" class="node">
<title>Node0</title>
<g id="a_node1"><a xlink:title="STL class. ">
<polygon fill="none" stroke="#bfbfbf" points="0,-669.5 0,-691.5 98.4961,-691.5 98.4961,-669.5 0,-669.5"/>
<text text-anchor="middle" x="49.248" y="-676.3" font-family="Helvetica,sans-Serif" font-size="14.00" fill="#000000">std::ios_base</text>
</a>
</g>
</g>
<!-- Node1 -->
<g id="node2" class="node">
<title>Node1</title>
<polygon fill="none" stroke="#bfbfbf" points="145.3892,-710.5 145.3892,-732.5 297.5747,-732.5 297.5747,-710.5 145.3892,-710.5"/>
<text text-anchor="middle" x="221.4819" y="-717.3" font-family="Helvetica,sans-Serif" font-size="14.00" fill="#000000">std::basic_ios&lt; char &gt;</text>
</g>
<!-- Node0&#45;&gt;Node1 -->
<g id="edge1" class="edge">
<title>Node0&#45;&gt;Node1</title>
<path fill="none" stroke="#191970" d="M103.241,-693.9349C113.6078,-696.4764 124.383,-699.0919 134.4961,-701.5 146.857,-704.4433 160.224,-707.5531 172.6842,-710.4207"/>
<polygon fill="#191970" stroke="#191970" points="104.0083,-690.5194 93.4618,-691.53 102.3366,-697.3169 104.0083,-690.5194"/>
</g>
<!-- Node2 -->
<g id="node3" class="node">
<title>Node2</title>
<polygon fill="none" stroke="#bfbfbf" points="134.4961,-669.5 134.4961,-691.5 308.4678,-691.5 308.4678,-669.5 134.4961,-669.5"/>
<text text-anchor="middle" x="221.4819" y="-676.3" font-family="Helvetica,sans-Serif" font-size="14.00" fill="#000000">std::basic_ios&lt; wchar_t &gt;</text>
</g>
<!-- Node0&#45;&gt;Node2 -->
<g id="edge2" class="edge">
<title>Node0&#45;&gt;Node2</title>
<path fill="none" stroke="#191970" d="M108.8529,-680.5C117.1177,-680.5 125.7435,-680.5 134.3824,-680.5"/>
<polygon fill="#191970" stroke="#191970" points="108.6034,-677.0001 98.6034,-680.5 108.6033,-684.0001 108.6034,-677.0001"/>
</g>
<!-- Node3 -->
<g id="node4" class="node">
<title>Node3</title>
<g id="a_node4"><a xlink:title="STL class. ">
<polygon fill="none" stroke="#bfbfbf" points="143.834,-628.5 143.834,-650.5 299.1299,-650.5 299.1299,-628.5 143.834,-628.5"/>
<text text-anchor="middle" x="221.4819" y="-635.3" font-family="Helvetica,sans-Serif" font-size="14.00" fill="#000000">std::basic_ios&lt; Char &gt;</text>
</a>
</g>
</g>
<!-- Node0&#45;&gt;Node3 -->
<g id="edge3" class="edge">
<title>Node0&#45;&gt;Node3</title>
<path fill="none" stroke="#191970" d="M105.6234,-667.0799C128.133,-661.7216 153.7332,-655.6275 175.1344,-650.533"/>
<polygon fill="#191970" stroke="#191970" points="104.7746,-663.6841 95.857,-669.4048 106.3957,-670.4938 104.7746,-663.6841"/>
</g>
<!-- Node4 -->
<g id="node5" class="node">
<title>Node4</title>
<polygon fill="none" stroke="#bfbfbf" points="346.8057,-814.5 346.8057,-850.5 475.626,-850.5 475.626,-814.5 346.8057,-814.5"/>
<text text-anchor="start" x="354.8057" y="-835.3" font-family="Helvetica,sans-Serif" font-size="14.00" fill="#000000">std::basic_istream</text>
<text text-anchor="middle" x="411.2158" y="-821.3" font-family="Helvetica,sans-Serif" font-size="14.00" fill="#000000">&lt; char &gt;</text>
</g>
<!-- Node3&#45;&gt;Node4 -->
<g id="edge4" class="edge">
<title>Node3&#45;&gt;Node4</title>
<path fill="none" stroke="#191970" d="M303.7625,-656.3517C305.4072,-657.6411 306.98,-659.0218 308.4678,-660.5 355.572,-707.3004 300.94,-755.356 344.4678,-805.5 347.4177,-808.8984 350.858,-811.8749 354.5923,-814.481"/>
<polygon fill="#191970" stroke="#191970" points="305.2888,-653.1686 295.0008,-650.6374 301.4648,-659.0318 305.2888,-653.1686"/>
</g>
<!-- Node5 -->
<g id="node6" class="node">
<title>Node5</title>
<polygon fill="none" stroke="#bfbfbf" points="346.8057,-759.5 346.8057,-795.5 475.626,-795.5 475.626,-759.5 346.8057,-759.5"/>
<text text-anchor="start" x="354.8057" y="-780.3" font-family="Helvetica,sans-Serif" font-size="14.00" fill="#000000">std::basic_istream</text>
<text text-anchor="middle" x="411.2158" y="-766.3" font-family="Helvetica,sans-Serif" font-size="14.00" fill="#000000">&lt; wchar_t &gt;</text>
</g>
<!-- Node3&#45;&gt;Node5 -->
<g id="edge5" class="edge">
<title>Node3&#45;&gt;Node5</title>
<path fill="none" stroke="#191970" d="M302.1227,-655.6981C304.3405,-657.1679 306.4638,-658.7649 308.4678,-660.5 341.038,-688.6989 314.0638,-719.9779 344.4678,-750.5 347.8201,-753.8654 351.6479,-756.8265 355.7362,-759.4294"/>
<polygon fill="#191970" stroke="#191970" points="303.582,-652.5029 293.1526,-650.6377 300.1425,-658.5996 303.582,-652.5029"/>
</g>
<!-- Node6 -->
<g id="node7" class="node">
<title>Node6</title>
<polygon fill="none" stroke="#bfbfbf" points="344.4678,-704.5 344.4678,-740.5 477.9639,-740.5 477.9639,-704.5 344.4678,-704.5"/>
<text text-anchor="start" x="352.4678" y="-725.3" font-family="Helvetica,sans-Serif" font-size="14.00" fill="#000000">std::basic_ostream</text>
<text text-anchor="middle" x="411.2158" y="-711.3" font-family="Helvetica,sans-Serif" font-size="14.00" fill="#000000">&lt; char &gt;</text>
</g>
<!-- Node3&#45;&gt;Node6 -->
<g id="edge6" class="edge">
<title>Node3&#45;&gt;Node6</title>
<path fill="none" stroke="#191970" d="M294.3272,-653.9225C299.2288,-655.8493 303.9915,-658.0307 308.4678,-660.5 328.0073,-671.2788 325.7756,-683.3108 344.4678,-695.5 349.4938,-698.7774 354.9816,-701.7751 360.5814,-704.4826"/>
<polygon fill="#191970" stroke="#191970" points="295.3634,-650.5763 284.7687,-650.5222 293.0173,-657.1714 295.3634,-650.5763"/>
</g>
<!-- Node7 -->
<g id="node8" class="node">
<title>Node7</title>
<polygon fill="none" stroke="#bfbfbf" points="344.4678,-649.5 344.4678,-685.5 477.9639,-685.5 477.9639,-649.5 344.4678,-649.5"/>
<text text-anchor="start" x="352.4678" y="-670.3" font-family="Helvetica,sans-Serif" font-size="14.00" fill="#000000">std::basic_ostream</text>
<text text-anchor="middle" x="411.2158" y="-656.3" font-family="Helvetica,sans-Serif" font-size="14.00" fill="#000000">&lt; wchar_t &gt;</text>
</g>
<!-- Node3&#45;&gt;Node7 -->
<g id="edge7" class="edge">
<title>Node3&#45;&gt;Node7</title>
<path fill="none" stroke="#191970" d="M306.3253,-652.0208C319.0409,-653.8973 331.9994,-655.8096 344.2732,-657.6209"/>
<polygon fill="#191970" stroke="#191970" points="306.6013,-648.5237 296.1974,-650.5261 305.5793,-655.4487 306.6013,-648.5237"/>
</g>
<!-- Node8 -->
<g id="node9" class="node">
<title>Node8</title>
<g id="a_node9"><a xlink:title="STL class. ">
<polygon fill="none" stroke="#bfbfbf" points="346.8057,-340.5 346.8057,-376.5 475.626,-376.5 475.626,-340.5 346.8057,-340.5"/>
<text text-anchor="start" x="354.8057" y="-361.3" font-family="Helvetica,sans-Serif" font-size="14.00" fill="#000000">std::basic_istream</text>
<text text-anchor="middle" x="411.2158" y="-347.3" font-family="Helvetica,sans-Serif" font-size="14.00" fill="#000000">&lt; Char &gt;</text>
</a>
</g>
</g>
<!-- Node3&#45;&gt;Node8 -->
<g id="edge8" class="edge">
<title>Node3&#45;&gt;Node8</title>
<path fill="none" stroke="#191970" d="M234.5394,-620.1615C269.516,-568.3605 364.9669,-426.9957 398.9779,-376.6246"/>
<polygon fill="#191970" stroke="#191970" points="231.615,-618.2382 228.9197,-628.4845 237.4164,-622.1554 231.615,-618.2382"/>
</g>
<!-- Node34 -->
<g id="node35" class="node">
<title>Node34</title>
<g id="a_node35"><a xlink:title="STL class. ">
<polygon fill="none" stroke="#bfbfbf" points="344.4678,-594.5 344.4678,-630.5 477.9639,-630.5 477.9639,-594.5 344.4678,-594.5"/>
<text text-anchor="start" x="352.4678" y="-615.3" font-family="Helvetica,sans-Serif" font-size="14.00" fill="#000000">std::basic_ostream</text>
<text text-anchor="middle" x="411.2158" y="-601.3" font-family="Helvetica,sans-Serif" font-size="14.00" fill="#000000">&lt; Char &gt;</text>
</a>
</g>
</g>
<!-- Node3&#45;&gt;Node34 -->
<g id="edge34" class="edge">
<title>Node3&#45;&gt;Node34</title>
<path fill="none" stroke="#191970" d="M308.883,-627.0624C320.7988,-625.3668 332.8726,-623.6486 344.3462,-622.0159"/>
<polygon fill="#191970" stroke="#191970" points="308.3348,-623.6051 298.9276,-628.4791 309.321,-630.5353 308.3348,-623.6051"/>
</g>
<!-- Node60 -->
<g id="node48" class="node">
<title>Node60</title>
<g id="a_node48"><a xlink:title="STL class. ">
<polygon fill="none" stroke="#bfbfbf" points="381.04,-299.5 381.04,-321.5 441.3916,-321.5 441.3916,-299.5 381.04,-299.5"/>
<text text-anchor="middle" x="411.2158" y="-306.3" font-family="Helvetica,sans-Serif" font-size="14.00" fill="#000000">std::ios</text>
</a>
</g>
</g>
<!-- Node3&#45;&gt;Node60 -->
<g id="edge50" class="edge">
<title>Node3&#45;&gt;Node60</title>
<path fill="none" stroke="#191970" d="M223.7426,-618.3056C230.789,-562.8659 257.3871,-412.2751 344.4678,-331.5 354.354,-322.3297 368.2158,-317.1637 380.7471,-314.2535"/>
<polygon fill="#191970" stroke="#191970" points="220.2529,-618.0126 222.5513,-628.3552 227.2042,-618.8367 220.2529,-618.0126"/>
</g>
<!-- Node61 -->
<g id="node49" class="node">
<title>Node61</title>
<g id="a_node49"><a xlink:title="STL class. ">
<polygon fill="none" stroke="#bfbfbf" points="375.9849,-258.5 375.9849,-280.5 446.4468,-280.5 446.4468,-258.5 375.9849,-258.5"/>
<text text-anchor="middle" x="411.2158" y="-265.3" font-family="Helvetica,sans-Serif" font-size="14.00" fill="#000000">std::wios</text>
</a>
</g>
</g>
<!-- Node3&#45;&gt;Node61 -->
<g id="edge51" class="edge">
<title>Node3&#45;&gt;Node61</title>
<path fill="none" stroke="#191970" d="M222.6321,-617.989C227.0412,-557.4257 247.914,-383.826 344.4678,-290.5 352.9406,-282.3105 364.5756,-277.3121 375.76,-274.2623"/>
<polygon fill="#191970" stroke="#191970" points="219.122,-618.0333 221.9689,-628.2385 226.1074,-618.4854 219.122,-618.0333"/>
</g>
<!-- Node9 -->
<g id="node10" class="node">
<title>Node9</title>
<polygon fill="none" stroke="#bfbfbf" points="531.4741,-316.5 531.4741,-352.5 664.1841,-352.5 664.1841,-316.5 531.4741,-316.5"/>
<text text-anchor="start" x="539.4741" y="-337.3" font-family="Helvetica,sans-Serif" font-size="14.00" fill="#000000">std::basic_ifstream</text>
<text text-anchor="middle" x="597.8291" y="-323.3" font-family="Helvetica,sans-Serif" font-size="14.00" fill="#000000">&lt; char &gt;</text>
</g>
<!-- Node8&#45;&gt;Node9 -->
<g id="edge9" class="edge">
<title>Node8&#45;&gt;Node9</title>
<path fill="none" stroke="#191970" d="M485.9797,-348.8848C501.0135,-346.9513 516.7166,-344.9317 531.4415,-343.038"/>
<polygon fill="#191970" stroke="#191970" points="485.1707,-345.4599 475.6988,-350.207 486.0636,-352.4027 485.1707,-345.4599"/>
</g>
<!-- Node10 -->
<g id="node11" class="node">
<title>Node10</title>
<polygon fill="none" stroke="#bfbfbf" points="531.4741,-261.5 531.4741,-297.5 664.1841,-297.5 664.1841,-261.5 531.4741,-261.5"/>
<text text-anchor="start" x="539.4741" y="-282.3" font-family="Helvetica,sans-Serif" font-size="14.00" fill="#000000">std::basic_ifstream</text>
<text text-anchor="middle" x="597.8291" y="-268.3" font-family="Helvetica,sans-Serif" font-size="14.00" fill="#000000">&lt; wchar_t &gt;</text>
</g>
<!-- Node8&#45;&gt;Node10 -->
<g id="edge10" class="edge">
<title>Node8&#45;&gt;Node10</title>
<path fill="none" stroke="#191970" d="M468.434,-336.2642C471.6892,-334.7183 474.8866,-333.1263 477.9639,-331.5 494.9651,-322.5147 496.6917,-315.9527 513.9639,-307.5 521.2712,-303.9239 529.1475,-300.6284 537.044,-297.6506"/>
<polygon fill="#191970" stroke="#191970" points="466.8092,-333.1582 459.1597,-340.4887 469.7109,-339.5285 466.8092,-333.1582"/>
</g>
<!-- Node35 -->
<g id="node12" class="node">
<title>Node35</title>
<polygon fill="none" stroke="#bfbfbf" points="529.5259,-412.5 529.5259,-448.5 666.1323,-448.5 666.1323,-412.5 529.5259,-412.5"/>
<text text-anchor="start" x="537.5259" y="-433.3" font-family="Helvetica,sans-Serif" font-size="14.00" fill="#000000">std::basic_iostream</text>
<text text-anchor="middle" x="597.8291" y="-419.3" font-family="Helvetica,sans-Serif" font-size="14.00" fill="#000000">&lt; char &gt;</text>
</g>
<!-- Node8&#45;&gt;Node35 -->
<g id="edge11" class="edge">
<title>Node8&#45;&gt;Node35</title>
<path fill="none" stroke="#191970" d="M459.1167,-380.6798C476.2631,-388.2986 495.8326,-396.6311 513.9639,-403.5 521.974,-406.5346 530.4928,-409.5335 538.9144,-412.3672"/>
<polygon fill="#191970" stroke="#191970" points="460.4217,-377.4293 449.8647,-376.5344 457.5594,-383.8174 460.4217,-377.4293"/>
</g>
<!-- Node36 -->
<g id="node13" class="node">
<title>Node36</title>
<polygon fill="none" stroke="#bfbfbf" points="529.5259,-522.5 529.5259,-558.5 666.1323,-558.5 666.1323,-522.5 529.5259,-522.5"/>
<text text-anchor="start" x="537.5259" y="-543.3" font-family="Helvetica,sans-Serif" font-size="14.00" fill="#000000">std::basic_iostream</text>
<text text-anchor="middle" x="597.8291" y="-529.3" font-family="Helvetica,sans-Serif" font-size="14.00" fill="#000000">&lt; wchar_t &gt;</text>
</g>
<!-- Node8&#45;&gt;Node36 -->
<g id="edge12" class="edge">
<title>Node8&#45;&gt;Node36</title>
<path fill="none" stroke="#191970" d="M422.5948,-386.2193C438.2,-420.8892 469.4653,-479.7814 513.9639,-513.5 518.7185,-517.1028 523.9708,-520.2344 529.4588,-522.955"/>
<polygon fill="#191970" stroke="#191970" points="425.6483,-384.4666 418.4336,-376.7079 419.2352,-387.2723 425.6483,-384.4666"/>
</g>
<!-- Node13 -->
<g id="node14" class="node">
<title>Node13</title>
<polygon fill="none" stroke="#bfbfbf" points="516.3018,-206.5 516.3018,-242.5 679.3564,-242.5 679.3564,-206.5 516.3018,-206.5"/>
<text text-anchor="start" x="524.3018" y="-227.3" font-family="Helvetica,sans-Serif" font-size="14.00" fill="#000000">std::basic_istringstream</text>
<text text-anchor="middle" x="597.8291" y="-213.3" font-family="Helvetica,sans-Serif" font-size="14.00" fill="#000000">&lt; char &gt;</text>
</g>
<!-- Node8&#45;&gt;Node13 -->
<g id="edge13" class="edge">
<title>Node8&#45;&gt;Node13</title>
<path fill="none" stroke="#191970" d="M474.5304,-334.5452C475.7168,-333.5684 476.8636,-332.5537 477.9639,-331.5 505.8303,-304.812 485.2816,-278.3093 513.9639,-252.5 518.1857,-248.701 522.9391,-245.4153 527.9822,-242.5737"/>
<polygon fill="#191970" stroke="#191970" points="472.3286,-331.8159 466.199,-340.4575 476.3798,-337.5245 472.3286,-331.8159"/>
</g>
<!-- Node14 -->
<g id="node15" class="node">
<title>Node14</title>
<polygon fill="none" stroke="#bfbfbf" points="516.3018,-151.5 516.3018,-187.5 679.3564,-187.5 679.3564,-151.5 516.3018,-151.5"/>
<text text-anchor="start" x="524.3018" y="-172.3" font-family="Helvetica,sans-Serif" font-size="14.00" fill="#000000">std::basic_istringstream</text>
<text text-anchor="middle" x="597.8291" y="-158.3" font-family="Helvetica,sans-Serif" font-size="14.00" fill="#000000">&lt; wchar_t &gt;</text>
</g>
<!-- Node8&#45;&gt;Node14 -->
<g id="edge14" class="edge">
<title>Node8&#45;&gt;Node14</title>
<path fill="none" stroke="#191970" d="M475.64,-333.9507C476.4426,-333.1591 477.2183,-332.3425 477.9639,-331.5 518.8316,-285.3189 471.6809,-242.389 513.9639,-197.5 517.5423,-193.701 521.6496,-190.4172 526.082,-187.5788"/>
<polygon fill="#191970" stroke="#191970" points="473.2727,-331.3658 467.7677,-340.4182 477.7163,-336.7746 473.2727,-331.3658"/>
</g>
<!-- Node15 -->
<g id="node16" class="node">
<title>Node15</title>
<g id="a_node16"><a xlink:title="STL class. ">
<polygon fill="none" stroke="#bfbfbf" points="531.4741,-96.5 531.4741,-132.5 664.1841,-132.5 664.1841,-96.5 531.4741,-96.5"/>
<text text-anchor="start" x="539.4741" y="-117.3" font-family="Helvetica,sans-Serif" font-size="14.00" fill="#000000">std::basic_ifstream</text>
<text text-anchor="middle" x="597.8291" y="-103.3" font-family="Helvetica,sans-Serif" font-size="14.00" fill="#000000">&lt; Char &gt;</text>
</a>
</g>
</g>
<!-- Node8&#45;&gt;Node15 -->
<g id="edge15" class="edge">
<title>Node8&#45;&gt;Node15</title>
<path fill="none" stroke="#191970" d="M476.074,-333.6595C476.726,-332.9594 477.3566,-332.2398 477.9639,-331.5 532.2171,-265.4047 457.6831,-206.8776 513.9639,-142.5 518.8133,-136.9529 524.7926,-132.5016 531.3075,-128.9302"/>
<polygon fill="#191970" stroke="#191970" points="473.5607,-331.2086 468.3559,-340.4369 478.1795,-336.4685 473.5607,-331.2086"/>
</g>
<!-- Node41 -->
<g id="node19" class="node">
<title>Node41</title>
<g id="a_node19"><a xlink:title="STL class. ">
<polygon fill="none" stroke="#bfbfbf" points="529.5259,-467.5 529.5259,-503.5 666.1323,-503.5 666.1323,-467.5 529.5259,-467.5"/>
<text text-anchor="start" x="537.5259" y="-488.3" font-family="Helvetica,sans-Serif" font-size="14.00" fill="#000000">std::basic_iostream</text>
<text text-anchor="middle" x="597.8291" y="-474.3" font-family="Helvetica,sans-Serif" font-size="14.00" fill="#000000">&lt; Char &gt;</text>
</a>
</g>
</g>
<!-- Node8&#45;&gt;Node41 -->
<g id="edge18" class="edge">
<title>Node8&#45;&gt;Node41</title>
<path fill="none" stroke="#191970" d="M431.812,-384.4198C450.9292,-406.9027 481.2908,-438.8412 513.9639,-458.5 519.4685,-461.8121 525.4244,-464.7641 531.5351,-467.3851"/>
<polygon fill="#191970" stroke="#191970" points="434.387,-382.0426 425.2941,-376.6047 429.0112,-386.5261 434.387,-382.0426"/>
</g>
<!-- Node29 -->
<g id="node30" class="node">
<title>Node29</title>
<g id="a_node30"><a xlink:title="STL class. ">
<polygon fill="none" stroke="#bfbfbf" points="516.3018,-41.5 516.3018,-77.5 679.3564,-77.5 679.3564,-41.5 516.3018,-41.5"/>
<text text-anchor="start" x="524.3018" y="-62.3" font-family="Helvetica,sans-Serif" font-size="14.00" fill="#000000">std::basic_istringstream</text>
<text text-anchor="middle" x="597.8291" y="-48.3" font-family="Helvetica,sans-Serif" font-size="14.00" fill="#000000">&lt; Char &gt;</text>
</a>
</g>
</g>
<!-- Node8&#45;&gt;Node29 -->
<g id="edge29" class="edge">
<title>Node8&#45;&gt;Node29</title>
<path fill="none" stroke="#191970" d="M476.4365,-333.3361C476.9617,-332.7383 477.4712,-332.1264 477.9639,-331.5 545.7297,-245.3374 443.5536,-171.5154 513.9639,-87.5 517.119,-83.7353 520.7957,-80.4742 524.8143,-77.6498"/>
<polygon fill="#191970" stroke="#191970" points="473.8113,-330.9952 468.8169,-340.339 478.5481,-336.1491 473.8113,-330.9952"/>
</g>
<!-- Node32 -->
<g id="node33" class="node">
<title>Node32</title>
<g id="a_node33"><a xlink:title="STL class. ">
<polygon fill="none" stroke="#bfbfbf" points="553.6533,-.5 553.6533,-22.5 642.0049,-22.5 642.0049,-.5 553.6533,-.5"/>
<text text-anchor="middle" x="597.8291" y="-7.3" font-family="Helvetica,sans-Serif" font-size="14.00" fill="#000000">std::istream</text>
</a>
</g>
</g>
<!-- Node8&#45;&gt;Node32 -->
<g id="edge32" class="edge">
<title>Node8&#45;&gt;Node32</title>
<path fill="none" stroke="#191970" d="M476.4605,-333.3547C476.9781,-332.751 477.4796,-332.1329 477.9639,-331.5 559.2991,-225.1984 425.4416,-132.8955 513.9639,-32.5 523.8905,-21.2419 538.8588,-15.5748 553.4153,-12.8487"/>
<polygon fill="#191970" stroke="#191970" points="473.8251,-331.0275 468.9179,-340.4174 478.6097,-336.1371 473.8251,-331.0275"/>
</g>
<!-- Node33 -->
<g id="node34" class="node">
<title>Node33</title>
<g id="a_node34"><a xlink:title="STL class. ">
<polygon fill="none" stroke="#bfbfbf" points="548.5981,-371.5 548.5981,-393.5 647.0601,-393.5 647.0601,-371.5 548.5981,-371.5"/>
<text text-anchor="middle" x="597.8291" y="-378.3" font-family="Helvetica,sans-Serif" font-size="14.00" fill="#000000">std::wistream</text>
</a>
</g>
</g>
<!-- Node8&#45;&gt;Node33 -->
<g id="edge33" class="edge">
<title>Node8&#45;&gt;Node33</title>
<path fill="none" stroke="#191970" d="M485.8884,-368.1035C506.9002,-370.8058 529.2262,-373.6771 548.3665,-376.1387"/>
<polygon fill="#191970" stroke="#191970" points="486.0636,-364.5973 475.6988,-366.793 485.1707,-371.5401 486.0636,-364.5973"/>
</g>
<!-- Node16 -->
<g id="node17" class="node">
<title>Node16</title>
<g id="a_node17"><a xlink:title="STL class. ">
<polygon fill="none" stroke="#bfbfbf" points="751.5459,-137.5 751.5459,-159.5 843.7871,-159.5 843.7871,-137.5 751.5459,-137.5"/>
<text text-anchor="middle" x="797.6665" y="-144.3" font-family="Helvetica,sans-Serif" font-size="14.00" fill="#000000">std::ifstream</text>
</a>
</g>
</g>
<!-- Node15&#45;&gt;Node16 -->
<g id="edge16" class="edge">
<title>Node15&#45;&gt;Node16</title>
<path fill="none" stroke="#191970" d="M674.5423,-127.5518C700.4164,-131.954 728.488,-136.7301 751.2841,-140.6086"/>
<polygon fill="#191970" stroke="#191970" points="674.8175,-124.0485 664.3721,-125.8215 673.6433,-130.9493 674.8175,-124.0485"/>
</g>
<!-- Node17 -->
<g id="node18" class="node">
<title>Node17</title>
<g id="a_node18"><a xlink:title="STL class. ">
<polygon fill="none" stroke="#bfbfbf" points="746.4907,-96.5 746.4907,-118.5 848.8423,-118.5 848.8423,-96.5 746.4907,-96.5"/>
<text text-anchor="middle" x="797.6665" y="-103.3" font-family="Helvetica,sans-Serif" font-size="14.00" fill="#000000">std::wifstream</text>
</a>
</g>
</g>
<!-- Node15&#45;&gt;Node17 -->
<g id="edge17" class="edge">
<title>Node15&#45;&gt;Node17</title>
<path fill="none" stroke="#191970" d="M674.5286,-111.8133C698.5383,-110.9723 724.4414,-110.065 746.2663,-109.3005"/>
<polygon fill="#191970" stroke="#191970" points="674.2434,-108.3211 664.3721,-112.1691 674.4885,-115.3168 674.2434,-108.3211"/>
</g>
<!-- Node42 -->
<g id="node20" class="node">
<title>Node42</title>
<polygon fill="none" stroke="#bfbfbf" points="732.8667,-446.5 732.8667,-482.5 862.4663,-482.5 862.4663,-446.5 732.8667,-446.5"/>
<text text-anchor="start" x="740.8667" y="-467.3" font-family="Helvetica,sans-Serif" font-size="14.00" fill="#000000">std::basic_fstream</text>
<text text-anchor="middle" x="797.6665" y="-453.3" font-family="Helvetica,sans-Serif" font-size="14.00" fill="#000000">&lt; char &gt;</text>
</g>
<!-- Node41&#45;&gt;Node42 -->
<g id="edge19" class="edge">
<title>Node41&#45;&gt;Node42</title>
<path fill="none" stroke="#191970" d="M676.5255,-477.2302C695.1129,-475.2769 714.7275,-473.2157 732.6329,-471.3341"/>
<polygon fill="#191970" stroke="#191970" points="675.9016,-473.7764 666.3222,-478.3024 676.6333,-480.738 675.9016,-473.7764"/>
</g>
<!-- Node43 -->
<g id="node21" class="node">
<title>Node43</title>
<polygon fill="none" stroke="#bfbfbf" points="732.8667,-391.5 732.8667,-427.5 862.4663,-427.5 862.4663,-391.5 732.8667,-391.5"/>
<text text-anchor="start" x="740.8667" y="-412.3" font-family="Helvetica,sans-Serif" font-size="14.00" fill="#000000">std::basic_fstream</text>
<text text-anchor="middle" x="797.6665" y="-398.3" font-family="Helvetica,sans-Serif" font-size="14.00" fill="#000000">&lt; wchar_t &gt;</text>
</g>
<!-- Node41&#45;&gt;Node43 -->
<g id="edge20" class="edge">
<title>Node41&#45;&gt;Node43</title>
<path fill="none" stroke="#191970" d="M668.9402,-463.809C673.2938,-462.1108 677.576,-460.338 681.6943,-458.5 698.6095,-450.9508 700.8761,-445.2627 717.6943,-437.5 725.3075,-433.9861 733.4951,-430.6488 741.6239,-427.5837"/>
<polygon fill="#191970" stroke="#191970" points="667.4706,-460.6218 659.331,-467.4039 669.9235,-467.178 667.4706,-460.6218"/>
</g>
<!-- Node44 -->
<g id="node22" class="node">
<title>Node44</title>
<polygon fill="none" stroke="#bfbfbf" points="717.6943,-336.5 717.6943,-372.5 877.6387,-372.5 877.6387,-336.5 717.6943,-336.5"/>
<text text-anchor="start" x="725.6943" y="-357.3" font-family="Helvetica,sans-Serif" font-size="14.00" fill="#000000">std::basic_stringstream</text>
<text text-anchor="middle" x="797.6665" y="-343.3" font-family="Helvetica,sans-Serif" font-size="14.00" fill="#000000">&lt; char &gt;</text>
</g>
<!-- Node41&#45;&gt;Node44 -->
<g id="edge21" class="edge">
<title>Node41&#45;&gt;Node44</title>
<path fill="none" stroke="#191970" d="M675.3319,-463.4569C677.5525,-461.9147 679.6818,-460.2649 681.6943,-458.5 709.7949,-433.8566 689.9079,-407.4971 717.6943,-382.5 721.8501,-378.7614 726.5342,-375.5157 731.4983,-372.6991"/>
<polygon fill="#191970" stroke="#191970" points="673.1069,-460.7125 666.3672,-468.8873 676.7337,-466.6997 673.1069,-460.7125"/>
</g>
<!-- Node45 -->
<g id="node23" class="node">
<title>Node45</title>
<polygon fill="none" stroke="#bfbfbf" points="717.6943,-281.5 717.6943,-317.5 877.6387,-317.5 877.6387,-281.5 717.6943,-281.5"/>
<text text-anchor="start" x="725.6943" y="-302.3" font-family="Helvetica,sans-Serif" font-size="14.00" fill="#000000">std::basic_stringstream</text>
<text text-anchor="middle" x="797.6665" y="-288.3" font-family="Helvetica,sans-Serif" font-size="14.00" fill="#000000">&lt; wchar_t &gt;</text>
</g>
<!-- Node41&#45;&gt;Node45 -->
<g id="edge22" class="edge">
<title>Node41&#45;&gt;Node45</title>
<path fill="none" stroke="#191970" d="M674.9583,-464.5143C677.3531,-462.675 679.6115,-460.6749 681.6943,-458.5 723.4561,-414.8906 676.4879,-371.6345 717.6943,-327.5 721.208,-323.7366 725.2557,-320.479 729.6258,-317.659"/>
<polygon fill="#191970" stroke="#191970" points="672.7857,-461.7539 666.3481,-470.1687 676.6281,-467.605 672.7857,-461.7539"/>
</g>
<!-- Node46 -->
<g id="node24" class="node">
<title>Node46</title>
<g id="a_node24"><a xlink:title="STL class. ">
<polygon fill="none" stroke="#bfbfbf" points="732.8667,-556.5 732.8667,-592.5 862.4663,-592.5 862.4663,-556.5 732.8667,-556.5"/>
<text text-anchor="start" x="740.8667" y="-577.3" font-family="Helvetica,sans-Serif" font-size="14.00" fill="#000000">std::basic_fstream</text>
<text text-anchor="middle" x="797.6665" y="-563.3" font-family="Helvetica,sans-Serif" font-size="14.00" fill="#000000">&lt; Char &gt;</text>
</a>
</g>
</g>
<!-- Node41&#45;&gt;Node46 -->
<g id="edge23" class="edge">
<title>Node41&#45;&gt;Node46</title>
<path fill="none" stroke="#191970" d="M671.1097,-507.7889C674.7587,-509.5709 678.3094,-511.4731 681.6943,-513.5 700.5759,-524.8062 698.8318,-536.162 717.6943,-547.5 723.2206,-550.8218 729.2097,-553.7993 735.3392,-556.4527"/>
<polygon fill="#191970" stroke="#191970" points="672.4283,-504.5439 661.8753,-503.6041 669.539,-510.9198 672.4283,-504.5439"/>
</g>
<!-- Node49 -->
<g id="node27" class="node">
<title>Node49</title>
<g id="a_node27"><a xlink:title="STL class. ">
<polygon fill="none" stroke="#bfbfbf" points="717.6943,-501.5 717.6943,-537.5 877.6387,-537.5 877.6387,-501.5 717.6943,-501.5"/>
<text text-anchor="start" x="725.6943" y="-522.3" font-family="Helvetica,sans-Serif" font-size="14.00" fill="#000000">std::basic_stringstream</text>
<text text-anchor="middle" x="797.6665" y="-508.3" font-family="Helvetica,sans-Serif" font-size="14.00" fill="#000000">&lt; Char &gt;</text>
</a>
</g>
</g>
<!-- Node41&#45;&gt;Node49 -->
<g id="edge26" class="edge">
<title>Node41&#45;&gt;Node49</title>
<path fill="none" stroke="#191970" d="M676.5146,-498.8874C690.0038,-501.1824 704.0342,-503.5696 717.56,-505.8708"/>
<polygon fill="#191970" stroke="#191970" points="676.7676,-495.3802 666.3222,-497.1533 675.5935,-502.2811 676.7676,-495.3802"/>
</g>
<!-- Node47 -->
<g id="node25" class="node">
<title>Node47</title>
<g id="a_node25"><a xlink:title="STL class. ">
<polygon fill="none" stroke="#bfbfbf" points="933.8662,-600.5 933.8662,-622.5 1022.9971,-622.5 1022.9971,-600.5 933.8662,-600.5"/>
<text text-anchor="middle" x="978.4316" y="-607.3" font-family="Helvetica,sans-Serif" font-size="14.00" fill="#000000">std::fstream</text>
</a>
</g>
</g>
<!-- Node46&#45;&gt;Node47 -->
<g id="edge24" class="edge">
<title>Node46&#45;&gt;Node47</title>
<path fill="none" stroke="#191970" d="M872.7498,-589.8685C893.5016,-594.1161 915.3617,-598.5905 933.7812,-602.3607"/>
<polygon fill="#191970" stroke="#191970" points="873.1702,-586.382 862.6715,-587.8056 871.7665,-593.2398 873.1702,-586.382"/>
</g>
<!-- Node48 -->
<g id="node26" class="node">
<title>Node48</title>
<g id="a_node26"><a xlink:title="STL class. ">
<polygon fill="none" stroke="#bfbfbf" points="928.811,-559.5 928.811,-581.5 1028.0522,-581.5 1028.0522,-559.5 928.811,-559.5"/>
<text text-anchor="middle" x="978.4316" y="-566.3" font-family="Helvetica,sans-Serif" font-size="14.00" fill="#000000">std::wfstream</text>
</a>
</g>
</g>
<!-- Node46&#45;&gt;Node48 -->
<g id="edge25" class="edge">
<title>Node46&#45;&gt;Node48</title>
<path fill="none" stroke="#191970" d="M872.7461,-572.8386C891.6336,-572.4207 911.4393,-571.9824 928.7336,-571.5997"/>
<polygon fill="#191970" stroke="#191970" points="872.5916,-569.3411 862.6715,-573.0616 872.7465,-576.3394 872.5916,-569.3411"/>
</g>
<!-- Node50 -->
<g id="node28" class="node">
<title>Node50</title>
<g id="a_node28"><a xlink:title="STL class. ">
<polygon fill="none" stroke="#bfbfbf" points="918.6938,-515.5 918.6938,-537.5 1038.1694,-537.5 1038.1694,-515.5 918.6938,-515.5"/>
<text text-anchor="middle" x="978.4316" y="-522.3" font-family="Helvetica,sans-Serif" font-size="14.00" fill="#000000">std::stringstream</text>
</a>
</g>
</g>
<!-- Node49&#45;&gt;Node50 -->
<g id="edge27" class="edge">
<title>Node49&#45;&gt;Node50</title>
<path fill="none" stroke="#191970" d="M888.052,-523.0001C898.3819,-523.4001 908.7118,-523.8001 918.5018,-524.1793"/>
<polygon fill="#191970" stroke="#191970" points="887.8701,-519.4905 877.7421,-522.6009 887.5992,-526.4853 887.8701,-519.4905"/>
</g>
<!-- Node51 -->
<g id="node29" class="node">
<title>Node51</title>
<g id="a_node29"><a xlink:title="STL class. ">
<polygon fill="none" stroke="#bfbfbf" points="913.6387,-474.5 913.6387,-496.5 1043.2246,-496.5 1043.2246,-474.5 913.6387,-474.5"/>
<text text-anchor="middle" x="978.4316" y="-481.3" font-family="Helvetica,sans-Serif" font-size="14.00" fill="#000000">std::wstringstream</text>
</a>
</g>
</g>
<!-- Node49&#45;&gt;Node51 -->
<g id="edge28" class="edge">
<title>Node49&#45;&gt;Node51</title>
<path fill="none" stroke="#191970" d="M887.7404,-502.5581C898.649,-500.5063 909.5637,-498.4533 919.8487,-496.5188"/>
<polygon fill="#191970" stroke="#191970" points="886.9228,-499.1504 877.7421,-504.4386 888.2168,-506.0298 886.9228,-499.1504"/>
</g>
<!-- Node30 -->
<g id="node31" class="node">
<title>Node30</title>
<g id="a_node31"><a xlink:title="STL class. ">
<polygon fill="none" stroke="#bfbfbf" points="736.3735,-52.5 736.3735,-74.5 858.9595,-74.5 858.9595,-52.5 736.3735,-52.5"/>
<text text-anchor="middle" x="797.6665" y="-59.3" font-family="Helvetica,sans-Serif" font-size="14.00" fill="#000000">std::istringstream</text>
</a>
</g>
</g>
<!-- Node29&#45;&gt;Node30 -->
<g id="edge30" class="edge">
<title>Node29&#45;&gt;Node30</title>
<path fill="none" stroke="#191970" d="M689.7102,-61.3391C705.4857,-61.6549 721.5302,-61.976 736.257,-62.2708"/>
<polygon fill="#191970" stroke="#191970" points="689.4669,-57.8336 679.3989,-61.1327 689.3268,-64.8322 689.4669,-57.8336"/>
</g>
<!-- Node31 -->
<g id="node32" class="node">
<title>Node31</title>
<g id="a_node32"><a xlink:title="STL class. ">
<polygon fill="none" stroke="#bfbfbf" points="731.3184,-11.5 731.3184,-33.5 864.0146,-33.5 864.0146,-11.5 731.3184,-11.5"/>
<text text-anchor="middle" x="797.6665" y="-18.3" font-family="Helvetica,sans-Serif" font-size="14.00" fill="#000000">std::wistringstream</text>
</a>
</g>
</g>
<!-- Node29&#45;&gt;Node31 -->
<g id="edge31" class="edge">
<title>Node29&#45;&gt;Node31</title>
<path fill="none" stroke="#191970" d="M689.5976,-42.509C706.0649,-39.4601 722.8294,-36.3561 738.0861,-33.5313"/>
<polygon fill="#191970" stroke="#191970" points="688.5945,-39.1352 679.3989,-44.3973 689.869,-46.0182 688.5945,-39.1352"/>
</g>
<!-- Node34&#45;&gt;Node35 -->
<g id="edge35" class="edge">
<title>Node34&#45;&gt;Node35</title>
<path fill="none" stroke="#191970" d="M422.6991,-585.0349C438.4143,-550.6682 469.7955,-492.2397 513.9639,-458.5 518.8431,-454.7728 524.2451,-451.5267 529.8874,-448.7025"/>
<polygon fill="#191970" stroke="#191970" points="419.3722,-583.9025 418.5059,-594.4619 425.768,-586.7475 419.3722,-583.9025"/>
</g>
<!-- Node34&#45;&gt;Node36 -->
<g id="edge36" class="edge">
<title>Node34&#45;&gt;Node36</title>
<path fill="none" stroke="#191970" d="M460.9796,-590.212C477.6978,-582.9867 496.5277,-575.1312 513.9639,-568.5 522.8593,-565.117 532.3651,-561.7303 541.6638,-558.5401"/>
<polygon fill="#191970" stroke="#191970" points="459.1787,-587.1787 451.4068,-594.3793 461.9727,-593.5969 459.1787,-587.1787"/>
</g>
<!-- Node34&#45;&gt;Node41 -->
<g id="edge41" class="edge">
<title>Node34&#45;&gt;Node41</title>
<path fill="none" stroke="#191970" d="M432.2517,-586.5455C451.4554,-564.3708 481.6943,-533.0425 513.9639,-513.5 520.1349,-509.7628 526.8669,-506.4541 533.7458,-503.5424"/>
<polygon fill="#191970" stroke="#191970" points="429.5023,-584.3759 425.6927,-594.2621 434.8359,-588.9094 429.5023,-584.3759"/>
</g>
<!-- Node37 -->
<g id="node36" class="node">
<title>Node37</title>
<polygon fill="none" stroke="#bfbfbf" points="529.1362,-893.5 529.1362,-929.5 666.522,-929.5 666.522,-893.5 529.1362,-893.5"/>
<text text-anchor="start" x="537.1362" y="-914.3" font-family="Helvetica,sans-Serif" font-size="14.00" fill="#000000">std::basic_ofstream</text>
<text text-anchor="middle" x="597.8291" y="-900.3" font-family="Helvetica,sans-Serif" font-size="14.00" fill="#000000">&lt; char &gt;</text>
</g>
<!-- Node34&#45;&gt;Node37 -->
<g id="edge37" class="edge">
<title>Node34&#45;&gt;Node37</title>
<path fill="none" stroke="#191970" d="M475.3561,-637.435C476.2693,-638.4179 477.1404,-639.439 477.9639,-640.5 545.1766,-727.0947 443.1023,-800.8649 513.9639,-884.5 518.2156,-889.5182 523.4052,-893.6124 529.0976,-896.9513"/>
<polygon fill="#191970" stroke="#191970" points="477.4379,-634.6048 467.6187,-630.6258 472.8134,-639.8597 477.4379,-634.6048"/>
</g>
<!-- Node38 -->
<g id="node37" class="node">
<title>Node38</title>
<polygon fill="none" stroke="#bfbfbf" points="529.1362,-838.5 529.1362,-874.5 666.522,-874.5 666.522,-838.5 529.1362,-838.5"/>
<text text-anchor="start" x="537.1362" y="-859.3" font-family="Helvetica,sans-Serif" font-size="14.00" fill="#000000">std::basic_ofstream</text>
<text text-anchor="middle" x="597.8291" y="-845.3" font-family="Helvetica,sans-Serif" font-size="14.00" fill="#000000">&lt; wchar_t &gt;</text>
</g>
<!-- Node34&#45;&gt;Node38 -->
<g id="edge38" class="edge">
<title>Node34&#45;&gt;Node38</title>
<path fill="none" stroke="#191970" d="M474.9009,-637.0775C475.9762,-638.1698 476.9998,-639.31 477.9639,-640.5 531.7928,-706.9413 457.3374,-765.4263 513.9639,-829.5 518.2181,-834.3138 523.3338,-838.2748 528.9138,-841.5333"/>
<polygon fill="#191970" stroke="#191970" points="477.0417,-634.3046 467.1382,-630.54 472.5326,-639.6588 477.0417,-634.3046"/>
</g>
<!-- Node39 -->
<g id="node38" class="node">
<title>Node39</title>
<polygon fill="none" stroke="#bfbfbf" points="513.9639,-783.5 513.9639,-819.5 681.6943,-819.5 681.6943,-783.5 513.9639,-783.5"/>
<text text-anchor="start" x="521.9639" y="-804.3" font-family="Helvetica,sans-Serif" font-size="14.00" fill="#000000">std::basic_ostringstream</text>
<text text-anchor="middle" x="597.8291" y="-790.3" font-family="Helvetica,sans-Serif" font-size="14.00" fill="#000000">&lt; char &gt;</text>
</g>
<!-- Node34&#45;&gt;Node39 -->
<g id="edge39" class="edge">
<title>Node34&#45;&gt;Node39</title>
<path fill="none" stroke="#191970" d="M474.697,-637.0954C475.8388,-638.1828 476.9304,-639.317 477.9639,-640.5 518.535,-686.9418 471.4399,-729.8393 513.9639,-774.5 517.1281,-777.8233 520.7025,-780.7384 524.5474,-783.2955"/>
<polygon fill="#191970" stroke="#191970" points="476.5226,-634.0747 466.5214,-630.5779 472.1591,-639.5483 476.5226,-634.0747"/>
</g>
<!-- Node40 -->
<g id="node39" class="node">
<title>Node40</title>
<polygon fill="none" stroke="#bfbfbf" points="513.9639,-728.5 513.9639,-764.5 681.6943,-764.5 681.6943,-728.5 513.9639,-728.5"/>
<text text-anchor="start" x="521.9639" y="-749.3" font-family="Helvetica,sans-Serif" font-size="14.00" fill="#000000">std::basic_ostringstream</text>
<text text-anchor="middle" x="597.8291" y="-735.3" font-family="Helvetica,sans-Serif" font-size="14.00" fill="#000000">&lt; wchar_t &gt;</text>
</g>
<!-- Node34&#45;&gt;Node40 -->
<g id="edge40" class="edge">
<title>Node34&#45;&gt;Node40</title>
<path fill="none" stroke="#191970" d="M473.3718,-636.4644C474.9734,-637.7448 476.5094,-639.0891 477.9639,-640.5 505.6589,-667.3659 485.1431,-693.8455 513.9639,-719.5 517.7342,-722.8561 521.926,-725.7956 526.3681,-728.3702"/>
<polygon fill="#191970" stroke="#191970" points="475.1033,-633.4059 464.8919,-630.5815 471.1132,-639.1574 475.1033,-633.4059"/>
</g>
<!-- Node52 -->
<g id="node40" class="node">
<title>Node52</title>
<g id="a_node40"><a xlink:title="STL class. ">
<polygon fill="none" stroke="#bfbfbf" points="529.1362,-673.5 529.1362,-709.5 666.522,-709.5 666.522,-673.5 529.1362,-673.5"/>
<text text-anchor="start" x="537.1362" y="-694.3" font-family="Helvetica,sans-Serif" font-size="14.00" fill="#000000">std::basic_ofstream</text>
<text text-anchor="middle" x="597.8291" y="-680.3" font-family="Helvetica,sans-Serif" font-size="14.00" fill="#000000">&lt; Char &gt;</text>
</a>
</g>
</g>
<!-- Node34&#45;&gt;Node52 -->
<g id="edge42" class="edge">
<title>Node34&#45;&gt;Node52</title>
<path fill="none" stroke="#191970" d="M467.0567,-634.9765C470.7854,-636.7672 474.4518,-638.615 477.9639,-640.5 494.9072,-649.594 496.6464,-656.1404 513.9639,-664.5 520.7136,-667.7583 527.9519,-670.7584 535.2446,-673.4799"/>
<polygon fill="#191970" stroke="#191970" points="468.2581,-631.6759 457.7127,-630.6537 465.319,-638.029 468.2581,-631.6759"/>
</g>
<!-- Node55 -->
<g id="node43" class="node">
<title>Node55</title>
<g id="a_node43"><a xlink:title="STL class. ">
<polygon fill="none" stroke="#bfbfbf" points="513.9639,-618.5 513.9639,-654.5 681.6943,-654.5 681.6943,-618.5 513.9639,-618.5"/>
<text text-anchor="start" x="521.9639" y="-639.3" font-family="Helvetica,sans-Serif" font-size="14.00" fill="#000000">std::basic_ostringstream</text>
<text text-anchor="middle" x="597.8291" y="-625.3" font-family="Helvetica,sans-Serif" font-size="14.00" fill="#000000">&lt; Char &gt;</text>
</a>
</g>
</g>
<!-- Node34&#45;&gt;Node55 -->
<g id="edge45" class="edge">
<title>Node34&#45;&gt;Node55</title>
<path fill="none" stroke="#191970" d="M487.9788,-622.3723C496.5177,-623.4705 505.2476,-624.5933 513.87,-625.7022"/>
<polygon fill="#191970" stroke="#191970" points="488.4252,-618.901 478.0604,-621.0968 487.5322,-625.8438 488.4252,-618.901"/>
</g>
<!-- Node58 -->
<g id="node46" class="node">
<title>Node58</title>
<g id="a_node46"><a xlink:title="STL class. ">
<polygon fill="none" stroke="#bfbfbf" points="551.3154,-577.5 551.3154,-599.5 644.3428,-599.5 644.3428,-577.5 551.3154,-577.5"/>
<text text-anchor="middle" x="597.8291" y="-584.3" font-family="Helvetica,sans-Serif" font-size="14.00" fill="#000000">std::ostream</text>
</a>
</g>
</g>
<!-- Node34&#45;&gt;Node58 -->
<g id="edge48" class="edge">
<title>Node34&#45;&gt;Node58</title>
<path fill="none" stroke="#191970" d="M488.0954,-602.6127C509.4434,-599.8671 531.9759,-596.9693 551.0313,-594.5186"/>
<polygon fill="#191970" stroke="#191970" points="487.5322,-599.1562 478.0604,-603.9032 488.4252,-606.099 487.5322,-599.1562"/>
</g>
<!-- Node59 -->
<g id="node47" class="node">
<title>Node59</title>
<g id="a_node47"><a xlink:title="STL class. ">
<polygon fill="none" stroke="#bfbfbf" points="546.2603,-948.5 546.2603,-970.5 649.3979,-970.5 649.3979,-948.5 546.2603,-948.5"/>
<text text-anchor="middle" x="597.8291" y="-955.3" font-family="Helvetica,sans-Serif" font-size="14.00" fill="#000000">std::wostream</text>
</a>
</g>
</g>
<!-- Node34&#45;&gt;Node59 -->
<g id="edge49" class="edge">
<title>Node34&#45;&gt;Node59</title>
<path fill="none" stroke="#191970" d="M475.3952,-637.405C476.2966,-638.397 477.1546,-639.4282 477.9639,-640.5 558.6167,-747.3203 424.8782,-839.6041 513.9639,-939.5 522.2327,-948.7722 533.9554,-954.1343 546.0232,-957.1471"/>
<polygon fill="#191970" stroke="#191970" points="477.5137,-634.6039 467.7286,-630.5416 472.8447,-639.8194 477.5137,-634.6039"/>
</g>
<!-- Node53 -->
<g id="node41" class="node">
<title>Node53</title>
<g id="a_node41"><a xlink:title="STL class. ">
<polygon fill="none" stroke="#bfbfbf" points="749.208,-734.5 749.208,-756.5 846.125,-756.5 846.125,-734.5 749.208,-734.5"/>
<text text-anchor="middle" x="797.6665" y="-741.3" font-family="Helvetica,sans-Serif" font-size="14.00" fill="#000000">std::ofstream</text>
</a>
</g>
</g>
<!-- Node52&#45;&gt;Node53 -->
<g id="edge43" class="edge">
<title>Node52&#45;&gt;Node53</title>
<path fill="none" stroke="#191970" d="M669.6489,-712.2676C685.4506,-716.7262 702.1174,-721.3441 717.6943,-725.5 728.895,-728.4883 741.014,-731.5879 752.3488,-734.4291"/>
<polygon fill="#191970" stroke="#191970" points="670.5147,-708.8752 659.9394,-709.5176 668.6071,-715.6102 670.5147,-708.8752"/>
</g>
<!-- Node54 -->
<g id="node42" class="node">
<title>Node54</title>
<g id="a_node42"><a xlink:title="STL class. ">
<polygon fill="none" stroke="#bfbfbf" points="744.1528,-693.5 744.1528,-715.5 851.1802,-715.5 851.1802,-693.5 744.1528,-693.5"/>
<text text-anchor="middle" x="797.6665" y="-700.3" font-family="Helvetica,sans-Serif" font-size="14.00" fill="#000000">std::wofstream</text>
</a>
</g>
</g>
<!-- Node52&#45;&gt;Node54 -->
<g id="edge44" class="edge">
<title>Node52&#45;&gt;Node54</title>
<path fill="none" stroke="#191970" d="M676.8174,-696.6384C699.3163,-698.102 723.2976,-699.6621 743.9166,-701.0034"/>
<polygon fill="#191970" stroke="#191970" points="676.8079,-693.1305 666.6018,-695.9739 676.3535,-700.1157 676.8079,-693.1305"/>
</g>
<!-- Node56 -->
<g id="node44" class="node">
<title>Node56</title>
<g id="a_node44"><a xlink:title="STL class. ">
<polygon fill="none" stroke="#bfbfbf" points="734.0356,-652.5 734.0356,-674.5 861.2974,-674.5 861.2974,-652.5 734.0356,-652.5"/>
<text text-anchor="middle" x="797.6665" y="-659.3" font-family="Helvetica,sans-Serif" font-size="14.00" fill="#000000">std::ostringstream</text>
</a>
</g>
</g>
<!-- Node55&#45;&gt;Node56 -->
<g id="edge46" class="edge">
<title>Node55&#45;&gt;Node56</title>
<path fill="none" stroke="#191970" d="M691.9709,-649.2195C706.1233,-651.1316 720.4307,-653.0647 733.7524,-654.8646"/>
<polygon fill="#191970" stroke="#191970" points="692.0882,-645.7036 681.7096,-647.8331 691.1509,-652.6406 692.0882,-645.7036"/>
</g>
<!-- Node57 -->
<g id="node45" class="node">
<title>Node57</title>
<g id="a_node45"><a xlink:title="STL class. ">
<polygon fill="none" stroke="#bfbfbf" points="728.9805,-611.5 728.9805,-633.5 866.3525,-633.5 866.3525,-611.5 728.9805,-611.5"/>
<text text-anchor="middle" x="797.6665" y="-618.3" font-family="Helvetica,sans-Serif" font-size="14.00" fill="#000000">std::wostringstream</text>
</a>
</g>
</g>
<!-- Node55&#45;&gt;Node57 -->
<g id="edge47" class="edge">
<title>Node55&#45;&gt;Node57</title>
<path fill="none" stroke="#191970" d="M691.7029,-629.9235C704.2165,-629.0468 716.8569,-628.1613 728.8353,-627.3221"/>
<polygon fill="#191970" stroke="#191970" points="691.4405,-626.4332 681.7096,-630.6236 691.9297,-633.4161 691.4405,-626.4332"/>
</g>
</g>
</svg>
