<?xml version="1.0" encoding="UTF-8" standalone="no"?>
<!DOCTYPE svg PUBLIC "-//W3C//DTD SVG 1.1//EN"
 "http://www.w3.org/Graphics/SVG/1.1/DTD/svg11.dtd">
<!-- Generated by graphviz version 2.40.1 (20161225.0304)
 -->
<!-- Title: Graphical Class Hierarchy Pages: 1 -->
<svg width="350pt" height="277pt"
 viewBox="0.00 0.00 350.39 277.00" xmlns="http://www.w3.org/2000/svg" xmlns:xlink="http://www.w3.org/1999/xlink">
<g id="graph0" class="graph" transform="scale(1 1) rotate(0) translate(4 273)">
<title>Graphical Class Hierarchy</title>
<!-- Node23 -->
<g id="node1" class="node">
<title>Node23</title>
<g id="a_node1"><a xlink:href="de/db1/a00197.html" target="_top" xlink:title="MailReceiver">
<polygon fill="none" stroke="#000000" points="0,-246.5 0,-268.5 96.9102,-268.5 96.9102,-246.5 0,-246.5"/>
<text text-anchor="middle" x="48.4551" y="-253.3" font-family="Helvetica,sans-Serif" font-size="14.00" fill="#000000">MailReceiver</text>
</a>
</g>
</g>
<!-- Node0 -->
<g id="node2" class="node">
<title>Node0</title>
<g id="a_node2"><a xlink:href="d3/de5/a00209.html" target="_top" xlink:title="MainGameLoop">
<polygon fill="none" stroke="#000000" points="179.8423,-246.5 179.8423,-268.5 295.4556,-268.5 295.4556,-246.5 179.8423,-246.5"/>
<text text-anchor="middle" x="237.6489" y="-253.3" font-family="Helvetica,sans-Serif" font-size="14.00" fill="#000000">MainGameLoop</text>
</a>
</g>
</g>
<!-- Node23&#45;&gt;Node0 -->
<g id="edge1" class="edge">
<title>Node23&#45;&gt;Node0</title>
<path fill="none" stroke="#191970" d="M107.1788,-257.5C130.2517,-257.5 156.667,-257.5 179.6673,-257.5"/>
<polygon fill="#191970" stroke="#191970" points="107.1772,-254.0001 97.1772,-257.5 107.1772,-261.0001 107.1772,-254.0001"/>
</g>
<!-- Node22 -->
<g id="node3" class="node">
<title>Node22</title>
<g id="a_node3"><a xlink:href="d5/d13/a00205.html" target="_top" xlink:title="MailSender">
<polygon fill="none" stroke="#000000" points="5.0483,-185.5 5.0483,-207.5 91.8618,-207.5 91.8618,-185.5 5.0483,-185.5"/>
<text text-anchor="middle" x="48.4551" y="-192.3" font-family="Helvetica,sans-Serif" font-size="14.00" fill="#000000">MailSender</text>
</a>
</g>
</g>
<!-- Node4 -->
<g id="node4" class="node">
<title>Node4</title>
<g id="a_node4"><a xlink:href="d8/d64/a00181.html" target="_top" xlink:title="ServerConnection">
<polygon fill="none" stroke="#000000" points="173.6182,-164.5 173.6182,-186.5 301.6797,-186.5 301.6797,-164.5 173.6182,-164.5"/>
<text text-anchor="middle" x="237.6489" y="-171.3" font-family="Helvetica,sans-Serif" font-size="14.00" fill="#000000">ServerConnection</text>
</a>
</g>
</g>
<!-- Node22&#45;&gt;Node4 -->
<g id="edge2" class="edge">
<title>Node22&#45;&gt;Node4</title>
<path fill="none" stroke="#191970" d="M102.5553,-190.495C124.6966,-188.0374 150.4866,-185.1748 173.5635,-182.6133"/>
<polygon fill="#191970" stroke="#191970" points="101.8883,-187.0475 92.3355,-191.6294 102.6606,-194.0047 101.8883,-187.0475"/>
</g>
<!-- Node5 -->
<g id="node5" class="node">
<title>Node5</title>
<g id="a_node5"><a xlink:href="de/df3/a00185.html" target="_top" xlink:title="ServerWorker">
<polygon fill="none" stroke="#000000" points="186.5996,-205.5 186.5996,-227.5 288.6982,-227.5 288.6982,-205.5 186.5996,-205.5"/>
<text text-anchor="middle" x="237.6489" y="-212.3" font-family="Helvetica,sans-Serif" font-size="14.00" fill="#000000">ServerWorker</text>
</a>
</g>
</g>
<!-- Node22&#45;&gt;Node5 -->
<g id="edge3" class="edge">
<title>Node22&#45;&gt;Node5</title>
<path fill="none" stroke="#191970" d="M102.5213,-202.2154C128.8474,-204.9984 160.3382,-208.3274 186.2944,-211.0712"/>
<polygon fill="#191970" stroke="#191970" points="102.648,-198.7094 92.3355,-201.1387 101.9121,-205.6706 102.648,-198.7094"/>
</g>
<!-- Node1 -->
<g id="node6" class="node">
<title>Node1</title>
<polygon fill="none" stroke="#bfbfbf" points="12.8311,-123.5 12.8311,-145.5 84.0791,-145.5 84.0791,-123.5 12.8311,-123.5"/>
<text text-anchor="middle" x="48.4551" y="-130.3" font-family="Helvetica,sans-Serif" font-size="14.00" fill="#000000">QThread</text>
</g>
<!-- Node1&#45;&gt;Node0 -->
<g id="edge4" class="edge">
<title>Node1&#45;&gt;Node0</title>
<path fill="none" stroke="#191970" d="M71.4339,-151.8135C80.0053,-158.912 89.4555,-167.5573 96.9102,-176.5 117.0672,-200.6807 107.1645,-219.3845 132.9102,-237.5 146.5362,-247.0877 163.5267,-252.406 179.832,-255.2718"/>
<polygon fill="#191970" stroke="#191970" points="73.5724,-149.042 63.5792,-145.5224 69.1964,-154.5056 73.5724,-149.042"/>
</g>
<!-- Node1&#45;&gt;Node4 -->
<g id="edge6" class="edge">
<title>Node1&#45;&gt;Node4</title>
<path fill="none" stroke="#191970" d="M93.9695,-145.5836C106.5632,-148.5672 120.2495,-151.7326 132.9102,-154.5 148.401,-157.8861 165.2276,-161.3528 180.7697,-164.4687"/>
<polygon fill="#191970" stroke="#191970" points="94.6834,-142.1558 84.1442,-143.2409 93.0598,-148.9649 94.6834,-142.1558"/>
</g>
<!-- Node1&#45;&gt;Node5 -->
<g id="edge7" class="edge">
<title>Node1&#45;&gt;Node5</title>
<path fill="none" stroke="#191970" d="M67.6331,-152.502C83.8038,-166.6595 108.2031,-185.733 132.9102,-196.5 149.6265,-203.7847 168.9851,-208.4245 186.4779,-211.3763"/>
<polygon fill="#191970" stroke="#191970" points="69.7469,-149.696 59.9688,-145.6167 65.0688,-154.9033 69.7469,-149.696"/>
</g>
<!-- Node3 -->
<g id="node7" class="node">
<title>Node3</title>
<g id="a_node7"><a xlink:href="dd/d52/a00221.html" target="_top" xlink:title="receiveRespnceThread">
<polygon fill="none" stroke="#000000" points="157.2769,-82.5 157.2769,-104.5 318.021,-104.5 318.021,-82.5 157.2769,-82.5"/>
<text text-anchor="middle" x="237.6489" y="-89.3" font-family="Helvetica,sans-Serif" font-size="14.00" fill="#000000">receiveRespnceThread</text>
</a>
</g>
</g>
<!-- Node1&#45;&gt;Node3 -->
<g id="edge5" class="edge">
<title>Node1&#45;&gt;Node3</title>
<path fill="none" stroke="#191970" d="M93.9276,-122.7058C106.5212,-119.5724 120.2179,-116.2876 132.9102,-113.5 147.1041,-110.3826 162.4415,-107.2965 176.8866,-104.5156"/>
<polygon fill="#191970" stroke="#191970" points="92.9503,-119.3425 84.1046,-125.1738 94.656,-126.1315 92.9503,-119.3425"/>
</g>
<!-- Node6 -->
<g id="node8" class="node">
<title>Node6</title>
<g id="a_node8"><a xlink:href="dd/df4/a00193.html" target="_top" xlink:title="ServerWorker::ReceiverThread">
<polygon fill="none" stroke="#000000" points="132.9102,-41.5 132.9102,-63.5 342.3877,-63.5 342.3877,-41.5 132.9102,-41.5"/>
<text text-anchor="middle" x="237.6489" y="-48.3" font-family="Helvetica,sans-Serif" font-size="14.00" fill="#000000">ServerWorker::ReceiverThread</text>
</a>
</g>
</g>
<!-- Node1&#45;&gt;Node6 -->
<g id="edge8" class="edge">
<title>Node1&#45;&gt;Node6</title>
<path fill="none" stroke="#191970" d="M67.6331,-116.498C83.8038,-102.3405 108.2031,-83.267 132.9102,-72.5 141.141,-68.9131 150.0125,-65.9675 158.9865,-63.5488"/>
<polygon fill="#191970" stroke="#191970" points="65.0688,-114.0967 59.9688,-123.3833 69.7469,-119.304 65.0688,-114.0967"/>
</g>
<!-- Node7 -->
<g id="node9" class="node">
<title>Node7</title>
<g id="a_node9"><a xlink:href="dc/dfe/a00125.html" target="_top" xlink:title="SimpleConnection">
<polygon fill="none" stroke="#000000" points="172.8389,-.5 172.8389,-22.5 302.459,-22.5 302.459,-.5 172.8389,-.5"/>
<text text-anchor="middle" x="237.6489" y="-7.3" font-family="Helvetica,sans-Serif" font-size="14.00" fill="#000000">SimpleConnection</text>
</a>
</g>
</g>
<!-- Node1&#45;&gt;Node7 -->
<g id="edge9" class="edge">
<title>Node1&#45;&gt;Node7</title>
<path fill="none" stroke="#191970" d="M59.0811,-114.4521C72.8072,-90.6498 99.0174,-51.6482 132.9102,-31.5 144.9244,-24.3579 158.9622,-19.6889 172.7849,-16.6556"/>
<polygon fill="#191970" stroke="#191970" points="55.9411,-112.8967 54.1311,-123.3358 62.056,-116.3039 55.9411,-112.8967"/>
</g>
<!-- Node8 -->
<g id="node10" class="node">
<title>Node8</title>
<g id="a_node10"><a xlink:href="d0/de8/a00133.html" target="_top" xlink:title="SimpleConnection::Receiver">
<polygon fill="none" stroke="#000000" points="141.3286,-123.5 141.3286,-145.5 333.9692,-145.5 333.9692,-123.5 141.3286,-123.5"/>
<text text-anchor="middle" x="237.6489" y="-130.3" font-family="Helvetica,sans-Serif" font-size="14.00" fill="#000000">SimpleConnection::Receiver</text>
</a>
</g>
</g>
<!-- Node1&#45;&gt;Node8 -->
<g id="edge10" class="edge">
<title>Node1&#45;&gt;Node8</title>
<path fill="none" stroke="#191970" d="M94.859,-134.5C108.9609,-134.5 125.0124,-134.5 141.1381,-134.5"/>
<polygon fill="#191970" stroke="#191970" points="94.4864,-131.0001 84.4863,-134.5 94.4863,-138.0001 94.4864,-131.0001"/>
</g>
</g>
</svg>
