<?xml version="1.0" encoding="UTF-8" standalone="no"?>
<!DOCTYPE svg PUBLIC "-//W3C//DTD SVG 1.1//EN"
 "http://www.w3.org/Graphics/SVG/1.1/DTD/svg11.dtd">
<!-- Generated by graphviz version 2.40.1 (20161225.0304)
 -->
<!-- Title: Graphical Class Hierarchy Pages: 1 -->
<svg width="350pt" height="250pt"
 viewBox="0.00 0.00 350.39 250.00" xmlns="http://www.w3.org/2000/svg" xmlns:xlink="http://www.w3.org/1999/xlink">
<g id="graph0" class="graph" transform="scale(1 1) rotate(0) translate(4 246)">
<title>Graphical Class Hierarchy</title>
<!-- Node26 -->
<g id="node1" class="node">
<title>Node26</title>
<g id="a_node1"><a xlink:href="d3/d65/a00154.html" target="_top" xlink:title="MailReceiver">
<polygon fill="none" stroke="#000000" points="0,-219.5 0,-241.5 96.9102,-241.5 96.9102,-219.5 0,-219.5"/>
<text text-anchor="middle" x="48.4551" y="-226.3" font-family="Helvetica,sans-Serif" font-size="14.00" fill="#000000">MailReceiver</text>
</a>
</g>
</g>
<!-- Node0 -->
<g id="node2" class="node">
<title>Node0</title>
<g id="a_node2"><a xlink:href="d7/d03/a00254.html" target="_top" xlink:title="MainGameLoop">
<polygon fill="none" stroke="#000000" points="179.8423,-219.5 179.8423,-241.5 295.4556,-241.5 295.4556,-219.5 179.8423,-219.5"/>
<text text-anchor="middle" x="237.6489" y="-226.3" font-family="Helvetica,sans-Serif" font-size="14.00" fill="#000000">MainGameLoop</text>
</a>
</g>
</g>
<!-- Node26&#45;&gt;Node0 -->
<g id="edge1" class="edge">
<title>Node26&#45;&gt;Node0</title>
<path fill="none" stroke="#191970" d="M107.1788,-230.5C130.2517,-230.5 156.667,-230.5 179.6673,-230.5"/>
<polygon fill="#191970" stroke="#191970" points="107.1772,-227.0001 97.1772,-230.5 107.1772,-234.0001 107.1772,-227.0001"/>
</g>
<!-- Node25 -->
<g id="node3" class="node">
<title>Node25</title>
<g id="a_node3"><a xlink:href="db/d44/a00162.html" target="_top" xlink:title="MailSender">
<polygon fill="none" stroke="#000000" points="5.0483,-168.5 5.0483,-190.5 91.8618,-190.5 91.8618,-168.5 5.0483,-168.5"/>
<text text-anchor="middle" x="48.4551" y="-175.3" font-family="Helvetica,sans-Serif" font-size="14.00" fill="#000000">MailSender</text>
</a>
</g>
</g>
<!-- Node4 -->
<g id="node4" class="node">
<title>Node4</title>
<g id="a_node4"><a xlink:href="da/d2e/a00238.html" target="_top" xlink:title="ServerConnection">
<polygon fill="none" stroke="#000000" points="173.6182,-178.5 173.6182,-200.5 301.6797,-200.5 301.6797,-178.5 173.6182,-178.5"/>
<text text-anchor="middle" x="237.6489" y="-185.3" font-family="Helvetica,sans-Serif" font-size="14.00" fill="#000000">ServerConnection</text>
</a>
</g>
</g>
<!-- Node25&#45;&gt;Node4 -->
<g id="edge2" class="edge">
<title>Node25&#45;&gt;Node4</title>
<path fill="none" stroke="#191970" d="M102.5553,-182.3595C124.6966,-183.5298 150.4866,-184.893 173.5635,-186.1127"/>
<polygon fill="#191970" stroke="#191970" points="102.5063,-178.8521 92.3355,-181.8193 102.1368,-185.8424 102.5063,-178.8521"/>
</g>
<!-- Node5 -->
<g id="node5" class="node">
<title>Node5</title>
<g id="a_node5"><a xlink:href="d2/dc8/a00242.html" target="_top" xlink:title="ServerWorker">
<polygon fill="none" stroke="#000000" points="186.5996,-137.5 186.5996,-159.5 288.6982,-159.5 288.6982,-137.5 186.5996,-137.5"/>
<text text-anchor="middle" x="237.6489" y="-144.3" font-family="Helvetica,sans-Serif" font-size="14.00" fill="#000000">ServerWorker</text>
</a>
</g>
</g>
<!-- Node25&#45;&gt;Node5 -->
<g id="edge3" class="edge">
<title>Node25&#45;&gt;Node5</title>
<path fill="none" stroke="#191970" d="M102.5213,-170.6411C128.8474,-166.3275 160.3382,-161.1676 186.2944,-156.9146"/>
<polygon fill="#191970" stroke="#191970" points="101.6379,-167.2391 92.3355,-172.3101 102.7699,-174.147 101.6379,-167.2391"/>
</g>
<!-- Node2 -->
<g id="node6" class="node">
<title>Node2</title>
<polygon fill="none" stroke="#bfbfbf" points="12.8311,-116.5 12.8311,-138.5 84.0791,-138.5 84.0791,-116.5 12.8311,-116.5"/>
<text text-anchor="middle" x="48.4551" y="-123.3" font-family="Helvetica,sans-Serif" font-size="14.00" fill="#000000">QThread</text>
</g>
<!-- Node2&#45;&gt;Node0 -->
<g id="edge4" class="edge">
<title>Node2&#45;&gt;Node0</title>
<path fill="none" stroke="#191970" d="M77.8728,-144.3954C84.4962,-148.8688 91.2372,-154.0003 96.9102,-159.5 116.8305,-178.8121 109.5878,-195.4718 132.9102,-210.5 146.7599,-219.4243 163.639,-224.5608 179.7671,-227.4644"/>
<polygon fill="#191970" stroke="#191970" points="79.3341,-141.1752 69.0252,-138.7307 75.5597,-147.0704 79.3341,-141.1752"/>
</g>
<!-- Node2&#45;&gt;Node4 -->
<g id="edge5" class="edge">
<title>Node2&#45;&gt;Node4</title>
<path fill="none" stroke="#191970" d="M75.8241,-143.5001C91.9673,-152.3221 113.0633,-162.8108 132.9102,-169.5 145.8041,-173.8458 159.9279,-177.3448 173.5125,-180.125"/>
<polygon fill="#191970" stroke="#191970" points="77.3761,-140.3581 66.9385,-138.5397 73.964,-146.4702 77.3761,-140.3581"/>
</g>
<!-- Node2&#45;&gt;Node5 -->
<g id="edge6" class="edge">
<title>Node2&#45;&gt;Node5</title>
<path fill="none" stroke="#191970" d="M94.7186,-132.6351C122.4634,-135.7147 157.793,-139.6362 186.3851,-142.8099"/>
<polygon fill="#191970" stroke="#191970" points="94.8114,-129.124 84.4863,-131.4994 94.0391,-136.0813 94.8114,-129.124"/>
</g>
<!-- Node6 -->
<g id="node7" class="node">
<title>Node6</title>
<g id="a_node7"><a xlink:href="d0/da7/a00250.html" target="_top" xlink:title="ServerWorker::ReceiverThread">
<polygon fill="none" stroke="#000000" points="132.9102,-96.5 132.9102,-118.5 342.3877,-118.5 342.3877,-96.5 132.9102,-96.5"/>
<text text-anchor="middle" x="237.6489" y="-103.3" font-family="Helvetica,sans-Serif" font-size="14.00" fill="#000000">ServerWorker::ReceiverThread</text>
</a>
</g>
</g>
<!-- Node2&#45;&gt;Node6 -->
<g id="edge7" class="edge">
<title>Node2&#45;&gt;Node6</title>
<path fill="none" stroke="#191970" d="M94.6,-122.6219C106.5559,-121.3581 119.9263,-119.9447 133.5623,-118.5032"/>
<polygon fill="#191970" stroke="#191970" points="94.0629,-119.1591 84.4863,-123.6911 94.7989,-126.1203 94.0629,-119.1591"/>
</g>
<!-- Node7 -->
<g id="node8" class="node">
<title>Node7</title>
<g id="a_node8"><a xlink:href="d5/dcb/a00170.html" target="_top" xlink:title="SimpleConnection">
<polygon fill="none" stroke="#000000" points="172.8389,-55.5 172.8389,-77.5 302.459,-77.5 302.459,-55.5 172.8389,-55.5"/>
<text text-anchor="middle" x="237.6489" y="-62.3" font-family="Helvetica,sans-Serif" font-size="14.00" fill="#000000">SimpleConnection</text>
</a>
</g>
</g>
<!-- Node2&#45;&gt;Node7 -->
<g id="edge8" class="edge">
<title>Node2&#45;&gt;Node7</title>
<path fill="none" stroke="#191970" d="M76.5063,-111.568C92.5799,-103.0356 113.3832,-92.9779 132.9102,-86.5 145.5611,-82.3032 159.3809,-78.885 172.7113,-76.1395"/>
<polygon fill="#191970" stroke="#191970" points="74.7581,-108.5344 67.6344,-116.3768 78.0938,-114.6885 74.7581,-108.5344"/>
</g>
<!-- Node8 -->
<g id="node9" class="node">
<title>Node8</title>
<g id="a_node9"><a xlink:href="d9/d90/a00178.html" target="_top" xlink:title="SimpleConnection::Receiver\lThread">
<polygon fill="none" stroke="#000000" points="141.3286,-.5 141.3286,-36.5 333.9692,-36.5 333.9692,-.5 141.3286,-.5"/>
<text text-anchor="start" x="149.3286" y="-21.3" font-family="Helvetica,sans-Serif" font-size="14.00" fill="#000000">SimpleConnection::Receiver</text>
<text text-anchor="middle" x="237.6489" y="-7.3" font-family="Helvetica,sans-Serif" font-size="14.00" fill="#000000">Thread</text>
</a>
</g>
</g>
<!-- Node2&#45;&gt;Node8 -->
<g id="edge9" class="edge">
<title>Node2&#45;&gt;Node8</title>
<path fill="none" stroke="#191970" d="M63.0242,-108.4577C78.3956,-89.6853 104.3197,-61.5476 132.9102,-45.5 138.969,-42.0992 145.4643,-39.1175 152.1434,-36.5047"/>
<polygon fill="#191970" stroke="#191970" points="60.2313,-106.3462 56.7325,-116.3467 65.704,-110.7108 60.2313,-106.3462"/>
</g>
</g>
</svg>
