<?xml version="1.0" encoding="UTF-8" standalone="no"?>
<!DOCTYPE svg PUBLIC "-//W3C//DTD SVG 1.1//EN"
 "http://www.w3.org/Graphics/SVG/1.1/DTD/svg11.dtd">
<!-- Generated by graphviz version 2.40.1 (20161225.0304)
 -->
<!-- Title: Graphical Class Hierarchy Pages: 1 -->
<svg width="399pt" height="195pt"
 viewBox="0.00 0.00 398.53 195.00" xmlns="http://www.w3.org/2000/svg" xmlns:xlink="http://www.w3.org/1999/xlink">
<g id="graph0" class="graph" transform="scale(1 1) rotate(0) translate(4 191)">
<title>Graphical Class Hierarchy</title>
<!-- Node9 -->
<g id="node1" class="node">
<title>Node9</title>
<polygon fill="none" stroke="#bfbfbf" points="0,-82.5 0,-104.5 67.3516,-104.5 67.3516,-82.5 0,-82.5"/>
<text text-anchor="middle" x="33.6758" y="-89.3" font-family="Helvetica,sans-Serif" font-size="14.00" fill="#000000">QObject</text>
</g>
<!-- Node0 -->
<g id="node2" class="node">
<title>Node0</title>
<g id="a_node2"><a xlink:href="d7/d6e/a00190.html" target="_top" xlink:title="DiffCard">
<polygon fill="none" stroke="#000000" points="140.4434,-164.5 140.4434,-186.5 207.542,-186.5 207.542,-164.5 140.4434,-164.5"/>
<text text-anchor="middle" x="173.9927" y="-171.3" font-family="Helvetica,sans-Serif" font-size="14.00" fill="#000000">DiffCard</text>
</a>
</g>
</g>
<!-- Node9&#45;&gt;Node0 -->
<g id="edge1" class="edge">
<title>Node9&#45;&gt;Node0</title>
<path fill="none" stroke="#191970" d="M50.3355,-112.3436C63.4754,-126.1293 82.9375,-144.307 103.3516,-155.5 114.7515,-161.7506 128.2815,-166.1952 140.4345,-169.2808"/>
<polygon fill="#191970" stroke="#191970" points="52.7322,-109.7804 43.3701,-104.8203 47.5956,-114.5361 52.7322,-109.7804"/>
</g>
<!-- Node12 -->
<g id="node4" class="node">
<title>Node12</title>
<g id="a_node4"><a xlink:href="d9/d2a/a00270.html" target="_top" xlink:title="Gamer">
<polygon fill="none" stroke="#000000" points="144.5996,-123.5 144.5996,-145.5 203.3857,-145.5 203.3857,-123.5 144.5996,-123.5"/>
<text text-anchor="middle" x="173.9927" y="-130.3" font-family="Helvetica,sans-Serif" font-size="14.00" fill="#000000">Gamer</text>
</a>
</g>
</g>
<!-- Node9&#45;&gt;Node12 -->
<g id="edge3" class="edge">
<title>Node9&#45;&gt;Node12</title>
<path fill="none" stroke="#191970" d="M77.5007,-106.8313C86.0655,-109.402 94.9841,-112.0547 103.3516,-114.5 116.8094,-118.4329 131.7445,-122.6786 144.4026,-126.2421"/>
<polygon fill="#191970" stroke="#191970" points="78.2476,-103.4011 67.6631,-103.8686 76.229,-110.1037 78.2476,-103.4011"/>
</g>
<!-- Node13 -->
<g id="node5" class="node">
<title>Node13</title>
<g id="a_node5"><a xlink:href="dc/d9a/a00218.html" target="_top" xlink:title="IBaseGameElement">
<polygon fill="none" stroke="#000000" points="103.3516,-82.5 103.3516,-104.5 244.6338,-104.5 244.6338,-82.5 103.3516,-82.5"/>
<text text-anchor="middle" x="173.9927" y="-89.3" font-family="Helvetica,sans-Serif" font-size="14.00" fill="#000000">IBaseGameElement</text>
</a>
</g>
</g>
<!-- Node9&#45;&gt;Node13 -->
<g id="edge4" class="edge">
<title>Node9&#45;&gt;Node13</title>
<path fill="none" stroke="#191970" d="M77.897,-93.5C85.9639,-93.5 94.5633,-93.5 103.1759,-93.5"/>
<polygon fill="#191970" stroke="#191970" points="77.6426,-90.0001 67.6426,-93.5 77.6426,-97.0001 77.6426,-90.0001"/>
</g>
<!-- Node17 -->
<g id="node9" class="node">
<title>Node17</title>
<g id="a_node9"><a xlink:href="d7/d25/a00182.html" target="_top" xlink:title="InfinityDouble">
<polygon fill="none" stroke="#000000" points="123.5791,-41.5 123.5791,-63.5 224.4063,-63.5 224.4063,-41.5 123.5791,-41.5"/>
<text text-anchor="middle" x="173.9927" y="-48.3" font-family="Helvetica,sans-Serif" font-size="14.00" fill="#000000">InfinityDouble</text>
</a>
</g>
</g>
<!-- Node9&#45;&gt;Node17 -->
<g id="edge8" class="edge">
<title>Node9&#45;&gt;Node17</title>
<path fill="none" stroke="#191970" d="M77.459,-80.7067C96.2689,-75.2106 118.0391,-68.8494 136.1393,-63.5606"/>
<polygon fill="#191970" stroke="#191970" points="76.2596,-77.4108 67.6426,-83.575 78.2229,-84.1298 76.2596,-77.4108"/>
</g>
<!-- Node18 -->
<g id="node10" class="node">
<title>Node18</title>
<g id="a_node10"><a xlink:href="d9/d38/a00166.html" target="_top" xlink:title="MessageForServer">
<polygon fill="none" stroke="#000000" points="106.4722,-.5 106.4722,-22.5 241.5132,-22.5 241.5132,-.5 106.4722,-.5"/>
<text text-anchor="middle" x="173.9927" y="-7.3" font-family="Helvetica,sans-Serif" font-size="14.00" fill="#000000">MessageForServer</text>
</a>
</g>
</g>
<!-- Node9&#45;&gt;Node18 -->
<g id="edge9" class="edge">
<title>Node9&#45;&gt;Node18</title>
<path fill="none" stroke="#191970" d="M50.3355,-74.6564C63.4754,-60.8707 82.9375,-42.693 103.3516,-31.5 109.8339,-27.9458 117.0049,-24.9754 124.2199,-22.5069"/>
<polygon fill="#191970" stroke="#191970" points="47.5956,-72.4639 43.3701,-82.1797 52.7322,-77.2196 47.5956,-72.4639"/>
</g>
<!-- Node1 -->
<g id="node3" class="node">
<title>Node1</title>
<g id="a_node3"><a xlink:href="da/de7/a00210.html" target="_top" xlink:title="SimpleDiffCard">
<polygon fill="none" stroke="#000000" points="280.6338,-164.5 280.6338,-186.5 390.5254,-186.5 390.5254,-164.5 280.6338,-164.5"/>
<text text-anchor="middle" x="335.5796" y="-171.3" font-family="Helvetica,sans-Serif" font-size="14.00" fill="#000000">SimpleDiffCard</text>
</a>
</g>
</g>
<!-- Node0&#45;&gt;Node1 -->
<g id="edge2" class="edge">
<title>Node0&#45;&gt;Node1</title>
<path fill="none" stroke="#191970" d="M217.8837,-175.5C237.1693,-175.5 260.0277,-175.5 280.4463,-175.5"/>
<polygon fill="#191970" stroke="#191970" points="217.8666,-172.0001 207.8666,-175.5 217.8666,-179.0001 217.8666,-172.0001"/>
</g>
<!-- Node14 -->
<g id="node6" class="node">
<title>Node14</title>
<g id="a_node6"><a xlink:href="db/d53/a00202.html" target="_top" xlink:title="BaseBasis">
<polygon fill="none" stroke="#000000" points="294.5073,-123.5 294.5073,-145.5 376.6519,-145.5 376.6519,-123.5 294.5073,-123.5"/>
<text text-anchor="middle" x="335.5796" y="-130.3" font-family="Helvetica,sans-Serif" font-size="14.00" fill="#000000">BaseBasis</text>
</a>
</g>
</g>
<!-- Node13&#45;&gt;Node14 -->
<g id="edge5" class="edge">
<title>Node13&#45;&gt;Node14</title>
<path fill="none" stroke="#191970" d="M227.4808,-107.0717C249.2407,-112.5929 273.9952,-118.874 294.32,-124.0311"/>
<polygon fill="#191970" stroke="#191970" points="228.2741,-103.6622 217.7204,-104.5952 226.5525,-110.4472 228.2741,-103.6622"/>
</g>
<!-- Node15 -->
<g id="node7" class="node">
<title>Node15</title>
<g id="a_node7"><a xlink:href="d7/da0/a00198.html" target="_top" xlink:title="BaseBulet">
<polygon fill="none" stroke="#000000" points="295.6694,-82.5 295.6694,-104.5 375.4897,-104.5 375.4897,-82.5 295.6694,-82.5"/>
<text text-anchor="middle" x="335.5796" y="-89.3" font-family="Helvetica,sans-Serif" font-size="14.00" fill="#000000">BaseBulet</text>
</a>
</g>
</g>
<!-- Node13&#45;&gt;Node15 -->
<g id="edge6" class="edge">
<title>Node13&#45;&gt;Node15</title>
<path fill="none" stroke="#191970" d="M255.0494,-93.5C269.0637,-93.5 283.0674,-93.5 295.3739,-93.5"/>
<polygon fill="#191970" stroke="#191970" points="254.8671,-90.0001 244.867,-93.5 254.867,-97.0001 254.8671,-90.0001"/>
</g>
<!-- Node16 -->
<g id="node8" class="node">
<title>Node16</title>
<g id="a_node8"><a xlink:href="dc/d57/a00194.html" target="_top" xlink:title="BaseTank">
<polygon fill="none" stroke="#000000" points="296.8384,-41.5 296.8384,-63.5 374.3208,-63.5 374.3208,-41.5 296.8384,-41.5"/>
<text text-anchor="middle" x="335.5796" y="-48.3" font-family="Helvetica,sans-Serif" font-size="14.00" fill="#000000">BaseTank</text>
</a>
</g>
</g>
<!-- Node13&#45;&gt;Node16 -->
<g id="edge7" class="edge">
<title>Node13&#45;&gt;Node16</title>
<path fill="none" stroke="#191970" d="M227.5292,-79.916C250.1632,-74.173 276.03,-67.6097 296.7792,-62.345"/>
<polygon fill="#191970" stroke="#191970" points="226.5525,-76.5528 217.7204,-82.4048 228.2741,-83.3378 226.5525,-76.5528"/>
</g>
</g>
</svg>
