<?xml version="1.0" encoding="UTF-8" standalone="no"?>
<!DOCTYPE svg PUBLIC "-//W3C//DTD SVG 1.1//EN"
 "http://www.w3.org/Graphics/SVG/1.1/DTD/svg11.dtd">
<!-- Generated by graphviz version 2.40.1 (20161225.0304)
 -->
<!-- Title: Graphical Class Hierarchy Pages: 1 -->
<svg width="371pt" height="154pt"
 viewBox="0.00 0.00 370.78 154.00" xmlns="http://www.w3.org/2000/svg" xmlns:xlink="http://www.w3.org/1999/xlink">
<g id="graph0" class="graph" transform="scale(1 1) rotate(0) translate(4 150)">
<title>Graphical Class Hierarchy</title>
<!-- Node9 -->
<g id="node1" class="node">
<title>Node9</title>
<polygon fill="none" stroke="#bfbfbf" points="0,-41.5 0,-63.5 67.3516,-63.5 67.3516,-41.5 0,-41.5"/>
<text text-anchor="middle" x="33.6758" y="-48.3" font-family="Helvetica,sans-Serif" font-size="14.00" fill="#000000">QObject</text>
</g>
<!-- Node0 -->
<g id="node2" class="node">
<title>Node0</title>
<g id="a_node2"><a xlink:href="d2/df5/a00137.html" target="_top" xlink:title="IBaseGameElement">
<polygon fill="none" stroke="#000000" points="103.3516,-82.5 103.3516,-104.5 244.6338,-104.5 244.6338,-82.5 103.3516,-82.5"/>
<text text-anchor="middle" x="173.9927" y="-89.3" font-family="Helvetica,sans-Serif" font-size="14.00" fill="#000000">IBaseGameElement</text>
</a>
</g>
</g>
<!-- Node9&#45;&gt;Node0 -->
<g id="edge1" class="edge">
<title>Node9&#45;&gt;Node0</title>
<path fill="none" stroke="#191970" d="M77.5007,-65.8313C86.0655,-68.402 94.9841,-71.0547 103.3516,-73.5 113.3838,-76.4318 124.2369,-79.5374 134.3557,-82.4047"/>
<polygon fill="#191970" stroke="#191970" points="78.2476,-62.4011 67.6631,-62.8686 76.229,-69.1037 78.2476,-62.4011"/>
</g>
<!-- Node14 -->
<g id="node6" class="node">
<title>Node14</title>
<g id="a_node6"><a xlink:href="d6/d7d/a00161.html" target="_top" xlink:title="InfinityDouble">
<polygon fill="none" stroke="#000000" points="123.5791,-41.5 123.5791,-63.5 224.4063,-63.5 224.4063,-41.5 123.5791,-41.5"/>
<text text-anchor="middle" x="173.9927" y="-48.3" font-family="Helvetica,sans-Serif" font-size="14.00" fill="#000000">InfinityDouble</text>
</a>
</g>
</g>
<!-- Node9&#45;&gt;Node14 -->
<g id="edge5" class="edge">
<title>Node9&#45;&gt;Node14</title>
<path fill="none" stroke="#191970" d="M77.8214,-52.5C92.2754,-52.5 108.4456,-52.5 123.3413,-52.5"/>
<polygon fill="#191970" stroke="#191970" points="77.6426,-49.0001 67.6426,-52.5 77.6426,-56.0001 77.6426,-49.0001"/>
</g>
<!-- Node15 -->
<g id="node7" class="node">
<title>Node15</title>
<g id="a_node7"><a xlink:href="d8/dfa/a00121.html" target="_top" xlink:title="MessageForServer">
<polygon fill="none" stroke="#000000" points="106.4722,-.5 106.4722,-22.5 241.5132,-22.5 241.5132,-.5 106.4722,-.5"/>
<text text-anchor="middle" x="173.9927" y="-7.3" font-family="Helvetica,sans-Serif" font-size="14.00" fill="#000000">MessageForServer</text>
</a>
</g>
</g>
<!-- Node9&#45;&gt;Node15 -->
<g id="edge6" class="edge">
<title>Node9&#45;&gt;Node15</title>
<path fill="none" stroke="#191970" d="M77.5007,-39.1687C86.0655,-36.598 94.9841,-33.9453 103.3516,-31.5 113.3838,-28.5682 124.2369,-25.4626 134.3557,-22.5953"/>
<polygon fill="#191970" stroke="#191970" points="76.229,-35.8963 67.6631,-42.1314 78.2476,-42.5989 76.229,-35.8963"/>
</g>
<!-- Node1 -->
<g id="node3" class="node">
<title>Node1</title>
<g id="a_node3"><a xlink:href="da/d1e/a00149.html" target="_top" xlink:title="BaseBasis">
<polygon fill="none" stroke="#000000" points="280.6338,-123.5 280.6338,-145.5 362.7783,-145.5 362.7783,-123.5 280.6338,-123.5"/>
<text text-anchor="middle" x="321.7061" y="-130.3" font-family="Helvetica,sans-Serif" font-size="14.00" fill="#000000">BaseBasis</text>
</a>
</g>
</g>
<!-- Node0&#45;&gt;Node1 -->
<g id="edge2" class="edge">
<title>Node0&#45;&gt;Node1</title>
<path fill="none" stroke="#191970" d="M223.6445,-107.2816C242.6297,-112.5512 264.0141,-118.4867 281.9569,-123.467"/>
<polygon fill="#191970" stroke="#191970" points="224.5379,-103.8973 213.966,-104.5952 222.6656,-110.6423 224.5379,-103.8973"/>
</g>
<!-- Node2 -->
<g id="node4" class="node">
<title>Node2</title>
<g id="a_node4"><a xlink:href="da/d01/a00153.html" target="_top" xlink:title="BaseBulet">
<polygon fill="none" stroke="#000000" points="281.7959,-82.5 281.7959,-104.5 361.6162,-104.5 361.6162,-82.5 281.7959,-82.5"/>
<text text-anchor="middle" x="321.7061" y="-89.3" font-family="Helvetica,sans-Serif" font-size="14.00" fill="#000000">BaseBulet</text>
</a>
</g>
</g>
<!-- Node0&#45;&gt;Node2 -->
<g id="edge3" class="edge">
<title>Node0&#45;&gt;Node2</title>
<path fill="none" stroke="#191970" d="M254.8487,-93.5C264.0623,-93.5 273.1293,-93.5 281.4693,-93.5"/>
<polygon fill="#191970" stroke="#191970" points="254.8209,-90.0001 244.8208,-93.5 254.8208,-97.0001 254.8209,-90.0001"/>
</g>
<!-- Node3 -->
<g id="node5" class="node">
<title>Node3</title>
<g id="a_node5"><a xlink:href="d1/db7/a00157.html" target="_top" xlink:title="BaseTank">
<polygon fill="none" stroke="#000000" points="282.9648,-41.5 282.9648,-63.5 360.4473,-63.5 360.4473,-41.5 282.9648,-41.5"/>
<text text-anchor="middle" x="321.7061" y="-48.3" font-family="Helvetica,sans-Serif" font-size="14.00" fill="#000000">BaseTank</text>
</a>
</g>
</g>
<!-- Node0&#45;&gt;Node3 -->
<g id="edge4" class="edge">
<title>Node0&#45;&gt;Node3</title>
<path fill="none" stroke="#191970" d="M223.7651,-79.6849C242.9912,-74.3485 264.6623,-68.3333 282.7225,-63.3204"/>
<polygon fill="#191970" stroke="#191970" points="222.6656,-76.3577 213.966,-82.4048 224.5379,-83.1027 222.6656,-76.3577"/>
</g>
</g>
</svg>
