<?xml version="1.0" encoding="UTF-8" standalone="no"?>
<!DOCTYPE svg PUBLIC "-//W3C//DTD SVG 1.1//EN"
 "http://www.w3.org/Graphics/SVG/1.1/DTD/svg11.dtd">
<!-- Generated by graphviz version 2.40.1 (20161225.0304)
 -->
<!-- Title: Server/maingameloop.h Pages: 1 -->
<svg width="1129pt" height="326pt"
 viewBox="0.00 0.00 1129.07 326.00" xmlns="http://www.w3.org/2000/svg" xmlns:xlink="http://www.w3.org/1999/xlink">
<g id="graph0" class="graph" transform="scale(1 1) rotate(0) translate(4 322)">
<title>Server/maingameloop.h</title>
<!-- Node0 -->
<g id="node1" class="node">
<title>Node0</title>
<polygon fill="#bfbfbf" stroke="#000000" points="461.3589,-295.5 461.3589,-317.5 625.9927,-317.5 625.9927,-295.5 461.3589,-295.5"/>
<text text-anchor="middle" x="543.6758" y="-302.3" font-family="Helvetica,sans-Serif" font-size="14.00" fill="#000000">Server/maingameloop.h</text>
</g>
<!-- Node1 -->
<g id="node2" class="node">
<title>Node1</title>
<g id="a_node2"><a xlink:href="../../d4/dcf/imap_8h.html" target="_top" xlink:title="imap.h">
<polygon fill="none" stroke="#000000" points="64.6655,-177.5 64.6655,-199.5 122.686,-199.5 122.686,-177.5 64.6655,-177.5"/>
<text text-anchor="middle" x="93.6758" y="-184.3" font-family="Helvetica,sans-Serif" font-size="14.00" fill="#000000">imap.h</text>
</a>
</g>
</g>
<!-- Node0&#45;&gt;Node1 -->
<g id="edge1" class="edge">
<title>Node0&#45;&gt;Node1</title>
<path fill="none" stroke="#191970" d="M461.0317,-302.3664C343.2836,-295.7348 138.5384,-281.1693 112.6758,-259 98.6002,-246.9345 94.406,-225.6456 93.3968,-209.6096"/>
<polygon fill="#191970" stroke="#191970" points="96.8933,-209.4268 93.1247,-199.5249 89.8958,-209.6157 96.8933,-209.4268"/>
</g>
<!-- Node12 -->
<g id="node13" class="node">
<title>Node12</title>
<g id="a_node13"><a xlink:href="../../d2/d35/mailboxelement_8h.html" target="_top" xlink:title="connection/mailboxelement.h">
<polygon fill="none" stroke="#000000" points="623.0107,-236.5 623.0107,-258.5 820.3408,-258.5 820.3408,-236.5 623.0107,-236.5"/>
<text text-anchor="middle" x="721.6758" y="-243.3" font-family="Helvetica,sans-Serif" font-size="14.00" fill="#000000">connection/mailboxelement.h</text>
</a>
</g>
</g>
<!-- Node0&#45;&gt;Node12 -->
<g id="edge14" class="edge">
<title>Node0&#45;&gt;Node12</title>
<path fill="none" stroke="#191970" d="M577.1562,-295.4026C605.872,-285.8844 647.4267,-272.1106 678.6136,-261.7734"/>
<polygon fill="#191970" stroke="#191970" points="679.9545,-265.0163 688.3455,-258.5477 677.7521,-258.3718 679.9545,-265.0163"/>
</g>
<!-- Node15 -->
<g id="node16" class="node">
<title>Node15</title>
<polygon fill="none" stroke="#bfbfbf" points="465.0518,-118.5 465.0518,-140.5 536.2998,-140.5 536.2998,-118.5 465.0518,-118.5"/>
<text text-anchor="middle" x="500.6758" y="-125.3" font-family="Helvetica,sans-Serif" font-size="14.00" fill="#000000">QThread</text>
</g>
<!-- Node0&#45;&gt;Node15 -->
<g id="edge28" class="edge">
<title>Node0&#45;&gt;Node15</title>
<path fill="none" stroke="#191970" d="M540.9859,-295.4279C533.9575,-266.4969 514.954,-188.2732 505.7748,-150.4888"/>
<polygon fill="#191970" stroke="#191970" points="509.1265,-149.459 503.3646,-140.568 502.3243,-151.1116 509.1265,-149.459"/>
</g>
<!-- Node21 -->
<g id="node22" class="node">
<title>Node21</title>
<polygon fill="none" stroke="#bfbfbf" points="838.7104,-236.5 838.7104,-258.5 914.6411,-258.5 914.6411,-236.5 838.7104,-236.5"/>
<text text-anchor="middle" x="876.6758" y="-243.3" font-family="Helvetica,sans-Serif" font-size="14.00" fill="#000000">functional</text>
</g>
<!-- Node0&#45;&gt;Node21 -->
<g id="edge29" class="edge">
<title>Node0&#45;&gt;Node21</title>
<path fill="none" stroke="#191970" d="M619.5338,-295.4954C674.9695,-287.084 752.1551,-274.6101 828.6951,-259.1"/>
<polygon fill="#191970" stroke="#191970" points="829.4143,-262.5254 838.5106,-257.0933 828.0122,-255.6673 829.4143,-262.5254"/>
</g>
<!-- Node22 -->
<g id="node23" class="node">
<title>Node22</title>
<g id="a_node23"><a xlink:href="../../d4/dfd/basetank_8h.html" target="_top" xlink:title="GameElements/basetank.h">
<polygon fill="none" stroke="#000000" points="331.2417,-236.5 331.2417,-258.5 516.1099,-258.5 516.1099,-236.5 331.2417,-236.5"/>
<text text-anchor="middle" x="423.6758" y="-243.3" font-family="Helvetica,sans-Serif" font-size="14.00" fill="#000000">GameElements/basetank.h</text>
</a>
</g>
</g>
<!-- Node0&#45;&gt;Node22 -->
<g id="edge30" class="edge">
<title>Node0&#45;&gt;Node22</title>
<path fill="none" stroke="#191970" d="M521.1047,-295.4026C502.5,-286.2552 475.9011,-273.1775 455.1948,-262.9969"/>
<polygon fill="#191970" stroke="#191970" points="456.6639,-259.8191 446.1457,-258.5477 453.5754,-266.1009 456.6639,-259.8191"/>
</g>
<!-- Node24 -->
<g id="node25" class="node">
<title>Node24</title>
<g id="a_node25"><a xlink:href="../../d7/dc7/coreconst_8h.html" target="_top" xlink:title="coreconst.h">
<polygon fill="none" stroke="#000000" points="1021.4897,-236.5 1021.4897,-258.5 1109.8618,-258.5 1109.8618,-236.5 1021.4897,-236.5"/>
<text text-anchor="middle" x="1065.6758" y="-243.3" font-family="Helvetica,sans-Serif" font-size="14.00" fill="#000000">coreconst.h</text>
</a>
</g>
</g>
<!-- Node0&#45;&gt;Node24 -->
<g id="edge34" class="edge">
<title>Node0&#45;&gt;Node24</title>
<path fill="none" stroke="#191970" d="M626.1002,-297.1838C733.85,-285.0052 919.6083,-264.0095 1011.2752,-253.6487"/>
<polygon fill="#191970" stroke="#191970" points="1011.9009,-257.1004 1021.4445,-252.4993 1011.1147,-250.1447 1011.9009,-257.1004"/>
</g>
<!-- Node26 -->
<g id="node27" class="node">
<title>Node26</title>
<g id="a_node27"><a xlink:href="../../d2/d78/basebasis_8h.html" target="_top" xlink:title="GameElements/basebasis.h">
<polygon fill="none" stroke="#000000" points="122.1313,-236.5 122.1313,-258.5 313.2202,-258.5 313.2202,-236.5 122.1313,-236.5"/>
<text text-anchor="middle" x="217.6758" y="-243.3" font-family="Helvetica,sans-Serif" font-size="14.00" fill="#000000">GameElements/basebasis.h</text>
</a>
</g>
</g>
<!-- Node0&#45;&gt;Node26 -->
<g id="edge36" class="edge">
<title>Node0&#45;&gt;Node26</title>
<path fill="none" stroke="#191970" d="M482.7401,-295.4718C427.7162,-285.5134 346.7277,-270.856 288.7688,-260.3665"/>
<polygon fill="#191970" stroke="#191970" points="289.0522,-256.861 278.5887,-258.5241 287.8055,-263.7491 289.0522,-256.861"/>
</g>
<!-- Node2 -->
<g id="node3" class="node">
<title>Node2</title>
<polygon fill="none" stroke="#bfbfbf" points="62.3379,-118.5 62.3379,-140.5 125.0137,-140.5 125.0137,-118.5 62.3379,-118.5"/>
<text text-anchor="middle" x="93.6758" y="-125.3" font-family="Helvetica,sans-Serif" font-size="14.00" fill="#000000">QSizeF</text>
</g>
<!-- Node1&#45;&gt;Node2 -->
<g id="edge2" class="edge">
<title>Node1&#45;&gt;Node2</title>
<path fill="none" stroke="#191970" d="M93.6758,-177.4026C93.6758,-169.9034 93.6758,-159.7626 93.6758,-150.7421"/>
<polygon fill="#191970" stroke="#191970" points="97.1759,-150.5477 93.6758,-140.5477 90.1759,-150.5477 97.1759,-150.5477"/>
</g>
<!-- Node3 -->
<g id="node4" class="node">
<title>Node3</title>
<polygon fill="none" stroke="#bfbfbf" points="0,-59.5 0,-81.5 67.3516,-81.5 67.3516,-59.5 0,-59.5"/>
<text text-anchor="middle" x="33.6758" y="-66.3" font-family="Helvetica,sans-Serif" font-size="14.00" fill="#000000">QPointF</text>
</g>
<!-- Node1&#45;&gt;Node3 -->
<g id="edge3" class="edge">
<title>Node1&#45;&gt;Node3</title>
<path fill="none" stroke="#191970" d="M81.9557,-177.4269C73.0301,-168.3965 61.058,-154.9018 53.6758,-141 45.4023,-125.4198 40.2239,-106.0351 37.215,-91.5377"/>
<polygon fill="#191970" stroke="#191970" points="40.6226,-90.7214 35.3215,-81.5481 33.7451,-92.025 40.6226,-90.7214"/>
</g>
<!-- Node4 -->
<g id="node5" class="node">
<title>Node4</title>
<g id="a_node5"><a xlink:href="../../d0/d4c/ibasegameelement_8h.html" target="_top" xlink:title="ibasegameelement.h">
<polygon fill="none" stroke="#000000" points="279.6899,-118.5 279.6899,-140.5 425.6616,-140.5 425.6616,-118.5 279.6899,-118.5"/>
<text text-anchor="middle" x="352.6758" y="-125.3" font-family="Helvetica,sans-Serif" font-size="14.00" fill="#000000">ibasegameelement.h</text>
</a>
</g>
</g>
<!-- Node1&#45;&gt;Node4 -->
<g id="edge4" class="edge">
<title>Node1&#45;&gt;Node4</title>
<path fill="none" stroke="#191970" d="M122.8829,-181.8466C164.2698,-172.4187 240.8707,-154.9691 294.2021,-142.8203"/>
<polygon fill="#191970" stroke="#191970" points="295.2351,-146.1747 304.208,-140.5409 293.6803,-139.3495 295.2351,-146.1747"/>
</g>
<!-- Node4&#45;&gt;Node3 -->
<g id="edge8" class="edge">
<title>Node4&#45;&gt;Node3</title>
<path fill="none" stroke="#191970" d="M279.6865,-118.9717C226.0203,-110.772 151.1502,-98.3807 77.4491,-82.2672"/>
<polygon fill="#191970" stroke="#191970" points="78.051,-78.8158 67.5311,-80.0744 76.5397,-85.6508 78.051,-78.8158"/>
</g>
<!-- Node5 -->
<g id="node6" class="node">
<title>Node5</title>
<polygon fill="none" stroke="#bfbfbf" points="616,-59.5 616,-81.5 683.3516,-81.5 683.3516,-59.5 616,-59.5"/>
<text text-anchor="middle" x="649.6758" y="-66.3" font-family="Helvetica,sans-Serif" font-size="14.00" fill="#000000">QObject</text>
</g>
<!-- Node4&#45;&gt;Node5 -->
<g id="edge5" class="edge">
<title>Node4&#45;&gt;Node5</title>
<path fill="none" stroke="#191970" d="M419.2773,-118.4794C468.3711,-110.0254 536.9618,-97.5274 606.1678,-81.9963"/>
<polygon fill="#191970" stroke="#191970" points="606.955,-85.4068 615.9352,-79.7848 605.4092,-78.5796 606.955,-85.4068"/>
</g>
<!-- Node6 -->
<g id="node7" class="node">
<title>Node6</title>
<g id="a_node7"><a xlink:href="../../d5/df2/infinitydouble_8h.html" target="_top" xlink:title="infinitydouble.h">
<polygon fill="none" stroke="#000000" points="381.9761,-59.5 381.9761,-81.5 491.3755,-81.5 491.3755,-59.5 381.9761,-59.5"/>
<text text-anchor="middle" x="436.6758" y="-66.3" font-family="Helvetica,sans-Serif" font-size="14.00" fill="#000000">infinitydouble.h</text>
</a>
</g>
</g>
<!-- Node4&#45;&gt;Node6 -->
<g id="edge6" class="edge">
<title>Node4&#45;&gt;Node6</title>
<path fill="none" stroke="#191970" d="M368.4755,-118.4026C380.9122,-109.6673 398.452,-97.3477 412.6295,-87.3896"/>
<polygon fill="#191970" stroke="#191970" points="414.7754,-90.1595 420.9469,-81.5477 410.752,-84.4313 414.7754,-90.1595"/>
</g>
<!-- Node7 -->
<g id="node8" class="node">
<title>Node7</title>
<polygon fill="none" stroke="#bfbfbf" points="385.8828,-.5 385.8828,-22.5 487.4688,-22.5 487.4688,-.5 385.8828,-.5"/>
<text text-anchor="middle" x="436.6758" y="-7.3" font-family="Helvetica,sans-Serif" font-size="14.00" fill="#000000">QDataStream</text>
</g>
<!-- Node4&#45;&gt;Node7 -->
<g id="edge10" class="edge">
<title>Node4&#45;&gt;Node7</title>
<path fill="none" stroke="#191970" d="M353.6157,-118.2949C355.3236,-103.5382 360.0241,-77.3206 372.6758,-59 381.3439,-46.4479 394.4149,-35.8979 406.4893,-27.9533"/>
<polygon fill="#191970" stroke="#191970" points="408.3885,-30.8939 415.0281,-22.6376 404.6889,-24.9514 408.3885,-30.8939"/>
</g>
<!-- Node8 -->
<g id="node9" class="node">
<title>Node8</title>
<polygon fill="none" stroke="#bfbfbf" points="509.5,-59.5 509.5,-81.5 597.8516,-81.5 597.8516,-59.5 509.5,-59.5"/>
<text text-anchor="middle" x="553.6758" y="-66.3" font-family="Helvetica,sans-Serif" font-size="14.00" fill="#000000">QByteArray</text>
</g>
<!-- Node4&#45;&gt;Node8 -->
<g id="edge9" class="edge">
<title>Node4&#45;&gt;Node8</title>
<path fill="none" stroke="#191970" d="M390.4823,-118.4026C423.3297,-108.7608 471.054,-94.7522 506.4155,-84.3724"/>
<polygon fill="#191970" stroke="#191970" points="507.4294,-87.7226 516.0387,-81.5477 505.4578,-81.0059 507.4294,-87.7226"/>
</g>
<!-- Node9 -->
<g id="node10" class="node">
<title>Node9</title>
<polygon fill="none" stroke="#bfbfbf" points="84.9448,-59.5 84.9448,-81.5 148.4067,-81.5 148.4067,-59.5 84.9448,-59.5"/>
<text text-anchor="middle" x="116.6758" y="-66.3" font-family="Helvetica,sans-Serif" font-size="14.00" fill="#000000">QString</text>
</g>
<!-- Node4&#45;&gt;Node9 -->
<g id="edge11" class="edge">
<title>Node4&#45;&gt;Node9</title>
<path fill="none" stroke="#191970" d="M304.6061,-118.4474C267.0923,-109.6869 213.4386,-96.8637 158.4374,-82.4071"/>
<polygon fill="#191970" stroke="#191970" points="159.0814,-78.9572 148.519,-79.786 157.2929,-85.7249 159.0814,-78.9572"/>
</g>
<!-- Node10 -->
<g id="node11" class="node">
<title>Node10</title>
<polygon fill="none" stroke="#bfbfbf" points="165.9321,-59.5 165.9321,-81.5 223.4194,-81.5 223.4194,-59.5 165.9321,-59.5"/>
<text text-anchor="middle" x="194.6758" y="-66.3" font-family="Helvetica,sans-Serif" font-size="14.00" fill="#000000">QTime</text>
</g>
<!-- Node4&#45;&gt;Node10 -->
<g id="edge12" class="edge">
<title>Node4&#45;&gt;Node10</title>
<path fill="none" stroke="#191970" d="M322.9572,-118.4026C297.4487,-108.8772 260.5267,-95.0899 232.837,-84.7501"/>
<polygon fill="#191970" stroke="#191970" points="234.0542,-81.4686 223.4617,-81.2492 231.6054,-88.0263 234.0542,-81.4686"/>
</g>
<!-- Node11 -->
<g id="node12" class="node">
<title>Node11</title>
<polygon fill="none" stroke="#bfbfbf" points="241.4346,-59.5 241.4346,-81.5 325.917,-81.5 325.917,-59.5 241.4346,-59.5"/>
<text text-anchor="middle" x="283.6758" y="-66.3" font-family="Helvetica,sans-Serif" font-size="14.00" fill="#000000">QVector3D</text>
</g>
<!-- Node4&#45;&gt;Node11 -->
<g id="edge13" class="edge">
<title>Node4&#45;&gt;Node11</title>
<path fill="none" stroke="#191970" d="M339.6974,-118.4026C329.7707,-109.9145 315.8861,-98.0421 304.4233,-88.2407"/>
<polygon fill="#191970" stroke="#191970" points="306.4709,-85.3864 296.596,-81.5477 301.9217,-90.7067 306.4709,-85.3864"/>
</g>
<!-- Node6&#45;&gt;Node7 -->
<g id="edge7" class="edge">
<title>Node6&#45;&gt;Node7</title>
<path fill="none" stroke="#191970" d="M436.6758,-59.4026C436.6758,-51.9034 436.6758,-41.7626 436.6758,-32.7421"/>
<polygon fill="#191970" stroke="#191970" points="440.1759,-32.5477 436.6758,-22.5477 433.1759,-32.5477 440.1759,-32.5477"/>
</g>
<!-- Node12&#45;&gt;Node4 -->
<g id="edge23" class="edge">
<title>Node12&#45;&gt;Node4</title>
<path fill="none" stroke="#191970" d="M686.9612,-236.3988C619.5689,-214.8479 471.1306,-167.3799 396.8415,-143.6235"/>
<polygon fill="#191970" stroke="#191970" points="397.8887,-140.2838 387.2977,-140.5715 395.7565,-146.9512 397.8887,-140.2838"/>
</g>
<!-- Node13 -->
<g id="node14" class="node">
<title>Node13</title>
<g id="a_node14"><a xlink:href="../../d1/d70/simpleconnection_8h.html" target="_top" xlink:title="simpleconnection.h">
<polygon fill="none" stroke="#000000" points="605.752,-177.5 605.752,-199.5 741.5996,-199.5 741.5996,-177.5 605.752,-177.5"/>
<text text-anchor="middle" x="673.6758" y="-184.3" font-family="Helvetica,sans-Serif" font-size="14.00" fill="#000000">simpleconnection.h</text>
</a>
</g>
</g>
<!-- Node12&#45;&gt;Node13 -->
<g id="edge15" class="edge">
<title>Node12&#45;&gt;Node13</title>
<path fill="none" stroke="#191970" d="M712.6473,-236.4026C706.01,-228.2441 696.829,-216.9592 689.0452,-207.3916"/>
<polygon fill="#191970" stroke="#191970" points="691.6896,-205.096 682.6637,-199.5477 686.2596,-209.5136 691.6896,-205.096"/>
</g>
<!-- Node16 -->
<g id="node17" class="node">
<title>Node16</title>
<polygon fill="none" stroke="#bfbfbf" points="865.2139,-118.5 865.2139,-140.5 934.1377,-140.5 934.1377,-118.5 865.2139,-118.5"/>
<text text-anchor="middle" x="899.6758" y="-125.3" font-family="Helvetica,sans-Serif" font-size="14.00" fill="#000000">QQueue</text>
</g>
<!-- Node12&#45;&gt;Node16 -->
<g id="edge26" class="edge">
<title>Node12&#45;&gt;Node16</title>
<path fill="none" stroke="#191970" d="M729.8689,-236.377C741.5026,-221.2326 764.1381,-194.0623 788.6758,-177 809.0469,-162.8349 834.3114,-151.6138 855.5885,-143.6426"/>
<polygon fill="#191970" stroke="#191970" points="856.8448,-146.9101 865.052,-140.2099 854.4579,-140.3296 856.8448,-146.9101"/>
</g>
<!-- Node18 -->
<g id="node19" class="node">
<title>Node18</title>
<polygon fill="none" stroke="#bfbfbf" points="797.3379,-177.5 797.3379,-199.5 846.0137,-199.5 846.0137,-177.5 797.3379,-177.5"/>
<text text-anchor="middle" x="821.6758" y="-184.3" font-family="Helvetica,sans-Serif" font-size="14.00" fill="#000000">QList</text>
</g>
<!-- Node12&#45;&gt;Node18 -->
<g id="edge24" class="edge">
<title>Node12&#45;&gt;Node18</title>
<path fill="none" stroke="#191970" d="M740.485,-236.4026C755.5699,-227.5025 776.9614,-214.8815 794.0003,-204.8285"/>
<polygon fill="#191970" stroke="#191970" points="796.1167,-207.6437 802.9509,-199.5477 792.5596,-201.6148 796.1167,-207.6437"/>
</g>
<!-- Node19 -->
<g id="node20" class="node">
<title>Node19</title>
<polygon fill="none" stroke="#bfbfbf" points="864.1689,-177.5 864.1689,-199.5 929.1826,-199.5 929.1826,-177.5 864.1689,-177.5"/>
<text text-anchor="middle" x="896.6758" y="-184.3" font-family="Helvetica,sans-Serif" font-size="14.00" fill="#000000">QMutex</text>
</g>
<!-- Node12&#45;&gt;Node19 -->
<g id="edge25" class="edge">
<title>Node12&#45;&gt;Node19</title>
<path fill="none" stroke="#191970" d="M754.5919,-236.4026C782.8238,-226.8844 823.6781,-213.1106 854.3393,-202.7734"/>
<polygon fill="#191970" stroke="#191970" points="855.5494,-206.0591 863.9072,-199.5477 853.3131,-199.4259 855.5494,-206.0591"/>
</g>
<!-- Node20 -->
<g id="node21" class="node">
<title>Node20</title>
<polygon fill="none" stroke="#bfbfbf" points="946.8105,-177.5 946.8105,-199.5 1072.541,-199.5 1072.541,-177.5 946.8105,-177.5"/>
<text text-anchor="middle" x="1009.6758" y="-184.3" font-family="Helvetica,sans-Serif" font-size="14.00" fill="#000000">qtconcurrentrun.h</text>
</g>
<!-- Node12&#45;&gt;Node20 -->
<g id="edge27" class="edge">
<title>Node12&#45;&gt;Node20</title>
<path fill="none" stroke="#191970" d="M775.5085,-236.4718C823.7404,-226.5909 894.5547,-212.0838 945.6707,-201.6121"/>
<polygon fill="#191970" stroke="#191970" points="946.5247,-205.01 955.6188,-199.5742 945.1198,-198.1524 946.5247,-205.01"/>
</g>
<!-- Node13&#45;&gt;Node4 -->
<g id="edge22" class="edge">
<title>Node13&#45;&gt;Node4</title>
<path fill="none" stroke="#191970" d="M613.6747,-177.4718C559.4947,-167.5134 479.7484,-152.856 422.6784,-142.3665"/>
<polygon fill="#191970" stroke="#191970" points="423.1224,-138.8896 412.6545,-140.5241 421.857,-145.7743 423.1224,-138.8896"/>
</g>
<!-- Node13&#45;&gt;Node5 -->
<g id="edge17" class="edge">
<title>Node13&#45;&gt;Node5</title>
<path fill="none" stroke="#191970" d="M671.3746,-177.1857C667.3683,-157.4882 659.0543,-116.611 653.9604,-91.5662"/>
<polygon fill="#191970" stroke="#191970" points="657.3579,-90.7095 651.935,-81.6078 650.4984,-92.1048 657.3579,-90.7095"/>
</g>
<!-- Node13&#45;&gt;Node7 -->
<g id="edge21" class="edge">
<title>Node13&#45;&gt;Node7</title>
<path fill="none" stroke="#191970" d="M680.3821,-177.2699C694.0695,-152.7354 721.5874,-93.7695 692.6758,-59 668.3816,-29.7834 565.5892,-18.4552 497.8783,-14.1206"/>
<polygon fill="#191970" stroke="#191970" points="497.9366,-10.6179 487.7433,-13.5069 497.5134,-17.6051 497.9366,-10.6179"/>
</g>
<!-- Node14 -->
<g id="node15" class="node">
<title>Node14</title>
<polygon fill="none" stroke="#bfbfbf" points="740.1587,-118.5 740.1587,-140.5 847.1929,-140.5 847.1929,-118.5 740.1587,-118.5"/>
<text text-anchor="middle" x="793.6758" y="-125.3" font-family="Helvetica,sans-Serif" font-size="14.00" fill="#000000">QHostAddress</text>
</g>
<!-- Node13&#45;&gt;Node14 -->
<g id="edge16" class="edge">
<title>Node13&#45;&gt;Node14</title>
<path fill="none" stroke="#191970" d="M696.2469,-177.4026C714.8516,-168.2552 741.4504,-155.1775 762.1567,-144.9969"/>
<polygon fill="#191970" stroke="#191970" points="763.7762,-148.1009 771.2059,-140.5477 760.6876,-141.8191 763.7762,-148.1009"/>
</g>
<!-- Node13&#45;&gt;Node15 -->
<g id="edge18" class="edge">
<title>Node13&#45;&gt;Node15</title>
<path fill="none" stroke="#191970" d="M641.1358,-177.4026C613.3474,-167.9256 573.1887,-154.2298 542.9226,-143.9079"/>
<polygon fill="#191970" stroke="#191970" points="543.6643,-140.463 533.0698,-140.5477 541.4048,-147.0883 543.6643,-140.463"/>
</g>
<!-- Node13&#45;&gt;Node16 -->
<g id="edge19" class="edge">
<title>Node13&#45;&gt;Node16</title>
<path fill="none" stroke="#191970" d="M716.5907,-177.4561C751.5176,-168.4464 802.3577,-155.2835 855.0841,-141.4093"/>
<polygon fill="#191970" stroke="#191970" points="856.1692,-144.7429 864.9478,-138.8112 854.3861,-137.9738 856.1692,-144.7429"/>
</g>
<!-- Node17 -->
<g id="node18" class="node">
<title>Node17</title>
<polygon fill="none" stroke="#bfbfbf" points="553.938,-118.5 553.938,-140.5 645.4136,-140.5 645.4136,-118.5 553.938,-118.5"/>
<text text-anchor="middle" x="599.6758" y="-125.3" font-family="Helvetica,sans-Serif" font-size="14.00" fill="#000000">QTcpSocket</text>
</g>
<!-- Node13&#45;&gt;Node17 -->
<g id="edge20" class="edge">
<title>Node13&#45;&gt;Node17</title>
<path fill="none" stroke="#191970" d="M659.7569,-177.4026C649.0075,-168.8321 633.9306,-156.8113 621.5695,-146.9558"/>
<polygon fill="#191970" stroke="#191970" points="623.5331,-144.0451 613.5322,-140.5477 619.1693,-149.5184 623.5331,-144.0451"/>
</g>
<!-- Node22&#45;&gt;Node4 -->
<g id="edge31" class="edge">
<title>Node22&#45;&gt;Node4</title>
<path fill="none" stroke="#191970" d="M406.667,-236.3747C394.8687,-227.7943 379.708,-214.8978 370.6758,-200 361.5429,-184.9363 357.0188,-165.3639 354.7924,-150.6651"/>
<polygon fill="#191970" stroke="#191970" points="358.2368,-150.0067 353.4994,-140.5301 351.2931,-150.8926 358.2368,-150.0067"/>
</g>
<!-- Node23 -->
<g id="node24" class="node">
<title>Node23</title>
<g id="a_node24"><a xlink:href="../../d3/da1/basebulet_8h.html" target="_top" xlink:title="basebulet.h">
<polygon fill="none" stroke="#000000" points="379.4795,-177.5 379.4795,-199.5 467.8721,-199.5 467.8721,-177.5 379.4795,-177.5"/>
<text text-anchor="middle" x="423.6758" y="-184.3" font-family="Helvetica,sans-Serif" font-size="14.00" fill="#000000">basebulet.h</text>
</a>
</g>
</g>
<!-- Node22&#45;&gt;Node23 -->
<g id="edge32" class="edge">
<title>Node22&#45;&gt;Node23</title>
<path fill="none" stroke="#191970" d="M423.6758,-236.4026C423.6758,-228.9034 423.6758,-218.7626 423.6758,-209.7421"/>
<polygon fill="#191970" stroke="#191970" points="427.1759,-209.5477 423.6758,-199.5477 420.1759,-209.5477 427.1759,-209.5477"/>
</g>
<!-- Node23&#45;&gt;Node4 -->
<g id="edge33" class="edge">
<title>Node23&#45;&gt;Node4</title>
<path fill="none" stroke="#191970" d="M410.3212,-177.4026C400.0076,-168.8321 385.5419,-156.8113 373.6819,-146.9558"/>
<polygon fill="#191970" stroke="#191970" points="375.8985,-144.247 365.9705,-140.5477 371.4246,-149.6308 375.8985,-144.247"/>
</g>
<!-- Node25 -->
<g id="node26" class="node">
<title>Node25</title>
<polygon fill="none" stroke="#bfbfbf" points="1090.2861,-177.5 1090.2861,-199.5 1121.0654,-199.5 1121.0654,-177.5 1090.2861,-177.5"/>
<text text-anchor="middle" x="1105.6758" y="-184.3" font-family="Helvetica,sans-Serif" font-size="14.00" fill="#000000">Qt</text>
</g>
<!-- Node24&#45;&gt;Node25 -->
<g id="edge35" class="edge">
<title>Node24&#45;&gt;Node25</title>
<path fill="none" stroke="#191970" d="M1073.1995,-236.4026C1078.6189,-228.4089 1086.0732,-217.4138 1092.4734,-207.9736"/>
<polygon fill="#191970" stroke="#191970" points="1095.4712,-209.7889 1098.1858,-199.5477 1089.6772,-205.8607 1095.4712,-209.7889"/>
</g>
<!-- Node26&#45;&gt;Node4 -->
<g id="edge37" class="edge">
<title>Node26&#45;&gt;Node4</title>
<path fill="none" stroke="#191970" d="M230.6201,-236.1857C254.1659,-215.6049 304.1647,-171.9023 332.3161,-147.2958"/>
<polygon fill="#191970" stroke="#191970" points="334.7419,-149.8242 339.9677,-140.6078 330.1351,-144.5537 334.7419,-149.8242"/>
</g>
</g>
</svg>
