<?xml version="1.0" encoding="UTF-8" standalone="no"?>
<!DOCTYPE svg PUBLIC "-//W3C//DTD SVG 1.1//EN"
 "http://www.w3.org/Graphics/SVG/1.1/DTD/svg11.dtd">
<!-- Generated by graphviz version 2.40.1 (20161225.0304)
 -->
<!-- Title: std::unordered_multimap&lt; K, T &gt; Pages: 1 -->
<svg width="179pt" height="206pt"
 viewBox="0.00 0.00 179.30 206.00" xmlns="http://www.w3.org/2000/svg" xmlns:xlink="http://www.w3.org/1999/xlink">
<g id="graph0" class="graph" transform="scale(1 1) rotate(0) translate(4 202)">
<title>std::unordered_multimap&lt; K, T &gt;</title>
<!-- Node865 -->
<g id="node1" class="node">
<title>Node865</title>
<polygon fill="#bfbfbf" stroke="#000000" points="0,-.5 0,-80.5 170.8613,-80.5 170.8613,-.5 0,-.5"/>
<text text-anchor="start" x="8" y="-65.3" font-family="Helvetica,sans-Serif" font-size="14.00" fill="#000000">std::unordered_multimap</text>
<text text-anchor="middle" x="85.4307" y="-51.3" font-family="Helvetica,sans-Serif" font-size="14.00" fill="#000000">&lt; K, T &gt;</text>
<polyline fill="none" stroke="#000000" points="0,-44.5 170.8613,-44.5 "/>
<text text-anchor="middle" x="85.4307" y="-29.3" font-family="Helvetica,sans-Serif" font-size="14.00" fill="#000000"> </text>
<polyline fill="none" stroke="#000000" points="0,-22.5 170.8613,-22.5 "/>
<text text-anchor="middle" x="85.4307" y="-7.3" font-family="Helvetica,sans-Serif" font-size="14.00" fill="#000000"> </text>
</g>
<!-- Node866 -->
<g id="node2" class="node">
<title>Node866</title>
<polygon fill="none" stroke="#bfbfbf" points="38.9307,-131.5 38.9307,-197.5 67.9307,-197.5 67.9307,-131.5 38.9307,-131.5"/>
<text text-anchor="middle" x="53.0996" y="-182.3" font-family="Helvetica,sans-Serif" font-size="14.00" fill="#000000">K</text>
<polyline fill="none" stroke="#bfbfbf" points="38.9307,-175.5 67.2686,-175.5 "/>
<text text-anchor="middle" x="53.0996" y="-160.3" font-family="Helvetica,sans-Serif" font-size="14.00" fill="#000000"> </text>
<polyline fill="none" stroke="#bfbfbf" points="38.9307,-153.5 67.2686,-153.5 "/>
<text text-anchor="middle" x="53.0996" y="-138.3" font-family="Helvetica,sans-Serif" font-size="14.00" fill="#000000"> </text>
</g>
<!-- Node866&#45;&gt;Node865 -->
<g id="edge1" class="edge">
<title>Node866&#45;&gt;Node865</title>
<path fill="none" stroke="#404040" d="M51.0331,-131.4478C51.0581,-120.9364 51.9194,-109.3548 54.5791,-99 55.1683,-96.7063 55.8627,-94.4024 56.6417,-92.105"/>
<polygon fill="none" stroke="#404040" points="56.7219,-91.9026 55.215,-84.8507 61.1449,-80.7475 62.6518,-87.7994 56.7219,-91.9026"/>
<text text-anchor="middle" x="75.8564" y="-101.8" font-family="Helvetica,sans-Serif" font-size="14.00" fill="#000000"> +keys</text>
</g>
<!-- Node867 -->
<g id="node3" class="node">
<title>Node867</title>
<polygon fill="none" stroke="#bfbfbf" points="102.9307,-131.5 102.9307,-197.5 131.9307,-197.5 131.9307,-131.5 102.9307,-131.5"/>
<text text-anchor="middle" x="117.2065" y="-182.3" font-family="Helvetica,sans-Serif" font-size="14.00" fill="#000000">T</text>
<polyline fill="none" stroke="#bfbfbf" points="102.9307,-175.5 131.4824,-175.5 "/>
<text text-anchor="middle" x="117.2065" y="-160.3" font-family="Helvetica,sans-Serif" font-size="14.00" fill="#000000"> </text>
<polyline fill="none" stroke="#bfbfbf" points="102.9307,-153.5 131.4824,-153.5 "/>
<text text-anchor="middle" x="117.2065" y="-138.3" font-family="Helvetica,sans-Serif" font-size="14.00" fill="#000000"> </text>
</g>
<!-- Node867&#45;&gt;Node865 -->
<g id="edge2" class="edge">
<title>Node867&#45;&gt;Node865</title>
<path fill="none" stroke="#404040" d="M108.8553,-131.2703C105.7936,-119.4065 102.266,-105.7368 98.8927,-92.6655"/>
<polygon fill="none" stroke="#404040" points="98.8547,-92.5178 93.4823,-87.7077 95.8561,-80.8985 101.2285,-85.7086 98.8547,-92.5178"/>
<text text-anchor="middle" x="136.8667" y="-101.8" font-family="Helvetica,sans-Serif" font-size="14.00" fill="#000000"> +elements</text>
</g>
</g>
</svg>
