<?xml version="1.0" encoding="UTF-8" standalone="no"?>
<!DOCTYPE svg PUBLIC "-//W3C//DTD SVG 1.1//EN"
 "http://www.w3.org/Graphics/SVG/1.1/DTD/svg11.dtd">
<!-- Generated by graphviz version 2.40.1 (20161225.0304)
 -->
<!-- Title: receiveRespnceThread Pages: 1 -->
<svg width="239pt" height="338pt"
 viewBox="0.00 0.00 238.89 338.00" xmlns="http://www.w3.org/2000/svg" xmlns:xlink="http://www.w3.org/1999/xlink">
<g id="graph0" class="graph" transform="scale(1 1) rotate(0) translate(4 334)">
<title>receiveRespnceThread</title>
<!-- Node124 -->
<g id="node1" class="node">
<title>Node124</title>
<polygon fill="#bfbfbf" stroke="#000000" points="0,-.5 0,-94.5 160.7441,-94.5 160.7441,-.5 0,-.5"/>
<text text-anchor="middle" x="80.3721" y="-79.3" font-family="Helvetica,sans-Serif" font-size="14.00" fill="#000000">receiveRespnceThread</text>
<polyline fill="none" stroke="#000000" points="0,-72.5 160.7441,-72.5 "/>
<text text-anchor="start" x="8" y="-57.3" font-family="Helvetica,sans-Serif" font-size="14.00" fill="#000000">+ mutex</text>
<text text-anchor="start" x="8" y="-43.3" font-family="Helvetica,sans-Serif" font-size="14.00" fill="#000000">+ diff</text>
<text text-anchor="start" x="8" y="-29.3" font-family="Helvetica,sans-Serif" font-size="14.00" fill="#000000">+ responceMessage</text>
<polyline fill="none" stroke="#000000" points="0,-22.5 160.7441,-22.5 "/>
<text text-anchor="start" x="8" y="-7.3" font-family="Helvetica,sans-Serif" font-size="14.00" fill="#000000"># run()</text>
</g>
<!-- Node125 -->
<g id="node2" class="node">
<title>Node125</title>
<polygon fill="none" stroke="#bfbfbf" points="6.748,-152.5 6.748,-218.5 77.9961,-218.5 77.9961,-152.5 6.748,-152.5"/>
<text text-anchor="middle" x="42.3721" y="-203.3" font-family="Helvetica,sans-Serif" font-size="14.00" fill="#000000">QThread</text>
<polyline fill="none" stroke="#bfbfbf" points="6.748,-196.5 77.9961,-196.5 "/>
<text text-anchor="middle" x="42.3721" y="-181.3" font-family="Helvetica,sans-Serif" font-size="14.00" fill="#000000"> </text>
<polyline fill="none" stroke="#bfbfbf" points="6.748,-174.5 77.9961,-174.5 "/>
<text text-anchor="middle" x="42.3721" y="-159.3" font-family="Helvetica,sans-Serif" font-size="14.00" fill="#000000"> </text>
</g>
<!-- Node125&#45;&gt;Node124 -->
<g id="edge1" class="edge">
<title>Node125&#45;&gt;Node124</title>
<path fill="none" stroke="#191970" d="M54.1434,-142.7514C58.3431,-127.5 63.0964,-110.2378 67.392,-94.6382"/>
<polygon fill="none" stroke="#191970" points="50.7545,-141.8752 51.474,-152.4456 57.5033,-143.7336 50.7545,-141.8752"/>
</g>
<!-- Node126 -->
<g id="node3" class="node">
<title>Node126</title>
<g id="a_node3"><a xlink:href="$db/dbc/classMessageForServer.html" xlink:title="{MessageForServer\n|+ connectionType\l+ messageType\l|+ toString()\l}">
<polygon fill="none" stroke="#000000" points="95.8516,-145.5 95.8516,-225.5 230.8926,-225.5 230.8926,-145.5 95.8516,-145.5"/>
<text text-anchor="middle" x="163.3721" y="-210.3" font-family="Helvetica,sans-Serif" font-size="14.00" fill="#000000">MessageForServer</text>
<polyline fill="none" stroke="#000000" points="95.8516,-203.5 230.8926,-203.5 "/>
<text text-anchor="start" x="103.8516" y="-188.3" font-family="Helvetica,sans-Serif" font-size="14.00" fill="#000000">+ connectionType</text>
<text text-anchor="start" x="103.8516" y="-174.3" font-family="Helvetica,sans-Serif" font-size="14.00" fill="#000000">+ messageType</text>
<polyline fill="none" stroke="#000000" points="95.8516,-167.5 230.8926,-167.5 "/>
<text text-anchor="start" x="103.8516" y="-152.3" font-family="Helvetica,sans-Serif" font-size="14.00" fill="#000000">+ toString()</text>
</a>
</g>
</g>
<!-- Node126&#45;&gt;Node124 -->
<g id="edge2" class="edge">
<title>Node126&#45;&gt;Node124</title>
<path fill="none" stroke="#404040" d="M139.1419,-145.2137C131.6663,-132.7844 123.2807,-118.842 115.2365,-105.4674"/>
<polygon fill="none" stroke="#404040" points="115.0674,-105.1861 108.5471,-102.1061 108.8824,-94.9028 115.4027,-97.9828 115.0674,-105.1861"/>
<text text-anchor="middle" x="160.8081" y="-115.8" font-family="Helvetica,sans-Serif" font-size="14.00" fill="#000000"> +message</text>
</g>
<!-- Node127 -->
<g id="node4" class="node">
<title>Node127</title>
<polygon fill="none" stroke="#bfbfbf" points="129.6963,-263.5 129.6963,-329.5 197.0479,-329.5 197.0479,-263.5 129.6963,-263.5"/>
<text text-anchor="middle" x="163.3721" y="-314.3" font-family="Helvetica,sans-Serif" font-size="14.00" fill="#000000">QObject</text>
<polyline fill="none" stroke="#bfbfbf" points="129.6963,-307.5 197.0479,-307.5 "/>
<text text-anchor="middle" x="163.3721" y="-292.3" font-family="Helvetica,sans-Serif" font-size="14.00" fill="#000000"> </text>
<polyline fill="none" stroke="#bfbfbf" points="129.6963,-285.5 197.0479,-285.5 "/>
<text text-anchor="middle" x="163.3721" y="-270.3" font-family="Helvetica,sans-Serif" font-size="14.00" fill="#000000"> </text>
</g>
<!-- Node127&#45;&gt;Node126 -->
<g id="edge3" class="edge">
<title>Node127&#45;&gt;Node126</title>
<path fill="none" stroke="#191970" d="M163.3721,-253.4312C163.3721,-244.2871 163.3721,-234.6684 163.3721,-225.6385"/>
<polygon fill="none" stroke="#191970" points="159.8722,-253.4968 163.3721,-263.4969 166.8722,-253.4969 159.8722,-253.4968"/>
</g>
</g>
</svg>
