<?xml version="1.0" encoding="UTF-8" standalone="no"?>
<!DOCTYPE svg PUBLIC "-//W3C//DTD SVG 1.1//EN"
 "http://www.w3.org/Graphics/SVG/1.1/DTD/svg11.dtd">
<!-- Generated by graphviz version 2.40.1 (20161225.0304)
 -->
<!-- Title: std::priority_queue&lt; T &gt; Pages: 1 -->
<svg width="171pt" height="192pt"
 viewBox="0.00 0.00 171.37 192.00" xmlns="http://www.w3.org/2000/svg" xmlns:xlink="http://www.w3.org/1999/xlink">
<g id="graph0" class="graph" transform="scale(1 1) rotate(0) translate(4 188)">
<title>std::priority_queue&lt; T &gt;</title>
<!-- Node709 -->
<g id="node1" class="node">
<title>Node709</title>
<polygon fill="#bfbfbf" stroke="#000000" points="0,-.5 0,-66.5 163.3691,-66.5 163.3691,-.5 0,-.5"/>
<text text-anchor="middle" x="81.6846" y="-51.3" font-family="Helvetica,sans-Serif" font-size="14.00" fill="#000000">std::priority_queue&lt; T &gt;</text>
<polyline fill="none" stroke="#000000" points="0,-44.5 163.3691,-44.5 "/>
<text text-anchor="middle" x="81.6846" y="-29.3" font-family="Helvetica,sans-Serif" font-size="14.00" fill="#000000"> </text>
<polyline fill="none" stroke="#000000" points="0,-22.5 163.3691,-22.5 "/>
<text text-anchor="middle" x="81.6846" y="-7.3" font-family="Helvetica,sans-Serif" font-size="14.00" fill="#000000"> </text>
</g>
<!-- Node710 -->
<g id="node2" class="node">
<title>Node710</title>
<polygon fill="none" stroke="#bfbfbf" points="67.1846,-117.5 67.1846,-183.5 96.1846,-183.5 96.1846,-117.5 67.1846,-117.5"/>
<text text-anchor="middle" x="81.4604" y="-168.3" font-family="Helvetica,sans-Serif" font-size="14.00" fill="#000000">T</text>
<polyline fill="none" stroke="#bfbfbf" points="67.1846,-161.5 95.7363,-161.5 "/>
<text text-anchor="middle" x="81.4604" y="-146.3" font-family="Helvetica,sans-Serif" font-size="14.00" fill="#000000"> </text>
<polyline fill="none" stroke="#bfbfbf" points="67.1846,-139.5 95.7363,-139.5 "/>
<text text-anchor="middle" x="81.4604" y="-124.3" font-family="Helvetica,sans-Serif" font-size="14.00" fill="#000000"> </text>
</g>
<!-- Node710&#45;&gt;Node709 -->
<g id="edge1" class="edge">
<title>Node710&#45;&gt;Node709</title>
<path fill="none" stroke="#404040" d="M81.6846,-117.2855C81.6846,-105.4288 81.6846,-91.8562 81.6846,-79.1371"/>
<polygon fill="none" stroke="#404040" points="81.6847,-78.7976 77.6846,-72.7976 81.6846,-66.7976 85.6846,-72.7976 81.6847,-78.7976"/>
<text text-anchor="middle" x="116.1206" y="-87.8" font-family="Helvetica,sans-Serif" font-size="14.00" fill="#000000"> +elements</text>
</g>
</g>
</svg>
