<?xml version="1.0" encoding="UTF-8" standalone="no"?>
<!DOCTYPE svg PUBLIC "-//W3C//DTD SVG 1.1//EN"
 "http://www.w3.org/Graphics/SVG/1.1/DTD/svg11.dtd">
<!-- Generated by graphviz version 2.40.1 (20161225.0304)
 -->
<!-- Title: Core/GameElements/basetank.h Pages: 1 -->
<svg width="515pt" height="149pt"
 viewBox="0.00 0.00 514.65 149.00" xmlns="http://www.w3.org/2000/svg" xmlns:xlink="http://www.w3.org/1999/xlink">
<g id="graph0" class="graph" transform="scale(1 1) rotate(0) translate(4 145)">
<title>Core/GameElements/basetank.h</title>
<!-- Node11 -->
<g id="node1" class="node">
<title>Node11</title>
<polygon fill="#bfbfbf" stroke="#000000" points="115.3931,-118.5 115.3931,-140.5 334.4956,-140.5 334.4956,-118.5 115.3931,-118.5"/>
<text text-anchor="middle" x="224.9443" y="-125.3" font-family="Helvetica,sans-Serif" font-size="14.00" fill="#000000">Core/GameElements/basetank.h</text>
</g>
<!-- Node12 -->
<g id="node2" class="node">
<title>Node12</title>
<g id="a_node2"><a xlink:href="../../d7/dc8/basetank_8cpp.html" target="_top" xlink:title="Core/GameElements/basetank.cpp">
<polygon fill="none" stroke="#000000" points="0,-59.5 0,-81.5 233.8887,-81.5 233.8887,-59.5 0,-59.5"/>
<text text-anchor="middle" x="116.9443" y="-66.3" font-family="Helvetica,sans-Serif" font-size="14.00" fill="#000000">Core/GameElements/basetank.cpp</text>
</a>
</g>
</g>
<!-- Node11&#45;&gt;Node12 -->
<g id="edge1" class="edge">
<title>Node11&#45;&gt;Node12</title>
<path fill="none" stroke="#191970" d="M195.7165,-113.533C177.1752,-103.4039 153.6594,-90.5573 137.1672,-81.5477"/>
<polygon fill="#191970" stroke="#191970" points="194.1765,-116.6798 204.6304,-118.4026 197.5325,-110.5367 194.1765,-116.6798"/>
</g>
<!-- Node13 -->
<g id="node3" class="node">
<title>Node13</title>
<g id="a_node3"><a xlink:href="../../df/dd1/maingameloop_8h.html" target="_top" xlink:title="Server/maingameloop.h">
<polygon fill="none" stroke="#000000" points="251.6274,-59.5 251.6274,-81.5 416.2612,-81.5 416.2612,-59.5 251.6274,-59.5"/>
<text text-anchor="middle" x="333.9443" y="-66.3" font-family="Helvetica,sans-Serif" font-size="14.00" fill="#000000">Server/maingameloop.h</text>
</a>
</g>
</g>
<!-- Node11&#45;&gt;Node13 -->
<g id="edge2" class="edge">
<title>Node11&#45;&gt;Node13</title>
<path fill="none" stroke="#191970" d="M254.4428,-113.533C273.1558,-103.4039 296.8893,-90.5573 313.5342,-81.5477"/>
<polygon fill="#191970" stroke="#191970" points="252.5746,-110.5642 245.4464,-118.4026 255.9068,-116.7203 252.5746,-110.5642"/>
</g>
<!-- Node14 -->
<g id="node4" class="node">
<title>Node14</title>
<g id="a_node4"><a xlink:href="../../d6/dda/Server_2main_8cpp.html" target="_top" xlink:title="Server/main.cpp">
<polygon fill="none" stroke="#000000" points="190.979,-.5 190.979,-22.5 308.9097,-22.5 308.9097,-.5 190.979,-.5"/>
<text text-anchor="middle" x="249.9443" y="-7.3" font-family="Helvetica,sans-Serif" font-size="14.00" fill="#000000">Server/main.cpp</text>
</a>
</g>
</g>
<!-- Node13&#45;&gt;Node14 -->
<g id="edge3" class="edge">
<title>Node13&#45;&gt;Node14</title>
<path fill="none" stroke="#191970" d="M309.8172,-53.5536C295.6269,-43.5866 278.0905,-31.2693 265.6732,-22.5477"/>
<polygon fill="#191970" stroke="#191970" points="307.9497,-56.5189 318.1446,-59.4026 311.9731,-50.7907 307.9497,-56.5189"/>
</g>
<!-- Node15 -->
<g id="node5" class="node">
<title>Node15</title>
<g id="a_node5"><a xlink:href="../../dd/d30/maingameloop_8cpp.html" target="_top" xlink:title="Server/maingameloop.cpp">
<polygon fill="none" stroke="#000000" points="327.2344,-.5 327.2344,-22.5 506.6543,-22.5 506.6543,-.5 327.2344,-.5"/>
<text text-anchor="middle" x="416.9443" y="-7.3" font-family="Helvetica,sans-Serif" font-size="14.00" fill="#000000">Server/maingameloop.cpp</text>
</a>
</g>
</g>
<!-- Node13&#45;&gt;Node15 -->
<g id="edge4" class="edge">
<title>Node13&#45;&gt;Node15</title>
<path fill="none" stroke="#191970" d="M357.7842,-53.5536C371.8056,-43.5866 389.1333,-31.2693 401.4027,-22.5477"/>
<polygon fill="#191970" stroke="#191970" points="355.6788,-50.756 349.556,-59.4026 359.7344,-56.4614 355.6788,-50.756"/>
</g>
</g>
</svg>
