<?xml version="1.0" encoding="UTF-8" standalone="no"?>
<!DOCTYPE svg PUBLIC "-//W3C//DTD SVG 1.1//EN"
 "http://www.w3.org/Graphics/SVG/1.1/DTD/svg11.dtd">
<!-- Generated by graphviz version 2.40.1 (20161225.0304)
 -->
<!-- Title: GameView/field.cpp Pages: 1 -->
<svg width="692pt" height="267pt"
 viewBox="0.00 0.00 691.92 267.00" xmlns="http://www.w3.org/2000/svg" xmlns:xlink="http://www.w3.org/1999/xlink">
<g id="graph0" class="graph" transform="scale(1 1) rotate(0) translate(4 263)">
<title>GameView/field.cpp</title>
<!-- Node357 -->
<g id="node1" class="node">
<title>Node357</title>
<polygon fill="#bfbfbf" stroke="#000000" points="233.5474,-236.5 233.5474,-258.5 373.8042,-258.5 373.8042,-236.5 233.5474,-236.5"/>
<text text-anchor="middle" x="303.6758" y="-243.3" font-family="Helvetica,sans-Serif" font-size="14.00" fill="#000000">GameView/field.cpp</text>
</g>
<!-- Node358 -->
<g id="node2" class="node">
<title>Node358</title>
<g id="a_node2"><a xlink:href="$d5/d5a/field_8h.html" xlink:title="field.h">
<polygon fill="none" stroke="#000000" points="237.9966,-177.5 237.9966,-199.5 291.355,-199.5 291.355,-177.5 237.9966,-177.5"/>
<text text-anchor="middle" x="264.6758" y="-184.3" font-family="Helvetica,sans-Serif" font-size="14.00" fill="#000000">field.h</text>
</a>
</g>
</g>
<!-- Node357&#45;&gt;Node358 -->
<g id="edge1" class="edge">
<title>Node357&#45;&gt;Node358</title>
<path fill="none" stroke="#191970" d="M296.3402,-236.4026C291.0563,-228.4089 283.7883,-217.4138 277.5481,-207.9736"/>
<polygon fill="#191970" stroke="#191970" points="280.4126,-205.9599 271.9785,-199.5477 274.5731,-209.8199 280.4126,-205.9599"/>
</g>
<!-- Node369 -->
<g id="node13" class="node">
<title>Node369</title>
<polygon fill="none" stroke="#bfbfbf" points="309.6035,-177.5 309.6035,-199.5 377.748,-199.5 377.748,-177.5 309.6035,-177.5"/>
<text text-anchor="middle" x="343.6758" y="-184.3" font-family="Helvetica,sans-Serif" font-size="14.00" fill="#000000">QDebug</text>
</g>
<!-- Node357&#45;&gt;Node369 -->
<g id="edge13" class="edge">
<title>Node357&#45;&gt;Node369</title>
<path fill="none" stroke="#191970" d="M311.1995,-236.4026C316.6189,-228.4089 324.0732,-217.4138 330.4734,-207.9736"/>
<polygon fill="#191970" stroke="#191970" points="333.4712,-209.7889 336.1858,-199.5477 327.6772,-205.8607 333.4712,-209.7889"/>
</g>
<!-- Node359 -->
<g id="node3" class="node">
<title>Node359</title>
<polygon fill="none" stroke="#bfbfbf" points="153.623,-118.5 153.623,-140.5 241.7285,-140.5 241.7285,-118.5 153.623,-118.5"/>
<text text-anchor="middle" x="197.6758" y="-125.3" font-family="Helvetica,sans-Serif" font-size="14.00" fill="#000000">QGLWidget</text>
</g>
<!-- Node358&#45;&gt;Node359 -->
<g id="edge2" class="edge">
<title>Node358&#45;&gt;Node359</title>
<path fill="none" stroke="#191970" d="M252.0736,-177.4026C242.4346,-168.9145 228.9524,-157.0421 217.822,-147.2407"/>
<polygon fill="#191970" stroke="#191970" points="220.0395,-144.5298 210.2215,-140.5477 215.4133,-149.7833 220.0395,-144.5298"/>
</g>
<!-- Node360 -->
<g id="node4" class="node">
<title>Node360</title>
<g id="a_node4"><a xlink:href="$d0/d4c/ibasegameelement_8h.html" xlink:title="ibasegameelement.h">
<polygon fill="none" stroke="#000000" points="259.6899,-118.5 259.6899,-140.5 405.6616,-140.5 405.6616,-118.5 259.6899,-118.5"/>
<text text-anchor="middle" x="332.6758" y="-125.3" font-family="Helvetica,sans-Serif" font-size="14.00" fill="#000000">ibasegameelement.h</text>
</a>
</g>
</g>
<!-- Node358&#45;&gt;Node360 -->
<g id="edge3" class="edge">
<title>Node358&#45;&gt;Node360</title>
<path fill="none" stroke="#191970" d="M277.4661,-177.4026C287.2489,-168.9145 300.9323,-157.0421 312.2289,-147.2407"/>
<polygon fill="#191970" stroke="#191970" points="314.6834,-149.7449 319.9429,-140.5477 310.0959,-144.4576 314.6834,-149.7449"/>
</g>
<!-- Node361 -->
<g id="node5" class="node">
<title>Node361</title>
<polygon fill="none" stroke="#bfbfbf" points="0,-59.5 0,-81.5 67.3516,-81.5 67.3516,-59.5 0,-59.5"/>
<text text-anchor="middle" x="33.6758" y="-66.3" font-family="Helvetica,sans-Serif" font-size="14.00" fill="#000000">QObject</text>
</g>
<!-- Node360&#45;&gt;Node361 -->
<g id="edge4" class="edge">
<title>Node360&#45;&gt;Node361</title>
<path fill="none" stroke="#191970" d="M264.1743,-118.4595C214.6483,-110.1043 145.9494,-97.7521 77.6166,-82.3334"/>
<polygon fill="#191970" stroke="#191970" points="78.0675,-78.8464 67.5397,-80.0363 76.5117,-85.6714 78.0675,-78.8464"/>
</g>
<!-- Node362 -->
<g id="node6" class="node">
<title>Node362</title>
<g id="a_node6"><a xlink:href="$d5/df2/infinitydouble_8h.html" xlink:title="infinitydouble.h">
<polygon fill="none" stroke="#000000" points="84.9761,-59.5 84.9761,-81.5 194.3755,-81.5 194.3755,-59.5 84.9761,-59.5"/>
<text text-anchor="middle" x="139.6758" y="-66.3" font-family="Helvetica,sans-Serif" font-size="14.00" fill="#000000">infinitydouble.h</text>
</a>
</g>
</g>
<!-- Node360&#45;&gt;Node362 -->
<g id="edge5" class="edge">
<title>Node360&#45;&gt;Node362</title>
<path fill="none" stroke="#191970" d="M296.374,-118.4026C264.9687,-108.802 219.4006,-94.8718 185.4911,-84.5057"/>
<polygon fill="#191970" stroke="#191970" points="186.4012,-81.1241 175.8148,-81.5477 184.3547,-87.8183 186.4012,-81.1241"/>
</g>
<!-- Node363 -->
<g id="node7" class="node">
<title>Node363</title>
<polygon fill="none" stroke="#bfbfbf" points="129.8828,-.5 129.8828,-22.5 231.4688,-22.5 231.4688,-.5 129.8828,-.5"/>
<text text-anchor="middle" x="180.6758" y="-7.3" font-family="Helvetica,sans-Serif" font-size="14.00" fill="#000000">QDataStream</text>
</g>
<!-- Node360&#45;&gt;Node363 -->
<g id="edge9" class="edge">
<title>Node360&#45;&gt;Node363</title>
<path fill="none" stroke="#191970" d="M305.2004,-118.4348C286.2618,-110.0521 261.1032,-97.3692 241.6758,-82 223.0006,-67.2259 205.6434,-46.1481 194.2574,-30.8918"/>
<polygon fill="#191970" stroke="#191970" points="196.9919,-28.701 188.2787,-22.6735 191.3313,-32.8191 196.9919,-28.701"/>
</g>
<!-- Node364 -->
<g id="node8" class="node">
<title>Node364</title>
<polygon fill="none" stroke="#bfbfbf" points="251,-59.5 251,-81.5 318.3516,-81.5 318.3516,-59.5 251,-59.5"/>
<text text-anchor="middle" x="284.6758" y="-66.3" font-family="Helvetica,sans-Serif" font-size="14.00" fill="#000000">QPointF</text>
</g>
<!-- Node360&#45;&gt;Node364 -->
<g id="edge7" class="edge">
<title>Node360&#45;&gt;Node364</title>
<path fill="none" stroke="#191970" d="M323.6473,-118.4026C317.01,-110.2441 307.829,-98.9592 300.0452,-89.3916"/>
<polygon fill="#191970" stroke="#191970" points="302.6896,-87.096 293.6637,-81.5477 297.2596,-91.5136 302.6896,-87.096"/>
</g>
<!-- Node365 -->
<g id="node9" class="node">
<title>Node365</title>
<polygon fill="none" stroke="#bfbfbf" points="336.5,-59.5 336.5,-81.5 424.8516,-81.5 424.8516,-59.5 336.5,-59.5"/>
<text text-anchor="middle" x="380.6758" y="-66.3" font-family="Helvetica,sans-Serif" font-size="14.00" fill="#000000">QByteArray</text>
</g>
<!-- Node360&#45;&gt;Node365 -->
<g id="edge8" class="edge">
<title>Node360&#45;&gt;Node365</title>
<path fill="none" stroke="#191970" d="M341.7042,-118.4026C348.3416,-110.2441 357.5226,-98.9592 365.3063,-89.3916"/>
<polygon fill="#191970" stroke="#191970" points="368.0919,-91.5136 371.6878,-81.5477 362.6619,-87.096 368.0919,-91.5136"/>
</g>
<!-- Node366 -->
<g id="node10" class="node">
<title>Node366</title>
<polygon fill="none" stroke="#bfbfbf" points="442.9448,-59.5 442.9448,-81.5 506.4067,-81.5 506.4067,-59.5 442.9448,-59.5"/>
<text text-anchor="middle" x="474.6758" y="-66.3" font-family="Helvetica,sans-Serif" font-size="14.00" fill="#000000">QString</text>
</g>
<!-- Node360&#45;&gt;Node366 -->
<g id="edge10" class="edge">
<title>Node360&#45;&gt;Node366</title>
<path fill="none" stroke="#191970" d="M359.3849,-118.4026C381.7972,-109.0904 414.0131,-95.7049 438.6958,-85.4494"/>
<polygon fill="#191970" stroke="#191970" points="440.1948,-88.6168 448.0864,-81.5477 437.5089,-82.1525 440.1948,-88.6168"/>
</g>
<!-- Node367 -->
<g id="node11" class="node">
<title>Node367</title>
<polygon fill="none" stroke="#bfbfbf" points="523.9321,-59.5 523.9321,-81.5 581.4194,-81.5 581.4194,-59.5 523.9321,-59.5"/>
<text text-anchor="middle" x="552.6758" y="-66.3" font-family="Helvetica,sans-Serif" font-size="14.00" fill="#000000">QTime</text>
</g>
<!-- Node360&#45;&gt;Node367 -->
<g id="edge11" class="edge">
<title>Node360&#45;&gt;Node367</title>
<path fill="none" stroke="#191970" d="M377.5846,-118.4745C412.5528,-109.7471 462.5212,-96.967 514.0029,-82.4088"/>
<polygon fill="#191970" stroke="#191970" points="514.9692,-85.7728 523.63,-79.6703 513.0539,-79.0399 514.9692,-85.7728"/>
</g>
<!-- Node368 -->
<g id="node12" class="node">
<title>Node368</title>
<polygon fill="none" stroke="#bfbfbf" points="599.4346,-59.5 599.4346,-81.5 683.917,-81.5 683.917,-59.5 599.4346,-59.5"/>
<text text-anchor="middle" x="641.6758" y="-66.3" font-family="Helvetica,sans-Serif" font-size="14.00" fill="#000000">QVector3D</text>
</g>
<!-- Node360&#45;&gt;Node368 -->
<g id="edge12" class="edge">
<title>Node360&#45;&gt;Node368</title>
<path fill="none" stroke="#191970" d="M396.4283,-118.4892C446.3774,-109.6958 517.8669,-96.746 589.3226,-82.2268"/>
<polygon fill="#191970" stroke="#191970" points="590.3056,-85.5984 599.4029,-80.1679 588.9047,-78.74 590.3056,-85.5984"/>
</g>
<!-- Node362&#45;&gt;Node363 -->
<g id="edge6" class="edge">
<title>Node362&#45;&gt;Node363</title>
<path fill="none" stroke="#191970" d="M147.3876,-59.4026C152.9424,-51.4089 160.5831,-40.4138 167.1433,-30.9736"/>
<polygon fill="#191970" stroke="#191970" points="170.1661,-32.7569 172.9986,-22.5477 164.4178,-28.7623 170.1661,-32.7569"/>
</g>
</g>
</svg>
