<?xml version="1.0" encoding="UTF-8" standalone="no"?>
<!DOCTYPE svg PUBLIC "-//W3C//DTD SVG 1.1//EN"
 "http://www.w3.org/Graphics/SVG/1.1/DTD/svg11.dtd">
<!-- Generated by graphviz version 2.40.1 (20161225.0304)
 -->
<!-- Title: ServerConnection::onWorkerStop Pages: 1 -->
<svg width="427pt" height="31pt"
 viewBox="0.00 0.00 426.55 31.00" xmlns="http://www.w3.org/2000/svg" xmlns:xlink="http://www.w3.org/1999/xlink">
<g id="graph0" class="graph" transform="scale(1 1) rotate(0) translate(4 27)">
<title>ServerConnection::onWorkerStop</title>
<!-- Node15 -->
<g id="node1" class="node">
<title>Node15</title>
<polygon fill="#bfbfbf" stroke="#000000" points="0,-.5 0,-22.5 225.0771,-22.5 225.0771,-.5 0,-.5"/>
<text text-anchor="middle" x="112.5386" y="-7.3" font-family="Helvetica,sans-Serif" font-size="14.00" fill="#000000">ServerConnection::onWorkerStop</text>
</g>
<!-- Node16 -->
<g id="node2" class="node">
<title>Node16</title>
<g id="a_node2"><a xlink:href="../../d3/d50/a00882.html#a29060721f5ddfa26790f0778bde74ff2" target="_top" xlink:title="initServer">
<polygon fill="none" stroke="#000000" points="261.0771,-.5 261.0771,-22.5 336.208,-22.5 336.208,-.5 261.0771,-.5"/>
<text text-anchor="middle" x="298.6426" y="-7.3" font-family="Helvetica,sans-Serif" font-size="14.00" fill="#000000">initServer</text>
</a>
</g>
</g>
<!-- Node15&#45;&gt;Node16 -->
<g id="edge1" class="edge">
<title>Node15&#45;&gt;Node16</title>
<path fill="none" stroke="#191970" d="M235.2075,-11.5C244.3946,-11.5 253.1517,-11.5 261.0657,-11.5"/>
<polygon fill="#191970" stroke="#191970" points="235.0894,-8.0001 225.0893,-11.5 235.0893,-15.0001 235.0894,-8.0001"/>
</g>
<!-- Node17 -->
<g id="node3" class="node">
<title>Node17</title>
<g id="a_node3"><a xlink:href="../../d3/d50/a00882.html#a0ddf1224851353fc92bfbff6f499fa97" target="_top" xlink:title="main">
<polygon fill="none" stroke="#000000" points="372.208,-.5 372.208,-22.5 418.5527,-22.5 418.5527,-.5 372.208,-.5"/>
<text text-anchor="middle" x="395.3804" y="-7.3" font-family="Helvetica,sans-Serif" font-size="14.00" fill="#000000">main</text>
</a>
</g>
</g>
<!-- Node16&#45;&gt;Node17 -->
<g id="edge2" class="edge">
<title>Node16&#45;&gt;Node17</title>
<path fill="none" stroke="#191970" d="M346.3877,-11.5C355.3733,-11.5 364.3877,-11.5 372.19,-11.5"/>
<polygon fill="#191970" stroke="#191970" points="346.321,-8.0001 336.3209,-11.5 346.3209,-15.0001 346.321,-8.0001"/>
</g>
</g>
</svg>
