<?xml version="1.0" encoding="UTF-8" standalone="no"?>
<!DOCTYPE svg PUBLIC "-//W3C//DTD SVG 1.1//EN"
 "http://www.w3.org/Graphics/SVG/1.1/DTD/svg11.dtd">
<!-- Generated by graphviz version 2.40.1 (20161225.0304)
 -->
<!-- Title: Core/util/baseutil.h Pages: 1 -->
<svg width="691pt" height="208pt"
 viewBox="0.00 0.00 690.92 208.00" xmlns="http://www.w3.org/2000/svg" xmlns:xlink="http://www.w3.org/1999/xlink">
<g id="graph0" class="graph" transform="scale(1 1) rotate(0) translate(4 204)">
<title>Core/util/baseutil.h</title>
<!-- Node0 -->
<g id="node1" class="node">
<title>Node0</title>
<polygon fill="#bfbfbf" stroke="#000000" points="187.7002,-177.5 187.7002,-199.5 319.6514,-199.5 319.6514,-177.5 187.7002,-177.5"/>
<text text-anchor="middle" x="253.6758" y="-184.3" font-family="Helvetica,sans-Serif" font-size="14.00" fill="#000000">Core/util/baseutil.h</text>
</g>
<!-- Node1 -->
<g id="node2" class="node">
<title>Node1</title>
<polygon fill="none" stroke="#bfbfbf" points="114.2759,-118.5 114.2759,-140.5 173.0757,-140.5 173.0757,-118.5 114.2759,-118.5"/>
<text text-anchor="middle" x="143.6758" y="-125.3" font-family="Helvetica,sans-Serif" font-size="14.00" fill="#000000">QPoint</text>
</g>
<!-- Node0&#45;&gt;Node1 -->
<g id="edge1" class="edge">
<title>Node0&#45;&gt;Node1</title>
<path fill="none" stroke="#191970" d="M232.9856,-177.4026C216.1618,-168.3788 192.2067,-155.5302 173.3407,-145.4112"/>
<polygon fill="#191970" stroke="#191970" points="174.7399,-142.19 164.2732,-140.5477 171.4312,-148.3587 174.7399,-142.19"/>
</g>
<!-- Node2 -->
<g id="node3" class="node">
<title>Node2</title>
<polygon fill="none" stroke="#bfbfbf" points="0,-59.5 0,-81.5 67.3516,-81.5 67.3516,-59.5 0,-59.5"/>
<text text-anchor="middle" x="33.6758" y="-66.3" font-family="Helvetica,sans-Serif" font-size="14.00" fill="#000000">QPointF</text>
</g>
<!-- Node0&#45;&gt;Node2 -->
<g id="edge2" class="edge">
<title>Node0&#45;&gt;Node2</title>
<path fill="none" stroke="#191970" d="M245.1231,-177.3329C232.7342,-161.8843 208.3414,-134.0828 181.6758,-118 172.4696,-112.4475 117.374,-95.4012 77.0888,-83.3226"/>
<polygon fill="#191970" stroke="#191970" points="78.0436,-79.9551 67.4601,-80.4454 76.0394,-86.662 78.0436,-79.9551"/>
</g>
<!-- Node3 -->
<g id="node4" class="node">
<title>Node3</title>
<g id="a_node4"><a xlink:href="../../d0/d4c/ibasegameelement_8h.html" target="_top" xlink:title="../ibasegameelement.h">
<polygon fill="none" stroke="#000000" points="228.8555,-118.5 228.8555,-140.5 386.4961,-140.5 386.4961,-118.5 228.8555,-118.5"/>
<text text-anchor="middle" x="307.6758" y="-125.3" font-family="Helvetica,sans-Serif" font-size="14.00" fill="#000000">../ibasegameelement.h</text>
</a>
</g>
</g>
<!-- Node0&#45;&gt;Node3 -->
<g id="edge3" class="edge">
<title>Node0&#45;&gt;Node3</title>
<path fill="none" stroke="#191970" d="M263.8328,-177.4026C271.3752,-169.1617 281.8374,-157.7309 290.65,-148.1022"/>
<polygon fill="#191970" stroke="#191970" points="293.3946,-150.2875 297.5643,-140.5477 288.2309,-145.5614 293.3946,-150.2875"/>
</g>
<!-- Node11 -->
<g id="node12" class="node">
<title>Node11</title>
<polygon fill="none" stroke="#bfbfbf" points="404.2759,-118.5 404.2759,-140.5 463.0757,-140.5 463.0757,-118.5 404.2759,-118.5"/>
<text text-anchor="middle" x="433.6758" y="-125.3" font-family="Helvetica,sans-Serif" font-size="14.00" fill="#000000">math.h</text>
</g>
<!-- Node0&#45;&gt;Node11 -->
<g id="edge13" class="edge">
<title>Node0&#45;&gt;Node11</title>
<path fill="none" stroke="#191970" d="M287.5324,-177.4026C317.8574,-167.4627 362.3414,-152.8818 394.2576,-142.4204"/>
<polygon fill="#191970" stroke="#191970" points="395.7322,-145.6204 404.1446,-139.1797 393.5518,-138.9686 395.7322,-145.6204"/>
</g>
<!-- Node3&#45;&gt;Node2 -->
<g id="edge7" class="edge">
<title>Node3&#45;&gt;Node2</title>
<path fill="none" stroke="#191970" d="M248.3202,-118.4555C203.6021,-109.8811 140.576,-97.2599 77.2976,-82.3018"/>
<polygon fill="#191970" stroke="#191970" points="78.0918,-78.8932 67.5529,-79.98 76.4693,-85.7026 78.0918,-78.8932"/>
</g>
<!-- Node4 -->
<g id="node5" class="node">
<title>Node4</title>
<polygon fill="none" stroke="#bfbfbf" points="85,-59.5 85,-81.5 152.3516,-81.5 152.3516,-59.5 85,-59.5"/>
<text text-anchor="middle" x="118.6758" y="-66.3" font-family="Helvetica,sans-Serif" font-size="14.00" fill="#000000">QObject</text>
</g>
<!-- Node3&#45;&gt;Node4 -->
<g id="edge4" class="edge">
<title>Node3&#45;&gt;Node4</title>
<path fill="none" stroke="#191970" d="M272.1263,-118.4026C241.0194,-108.6919 195.7234,-94.5519 162.4041,-84.1506"/>
<polygon fill="#191970" stroke="#191970" points="163.0658,-80.6907 152.4771,-81.0517 160.9798,-87.3727 163.0658,-80.6907"/>
</g>
<!-- Node5 -->
<g id="node6" class="node">
<title>Node5</title>
<g id="a_node6"><a xlink:href="../../d5/df2/infinitydouble_8h.html" target="_top" xlink:title="infinitydouble.h">
<polygon fill="none" stroke="#000000" points="169.9761,-59.5 169.9761,-81.5 279.3755,-81.5 279.3755,-59.5 169.9761,-59.5"/>
<text text-anchor="middle" x="224.6758" y="-66.3" font-family="Helvetica,sans-Serif" font-size="14.00" fill="#000000">infinitydouble.h</text>
</a>
</g>
</g>
<!-- Node3&#45;&gt;Node5 -->
<g id="edge5" class="edge">
<title>Node3&#45;&gt;Node5</title>
<path fill="none" stroke="#191970" d="M292.0641,-118.4026C279.7755,-109.6673 262.4445,-97.3477 248.4358,-87.3896"/>
<polygon fill="#191970" stroke="#191970" points="250.3959,-84.4888 240.2174,-81.5477 246.3402,-90.1942 250.3959,-84.4888"/>
</g>
<!-- Node6 -->
<g id="node7" class="node">
<title>Node6</title>
<polygon fill="none" stroke="#bfbfbf" points="214.8828,-.5 214.8828,-22.5 316.4688,-22.5 316.4688,-.5 214.8828,-.5"/>
<text text-anchor="middle" x="265.6758" y="-7.3" font-family="Helvetica,sans-Serif" font-size="14.00" fill="#000000">QDataStream</text>
</g>
<!-- Node3&#45;&gt;Node6 -->
<g id="edge9" class="edge">
<title>Node3&#45;&gt;Node6</title>
<path fill="none" stroke="#191970" d="M305.343,-118.308C302.2542,-104.2306 296.2971,-79.4278 288.6758,-59 285.2228,-49.7449 280.5989,-39.8606 276.4028,-31.5185"/>
<polygon fill="#191970" stroke="#191970" points="279.4736,-29.837 271.7692,-22.5642 273.2566,-33.0542 279.4736,-29.837"/>
</g>
<!-- Node7 -->
<g id="node8" class="node">
<title>Node7</title>
<polygon fill="none" stroke="#bfbfbf" points="335.5,-59.5 335.5,-81.5 423.8516,-81.5 423.8516,-59.5 335.5,-59.5"/>
<text text-anchor="middle" x="379.6758" y="-66.3" font-family="Helvetica,sans-Serif" font-size="14.00" fill="#000000">QByteArray</text>
</g>
<!-- Node3&#45;&gt;Node7 -->
<g id="edge8" class="edge">
<title>Node3&#45;&gt;Node7</title>
<path fill="none" stroke="#191970" d="M321.2184,-118.4026C331.6773,-109.8321 346.3468,-97.8113 358.3738,-87.9558"/>
<polygon fill="#191970" stroke="#191970" points="360.6774,-90.5931 366.1939,-81.5477 356.2407,-85.1788 360.6774,-90.5931"/>
</g>
<!-- Node8 -->
<g id="node9" class="node">
<title>Node8</title>
<polygon fill="none" stroke="#bfbfbf" points="441.9448,-59.5 441.9448,-81.5 505.4067,-81.5 505.4067,-59.5 441.9448,-59.5"/>
<text text-anchor="middle" x="473.6758" y="-66.3" font-family="Helvetica,sans-Serif" font-size="14.00" fill="#000000">QString</text>
</g>
<!-- Node3&#45;&gt;Node8 -->
<g id="edge10" class="edge">
<title>Node3&#45;&gt;Node8</title>
<path fill="none" stroke="#191970" d="M338.8991,-118.4026C365.5631,-108.9256 404.097,-95.2298 433.1384,-84.9079"/>
<polygon fill="#191970" stroke="#191970" points="434.3421,-88.1946 442.5925,-81.5477 431.9977,-81.5988 434.3421,-88.1946"/>
</g>
<!-- Node9 -->
<g id="node10" class="node">
<title>Node9</title>
<polygon fill="none" stroke="#bfbfbf" points="522.9321,-59.5 522.9321,-81.5 580.4194,-81.5 580.4194,-59.5 522.9321,-59.5"/>
<text text-anchor="middle" x="551.6758" y="-66.3" font-family="Helvetica,sans-Serif" font-size="14.00" fill="#000000">QTime</text>
</g>
<!-- Node3&#45;&gt;Node9 -->
<g id="edge11" class="edge">
<title>Node3&#45;&gt;Node9</title>
<path fill="none" stroke="#191970" d="M360.699,-118.4917C400.3858,-109.9891 456.1901,-97.4797 512.8184,-82.3929"/>
<polygon fill="#191970" stroke="#191970" points="513.9036,-85.7255 522.6518,-79.7489 512.086,-78.9656 513.9036,-85.7255"/>
</g>
<!-- Node10 -->
<g id="node11" class="node">
<title>Node10</title>
<polygon fill="none" stroke="#bfbfbf" points="598.4346,-59.5 598.4346,-81.5 682.917,-81.5 682.917,-59.5 598.4346,-59.5"/>
<text text-anchor="middle" x="640.6758" y="-66.3" font-family="Helvetica,sans-Serif" font-size="14.00" fill="#000000">QVector3D</text>
</g>
<!-- Node3&#45;&gt;Node10 -->
<g id="edge12" class="edge">
<title>Node3&#45;&gt;Node10</title>
<path fill="none" stroke="#191970" d="M379.7357,-118.4799C434.4914,-109.848 511.8918,-97.0959 588.5789,-82.1475"/>
<polygon fill="#191970" stroke="#191970" points="589.2741,-85.5779 598.4128,-80.2176 587.926,-78.709 589.2741,-85.5779"/>
</g>
<!-- Node5&#45;&gt;Node6 -->
<g id="edge6" class="edge">
<title>Node5&#45;&gt;Node6</title>
<path fill="none" stroke="#191970" d="M232.3876,-59.4026C237.9424,-51.4089 245.5831,-40.4138 252.1433,-30.9736"/>
<polygon fill="#191970" stroke="#191970" points="255.1661,-32.7569 257.9986,-22.5477 249.4178,-28.7623 255.1661,-32.7569"/>
</g>
</g>
</svg>
