<?xml version="1.0" encoding="UTF-8" standalone="no"?>
<!DOCTYPE svg PUBLIC "-//W3C//DTD SVG 1.1//EN"
 "http://www.w3.org/Graphics/SVG/1.1/DTD/svg11.dtd">
<!-- Generated by graphviz version 2.40.1 (20161225.0304)
 -->
<!-- Title: Core/coreconst.h Pages: 1 -->
<svg width="659pt" height="149pt"
 viewBox="0.00 0.00 659.34 149.00" xmlns="http://www.w3.org/2000/svg" xmlns:xlink="http://www.w3.org/1999/xlink">
<g id="graph0" class="graph" transform="scale(1 1) rotate(0) translate(4 145)">
<title>Core/coreconst.h</title>
<!-- Node91 -->
<g id="node1" class="node">
<title>Node91</title>
<polygon fill="#bfbfbf" stroke="#000000" points="295.9341,-118.5 295.9341,-140.5 418.5405,-140.5 418.5405,-118.5 295.9341,-118.5"/>
<text text-anchor="middle" x="357.2373" y="-125.3" font-family="Helvetica,sans-Serif" font-size="14.00" fill="#000000">Core/coreconst.h</text>
</g>
<!-- Node92 -->
<g id="node2" class="node">
<title>Node92</title>
<g id="a_node2"><a xlink:href="$dd/dad/a00005.html" xlink:title="Core/connection/simpleconnection.cpp">
<polygon fill="none" stroke="#000000" points="0,-59.5 0,-81.5 256.4746,-81.5 256.4746,-59.5 0,-59.5"/>
<text text-anchor="middle" x="128.2373" y="-66.3" font-family="Helvetica,sans-Serif" font-size="14.00" fill="#000000">Core/connection/simpleconnection.cpp</text>
</a>
</g>
</g>
<!-- Node91&#45;&gt;Node92 -->
<g id="edge1" class="edge">
<title>Node91&#45;&gt;Node92</title>
<path fill="none" stroke="#191970" d="M304.7471,-115.9763C264.2988,-105.5551 209.0666,-91.325 171.2201,-81.5742"/>
<polygon fill="#191970" stroke="#191970" points="303.8758,-119.3661 314.4328,-118.4718 305.6223,-112.5874 303.8758,-119.3661"/>
</g>
<!-- Node93 -->
<g id="node3" class="node">
<title>Node93</title>
<g id="a_node3"><a xlink:href="$d1/dc1/a00092.html" xlink:title="Server/maingameloop.h">
<polygon fill="none" stroke="#000000" points="274.9204,-59.5 274.9204,-81.5 439.5542,-81.5 439.5542,-59.5 274.9204,-59.5"/>
<text text-anchor="middle" x="357.2373" y="-66.3" font-family="Helvetica,sans-Serif" font-size="14.00" fill="#000000">Server/maingameloop.h</text>
</a>
</g>
</g>
<!-- Node91&#45;&gt;Node93 -->
<g id="edge2" class="edge">
<title>Node91&#45;&gt;Node93</title>
<path fill="none" stroke="#191970" d="M357.2373,-108.198C357.2373,-99.1726 357.2373,-89.0351 357.2373,-81.5477"/>
<polygon fill="#191970" stroke="#191970" points="353.7374,-108.4025 357.2373,-118.4026 360.7374,-108.4026 353.7374,-108.4025"/>
</g>
<!-- Node96 -->
<g id="node6" class="node">
<title>Node96</title>
<g id="a_node6"><a xlink:href="$d4/d3a/a00101.html" xlink:title="Server/serverconnection.cpp">
<polygon fill="none" stroke="#000000" points="457.1377,-59.5 457.1377,-81.5 651.3369,-81.5 651.3369,-59.5 457.1377,-59.5"/>
<text text-anchor="middle" x="554.2373" y="-66.3" font-family="Helvetica,sans-Serif" font-size="14.00" fill="#000000">Server/serverconnection.cpp</text>
</a>
</g>
</g>
<!-- Node91&#45;&gt;Node96 -->
<g id="edge5" class="edge">
<title>Node91&#45;&gt;Node96</title>
<path fill="none" stroke="#191970" d="M404.1818,-115.4405C438.8351,-105.0621 485.3432,-91.1333 517.3493,-81.5477"/>
<polygon fill="#191970" stroke="#191970" points="402.8669,-112.1806 394.2915,-118.4026 404.8753,-118.8863 402.8669,-112.1806"/>
</g>
<!-- Node94 -->
<g id="node4" class="node">
<title>Node94</title>
<g id="a_node4"><a xlink:href="$d6/db6/a00241.html" xlink:title="Server/main.cpp">
<polygon fill="none" stroke="#000000" points="214.272,-.5 214.272,-22.5 332.2026,-22.5 332.2026,-.5 214.272,-.5"/>
<text text-anchor="middle" x="273.2373" y="-7.3" font-family="Helvetica,sans-Serif" font-size="14.00" fill="#000000">Server/main.cpp</text>
</a>
</g>
</g>
<!-- Node93&#45;&gt;Node94 -->
<g id="edge3" class="edge">
<title>Node93&#45;&gt;Node94</title>
<path fill="none" stroke="#191970" d="M333.1102,-53.5536C318.9199,-43.5866 301.3835,-31.2693 288.9662,-22.5477"/>
<polygon fill="#191970" stroke="#191970" points="331.2427,-56.5189 341.4375,-59.4026 335.2661,-50.7907 331.2427,-56.5189"/>
</g>
<!-- Node95 -->
<g id="node5" class="node">
<title>Node95</title>
<g id="a_node5"><a xlink:href="$db/dab/a00089.html" xlink:title="Server/maingameloop.cpp">
<polygon fill="none" stroke="#000000" points="350.5273,-.5 350.5273,-22.5 529.9473,-22.5 529.9473,-.5 350.5273,-.5"/>
<text text-anchor="middle" x="440.2373" y="-7.3" font-family="Helvetica,sans-Serif" font-size="14.00" fill="#000000">Server/maingameloop.cpp</text>
</a>
</g>
</g>
<!-- Node93&#45;&gt;Node95 -->
<g id="edge4" class="edge">
<title>Node93&#45;&gt;Node95</title>
<path fill="none" stroke="#191970" d="M381.0772,-53.5536C395.0986,-43.5866 412.4262,-31.2693 424.6956,-22.5477"/>
<polygon fill="#191970" stroke="#191970" points="378.9717,-50.756 372.849,-59.4026 383.0274,-56.4614 378.9717,-50.756"/>
</g>
</g>
</svg>
