<?xml version="1.0" encoding="UTF-8" standalone="no"?>
<!DOCTYPE svg PUBLIC "-//W3C//DTD SVG 1.1//EN"
 "http://www.w3.org/Graphics/SVG/1.1/DTD/svg11.dtd">
<!-- Generated by graphviz version 2.40.1 (20161225.0304)
 -->
<!-- Title: ServerConnection::startServer Pages: 1 -->
<svg width="406pt" height="31pt"
 viewBox="0.00 0.00 405.78 31.00" xmlns="http://www.w3.org/2000/svg" xmlns:xlink="http://www.w3.org/1999/xlink">
<g id="graph0" class="graph" transform="scale(1 1) rotate(0) translate(4 27)">
<title>ServerConnection::startServer</title>
<!-- Node21 -->
<g id="node1" class="node">
<title>Node21</title>
<polygon fill="#bfbfbf" stroke="#000000" points="0,-.5 0,-22.5 204.3027,-22.5 204.3027,-.5 0,-.5"/>
<text text-anchor="middle" x="102.1514" y="-7.3" font-family="Helvetica,sans-Serif" font-size="14.00" fill="#000000">ServerConnection::startServer</text>
</g>
<!-- Node22 -->
<g id="node2" class="node">
<title>Node22</title>
<g id="a_node2"><a xlink:href="../../d6/dda/Server_2main_8cpp.html#a29060721f5ddfa26790f0778bde74ff2" target="_top" xlink:title="initServer">
<polygon fill="none" stroke="#000000" points="240.3027,-.5 240.3027,-22.5 315.4336,-22.5 315.4336,-.5 240.3027,-.5"/>
<text text-anchor="middle" x="277.8682" y="-7.3" font-family="Helvetica,sans-Serif" font-size="14.00" fill="#000000">initServer</text>
</a>
</g>
</g>
<!-- Node21&#45;&gt;Node22 -->
<g id="edge1" class="edge">
<title>Node21&#45;&gt;Node22</title>
<path fill="none" stroke="#191970" d="M214.3668,-11.5C223.4648,-11.5 232.1845,-11.5 240.0916,-11.5"/>
<polygon fill="#191970" stroke="#191970" points="214.3666,-8.0001 204.3666,-11.5 214.3665,-15.0001 214.3666,-8.0001"/>
</g>
<!-- Node23 -->
<g id="node3" class="node">
<title>Node23</title>
<g id="a_node3"><a xlink:href="../../d6/dda/Server_2main_8cpp.html#a0ddf1224851353fc92bfbff6f499fa97" target="_top" xlink:title="main">
<polygon fill="none" stroke="#000000" points="351.4336,-.5 351.4336,-22.5 397.7783,-22.5 397.7783,-.5 351.4336,-.5"/>
<text text-anchor="middle" x="374.606" y="-7.3" font-family="Helvetica,sans-Serif" font-size="14.00" fill="#000000">main</text>
</a>
</g>
</g>
<!-- Node22&#45;&gt;Node23 -->
<g id="edge2" class="edge">
<title>Node22&#45;&gt;Node23</title>
<path fill="none" stroke="#191970" d="M325.6133,-11.5C334.5989,-11.5 343.6133,-11.5 351.4156,-11.5"/>
<polygon fill="#191970" stroke="#191970" points="325.5466,-8.0001 315.5465,-11.5 325.5465,-15.0001 325.5466,-8.0001"/>
</g>
</g>
</svg>
