<?xml version="1.0" encoding="UTF-8" standalone="no"?>
<!DOCTYPE svg PUBLIC "-//W3C//DTD SVG 1.1//EN"
 "http://www.w3.org/Graphics/SVG/1.1/DTD/svg11.dtd">
<!-- Generated by graphviz version 2.40.1 (20161225.0304)
 -->
<!-- Title: std::unordered_multiset&lt; K &gt; Pages: 1 -->
<svg width="204pt" height="192pt"
 viewBox="0.00 0.00 203.77 192.00" xmlns="http://www.w3.org/2000/svg" xmlns:xlink="http://www.w3.org/1999/xlink">
<g id="graph0" class="graph" transform="scale(1 1) rotate(0) translate(4 188)">
<title>std::unordered_multiset&lt; K &gt;</title>
<!-- Node869 -->
<g id="node1" class="node">
<title>Node869</title>
<polygon fill="#bfbfbf" stroke="#000000" points="0,-.5 0,-66.5 195.7715,-66.5 195.7715,-.5 0,-.5"/>
<text text-anchor="middle" x="97.8857" y="-51.3" font-family="Helvetica,sans-Serif" font-size="14.00" fill="#000000">std::unordered_multiset&lt; K &gt;</text>
<polyline fill="none" stroke="#000000" points="0,-44.5 195.7715,-44.5 "/>
<text text-anchor="middle" x="97.8857" y="-29.3" font-family="Helvetica,sans-Serif" font-size="14.00" fill="#000000"> </text>
<polyline fill="none" stroke="#000000" points="0,-22.5 195.7715,-22.5 "/>
<text text-anchor="middle" x="97.8857" y="-7.3" font-family="Helvetica,sans-Serif" font-size="14.00" fill="#000000"> </text>
</g>
<!-- Node870 -->
<g id="node2" class="node">
<title>Node870</title>
<polygon fill="none" stroke="#bfbfbf" points="83.3857,-117.5 83.3857,-183.5 112.3857,-183.5 112.3857,-117.5 83.3857,-117.5"/>
<text text-anchor="middle" x="97.5547" y="-168.3" font-family="Helvetica,sans-Serif" font-size="14.00" fill="#000000">K</text>
<polyline fill="none" stroke="#bfbfbf" points="83.3857,-161.5 111.7236,-161.5 "/>
<text text-anchor="middle" x="97.5547" y="-146.3" font-family="Helvetica,sans-Serif" font-size="14.00" fill="#000000"> </text>
<polyline fill="none" stroke="#bfbfbf" points="83.3857,-139.5 111.7236,-139.5 "/>
<text text-anchor="middle" x="97.5547" y="-124.3" font-family="Helvetica,sans-Serif" font-size="14.00" fill="#000000"> </text>
</g>
<!-- Node870&#45;&gt;Node869 -->
<g id="edge1" class="edge">
<title>Node870&#45;&gt;Node869</title>
<path fill="none" stroke="#404040" d="M97.8857,-117.2855C97.8857,-105.4288 97.8857,-91.8562 97.8857,-79.1371"/>
<polygon fill="none" stroke="#404040" points="97.8858,-78.7976 93.8858,-72.7976 97.8857,-66.7976 101.8858,-72.7976 97.8858,-78.7976"/>
<text text-anchor="middle" x="118.3115" y="-87.8" font-family="Helvetica,sans-Serif" font-size="14.00" fill="#000000"> +keys</text>
</g>
</g>
</svg>
