<?xml version="1.0" encoding="UTF-8" standalone="no"?>
<!DOCTYPE svg PUBLIC "-//W3C//DTD SVG 1.1//EN"
 "http://www.w3.org/Graphics/SVG/1.1/DTD/svg11.dtd">
<!-- Generated by graphviz version 2.40.1 (20161225.0304)
 -->
<!-- Title: receiveRespnceThread Pages: 1 -->
<svg width="169pt" height="220pt"
 viewBox="0.00 0.00 168.74 220.00" xmlns="http://www.w3.org/2000/svg" xmlns:xlink="http://www.w3.org/1999/xlink">
<g id="graph0" class="graph" transform="scale(1 1) rotate(0) translate(4 216)">
<title>receiveRespnceThread</title>
<!-- Node122 -->
<g id="node1" class="node">
<title>Node122</title>
<polygon fill="#bfbfbf" stroke="#000000" points="0,-.5 0,-108.5 160.7441,-108.5 160.7441,-.5 0,-.5"/>
<text text-anchor="middle" x="80.3721" y="-93.3" font-family="Helvetica,sans-Serif" font-size="14.00" fill="#000000">receiveRespnceThread</text>
<polyline fill="none" stroke="#000000" points="0,-86.5 160.7441,-86.5 "/>
<text text-anchor="start" x="8" y="-71.3" font-family="Helvetica,sans-Serif" font-size="14.00" fill="#000000">+ mutex</text>
<text text-anchor="start" x="8" y="-57.3" font-family="Helvetica,sans-Serif" font-size="14.00" fill="#000000">+ diff</text>
<text text-anchor="start" x="8" y="-43.3" font-family="Helvetica,sans-Serif" font-size="14.00" fill="#000000">+ message</text>
<text text-anchor="start" x="8" y="-29.3" font-family="Helvetica,sans-Serif" font-size="14.00" fill="#000000">+ responceMessage</text>
<polyline fill="none" stroke="#000000" points="0,-22.5 160.7441,-22.5 "/>
<text text-anchor="start" x="8" y="-7.3" font-family="Helvetica,sans-Serif" font-size="14.00" fill="#000000"># run()</text>
</g>
<!-- Node123 -->
<g id="node2" class="node">
<title>Node123</title>
<polygon fill="none" stroke="#bfbfbf" points="44.748,-145.5 44.748,-211.5 115.9961,-211.5 115.9961,-145.5 44.748,-145.5"/>
<text text-anchor="middle" x="80.3721" y="-196.3" font-family="Helvetica,sans-Serif" font-size="14.00" fill="#000000">QThread</text>
<polyline fill="none" stroke="#bfbfbf" points="44.748,-189.5 115.9961,-189.5 "/>
<text text-anchor="middle" x="80.3721" y="-174.3" font-family="Helvetica,sans-Serif" font-size="14.00" fill="#000000"> </text>
<polyline fill="none" stroke="#bfbfbf" points="44.748,-167.5 115.9961,-167.5 "/>
<text text-anchor="middle" x="80.3721" y="-152.3" font-family="Helvetica,sans-Serif" font-size="14.00" fill="#000000"> </text>
</g>
<!-- Node123&#45;&gt;Node122 -->
<g id="edge1" class="edge">
<title>Node123&#45;&gt;Node122</title>
<path fill="none" stroke="#191970" d="M80.3721,-135.2113C80.3721,-126.7144 80.3721,-117.7002 80.3721,-108.8938"/>
<polygon fill="none" stroke="#191970" points="76.8722,-135.2702 80.3721,-145.2703 83.8722,-135.2703 76.8722,-135.2702"/>
</g>
</g>
</svg>
