<?xml version="1.0" encoding="UTF-8" standalone="no"?>
<!DOCTYPE svg PUBLIC "-//W3C//DTD SVG 1.1//EN"
 "http://www.w3.org/Graphics/SVG/1.1/DTD/svg11.dtd">
<!-- Generated by graphviz version 2.40.1 (20161225.0304)
 -->
<!-- Title: Core/connection/simpleconnection.h Pages: 1 -->
<!--zoomable 208 -->
<svg id="main" version="1.1" xmlns="http://www.w3.org/2000/svg" xmlns:xlink="http://www.w3.org/1999/xlink" xml:space="preserve" onload="init(evt)">
<style type="text/css"><![CDATA[
.edge:hover path { stroke: red; }
.edge:hover polygon { stroke: red; fill: red; }
]]></style>
<script type="text/javascript"><![CDATA[
var edges = document.getElementsByTagName('g');
if (edges && edges.length) {
  for (var i=0;i<edges.length;i++) {
    if (edges[i].id.substr(0,4)=='edge') {
      edges[i].setAttribute('class','edge');
    }
  }
}
]]></script>
        <defs>
                <circle id="rim" cx="0" cy="0" r="7"/>
                <circle id="rim2" cx="0" cy="0" r="3.5"/>
                <g id="zoomPlus">
                        <use xlink:href="#rim" fill="#404040">
                                <set attributeName="fill" to="#808080" begin="zoomplus.mouseover" end="zoomplus.mouseout"/>
                        </use>
                        <path d="M-4,0h8M0,-4v8" fill="none" stroke="white" stroke-width="1.5" pointer-events="none"/>
                </g>
                <g id="zoomMin">
                        <use xlink:href="#rim" fill="#404040">
                                <set attributeName="fill" to="#808080" begin="zoomminus.mouseover" end="zoomminus.mouseout"/>
                        </use>
                        <path d="M-4,0h8" fill="none" stroke="white" stroke-width="1.5" pointer-events="none"/>
                </g>
                <g id="dirArrow">
                        <path fill="none" stroke="white" stroke-width="1.5" d="M0,-3.0v7 M-2.5,-0.5L0,-3.0L2.5,-0.5"/>
                </g>
               <g id="resetDef">
                       <use xlink:href="#rim2" fill="#404040">
                               <set attributeName="fill" to="#808080" begin="reset.mouseover" end="reset.mouseout"/>
                       </use>
               </g>
        </defs>

<script type="text/javascript">
var viewWidth = 904;
var viewHeight = 208;
var sectionId = 'dynsection-0';
</script>
<script xlink:href="../../svgpan.js"/>
<svg id="graph" class="graph">
<g id="viewport">
<title>Core/connection/simpleconnection.h</title>
<!-- Node0 -->
<g id="node1" class="node">
<title>Node0</title>
<polygon fill="#bfbfbf" stroke="#000000" points="166.6729,-177.5 166.6729,-199.5 408.3613,-199.5 408.3613,-177.5 166.6729,-177.5"/>
<text text-anchor="middle" x="287.5171" y="-184.3" font-family="Helvetica,sans-Serif" font-size="14.00" fill="#000000">Core/connection/simpleconnection.h</text>
</g>
<!-- Node1 -->
<g id="node2" class="node">
<title>Node1</title>
<polygon fill="none" stroke="#bfbfbf" points="0,-118.5 0,-140.5 107.0342,-140.5 107.0342,-118.5 0,-118.5"/>
<text text-anchor="middle" x="53.5171" y="-125.3" font-family="Helvetica,sans-Serif" font-size="14.00" fill="#000000">QHostAddress</text>
</g>
<!-- Node0&#45;&gt;Node1 -->
<g id="edge1" class="edge">
<title>Node0&#45;&gt;Node1</title>
<path fill="none" stroke="#191970" d="M243.778,-177.4718C205.1611,-167.735 148.7272,-153.506 107.3483,-143.0728"/>
<polygon fill="#191970" stroke="#191970" points="107.9907,-139.6253 97.4384,-140.5742 106.2792,-146.4129 107.9907,-139.6253"/>
</g>
<!-- Node2 -->
<g id="node3" class="node">
<title>Node2</title>
<polygon fill="none" stroke="#bfbfbf" points="212.8413,-59.5 212.8413,-81.5 280.1929,-81.5 280.1929,-59.5 212.8413,-59.5"/>
<text text-anchor="middle" x="246.5171" y="-66.3" font-family="Helvetica,sans-Serif" font-size="14.00" fill="#000000">QObject</text>
</g>
<!-- Node0&#45;&gt;Node2 -->
<g id="edge2" class="edge">
<title>Node0&#45;&gt;Node2</title>
<path fill="none" stroke="#191970" d="M371.2893,-177.4969C419.3046,-167.6055 465.5072,-149.6002 440.5171,-118 399.3879,-65.9919 359.5313,-96.1509 290.3726,-82.1694"/>
<polygon fill="#191970" stroke="#191970" points="290.9452,-78.71 280.4163,-79.8904 289.3833,-85.5335 290.9452,-78.71"/>
</g>
<!-- Node3 -->
<g id="node4" class="node">
<title>Node3</title>
<polygon fill="none" stroke="#bfbfbf" points="163.8931,-118.5 163.8931,-140.5 235.1411,-140.5 235.1411,-118.5 163.8931,-118.5"/>
<text text-anchor="middle" x="199.5171" y="-125.3" font-family="Helvetica,sans-Serif" font-size="14.00" fill="#000000">QThread</text>
</g>
<!-- Node0&#45;&gt;Node3 -->
<g id="edge3" class="edge">
<title>Node0&#45;&gt;Node3</title>
<path fill="none" stroke="#191970" d="M270.965,-177.4026C257.9361,-168.6673 239.5611,-156.3477 224.7084,-146.3896"/>
<polygon fill="#191970" stroke="#191970" points="226.25,-143.2094 215.995,-140.5477 222.3519,-149.0236 226.25,-143.2094"/>
</g>
<!-- Node4 -->
<g id="node5" class="node">
<title>Node4</title>
<polygon fill="none" stroke="#bfbfbf" points="253.0552,-118.5 253.0552,-140.5 321.979,-140.5 321.979,-118.5 253.0552,-118.5"/>
<text text-anchor="middle" x="287.5171" y="-125.3" font-family="Helvetica,sans-Serif" font-size="14.00" fill="#000000">QQueue</text>
</g>
<!-- Node0&#45;&gt;Node4 -->
<g id="edge4" class="edge">
<title>Node0&#45;&gt;Node4</title>
<path fill="none" stroke="#191970" d="M287.5171,-177.4026C287.5171,-169.9034 287.5171,-159.7626 287.5171,-150.7421"/>
<polygon fill="#191970" stroke="#191970" points="291.0172,-150.5477 287.5171,-140.5477 284.0172,-150.5477 291.0172,-150.5477"/>
</g>
<!-- Node5 -->
<g id="node6" class="node">
<title>Node5</title>
<polygon fill="none" stroke="#bfbfbf" points="339.7793,-118.5 339.7793,-140.5 431.2549,-140.5 431.2549,-118.5 339.7793,-118.5"/>
<text text-anchor="middle" x="385.5171" y="-125.3" font-family="Helvetica,sans-Serif" font-size="14.00" fill="#000000">QTcpSocket</text>
</g>
<!-- Node0&#45;&gt;Node5 -->
<g id="edge5" class="edge">
<title>Node0&#45;&gt;Node5</title>
<path fill="none" stroke="#191970" d="M305.9501,-177.4026C320.7334,-168.5025 341.697,-155.8815 358.3951,-145.8285"/>
<polygon fill="#191970" stroke="#191970" points="360.4047,-148.7041 367.1667,-140.5477 356.7942,-142.707 360.4047,-148.7041"/>
</g>
<!-- Node6 -->
<g id="node7" class="node">
<title>Node6</title>
<polygon fill="none" stroke="#bfbfbf" points="707.7241,-.5 707.7241,-22.5 809.3101,-22.5 809.3101,-.5 707.7241,-.5"/>
<text text-anchor="middle" x="758.5171" y="-7.3" font-family="Helvetica,sans-Serif" font-size="14.00" fill="#000000">QDataStream</text>
</g>
<!-- Node0&#45;&gt;Node6 -->
<g id="edge6" class="edge">
<title>Node0&#45;&gt;Node6</title>
<path fill="none" stroke="#191970" d="M239.2603,-177.466C205.4972,-168.6557 164.6863,-155.4302 154.5171,-141 128.7312,-104.4097 189.3975,-66.3787 203.5171,-59 246.4319,-36.5733 561.8995,-20.1642 697.1881,-14.0837"/>
<polygon fill="#191970" stroke="#191970" points="697.5525,-17.5711 707.3869,-13.6296 697.2411,-10.578 697.5525,-17.5711"/>
</g>
<!-- Node7 -->
<g id="node8" class="node">
<title>Node7</title>
<g id="a_node8"><a xlink:href="../../d6/d2d/a00047.html" target="_top" xlink:title="ibasegameelement.h">
<polygon fill="none" stroke="#000000" points="487.5313,-118.5 487.5313,-140.5 633.5029,-140.5 633.5029,-118.5 487.5313,-118.5"/>
<text text-anchor="middle" x="560.5171" y="-125.3" font-family="Helvetica,sans-Serif" font-size="14.00" fill="#000000">ibasegameelement.h</text>
</a>
</g>
</g>
<!-- Node0&#45;&gt;Node7 -->
<g id="edge7" class="edge">
<title>Node0&#45;&gt;Node7</title>
<path fill="none" stroke="#191970" d="M338.546,-177.4718C384.0753,-167.6321 450.8329,-153.2046 499.239,-142.7433"/>
<polygon fill="#191970" stroke="#191970" points="500.2406,-146.1077 509.2755,-140.5742 498.7618,-139.2656 500.2406,-146.1077"/>
</g>
<!-- Node7&#45;&gt;Node2 -->
<g id="edge8" class="edge">
<title>Node7&#45;&gt;Node2</title>
<path fill="none" stroke="#191970" d="M487.4161,-118.6527C434.9148,-110.4194 362.2898,-98.1296 290.497,-82.3195"/>
<polygon fill="#191970" stroke="#191970" points="290.8962,-78.8228 280.3745,-80.0654 289.3746,-85.6554 290.8962,-78.8228"/>
</g>
<!-- Node7&#45;&gt;Node6 -->
<g id="edge13" class="edge">
<title>Node7&#45;&gt;Node6</title>
<path fill="none" stroke="#191970" d="M630.005,-118.4169C673.3799,-110.1453 723.8567,-97.6 739.5171,-82 752.3807,-69.186 756.7976,-48.6411 758.1929,-33.0276"/>
<polygon fill="#191970" stroke="#191970" points="761.7057,-32.8862 758.7525,-22.7113 754.7159,-32.507 761.7057,-32.8862"/>
</g>
<!-- Node8 -->
<g id="node9" class="node">
<title>Node8</title>
<g id="a_node9"><a xlink:href="../../d3/d8b/a00059.html" target="_top" xlink:title="infinitydouble.h">
<polygon fill="none" stroke="#000000" points="786.8174,-59.5 786.8174,-81.5 896.2168,-81.5 896.2168,-59.5 786.8174,-59.5"/>
<text text-anchor="middle" x="841.5171" y="-66.3" font-family="Helvetica,sans-Serif" font-size="14.00" fill="#000000">infinitydouble.h</text>
</a>
</g>
</g>
<!-- Node7&#45;&gt;Node8 -->
<g id="edge9" class="edge">
<title>Node7&#45;&gt;Node8</title>
<path fill="none" stroke="#191970" d="M613.0414,-118.4718C660.0029,-108.6115 728.9063,-94.1443 778.7558,-83.6776"/>
<polygon fill="#191970" stroke="#191970" points="779.7066,-87.0544 788.774,-81.5742 778.2681,-80.2038 779.7066,-87.0544"/>
</g>
<!-- Node9 -->
<g id="node10" class="node">
<title>Node9</title>
<polygon fill="none" stroke="#bfbfbf" points="297.8413,-59.5 297.8413,-81.5 365.1929,-81.5 365.1929,-59.5 297.8413,-59.5"/>
<text text-anchor="middle" x="331.5171" y="-66.3" font-family="Helvetica,sans-Serif" font-size="14.00" fill="#000000">QPointF</text>
</g>
<!-- Node7&#45;&gt;Node9 -->
<g id="edge11" class="edge">
<title>Node7&#45;&gt;Node9</title>
<path fill="none" stroke="#191970" d="M516.5112,-118.4109C480.9353,-109.4124 429.3032,-96.2775 375.0974,-82.1337"/>
<polygon fill="#191970" stroke="#191970" points="375.8687,-78.7178 365.3086,-79.5759 374.0989,-85.4904 375.8687,-78.7178"/>
</g>
<!-- Node10 -->
<g id="node11" class="node">
<title>Node10</title>
<polygon fill="none" stroke="#bfbfbf" points="383.3413,-59.5 383.3413,-81.5 471.6929,-81.5 471.6929,-59.5 383.3413,-59.5"/>
<text text-anchor="middle" x="427.5171" y="-66.3" font-family="Helvetica,sans-Serif" font-size="14.00" fill="#000000">QByteArray</text>
</g>
<!-- Node7&#45;&gt;Node10 -->
<g id="edge12" class="edge">
<title>Node7&#45;&gt;Node10</title>
<path fill="none" stroke="#191970" d="M535.5008,-118.4026C514.6948,-109.1728 484.8683,-95.9415 461.8321,-85.7224"/>
<polygon fill="#191970" stroke="#191970" points="462.9814,-82.4034 452.4212,-81.5477 460.1429,-88.8021 462.9814,-82.4034"/>
</g>
<!-- Node11 -->
<g id="node12" class="node">
<title>Node11</title>
<polygon fill="none" stroke="#bfbfbf" points="489.7861,-59.5 489.7861,-81.5 553.248,-81.5 553.248,-59.5 489.7861,-59.5"/>
<text text-anchor="middle" x="521.5171" y="-66.3" font-family="Helvetica,sans-Serif" font-size="14.00" fill="#000000">QString</text>
</g>
<!-- Node7&#45;&gt;Node11 -->
<g id="edge14" class="edge">
<title>Node7&#45;&gt;Node11</title>
<path fill="none" stroke="#191970" d="M553.1815,-118.4026C547.8976,-110.4089 540.6296,-99.4138 534.3894,-89.9736"/>
<polygon fill="#191970" stroke="#191970" points="537.2539,-87.9599 528.8198,-81.5477 531.4144,-91.8199 537.2539,-87.9599"/>
</g>
<!-- Node12 -->
<g id="node13" class="node">
<title>Node12</title>
<polygon fill="none" stroke="#bfbfbf" points="570.7734,-59.5 570.7734,-81.5 628.2607,-81.5 628.2607,-59.5 570.7734,-59.5"/>
<text text-anchor="middle" x="599.5171" y="-66.3" font-family="Helvetica,sans-Serif" font-size="14.00" fill="#000000">QTime</text>
</g>
<!-- Node7&#45;&gt;Node12 -->
<g id="edge15" class="edge">
<title>Node7&#45;&gt;Node12</title>
<path fill="none" stroke="#191970" d="M567.8527,-118.4026C573.1366,-110.4089 580.4046,-99.4138 586.6447,-89.9736"/>
<polygon fill="#191970" stroke="#191970" points="589.6198,-91.8199 592.2144,-81.5477 583.7802,-87.9599 589.6198,-91.8199"/>
</g>
<!-- Node13 -->
<g id="node14" class="node">
<title>Node13</title>
<polygon fill="none" stroke="#bfbfbf" points="646.2759,-59.5 646.2759,-81.5 730.7583,-81.5 730.7583,-59.5 646.2759,-59.5"/>
<text text-anchor="middle" x="688.5171" y="-66.3" font-family="Helvetica,sans-Serif" font-size="14.00" fill="#000000">QVector3D</text>
</g>
<!-- Node7&#45;&gt;Node13 -->
<g id="edge16" class="edge">
<title>Node7&#45;&gt;Node13</title>
<path fill="none" stroke="#191970" d="M584.5929,-118.4026C604.5273,-109.214 633.0658,-96.0596 655.1949,-85.8595"/>
<polygon fill="#191970" stroke="#191970" points="656.9327,-88.9124 664.5492,-81.5477 654.0024,-82.5552 656.9327,-88.9124"/>
</g>
<!-- Node8&#45;&gt;Node6 -->
<g id="edge10" class="edge">
<title>Node8&#45;&gt;Node6</title>
<path fill="none" stroke="#191970" d="M825.9054,-59.4026C813.6168,-50.6673 796.2858,-38.3477 782.2771,-28.3896"/>
<polygon fill="#191970" stroke="#191970" points="784.2372,-25.4888 774.0588,-22.5477 780.1815,-31.1942 784.2372,-25.4888"/>
</g>
</g>
</svg>
        <g id="navigator" transform="translate(0 0)" fill="#404254">
                <rect fill="#f2f5e9" fill-opacity="0.5" stroke="#606060" stroke-width=".5" x="0" y="0" width="60" height="60"/>
                <use id="zoomplus" xlink:href="#zoomPlus" x="17" y="9" onmousedown="handleZoom(evt,'in')"/>
                <use id="zoomminus" xlink:href="#zoomMin" x="42" y="9" onmousedown="handleZoom(evt,'out')"/>
                <use id="reset" xlink:href="#resetDef" x="30" y="36" onmousedown="handleReset()"/>
                <g id="arrowUp" xlink:href="#dirArrow" transform="translate(30 24)" onmousedown="handlePan(0,-1)">
                  <use xlink:href="#rim" fill="#404040">
                        <set attributeName="fill" to="#808080" begin="arrowUp.mouseover" end="arrowUp.mouseout"/>
                  </use>
                  <path fill="none" stroke="white" stroke-width="1.5" d="M0,-3.0v7 M-2.5,-0.5L0,-3.0L2.5,-0.5"/>
                </g>
                <g id="arrowRight" xlink:href="#dirArrow" transform="rotate(90) translate(36 -43)" onmousedown="handlePan(1,0)">
                  <use xlink:href="#rim" fill="#404040">
                        <set attributeName="fill" to="#808080" begin="arrowRight.mouseover" end="arrowRight.mouseout"/>
                  </use>
                  <path fill="none" stroke="white" stroke-width="1.5" d="M0,-3.0v7 M-2.5,-0.5L0,-3.0L2.5,-0.5"/>
                </g>
                <g id="arrowDown" xlink:href="#dirArrow" transform="rotate(180) translate(-30 -48)" onmousedown="handlePan(0,1)">
                  <use xlink:href="#rim" fill="#404040">
                        <set attributeName="fill" to="#808080" begin="arrowDown.mouseover" end="arrowDown.mouseout"/>
                  </use>
                  <path fill="none" stroke="white" stroke-width="1.5" d="M0,-3.0v7 M-2.5,-0.5L0,-3.0L2.5,-0.5"/>
                </g>
                <g id="arrowLeft" xlink:href="#dirArrow" transform="rotate(270) translate(-36 17)" onmousedown="handlePan(-1,0)">
                  <use xlink:href="#rim" fill="#404040">
                        <set attributeName="fill" to="#808080" begin="arrowLeft.mouseover" end="arrowLeft.mouseout"/>
                  </use>
                  <path fill="none" stroke="white" stroke-width="1.5" d="M0,-3.0v7 M-2.5,-0.5L0,-3.0L2.5,-0.5"/>
                </g>
        </g>
        <svg viewBox="0 0 15 15" width="100%" height="30px" preserveAspectRatio="xMaxYMin meet">
         <g id="arrow_out" transform="scale(0.3 0.3)">
          <a xlink:href="a00009_org.svg" target="_base">
           <rect id="button" ry="5" rx="5" y="6" x="6" height="38" width="38"
                fill="#f2f5e9" fill-opacity="0.5" stroke="#606060" stroke-width="1.0"/>
           <path id="arrow"
             d="M 11.500037,31.436501 C 11.940474,20.09759 22.043105,11.32322 32.158766,21.979434 L 37.068811,17.246167 C 37.068811,17.246167 37.088388,32 37.088388,32 L 22.160133,31.978069 C 22.160133,31.978069 26.997745,27.140456 26.997745,27.140456 C 18.528582,18.264221 13.291696,25.230495 11.500037,31.436501 z"
             style="fill:#404040;"/>
          </a>
         </g>
        </svg>
</svg>
