<?xml version="1.0" encoding="UTF-8" standalone="no"?>
<!DOCTYPE svg PUBLIC "-//W3C//DTD SVG 1.1//EN"
 "http://www.w3.org/Graphics/SVG/1.1/DTD/svg11.dtd">
<!-- Generated by graphviz version 2.40.1 (20161225.0304)
 -->
<!-- Title: std::multimap&lt; K, T &gt; Pages: 1 -->
<svg width="167pt" height="192pt"
 viewBox="0.00 0.00 167.15 192.00" xmlns="http://www.w3.org/2000/svg" xmlns:xlink="http://www.w3.org/1999/xlink">
<g id="graph0" class="graph" transform="scale(1 1) rotate(0) translate(4 188)">
<title>std::multimap&lt; K, T &gt;</title>
<!-- Node662 -->
<g id="node1" class="node">
<title>Node662</title>
<polygon fill="#bfbfbf" stroke="#000000" points="0,-.5 0,-66.5 148.5557,-66.5 148.5557,-.5 0,-.5"/>
<text text-anchor="middle" x="74.2778" y="-51.3" font-family="Helvetica,sans-Serif" font-size="14.00" fill="#000000">std::multimap&lt; K, T &gt;</text>
<polyline fill="none" stroke="#000000" points="0,-44.5 148.5557,-44.5 "/>
<text text-anchor="middle" x="74.2778" y="-29.3" font-family="Helvetica,sans-Serif" font-size="14.00" fill="#000000"> </text>
<polyline fill="none" stroke="#000000" points="0,-22.5 148.5557,-22.5 "/>
<text text-anchor="middle" x="74.2778" y="-7.3" font-family="Helvetica,sans-Serif" font-size="14.00" fill="#000000"> </text>
</g>
<!-- Node663 -->
<g id="node2" class="node">
<title>Node663</title>
<polygon fill="none" stroke="#bfbfbf" points="27.7778,-117.5 27.7778,-183.5 56.7778,-183.5 56.7778,-117.5 27.7778,-117.5"/>
<text text-anchor="middle" x="41.9468" y="-168.3" font-family="Helvetica,sans-Serif" font-size="14.00" fill="#000000">K</text>
<polyline fill="none" stroke="#bfbfbf" points="27.7778,-161.5 56.1157,-161.5 "/>
<text text-anchor="middle" x="41.9468" y="-146.3" font-family="Helvetica,sans-Serif" font-size="14.00" fill="#000000"> </text>
<polyline fill="none" stroke="#bfbfbf" points="27.7778,-139.5 56.1157,-139.5 "/>
<text text-anchor="middle" x="41.9468" y="-124.3" font-family="Helvetica,sans-Serif" font-size="14.00" fill="#000000"> </text>
</g>
<!-- Node663&#45;&gt;Node662 -->
<g id="edge1" class="edge">
<title>Node663&#45;&gt;Node662</title>
<path fill="none" stroke="#404040" d="M39.543,-117.3563C39.55,-106.84 40.4859,-95.2786 43.4263,-85 44.1205,-82.5731 44.9595,-80.1445 45.9097,-77.7362"/>
<polygon fill="none" stroke="#404040" points="45.9826,-77.5794 44.8842,-70.4524 51.0405,-66.6974 52.1389,-73.8244 45.9826,-77.5794"/>
<text text-anchor="middle" x="64.7036" y="-87.8" font-family="Helvetica,sans-Serif" font-size="14.00" fill="#000000"> +keys</text>
</g>
<!-- Node664 -->
<g id="node3" class="node">
<title>Node664</title>
<polygon fill="none" stroke="#bfbfbf" points="91.7778,-117.5 91.7778,-183.5 120.7778,-183.5 120.7778,-117.5 91.7778,-117.5"/>
<text text-anchor="middle" x="106.0537" y="-168.3" font-family="Helvetica,sans-Serif" font-size="14.00" fill="#000000">T</text>
<polyline fill="none" stroke="#bfbfbf" points="91.7778,-161.5 120.3296,-161.5 "/>
<text text-anchor="middle" x="106.0537" y="-146.3" font-family="Helvetica,sans-Serif" font-size="14.00" fill="#000000"> </text>
<polyline fill="none" stroke="#bfbfbf" points="91.7778,-139.5 120.3296,-139.5 "/>
<text text-anchor="middle" x="106.0537" y="-124.3" font-family="Helvetica,sans-Serif" font-size="14.00" fill="#000000"> </text>
</g>
<!-- Node664&#45;&gt;Node662 -->
<g id="edge2" class="edge">
<title>Node664&#45;&gt;Node662</title>
<path fill="none" stroke="#404040" d="M97.1935,-117.2855C93.9169,-105.3053 90.1611,-91.5732 86.6511,-78.7399"/>
<polygon fill="none" stroke="#404040" points="86.5507,-78.3725 81.1095,-73.6403 83.3849,-66.7976 88.8261,-71.5298 86.5507,-78.3725"/>
<text text-anchor="middle" x="124.7139" y="-87.8" font-family="Helvetica,sans-Serif" font-size="14.00" fill="#000000"> +elements</text>
</g>
</g>
</svg>
