<?xml version="1.0" encoding="UTF-8" standalone="no"?>
<!DOCTYPE svg PUBLIC "-//W3C//DTD SVG 1.1//EN"
 "http://www.w3.org/Graphics/SVG/1.1/DTD/svg11.dtd">
<!-- Generated by graphviz version 2.40.1 (20161225.0304)
 -->
<!-- Title: std::ios Pages: 1 -->
<svg width="160pt" height="281pt"
 viewBox="0.00 0.00 160.19 281.00" xmlns="http://www.w3.org/2000/svg" xmlns:xlink="http://www.w3.org/1999/xlink">
<g id="graph0" class="graph" transform="scale(1 1) rotate(0) translate(4 277)">
<title>std::ios</title>
<!-- Node475 -->
<g id="node1" class="node">
<title>Node475</title>
<polygon fill="#bfbfbf" stroke="#000000" points="45.917,-.5 45.917,-66.5 106.2686,-66.5 106.2686,-.5 45.917,-.5"/>
<text text-anchor="middle" x="76.0928" y="-51.3" font-family="Helvetica,sans-Serif" font-size="14.00" fill="#000000">std::ios</text>
<polyline fill="none" stroke="#000000" points="45.917,-44.5 106.2686,-44.5 "/>
<text text-anchor="middle" x="76.0928" y="-29.3" font-family="Helvetica,sans-Serif" font-size="14.00" fill="#000000"> </text>
<polyline fill="none" stroke="#000000" points="45.917,-22.5 106.2686,-22.5 "/>
<text text-anchor="middle" x="76.0928" y="-7.3" font-family="Helvetica,sans-Serif" font-size="14.00" fill="#000000"> </text>
</g>
<!-- Node476 -->
<g id="node2" class="node">
<title>Node476</title>
<g id="a_node2"><a xlink:title="STL class. ">
<polygon fill="none" stroke="#bfbfbf" points="0,-103.5 0,-169.5 152.1855,-169.5 152.1855,-103.5 0,-103.5"/>
<text text-anchor="middle" x="76.0928" y="-154.3" font-family="Helvetica,sans-Serif" font-size="14.00" fill="#000000">std::basic_ios&lt; char &gt;</text>
<polyline fill="none" stroke="#bfbfbf" points="0,-147.5 152.1855,-147.5 "/>
<text text-anchor="middle" x="76.0928" y="-132.3" font-family="Helvetica,sans-Serif" font-size="14.00" fill="#000000"> </text>
<polyline fill="none" stroke="#bfbfbf" points="0,-125.5 152.1855,-125.5 "/>
<text text-anchor="middle" x="76.0928" y="-110.3" font-family="Helvetica,sans-Serif" font-size="14.00" fill="#000000"> </text>
</a>
</g>
</g>
<!-- Node476&#45;&gt;Node475 -->
<g id="edge1" class="edge">
<title>Node476&#45;&gt;Node475</title>
<path fill="none" stroke="#191970" d="M76.0928,-93.1362C76.0928,-84.256 76.0928,-75.0447 76.0928,-66.5947"/>
<polygon fill="none" stroke="#191970" points="72.5929,-93.3432 76.0928,-103.3432 79.5929,-93.3432 72.5929,-93.3432"/>
</g>
<!-- Node477 -->
<g id="node3" class="node">
<title>Node477</title>
<g id="a_node3"><a xlink:title="STL class. ">
<polygon fill="none" stroke="#bfbfbf" points="26.8447,-206.5 26.8447,-272.5 125.3408,-272.5 125.3408,-206.5 26.8447,-206.5"/>
<text text-anchor="middle" x="76.0928" y="-257.3" font-family="Helvetica,sans-Serif" font-size="14.00" fill="#000000">std::ios_base</text>
<polyline fill="none" stroke="#bfbfbf" points="26.8447,-250.5 125.3408,-250.5 "/>
<text text-anchor="middle" x="76.0928" y="-235.3" font-family="Helvetica,sans-Serif" font-size="14.00" fill="#000000"> </text>
<polyline fill="none" stroke="#bfbfbf" points="26.8447,-228.5 125.3408,-228.5 "/>
<text text-anchor="middle" x="76.0928" y="-213.3" font-family="Helvetica,sans-Serif" font-size="14.00" fill="#000000"> </text>
</a>
</g>
</g>
<!-- Node477&#45;&gt;Node476 -->
<g id="edge2" class="edge">
<title>Node477&#45;&gt;Node476</title>
<path fill="none" stroke="#191970" d="M76.0928,-196.1362C76.0928,-187.256 76.0928,-178.0447 76.0928,-169.5947"/>
<polygon fill="none" stroke="#191970" points="72.5929,-196.3432 76.0928,-206.3432 79.5929,-196.3432 72.5929,-196.3432"/>
</g>
</g>
</svg>
