<?xml version="1.0" encoding="UTF-8" standalone="no"?>
<!DOCTYPE svg PUBLIC "-//W3C//DTD SVG 1.1//EN"
 "http://www.w3.org/Graphics/SVG/1.1/DTD/svg11.dtd">
<!-- Generated by graphviz version 2.40.1 (20161225.0304)
 -->
<!-- Title: Server/main.cpp Pages: 1 -->
<svg width="1617pt" height="444pt"
 viewBox="0.00 0.00 1616.82 444.00" xmlns="http://www.w3.org/2000/svg" xmlns:xlink="http://www.w3.org/1999/xlink">
<g id="graph0" class="graph" transform="scale(1 1) rotate(0) translate(4 440)">
<title>Server/main.cpp</title>
<!-- Node0 -->
<g id="node1" class="node">
<title>Node0</title>
<polygon fill="#bfbfbf" stroke="#000000" points="281.8965,-413.5 281.8965,-435.5 399.8271,-435.5 399.8271,-413.5 281.8965,-413.5"/>
<text text-anchor="middle" x="340.8618" y="-420.3" font-family="Helvetica,sans-Serif" font-size="14.00" fill="#000000">Server/main.cpp</text>
</g>
<!-- Node1 -->
<g id="node2" class="node">
<title>Node1</title>
<polygon fill="none" stroke="#bfbfbf" points="0,-354.5 0,-376.5 125.7236,-376.5 125.7236,-354.5 0,-354.5"/>
<text text-anchor="middle" x="62.8618" y="-361.3" font-family="Helvetica,sans-Serif" font-size="14.00" fill="#000000">QCoreApplication</text>
</g>
<!-- Node0&#45;&gt;Node1 -->
<g id="edge1" class="edge">
<title>Node0&#45;&gt;Node1</title>
<path fill="none" stroke="#191970" d="M288.8983,-413.4718C242.4381,-403.6115 174.2704,-389.1443 124.9531,-378.6776"/>
<polygon fill="#191970" stroke="#191970" points="125.5506,-375.2266 115.0419,-376.5742 124.0973,-382.0741 125.5506,-375.2266"/>
</g>
<!-- Node2 -->
<g id="node3" class="node">
<title>Node2</title>
<polygon fill="none" stroke="#bfbfbf" points="143.7896,-354.5 143.7896,-376.5 211.9341,-376.5 211.9341,-354.5 143.7896,-354.5"/>
<text text-anchor="middle" x="177.8618" y="-361.3" font-family="Helvetica,sans-Serif" font-size="14.00" fill="#000000">QDebug</text>
</g>
<!-- Node0&#45;&gt;Node2 -->
<g id="edge2" class="edge">
<title>Node0&#45;&gt;Node2</title>
<path fill="none" stroke="#191970" d="M310.2028,-413.4026C284.1345,-403.9668 246.512,-390.3488 218.0391,-380.0427"/>
<polygon fill="#191970" stroke="#191970" points="218.9776,-376.6602 208.3834,-376.5477 216.5951,-383.2423 218.9776,-376.6602"/>
</g>
<!-- Node3 -->
<g id="node4" class="node">
<title>Node3</title>
<polygon fill="none" stroke="#bfbfbf" points="229.9619,-354.5 229.9619,-376.5 295.7617,-376.5 295.7617,-354.5 229.9619,-354.5"/>
<text text-anchor="middle" x="262.8618" y="-361.3" font-family="Helvetica,sans-Serif" font-size="14.00" fill="#000000">QImage</text>
</g>
<!-- Node0&#45;&gt;Node3 -->
<g id="edge3" class="edge">
<title>Node0&#45;&gt;Node3</title>
<path fill="none" stroke="#191970" d="M326.1906,-413.4026C314.7512,-404.7497 298.6622,-392.5798 285.5639,-382.6721"/>
<polygon fill="#191970" stroke="#191970" points="287.5541,-379.789 277.4672,-376.5477 283.3312,-385.3718 287.5541,-379.789"/>
</g>
<!-- Node4 -->
<g id="node5" class="node">
<title>Node4</title>
<g id="a_node5"><a xlink:href="$d5/dc4/core_8h.html" xlink:title="core.h">
<polygon fill="none" stroke="#000000" points="313.4067,-354.5 313.4067,-376.5 368.3169,-376.5 368.3169,-354.5 313.4067,-354.5"/>
<text text-anchor="middle" x="340.8618" y="-361.3" font-family="Helvetica,sans-Serif" font-size="14.00" fill="#000000">core.h</text>
</a>
</g>
</g>
<!-- Node0&#45;&gt;Node4 -->
<g id="edge4" class="edge">
<title>Node0&#45;&gt;Node4</title>
<path fill="none" stroke="#191970" d="M340.8618,-413.4026C340.8618,-405.9034 340.8618,-395.7626 340.8618,-386.7421"/>
<polygon fill="#191970" stroke="#191970" points="344.3619,-386.5477 340.8618,-376.5477 337.3619,-386.5477 344.3619,-386.5477"/>
</g>
<!-- Node7 -->
<g id="node8" class="node">
<title>Node7</title>
<polygon fill="none" stroke="#bfbfbf" points="365.1182,-59.5 365.1182,-81.5 422.6055,-81.5 422.6055,-59.5 365.1182,-59.5"/>
<text text-anchor="middle" x="393.8618" y="-66.3" font-family="Helvetica,sans-Serif" font-size="14.00" fill="#000000">QTime</text>
</g>
<!-- Node0&#45;&gt;Node7 -->
<g id="edge7" class="edge">
<title>Node0&#45;&gt;Node7</title>
<path fill="none" stroke="#191970" d="M351.406,-413.2399C359.4368,-404.1064 370.2107,-390.5642 376.8618,-377 391.1489,-347.863 395.8618,-338.9513 395.8618,-306.5 395.8618,-306.5 395.8618,-306.5 395.8618,-188.5 395.8618,-154.6931 395.031,-115.4458 394.4403,-91.8152"/>
<polygon fill="#191970" stroke="#191970" points="397.9325,-91.4673 394.1743,-81.5614 390.9349,-91.6489 397.9325,-91.4673"/>
</g>
<!-- Node8 -->
<g id="node9" class="node">
<title>Node8</title>
<g id="a_node9"><a xlink:href="$dd/d06/serverconnection_8h.html" xlink:title="serverconnection.h">
<polygon fill="none" stroke="#000000" points="1306.7173,-354.5 1306.7173,-376.5 1441.0063,-376.5 1441.0063,-354.5 1306.7173,-354.5"/>
<text text-anchor="middle" x="1373.8618" y="-361.3" font-family="Helvetica,sans-Serif" font-size="14.00" fill="#000000">serverconnection.h</text>
</a>
</g>
</g>
<!-- Node0&#45;&gt;Node8 -->
<g id="edge8" class="edge">
<title>Node0&#45;&gt;Node8</title>
<path fill="none" stroke="#191970" d="M400.1106,-421.116C576.5646,-411.0378 1098.6001,-381.2216 1296.5629,-369.9149"/>
<polygon fill="#191970" stroke="#191970" points="1296.8073,-373.4068 1306.5914,-369.3422 1296.4081,-366.4182 1296.8073,-373.4068"/>
</g>
<!-- Node28 -->
<g id="node29" class="node">
<title>Node28</title>
<g id="a_node29"><a xlink:href="$df/dd1/maingameloop_8h.html" xlink:title="maingameloop.h">
<polygon fill="none" stroke="#000000" points="779.1069,-295.5 779.1069,-317.5 898.6167,-317.5 898.6167,-295.5 779.1069,-295.5"/>
<text text-anchor="middle" x="838.8618" y="-302.3" font-family="Helvetica,sans-Serif" font-size="14.00" fill="#000000">maingameloop.h</text>
</a>
</g>
</g>
<!-- Node0&#45;&gt;Node28 -->
<g id="edge40" class="edge">
<title>Node0&#45;&gt;Node28</title>
<path fill="none" stroke="#191970" d="M387.7124,-413.3988C479.5927,-391.628 683.0957,-343.4084 782.2937,-319.9037"/>
<polygon fill="#191970" stroke="#191970" points="783.2127,-323.2829 792.1363,-317.5715 781.5987,-316.4715 783.2127,-323.2829"/>
</g>
<!-- Node5 -->
<g id="node6" class="node">
<title>Node5</title>
<g id="a_node6"><a xlink:href="$dd/dd6/core__global_8h.html" xlink:title="core_global.h">
<polygon fill="none" stroke="#000000" points="262.8311,-295.5 262.8311,-317.5 362.8926,-317.5 362.8926,-295.5 262.8311,-295.5"/>
<text text-anchor="middle" x="312.8618" y="-302.3" font-family="Helvetica,sans-Serif" font-size="14.00" fill="#000000">core_global.h</text>
</a>
</g>
</g>
<!-- Node4&#45;&gt;Node5 -->
<g id="edge5" class="edge">
<title>Node4&#45;&gt;Node5</title>
<path fill="none" stroke="#191970" d="M335.5952,-354.4026C331.919,-346.6562 326.905,-336.0911 322.5212,-326.8538"/>
<polygon fill="#191970" stroke="#191970" points="325.5543,-325.0813 318.1048,-317.5477 319.2303,-328.0826 325.5543,-325.0813"/>
</g>
<!-- Node6 -->
<g id="node7" class="node">
<title>Node6</title>
<polygon fill="none" stroke="#bfbfbf" points="245.9414,-236.5 245.9414,-258.5 367.7822,-258.5 367.7822,-236.5 245.9414,-236.5"/>
<text text-anchor="middle" x="306.8618" y="-243.3" font-family="Helvetica,sans-Serif" font-size="14.00" fill="#000000">QtCore/qglobal.h</text>
</g>
<!-- Node5&#45;&gt;Node6 -->
<g id="edge6" class="edge">
<title>Node5&#45;&gt;Node6</title>
<path fill="none" stroke="#191970" d="M311.7333,-295.4026C310.9706,-287.9034 309.9394,-277.7626 309.022,-268.7421"/>
<polygon fill="#191970" stroke="#191970" points="312.4792,-268.1422 307.9853,-258.5477 305.5151,-268.8505 312.4792,-268.1422"/>
</g>
<!-- Node9 -->
<g id="node10" class="node">
<title>Node9</title>
<polygon fill="none" stroke="#bfbfbf" points="1322.2378,-118.5 1322.2378,-140.5 1393.4858,-140.5 1393.4858,-118.5 1322.2378,-118.5"/>
<text text-anchor="middle" x="1357.8618" y="-125.3" font-family="Helvetica,sans-Serif" font-size="14.00" fill="#000000">QThread</text>
</g>
<!-- Node8&#45;&gt;Node9 -->
<g id="edge9" class="edge">
<title>Node8&#45;&gt;Node9</title>
<path fill="none" stroke="#191970" d="M1386.103,-354.3545C1394.8758,-345.4858 1405.9715,-332.236 1410.8618,-318 1414.1828,-308.3323 1412.4089,-305.1045 1410.8618,-295 1402.6163,-241.1447 1379.6305,-180.9157 1366.8035,-150.1041"/>
<polygon fill="#191970" stroke="#191970" points="1370.0008,-148.6785 1362.8789,-140.8344 1363.5547,-151.4076 1370.0008,-148.6785"/>
</g>
<!-- Node10 -->
<g id="node11" class="node">
<title>Node10</title>
<polygon fill="none" stroke="#bfbfbf" points="1518.9067,-295.5 1518.9067,-317.5 1608.8169,-317.5 1608.8169,-295.5 1518.9067,-295.5"/>
<text text-anchor="middle" x="1563.8618" y="-302.3" font-family="Helvetica,sans-Serif" font-size="14.00" fill="#000000">QTcpServer</text>
</g>
<!-- Node8&#45;&gt;Node10 -->
<g id="edge10" class="edge">
<title>Node8&#45;&gt;Node10</title>
<path fill="none" stroke="#191970" d="M1409.5994,-354.4026C1440.3838,-344.8432 1484.9915,-330.9913 1518.3283,-320.6394"/>
<polygon fill="#191970" stroke="#191970" points="1519.7723,-323.8559 1528.2845,-317.5477 1517.6964,-317.1708 1519.7723,-323.8559"/>
</g>
<!-- Node11 -->
<g id="node12" class="node">
<title>Node11</title>
<polygon fill="none" stroke="#bfbfbf" points="1224.5239,-177.5 1224.5239,-199.5 1273.1997,-199.5 1273.1997,-177.5 1224.5239,-177.5"/>
<text text-anchor="middle" x="1248.8618" y="-184.3" font-family="Helvetica,sans-Serif" font-size="14.00" fill="#000000">QList</text>
</g>
<!-- Node8&#45;&gt;Node11 -->
<g id="edge11" class="edge">
<title>Node8&#45;&gt;Node11</title>
<path fill="none" stroke="#191970" d="M1382.6515,-354.0545C1392.5097,-339.7155 1405.887,-314.6429 1395.8618,-295 1372.2906,-248.8158 1318.2975,-218.0055 1282.7232,-201.8845"/>
<polygon fill="#191970" stroke="#191970" points="1283.783,-198.5279 1273.2185,-197.7265 1280.9774,-204.9411 1283.783,-198.5279"/>
</g>
<!-- Node12 -->
<g id="node13" class="node">
<title>Node12</title>
<g id="a_node13"><a xlink:href="$d8/dfb/serverworker_8h.html" xlink:title="serverworker.h">
<polygon fill="none" stroke="#000000" points="1278.9551,-295.5 1278.9551,-317.5 1386.7686,-317.5 1386.7686,-295.5 1278.9551,-295.5"/>
<text text-anchor="middle" x="1332.8618" y="-302.3" font-family="Helvetica,sans-Serif" font-size="14.00" fill="#000000">serverworker.h</text>
</a>
</g>
</g>
<!-- Node8&#45;&gt;Node12 -->
<g id="edge12" class="edge">
<title>Node8&#45;&gt;Node12</title>
<path fill="none" stroke="#191970" d="M1366.15,-354.4026C1360.5952,-346.4089 1352.9545,-335.4138 1346.3943,-325.9736"/>
<polygon fill="#191970" stroke="#191970" points="1349.1198,-323.7623 1340.539,-317.5477 1343.3715,-327.7569 1349.1198,-323.7623"/>
</g>
<!-- Node15 -->
<g id="node16" class="node">
<title>Node15</title>
<g id="a_node16"><a xlink:href="$d2/d35/mailboxelement_8h.html" xlink:title="connection/mailboxelement.h">
<polygon fill="none" stroke="#000000" points="1074.1968,-236.5 1074.1968,-258.5 1271.5269,-258.5 1271.5269,-236.5 1074.1968,-236.5"/>
<text text-anchor="middle" x="1172.8618" y="-243.3" font-family="Helvetica,sans-Serif" font-size="14.00" fill="#000000">connection/mailboxelement.h</text>
</a>
</g>
</g>
<!-- Node8&#45;&gt;Node15 -->
<g id="edge39" class="edge">
<title>Node8&#45;&gt;Node15</title>
<path fill="none" stroke="#191970" d="M1345.7352,-354.4556C1324.3667,-345.6398 1294.546,-332.412 1269.8618,-318 1242.5783,-302.0704 1213.5549,-280.2522 1194.4424,-265.1249"/>
<polygon fill="#191970" stroke="#191970" points="1196.3952,-262.2049 1186.4002,-258.6905 1192.022,-267.6708 1196.3952,-262.2049"/>
</g>
<!-- Node12&#45;&gt;Node9 -->
<g id="edge14" class="edge">
<title>Node12&#45;&gt;Node9</title>
<path fill="none" stroke="#191970" d="M1339.0041,-295.1736C1343.7546,-285.7835 1349.9905,-271.9276 1352.8618,-259 1361.1483,-221.691 1360.6395,-176.8782 1359.359,-150.9456"/>
<polygon fill="#191970" stroke="#191970" points="1362.8413,-150.5384 1358.7658,-140.7588 1355.8531,-150.9454 1362.8413,-150.5384"/>
</g>
<!-- Node13 -->
<g id="node14" class="node">
<title>Node13</title>
<polygon fill="none" stroke="#bfbfbf" points="1170.124,-118.5 1170.124,-140.5 1261.5996,-140.5 1261.5996,-118.5 1170.124,-118.5"/>
<text text-anchor="middle" x="1215.8618" y="-125.3" font-family="Helvetica,sans-Serif" font-size="14.00" fill="#000000">QTcpSocket</text>
</g>
<!-- Node12&#45;&gt;Node13 -->
<g id="edge13" class="edge">
<title>Node12&#45;&gt;Node13</title>
<path fill="none" stroke="#191970" d="M1330.7178,-295.3855C1325.6804,-271.5796 1311.2358,-214.7644 1281.8618,-177 1272.2368,-164.6257 1258.5433,-154.0491 1246.122,-146.0389"/>
<polygon fill="#191970" stroke="#191970" points="1247.7319,-142.9203 1237.3786,-140.6708 1244.0693,-148.8857 1247.7319,-142.9203"/>
</g>
<!-- Node14 -->
<g id="node15" class="node">
<title>Node14</title>
<polygon fill="none" stroke="#bfbfbf" points="965.0688,-.5 965.0688,-22.5 1066.6548,-22.5 1066.6548,-.5 965.0688,-.5"/>
<text text-anchor="middle" x="1015.8618" y="-7.3" font-family="Helvetica,sans-Serif" font-size="14.00" fill="#000000">QDataStream</text>
</g>
<!-- Node12&#45;&gt;Node14 -->
<g id="edge15" class="edge">
<title>Node12&#45;&gt;Node14</title>
<path fill="none" stroke="#191970" d="M1358.3107,-295.381C1393.5356,-278.0645 1452.8618,-241.0929 1452.8618,-188.5 1452.8618,-188.5 1452.8618,-188.5 1452.8618,-129.5 1452.8618,-52.5676 1197.24,-24.2901 1077.0049,-15.2445"/>
<polygon fill="#191970" stroke="#191970" points="1077.0751,-11.7404 1066.8465,-14.5019 1076.5647,-18.7218 1077.0751,-11.7404"/>
</g>
<!-- Node12&#45;&gt;Node15 -->
<g id="edge16" class="edge">
<title>Node12&#45;&gt;Node15</title>
<path fill="none" stroke="#191970" d="M1302.767,-295.4026C1277.1786,-285.9668 1240.2485,-272.3488 1212.2996,-262.0427"/>
<polygon fill="#191970" stroke="#191970" points="1213.415,-258.7237 1202.8216,-258.5477 1210.9931,-265.2914 1213.415,-258.7237"/>
</g>
<!-- Node15&#45;&gt;Node11 -->
<g id="edge35" class="edge">
<title>Node15&#45;&gt;Node11</title>
<path fill="none" stroke="#191970" d="M1187.1568,-236.4026C1198.1968,-227.8321 1213.6812,-215.8113 1226.3764,-205.9558"/>
<polygon fill="#191970" stroke="#191970" points="1228.878,-208.4446 1234.6309,-199.5477 1224.5855,-202.9152 1228.878,-208.4446"/>
</g>
<!-- Node16 -->
<g id="node17" class="node">
<title>Node16</title>
<g id="a_node17"><a xlink:href="$d1/d70/simpleconnection_8h.html" xlink:title="simpleconnection.h">
<polygon fill="none" stroke="#000000" points="844.938,-177.5 844.938,-199.5 980.7856,-199.5 980.7856,-177.5 844.938,-177.5"/>
<text text-anchor="middle" x="912.8618" y="-184.3" font-family="Helvetica,sans-Serif" font-size="14.00" fill="#000000">simpleconnection.h</text>
</a>
</g>
</g>
<!-- Node15&#45;&gt;Node16 -->
<g id="edge17" class="edge">
<title>Node15&#45;&gt;Node16</title>
<path fill="none" stroke="#191970" d="M1124.2628,-236.4718C1080.9923,-226.6527 1017.5889,-212.265 971.5115,-201.809"/>
<polygon fill="#191970" stroke="#191970" points="972.1899,-198.374 961.6633,-199.5742 970.6408,-205.2005 972.1899,-198.374"/>
</g>
<!-- Node19 -->
<g id="node20" class="node">
<title>Node19</title>
<polygon fill="none" stroke="#bfbfbf" points="799.3999,-118.5 799.3999,-140.5 868.3237,-140.5 868.3237,-118.5 799.3999,-118.5"/>
<text text-anchor="middle" x="833.8618" y="-125.3" font-family="Helvetica,sans-Serif" font-size="14.00" fill="#000000">QQueue</text>
</g>
<!-- Node15&#45;&gt;Node19 -->
<g id="edge37" class="edge">
<title>Node15&#45;&gt;Node19</title>
<path fill="none" stroke="#191970" d="M1074.0375,-236.6999C977.4919,-225.6744 843.8615,-208.9468 835.8618,-200 824.0582,-186.7989 824.953,-166.0128 827.9657,-150.4251"/>
<polygon fill="#191970" stroke="#191970" points="831.3892,-151.1557 830.2597,-140.6212 824.5733,-149.5608 831.3892,-151.1557"/>
</g>
<!-- Node20 -->
<g id="node21" class="node">
<title>Node20</title>
<g id="a_node21"><a xlink:href="$d0/d4c/ibasegameelement_8h.html" xlink:title="ibasegameelement.h">
<polygon fill="none" stroke="#000000" points="605.876,-118.5 605.876,-140.5 751.8477,-140.5 751.8477,-118.5 605.876,-118.5"/>
<text text-anchor="middle" x="678.8618" y="-125.3" font-family="Helvetica,sans-Serif" font-size="14.00" fill="#000000">ibasegameelement.h</text>
</a>
</g>
</g>
<!-- Node15&#45;&gt;Node20 -->
<g id="edge34" class="edge">
<title>Node15&#45;&gt;Node20</title>
<path fill="none" stroke="#191970" d="M1079.6643,-236.463C984.0821,-224.891 846.049,-207.3833 821.8618,-200 779.0491,-186.9311 733.2612,-162.2399 705.342,-145.8256"/>
<polygon fill="#191970" stroke="#191970" points="706.9702,-142.7215 696.5889,-140.6051 703.3846,-148.7335 706.9702,-142.7215"/>
</g>
<!-- Node26 -->
<g id="node27" class="node">
<title>Node26</title>
<polygon fill="none" stroke="#bfbfbf" points="998.355,-177.5 998.355,-199.5 1063.3687,-199.5 1063.3687,-177.5 998.355,-177.5"/>
<text text-anchor="middle" x="1030.8618" y="-184.3" font-family="Helvetica,sans-Serif" font-size="14.00" fill="#000000">QMutex</text>
</g>
<!-- Node15&#45;&gt;Node26 -->
<g id="edge36" class="edge">
<title>Node15&#45;&gt;Node26</title>
<path fill="none" stroke="#191970" d="M1146.1527,-236.4026C1123.7404,-227.0904 1091.5245,-213.7049 1066.8418,-203.4494"/>
<polygon fill="#191970" stroke="#191970" points="1068.0287,-200.1525 1057.4512,-199.5477 1065.3428,-206.6168 1068.0287,-200.1525"/>
</g>
<!-- Node27 -->
<g id="node28" class="node">
<title>Node27</title>
<polygon fill="none" stroke="#bfbfbf" points="1080.9966,-177.5 1080.9966,-199.5 1206.7271,-199.5 1206.7271,-177.5 1080.9966,-177.5"/>
<text text-anchor="middle" x="1143.8618" y="-184.3" font-family="Helvetica,sans-Serif" font-size="14.00" fill="#000000">qtconcurrentrun.h</text>
</g>
<!-- Node15&#45;&gt;Node27 -->
<g id="edge38" class="edge">
<title>Node15&#45;&gt;Node27</title>
<path fill="none" stroke="#191970" d="M1167.4071,-236.4026C1163.5591,-228.5738 1158.2959,-217.866 1153.7215,-208.5594"/>
<polygon fill="#191970" stroke="#191970" points="1156.8444,-206.9782 1149.292,-199.5477 1150.5622,-210.0661 1156.8444,-206.9782"/>
</g>
<!-- Node16&#45;&gt;Node9 -->
<g id="edge20" class="edge">
<title>Node16&#45;&gt;Node9</title>
<path fill="none" stroke="#191970" d="M980.8033,-178.1395C983.5243,-177.7499 986.2185,-177.3687 988.8618,-177 1114.0011,-159.547 1145.5644,-157.2788 1270.8618,-141 1284.0948,-139.2808 1298.4567,-137.3918 1311.626,-135.6505"/>
<polygon fill="#191970" stroke="#191970" points="1312.4335,-139.0742 1321.8875,-134.2917 1311.5146,-132.1348 1312.4335,-139.0742"/>
</g>
<!-- Node16&#45;&gt;Node13 -->
<g id="edge22" class="edge">
<title>Node16&#45;&gt;Node13</title>
<path fill="none" stroke="#191970" d="M969.4984,-177.4718C1023.8882,-166.881 1105.5733,-150.9753 1159.7774,-140.4207"/>
<polygon fill="#191970" stroke="#191970" points="1160.7539,-143.7964 1169.9005,-138.4496 1159.4159,-136.9255 1160.7539,-143.7964"/>
</g>
<!-- Node16&#45;&gt;Node14 -->
<g id="edge23" class="edge">
<title>Node16&#45;&gt;Node14</title>
<path fill="none" stroke="#191970" d="M967.6431,-177.4539C1003.914,-168.9118 1046.7752,-156.0285 1057.8618,-141 1079.4987,-111.6701 1071.9688,-93.0088 1058.8618,-59 1054.5128,-47.7156 1046.1024,-37.4489 1037.8646,-29.3707"/>
<polygon fill="#191970" stroke="#191970" points="1040.2087,-26.7714 1030.4692,-22.6008 1035.4821,-31.9347 1040.2087,-26.7714"/>
</g>
<!-- Node17 -->
<g id="node18" class="node">
<title>Node17</title>
<polygon fill="none" stroke="#bfbfbf" points="941.3447,-118.5 941.3447,-140.5 1048.3789,-140.5 1048.3789,-118.5 941.3447,-118.5"/>
<text text-anchor="middle" x="994.8618" y="-125.3" font-family="Helvetica,sans-Serif" font-size="14.00" fill="#000000">QHostAddress</text>
</g>
<!-- Node16&#45;&gt;Node17 -->
<g id="edge18" class="edge">
<title>Node16&#45;&gt;Node17</title>
<path fill="none" stroke="#191970" d="M928.2854,-177.4026C940.426,-168.6673 957.5481,-156.3477 971.3881,-146.3896"/>
<polygon fill="#191970" stroke="#191970" points="973.4343,-149.2292 979.5074,-140.5477 969.346,-143.5471 973.4343,-149.2292"/>
</g>
<!-- Node18 -->
<g id="node19" class="node">
<title>Node18</title>
<polygon fill="none" stroke="#bfbfbf" points="982.186,-59.5 982.186,-81.5 1049.5376,-81.5 1049.5376,-59.5 982.186,-59.5"/>
<text text-anchor="middle" x="1015.8618" y="-66.3" font-family="Helvetica,sans-Serif" font-size="14.00" fill="#000000">QObject</text>
</g>
<!-- Node16&#45;&gt;Node18 -->
<g id="edge19" class="edge">
<title>Node16&#45;&gt;Node18</title>
<path fill="none" stroke="#191970" d="M913.2626,-177.3134C914.3354,-162.3404 918.1883,-135.6291 931.8618,-118 942.7457,-103.9675 959.018,-93.4119 974.3504,-85.8597"/>
<polygon fill="#191970" stroke="#191970" points="976.1025,-88.9061 983.719,-81.5413 973.1721,-82.549 976.1025,-88.9061"/>
</g>
<!-- Node16&#45;&gt;Node19 -->
<g id="edge21" class="edge">
<title>Node16&#45;&gt;Node19</title>
<path fill="none" stroke="#191970" d="M898.0025,-177.4026C886.4165,-168.7497 870.1212,-156.5798 856.855,-146.6721"/>
<polygon fill="#191970" stroke="#191970" points="858.761,-143.7272 848.6545,-140.5477 854.5723,-149.3357 858.761,-143.7272"/>
</g>
<!-- Node16&#45;&gt;Node20 -->
<g id="edge24" class="edge">
<title>Node16&#45;&gt;Node20</title>
<path fill="none" stroke="#191970" d="M869.1227,-177.4718C830.5058,-167.735 774.072,-153.506 732.693,-143.0728"/>
<polygon fill="#191970" stroke="#191970" points="733.3354,-139.6253 722.7831,-140.5742 731.624,-146.4129 733.3354,-139.6253"/>
</g>
<!-- Node20&#45;&gt;Node7 -->
<g id="edge32" class="edge">
<title>Node20&#45;&gt;Node7</title>
<path fill="none" stroke="#191970" d="M610.2537,-118.4883C562.6555,-110.3585 497.6497,-98.2868 432.837,-82.3369"/>
<polygon fill="#191970" stroke="#191970" points="433.4092,-78.8725 422.8595,-79.8499 431.7161,-85.6647 433.4092,-78.8725"/>
</g>
<!-- Node20&#45;&gt;Node14 -->
<g id="edge30" class="edge">
<title>Node20&#45;&gt;Node14</title>
<path fill="none" stroke="#191970" d="M751.922,-120.309C815.8399,-111.4784 903.2636,-97.2571 934.8618,-82 960.5953,-69.5747 984.5518,-46.754 999.6336,-30.4411"/>
<polygon fill="#191970" stroke="#191970" points="1002.6014,-32.3742 1006.6739,-22.5933 997.3908,-27.6998 1002.6014,-32.3742"/>
</g>
<!-- Node20&#45;&gt;Node18 -->
<g id="edge25" class="edge">
<title>Node20&#45;&gt;Node18</title>
<path fill="none" stroke="#191970" d="M751.8746,-118.9918C810.4644,-110.2008 894.7171,-96.7531 967.8618,-82 969.3056,-81.7088 970.7718,-81.4049 972.251,-81.0912"/>
<polygon fill="#191970" stroke="#191970" points="973.0929,-84.4897 982.1008,-78.9123 971.5809,-77.6549 973.0929,-84.4897"/>
</g>
<!-- Node21 -->
<g id="node22" class="node">
<title>Node21</title>
<g id="a_node22"><a xlink:href="$d5/df2/infinitydouble_8h.html" xlink:title="infinitydouble.h">
<polygon fill="none" stroke="#000000" points="816.1621,-59.5 816.1621,-81.5 925.5615,-81.5 925.5615,-59.5 816.1621,-59.5"/>
<text text-anchor="middle" x="870.8618" y="-66.3" font-family="Helvetica,sans-Serif" font-size="14.00" fill="#000000">infinitydouble.h</text>
</a>
</g>
</g>
<!-- Node20&#45;&gt;Node21 -->
<g id="edge26" class="edge">
<title>Node20&#45;&gt;Node21</title>
<path fill="none" stroke="#191970" d="M714.9755,-118.4026C746.2181,-108.802 791.5501,-94.8718 825.2839,-84.5057"/>
<polygon fill="#191970" stroke="#191970" points="826.3793,-87.8307 834.91,-81.5477 824.323,-81.1395 826.3793,-87.8307"/>
</g>
<!-- Node22 -->
<g id="node23" class="node">
<title>Node22</title>
<polygon fill="none" stroke="#bfbfbf" points="440.186,-59.5 440.186,-81.5 507.5376,-81.5 507.5376,-59.5 440.186,-59.5"/>
<text text-anchor="middle" x="473.8618" y="-66.3" font-family="Helvetica,sans-Serif" font-size="14.00" fill="#000000">QPointF</text>
</g>
<!-- Node20&#45;&gt;Node22 -->
<g id="edge28" class="edge">
<title>Node20&#45;&gt;Node22</title>
<path fill="none" stroke="#191970" d="M640.3029,-118.4026C605.4236,-108.3641 554.0973,-93.5922 517.6775,-83.1104"/>
<polygon fill="#191970" stroke="#191970" points="518.4046,-79.6776 507.8266,-80.2752 516.4685,-86.4045 518.4046,-79.6776"/>
</g>
<!-- Node23 -->
<g id="node24" class="node">
<title>Node23</title>
<polygon fill="none" stroke="#bfbfbf" points="525.686,-59.5 525.686,-81.5 614.0376,-81.5 614.0376,-59.5 525.686,-59.5"/>
<text text-anchor="middle" x="569.8618" y="-66.3" font-family="Helvetica,sans-Serif" font-size="14.00" fill="#000000">QByteArray</text>
</g>
<!-- Node20&#45;&gt;Node23 -->
<g id="edge29" class="edge">
<title>Node20&#45;&gt;Node23</title>
<path fill="none" stroke="#191970" d="M658.3598,-118.4026C641.6888,-109.3788 617.9515,-96.5302 599.257,-86.4112"/>
<polygon fill="#191970" stroke="#191970" points="600.7324,-83.23 590.272,-81.5477 597.4002,-89.386 600.7324,-83.23"/>
</g>
<!-- Node24 -->
<g id="node25" class="node">
<title>Node24</title>
<polygon fill="none" stroke="#bfbfbf" points="632.1309,-59.5 632.1309,-81.5 695.5928,-81.5 695.5928,-59.5 632.1309,-59.5"/>
<text text-anchor="middle" x="663.8618" y="-66.3" font-family="Helvetica,sans-Serif" font-size="14.00" fill="#000000">QString</text>
</g>
<!-- Node20&#45;&gt;Node24 -->
<g id="edge31" class="edge">
<title>Node20&#45;&gt;Node24</title>
<path fill="none" stroke="#191970" d="M676.0404,-118.4026C674.1129,-110.821 671.4989,-100.5394 669.1869,-91.4452"/>
<polygon fill="#191970" stroke="#191970" points="672.5267,-90.377 666.6706,-81.5477 665.7425,-92.1018 672.5267,-90.377"/>
</g>
<!-- Node25 -->
<g id="node26" class="node">
<title>Node25</title>
<polygon fill="none" stroke="#bfbfbf" points="713.6206,-59.5 713.6206,-81.5 798.103,-81.5 798.103,-59.5 713.6206,-59.5"/>
<text text-anchor="middle" x="755.8618" y="-66.3" font-family="Helvetica,sans-Serif" font-size="14.00" fill="#000000">QVector3D</text>
</g>
<!-- Node20&#45;&gt;Node25 -->
<g id="edge33" class="edge">
<title>Node20&#45;&gt;Node25</title>
<path fill="none" stroke="#191970" d="M693.3449,-118.4026C704.6377,-109.7497 720.5204,-97.5798 733.4508,-87.6721"/>
<polygon fill="#191970" stroke="#191970" points="735.6347,-90.4081 741.4436,-81.5477 731.3771,-84.8517 735.6347,-90.4081"/>
</g>
<!-- Node21&#45;&gt;Node14 -->
<g id="edge27" class="edge">
<title>Node21&#45;&gt;Node14</title>
<path fill="none" stroke="#191970" d="M898.1352,-59.4026C921.021,-50.0904 953.9175,-36.7049 979.1217,-26.4494"/>
<polygon fill="#191970" stroke="#191970" points="980.7673,-29.5586 988.7107,-22.5477 978.129,-23.0748 980.7673,-29.5586"/>
</g>
<!-- Node28&#45;&gt;Node9 -->
<g id="edge46" class="edge">
<title>Node28&#45;&gt;Node9</title>
<path fill="none" stroke="#191970" d="M898.9761,-303.0224C1012.3848,-296.0296 1249.4033,-279.1954 1280.8618,-259 1320.4616,-233.5782 1342.4312,-179.931 1351.993,-150.2848"/>
<polygon fill="#191970" stroke="#191970" points="1355.3939,-151.1313 1354.964,-140.5452 1348.6985,-149.0888 1355.3939,-151.1313"/>
</g>
<!-- Node28&#45;&gt;Node15 -->
<g id="edge45" class="edge">
<title>Node28&#45;&gt;Node15</title>
<path fill="none" stroke="#191970" d="M898.9601,-295.8838C955.4187,-285.9106 1039.9996,-270.9697 1100.2177,-260.3324"/>
<polygon fill="#191970" stroke="#191970" points="1101.1753,-263.7175 1110.414,-258.5312 1099.9576,-256.8242 1101.1753,-263.7175"/>
</g>
<!-- Node29 -->
<g id="node30" class="node">
<title>Node29</title>
<g id="a_node30"><a xlink:href="$d4/dcf/imap_8h.html" xlink:title="imap.h">
<polygon fill="none" stroke="#000000" points="446.8516,-177.5 446.8516,-199.5 504.8721,-199.5 504.8721,-177.5 446.8516,-177.5"/>
<text text-anchor="middle" x="475.8618" y="-184.3" font-family="Helvetica,sans-Serif" font-size="14.00" fill="#000000">imap.h</text>
</a>
</g>
</g>
<!-- Node28&#45;&gt;Node29 -->
<g id="edge41" class="edge">
<title>Node28&#45;&gt;Node29</title>
<path fill="none" stroke="#191970" d="M778.9519,-303.4233C675.9109,-297.5137 474.082,-282.9915 452.8618,-259 440.2414,-244.7313 449.8927,-223.4058 460.2867,-207.9472"/>
<polygon fill="#191970" stroke="#191970" points="463.2883,-209.77 466.3296,-199.6211 457.6232,-205.6584 463.2883,-209.77"/>
</g>
<!-- Node31 -->
<g id="node32" class="node">
<title>Node31</title>
<polygon fill="none" stroke="#bfbfbf" points="979.8965,-236.5 979.8965,-258.5 1055.8271,-258.5 1055.8271,-236.5 979.8965,-236.5"/>
<text text-anchor="middle" x="1017.8618" y="-243.3" font-family="Helvetica,sans-Serif" font-size="14.00" fill="#000000">functional</text>
</g>
<!-- Node28&#45;&gt;Node31 -->
<g id="edge47" class="edge">
<title>Node28&#45;&gt;Node31</title>
<path fill="none" stroke="#191970" d="M872.5303,-295.4026C901.4075,-285.8844 943.1956,-272.1106 974.5577,-261.7734"/>
<polygon fill="#191970" stroke="#191970" points="975.9425,-265.0023 984.3443,-258.5477 973.7512,-258.3541 975.9425,-265.0023"/>
</g>
<!-- Node32 -->
<g id="node33" class="node">
<title>Node32</title>
<g id="a_node33"><a xlink:href="$d4/dfd/basetank_8h.html" xlink:title="GameElements/basetank.h">
<polygon fill="none" stroke="#000000" points="461.4277,-236.5 461.4277,-258.5 646.2959,-258.5 646.2959,-236.5 461.4277,-236.5"/>
<text text-anchor="middle" x="553.8618" y="-243.3" font-family="Helvetica,sans-Serif" font-size="14.00" fill="#000000">GameElements/basetank.h</text>
</a>
</g>
</g>
<!-- Node28&#45;&gt;Node32 -->
<g id="edge48" class="edge">
<title>Node28&#45;&gt;Node32</title>
<path fill="none" stroke="#191970" d="M785.5898,-295.4718C737.8604,-285.5909 667.7837,-271.0838 617.2002,-260.6121"/>
<polygon fill="#191970" stroke="#191970" points="617.8577,-257.1741 607.3557,-258.5742 616.4386,-264.0288 617.8577,-257.1741"/>
</g>
<!-- Node34 -->
<g id="node35" class="node">
<title>Node34</title>
<g id="a_node35"><a xlink:href="$d7/dc7/coreconst_8h.html" xlink:title="coreconst.h">
<polygon fill="none" stroke="#000000" points="873.6758,-236.5 873.6758,-258.5 962.0479,-258.5 962.0479,-236.5 873.6758,-236.5"/>
<text text-anchor="middle" x="917.8618" y="-243.3" font-family="Helvetica,sans-Serif" font-size="14.00" fill="#000000">coreconst.h</text>
</a>
</g>
</g>
<!-- Node28&#45;&gt;Node34 -->
<g id="edge52" class="edge">
<title>Node28&#45;&gt;Node34</title>
<path fill="none" stroke="#191970" d="M853.7211,-295.4026C865.3072,-286.7497 881.6024,-274.5798 894.8687,-264.6721"/>
<polygon fill="#191970" stroke="#191970" points="897.1513,-267.3357 903.0692,-258.5477 892.9626,-261.7272 897.1513,-267.3357"/>
</g>
<!-- Node36 -->
<g id="node37" class="node">
<title>Node36</title>
<g id="a_node37"><a xlink:href="$d2/d78/basebasis_8h.html" xlink:title="GameElements/basebasis.h">
<polygon fill="none" stroke="#000000" points="664.3174,-236.5 664.3174,-258.5 855.4063,-258.5 855.4063,-236.5 664.3174,-236.5"/>
<text text-anchor="middle" x="759.8618" y="-243.3" font-family="Helvetica,sans-Serif" font-size="14.00" fill="#000000">GameElements/basebasis.h</text>
</a>
</g>
</g>
<!-- Node28&#45;&gt;Node36 -->
<g id="edge54" class="edge">
<title>Node28&#45;&gt;Node36</title>
<path fill="none" stroke="#191970" d="M824.0025,-295.4026C812.4165,-286.7497 796.1212,-274.5798 782.855,-264.6721"/>
<polygon fill="#191970" stroke="#191970" points="784.761,-261.7272 774.6545,-258.5477 780.5723,-267.3357 784.761,-261.7272"/>
</g>
<!-- Node29&#45;&gt;Node20 -->
<g id="edge44" class="edge">
<title>Node29&#45;&gt;Node20</title>
<path fill="none" stroke="#191970" d="M504.9468,-180.0467C537.8944,-170.4708 592.0838,-154.7212 631.2265,-143.3448"/>
<polygon fill="#191970" stroke="#191970" points="632.2059,-146.705 640.8317,-140.5531 630.2522,-139.9832 632.2059,-146.705"/>
</g>
<!-- Node29&#45;&gt;Node22 -->
<g id="edge43" class="edge">
<title>Node29&#45;&gt;Node22</title>
<path fill="none" stroke="#191970" d="M475.67,-177.1857C475.3377,-157.5765 474.6496,-116.9772 474.2246,-91.9041"/>
<polygon fill="#191970" stroke="#191970" points="477.7191,-91.547 474.0501,-81.6078 470.7201,-91.6657 477.7191,-91.547"/>
</g>
<!-- Node30 -->
<g id="node31" class="node">
<title>Node30</title>
<polygon fill="none" stroke="#bfbfbf" points="501.5239,-118.5 501.5239,-140.5 564.1997,-140.5 564.1997,-118.5 501.5239,-118.5"/>
<text text-anchor="middle" x="532.8618" y="-125.3" font-family="Helvetica,sans-Serif" font-size="14.00" fill="#000000">QSizeF</text>
</g>
<!-- Node29&#45;&gt;Node30 -->
<g id="edge42" class="edge">
<title>Node29&#45;&gt;Node30</title>
<path fill="none" stroke="#191970" d="M486.5831,-177.4026C494.6242,-169.0793 505.8091,-157.5019 515.1687,-147.8139"/>
<polygon fill="#191970" stroke="#191970" points="517.7577,-150.1715 522.1886,-140.5477 512.7233,-145.3078 517.7577,-150.1715"/>
</g>
<!-- Node32&#45;&gt;Node20 -->
<g id="edge49" class="edge">
<title>Node32&#45;&gt;Node20</title>
<path fill="none" stroke="#191970" d="M575.4466,-236.4931C591.0673,-227.882 612.113,-214.8966 627.8618,-200 643.6165,-185.0979 657.739,-164.74 667.1058,-149.731"/>
<polygon fill="#191970" stroke="#191970" points="670.3574,-151.1183 672.5437,-140.7515 664.3698,-147.4922 670.3574,-151.1183"/>
</g>
<!-- Node33 -->
<g id="node34" class="node">
<title>Node33</title>
<g id="a_node34"><a xlink:href="$d3/da1/basebulet_8h.html" xlink:title="basebulet.h">
<polygon fill="none" stroke="#000000" points="530.6655,-177.5 530.6655,-199.5 619.0581,-199.5 619.0581,-177.5 530.6655,-177.5"/>
<text text-anchor="middle" x="574.8618" y="-184.3" font-family="Helvetica,sans-Serif" font-size="14.00" fill="#000000">basebulet.h</text>
</a>
</g>
</g>
<!-- Node32&#45;&gt;Node33 -->
<g id="edge50" class="edge">
<title>Node32&#45;&gt;Node33</title>
<path fill="none" stroke="#191970" d="M557.8118,-236.4026C560.5396,-228.7386 564.2495,-218.3155 567.5122,-209.149"/>
<polygon fill="#191970" stroke="#191970" points="570.8736,-210.1424 570.9296,-199.5477 564.2789,-207.7951 570.8736,-210.1424"/>
</g>
<!-- Node33&#45;&gt;Node20 -->
<g id="edge51" class="edge">
<title>Node33&#45;&gt;Node20</title>
<path fill="none" stroke="#191970" d="M594.4234,-177.4026C610.257,-168.42 632.7714,-155.6475 650.5704,-145.55"/>
<polygon fill="#191970" stroke="#191970" points="652.4171,-148.5263 659.3879,-140.5477 648.963,-142.4378 652.4171,-148.5263"/>
</g>
<!-- Node35 -->
<g id="node36" class="node">
<title>Node35</title>
<polygon fill="none" stroke="#bfbfbf" points="720.4722,-177.5 720.4722,-199.5 751.2515,-199.5 751.2515,-177.5 720.4722,-177.5"/>
<text text-anchor="middle" x="735.8618" y="-184.3" font-family="Helvetica,sans-Serif" font-size="14.00" fill="#000000">Qt</text>
</g>
<!-- Node34&#45;&gt;Node35 -->
<g id="edge53" class="edge">
<title>Node34&#45;&gt;Node35</title>
<path fill="none" stroke="#191970" d="M879.5555,-236.4928C848.4461,-227.3419 803.5477,-213.6531 764.8618,-200 763.6265,-199.564 762.3657,-199.1078 761.0953,-198.6389"/>
<polygon fill="#191970" stroke="#191970" points="762.0217,-195.2455 751.4316,-194.9277 759.5121,-201.7802 762.0217,-195.2455"/>
</g>
<!-- Node36&#45;&gt;Node20 -->
<g id="edge55" class="edge">
<title>Node36&#45;&gt;Node20</title>
<path fill="none" stroke="#191970" d="M746.355,-236.4748C735.9516,-227.4709 721.7265,-213.9884 711.8618,-200 700.9569,-184.5365 692.109,-164.8988 686.33,-150.2787"/>
<polygon fill="#191970" stroke="#191970" points="689.4975,-148.7603 682.679,-140.6512 682.9524,-151.2425 689.4975,-148.7603"/>
</g>
</g>
</svg>
