<?xml version="1.0" encoding="UTF-8" standalone="no"?>
<!DOCTYPE svg PUBLIC "-//W3C//DTD SVG 1.1//EN"
 "http://www.w3.org/Graphics/SVG/1.1/DTD/svg11.dtd">
<!-- Generated by graphviz version 2.40.1 (20161225.0304)
 -->
<!-- Title: std::overflow_error Pages: 1 -->
<svg width="140pt" height="281pt"
 viewBox="0.00 0.00 139.93 281.00" xmlns="http://www.w3.org/2000/svg" xmlns:xlink="http://www.w3.org/1999/xlink">
<g id="graph0" class="graph" transform="scale(1 1) rotate(0) translate(4 277)">
<title>std::overflow_error</title>
<!-- Node702 -->
<g id="node1" class="node">
<title>Node702</title>
<polygon fill="#bfbfbf" stroke="#000000" points="0,-.5 0,-66.5 131.9307,-66.5 131.9307,-.5 0,-.5"/>
<text text-anchor="middle" x="65.9653" y="-51.3" font-family="Helvetica,sans-Serif" font-size="14.00" fill="#000000">std::overflow_error</text>
<polyline fill="none" stroke="#000000" points="0,-44.5 131.9307,-44.5 "/>
<text text-anchor="middle" x="65.9653" y="-29.3" font-family="Helvetica,sans-Serif" font-size="14.00" fill="#000000"> </text>
<polyline fill="none" stroke="#000000" points="0,-22.5 131.9307,-22.5 "/>
<text text-anchor="middle" x="65.9653" y="-7.3" font-family="Helvetica,sans-Serif" font-size="14.00" fill="#000000"> </text>
</g>
<!-- Node703 -->
<g id="node2" class="node">
<title>Node703</title>
<g id="a_node2"><a xlink:title="STL class. ">
<polygon fill="none" stroke="#bfbfbf" points="2.7241,-103.5 2.7241,-169.5 129.2065,-169.5 129.2065,-103.5 2.7241,-103.5"/>
<text text-anchor="middle" x="65.9653" y="-154.3" font-family="Helvetica,sans-Serif" font-size="14.00" fill="#000000">std::runtime_error</text>
<polyline fill="none" stroke="#bfbfbf" points="2.7241,-147.5 129.2065,-147.5 "/>
<text text-anchor="middle" x="65.9653" y="-132.3" font-family="Helvetica,sans-Serif" font-size="14.00" fill="#000000"> </text>
<polyline fill="none" stroke="#bfbfbf" points="2.7241,-125.5 129.2065,-125.5 "/>
<text text-anchor="middle" x="65.9653" y="-110.3" font-family="Helvetica,sans-Serif" font-size="14.00" fill="#000000"> </text>
</a>
</g>
</g>
<!-- Node703&#45;&gt;Node702 -->
<g id="edge1" class="edge">
<title>Node703&#45;&gt;Node702</title>
<path fill="none" stroke="#191970" d="M65.9653,-93.1362C65.9653,-84.256 65.9653,-75.0447 65.9653,-66.5947"/>
<polygon fill="none" stroke="#191970" points="62.4654,-93.3432 65.9653,-103.3432 69.4654,-93.3432 62.4654,-93.3432"/>
</g>
<!-- Node704 -->
<g id="node3" class="node">
<title>Node704</title>
<g id="a_node3"><a xlink:title="STL class. ">
<polygon fill="none" stroke="#bfbfbf" points="14.7725,-206.5 14.7725,-272.5 117.1582,-272.5 117.1582,-206.5 14.7725,-206.5"/>
<text text-anchor="middle" x="65.9653" y="-257.3" font-family="Helvetica,sans-Serif" font-size="14.00" fill="#000000">std::exception</text>
<polyline fill="none" stroke="#bfbfbf" points="14.7725,-250.5 117.1582,-250.5 "/>
<text text-anchor="middle" x="65.9653" y="-235.3" font-family="Helvetica,sans-Serif" font-size="14.00" fill="#000000"> </text>
<polyline fill="none" stroke="#bfbfbf" points="14.7725,-228.5 117.1582,-228.5 "/>
<text text-anchor="middle" x="65.9653" y="-213.3" font-family="Helvetica,sans-Serif" font-size="14.00" fill="#000000"> </text>
</a>
</g>
</g>
<!-- Node704&#45;&gt;Node703 -->
<g id="edge2" class="edge">
<title>Node704&#45;&gt;Node703</title>
<path fill="none" stroke="#191970" d="M65.9653,-196.1362C65.9653,-187.256 65.9653,-178.0447 65.9653,-169.5947"/>
<polygon fill="none" stroke="#191970" points="62.4654,-196.3432 65.9653,-206.3432 69.4654,-196.3432 62.4654,-196.3432"/>
</g>
</g>
</svg>
