<?xml version="1.0" encoding="UTF-8" standalone="no"?>
<!DOCTYPE svg PUBLIC "-//W3C//DTD SVG 1.1//EN"
 "http://www.w3.org/Graphics/SVG/1.1/DTD/svg11.dtd">
<!-- Generated by graphviz version 2.40.1 (20161225.0304)
 -->
<!-- Title: std::basic_fstream&lt; Char &gt; Pages: 1 -->
<svg width="634pt" height="664pt"
 viewBox="0.00 0.00 634.05 664.00" xmlns="http://www.w3.org/2000/svg" xmlns:xlink="http://www.w3.org/1999/xlink">
<g id="graph0" class="graph" transform="scale(1 1) rotate(0) translate(4 660)">
<title>std::basic_fstream&lt; Char &gt;</title>
<!-- Node46 -->
<g id="node1" class="node">
<title>Node46</title>
<polygon fill="#bfbfbf" stroke="#000000" points="263.4482,-131.5 263.4482,-211.5 393.0479,-211.5 393.0479,-131.5 263.4482,-131.5"/>
<text text-anchor="start" x="271.4482" y="-196.3" font-family="Helvetica,sans-Serif" font-size="14.00" fill="#000000">std::basic_fstream</text>
<text text-anchor="middle" x="328.248" y="-182.3" font-family="Helvetica,sans-Serif" font-size="14.00" fill="#000000">&lt; Char &gt;</text>
<polyline fill="none" stroke="#000000" points="263.4482,-175.5 393.0479,-175.5 "/>
<text text-anchor="middle" x="328.248" y="-160.3" font-family="Helvetica,sans-Serif" font-size="14.00" fill="#000000"> </text>
<polyline fill="none" stroke="#000000" points="263.4482,-153.5 393.0479,-153.5 "/>
<text text-anchor="middle" x="328.248" y="-138.3" font-family="Helvetica,sans-Serif" font-size="14.00" fill="#000000"> </text>
</g>
<!-- Node52 -->
<g id="node7" class="node">
<title>Node52</title>
<g id="a_node7"><a xlink:title="STL class. ">
<polygon fill="none" stroke="#bfbfbf" points="0,-7.5 0,-73.5 140.4961,-73.5 140.4961,-7.5 0,-7.5"/>
<text text-anchor="middle" x="70.248" y="-58.3" font-family="Helvetica,sans-Serif" font-size="14.00" fill="#000000">std::fstream&lt; char &gt;</text>
<polyline fill="none" stroke="#bfbfbf" points="0,-51.5 140.4961,-51.5 "/>
<text text-anchor="middle" x="70.248" y="-36.3" font-family="Helvetica,sans-Serif" font-size="14.00" fill="#000000"> </text>
<polyline fill="none" stroke="#bfbfbf" points="0,-29.5 140.4961,-29.5 "/>
<text text-anchor="middle" x="70.248" y="-14.3" font-family="Helvetica,sans-Serif" font-size="14.00" fill="#000000"> </text>
</a>
</g>
</g>
<!-- Node46&#45;&gt;Node52 -->
<g id="edge7" class="edge">
<title>Node46&#45;&gt;Node52</title>
<path fill="none" stroke="#191970" d="M254.2261,-134.1925C221.9615,-117.9008 183.7119,-98.5462 149.248,-81 144.5782,-78.6225 139.7552,-76.1621 134.9022,-73.6828"/>
<polygon fill="none" stroke="#191970" points="252.6552,-137.3201 263.1595,-138.7023 255.8098,-131.0713 252.6552,-137.3201"/>
</g>
<!-- Node53 -->
<g id="node8" class="node">
<title>Node53</title>
<g id="a_node8"><a xlink:title="STL class. ">
<polygon fill="none" stroke="#bfbfbf" points="158.0518,-7.5 158.0518,-73.5 330.4443,-73.5 330.4443,-7.5 158.0518,-7.5"/>
<text text-anchor="middle" x="244.248" y="-58.3" font-family="Helvetica,sans-Serif" font-size="14.00" fill="#000000">std::wfstream&lt; wchar_t &gt;</text>
<polyline fill="none" stroke="#bfbfbf" points="158.0518,-51.5 330.4443,-51.5 "/>
<text text-anchor="middle" x="244.248" y="-36.3" font-family="Helvetica,sans-Serif" font-size="14.00" fill="#000000"> </text>
<polyline fill="none" stroke="#bfbfbf" points="158.0518,-29.5 330.4443,-29.5 "/>
<text text-anchor="middle" x="244.248" y="-14.3" font-family="Helvetica,sans-Serif" font-size="14.00" fill="#000000"> </text>
</a>
</g>
</g>
<!-- Node46&#45;&gt;Node53 -->
<g id="edge8" class="edge">
<title>Node46&#45;&gt;Node53</title>
<path fill="none" stroke="#191970" d="M297.1826,-123.0526C286.6425,-106.6152 275.1151,-88.6378 265.516,-73.6679"/>
<polygon fill="none" stroke="#191970" points="294.2447,-124.9551 302.5888,-131.4839 300.1373,-121.1766 294.2447,-124.9551"/>
</g>
<!-- Node54 -->
<g id="node9" class="node">
<title>Node54</title>
<polygon fill="none" stroke="#bfbfbf" points="348.4482,-.5 348.4482,-80.5 478.0479,-80.5 478.0479,-.5 348.4482,-.5"/>
<text text-anchor="start" x="356.4482" y="-65.3" font-family="Helvetica,sans-Serif" font-size="14.00" fill="#000000">std::basic_fstream</text>
<text text-anchor="middle" x="413.248" y="-51.3" font-family="Helvetica,sans-Serif" font-size="14.00" fill="#000000">&lt; wchar_t &gt;</text>
<polyline fill="none" stroke="#bfbfbf" points="348.4482,-44.5 478.0479,-44.5 "/>
<text text-anchor="middle" x="413.248" y="-29.3" font-family="Helvetica,sans-Serif" font-size="14.00" fill="#000000"> </text>
<polyline fill="none" stroke="#bfbfbf" points="348.4482,-22.5 478.0479,-22.5 "/>
<text text-anchor="middle" x="413.248" y="-7.3" font-family="Helvetica,sans-Serif" font-size="14.00" fill="#000000"> </text>
</g>
<!-- Node46&#45;&gt;Node54 -->
<g id="edge9" class="edge">
<title>Node46&#45;&gt;Node54</title>
<path fill="none" stroke="#ffa500" d="M359.7239,-122.9901C368.7488,-109.0811 378.4862,-94.0742 387.1495,-80.7225"/>
<polygon fill="#ffa500" stroke="#ffa500" points="356.7198,-121.1899 354.2127,-131.4839 362.592,-125.0001 356.7198,-121.1899"/>
<text text-anchor="middle" x="411.7686" y="-101.8" font-family="Helvetica,sans-Serif" font-size="14.00" fill="#000000"> &lt; wchar_t &gt;</text>
</g>
<!-- Node55 -->
<g id="node10" class="node">
<title>Node55</title>
<polygon fill="none" stroke="#bfbfbf" points="496.4482,-.5 496.4482,-80.5 626.0479,-80.5 626.0479,-.5 496.4482,-.5"/>
<text text-anchor="start" x="504.4482" y="-65.3" font-family="Helvetica,sans-Serif" font-size="14.00" fill="#000000">std::basic_fstream</text>
<text text-anchor="middle" x="561.248" y="-51.3" font-family="Helvetica,sans-Serif" font-size="14.00" fill="#000000">&lt; char &gt;</text>
<polyline fill="none" stroke="#bfbfbf" points="496.4482,-44.5 626.0479,-44.5 "/>
<text text-anchor="middle" x="561.248" y="-29.3" font-family="Helvetica,sans-Serif" font-size="14.00" fill="#000000"> </text>
<polyline fill="none" stroke="#bfbfbf" points="496.4482,-22.5 626.0479,-22.5 "/>
<text text-anchor="middle" x="561.248" y="-7.3" font-family="Helvetica,sans-Serif" font-size="14.00" fill="#000000"> </text>
</g>
<!-- Node46&#45;&gt;Node55 -->
<g id="edge10" class="edge">
<title>Node46&#45;&gt;Node55</title>
<path fill="none" stroke="#ffa500" d="M402.7893,-139.3067C419.959,-131.2307 437.9558,-122.2224 454.248,-113 471.4323,-103.2727 489.4459,-91.666 505.6881,-80.6214"/>
<polygon fill="#ffa500" stroke="#ffa500" points="400.945,-136.3042 393.3517,-143.6929 403.8953,-142.6522 400.945,-136.3042"/>
<text text-anchor="middle" x="502.8755" y="-101.8" font-family="Helvetica,sans-Serif" font-size="14.00" fill="#000000"> &lt; char &gt;</text>
</g>
<!-- Node47 -->
<g id="node2" class="node">
<title>Node47</title>
<g id="a_node2"><a xlink:title="STL class. ">
<polygon fill="none" stroke="#bfbfbf" points="259.9448,-249.5 259.9448,-329.5 396.5513,-329.5 396.5513,-249.5 259.9448,-249.5"/>
<text text-anchor="start" x="267.9448" y="-314.3" font-family="Helvetica,sans-Serif" font-size="14.00" fill="#000000">std::basic_iostream</text>
<text text-anchor="middle" x="328.248" y="-300.3" font-family="Helvetica,sans-Serif" font-size="14.00" fill="#000000">&lt; Char &gt;</text>
<polyline fill="none" stroke="#bfbfbf" points="259.9448,-293.5 396.5513,-293.5 "/>
<text text-anchor="middle" x="328.248" y="-278.3" font-family="Helvetica,sans-Serif" font-size="14.00" fill="#000000"> </text>
<polyline fill="none" stroke="#bfbfbf" points="259.9448,-271.5 396.5513,-271.5 "/>
<text text-anchor="middle" x="328.248" y="-256.3" font-family="Helvetica,sans-Serif" font-size="14.00" fill="#000000"> </text>
</a>
</g>
</g>
<!-- Node47&#45;&gt;Node46 -->
<g id="edge1" class="edge">
<title>Node47&#45;&gt;Node46</title>
<path fill="none" stroke="#191970" d="M328.248,-239.0368C328.248,-229.8676 328.248,-220.4174 328.248,-211.5973"/>
<polygon fill="none" stroke="#191970" points="324.7481,-239.2211 328.248,-249.2211 331.7481,-239.2212 324.7481,-239.2211"/>
</g>
<!-- Node48 -->
<g id="node3" class="node">
<title>Node48</title>
<g id="a_node3"><a xlink:title="STL class. ">
<polygon fill="none" stroke="#bfbfbf" points="189.8379,-367.5 189.8379,-447.5 318.6582,-447.5 318.6582,-367.5 189.8379,-367.5"/>
<text text-anchor="start" x="197.8379" y="-432.3" font-family="Helvetica,sans-Serif" font-size="14.00" fill="#000000">std::basic_istream</text>
<text text-anchor="middle" x="254.248" y="-418.3" font-family="Helvetica,sans-Serif" font-size="14.00" fill="#000000">&lt; Char &gt;</text>
<polyline fill="none" stroke="#bfbfbf" points="189.8379,-411.5 318.6582,-411.5 "/>
<text text-anchor="middle" x="254.248" y="-396.3" font-family="Helvetica,sans-Serif" font-size="14.00" fill="#000000"> </text>
<polyline fill="none" stroke="#bfbfbf" points="189.8379,-389.5 318.6582,-389.5 "/>
<text text-anchor="middle" x="254.248" y="-374.3" font-family="Helvetica,sans-Serif" font-size="14.00" fill="#000000"> </text>
</a>
</g>
</g>
<!-- Node48&#45;&gt;Node47 -->
<g id="edge2" class="edge">
<title>Node48&#45;&gt;Node47</title>
<path fill="none" stroke="#191970" d="M284.9686,-358.5131C291.0063,-348.8856 297.2737,-338.8916 303.1023,-329.5973"/>
<polygon fill="none" stroke="#191970" points="281.8554,-356.8897 279.5077,-367.2211 287.7858,-360.6087 281.8554,-356.8897"/>
</g>
<!-- Node49 -->
<g id="node4" class="node">
<title>Node49</title>
<g id="a_node4"><a xlink:title="STL class. ">
<polygon fill="none" stroke="#bfbfbf" points="250.6001,-485.5 250.6001,-551.5 405.896,-551.5 405.896,-485.5 250.6001,-485.5"/>
<text text-anchor="middle" x="328.248" y="-536.3" font-family="Helvetica,sans-Serif" font-size="14.00" fill="#000000">std::basic_ios&lt; Char &gt;</text>
<polyline fill="none" stroke="#bfbfbf" points="250.6001,-529.5 405.896,-529.5 "/>
<text text-anchor="middle" x="328.248" y="-514.3" font-family="Helvetica,sans-Serif" font-size="14.00" fill="#000000"> </text>
<polyline fill="none" stroke="#bfbfbf" points="250.6001,-507.5 405.896,-507.5 "/>
<text text-anchor="middle" x="328.248" y="-492.3" font-family="Helvetica,sans-Serif" font-size="14.00" fill="#000000"> </text>
</a>
</g>
</g>
<!-- Node49&#45;&gt;Node48 -->
<g id="edge3" class="edge">
<title>Node49&#45;&gt;Node48</title>
<path fill="none" stroke="#191970" d="M300.5159,-476.9018C294.1301,-467.3231 287.3506,-457.1538 281.0071,-447.6385"/>
<polygon fill="none" stroke="#191970" points="297.7867,-479.1178 306.246,-485.4969 303.6111,-475.2349 297.7867,-479.1178"/>
</g>
<!-- Node51 -->
<g id="node6" class="node">
<title>Node51</title>
<g id="a_node6"><a xlink:title="STL class. ">
<polygon fill="none" stroke="#bfbfbf" points="336.5,-367.5 336.5,-447.5 469.9961,-447.5 469.9961,-367.5 336.5,-367.5"/>
<text text-anchor="start" x="344.5" y="-432.3" font-family="Helvetica,sans-Serif" font-size="14.00" fill="#000000">std::basic_ostream</text>
<text text-anchor="middle" x="403.248" y="-418.3" font-family="Helvetica,sans-Serif" font-size="14.00" fill="#000000">&lt; Char &gt;</text>
<polyline fill="none" stroke="#bfbfbf" points="336.5,-411.5 469.9961,-411.5 "/>
<text text-anchor="middle" x="403.248" y="-396.3" font-family="Helvetica,sans-Serif" font-size="14.00" fill="#000000"> </text>
<polyline fill="none" stroke="#bfbfbf" points="336.5,-389.5 469.9961,-389.5 "/>
<text text-anchor="middle" x="403.248" y="-374.3" font-family="Helvetica,sans-Serif" font-size="14.00" fill="#000000"> </text>
</a>
</g>
</g>
<!-- Node49&#45;&gt;Node51 -->
<g id="edge6" class="edge">
<title>Node49&#45;&gt;Node51</title>
<path fill="none" stroke="#191970" d="M356.1569,-477.1948C362.6868,-467.5307 369.6326,-457.2509 376.1274,-447.6385"/>
<polygon fill="none" stroke="#191970" points="353.246,-475.2514 350.5475,-485.4969 359.0461,-479.1705 353.246,-475.2514"/>
</g>
<!-- Node50 -->
<g id="node5" class="node">
<title>Node50</title>
<g id="a_node5"><a xlink:title="STL class. ">
<polygon fill="none" stroke="#bfbfbf" points="279,-589.5 279,-655.5 377.4961,-655.5 377.4961,-589.5 279,-589.5"/>
<text text-anchor="middle" x="328.248" y="-640.3" font-family="Helvetica,sans-Serif" font-size="14.00" fill="#000000">std::ios_base</text>
<polyline fill="none" stroke="#bfbfbf" points="279,-633.5 377.4961,-633.5 "/>
<text text-anchor="middle" x="328.248" y="-618.3" font-family="Helvetica,sans-Serif" font-size="14.00" fill="#000000"> </text>
<polyline fill="none" stroke="#bfbfbf" points="279,-611.5 377.4961,-611.5 "/>
<text text-anchor="middle" x="328.248" y="-596.3" font-family="Helvetica,sans-Serif" font-size="14.00" fill="#000000"> </text>
</a>
</g>
</g>
<!-- Node50&#45;&gt;Node49 -->
<g id="edge4" class="edge">
<title>Node50&#45;&gt;Node49</title>
<path fill="none" stroke="#191970" d="M328.248,-579.1737C328.248,-570.0025 328.248,-560.4608 328.248,-551.7336"/>
<polygon fill="none" stroke="#191970" points="324.7481,-579.3078 328.248,-589.3078 331.7481,-579.3078 324.7481,-579.3078"/>
</g>
<!-- Node51&#45;&gt;Node47 -->
<g id="edge5" class="edge">
<title>Node51&#45;&gt;Node47</title>
<path fill="none" stroke="#191970" d="M372.1123,-358.5131C365.9931,-348.8856 359.641,-338.8916 353.7336,-329.5973"/>
<polygon fill="none" stroke="#191970" points="369.329,-360.659 377.6471,-367.2211 375.2367,-356.9041 369.329,-360.659"/>
</g>
</g>
</svg>
