<?xml version="1.0" encoding="UTF-8" standalone="no"?>
<!DOCTYPE svg PUBLIC "-//W3C//DTD SVG 1.1//EN"
 "http://www.w3.org/Graphics/SVG/1.1/DTD/svg11.dtd">
<!-- Generated by graphviz version 2.40.1 (20161225.0304)
 -->
<!-- Title: std::basic_ostringstream&lt; Char &gt; Pages: 1 -->
<svg width="662pt" height="546pt"
 viewBox="0.00 0.00 662.50 546.00" xmlns="http://www.w3.org/2000/svg" xmlns:xlink="http://www.w3.org/1999/xlink">
<g id="graph0" class="graph" transform="scale(1 1) rotate(0) translate(4 542)">
<title>std::basic_ostringstream&lt; Char &gt;</title>
<!-- Node279 -->
<g id="node1" class="node">
<title>Node279</title>
<polygon fill="#bfbfbf" stroke="#000000" points="214.7656,-131.5 214.7656,-211.5 382.4961,-211.5 382.4961,-131.5 214.7656,-131.5"/>
<text text-anchor="start" x="222.7656" y="-196.3" font-family="Helvetica,sans-Serif" font-size="14.00" fill="#000000">std::basic_ostringstream</text>
<text text-anchor="middle" x="298.6309" y="-182.3" font-family="Helvetica,sans-Serif" font-size="14.00" fill="#000000">&lt; Char &gt;</text>
<polyline fill="none" stroke="#000000" points="214.7656,-175.5 382.4961,-175.5 "/>
<text text-anchor="middle" x="298.6309" y="-160.3" font-family="Helvetica,sans-Serif" font-size="14.00" fill="#000000"> </text>
<polyline fill="none" stroke="#000000" points="214.7656,-153.5 382.4961,-153.5 "/>
<text text-anchor="middle" x="298.6309" y="-138.3" font-family="Helvetica,sans-Serif" font-size="14.00" fill="#000000"> </text>
</g>
<!-- Node283 -->
<g id="node5" class="node">
<title>Node283</title>
<g id="a_node5"><a xlink:title="STL class. ">
<polygon fill="none" stroke="#bfbfbf" points="0,-.5 0,-80.5 127.2617,-80.5 127.2617,-.5 0,-.5"/>
<text text-anchor="start" x="8" y="-65.3" font-family="Helvetica,sans-Serif" font-size="14.00" fill="#000000">std::ostringstream</text>
<text text-anchor="middle" x="63.6309" y="-51.3" font-family="Helvetica,sans-Serif" font-size="14.00" fill="#000000">&lt; char &gt;</text>
<polyline fill="none" stroke="#bfbfbf" points="0,-44.5 127.2617,-44.5 "/>
<text text-anchor="middle" x="63.6309" y="-29.3" font-family="Helvetica,sans-Serif" font-size="14.00" fill="#000000"> </text>
<polyline fill="none" stroke="#bfbfbf" points="0,-22.5 127.2617,-22.5 "/>
<text text-anchor="middle" x="63.6309" y="-7.3" font-family="Helvetica,sans-Serif" font-size="14.00" fill="#000000"> </text>
</a>
</g>
</g>
<!-- Node279&#45;&gt;Node283 -->
<g id="edge4" class="edge">
<title>Node279&#45;&gt;Node283</title>
<path fill="none" stroke="#191970" d="M217.6092,-126.6316C191.4296,-112.1027 162.2854,-95.8959 135.6309,-81 133.0018,-79.5307 130.3195,-78.03 127.6105,-76.5128"/>
<polygon fill="none" stroke="#191970" points="215.9236,-129.699 226.366,-131.4901 219.3198,-123.578 215.9236,-129.699"/>
</g>
<!-- Node284 -->
<g id="node6" class="node">
<title>Node284</title>
<g id="a_node6"><a xlink:title="STL class. ">
<polygon fill="none" stroke="#bfbfbf" points="144.9448,-.5 144.9448,-80.5 282.3169,-80.5 282.3169,-.5 144.9448,-.5"/>
<text text-anchor="start" x="152.9448" y="-65.3" font-family="Helvetica,sans-Serif" font-size="14.00" fill="#000000">std::wostringstream</text>
<text text-anchor="middle" x="213.6309" y="-51.3" font-family="Helvetica,sans-Serif" font-size="14.00" fill="#000000">&lt; wchar_t &gt;</text>
<polyline fill="none" stroke="#bfbfbf" points="144.9448,-44.5 282.3169,-44.5 "/>
<text text-anchor="middle" x="213.6309" y="-29.3" font-family="Helvetica,sans-Serif" font-size="14.00" fill="#000000"> </text>
<polyline fill="none" stroke="#bfbfbf" points="144.9448,-22.5 282.3169,-22.5 "/>
<text text-anchor="middle" x="213.6309" y="-7.3" font-family="Helvetica,sans-Serif" font-size="14.00" fill="#000000"> </text>
</a>
</g>
</g>
<!-- Node279&#45;&gt;Node284 -->
<g id="edge5" class="edge">
<title>Node279&#45;&gt;Node284</title>
<path fill="none" stroke="#191970" d="M267.155,-122.9901C258.1301,-109.0811 248.3927,-94.0742 239.7294,-80.7225"/>
<polygon fill="none" stroke="#191970" points="264.2869,-125.0001 272.6662,-131.4839 270.1591,-121.1899 264.2869,-125.0001"/>
</g>
<!-- Node285 -->
<g id="node7" class="node">
<title>Node285</title>
<polygon fill="none" stroke="#bfbfbf" points="300.7656,-.5 300.7656,-80.5 468.4961,-80.5 468.4961,-.5 300.7656,-.5"/>
<text text-anchor="start" x="308.7656" y="-65.3" font-family="Helvetica,sans-Serif" font-size="14.00" fill="#000000">std::basic_ostringstream</text>
<text text-anchor="middle" x="384.6309" y="-51.3" font-family="Helvetica,sans-Serif" font-size="14.00" fill="#000000">&lt; wchar_t &gt;</text>
<polyline fill="none" stroke="#bfbfbf" points="300.7656,-44.5 468.4961,-44.5 "/>
<text text-anchor="middle" x="384.6309" y="-29.3" font-family="Helvetica,sans-Serif" font-size="14.00" fill="#000000"> </text>
<polyline fill="none" stroke="#bfbfbf" points="300.7656,-22.5 468.4961,-22.5 "/>
<text text-anchor="middle" x="384.6309" y="-7.3" font-family="Helvetica,sans-Serif" font-size="14.00" fill="#000000"> </text>
</g>
<!-- Node279&#45;&gt;Node285 -->
<g id="edge6" class="edge">
<title>Node279&#45;&gt;Node285</title>
<path fill="none" stroke="#ffa500" d="M330.4771,-122.9901C339.6081,-109.0811 349.46,-94.0742 358.2253,-80.7225"/>
<polygon fill="#ffa500" stroke="#ffa500" points="327.4631,-121.2035 324.901,-131.4839 333.3148,-125.0451 327.4631,-121.2035"/>
<text text-anchor="middle" x="383.1514" y="-101.8" font-family="Helvetica,sans-Serif" font-size="14.00" fill="#000000"> &lt; wchar_t &gt;</text>
</g>
<!-- Node286 -->
<g id="node8" class="node">
<title>Node286</title>
<polygon fill="none" stroke="#bfbfbf" points="486.7656,-.5 486.7656,-80.5 654.4961,-80.5 654.4961,-.5 486.7656,-.5"/>
<text text-anchor="start" x="494.7656" y="-65.3" font-family="Helvetica,sans-Serif" font-size="14.00" fill="#000000">std::basic_ostringstream</text>
<text text-anchor="middle" x="570.6309" y="-51.3" font-family="Helvetica,sans-Serif" font-size="14.00" fill="#000000">&lt; char &gt;</text>
<polyline fill="none" stroke="#bfbfbf" points="486.7656,-44.5 654.4961,-44.5 "/>
<text text-anchor="middle" x="570.6309" y="-29.3" font-family="Helvetica,sans-Serif" font-size="14.00" fill="#000000"> </text>
<polyline fill="none" stroke="#bfbfbf" points="486.7656,-22.5 654.4961,-22.5 "/>
<text text-anchor="middle" x="570.6309" y="-7.3" font-family="Helvetica,sans-Serif" font-size="14.00" fill="#000000"> </text>
</g>
<!-- Node279&#45;&gt;Node286 -->
<g id="edge7" class="edge">
<title>Node279&#45;&gt;Node286</title>
<path fill="none" stroke="#ffa500" d="M391.9328,-128.9363C403.31,-123.6241 414.7524,-118.2234 425.6309,-113 447.0699,-102.7057 470.1539,-91.3083 491.4609,-80.6575"/>
<polygon fill="#ffa500" stroke="#ffa500" points="390.4228,-125.7785 382.8346,-133.1724 393.3775,-132.1244 390.4228,-125.7785"/>
<text text-anchor="middle" x="481.2583" y="-101.8" font-family="Helvetica,sans-Serif" font-size="14.00" fill="#000000"> &lt; char &gt;</text>
</g>
<!-- Node280 -->
<g id="node2" class="node">
<title>Node280</title>
<g id="a_node2"><a xlink:title="STL class. ">
<polygon fill="none" stroke="#bfbfbf" points="231.8828,-249.5 231.8828,-329.5 365.3789,-329.5 365.3789,-249.5 231.8828,-249.5"/>
<text text-anchor="start" x="239.8828" y="-314.3" font-family="Helvetica,sans-Serif" font-size="14.00" fill="#000000">std::basic_ostream</text>
<text text-anchor="middle" x="298.6309" y="-300.3" font-family="Helvetica,sans-Serif" font-size="14.00" fill="#000000">&lt; Char &gt;</text>
<polyline fill="none" stroke="#bfbfbf" points="231.8828,-293.5 365.3789,-293.5 "/>
<text text-anchor="middle" x="298.6309" y="-278.3" font-family="Helvetica,sans-Serif" font-size="14.00" fill="#000000"> </text>
<polyline fill="none" stroke="#bfbfbf" points="231.8828,-271.5 365.3789,-271.5 "/>
<text text-anchor="middle" x="298.6309" y="-256.3" font-family="Helvetica,sans-Serif" font-size="14.00" fill="#000000"> </text>
</a>
</g>
</g>
<!-- Node280&#45;&gt;Node279 -->
<g id="edge1" class="edge">
<title>Node280&#45;&gt;Node279</title>
<path fill="none" stroke="#191970" d="M298.6309,-239.0368C298.6309,-229.8676 298.6309,-220.4174 298.6309,-211.5973"/>
<polygon fill="none" stroke="#191970" points="295.131,-239.2211 298.6309,-249.2211 302.131,-239.2212 295.131,-239.2211"/>
</g>
<!-- Node281 -->
<g id="node3" class="node">
<title>Node281</title>
<g id="a_node3"><a xlink:title="STL class. ">
<polygon fill="none" stroke="#bfbfbf" points="220.9829,-367.5 220.9829,-433.5 376.2788,-433.5 376.2788,-367.5 220.9829,-367.5"/>
<text text-anchor="middle" x="298.6309" y="-418.3" font-family="Helvetica,sans-Serif" font-size="14.00" fill="#000000">std::basic_ios&lt; Char &gt;</text>
<polyline fill="none" stroke="#bfbfbf" points="220.9829,-411.5 376.2788,-411.5 "/>
<text text-anchor="middle" x="298.6309" y="-396.3" font-family="Helvetica,sans-Serif" font-size="14.00" fill="#000000"> </text>
<polyline fill="none" stroke="#bfbfbf" points="220.9829,-389.5 376.2788,-389.5 "/>
<text text-anchor="middle" x="298.6309" y="-374.3" font-family="Helvetica,sans-Serif" font-size="14.00" fill="#000000"> </text>
</a>
</g>
</g>
<!-- Node281&#45;&gt;Node280 -->
<g id="edge2" class="edge">
<title>Node281&#45;&gt;Node280</title>
<path fill="none" stroke="#191970" d="M298.6309,-357.4312C298.6309,-348.2871 298.6309,-338.6684 298.6309,-329.6385"/>
<polygon fill="none" stroke="#191970" points="295.131,-357.4968 298.6309,-367.4969 302.131,-357.4969 295.131,-357.4968"/>
</g>
<!-- Node282 -->
<g id="node4" class="node">
<title>Node282</title>
<g id="a_node4"><a xlink:title="STL class. ">
<polygon fill="none" stroke="#bfbfbf" points="249.3828,-471.5 249.3828,-537.5 347.8789,-537.5 347.8789,-471.5 249.3828,-471.5"/>
<text text-anchor="middle" x="298.6309" y="-522.3" font-family="Helvetica,sans-Serif" font-size="14.00" fill="#000000">std::ios_base</text>
<polyline fill="none" stroke="#bfbfbf" points="249.3828,-515.5 347.8789,-515.5 "/>
<text text-anchor="middle" x="298.6309" y="-500.3" font-family="Helvetica,sans-Serif" font-size="14.00" fill="#000000"> </text>
<polyline fill="none" stroke="#bfbfbf" points="249.3828,-493.5 347.8789,-493.5 "/>
<text text-anchor="middle" x="298.6309" y="-478.3" font-family="Helvetica,sans-Serif" font-size="14.00" fill="#000000"> </text>
</a>
</g>
</g>
<!-- Node282&#45;&gt;Node281 -->
<g id="edge3" class="edge">
<title>Node282&#45;&gt;Node281</title>
<path fill="none" stroke="#191970" d="M298.6309,-461.1737C298.6309,-452.0025 298.6309,-442.4608 298.6309,-433.7336"/>
<polygon fill="none" stroke="#191970" points="295.131,-461.3078 298.6309,-471.3078 302.131,-461.3078 295.131,-461.3078"/>
</g>
</g>
</svg>
