<?xml version="1.0" encoding="UTF-8" standalone="no"?>
<!DOCTYPE svg PUBLIC "-//W3C//DTD SVG 1.1//EN"
 "http://www.w3.org/Graphics/SVG/1.1/DTD/svg11.dtd">
<!-- Generated by graphviz version 2.40.1 (20161225.0304)
 -->
<!-- Title: std::wostream Pages: 1 -->
<svg width="163pt" height="398pt"
 viewBox="0.00 0.00 163.30 398.00" xmlns="http://www.w3.org/2000/svg" xmlns:xlink="http://www.w3.org/1999/xlink">
<g id="graph0" class="graph" transform="scale(1 1) rotate(0) translate(4 394)">
<title>std::wostream</title>
<!-- Node941 -->
<g id="node1" class="node">
<title>Node941</title>
<polygon fill="#bfbfbf" stroke="#000000" points="26.0791,-.5 26.0791,-66.5 129.2168,-66.5 129.2168,-.5 26.0791,-.5"/>
<text text-anchor="middle" x="77.6479" y="-51.3" font-family="Helvetica,sans-Serif" font-size="14.00" fill="#000000">std::wostream</text>
<polyline fill="none" stroke="#000000" points="26.0791,-44.5 129.2168,-44.5 "/>
<text text-anchor="middle" x="77.6479" y="-29.3" font-family="Helvetica,sans-Serif" font-size="14.00" fill="#000000"> </text>
<polyline fill="none" stroke="#000000" points="26.0791,-22.5 129.2168,-22.5 "/>
<text text-anchor="middle" x="77.6479" y="-7.3" font-family="Helvetica,sans-Serif" font-size="14.00" fill="#000000"> </text>
</g>
<!-- Node942 -->
<g id="node2" class="node">
<title>Node942</title>
<g id="a_node2"><a xlink:title="STL class. ">
<polygon fill="none" stroke="#bfbfbf" points="10.8999,-103.5 10.8999,-183.5 144.396,-183.5 144.396,-103.5 10.8999,-103.5"/>
<text text-anchor="start" x="18.8999" y="-168.3" font-family="Helvetica,sans-Serif" font-size="14.00" fill="#000000">std::basic_ostream</text>
<text text-anchor="middle" x="77.6479" y="-154.3" font-family="Helvetica,sans-Serif" font-size="14.00" fill="#000000">&lt; wchar_t &gt;</text>
<polyline fill="none" stroke="#bfbfbf" points="10.8999,-147.5 144.396,-147.5 "/>
<text text-anchor="middle" x="77.6479" y="-132.3" font-family="Helvetica,sans-Serif" font-size="14.00" fill="#000000"> </text>
<polyline fill="none" stroke="#bfbfbf" points="10.8999,-125.5 144.396,-125.5 "/>
<text text-anchor="middle" x="77.6479" y="-110.3" font-family="Helvetica,sans-Serif" font-size="14.00" fill="#000000"> </text>
</a>
</g>
</g>
<!-- Node942&#45;&gt;Node941 -->
<g id="edge1" class="edge">
<title>Node942&#45;&gt;Node941</title>
<path fill="none" stroke="#191970" d="M77.6479,-93.4195C77.6479,-84.3987 77.6479,-75.2 77.6479,-66.8045"/>
<polygon fill="none" stroke="#191970" points="74.148,-93.4763 77.6479,-103.4763 81.148,-93.4763 74.148,-93.4763"/>
</g>
<!-- Node943 -->
<g id="node3" class="node">
<title>Node943</title>
<g id="a_node3"><a xlink:title="STL class. ">
<polygon fill="none" stroke="#bfbfbf" points="0,-220.5 0,-286.5 155.2959,-286.5 155.2959,-220.5 0,-220.5"/>
<text text-anchor="middle" x="77.6479" y="-271.3" font-family="Helvetica,sans-Serif" font-size="14.00" fill="#000000">std::basic_ios&lt; Char &gt;</text>
<polyline fill="none" stroke="#bfbfbf" points="0,-264.5 155.2959,-264.5 "/>
<text text-anchor="middle" x="77.6479" y="-249.3" font-family="Helvetica,sans-Serif" font-size="14.00" fill="#000000"> </text>
<polyline fill="none" stroke="#bfbfbf" points="0,-242.5 155.2959,-242.5 "/>
<text text-anchor="middle" x="77.6479" y="-227.3" font-family="Helvetica,sans-Serif" font-size="14.00" fill="#000000"> </text>
</a>
</g>
</g>
<!-- Node943&#45;&gt;Node942 -->
<g id="edge2" class="edge">
<title>Node943&#45;&gt;Node942</title>
<path fill="none" stroke="#191970" d="M77.6479,-210.4695C77.6479,-201.7133 77.6479,-192.5317 77.6479,-183.8719"/>
<polygon fill="none" stroke="#191970" points="74.148,-210.4963 77.6479,-220.4964 81.148,-210.4964 74.148,-210.4963"/>
</g>
<!-- Node944 -->
<g id="node4" class="node">
<title>Node944</title>
<g id="a_node4"><a xlink:title="STL class. ">
<polygon fill="none" stroke="#bfbfbf" points="28.3999,-323.5 28.3999,-389.5 126.896,-389.5 126.896,-323.5 28.3999,-323.5"/>
<text text-anchor="middle" x="77.6479" y="-374.3" font-family="Helvetica,sans-Serif" font-size="14.00" fill="#000000">std::ios_base</text>
<polyline fill="none" stroke="#bfbfbf" points="28.3999,-367.5 126.896,-367.5 "/>
<text text-anchor="middle" x="77.6479" y="-352.3" font-family="Helvetica,sans-Serif" font-size="14.00" fill="#000000"> </text>
<polyline fill="none" stroke="#bfbfbf" points="28.3999,-345.5 126.896,-345.5 "/>
<text text-anchor="middle" x="77.6479" y="-330.3" font-family="Helvetica,sans-Serif" font-size="14.00" fill="#000000"> </text>
</a>
</g>
</g>
<!-- Node944&#45;&gt;Node943 -->
<g id="edge3" class="edge">
<title>Node944&#45;&gt;Node943</title>
<path fill="none" stroke="#191970" d="M77.6479,-313.1362C77.6479,-304.256 77.6479,-295.0447 77.6479,-286.5947"/>
<polygon fill="none" stroke="#191970" points="74.148,-313.3432 77.6479,-323.3432 81.148,-313.3432 74.148,-313.3432"/>
</g>
</g>
</svg>
