<?xml version="1.0" encoding="UTF-8" standalone="no"?>
<!DOCTYPE svg PUBLIC "-//W3C//DTD SVG 1.1//EN"
 "http://www.w3.org/Graphics/SVG/1.1/DTD/svg11.dtd">
<!-- Generated by graphviz version 2.40.1 (20161225.0304)
 -->
<!-- Title: InfinityDouble::InfinityValue Pages: 1 -->
<svg width="858pt" height="45pt"
 viewBox="0.00 0.00 857.78 45.00" xmlns="http://www.w3.org/2000/svg" xmlns:xlink="http://www.w3.org/1999/xlink">
<g id="graph0" class="graph" transform="scale(1 1) rotate(0) translate(4 41)">
<title>InfinityDouble::InfinityValue</title>
<!-- Node15 -->
<g id="node1" class="node">
<title>Node15</title>
<polygon fill="#bfbfbf" stroke="#000000" points="0,-.5 0,-36.5 149.0684,-36.5 149.0684,-.5 0,-.5"/>
<text text-anchor="start" x="8" y="-21.3" font-family="Helvetica,sans-Serif" font-size="14.00" fill="#000000">InfinityDouble::Infinity</text>
<text text-anchor="middle" x="74.5342" y="-7.3" font-family="Helvetica,sans-Serif" font-size="14.00" fill="#000000">Value</text>
</g>
<!-- Node16 -->
<g id="node2" class="node">
<title>Node16</title>
<g id="a_node2"><a xlink:href="../../d6/df5/classMapIniter.html#a8961b80aa1df5f628bd4e28e66a51d0b" target="_top" xlink:title="MapIniter::getRandomGrass">
<polygon fill="none" stroke="#000000" points="185.0684,-7.5 185.0684,-29.5 376.9229,-29.5 376.9229,-7.5 185.0684,-7.5"/>
<text text-anchor="middle" x="280.9956" y="-14.3" font-family="Helvetica,sans-Serif" font-size="14.00" fill="#000000">MapIniter::getRandomGrass</text>
</a>
</g>
</g>
<!-- Node15&#45;&gt;Node16 -->
<g id="edge1" class="edge">
<title>Node15&#45;&gt;Node16</title>
<path fill="none" stroke="#191970" d="M159.3052,-18.5C167.7778,-18.5 176.4219,-18.5 184.9991,-18.5"/>
<polygon fill="#191970" stroke="#191970" points="159.0715,-15.0001 149.0715,-18.5 159.0715,-22.0001 159.0715,-15.0001"/>
</g>
<!-- Node17 -->
<g id="node3" class="node">
<title>Node17</title>
<g id="a_node3"><a xlink:href="../../d6/df5/classMapIniter.html#ae6dfbed9cc8569db78442c0bfe57e252" target="_top" xlink:title="MapIniter::initSimapleMap">
<polygon fill="none" stroke="#000000" points="412.9229,-7.5 412.9229,-29.5 590.7705,-29.5 590.7705,-7.5 412.9229,-7.5"/>
<text text-anchor="middle" x="501.8467" y="-14.3" font-family="Helvetica,sans-Serif" font-size="14.00" fill="#000000">MapIniter::initSimapleMap</text>
</a>
</g>
</g>
<!-- Node16&#45;&gt;Node17 -->
<g id="edge2" class="edge">
<title>Node16&#45;&gt;Node17</title>
<path fill="none" stroke="#191970" d="M387.2658,-18.5C395.8456,-18.5 404.459,-18.5 412.8982,-18.5"/>
<polygon fill="#191970" stroke="#191970" points="387.2217,-15.0001 377.2216,-18.5 387.2216,-22.0001 387.2217,-15.0001"/>
</g>
<!-- Node18 -->
<g id="node4" class="node">
<title>Node18</title>
<g id="a_node4"><a xlink:href="../../d2/d11/classMainGameLoop.html#a0632599cb00fa2c86ba1c71904c1f59f" target="_top" xlink:title="MainGameLoop::MainGameLoop">
<polygon fill="none" stroke="#000000" points="626.7705,-7.5 626.7705,-29.5 849.7764,-29.5 849.7764,-7.5 626.7705,-7.5"/>
<text text-anchor="middle" x="738.2734" y="-14.3" font-family="Helvetica,sans-Serif" font-size="14.00" fill="#000000">MainGameLoop::MainGameLoop</text>
</a>
</g>
</g>
<!-- Node17&#45;&gt;Node18 -->
<g id="edge3" class="edge">
<title>Node17&#45;&gt;Node18</title>
<path fill="none" stroke="#191970" d="M601.0844,-18.5C609.5033,-18.5 618.0539,-18.5 626.5596,-18.5"/>
<polygon fill="#191970" stroke="#191970" points="600.8926,-15.0001 590.8926,-18.5 600.8926,-22.0001 600.8926,-15.0001"/>
</g>
</g>
</svg>
