<?xml version="1.0" encoding="UTF-8" standalone="no"?>
<!DOCTYPE svg PUBLIC "-//W3C//DTD SVG 1.1//EN"
 "http://www.w3.org/Graphics/SVG/1.1/DTD/svg11.dtd">
<!-- Generated by graphviz version 2.40.1 (20161225.0304)
 -->
<!-- Title: InfinityDouble::InfinityDouble Pages: 1 -->
<!--zoomable 125 -->
<svg id="main" version="1.1" xmlns="http://www.w3.org/2000/svg" xmlns:xlink="http://www.w3.org/1999/xlink" xml:space="preserve" onload="init(evt)">
<style type="text/css"><![CDATA[
.edge:hover path { stroke: red; }
.edge:hover polygon { stroke: red; fill: red; }
]]></style>
<script type="text/javascript"><![CDATA[
var edges = document.getElementsByTagName('g');
if (edges && edges.length) {
  for (var i=0;i<edges.length;i++) {
    if (edges[i].id.substr(0,4)=='edge') {
      edges[i].setAttribute('class','edge');
    }
  }
}
]]></script>
        <defs>
                <circle id="rim" cx="0" cy="0" r="7"/>
                <circle id="rim2" cx="0" cy="0" r="3.5"/>
                <g id="zoomPlus">
                        <use xlink:href="#rim" fill="#404040">
                                <set attributeName="fill" to="#808080" begin="zoomplus.mouseover" end="zoomplus.mouseout"/>
                        </use>
                        <path d="M-4,0h8M0,-4v8" fill="none" stroke="white" stroke-width="1.5" pointer-events="none"/>
                </g>
                <g id="zoomMin">
                        <use xlink:href="#rim" fill="#404040">
                                <set attributeName="fill" to="#808080" begin="zoomminus.mouseover" end="zoomminus.mouseout"/>
                        </use>
                        <path d="M-4,0h8" fill="none" stroke="white" stroke-width="1.5" pointer-events="none"/>
                </g>
                <g id="dirArrow">
                        <path fill="none" stroke="white" stroke-width="1.5" d="M0,-3.0v7 M-2.5,-0.5L0,-3.0L2.5,-0.5"/>
                </g>
               <g id="resetDef">
                       <use xlink:href="#rim2" fill="#404040">
                               <set attributeName="fill" to="#808080" begin="reset.mouseover" end="reset.mouseout"/>
                       </use>
               </g>
        </defs>

<script type="text/javascript">
var viewWidth = 1070;
var viewHeight = 125;
var sectionId = 'dynsection-2';
</script>
<script xlink:href="../../svgpan.js"/>
<svg id="graph" class="graph">
<g id="viewport">
<title>InfinityDouble::InfinityDouble</title>
<!-- Node1 -->
<g id="node1" class="node">
<title>Node1</title>
<polygon fill="#bfbfbf" stroke="#000000" points="0,-47.5 0,-83.5 149.0684,-83.5 149.0684,-47.5 0,-47.5"/>
<text text-anchor="start" x="8" y="-68.3" font-family="Helvetica,sans-Serif" font-size="14.00" fill="#000000">InfinityDouble::Infinity</text>
<text text-anchor="middle" x="74.5342" y="-54.3" font-family="Helvetica,sans-Serif" font-size="14.00" fill="#000000">Double</text>
</g>
<!-- Node2 -->
<g id="node2" class="node">
<title>Node2</title>
<g id="a_node2"><a xlink:href="../../d2/dc5/classInfinityDouble.html#adb0a2fa93aa5f90a93c3f4303436913a" target="_top" xlink:title="InfinityDouble::FromValue">
<polygon fill="none" stroke="#000000" points="185.0684,-94.5 185.0684,-116.5 361.1113,-116.5 361.1113,-94.5 185.0684,-94.5"/>
<text text-anchor="middle" x="273.0898" y="-101.3" font-family="Helvetica,sans-Serif" font-size="14.00" fill="#000000">InfinityDouble::FromValue</text>
</a>
</g>
</g>
<!-- Node1&#45;&gt;Node2 -->
<g id="edge1" class="edge">
<title>Node1&#45;&gt;Node2</title>
<path fill="none" stroke="#191970" d="M159.331,-82.5827C179.2547,-86.5965 199.9737,-90.7704 218.1846,-94.4391"/>
<polygon fill="#191970" stroke="#191970" points="159.8109,-79.1092 149.3166,-80.5653 158.4285,-85.9713 159.8109,-79.1092"/>
</g>
<!-- Node3 -->
<g id="node3" class="node">
<title>Node3</title>
<g id="a_node3"><a xlink:href="../../d6/df5/classMapIniter.html#a8961b80aa1df5f628bd4e28e66a51d0b" target="_top" xlink:title="MapIniter::getRandomGrass">
<polygon fill="none" stroke="#000000" points="397.1113,-54.5 397.1113,-76.5 588.9658,-76.5 588.9658,-54.5 397.1113,-54.5"/>
<text text-anchor="middle" x="493.0386" y="-61.3" font-family="Helvetica,sans-Serif" font-size="14.00" fill="#000000">MapIniter::getRandomGrass</text>
</a>
</g>
</g>
<!-- Node1&#45;&gt;Node3 -->
<g id="edge7" class="edge">
<title>Node1&#45;&gt;Node3</title>
<path fill="none" stroke="#191970" d="M159.7153,-65.5C228.4752,-65.5 325.212,-65.5 396.7708,-65.5"/>
<polygon fill="#191970" stroke="#191970" points="159.3544,-62.0001 149.3544,-65.5 159.3543,-69.0001 159.3544,-62.0001"/>
</g>
<!-- Node6 -->
<g id="node6" class="node">
<title>Node6</title>
<g id="a_node6"><a xlink:href="../../d2/dc5/classInfinityDouble.html#a67fae871f96708313bedc644630ac8bc" target="_top" xlink:title="InfinityDouble::Infinity\lValue">
<polygon fill="none" stroke="#000000" points="198.5557,-.5 198.5557,-36.5 347.624,-36.5 347.624,-.5 198.5557,-.5"/>
<text text-anchor="start" x="206.5557" y="-21.3" font-family="Helvetica,sans-Serif" font-size="14.00" fill="#000000">InfinityDouble::Infinity</text>
<text text-anchor="middle" x="273.0898" y="-7.3" font-family="Helvetica,sans-Serif" font-size="14.00" fill="#000000">Value</text>
</a>
</g>
</g>
<!-- Node1&#45;&gt;Node6 -->
<g id="edge5" class="edge">
<title>Node1&#45;&gt;Node6</title>
<path fill="none" stroke="#191970" d="M159.1945,-45.4601C172.2192,-42.377 185.5871,-39.2127 198.3748,-36.1858"/>
<polygon fill="#191970" stroke="#191970" points="158.2415,-42.0889 149.3166,-47.7983 159.854,-48.9007 158.2415,-42.0889"/>
</g>
<!-- Node2&#45;&gt;Node3 -->
<g id="edge2" class="edge">
<title>Node2&#45;&gt;Node3</title>
<path fill="none" stroke="#191970" d="M343.7117,-92.6567C372.3333,-87.4515 405.0513,-81.5014 432.5524,-76.5"/>
<polygon fill="#191970" stroke="#191970" points="342.9864,-89.2311 333.774,-94.4639 344.2389,-96.1181 342.9864,-89.2311"/>
</g>
<!-- Node4 -->
<g id="node4" class="node">
<title>Node4</title>
<g id="a_node4"><a xlink:href="../../d6/df5/classMapIniter.html#ae6dfbed9cc8569db78442c0bfe57e252" target="_top" xlink:title="MapIniter::initSimapleMap">
<polygon fill="none" stroke="#000000" points="624.9658,-54.5 624.9658,-76.5 802.8135,-76.5 802.8135,-54.5 624.9658,-54.5"/>
<text text-anchor="middle" x="713.8896" y="-61.3" font-family="Helvetica,sans-Serif" font-size="14.00" fill="#000000">MapIniter::initSimapleMap</text>
</a>
</g>
</g>
<!-- Node3&#45;&gt;Node4 -->
<g id="edge3" class="edge">
<title>Node3&#45;&gt;Node4</title>
<path fill="none" stroke="#191970" d="M599.3088,-65.5C607.8886,-65.5 616.5019,-65.5 624.9412,-65.5"/>
<polygon fill="#191970" stroke="#191970" points="599.2646,-62.0001 589.2646,-65.5 599.2646,-69.0001 599.2646,-62.0001"/>
</g>
<!-- Node5 -->
<g id="node5" class="node">
<title>Node5</title>
<g id="a_node5"><a xlink:href="../../d2/d11/classMainGameLoop.html#a0632599cb00fa2c86ba1c71904c1f59f" target="_top" xlink:title="MainGameLoop::MainGameLoop">
<polygon fill="none" stroke="#000000" points="838.8135,-54.5 838.8135,-76.5 1061.8193,-76.5 1061.8193,-54.5 838.8135,-54.5"/>
<text text-anchor="middle" x="950.3164" y="-61.3" font-family="Helvetica,sans-Serif" font-size="14.00" fill="#000000">MainGameLoop::MainGameLoop</text>
</a>
</g>
</g>
<!-- Node4&#45;&gt;Node5 -->
<g id="edge4" class="edge">
<title>Node4&#45;&gt;Node5</title>
<path fill="none" stroke="#191970" d="M813.1274,-65.5C821.5462,-65.5 830.0969,-65.5 838.6026,-65.5"/>
<polygon fill="#191970" stroke="#191970" points="812.9356,-62.0001 802.9356,-65.5 812.9355,-69.0001 812.9356,-62.0001"/>
</g>
<!-- Node6&#45;&gt;Node3 -->
<g id="edge6" class="edge">
<title>Node6&#45;&gt;Node3</title>
<path fill="none" stroke="#191970" d="M357.7183,-36.5839C385.8993,-42.6058 416.4287,-49.1295 441.345,-54.4538"/>
<polygon fill="#191970" stroke="#191970" points="358.372,-33.1447 347.8614,-34.4776 356.9092,-39.9901 358.372,-33.1447"/>
</g>
</g>
</svg>
        <g id="navigator" transform="translate(0 0)" fill="#404254">
                <rect fill="#f2f5e9" fill-opacity="0.5" stroke="#606060" stroke-width=".5" x="0" y="0" width="60" height="60"/>
                <use id="zoomplus" xlink:href="#zoomPlus" x="17" y="9" onmousedown="handleZoom(evt,'in')"/>
                <use id="zoomminus" xlink:href="#zoomMin" x="42" y="9" onmousedown="handleZoom(evt,'out')"/>
                <use id="reset" xlink:href="#resetDef" x="30" y="36" onmousedown="handleReset()"/>
                <g id="arrowUp" xlink:href="#dirArrow" transform="translate(30 24)" onmousedown="handlePan(0,-1)">
                  <use xlink:href="#rim" fill="#404040">
                        <set attributeName="fill" to="#808080" begin="arrowUp.mouseover" end="arrowUp.mouseout"/>
                  </use>
                  <path fill="none" stroke="white" stroke-width="1.5" d="M0,-3.0v7 M-2.5,-0.5L0,-3.0L2.5,-0.5"/>
                </g>
                <g id="arrowRight" xlink:href="#dirArrow" transform="rotate(90) translate(36 -43)" onmousedown="handlePan(1,0)">
                  <use xlink:href="#rim" fill="#404040">
                        <set attributeName="fill" to="#808080" begin="arrowRight.mouseover" end="arrowRight.mouseout"/>
                  </use>
                  <path fill="none" stroke="white" stroke-width="1.5" d="M0,-3.0v7 M-2.5,-0.5L0,-3.0L2.5,-0.5"/>
                </g>
                <g id="arrowDown" xlink:href="#dirArrow" transform="rotate(180) translate(-30 -48)" onmousedown="handlePan(0,1)">
                  <use xlink:href="#rim" fill="#404040">
                        <set attributeName="fill" to="#808080" begin="arrowDown.mouseover" end="arrowDown.mouseout"/>
                  </use>
                  <path fill="none" stroke="white" stroke-width="1.5" d="M0,-3.0v7 M-2.5,-0.5L0,-3.0L2.5,-0.5"/>
                </g>
                <g id="arrowLeft" xlink:href="#dirArrow" transform="rotate(270) translate(-36 17)" onmousedown="handlePan(-1,0)">
                  <use xlink:href="#rim" fill="#404040">
                        <set attributeName="fill" to="#808080" begin="arrowLeft.mouseover" end="arrowLeft.mouseout"/>
                  </use>
                  <path fill="none" stroke="white" stroke-width="1.5" d="M0,-3.0v7 M-2.5,-0.5L0,-3.0L2.5,-0.5"/>
                </g>
        </g>
        <svg viewBox="0 0 15 15" width="100%" height="30px" preserveAspectRatio="xMaxYMin meet">
         <g id="arrow_out" transform="scale(0.3 0.3)">
          <a xlink:href="classInfinityDouble_a8d33637f68b523cf2b21abd1509c47bf_icgraph_org.svg" target="_base">
           <rect id="button" ry="5" rx="5" y="6" x="6" height="38" width="38"
                fill="#f2f5e9" fill-opacity="0.5" stroke="#606060" stroke-width="1.0"/>
           <path id="arrow"
             d="M 11.500037,31.436501 C 11.940474,20.09759 22.043105,11.32322 32.158766,21.979434 L 37.068811,17.246167 C 37.068811,17.246167 37.088388,32 37.088388,32 L 22.160133,31.978069 C 22.160133,31.978069 26.997745,27.140456 26.997745,27.140456 C 18.528582,18.264221 13.291696,25.230495 11.500037,31.436501 z"
             style="fill:#404040;"/>
          </a>
         </g>
        </svg>
</svg>
