<?xml version="1.0" encoding="UTF-8" standalone="no"?>
<!DOCTYPE svg PUBLIC "-//W3C//DTD SVG 1.1//EN"
 "http://www.w3.org/Graphics/SVG/1.1/DTD/svg11.dtd">
<!-- Generated by graphviz version 2.40.1 (20161225.0304)
 -->
<!-- Title: ServerWorker Pages: 1 -->
<svg width="252pt" height="276pt"
 viewBox="0.00 0.00 252.46 276.00" xmlns="http://www.w3.org/2000/svg" xmlns:xlink="http://www.w3.org/1999/xlink">
<g id="graph0" class="graph" transform="scale(1 1) rotate(0) translate(4 272)">
<title>ServerWorker</title>
<!-- Node809 -->
<g id="node1" class="node">
<title>Node809</title>
<polygon fill="#bfbfbf" stroke="#000000" points="27.8433,-.5 27.8433,-150.5 173.4048,-150.5 173.4048,-.5 27.8433,-.5"/>
<text text-anchor="middle" x="100.624" y="-135.3" font-family="Helvetica,sans-Serif" font-size="14.00" fill="#000000">ServerWorker</text>
<polyline fill="none" stroke="#000000" points="27.8433,-128.5 173.4048,-128.5 "/>
<text text-anchor="start" x="35.8433" y="-113.3" font-family="Helvetica,sans-Serif" font-size="14.00" fill="#000000"># socket</text>
<text text-anchor="start" x="35.8433" y="-99.3" font-family="Helvetica,sans-Serif" font-size="14.00" fill="#000000"># isWork</text>
<text text-anchor="start" x="35.8433" y="-85.3" font-family="Helvetica,sans-Serif" font-size="14.00" fill="#000000"># out</text>
<text text-anchor="start" x="35.8433" y="-71.3" font-family="Helvetica,sans-Serif" font-size="14.00" fill="#000000"># workerMutex</text>
<text text-anchor="start" x="35.8433" y="-57.3" font-family="Helvetica,sans-Serif" font-size="14.00" fill="#000000"># responceMessage</text>
<polyline fill="none" stroke="#000000" points="27.8433,-50.5 173.4048,-50.5 "/>
<text text-anchor="start" x="35.8433" y="-35.3" font-family="Helvetica,sans-Serif" font-size="14.00" fill="#000000">+ ServerWorker()</text>
<text text-anchor="start" x="35.8433" y="-21.3" font-family="Helvetica,sans-Serif" font-size="14.00" fill="#000000">+ receiveResponce()</text>
<text text-anchor="start" x="35.8433" y="-7.3" font-family="Helvetica,sans-Serif" font-size="14.00" fill="#000000"># run()</text>
</g>
<!-- Node810 -->
<g id="node2" class="node">
<title>Node810</title>
<polygon fill="none" stroke="#bfbfbf" points="0,-194.5 0,-260.5 71.248,-260.5 71.248,-194.5 0,-194.5"/>
<text text-anchor="middle" x="35.624" y="-245.3" font-family="Helvetica,sans-Serif" font-size="14.00" fill="#000000">QThread</text>
<polyline fill="none" stroke="#bfbfbf" points="0,-238.5 71.248,-238.5 "/>
<text text-anchor="middle" x="35.624" y="-223.3" font-family="Helvetica,sans-Serif" font-size="14.00" fill="#000000"> </text>
<polyline fill="none" stroke="#bfbfbf" points="0,-216.5 71.248,-216.5 "/>
<text text-anchor="middle" x="35.624" y="-201.3" font-family="Helvetica,sans-Serif" font-size="14.00" fill="#000000"> </text>
</g>
<!-- Node810&#45;&gt;Node809 -->
<g id="edge1" class="edge">
<title>Node810&#45;&gt;Node809</title>
<path fill="none" stroke="#191970" d="M53.9354,-184.6795C58.4991,-174.0075 63.5272,-162.2494 68.5421,-150.5224"/>
<polygon fill="none" stroke="#191970" points="50.6024,-183.5722 49.8885,-194.143 57.0386,-186.3246 50.6024,-183.5722"/>
</g>
<!-- Node811 -->
<g id="node3" class="node">
<title>Node811</title>
<g id="a_node3"><a xlink:href="$d9/db0/a00750.html" xlink:title="{MailSender\n|# receiver\l|+ receiveResponce()\l+ setDefaultReceiver()\l}">
<polygon fill="none" stroke="#000000" points="88.7915,-187.5 88.7915,-267.5 244.4565,-267.5 244.4565,-187.5 88.7915,-187.5"/>
<text text-anchor="middle" x="166.624" y="-252.3" font-family="Helvetica,sans-Serif" font-size="14.00" fill="#000000">MailSender</text>
<polyline fill="none" stroke="#000000" points="88.7915,-245.5 244.4565,-245.5 "/>
<text text-anchor="start" x="96.7915" y="-230.3" font-family="Helvetica,sans-Serif" font-size="14.00" fill="#000000"># receiver</text>
<polyline fill="none" stroke="#000000" points="88.7915,-223.5 244.4565,-223.5 "/>
<text text-anchor="start" x="96.7915" y="-208.3" font-family="Helvetica,sans-Serif" font-size="14.00" fill="#000000">+ receiveResponce()</text>
<text text-anchor="start" x="96.7915" y="-194.3" font-family="Helvetica,sans-Serif" font-size="14.00" fill="#000000">+ setDefaultReceiver()</text>
</a>
</g>
</g>
<!-- Node811&#45;&gt;Node809 -->
<g id="edge2" class="edge">
<title>Node811&#45;&gt;Node809</title>
<path fill="none" stroke="#191970" d="M145.1023,-177.9349C141.3148,-169.2122 137.2969,-159.9588 133.2856,-150.7207"/>
<polygon fill="none" stroke="#191970" points="141.9172,-179.3872 149.1105,-187.1659 148.338,-176.5992 141.9172,-179.3872"/>
</g>
</g>
</svg>
