<?xml version="1.0" encoding="UTF-8" standalone="no"?>
<!DOCTYPE svg PUBLIC "-//W3C//DTD SVG 1.1//EN"
 "http://www.w3.org/Graphics/SVG/1.1/DTD/svg11.dtd">
<!-- Generated by graphviz version 2.40.1 (20161225.0304)
 -->
<!-- Title: std::stringstream Pages: 1 -->
<svg width="288pt" height="632pt"
 viewBox="0.00 0.00 288.16 632.00" xmlns="http://www.w3.org/2000/svg" xmlns:xlink="http://www.w3.org/1999/xlink">
<g id="graph0" class="graph" transform="scale(1 1) rotate(0) translate(4 628)">
<title>std::stringstream</title>
<!-- Node833 -->
<g id="node1" class="node">
<title>Node833</title>
<polygon fill="#bfbfbf" stroke="#000000" points="78.6724,-.5 78.6724,-66.5 198.1479,-66.5 198.1479,-.5 78.6724,-.5"/>
<text text-anchor="middle" x="138.4102" y="-51.3" font-family="Helvetica,sans-Serif" font-size="14.00" fill="#000000">std::stringstream</text>
<polyline fill="none" stroke="#000000" points="78.6724,-44.5 198.1479,-44.5 "/>
<text text-anchor="middle" x="138.4102" y="-29.3" font-family="Helvetica,sans-Serif" font-size="14.00" fill="#000000"> </text>
<polyline fill="none" stroke="#000000" points="78.6724,-22.5 198.1479,-22.5 "/>
<text text-anchor="middle" x="138.4102" y="-7.3" font-family="Helvetica,sans-Serif" font-size="14.00" fill="#000000"> </text>
</g>
<!-- Node834 -->
<g id="node2" class="node">
<title>Node834</title>
<g id="a_node2"><a xlink:title="STL class. ">
<polygon fill="none" stroke="#bfbfbf" points="58.438,-103.5 58.438,-183.5 218.3823,-183.5 218.3823,-103.5 58.438,-103.5"/>
<text text-anchor="start" x="66.438" y="-168.3" font-family="Helvetica,sans-Serif" font-size="14.00" fill="#000000">std::basic_stringstream</text>
<text text-anchor="middle" x="138.4102" y="-154.3" font-family="Helvetica,sans-Serif" font-size="14.00" fill="#000000">&lt; char &gt;</text>
<polyline fill="none" stroke="#bfbfbf" points="58.438,-147.5 218.3823,-147.5 "/>
<text text-anchor="middle" x="138.4102" y="-132.3" font-family="Helvetica,sans-Serif" font-size="14.00" fill="#000000"> </text>
<polyline fill="none" stroke="#bfbfbf" points="58.438,-125.5 218.3823,-125.5 "/>
<text text-anchor="middle" x="138.4102" y="-110.3" font-family="Helvetica,sans-Serif" font-size="14.00" fill="#000000"> </text>
</a>
</g>
</g>
<!-- Node834&#45;&gt;Node833 -->
<g id="edge1" class="edge">
<title>Node834&#45;&gt;Node833</title>
<path fill="none" stroke="#191970" d="M138.4102,-93.4195C138.4102,-84.3987 138.4102,-75.2 138.4102,-66.8045"/>
<polygon fill="none" stroke="#191970" points="134.9103,-93.4763 138.4102,-103.4763 141.9103,-93.4763 134.9103,-93.4763"/>
</g>
<!-- Node835 -->
<g id="node3" class="node">
<title>Node835</title>
<g id="a_node3"><a xlink:title="STL class. ">
<polygon fill="none" stroke="#bfbfbf" points="70.1069,-220.5 70.1069,-300.5 206.7134,-300.5 206.7134,-220.5 70.1069,-220.5"/>
<text text-anchor="start" x="78.1069" y="-285.3" font-family="Helvetica,sans-Serif" font-size="14.00" fill="#000000">std::basic_iostream</text>
<text text-anchor="middle" x="138.4102" y="-271.3" font-family="Helvetica,sans-Serif" font-size="14.00" fill="#000000">&lt; Char &gt;</text>
<polyline fill="none" stroke="#bfbfbf" points="70.1069,-264.5 206.7134,-264.5 "/>
<text text-anchor="middle" x="138.4102" y="-249.3" font-family="Helvetica,sans-Serif" font-size="14.00" fill="#000000"> </text>
<polyline fill="none" stroke="#bfbfbf" points="70.1069,-242.5 206.7134,-242.5 "/>
<text text-anchor="middle" x="138.4102" y="-227.3" font-family="Helvetica,sans-Serif" font-size="14.00" fill="#000000"> </text>
</a>
</g>
</g>
<!-- Node835&#45;&gt;Node834 -->
<g id="edge2" class="edge">
<title>Node835&#45;&gt;Node834</title>
<path fill="none" stroke="#191970" d="M138.4102,-210.0967C138.4102,-201.3218 138.4102,-192.2991 138.4102,-183.839"/>
<polygon fill="none" stroke="#191970" points="134.9103,-210.2352 138.4102,-220.2352 141.9103,-210.2353 134.9103,-210.2352"/>
</g>
<!-- Node836 -->
<g id="node4" class="node">
<title>Node836</title>
<g id="a_node4"><a xlink:title="STL class. ">
<polygon fill="none" stroke="#bfbfbf" points="0,-337.5 0,-417.5 128.8203,-417.5 128.8203,-337.5 0,-337.5"/>
<text text-anchor="start" x="8" y="-402.3" font-family="Helvetica,sans-Serif" font-size="14.00" fill="#000000">std::basic_istream</text>
<text text-anchor="middle" x="64.4102" y="-388.3" font-family="Helvetica,sans-Serif" font-size="14.00" fill="#000000">&lt; Char &gt;</text>
<polyline fill="none" stroke="#bfbfbf" points="0,-381.5 128.8203,-381.5 "/>
<text text-anchor="middle" x="64.4102" y="-366.3" font-family="Helvetica,sans-Serif" font-size="14.00" fill="#000000"> </text>
<polyline fill="none" stroke="#bfbfbf" points="0,-359.5 128.8203,-359.5 "/>
<text text-anchor="middle" x="64.4102" y="-344.3" font-family="Helvetica,sans-Serif" font-size="14.00" fill="#000000"> </text>
</a>
</g>
</g>
<!-- Node836&#45;&gt;Node835 -->
<g id="edge3" class="edge">
<title>Node836&#45;&gt;Node835</title>
<path fill="none" stroke="#191970" d="M95.3858,-328.525C101.2178,-319.3042 107.2549,-309.7589 112.8966,-300.839"/>
<polygon fill="none" stroke="#191970" points="92.2642,-326.9129 89.8768,-337.2352 98.1802,-330.6547 92.2642,-326.9129"/>
</g>
<!-- Node837 -->
<g id="node5" class="node">
<title>Node837</title>
<g id="a_node5"><a xlink:title="STL class. ">
<polygon fill="none" stroke="#bfbfbf" points="60.7622,-454.5 60.7622,-520.5 216.0581,-520.5 216.0581,-454.5 60.7622,-454.5"/>
<text text-anchor="middle" x="138.4102" y="-505.3" font-family="Helvetica,sans-Serif" font-size="14.00" fill="#000000">std::basic_ios&lt; Char &gt;</text>
<polyline fill="none" stroke="#bfbfbf" points="60.7622,-498.5 216.0581,-498.5 "/>
<text text-anchor="middle" x="138.4102" y="-483.3" font-family="Helvetica,sans-Serif" font-size="14.00" fill="#000000"> </text>
<polyline fill="none" stroke="#bfbfbf" points="60.7622,-476.5 216.0581,-476.5 "/>
<text text-anchor="middle" x="138.4102" y="-461.3" font-family="Helvetica,sans-Serif" font-size="14.00" fill="#000000"> </text>
</a>
</g>
</g>
<!-- Node837&#45;&gt;Node836 -->
<g id="edge4" class="edge">
<title>Node837&#45;&gt;Node836</title>
<path fill="none" stroke="#191970" d="M110.611,-446.177C104.379,-436.9131 97.7751,-427.0965 91.5694,-417.8719"/>
<polygon fill="none" stroke="#191970" points="107.7219,-448.1528 116.2077,-454.4964 113.5299,-444.2455 107.7219,-448.1528"/>
</g>
<!-- Node839 -->
<g id="node7" class="node">
<title>Node839</title>
<g id="a_node7"><a xlink:title="STL class. ">
<polygon fill="none" stroke="#bfbfbf" points="146.6621,-337.5 146.6621,-417.5 280.1582,-417.5 280.1582,-337.5 146.6621,-337.5"/>
<text text-anchor="start" x="154.6621" y="-402.3" font-family="Helvetica,sans-Serif" font-size="14.00" fill="#000000">std::basic_ostream</text>
<text text-anchor="middle" x="213.4102" y="-388.3" font-family="Helvetica,sans-Serif" font-size="14.00" fill="#000000">&lt; Char &gt;</text>
<polyline fill="none" stroke="#bfbfbf" points="146.6621,-381.5 280.1582,-381.5 "/>
<text text-anchor="middle" x="213.4102" y="-366.3" font-family="Helvetica,sans-Serif" font-size="14.00" fill="#000000"> </text>
<polyline fill="none" stroke="#bfbfbf" points="146.6621,-359.5 280.1582,-359.5 "/>
<text text-anchor="middle" x="213.4102" y="-344.3" font-family="Helvetica,sans-Serif" font-size="14.00" fill="#000000"> </text>
</a>
</g>
</g>
<!-- Node837&#45;&gt;Node839 -->
<g id="edge7" class="edge">
<title>Node837&#45;&gt;Node839</title>
<path fill="none" stroke="#191970" d="M166.5849,-446.177C172.9012,-436.9131 179.5944,-427.0965 185.8839,-417.8719"/>
<polygon fill="none" stroke="#191970" points="163.6542,-444.2624 160.9126,-454.4964 169.4378,-448.2058 163.6542,-444.2624"/>
</g>
<!-- Node838 -->
<g id="node6" class="node">
<title>Node838</title>
<g id="a_node6"><a xlink:title="STL class. ">
<polygon fill="none" stroke="#bfbfbf" points="89.1621,-557.5 89.1621,-623.5 187.6582,-623.5 187.6582,-557.5 89.1621,-557.5"/>
<text text-anchor="middle" x="138.4102" y="-608.3" font-family="Helvetica,sans-Serif" font-size="14.00" fill="#000000">std::ios_base</text>
<polyline fill="none" stroke="#bfbfbf" points="89.1621,-601.5 187.6582,-601.5 "/>
<text text-anchor="middle" x="138.4102" y="-586.3" font-family="Helvetica,sans-Serif" font-size="14.00" fill="#000000"> </text>
<polyline fill="none" stroke="#bfbfbf" points="89.1621,-579.5 187.6582,-579.5 "/>
<text text-anchor="middle" x="138.4102" y="-564.3" font-family="Helvetica,sans-Serif" font-size="14.00" fill="#000000"> </text>
</a>
</g>
</g>
<!-- Node838&#45;&gt;Node837 -->
<g id="edge5" class="edge">
<title>Node838&#45;&gt;Node837</title>
<path fill="none" stroke="#191970" d="M138.4102,-547.1362C138.4102,-538.256 138.4102,-529.0447 138.4102,-520.5947"/>
<polygon fill="none" stroke="#191970" points="134.9103,-547.3432 138.4102,-557.3432 141.9103,-547.3432 134.9103,-547.3432"/>
</g>
<!-- Node839&#45;&gt;Node835 -->
<g id="edge6" class="edge">
<title>Node839&#45;&gt;Node835</title>
<path fill="none" stroke="#191970" d="M182.1987,-328.8101C176.2314,-319.5011 170.0453,-309.8509 164.2685,-300.839"/>
<polygon fill="none" stroke="#191970" points="179.2561,-330.7053 187.5994,-337.2352 185.1493,-326.9276 179.2561,-330.7053"/>
</g>
</g>
</svg>
