<?xml version="1.0" encoding="UTF-8" standalone="no"?>
<!DOCTYPE svg PUBLIC "-//W3C//DTD SVG 1.1//EN"
 "http://www.w3.org/Graphics/SVG/1.1/DTD/svg11.dtd">
<!-- Generated by graphviz version 2.40.1 (20161225.0304)
 -->
<!-- Title: IBaseGameElement::setHelth Pages: 1 -->
<svg width="909pt" height="31pt"
 viewBox="0.00 0.00 909.13 31.00" xmlns="http://www.w3.org/2000/svg" xmlns:xlink="http://www.w3.org/1999/xlink">
<g id="graph0" class="graph" transform="scale(1 1) rotate(0) translate(4 27)">
<title>IBaseGameElement::setHelth</title>
<!-- Node36 -->
<g id="node1" class="node">
<title>Node36</title>
<polygon fill="#bfbfbf" stroke="#000000" points="0,-.5 0,-22.5 200.4199,-22.5 200.4199,-.5 0,-.5"/>
<text text-anchor="middle" x="100.21" y="-7.3" font-family="Helvetica,sans-Serif" font-size="14.00" fill="#000000">IBaseGameElement::setHelth</text>
</g>
<!-- Node37 -->
<g id="node2" class="node">
<title>Node37</title>
<g id="a_node2"><a xlink:href="$d6/df5/classMapIniter.html#a8961b80aa1df5f628bd4e28e66a51d0b" xlink:title="MapIniter::getRandomGrass">
<polygon fill="none" stroke="#000000" points="236.4199,-.5 236.4199,-22.5 428.2744,-22.5 428.2744,-.5 236.4199,-.5"/>
<text text-anchor="middle" x="332.3472" y="-7.3" font-family="Helvetica,sans-Serif" font-size="14.00" fill="#000000">MapIniter::getRandomGrass</text>
</a>
</g>
</g>
<!-- Node36&#45;&gt;Node37 -->
<g id="edge1" class="edge">
<title>Node36&#45;&gt;Node37</title>
<path fill="none" stroke="#191970" d="M210.9222,-11.5C219.3453,-11.5 227.8061,-11.5 236.1266,-11.5"/>
<polygon fill="#191970" stroke="#191970" points="210.6786,-8.0001 200.6786,-11.5 210.6786,-15.0001 210.6786,-8.0001"/>
</g>
<!-- Node38 -->
<g id="node3" class="node">
<title>Node38</title>
<g id="a_node3"><a xlink:href="$d6/df5/classMapIniter.html#ae6dfbed9cc8569db78442c0bfe57e252" xlink:title="MapIniter::initSimapleMap">
<polygon fill="none" stroke="#000000" points="464.2744,-.5 464.2744,-22.5 642.1221,-22.5 642.1221,-.5 464.2744,-.5"/>
<text text-anchor="middle" x="553.1982" y="-7.3" font-family="Helvetica,sans-Serif" font-size="14.00" fill="#000000">MapIniter::initSimapleMap</text>
</a>
</g>
</g>
<!-- Node37&#45;&gt;Node38 -->
<g id="edge2" class="edge">
<title>Node37&#45;&gt;Node38</title>
<path fill="none" stroke="#191970" d="M438.6174,-11.5C447.1972,-11.5 455.8105,-11.5 464.2498,-11.5"/>
<polygon fill="#191970" stroke="#191970" points="438.5732,-8.0001 428.5732,-11.5 438.5732,-15.0001 438.5732,-8.0001"/>
</g>
<!-- Node39 -->
<g id="node4" class="node">
<title>Node39</title>
<g id="a_node4"><a xlink:href="$d2/d11/classMainGameLoop.html#a0632599cb00fa2c86ba1c71904c1f59f" xlink:title="MainGameLoop::MainGameLoop">
<polygon fill="none" stroke="#000000" points="678.1221,-.5 678.1221,-22.5 901.1279,-22.5 901.1279,-.5 678.1221,-.5"/>
<text text-anchor="middle" x="789.625" y="-7.3" font-family="Helvetica,sans-Serif" font-size="14.00" fill="#000000">MainGameLoop::MainGameLoop</text>
</a>
</g>
</g>
<!-- Node38&#45;&gt;Node39 -->
<g id="edge3" class="edge">
<title>Node38&#45;&gt;Node39</title>
<path fill="none" stroke="#191970" d="M652.436,-11.5C660.8548,-11.5 669.4055,-11.5 677.9112,-11.5"/>
<polygon fill="#191970" stroke="#191970" points="652.2442,-8.0001 642.2442,-11.5 652.2441,-15.0001 652.2442,-8.0001"/>
</g>
</g>
</svg>
