<?xml version="1.0" encoding="UTF-8" standalone="no"?>
<!DOCTYPE svg PUBLIC "-//W3C//DTD SVG 1.1//EN"
 "http://www.w3.org/Graphics/SVG/1.1/DTD/svg11.dtd">
<!-- Generated by graphviz version 2.40.1 (20161225.0304)
 -->
<!-- Title: SimpleConnection::ReceiverThread Pages: 1 -->
<!--zoomable 604 -->
<svg id="main" version="1.1" xmlns="http://www.w3.org/2000/svg" xmlns:xlink="http://www.w3.org/1999/xlink" xml:space="preserve" onload="init(evt)">
<style type="text/css"><![CDATA[
.edge:hover path { stroke: red; }
.edge:hover polygon { stroke: red; fill: red; }
]]></style>
<script type="text/javascript"><![CDATA[
var edges = document.getElementsByTagName('g');
if (edges && edges.length) {
  for (var i=0;i<edges.length;i++) {
    if (edges[i].id.substr(0,4)=='edge') {
      edges[i].setAttribute('class','edge');
    }
  }
}
]]></script>
        <defs>
                <circle id="rim" cx="0" cy="0" r="7"/>
                <circle id="rim2" cx="0" cy="0" r="3.5"/>
                <g id="zoomPlus">
                        <use xlink:href="#rim" fill="#404040">
                                <set attributeName="fill" to="#808080" begin="zoomplus.mouseover" end="zoomplus.mouseout"/>
                        </use>
                        <path d="M-4,0h8M0,-4v8" fill="none" stroke="white" stroke-width="1.5" pointer-events="none"/>
                </g>
                <g id="zoomMin">
                        <use xlink:href="#rim" fill="#404040">
                                <set attributeName="fill" to="#808080" begin="zoomminus.mouseover" end="zoomminus.mouseout"/>
                        </use>
                        <path d="M-4,0h8" fill="none" stroke="white" stroke-width="1.5" pointer-events="none"/>
                </g>
                <g id="dirArrow">
                        <path fill="none" stroke="white" stroke-width="1.5" d="M0,-3.0v7 M-2.5,-0.5L0,-3.0L2.5,-0.5"/>
                </g>
               <g id="resetDef">
                       <use xlink:href="#rim2" fill="#404040">
                               <set attributeName="fill" to="#808080" begin="reset.mouseover" end="reset.mouseout"/>
                       </use>
               </g>
        </defs>

<script type="text/javascript">
var viewWidth = 232;
var viewHeight = 604;
var sectionId = 'dynsection-1';
</script>
<script xlink:href="../../svgpan.js"/>
<svg id="graph" class="graph">
<g id="viewport">
<title>SimpleConnection::ReceiverThread</title>
<!-- Node2 -->
<g id="node1" class="node">
<title>Node2</title>
<polygon fill="#bfbfbf" stroke="#000000" points="0,-299.5 0,-491.5 192.6406,-491.5 192.6406,-299.5 0,-299.5"/>
<text text-anchor="start" x="8" y="-476.3" font-family="Helvetica,sans-Serif" font-size="14.00" fill="#000000">SimpleConnection::Receiver</text>
<text text-anchor="middle" x="96.3203" y="-462.3" font-family="Helvetica,sans-Serif" font-size="14.00" fill="#000000">Thread</text>
<polyline fill="none" stroke="#000000" points="0,-455.5 192.6406,-455.5 "/>
<text text-anchor="start" x="8" y="-440.3" font-family="Helvetica,sans-Serif" font-size="14.00" fill="#000000"># socket</text>
<text text-anchor="start" x="8" y="-426.3" font-family="Helvetica,sans-Serif" font-size="14.00" fill="#000000"># in</text>
<text text-anchor="start" x="8" y="-412.3" font-family="Helvetica,sans-Serif" font-size="14.00" fill="#000000"># isStart</text>
<text text-anchor="start" x="8" y="-398.3" font-family="Helvetica,sans-Serif" font-size="14.00" fill="#000000"># isWork</text>
<text text-anchor="start" x="8" y="-384.3" font-family="Helvetica,sans-Serif" font-size="14.00" fill="#000000"># isLoopActive</text>
<polyline fill="none" stroke="#000000" points="0,-377.5 192.6406,-377.5 "/>
<text text-anchor="start" x="8" y="-362.3" font-family="Helvetica,sans-Serif" font-size="14.00" fill="#000000">+ ReceiverThread()</text>
<text text-anchor="start" x="8" y="-348.3" font-family="Helvetica,sans-Serif" font-size="14.00" fill="#000000">+ ~ReceiverThread()</text>
<text text-anchor="start" x="8" y="-334.3" font-family="Helvetica,sans-Serif" font-size="14.00" fill="#000000">+ istThreadStart()</text>
<text text-anchor="start" x="8" y="-320.3" font-family="Helvetica,sans-Serif" font-size="14.00" fill="#000000">+ stop()</text>
<text text-anchor="start" x="8" y="-306.3" font-family="Helvetica,sans-Serif" font-size="14.00" fill="#000000"># run()</text>
</g>
<!-- Node4 -->
<g id="node3" class="node">
<title>Node4</title>
<g id="a_node3"><a xlink:href="../../d5/dcb/a00170.html" target="_top" xlink:title="{SimpleConnection\n|# isWork\l# adress\l# socket\l# out\l# mutex\l# messages\l|+ SimpleConnection()\l+ ~SimpleConnection()\l+ openConnection()\l+ sendDiff()\l+ getBulder()\l# run()\l# addMessage()\l# onSocketError()\l# onReadyRead()\l}">
<polygon fill="none" stroke="#000000" points="29.7275,-.5 29.7275,-248.5 188.9131,-248.5 188.9131,-.5 29.7275,-.5"/>
<text text-anchor="middle" x="109.3203" y="-233.3" font-family="Helvetica,sans-Serif" font-size="14.00" fill="#000000">SimpleConnection</text>
<polyline fill="none" stroke="#000000" points="29.7275,-226.5 188.9131,-226.5 "/>
<text text-anchor="start" x="37.7275" y="-211.3" font-family="Helvetica,sans-Serif" font-size="14.00" fill="#000000"># isWork</text>
<text text-anchor="start" x="37.7275" y="-197.3" font-family="Helvetica,sans-Serif" font-size="14.00" fill="#000000"># adress</text>
<text text-anchor="start" x="37.7275" y="-183.3" font-family="Helvetica,sans-Serif" font-size="14.00" fill="#000000"># socket</text>
<text text-anchor="start" x="37.7275" y="-169.3" font-family="Helvetica,sans-Serif" font-size="14.00" fill="#000000"># out</text>
<text text-anchor="start" x="37.7275" y="-155.3" font-family="Helvetica,sans-Serif" font-size="14.00" fill="#000000"># mutex</text>
<text text-anchor="start" x="37.7275" y="-141.3" font-family="Helvetica,sans-Serif" font-size="14.00" fill="#000000"># messages</text>
<polyline fill="none" stroke="#000000" points="29.7275,-134.5 188.9131,-134.5 "/>
<text text-anchor="start" x="37.7275" y="-119.3" font-family="Helvetica,sans-Serif" font-size="14.00" fill="#000000">+ SimpleConnection()</text>
<text text-anchor="start" x="37.7275" y="-105.3" font-family="Helvetica,sans-Serif" font-size="14.00" fill="#000000">+ ~SimpleConnection()</text>
<text text-anchor="start" x="37.7275" y="-91.3" font-family="Helvetica,sans-Serif" font-size="14.00" fill="#000000">+ openConnection()</text>
<text text-anchor="start" x="37.7275" y="-77.3" font-family="Helvetica,sans-Serif" font-size="14.00" fill="#000000">+ sendDiff()</text>
<text text-anchor="start" x="37.7275" y="-63.3" font-family="Helvetica,sans-Serif" font-size="14.00" fill="#000000">+ getBulder()</text>
<text text-anchor="start" x="37.7275" y="-49.3" font-family="Helvetica,sans-Serif" font-size="14.00" fill="#000000"># run()</text>
<text text-anchor="start" x="37.7275" y="-35.3" font-family="Helvetica,sans-Serif" font-size="14.00" fill="#000000"># addMessage()</text>
<text text-anchor="start" x="37.7275" y="-21.3" font-family="Helvetica,sans-Serif" font-size="14.00" fill="#000000"># onSocketError()</text>
<text text-anchor="start" x="37.7275" y="-7.3" font-family="Helvetica,sans-Serif" font-size="14.00" fill="#000000"># onReadyRead()</text>
</a>
</g>
</g>
<!-- Node2&#45;&gt;Node4 -->
<g id="edge4" class="edge">
<title>Node2&#45;&gt;Node4</title>
<path fill="none" stroke="#404040" d="M36.4637,-299.4393C34.4391,-288.7034 34.2733,-277.7574 36.8516,-267 37.3746,-264.8176 37.937,-262.6308 38.5355,-260.4422"/>
<polygon fill="none" stroke="#404040" points="38.6014,-260.2235 36.5036,-253.3243 42.0652,-248.7343 44.1631,-255.6335 38.6014,-260.2235"/>
<text text-anchor="middle" x="68.0547" y="-269.8" font-family="Helvetica,sans-Serif" font-size="14.00" fill="#000000"> #receiver</text>
</g>
<!-- Node3 -->
<g id="node2" class="node">
<title>Node3</title>
<polygon fill="none" stroke="#bfbfbf" points="122.6963,-529.5 122.6963,-595.5 193.9443,-595.5 193.9443,-529.5 122.6963,-529.5"/>
<text text-anchor="middle" x="158.3203" y="-580.3" font-family="Helvetica,sans-Serif" font-size="14.00" fill="#000000">QThread</text>
<polyline fill="none" stroke="#bfbfbf" points="122.6963,-573.5 193.9443,-573.5 "/>
<text text-anchor="middle" x="158.3203" y="-558.3" font-family="Helvetica,sans-Serif" font-size="14.00" fill="#000000"> </text>
<polyline fill="none" stroke="#bfbfbf" points="122.6963,-551.5 193.9443,-551.5 "/>
<text text-anchor="middle" x="158.3203" y="-536.3" font-family="Helvetica,sans-Serif" font-size="14.00" fill="#000000"> </text>
</g>
<!-- Node3&#45;&gt;Node2 -->
<g id="edge1" class="edge">
<title>Node3&#45;&gt;Node2</title>
<path fill="none" stroke="#191970" d="M142.4163,-519.6617C139.1927,-510.9787 135.6809,-501.5198 132.0815,-491.8245"/>
<polygon fill="none" stroke="#191970" points="139.161,-520.9498 145.9227,-529.1064 145.7234,-518.5135 139.161,-520.9498"/>
</g>
<!-- Node3&#45;&gt;Node4 -->
<g id="edge3" class="edge">
<title>Node3&#45;&gt;Node4</title>
<path fill="none" stroke="#191970" d="M188.7928,-520.6884C193.935,-511.6363 198.5113,-501.821 201.3203,-492 228.8208,-395.8516 232.0665,-362.7833 203.3203,-267 199.7422,-255.0777 194.808,-243.2318 189.059,-231.7581"/>
<polygon fill="none" stroke="#191970" points="185.6716,-519.0867 183.5064,-529.4579 191.6666,-522.7005 185.6716,-519.0867"/>
</g>
<!-- Node4&#45;&gt;Node2 -->
<g id="edge2" class="edge">
<title>Node4&#45;&gt;Node2</title>
<path fill="none" stroke="#404040" d="M103.3511,-248.936C102.744,-261.5914 102.1307,-274.3763 101.5325,-286.8453"/>
<polygon fill="none" stroke="#404040" points="101.5153,-287.2063 105.2232,-293.3911 100.9402,-299.1925 97.2324,-293.0077 101.5153,-287.2063"/>
<text text-anchor="middle" x="151.1855" y="-269.8" font-family="Helvetica,sans-Serif" font-size="14.00" fill="#000000"> #parentThread</text>
</g>
</g>
</svg>
        <g id="navigator" transform="translate(0 0)" fill="#404254">
                <rect fill="#f2f5e9" fill-opacity="0.5" stroke="#606060" stroke-width=".5" x="0" y="0" width="60" height="60"/>
                <use id="zoomplus" xlink:href="#zoomPlus" x="17" y="9" onmousedown="handleZoom(evt,'in')"/>
                <use id="zoomminus" xlink:href="#zoomMin" x="42" y="9" onmousedown="handleZoom(evt,'out')"/>
                <use id="reset" xlink:href="#resetDef" x="30" y="36" onmousedown="handleReset()"/>
                <g id="arrowUp" xlink:href="#dirArrow" transform="translate(30 24)" onmousedown="handlePan(0,-1)">
                  <use xlink:href="#rim" fill="#404040">
                        <set attributeName="fill" to="#808080" begin="arrowUp.mouseover" end="arrowUp.mouseout"/>
                  </use>
                  <path fill="none" stroke="white" stroke-width="1.5" d="M0,-3.0v7 M-2.5,-0.5L0,-3.0L2.5,-0.5"/>
                </g>
                <g id="arrowRight" xlink:href="#dirArrow" transform="rotate(90) translate(36 -43)" onmousedown="handlePan(1,0)">
                  <use xlink:href="#rim" fill="#404040">
                        <set attributeName="fill" to="#808080" begin="arrowRight.mouseover" end="arrowRight.mouseout"/>
                  </use>
                  <path fill="none" stroke="white" stroke-width="1.5" d="M0,-3.0v7 M-2.5,-0.5L0,-3.0L2.5,-0.5"/>
                </g>
                <g id="arrowDown" xlink:href="#dirArrow" transform="rotate(180) translate(-30 -48)" onmousedown="handlePan(0,1)">
                  <use xlink:href="#rim" fill="#404040">
                        <set attributeName="fill" to="#808080" begin="arrowDown.mouseover" end="arrowDown.mouseout"/>
                  </use>
                  <path fill="none" stroke="white" stroke-width="1.5" d="M0,-3.0v7 M-2.5,-0.5L0,-3.0L2.5,-0.5"/>
                </g>
                <g id="arrowLeft" xlink:href="#dirArrow" transform="rotate(270) translate(-36 17)" onmousedown="handlePan(-1,0)">
                  <use xlink:href="#rim" fill="#404040">
                        <set attributeName="fill" to="#808080" begin="arrowLeft.mouseover" end="arrowLeft.mouseout"/>
                  </use>
                  <path fill="none" stroke="white" stroke-width="1.5" d="M0,-3.0v7 M-2.5,-0.5L0,-3.0L2.5,-0.5"/>
                </g>
        </g>
        <svg viewBox="0 0 15 15" width="100%" height="30px" preserveAspectRatio="xMaxYMin meet">
         <g id="arrow_out" transform="scale(0.3 0.3)">
          <a xlink:href="a00176_org.svg" target="_base">
           <rect id="button" ry="5" rx="5" y="6" x="6" height="38" width="38"
                fill="#f2f5e9" fill-opacity="0.5" stroke="#606060" stroke-width="1.0"/>
           <path id="arrow"
             d="M 11.500037,31.436501 C 11.940474,20.09759 22.043105,11.32322 32.158766,21.979434 L 37.068811,17.246167 C 37.068811,17.246167 37.088388,32 37.088388,32 L 22.160133,31.978069 C 22.160133,31.978069 26.997745,27.140456 26.997745,27.140456 C 18.528582,18.264221 13.291696,25.230495 11.500037,31.436501 z"
             style="fill:#404040;"/>
          </a>
         </g>
        </svg>
</svg>
