<?xml version="1.0" encoding="UTF-8" standalone="no"?>
<!DOCTYPE svg PUBLIC "-//W3C//DTD SVG 1.1//EN"
 "http://www.w3.org/Graphics/SVG/1.1/DTD/svg11.dtd">
<!-- Generated by graphviz version 2.40.1 (20161225.0304)
 -->
<!-- Title: IBaseGameElement::setType Pages: 1 -->
<svg width="907pt" height="31pt"
 viewBox="0.00 0.00 906.80 31.00" xmlns="http://www.w3.org/2000/svg" xmlns:xlink="http://www.w3.org/1999/xlink">
<g id="graph0" class="graph" transform="scale(1 1) rotate(0) translate(4 27)">
<title>IBaseGameElement::setType</title>
<!-- Node46 -->
<g id="node1" class="node">
<title>Node46</title>
<polygon fill="#bfbfbf" stroke="#000000" points="0,-.5 0,-22.5 198.0957,-22.5 198.0957,-.5 0,-.5"/>
<text text-anchor="middle" x="99.0479" y="-7.3" font-family="Helvetica,sans-Serif" font-size="14.00" fill="#000000">IBaseGameElement::setType</text>
</g>
<!-- Node47 -->
<g id="node2" class="node">
<title>Node47</title>
<g id="a_node2"><a xlink:href="../../df/d5f/a00762.html#a8961b80aa1df5f628bd4e28e66a51d0b" target="_top" xlink:title="MapIniter::getRandomGrass">
<polygon fill="none" stroke="#000000" points="234.0957,-.5 234.0957,-22.5 425.9502,-22.5 425.9502,-.5 234.0957,-.5"/>
<text text-anchor="middle" x="330.0229" y="-7.3" font-family="Helvetica,sans-Serif" font-size="14.00" fill="#000000">MapIniter::getRandomGrass</text>
</a>
</g>
</g>
<!-- Node46&#45;&gt;Node47 -->
<g id="edge1" class="edge">
<title>Node46&#45;&gt;Node47</title>
<path fill="none" stroke="#191970" d="M208.5666,-11.5C216.9755,-11.5 225.4267,-11.5 233.7412,-11.5"/>
<polygon fill="#191970" stroke="#191970" points="208.3426,-8.0001 198.3425,-11.5 208.3425,-15.0001 208.3426,-8.0001"/>
</g>
<!-- Node48 -->
<g id="node3" class="node">
<title>Node48</title>
<g id="a_node3"><a xlink:href="../../df/d5f/a00762.html#ae6dfbed9cc8569db78442c0bfe57e252" target="_top" xlink:title="MapIniter::initSimapleMap">
<polygon fill="none" stroke="#000000" points="461.9502,-.5 461.9502,-22.5 639.7979,-22.5 639.7979,-.5 461.9502,-.5"/>
<text text-anchor="middle" x="550.874" y="-7.3" font-family="Helvetica,sans-Serif" font-size="14.00" fill="#000000">MapIniter::initSimapleMap</text>
</a>
</g>
</g>
<!-- Node47&#45;&gt;Node48 -->
<g id="edge2" class="edge">
<title>Node47&#45;&gt;Node48</title>
<path fill="none" stroke="#191970" d="M436.2931,-11.5C444.873,-11.5 453.4863,-11.5 461.9256,-11.5"/>
<polygon fill="#191970" stroke="#191970" points="436.249,-8.0001 426.249,-11.5 436.249,-15.0001 436.249,-8.0001"/>
</g>
<!-- Node49 -->
<g id="node4" class="node">
<title>Node49</title>
<g id="a_node4"><a xlink:href="../../d8/d4e/a00754.html#a0632599cb00fa2c86ba1c71904c1f59f" target="_top" xlink:title="MainGameLoop::MainGameLoop">
<polygon fill="none" stroke="#000000" points="675.7979,-.5 675.7979,-22.5 898.8037,-22.5 898.8037,-.5 675.7979,-.5"/>
<text text-anchor="middle" x="787.3008" y="-7.3" font-family="Helvetica,sans-Serif" font-size="14.00" fill="#000000">MainGameLoop::MainGameLoop</text>
</a>
</g>
</g>
<!-- Node48&#45;&gt;Node49 -->
<g id="edge3" class="edge">
<title>Node48&#45;&gt;Node49</title>
<path fill="none" stroke="#191970" d="M650.1118,-11.5C658.5306,-11.5 667.0813,-11.5 675.5869,-11.5"/>
<polygon fill="#191970" stroke="#191970" points="649.92,-8.0001 639.9199,-11.5 649.9199,-15.0001 649.92,-8.0001"/>
</g>
</g>
</svg>
