<?xml version="1.0" encoding="UTF-8" standalone="no"?>
<!DOCTYPE svg PUBLIC "-//W3C//DTD SVG 1.1//EN"
 "http://www.w3.org/Graphics/SVG/1.1/DTD/svg11.dtd">
<!-- Generated by graphviz version 2.40.1 (20161225.0304)
 -->
<!-- Title: Server/serverworker.h Pages: 1 -->
<!--zoomable 326 -->
<svg id="main" version="1.1" xmlns="http://www.w3.org/2000/svg" xmlns:xlink="http://www.w3.org/1999/xlink" xml:space="preserve" onload="init(evt)">
<style type="text/css"><![CDATA[
.edge:hover path { stroke: red; }
.edge:hover polygon { stroke: red; fill: red; }
]]></style>
<script type="text/javascript"><![CDATA[
var edges = document.getElementsByTagName('g');
if (edges && edges.length) {
  for (var i=0;i<edges.length;i++) {
    if (edges[i].id.substr(0,4)=='edge') {
      edges[i].setAttribute('class','edge');
    }
  }
}
]]></script>
        <defs>
                <circle id="rim" cx="0" cy="0" r="7"/>
                <circle id="rim2" cx="0" cy="0" r="3.5"/>
                <g id="zoomPlus">
                        <use xlink:href="#rim" fill="#404040">
                                <set attributeName="fill" to="#808080" begin="zoomplus.mouseover" end="zoomplus.mouseout"/>
                        </use>
                        <path d="M-4,0h8M0,-4v8" fill="none" stroke="white" stroke-width="1.5" pointer-events="none"/>
                </g>
                <g id="zoomMin">
                        <use xlink:href="#rim" fill="#404040">
                                <set attributeName="fill" to="#808080" begin="zoomminus.mouseover" end="zoomminus.mouseout"/>
                        </use>
                        <path d="M-4,0h8" fill="none" stroke="white" stroke-width="1.5" pointer-events="none"/>
                </g>
                <g id="dirArrow">
                        <path fill="none" stroke="white" stroke-width="1.5" d="M0,-3.0v7 M-2.5,-0.5L0,-3.0L2.5,-0.5"/>
                </g>
               <g id="resetDef">
                       <use xlink:href="#rim2" fill="#404040">
                               <set attributeName="fill" to="#808080" begin="reset.mouseover" end="reset.mouseout"/>
                       </use>
               </g>
        </defs>

<script type="text/javascript">
var viewWidth = 959;
var viewHeight = 326;
var sectionId = 'dynsection-0';
</script>
<script xlink:href="../../svgpan.js"/>
<svg id="graph" class="graph">
<g id="viewport">
<title>Server/serverworker.h</title>
<!-- Node0 -->
<g id="node1" class="node">
<title>Node0</title>
<polygon fill="#bfbfbf" stroke="#000000" points="206.269,-295.5 206.269,-317.5 359.2065,-317.5 359.2065,-295.5 206.269,-295.5"/>
<text text-anchor="middle" x="282.7378" y="-302.3" font-family="Helvetica,sans-Serif" font-size="14.00" fill="#000000">Server/serverworker.h</text>
</g>
<!-- Node1 -->
<g id="node2" class="node">
<title>Node1</title>
<polygon fill="none" stroke="#bfbfbf" points="0,-118.5 0,-140.5 91.4756,-140.5 91.4756,-118.5 0,-118.5"/>
<text text-anchor="middle" x="45.7378" y="-125.3" font-family="Helvetica,sans-Serif" font-size="14.00" fill="#000000">QTcpSocket</text>
</g>
<!-- Node0&#45;&gt;Node1 -->
<g id="edge1" class="edge">
<title>Node0&#45;&gt;Node1</title>
<path fill="none" stroke="#191970" d="M255.115,-295.3339C235.2864,-286.7337 208.3599,-273.8303 186.7378,-259 137.5552,-225.2663 88.0462,-175.1991 62.8318,-148.2689"/>
<polygon fill="#191970" stroke="#191970" points="65.1789,-145.6524 55.8139,-140.6978 60.0451,-150.4111 65.1789,-145.6524"/>
</g>
<!-- Node2 -->
<g id="node3" class="node">
<title>Node2</title>
<polygon fill="none" stroke="#bfbfbf" points="109.1138,-118.5 109.1138,-140.5 180.3618,-140.5 180.3618,-118.5 109.1138,-118.5"/>
<text text-anchor="middle" x="144.7378" y="-125.3" font-family="Helvetica,sans-Serif" font-size="14.00" fill="#000000">QThread</text>
</g>
<!-- Node0&#45;&gt;Node2 -->
<g id="edge2" class="edge">
<title>Node0&#45;&gt;Node2</title>
<path fill="none" stroke="#191970" d="M263.9568,-295.3183C237.0082,-278.2614 187.7586,-243.1317 161.7378,-200 152.6681,-184.9662 148.4351,-165.3912 146.4606,-150.6837"/>
<polygon fill="#191970" stroke="#191970" points="149.9177,-150.1002 145.3482,-140.5414 142.9594,-150.8634 149.9177,-150.1002"/>
</g>
<!-- Node3 -->
<g id="node4" class="node">
<title>Node3</title>
<polygon fill="none" stroke="#bfbfbf" points="322.9448,-.5 322.9448,-22.5 424.5308,-22.5 424.5308,-.5 322.9448,-.5"/>
<text text-anchor="middle" x="373.7378" y="-7.3" font-family="Helvetica,sans-Serif" font-size="14.00" fill="#000000">QDataStream</text>
</g>
<!-- Node0&#45;&gt;Node3 -->
<g id="edge3" class="edge">
<title>Node0&#45;&gt;Node3</title>
<path fill="none" stroke="#191970" d="M359.2512,-300.891C534.4505,-287.0227 949.7378,-247.8864 949.7378,-188.5 949.7378,-188.5 949.7378,-188.5 949.7378,-129.5 949.7378,-97.0487 955.6349,-79.814 930.7378,-59 893.3646,-27.756 572.0247,-16.3034 435.1099,-12.8159"/>
<polygon fill="#191970" stroke="#191970" points="434.8769,-9.3092 424.793,-12.5594 434.7029,-16.307 434.8769,-9.3092"/>
</g>
<!-- Node4 -->
<g id="node5" class="node">
<title>Node4</title>
<g id="a_node5"><a xlink:href="../../d2/d35/mailboxelement_8h.html" target="_top" xlink:title="connection/mailboxelement.h">
<polygon fill="none" stroke="#000000" points="325.0728,-236.5 325.0728,-258.5 522.4028,-258.5 522.4028,-236.5 325.0728,-236.5"/>
<text text-anchor="middle" x="423.7378" y="-243.3" font-family="Helvetica,sans-Serif" font-size="14.00" fill="#000000">connection/mailboxelement.h</text>
</a>
</g>
</g>
<!-- Node0&#45;&gt;Node4 -->
<g id="edge4" class="edge">
<title>Node0&#45;&gt;Node4</title>
<path fill="none" stroke="#191970" d="M309.2588,-295.4026C331.5133,-286.0904 363.5023,-272.7049 388.0112,-262.4494"/>
<polygon fill="#191970" stroke="#191970" points="389.4618,-265.6366 397.3357,-258.5477 386.7597,-259.1791 389.4618,-265.6366"/>
</g>
<!-- Node5 -->
<g id="node6" class="node">
<title>Node5</title>
<g id="a_node6"><a xlink:href="../../d1/d70/simpleconnection_8h.html" target="_top" xlink:title="simpleconnection.h">
<polygon fill="none" stroke="#000000" points="170.814,-177.5 170.814,-199.5 306.6616,-199.5 306.6616,-177.5 170.814,-177.5"/>
<text text-anchor="middle" x="238.7378" y="-184.3" font-family="Helvetica,sans-Serif" font-size="14.00" fill="#000000">simpleconnection.h</text>
</a>
</g>
</g>
<!-- Node4&#45;&gt;Node5 -->
<g id="edge5" class="edge">
<title>Node4&#45;&gt;Node5</title>
<path fill="none" stroke="#191970" d="M388.9407,-236.4026C358.9664,-226.8432 315.5326,-212.9913 283.0731,-202.6394"/>
<polygon fill="#191970" stroke="#191970" points="283.9695,-199.2516 273.3788,-199.5477 281.8426,-205.9207 283.9695,-199.2516"/>
</g>
<!-- Node8 -->
<g id="node9" class="node">
<title>Node8</title>
<polygon fill="none" stroke="#bfbfbf" points="626.2759,-118.5 626.2759,-140.5 695.1997,-140.5 695.1997,-118.5 626.2759,-118.5"/>
<text text-anchor="middle" x="660.7378" y="-125.3" font-family="Helvetica,sans-Serif" font-size="14.00" fill="#000000">QQueue</text>
</g>
<!-- Node4&#45;&gt;Node8 -->
<g id="edge25" class="edge">
<title>Node4&#45;&gt;Node8</title>
<path fill="none" stroke="#191970" d="M498.7678,-236.4897C547.3527,-228.1119 605.0977,-215.4124 624.7378,-200 640.4617,-187.6608 649.9388,-166.5875 655.192,-150.6867"/>
<polygon fill="#191970" stroke="#191970" points="658.6736,-151.2589 658.1788,-140.6756 651.9658,-149.2576 658.6736,-151.2589"/>
</g>
<!-- Node9 -->
<g id="node10" class="node">
<title>Node9</title>
<g id="a_node10"><a xlink:href="../../d0/d4c/ibasegameelement_8h.html" target="_top" xlink:title="ibasegameelement.h">
<polygon fill="none" stroke="#000000" points="460.752,-118.5 460.752,-140.5 606.7236,-140.5 606.7236,-118.5 460.752,-118.5"/>
<text text-anchor="middle" x="533.7378" y="-125.3" font-family="Helvetica,sans-Serif" font-size="14.00" fill="#000000">ibasegameelement.h</text>
</a>
</g>
</g>
<!-- Node4&#45;&gt;Node9 -->
<g id="edge22" class="edge">
<title>Node4&#45;&gt;Node9</title>
<path fill="none" stroke="#191970" d="M505.7268,-236.4613C548.9374,-228.7829 595.6543,-216.8672 608.7378,-200 625.0999,-178.9061 596.827,-158.4238 570.4402,-145.0222"/>
<polygon fill="#191970" stroke="#191970" points="571.7886,-141.7866 561.2618,-140.5878 568.7434,-148.0896 571.7886,-141.7866"/>
</g>
<!-- Node16 -->
<g id="node17" class="node">
<title>Node16</title>
<polygon fill="none" stroke="#bfbfbf" points="324.3999,-177.5 324.3999,-199.5 373.0757,-199.5 373.0757,-177.5 324.3999,-177.5"/>
<text text-anchor="middle" x="348.7378" y="-184.3" font-family="Helvetica,sans-Serif" font-size="14.00" fill="#000000">QList</text>
</g>
<!-- Node4&#45;&gt;Node16 -->
<g id="edge23" class="edge">
<title>Node4&#45;&gt;Node16</title>
<path fill="none" stroke="#191970" d="M409.6309,-236.4026C398.7362,-227.8321 383.4555,-215.8113 370.9273,-205.9558"/>
<polygon fill="#191970" stroke="#191970" points="372.805,-202.9797 362.7815,-199.5477 368.477,-208.4814 372.805,-202.9797"/>
</g>
<!-- Node17 -->
<g id="node18" class="node">
<title>Node17</title>
<polygon fill="none" stroke="#bfbfbf" points="391.231,-177.5 391.231,-199.5 456.2446,-199.5 456.2446,-177.5 391.231,-177.5"/>
<text text-anchor="middle" x="423.7378" y="-184.3" font-family="Helvetica,sans-Serif" font-size="14.00" fill="#000000">QMutex</text>
</g>
<!-- Node4&#45;&gt;Node17 -->
<g id="edge24" class="edge">
<title>Node4&#45;&gt;Node17</title>
<path fill="none" stroke="#191970" d="M423.7378,-236.4026C423.7378,-228.9034 423.7378,-218.7626 423.7378,-209.7421"/>
<polygon fill="#191970" stroke="#191970" points="427.2379,-209.5477 423.7378,-199.5477 420.2379,-209.5477 427.2379,-209.5477"/>
</g>
<!-- Node18 -->
<g id="node19" class="node">
<title>Node18</title>
<polygon fill="none" stroke="#bfbfbf" points="473.8726,-177.5 473.8726,-199.5 599.603,-199.5 599.603,-177.5 473.8726,-177.5"/>
<text text-anchor="middle" x="536.7378" y="-184.3" font-family="Helvetica,sans-Serif" font-size="14.00" fill="#000000">qtconcurrentrun.h</text>
</g>
<!-- Node4&#45;&gt;Node18 -->
<g id="edge26" class="edge">
<title>Node4&#45;&gt;Node18</title>
<path fill="none" stroke="#191970" d="M444.9922,-236.4026C462.3538,-227.3376 487.1082,-214.4128 506.529,-204.2727"/>
<polygon fill="#191970" stroke="#191970" points="508.3341,-207.2786 515.5787,-199.5477 505.0943,-201.0735 508.3341,-207.2786"/>
</g>
<!-- Node5&#45;&gt;Node1 -->
<g id="edge10" class="edge">
<title>Node5&#45;&gt;Node1</title>
<path fill="none" stroke="#191970" d="M202.436,-177.4026C171.0307,-167.802 125.4626,-153.8718 91.5531,-143.5057"/>
<polygon fill="#191970" stroke="#191970" points="92.4632,-140.1241 81.8768,-140.5477 90.4167,-146.8183 92.4632,-140.1241"/>
</g>
<!-- Node5&#45;&gt;Node2 -->
<g id="edge8" class="edge">
<title>Node5&#45;&gt;Node2</title>
<path fill="none" stroke="#191970" d="M221.0571,-177.4026C207.0086,-168.5849 187.1412,-156.1149 171.1987,-146.1084"/>
<polygon fill="#191970" stroke="#191970" points="172.6697,-142.8995 162.3392,-140.5477 168.9484,-148.8284 172.6697,-142.8995"/>
</g>
<!-- Node5&#45;&gt;Node3 -->
<g id="edge11" class="edge">
<title>Node5&#45;&gt;Node3</title>
<path fill="none" stroke="#191970" d="M233.257,-177.1367C222.4222,-152.8475 201.4849,-95.1486 227.7378,-59 238.2251,-44.5596 277.6894,-32.2294 312.9461,-23.753"/>
<polygon fill="#191970" stroke="#191970" points="313.8077,-27.1461 322.7511,-21.4658 312.2175,-20.3291 313.8077,-27.1461"/>
</g>
<!-- Node6 -->
<g id="node7" class="node">
<title>Node6</title>
<polygon fill="none" stroke="#bfbfbf" points="237.2207,-118.5 237.2207,-140.5 344.2549,-140.5 344.2549,-118.5 237.2207,-118.5"/>
<text text-anchor="middle" x="290.7378" y="-125.3" font-family="Helvetica,sans-Serif" font-size="14.00" fill="#000000">QHostAddress</text>
</g>
<!-- Node5&#45;&gt;Node6 -->
<g id="edge6" class="edge">
<title>Node5&#45;&gt;Node6</title>
<path fill="none" stroke="#191970" d="M248.5186,-177.4026C255.7817,-169.1617 265.8564,-157.7309 274.3426,-148.1022"/>
<polygon fill="#191970" stroke="#191970" points="277.0145,-150.364 281.0008,-140.5477 271.7631,-145.7356 277.0145,-150.364"/>
</g>
<!-- Node7 -->
<g id="node8" class="node">
<title>Node7</title>
<polygon fill="none" stroke="#bfbfbf" points="237.062,-59.5 237.062,-81.5 304.4136,-81.5 304.4136,-59.5 237.062,-59.5"/>
<text text-anchor="middle" x="270.7378" y="-66.3" font-family="Helvetica,sans-Serif" font-size="14.00" fill="#000000">QObject</text>
</g>
<!-- Node5&#45;&gt;Node7 -->
<g id="edge7" class="edge">
<title>Node5&#45;&gt;Node7</title>
<path fill="none" stroke="#191970" d="M300.2171,-177.4954C320.7427,-170.5747 341.4876,-159.314 353.7378,-141 369.1316,-117.9865 339.7521,-98.2322 311.787,-85.5392"/>
<polygon fill="#191970" stroke="#191970" points="312.9934,-82.2481 302.4242,-81.5108 310.2268,-88.6782 312.9934,-82.2481"/>
</g>
<!-- Node5&#45;&gt;Node8 -->
<g id="edge9" class="edge">
<title>Node5&#45;&gt;Node8</title>
<path fill="none" stroke="#191970" d="M306.7428,-178.2348C309.7816,-177.8103 312.7908,-177.3968 315.7378,-177 448.8267,-159.08 483.7348,-165.6777 615.7378,-141 615.8418,-140.9806 615.946,-140.961 616.0502,-140.9413"/>
<polygon fill="#191970" stroke="#191970" points="616.8823,-144.3431 625.953,-138.8683 615.448,-137.4916 616.8823,-144.3431"/>
</g>
<!-- Node5&#45;&gt;Node9 -->
<g id="edge12" class="edge">
<title>Node5&#45;&gt;Node9</title>
<path fill="none" stroke="#191970" d="M293.879,-177.4718C343.386,-167.5703 416.1209,-153.0234 468.504,-142.5468"/>
<polygon fill="#191970" stroke="#191970" points="469.2475,-145.9675 478.3669,-140.5742 467.8746,-139.1034 469.2475,-145.9675"/>
</g>
<!-- Node9&#45;&gt;Node3 -->
<g id="edge18" class="edge">
<title>Node9&#45;&gt;Node3</title>
<path fill="none" stroke="#191970" d="M460.6957,-119.6419C416.2018,-111.9709 365.363,-99.6376 351.7378,-82 340.3133,-67.2112 349.0287,-46.4099 358.6545,-31.236"/>
<polygon fill="#191970" stroke="#191970" points="361.8002,-32.8394 364.5936,-22.6194 356.0366,-28.8668 361.8002,-32.8394"/>
</g>
<!-- Node9&#45;&gt;Node7 -->
<g id="edge13" class="edge">
<title>Node9&#45;&gt;Node7</title>
<path fill="none" stroke="#191970" d="M482.4201,-118.4299C438.826,-108.9618 374.6156,-94.8652 318.7378,-82 317.3025,-81.6695 315.8436,-81.3316 314.3707,-80.9887"/>
<polygon fill="#191970" stroke="#191970" points="315.0845,-77.5612 304.5489,-78.68 313.4827,-84.3755 315.0845,-77.5612"/>
</g>
<!-- Node10 -->
<g id="node11" class="node">
<title>Node10</title>
<g id="a_node11"><a xlink:href="../../d5/df2/infinitydouble_8h.html" target="_top" xlink:title="infinitydouble.h">
<polygon fill="none" stroke="#000000" points="361.0381,-59.5 361.0381,-81.5 470.4375,-81.5 470.4375,-59.5 361.0381,-59.5"/>
<text text-anchor="middle" x="415.7378" y="-66.3" font-family="Helvetica,sans-Serif" font-size="14.00" fill="#000000">infinitydouble.h</text>
</a>
</g>
</g>
<!-- Node9&#45;&gt;Node10 -->
<g id="edge14" class="edge">
<title>Node9&#45;&gt;Node10</title>
<path fill="none" stroke="#191970" d="M511.5429,-118.4026C493.3307,-109.2964 467.3282,-96.2952 447.007,-86.1346"/>
<polygon fill="#191970" stroke="#191970" points="448.3427,-82.8894 437.8332,-81.5477 445.2122,-89.1504 448.3427,-82.8894"/>
</g>
<!-- Node11 -->
<g id="node12" class="node">
<title>Node11</title>
<polygon fill="none" stroke="#bfbfbf" points="854.062,-59.5 854.062,-81.5 921.4136,-81.5 921.4136,-59.5 854.062,-59.5"/>
<text text-anchor="middle" x="887.7378" y="-66.3" font-family="Helvetica,sans-Serif" font-size="14.00" fill="#000000">QPointF</text>
</g>
<!-- Node9&#45;&gt;Node11 -->
<g id="edge16" class="edge">
<title>Node9&#45;&gt;Node11</title>
<path fill="none" stroke="#191970" d="M606.9732,-119.2624C679.6626,-108.9415 787.1224,-93.2152 844.0073,-81.9429"/>
<polygon fill="#191970" stroke="#191970" points="844.9262,-85.3274 854.0207,-79.8922 843.5218,-78.4697 844.9262,-85.3274"/>
</g>
<!-- Node12 -->
<g id="node13" class="node">
<title>Node12</title>
<polygon fill="none" stroke="#bfbfbf" points="488.562,-59.5 488.562,-81.5 576.9136,-81.5 576.9136,-59.5 488.562,-59.5"/>
<text text-anchor="middle" x="532.7378" y="-66.3" font-family="Helvetica,sans-Serif" font-size="14.00" fill="#000000">QByteArray</text>
</g>
<!-- Node9&#45;&gt;Node12 -->
<g id="edge17" class="edge">
<title>Node9&#45;&gt;Node12</title>
<path fill="none" stroke="#191970" d="M533.5497,-118.4026C533.4226,-110.9034 533.2507,-100.7626 533.0978,-91.7421"/>
<polygon fill="#191970" stroke="#191970" points="536.5941,-91.4869 532.925,-81.5477 529.5951,-91.6056 536.5941,-91.4869"/>
</g>
<!-- Node13 -->
<g id="node14" class="node">
<title>Node13</title>
<polygon fill="none" stroke="#bfbfbf" points="595.0068,-59.5 595.0068,-81.5 658.4688,-81.5 658.4688,-59.5 595.0068,-59.5"/>
<text text-anchor="middle" x="626.7378" y="-66.3" font-family="Helvetica,sans-Serif" font-size="14.00" fill="#000000">QString</text>
</g>
<!-- Node9&#45;&gt;Node13 -->
<g id="edge19" class="edge">
<title>Node9&#45;&gt;Node13</title>
<path fill="none" stroke="#191970" d="M551.2304,-118.4026C565.1295,-109.5849 584.7855,-97.1149 600.5584,-87.1084"/>
<polygon fill="#191970" stroke="#191970" points="602.7545,-89.8602 609.3236,-81.5477 599.0046,-83.9493 602.7545,-89.8602"/>
</g>
<!-- Node14 -->
<g id="node15" class="node">
<title>Node14</title>
<polygon fill="none" stroke="#bfbfbf" points="675.9941,-59.5 675.9941,-81.5 733.4814,-81.5 733.4814,-59.5 675.9941,-59.5"/>
<text text-anchor="middle" x="704.7378" y="-66.3" font-family="Helvetica,sans-Serif" font-size="14.00" fill="#000000">QTime</text>
</g>
<!-- Node9&#45;&gt;Node14 -->
<g id="edge20" class="edge">
<title>Node9&#45;&gt;Node14</title>
<path fill="none" stroke="#191970" d="M565.9016,-118.4026C594.3248,-108.5957 635.8416,-94.2712 666.0671,-83.8425"/>
<polygon fill="#191970" stroke="#191970" points="667.5378,-87.0376 675.8494,-80.4673 665.2546,-80.4204 667.5378,-87.0376"/>
</g>
<!-- Node15 -->
<g id="node16" class="node">
<title>Node15</title>
<polygon fill="none" stroke="#bfbfbf" points="751.4966,-59.5 751.4966,-81.5 835.979,-81.5 835.979,-59.5 751.4966,-59.5"/>
<text text-anchor="middle" x="793.7378" y="-66.3" font-family="Helvetica,sans-Serif" font-size="14.00" fill="#000000">QVector3D</text>
</g>
<!-- Node9&#45;&gt;Node15 -->
<g id="edge21" class="edge">
<title>Node9&#45;&gt;Node15</title>
<path fill="none" stroke="#191970" d="M582.3368,-118.4718C627.6613,-108.1866 695.0754,-92.8888 741.5287,-82.3475"/>
<polygon fill="#191970" stroke="#191970" points="742.4212,-85.734 751.3987,-80.1077 740.872,-78.9075 742.4212,-85.734"/>
</g>
<!-- Node10&#45;&gt;Node3 -->
<g id="edge15" class="edge">
<title>Node10&#45;&gt;Node3</title>
<path fill="none" stroke="#191970" d="M407.8379,-59.4026C402.1475,-51.4089 394.3205,-40.4138 387.6003,-30.9736"/>
<polygon fill="#191970" stroke="#191970" points="390.2529,-28.6646 381.6022,-22.5477 384.5503,-32.7241 390.2529,-28.6646"/>
</g>
</g>
</svg>
        <g id="navigator" transform="translate(0 0)" fill="#404254">
                <rect fill="#f2f5e9" fill-opacity="0.5" stroke="#606060" stroke-width=".5" x="0" y="0" width="60" height="60"/>
                <use id="zoomplus" xlink:href="#zoomPlus" x="17" y="9" onmousedown="handleZoom(evt,'in')"/>
                <use id="zoomminus" xlink:href="#zoomMin" x="42" y="9" onmousedown="handleZoom(evt,'out')"/>
                <use id="reset" xlink:href="#resetDef" x="30" y="36" onmousedown="handleReset()"/>
                <g id="arrowUp" xlink:href="#dirArrow" transform="translate(30 24)" onmousedown="handlePan(0,-1)">
                  <use xlink:href="#rim" fill="#404040">
                        <set attributeName="fill" to="#808080" begin="arrowUp.mouseover" end="arrowUp.mouseout"/>
                  </use>
                  <path fill="none" stroke="white" stroke-width="1.5" d="M0,-3.0v7 M-2.5,-0.5L0,-3.0L2.5,-0.5"/>
                </g>
                <g id="arrowRight" xlink:href="#dirArrow" transform="rotate(90) translate(36 -43)" onmousedown="handlePan(1,0)">
                  <use xlink:href="#rim" fill="#404040">
                        <set attributeName="fill" to="#808080" begin="arrowRight.mouseover" end="arrowRight.mouseout"/>
                  </use>
                  <path fill="none" stroke="white" stroke-width="1.5" d="M0,-3.0v7 M-2.5,-0.5L0,-3.0L2.5,-0.5"/>
                </g>
                <g id="arrowDown" xlink:href="#dirArrow" transform="rotate(180) translate(-30 -48)" onmousedown="handlePan(0,1)">
                  <use xlink:href="#rim" fill="#404040">
                        <set attributeName="fill" to="#808080" begin="arrowDown.mouseover" end="arrowDown.mouseout"/>
                  </use>
                  <path fill="none" stroke="white" stroke-width="1.5" d="M0,-3.0v7 M-2.5,-0.5L0,-3.0L2.5,-0.5"/>
                </g>
                <g id="arrowLeft" xlink:href="#dirArrow" transform="rotate(270) translate(-36 17)" onmousedown="handlePan(-1,0)">
                  <use xlink:href="#rim" fill="#404040">
                        <set attributeName="fill" to="#808080" begin="arrowLeft.mouseover" end="arrowLeft.mouseout"/>
                  </use>
                  <path fill="none" stroke="white" stroke-width="1.5" d="M0,-3.0v7 M-2.5,-0.5L0,-3.0L2.5,-0.5"/>
                </g>
        </g>
        <svg viewBox="0 0 15 15" width="100%" height="30px" preserveAspectRatio="xMaxYMin meet">
         <g id="arrow_out" transform="scale(0.3 0.3)">
          <a xlink:href="serverworker_8h__incl_org.svg" target="_base">
           <rect id="button" ry="5" rx="5" y="6" x="6" height="38" width="38"
                fill="#f2f5e9" fill-opacity="0.5" stroke="#606060" stroke-width="1.0"/>
           <path id="arrow"
             d="M 11.500037,31.436501 C 11.940474,20.09759 22.043105,11.32322 32.158766,21.979434 L 37.068811,17.246167 C 37.068811,17.246167 37.088388,32 37.088388,32 L 22.160133,31.978069 C 22.160133,31.978069 26.997745,27.140456 26.997745,27.140456 C 18.528582,18.264221 13.291696,25.230495 11.500037,31.436501 z"
             style="fill:#404040;"/>
          </a>
         </g>
        </svg>
</svg>
