<?xml version="1.0" encoding="UTF-8" standalone="no"?>
<!DOCTYPE svg PUBLIC "-//W3C//DTD SVG 1.1//EN"
 "http://www.w3.org/Graphics/SVG/1.1/DTD/svg11.dtd">
<!-- Generated by graphviz version 2.40.1 (20161225.0304)
 -->
<!-- Title: std::bad_typeid Pages: 1 -->
<svg width="119pt" height="178pt"
 viewBox="0.00 0.00 118.96 178.00" xmlns="http://www.w3.org/2000/svg" xmlns:xlink="http://www.w3.org/1999/xlink">
<g id="graph0" class="graph" transform="scale(1 1) rotate(0) translate(4 174)">
<title>std::bad_typeid</title>
<!-- Node23 -->
<g id="node1" class="node">
<title>Node23</title>
<polygon fill="#bfbfbf" stroke="#000000" points="0,-.5 0,-66.5 110.958,-66.5 110.958,-.5 0,-.5"/>
<text text-anchor="middle" x="55.479" y="-51.3" font-family="Helvetica,sans-Serif" font-size="14.00" fill="#000000">std::bad_typeid</text>
<polyline fill="none" stroke="#000000" points="0,-44.5 110.958,-44.5 "/>
<text text-anchor="middle" x="55.479" y="-29.3" font-family="Helvetica,sans-Serif" font-size="14.00" fill="#000000"> </text>
<polyline fill="none" stroke="#000000" points="0,-22.5 110.958,-22.5 "/>
<text text-anchor="middle" x="55.479" y="-7.3" font-family="Helvetica,sans-Serif" font-size="14.00" fill="#000000"> </text>
</g>
<!-- Node24 -->
<g id="node2" class="node">
<title>Node24</title>
<g id="a_node2"><a xlink:title="STL class. ">
<polygon fill="none" stroke="#bfbfbf" points="4.2861,-103.5 4.2861,-169.5 106.6719,-169.5 106.6719,-103.5 4.2861,-103.5"/>
<text text-anchor="middle" x="55.479" y="-154.3" font-family="Helvetica,sans-Serif" font-size="14.00" fill="#000000">std::exception</text>
<polyline fill="none" stroke="#bfbfbf" points="4.2861,-147.5 106.6719,-147.5 "/>
<text text-anchor="middle" x="55.479" y="-132.3" font-family="Helvetica,sans-Serif" font-size="14.00" fill="#000000"> </text>
<polyline fill="none" stroke="#bfbfbf" points="4.2861,-125.5 106.6719,-125.5 "/>
<text text-anchor="middle" x="55.479" y="-110.3" font-family="Helvetica,sans-Serif" font-size="14.00" fill="#000000"> </text>
</a>
</g>
</g>
<!-- Node24&#45;&gt;Node23 -->
<g id="edge1" class="edge">
<title>Node24&#45;&gt;Node23</title>
<path fill="none" stroke="#191970" d="M55.479,-93.1362C55.479,-84.256 55.479,-75.0447 55.479,-66.5947"/>
<polygon fill="none" stroke="#191970" points="51.9791,-93.3432 55.479,-103.3432 58.9791,-93.3432 51.9791,-93.3432"/>
</g>
</g>
</svg>
