<?xml version="1.0" encoding="UTF-8" standalone="no"?>
<!DOCTYPE svg PUBLIC "-//W3C//DTD SVG 1.1//EN"
 "http://www.w3.org/Graphics/SVG/1.1/DTD/svg11.dtd">
<!-- Generated by graphviz version 2.40.1 (20161225.0304)
 -->
<!-- Title: main Pages: 1 -->
<svg width="519pt" height="31pt"
 viewBox="0.00 0.00 519.37 31.00" xmlns="http://www.w3.org/2000/svg" xmlns:xlink="http://www.w3.org/1999/xlink">
<g id="graph0" class="graph" transform="scale(1 1) rotate(0) translate(4 27)">
<title>main</title>
<!-- Node0 -->
<g id="node1" class="node">
<title>Node0</title>
<polygon fill="#bfbfbf" stroke="#000000" points="0,-.5 0,-22.5 46.3447,-22.5 46.3447,-.5 0,-.5"/>
<text text-anchor="middle" x="23.1724" y="-7.3" font-family="Helvetica,sans-Serif" font-size="14.00" fill="#000000">main</text>
</g>
<!-- Node1 -->
<g id="node2" class="node">
<title>Node1</title>
<g id="a_node2"><a xlink:href="$d6/d1a/classMainWindow.html#a8b244be8b7b7db1b08de2a2acb9409db" xlink:title="MainWindow::MainWindow">
<polygon fill="none" stroke="#000000" points="82.3447,-.5 82.3447,-22.5 266.3994,-22.5 266.3994,-.5 82.3447,-.5"/>
<text text-anchor="middle" x="174.3721" y="-7.3" font-family="Helvetica,sans-Serif" font-size="14.00" fill="#000000">MainWindow::MainWindow</text>
</a>
</g>
</g>
<!-- Node0&#45;&gt;Node1 -->
<g id="edge1" class="edge">
<title>Node0&#45;&gt;Node1</title>
<path fill="none" stroke="#191970" d="M46.466,-11.5C53.8268,-11.5 62.4853,-11.5 71.7693,-11.5"/>
<polygon fill="#191970" stroke="#191970" points="72.0572,-15.0001 82.0571,-11.5 72.0571,-8.0001 72.0572,-15.0001"/>
</g>
<!-- Node2 -->
<g id="node3" class="node">
<title>Node2</title>
<g id="a_node3"><a xlink:href="$d6/d1a/classMainWindow.html#abfedef9edae209df536e8c1c7cf0e7ae" xlink:title="MainWindow::connectToServer">
<polygon fill="none" stroke="#000000" points="302.3994,-.5 302.3994,-22.5 511.3711,-22.5 511.3711,-.5 302.3994,-.5"/>
<text text-anchor="middle" x="406.8853" y="-7.3" font-family="Helvetica,sans-Serif" font-size="14.00" fill="#000000">MainWindow::connectToServer</text>
</a>
</g>
</g>
<!-- Node1&#45;&gt;Node2 -->
<g id="edge2" class="edge">
<title>Node1&#45;&gt;Node2</title>
<path fill="none" stroke="#191970" d="M266.6014,-11.5C274.9853,-11.5 283.5436,-11.5 292.0914,-11.5"/>
<polygon fill="#191970" stroke="#191970" points="292.1098,-15.0001 302.1098,-11.5 292.1097,-8.0001 292.1098,-15.0001"/>
</g>
</g>
</svg>
