<?xml version="1.0" encoding="UTF-8" standalone="no"?>
<!DOCTYPE svg PUBLIC "-//W3C//DTD SVG 1.1//EN"
 "http://www.w3.org/Graphics/SVG/1.1/DTD/svg11.dtd">
<!-- Generated by graphviz version 2.40.1 (20161225.0304)
 -->
<!-- Title: MailReceiver::mailMessage Pages: 1 -->
<svg width="316pt" height="379pt"
 viewBox="0.00 0.00 316.35 379.00" xmlns="http://www.w3.org/2000/svg" xmlns:xlink="http://www.w3.org/1999/xlink">
<g id="graph0" class="graph" transform="scale(1 1) rotate(0) translate(4 375)">
<title>MailReceiver::mailMessage</title>
<!-- Node56 -->
<g id="node1" class="node">
<title>Node56</title>
<polygon fill="#bfbfbf" stroke="#000000" points="65.25,-.5 65.25,-80.5 252.415,-80.5 252.415,-.5 65.25,-.5"/>
<text text-anchor="middle" x="158.8325" y="-65.3" font-family="Helvetica,sans-Serif" font-size="14.00" fill="#000000">MailReceiver::mailMessage</text>
<polyline fill="none" stroke="#000000" points="65.25,-58.5 252.415,-58.5 "/>
<text text-anchor="start" x="73.25" y="-43.3" font-family="Helvetica,sans-Serif" font-size="14.00" fill="#000000">+ type</text>
<text text-anchor="start" x="73.25" y="-29.3" font-family="Helvetica,sans-Serif" font-size="14.00" fill="#000000">+ isReplace</text>
<polyline fill="none" stroke="#000000" points="65.25,-22.5 252.415,-22.5 "/>
<text text-anchor="start" x="73.25" y="-7.3" font-family="Helvetica,sans-Serif" font-size="14.00" fill="#000000">+ mailMessage()</text>
</g>
<!-- Node57 -->
<g id="node2" class="node">
<title>Node57</title>
<g id="a_node2"><a xlink:href="$d5/d13/a00205.html" xlink:title="{MailSender\n||+ receiveResponce()\l+ setDefaultReceiver()\l}">
<polygon fill="none" stroke="#000000" points="0,-131.5 0,-211.5 155.665,-211.5 155.665,-131.5 0,-131.5"/>
<text text-anchor="middle" x="77.8325" y="-196.3" font-family="Helvetica,sans-Serif" font-size="14.00" fill="#000000">MailSender</text>
<polyline fill="none" stroke="#000000" points="0,-189.5 155.665,-189.5 "/>
<text text-anchor="middle" x="77.8325" y="-174.3" font-family="Helvetica,sans-Serif" font-size="14.00" fill="#000000"> </text>
<polyline fill="none" stroke="#000000" points="0,-167.5 155.665,-167.5 "/>
<text text-anchor="start" x="8" y="-152.3" font-family="Helvetica,sans-Serif" font-size="14.00" fill="#000000">+ receiveResponce()</text>
<text text-anchor="start" x="8" y="-138.3" font-family="Helvetica,sans-Serif" font-size="14.00" fill="#000000">+ setDefaultReceiver()</text>
</a>
</g>
</g>
<!-- Node57&#45;&gt;Node56 -->
<g id="edge1" class="edge">
<title>Node57&#45;&gt;Node56</title>
<path fill="none" stroke="#404040" d="M102.5753,-131.4839C110.4314,-118.7783 119.2247,-104.5571 127.4825,-91.2019"/>
<polygon fill="none" stroke="#404040" points="127.6512,-90.929 127.4045,-83.7221 133.9621,-80.7225 134.2088,-87.9294 127.6512,-90.929"/>
<text text-anchor="middle" x="148.2686" y="-101.8" font-family="Helvetica,sans-Serif" font-size="14.00" fill="#000000"> +sender</text>
</g>
<!-- Node58 -->
<g id="node3" class="node">
<title>Node58</title>
<g id="a_node3"><a xlink:href="$de/db1/a00197.html" xlink:title="{MailReceiver\n|# messages\l# mutex\l# isQueueLock\l|+ sendMail()\l# nextMessage()\l}">
<polygon fill="none" stroke="#000000" points="17.6982,-262.5 17.6982,-370.5 137.9668,-370.5 137.9668,-262.5 17.6982,-262.5"/>
<text text-anchor="middle" x="77.8325" y="-355.3" font-family="Helvetica,sans-Serif" font-size="14.00" fill="#000000">MailReceiver</text>
<polyline fill="none" stroke="#000000" points="17.6982,-348.5 137.9668,-348.5 "/>
<text text-anchor="start" x="25.6982" y="-333.3" font-family="Helvetica,sans-Serif" font-size="14.00" fill="#000000"># messages</text>
<text text-anchor="start" x="25.6982" y="-319.3" font-family="Helvetica,sans-Serif" font-size="14.00" fill="#000000"># mutex</text>
<text text-anchor="start" x="25.6982" y="-305.3" font-family="Helvetica,sans-Serif" font-size="14.00" fill="#000000"># isQueueLock</text>
<polyline fill="none" stroke="#000000" points="17.6982,-298.5 137.9668,-298.5 "/>
<text text-anchor="start" x="25.6982" y="-283.3" font-family="Helvetica,sans-Serif" font-size="14.00" fill="#000000">+ sendMail()</text>
<text text-anchor="start" x="25.6982" y="-269.3" font-family="Helvetica,sans-Serif" font-size="14.00" fill="#000000"># nextMessage()</text>
</a>
</g>
</g>
<!-- Node58&#45;&gt;Node57 -->
<g id="edge2" class="edge">
<title>Node58&#45;&gt;Node57</title>
<path fill="none" stroke="#404040" d="M77.8325,-262.0948C77.8325,-249.5586 77.8325,-236.2514 77.8325,-223.8067"/>
<polygon fill="none" stroke="#404040" points="77.8326,-223.7101 73.8326,-217.7101 77.8325,-211.7101 81.8326,-217.71 77.8326,-223.7101"/>
<text text-anchor="middle" x="108.5669" y="-232.8" font-family="Helvetica,sans-Serif" font-size="14.00" fill="#000000"> #receiver</text>
</g>
<!-- Node59 -->
<g id="node4" class="node">
<title>Node59</title>
<g id="a_node4"><a xlink:href="$d8/dfa/a00121.html" xlink:title="{MessageForServer\n|+ connectionType\l+ messageType\l|+ toString()\l}">
<polygon fill="none" stroke="#000000" points="173.312,-131.5 173.312,-211.5 308.353,-211.5 308.353,-131.5 173.312,-131.5"/>
<text text-anchor="middle" x="240.8325" y="-196.3" font-family="Helvetica,sans-Serif" font-size="14.00" fill="#000000">MessageForServer</text>
<polyline fill="none" stroke="#000000" points="173.312,-189.5 308.353,-189.5 "/>
<text text-anchor="start" x="181.312" y="-174.3" font-family="Helvetica,sans-Serif" font-size="14.00" fill="#000000">+ connectionType</text>
<text text-anchor="start" x="181.312" y="-160.3" font-family="Helvetica,sans-Serif" font-size="14.00" fill="#000000">+ messageType</text>
<polyline fill="none" stroke="#000000" points="173.312,-153.5 308.353,-153.5 "/>
<text text-anchor="start" x="181.312" y="-138.3" font-family="Helvetica,sans-Serif" font-size="14.00" fill="#000000">+ toString()</text>
</a>
</g>
</g>
<!-- Node59&#45;&gt;Node56 -->
<g id="edge3" class="edge">
<title>Node59&#45;&gt;Node56</title>
<path fill="none" stroke="#404040" d="M215.7843,-131.4839C207.8311,-118.7783 198.9293,-104.5571 190.5696,-91.2019"/>
<polygon fill="none" stroke="#404040" points="190.377,-90.8941 183.8029,-87.9306 184.01,-80.7225 190.584,-83.686 190.377,-90.8941"/>
<text text-anchor="middle" x="237.2686" y="-101.8" font-family="Helvetica,sans-Serif" font-size="14.00" fill="#000000"> +message</text>
</g>
<!-- Node60 -->
<g id="node5" class="node">
<title>Node60</title>
<polygon fill="none" stroke="#bfbfbf" points="207.1567,-283.5 207.1567,-349.5 274.5083,-349.5 274.5083,-283.5 207.1567,-283.5"/>
<text text-anchor="middle" x="240.8325" y="-334.3" font-family="Helvetica,sans-Serif" font-size="14.00" fill="#000000">QObject</text>
<polyline fill="none" stroke="#bfbfbf" points="207.1567,-327.5 274.5083,-327.5 "/>
<text text-anchor="middle" x="240.8325" y="-312.3" font-family="Helvetica,sans-Serif" font-size="14.00" fill="#000000"> </text>
<polyline fill="none" stroke="#bfbfbf" points="207.1567,-305.5 274.5083,-305.5 "/>
<text text-anchor="middle" x="240.8325" y="-290.3" font-family="Helvetica,sans-Serif" font-size="14.00" fill="#000000"> </text>
</g>
<!-- Node60&#45;&gt;Node59 -->
<g id="edge4" class="edge">
<title>Node60&#45;&gt;Node59</title>
<path fill="none" stroke="#191970" d="M240.8325,-273.0802C240.8325,-253.5654 240.8325,-230.681 240.8325,-211.5786"/>
<polygon fill="none" stroke="#191970" points="237.3326,-273.234 240.8325,-283.2341 244.3326,-273.2341 237.3326,-273.234"/>
</g>
</g>
</svg>
