<?xml version="1.0" encoding="UTF-8" standalone="no"?>
<!DOCTYPE svg PUBLIC "-//W3C//DTD SVG 1.1//EN"
 "http://www.w3.org/Graphics/SVG/1.1/DTD/svg11.dtd">
<!-- Generated by graphviz version 2.40.1 (20161225.0304)
 -->
<!-- Title: Server/serverworker.cpp Pages: 1 -->
<svg width="858pt" height="385pt"
 viewBox="0.00 0.00 857.86 385.00" xmlns="http://www.w3.org/2000/svg" xmlns:xlink="http://www.w3.org/1999/xlink">
<g id="graph0" class="graph" transform="scale(1 1) rotate(0) translate(4 381)">
<title>Server/serverworker.cpp</title>
<!-- Node0 -->
<g id="node1" class="node">
<title>Node0</title>
<polygon fill="#bfbfbf" stroke="#000000" points="0,-354.5 0,-376.5 167.7236,-376.5 167.7236,-354.5 0,-354.5"/>
<text text-anchor="middle" x="83.8618" y="-361.3" font-family="Helvetica,sans-Serif" font-size="14.00" fill="#000000">Server/serverworker.cpp</text>
</g>
<!-- Node1 -->
<g id="node2" class="node">
<title>Node1</title>
<g id="a_node2"><a xlink:href="../../d4/d81/a00110.html" target="_top" xlink:title="serverworker.h">
<polygon fill="none" stroke="#000000" points="443.9551,-295.5 443.9551,-317.5 551.7686,-317.5 551.7686,-295.5 443.9551,-295.5"/>
<text text-anchor="middle" x="497.8618" y="-302.3" font-family="Helvetica,sans-Serif" font-size="14.00" fill="#000000">serverworker.h</text>
</a>
</g>
</g>
<!-- Node0&#45;&gt;Node1 -->
<g id="edge1" class="edge">
<title>Node0&#45;&gt;Node1</title>
<path fill="none" stroke="#191970" d="M161.2464,-354.4718C239.9265,-343.2589 360.4113,-326.0884 433.8791,-315.6183"/>
<polygon fill="#191970" stroke="#191970" points="434.5183,-319.0627 443.9244,-314.1867 433.5306,-312.1327 434.5183,-319.0627"/>
</g>
<!-- Node3 -->
<g id="node4" class="node">
<title>Node3</title>
<polygon fill="none" stroke="#bfbfbf" points="10.2378,-118.5 10.2378,-140.5 81.4858,-140.5 81.4858,-118.5 10.2378,-118.5"/>
<text text-anchor="middle" x="45.8618" y="-125.3" font-family="Helvetica,sans-Serif" font-size="14.00" fill="#000000">QThread</text>
</g>
<!-- Node0&#45;&gt;Node3 -->
<g id="edge29" class="edge">
<title>Node0&#45;&gt;Node3</title>
<path fill="none" stroke="#191970" d="M82.08,-354.4338C76.1583,-317.6573 57.0702,-199.1098 49.2505,-150.5454"/>
<polygon fill="#191970" stroke="#191970" points="52.6851,-149.8587 47.6398,-140.5423 45.7741,-150.9715 52.6851,-149.8587"/>
</g>
<!-- Node6 -->
<g id="node7" class="node">
<title>Node6</title>
<g id="a_node7"><a xlink:href="../../d4/dee/a00008.html" target="_top" xlink:title="simpleconnection.h">
<polygon fill="none" stroke="#000000" points="149.938,-177.5 149.938,-199.5 285.7856,-199.5 285.7856,-177.5 149.938,-177.5"/>
<text text-anchor="middle" x="217.8618" y="-184.3" font-family="Helvetica,sans-Serif" font-size="14.00" fill="#000000">simpleconnection.h</text>
</a>
</g>
</g>
<!-- Node0&#45;&gt;Node6 -->
<g id="edge28" class="edge">
<title>Node0&#45;&gt;Node6</title>
<path fill="none" stroke="#191970" d="M92.2441,-354.4279C114.5227,-325.0002 175.4112,-244.5728 203.4178,-207.5791"/>
<polygon fill="#191970" stroke="#191970" points="206.2372,-209.6535 209.4827,-199.568 200.6562,-205.4283 206.2372,-209.6535"/>
</g>
<!-- Node2 -->
<g id="node3" class="node">
<title>Node2</title>
<polygon fill="none" stroke="#bfbfbf" points="642.124,-118.5 642.124,-140.5 733.5996,-140.5 733.5996,-118.5 642.124,-118.5"/>
<text text-anchor="middle" x="687.8618" y="-125.3" font-family="Helvetica,sans-Serif" font-size="14.00" fill="#000000">QTcpSocket</text>
</g>
<!-- Node1&#45;&gt;Node2 -->
<g id="edge2" class="edge">
<title>Node1&#45;&gt;Node2</title>
<path fill="none" stroke="#191970" d="M537.2121,-295.4834C559.1951,-287.879 586.0619,-276.0301 605.8618,-259 641.6185,-228.2452 667.1683,-178.0043 679.5056,-149.9996"/>
<polygon fill="#191970" stroke="#191970" points="682.7403,-151.3367 683.4476,-140.7655 676.3024,-148.5884 682.7403,-151.3367"/>
</g>
<!-- Node1&#45;&gt;Node3 -->
<g id="edge3" class="edge">
<title>Node1&#45;&gt;Node3</title>
<path fill="none" stroke="#191970" d="M443.6554,-296.4797C371.7357,-281.8333 242.0728,-250.6718 140.8618,-200 112.5132,-185.8071 83.8121,-163.0983 65.4903,-147.3033"/>
<polygon fill="#191970" stroke="#191970" points="67.6651,-144.5552 57.841,-140.5881 63.0469,-149.8157 67.6651,-144.5552"/>
</g>
<!-- Node4 -->
<g id="node5" class="node">
<title>Node4</title>
<polygon fill="none" stroke="#bfbfbf" points="494.0688,-.5 494.0688,-22.5 595.6548,-22.5 595.6548,-.5 494.0688,-.5"/>
<text text-anchor="middle" x="544.8618" y="-7.3" font-family="Helvetica,sans-Serif" font-size="14.00" fill="#000000">QDataStream</text>
</g>
<!-- Node1&#45;&gt;Node4 -->
<g id="edge4" class="edge">
<title>Node1&#45;&gt;Node4</title>
<path fill="none" stroke="#191970" d="M552.0904,-299.7719C650.8292,-285.9971 849.8618,-250.5365 849.8618,-188.5 849.8618,-188.5 849.8618,-188.5 849.8618,-129.5 849.8618,-93.2532 838.5499,-79.7953 808.8618,-59 776.8443,-36.5731 673.2848,-23.1331 605.7855,-16.5378"/>
<polygon fill="#191970" stroke="#191970" points="605.9769,-13.0402 595.69,-15.5759 605.3129,-20.0087 605.9769,-13.0402"/>
</g>
<!-- Node5 -->
<g id="node6" class="node">
<title>Node5</title>
<g id="a_node6"><a xlink:href="../../d7/d46/a00002.html" target="_top" xlink:title="connection/mailboxelement.h">
<polygon fill="none" stroke="#000000" points="399.1968,-236.5 399.1968,-258.5 596.5269,-258.5 596.5269,-236.5 399.1968,-236.5"/>
<text text-anchor="middle" x="497.8618" y="-243.3" font-family="Helvetica,sans-Serif" font-size="14.00" fill="#000000">connection/mailboxelement.h</text>
</a>
</g>
</g>
<!-- Node1&#45;&gt;Node5 -->
<g id="edge5" class="edge">
<title>Node1&#45;&gt;Node5</title>
<path fill="none" stroke="#191970" d="M497.8618,-295.4026C497.8618,-287.9034 497.8618,-277.7626 497.8618,-268.7421"/>
<polygon fill="#191970" stroke="#191970" points="501.3619,-268.5477 497.8618,-258.5477 494.3619,-268.5477 501.3619,-268.5477"/>
</g>
<!-- Node5&#45;&gt;Node6 -->
<g id="edge6" class="edge">
<title>Node5&#45;&gt;Node6</title>
<path fill="none" stroke="#191970" d="M445.5244,-236.4718C398.73,-226.6115 330.0719,-212.1443 280.3998,-201.6776"/>
<polygon fill="#191970" stroke="#191970" points="280.9241,-198.2113 270.4173,-199.5742 279.4807,-205.0609 280.9241,-198.2113"/>
</g>
<!-- Node9 -->
<g id="node10" class="node">
<title>Node9</title>
<polygon fill="none" stroke="#bfbfbf" points="555.3999,-118.5 555.3999,-140.5 624.3237,-140.5 624.3237,-118.5 555.3999,-118.5"/>
<text text-anchor="middle" x="589.8618" y="-125.3" font-family="Helvetica,sans-Serif" font-size="14.00" fill="#000000">QQueue</text>
</g>
<!-- Node5&#45;&gt;Node9 -->
<g id="edge26" class="edge">
<title>Node5&#45;&gt;Node9</title>
<path fill="none" stroke="#191970" d="M544.0052,-236.4581C576.8932,-227.546 616.9639,-214.1921 626.8618,-200 638.5108,-183.2971 624.4993,-162.4711 610.5034,-147.7988"/>
<polygon fill="#191970" stroke="#191970" points="612.9075,-145.2542 603.3218,-140.7415 608.0011,-150.247 612.9075,-145.2542"/>
</g>
<!-- Node10 -->
<g id="node11" class="node">
<title>Node10</title>
<g id="a_node11"><a xlink:href="../../d6/d2d/a00047.html" target="_top" xlink:title="ibasegameelement.h">
<polygon fill="none" stroke="#000000" points="391.876,-118.5 391.876,-140.5 537.8477,-140.5 537.8477,-118.5 391.876,-118.5"/>
<text text-anchor="middle" x="464.8618" y="-125.3" font-family="Helvetica,sans-Serif" font-size="14.00" fill="#000000">ibasegameelement.h</text>
</a>
</g>
</g>
<!-- Node5&#45;&gt;Node10 -->
<g id="edge23" class="edge">
<title>Node5&#45;&gt;Node10</title>
<path fill="none" stroke="#191970" d="M501.971,-236.1289C506.4618,-221.8667 512.115,-196.8734 504.8618,-177 500.9253,-166.2141 493.3413,-156.1816 485.826,-148.1424"/>
<polygon fill="#191970" stroke="#191970" points="488.0253,-145.3929 478.4712,-140.8135 483.0842,-150.3514 488.0253,-145.3929"/>
</g>
<!-- Node17 -->
<g id="node18" class="node">
<title>Node17</title>
<polygon fill="none" stroke="#bfbfbf" points="447.5239,-177.5 447.5239,-199.5 496.1997,-199.5 496.1997,-177.5 447.5239,-177.5"/>
<text text-anchor="middle" x="471.8618" y="-184.3" font-family="Helvetica,sans-Serif" font-size="14.00" fill="#000000">QList</text>
</g>
<!-- Node5&#45;&gt;Node17 -->
<g id="edge24" class="edge">
<title>Node5&#45;&gt;Node17</title>
<path fill="none" stroke="#191970" d="M492.9714,-236.4026C489.5578,-228.6562 484.902,-218.0911 480.8313,-208.8538"/>
<polygon fill="#191970" stroke="#191970" points="483.9657,-207.2871 476.7303,-199.5477 477.5601,-210.11 483.9657,-207.2871"/>
</g>
<!-- Node18 -->
<g id="node19" class="node">
<title>Node18</title>
<polygon fill="none" stroke="#bfbfbf" points="552.355,-177.5 552.355,-199.5 617.3687,-199.5 617.3687,-177.5 552.355,-177.5"/>
<text text-anchor="middle" x="584.8618" y="-184.3" font-family="Helvetica,sans-Serif" font-size="14.00" fill="#000000">QMutex</text>
</g>
<!-- Node5&#45;&gt;Node18 -->
<g id="edge25" class="edge">
<title>Node5&#45;&gt;Node18</title>
<path fill="none" stroke="#191970" d="M514.2259,-236.4026C527.1067,-227.6673 545.2729,-215.3477 559.9568,-205.3896"/>
<polygon fill="#191970" stroke="#191970" points="562.2593,-208.0571 568.5712,-199.5477 558.3304,-202.2637 562.2593,-208.0571"/>
</g>
<!-- Node19 -->
<g id="node20" class="node">
<title>Node19</title>
<polygon fill="none" stroke="#bfbfbf" points="303.9966,-177.5 303.9966,-199.5 429.7271,-199.5 429.7271,-177.5 303.9966,-177.5"/>
<text text-anchor="middle" x="366.8618" y="-184.3" font-family="Helvetica,sans-Serif" font-size="14.00" fill="#000000">qtconcurrentrun.h</text>
</g>
<!-- Node5&#45;&gt;Node19 -->
<g id="edge27" class="edge">
<title>Node5&#45;&gt;Node19</title>
<path fill="none" stroke="#191970" d="M473.2217,-236.4026C452.7286,-227.1728 423.3506,-213.9415 400.6608,-203.7224"/>
<polygon fill="#191970" stroke="#191970" points="401.9467,-200.463 391.3914,-199.5477 399.072,-206.8456 401.9467,-200.463"/>
</g>
<!-- Node6&#45;&gt;Node2 -->
<g id="edge11" class="edge">
<title>Node6&#45;&gt;Node2</title>
<path fill="none" stroke="#191970" d="M285.8604,-178.1856C288.901,-177.7744 291.9122,-177.3772 294.8618,-177 441.4941,-158.2498 481.9039,-164.2151 631.9638,-141.0161"/>
<polygon fill="#191970" stroke="#191970" points="632.6697,-144.4484 642.0089,-139.4453 631.5882,-137.5324 632.6697,-144.4484"/>
</g>
<!-- Node6&#45;&gt;Node3 -->
<g id="edge9" class="edge">
<title>Node6&#45;&gt;Node3</title>
<path fill="none" stroke="#191970" d="M185.5099,-177.4026C157.8822,-167.9256 117.9555,-154.2298 87.8644,-143.9079"/>
<polygon fill="#191970" stroke="#191970" points="88.6633,-140.4818 78.0686,-140.5477 86.392,-147.103 88.6633,-140.4818"/>
</g>
<!-- Node6&#45;&gt;Node4 -->
<g id="edge12" class="edge">
<title>Node6&#45;&gt;Node4</title>
<path fill="none" stroke="#191970" d="M177.4248,-177.423C159.232,-170.1999 139.4923,-158.7232 128.8618,-141 110.1159,-109.7464 104.5974,-86.1926 128.8618,-59 152.0405,-33.0241 373.4828,-19.3255 483.4791,-14.0757"/>
<polygon fill="#191970" stroke="#191970" points="483.9403,-17.558 493.7656,-13.5939 483.6128,-10.5657 483.9403,-17.558"/>
</g>
<!-- Node7 -->
<g id="node8" class="node">
<title>Node7</title>
<polygon fill="none" stroke="#bfbfbf" points="138.3447,-118.5 138.3447,-140.5 245.3789,-140.5 245.3789,-118.5 138.3447,-118.5"/>
<text text-anchor="middle" x="191.8618" y="-125.3" font-family="Helvetica,sans-Serif" font-size="14.00" fill="#000000">QHostAddress</text>
</g>
<!-- Node6&#45;&gt;Node7 -->
<g id="edge7" class="edge">
<title>Node6&#45;&gt;Node7</title>
<path fill="none" stroke="#191970" d="M212.9714,-177.4026C209.5578,-169.6562 204.902,-159.0911 200.8313,-149.8538"/>
<polygon fill="#191970" stroke="#191970" points="203.9657,-148.2871 196.7303,-140.5477 197.5601,-151.11 203.9657,-148.2871"/>
</g>
<!-- Node8 -->
<g id="node9" class="node">
<title>Node8</title>
<polygon fill="none" stroke="#bfbfbf" points="138.186,-59.5 138.186,-81.5 205.5376,-81.5 205.5376,-59.5 138.186,-59.5"/>
<text text-anchor="middle" x="171.8618" y="-66.3" font-family="Helvetica,sans-Serif" font-size="14.00" fill="#000000">QObject</text>
</g>
<!-- Node6&#45;&gt;Node8 -->
<g id="edge8" class="edge">
<title>Node6&#45;&gt;Node8</title>
<path fill="none" stroke="#191970" d="M231.0508,-177.3531C245.9864,-163.3221 266.7886,-138.5673 254.8618,-118 246.1025,-102.8948 230.5316,-92.1838 215.2243,-84.806"/>
<polygon fill="#191970" stroke="#191970" points="216.3518,-81.4777 205.7907,-80.6335 213.5203,-87.8794 216.3518,-81.4777"/>
</g>
<!-- Node6&#45;&gt;Node9 -->
<g id="edge10" class="edge">
<title>Node6&#45;&gt;Node9</title>
<path fill="none" stroke="#191970" d="M285.8785,-178.3177C288.9142,-177.8708 291.9195,-177.4299 294.8618,-177 403.64,-161.1073 434.2957,-163.5005 545.2981,-141.1645"/>
<polygon fill="#191970" stroke="#191970" points="546.111,-144.5709 555.2125,-139.1475 544.7154,-137.7114 546.111,-144.5709"/>
</g>
<!-- Node6&#45;&gt;Node10 -->
<g id="edge13" class="edge">
<title>Node6&#45;&gt;Node10</title>
<path fill="none" stroke="#191970" d="M264.0309,-177.4718C304.9655,-167.6939 364.8663,-153.3856 408.5932,-142.9407"/>
<polygon fill="#191970" stroke="#191970" points="409.5872,-146.3018 418.5004,-140.5742 407.9609,-139.4933 409.5872,-146.3018"/>
</g>
<!-- Node10&#45;&gt;Node4 -->
<g id="edge19" class="edge">
<title>Node10&#45;&gt;Node4</title>
<path fill="none" stroke="#191970" d="M538.1768,-119.1804C634.5362,-105.5754 791.8174,-83.2066 792.8618,-82 799.552,-74.2712 799.3748,-66.8788 792.8618,-59 769.597,-30.8564 671.5939,-19.2267 605.9735,-14.5361"/>
<polygon fill="#191970" stroke="#191970" points="605.9503,-11.0266 595.7363,-13.8414 605.4763,-18.0105 605.9503,-11.0266"/>
</g>
<!-- Node10&#45;&gt;Node8 -->
<g id="edge14" class="edge">
<title>Node10&#45;&gt;Node8</title>
<path fill="none" stroke="#191970" d="M398.7646,-118.4842C350.3548,-110.0731 282.8765,-97.6396 215.6441,-82.3069"/>
<polygon fill="#191970" stroke="#191970" points="216.259,-78.857 205.7286,-80.0238 214.6883,-85.6785 216.259,-78.857"/>
</g>
<!-- Node11 -->
<g id="node12" class="node">
<title>Node11</title>
<g id="a_node12"><a xlink:href="../../d3/d8b/a00059.html" target="_top" xlink:title="infinitydouble.h">
<polygon fill="none" stroke="#000000" points="223.1621,-59.5 223.1621,-81.5 332.5615,-81.5 332.5615,-59.5 223.1621,-59.5"/>
<text text-anchor="middle" x="277.8618" y="-66.3" font-family="Helvetica,sans-Serif" font-size="14.00" fill="#000000">infinitydouble.h</text>
</a>
</g>
</g>
<!-- Node10&#45;&gt;Node11 -->
<g id="edge15" class="edge">
<title>Node10&#45;&gt;Node11</title>
<path fill="none" stroke="#191970" d="M429.6885,-118.4026C399.3902,-108.8432 355.4868,-94.9913 322.6764,-84.6394"/>
<polygon fill="#191970" stroke="#191970" points="323.4671,-81.2188 312.8774,-81.5477 321.3608,-87.8944 323.4671,-81.2188"/>
</g>
<!-- Node12 -->
<g id="node13" class="node">
<title>Node12</title>
<polygon fill="none" stroke="#bfbfbf" points="528.186,-59.5 528.186,-81.5 595.5376,-81.5 595.5376,-59.5 528.186,-59.5"/>
<text text-anchor="middle" x="561.8618" y="-66.3" font-family="Helvetica,sans-Serif" font-size="14.00" fill="#000000">QPointF</text>
</g>
<!-- Node10&#45;&gt;Node12 -->
<g id="edge17" class="edge">
<title>Node10&#45;&gt;Node12</title>
<path fill="none" stroke="#191970" d="M483.1068,-118.4026C497.7391,-109.5025 518.4888,-96.8815 535.0166,-86.8285"/>
<polygon fill="#191970" stroke="#191970" points="536.9738,-89.7347 543.6987,-81.5477 533.3361,-83.7541 536.9738,-89.7347"/>
</g>
<!-- Node13 -->
<g id="node14" class="node">
<title>Node13</title>
<polygon fill="none" stroke="#bfbfbf" points="613.686,-59.5 613.686,-81.5 702.0376,-81.5 702.0376,-59.5 613.686,-59.5"/>
<text text-anchor="middle" x="657.8618" y="-66.3" font-family="Helvetica,sans-Serif" font-size="14.00" fill="#000000">QByteArray</text>
</g>
<!-- Node10&#45;&gt;Node13 -->
<g id="edge18" class="edge">
<title>Node10&#45;&gt;Node13</title>
<path fill="none" stroke="#191970" d="M501.1636,-118.4026C532.5689,-108.802 578.137,-94.8718 612.0465,-84.5057"/>
<polygon fill="#191970" stroke="#191970" points="613.1829,-87.8183 621.7228,-81.5477 611.1364,-81.1241 613.1829,-87.8183"/>
</g>
<!-- Node14 -->
<g id="node15" class="node">
<title>Node14</title>
<polygon fill="none" stroke="#bfbfbf" points="720.1309,-59.5 720.1309,-81.5 783.5928,-81.5 783.5928,-59.5 720.1309,-59.5"/>
<text text-anchor="middle" x="751.8618" y="-66.3" font-family="Helvetica,sans-Serif" font-size="14.00" fill="#000000">QString</text>
</g>
<!-- Node10&#45;&gt;Node14 -->
<g id="edge20" class="edge">
<title>Node10&#45;&gt;Node14</title>
<path fill="none" stroke="#191970" d="M529.6581,-118.499C577.1114,-110.0953 643.2491,-97.6651 709.8679,-82.1103"/>
<polygon fill="#191970" stroke="#191970" points="710.7682,-85.494 719.6982,-79.7927 709.1619,-78.6808 710.7682,-85.494"/>
</g>
<!-- Node15 -->
<g id="node16" class="node">
<title>Node15</title>
<polygon fill="none" stroke="#bfbfbf" points="350.1182,-59.5 350.1182,-81.5 407.6055,-81.5 407.6055,-59.5 350.1182,-59.5"/>
<text text-anchor="middle" x="378.8618" y="-66.3" font-family="Helvetica,sans-Serif" font-size="14.00" fill="#000000">QTime</text>
</g>
<!-- Node10&#45;&gt;Node15 -->
<g id="edge21" class="edge">
<title>Node10&#45;&gt;Node15</title>
<path fill="none" stroke="#191970" d="M448.6859,-118.4026C435.9531,-109.6673 417.9957,-97.3477 403.4806,-87.3896"/>
<polygon fill="#191970" stroke="#191970" points="405.1913,-84.3188 394.9652,-81.5477 401.2312,-90.091 405.1913,-84.3188"/>
</g>
<!-- Node16 -->
<g id="node17" class="node">
<title>Node16</title>
<polygon fill="none" stroke="#bfbfbf" points="425.6206,-59.5 425.6206,-81.5 510.103,-81.5 510.103,-59.5 425.6206,-59.5"/>
<text text-anchor="middle" x="467.8618" y="-66.3" font-family="Helvetica,sans-Serif" font-size="14.00" fill="#000000">QVector3D</text>
</g>
<!-- Node10&#45;&gt;Node16 -->
<g id="edge22" class="edge">
<title>Node10&#45;&gt;Node16</title>
<path fill="none" stroke="#191970" d="M465.4261,-118.4026C465.8074,-110.9034 466.323,-100.7626 466.7817,-91.7421"/>
<polygon fill="#191970" stroke="#191970" points="470.2876,-91.7126 467.3001,-81.5477 463.2967,-91.357 470.2876,-91.7126"/>
</g>
<!-- Node11&#45;&gt;Node4 -->
<g id="edge16" class="edge">
<title>Node11&#45;&gt;Node4</title>
<path fill="none" stroke="#191970" d="M327.7693,-59.4718C372.2979,-49.6321 437.5882,-35.2046 484.9305,-24.7433"/>
<polygon fill="#191970" stroke="#191970" points="485.7372,-28.1495 494.7465,-22.5742 484.2268,-21.3144 485.7372,-28.1495"/>
</g>
</g>
</svg>
