<?xml version="1.0" encoding="UTF-8" standalone="no"?>
<!DOCTYPE svg PUBLIC "-//W3C//DTD SVG 1.1//EN"
 "http://www.w3.org/Graphics/SVG/1.1/DTD/svg11.dtd">
<!-- Generated by graphviz version 2.40.1 (20161225.0304)
 -->
<!-- Title: Server/serverconnection.h Pages: 1 -->
<svg width="338pt" height="90pt"
 viewBox="0.00 0.00 338.06 90.00" xmlns="http://www.w3.org/2000/svg" xmlns:xlink="http://www.w3.org/1999/xlink">
<g id="graph0" class="graph" transform="scale(1 1) rotate(0) translate(4 86)">
<title>Server/serverconnection.h</title>
<!-- Node21 -->
<g id="node1" class="node">
<title>Node21</title>
<polygon fill="#bfbfbf" stroke="#000000" points="56.2588,-59.5 56.2588,-81.5 235.6719,-81.5 235.6719,-59.5 56.2588,-59.5"/>
<text text-anchor="middle" x="145.9653" y="-66.3" font-family="Helvetica,sans-Serif" font-size="14.00" fill="#000000">Server/serverconnection.h</text>
</g>
<!-- Node22 -->
<g id="node2" class="node">
<title>Node22</title>
<g id="a_node2"><a xlink:href="../../d6/dda/Server_2main_8cpp.html" target="_top" xlink:title="Server/main.cpp">
<polygon fill="none" stroke="#000000" points="0,-.5 0,-22.5 117.9307,-22.5 117.9307,-.5 0,-.5"/>
<text text-anchor="middle" x="58.9653" y="-7.3" font-family="Helvetica,sans-Serif" font-size="14.00" fill="#000000">Server/main.cpp</text>
</a>
</g>
</g>
<!-- Node21&#45;&gt;Node22 -->
<g id="edge1" class="edge">
<title>Node21&#45;&gt;Node22</title>
<path fill="none" stroke="#191970" d="M120.9765,-53.5536C106.2794,-43.5866 88.1167,-31.2693 75.256,-22.5477"/>
<polygon fill="#191970" stroke="#191970" points="119.3605,-56.6865 129.6013,-59.4026 123.2894,-50.8931 119.3605,-56.6865"/>
</g>
<!-- Node23 -->
<g id="node3" class="node">
<title>Node23</title>
<g id="a_node3"><a xlink:href="../../d2/d44/serverconnection_8cpp.html" target="_top" xlink:title="Server/serverconnection.cpp">
<polygon fill="none" stroke="#000000" points="135.8657,-.5 135.8657,-22.5 330.0649,-22.5 330.0649,-.5 135.8657,-.5"/>
<text text-anchor="middle" x="232.9653" y="-7.3" font-family="Helvetica,sans-Serif" font-size="14.00" fill="#000000">Server/serverconnection.cpp</text>
</a>
</g>
</g>
<!-- Node21&#45;&gt;Node23 -->
<g id="edge2" class="edge">
<title>Node21&#45;&gt;Node23</title>
<path fill="none" stroke="#191970" d="M170.9541,-53.5536C185.6512,-43.5866 203.814,-31.2693 216.6747,-22.5477"/>
<polygon fill="#191970" stroke="#191970" points="168.6413,-50.8931 162.3294,-59.4026 172.5702,-56.6865 168.6413,-50.8931"/>
</g>
</g>
</svg>
