<?xml version="1.0" encoding="UTF-8" standalone="no"?>
<!DOCTYPE svg PUBLIC "-//W3C//DTD SVG 1.1//EN"
 "http://www.w3.org/Graphics/SVG/1.1/DTD/svg11.dtd">
<!-- Generated by graphviz version 2.40.1 (20161225.0304)
 -->
<!-- Title: std::range_error Pages: 1 -->
<svg width="134pt" height="281pt"
 viewBox="0.00 0.00 134.48 281.00" xmlns="http://www.w3.org/2000/svg" xmlns:xlink="http://www.w3.org/1999/xlink">
<g id="graph0" class="graph" transform="scale(1 1) rotate(0) translate(4 277)">
<title>std::range_error</title>
<!-- Node740 -->
<g id="node1" class="node">
<title>Node740</title>
<polygon fill="#bfbfbf" stroke="#000000" points="5.438,-.5 5.438,-66.5 121.0444,-66.5 121.0444,-.5 5.438,-.5"/>
<text text-anchor="middle" x="63.2412" y="-51.3" font-family="Helvetica,sans-Serif" font-size="14.00" fill="#000000">std::range_error</text>
<polyline fill="none" stroke="#000000" points="5.438,-44.5 121.0444,-44.5 "/>
<text text-anchor="middle" x="63.2412" y="-29.3" font-family="Helvetica,sans-Serif" font-size="14.00" fill="#000000"> </text>
<polyline fill="none" stroke="#000000" points="5.438,-22.5 121.0444,-22.5 "/>
<text text-anchor="middle" x="63.2412" y="-7.3" font-family="Helvetica,sans-Serif" font-size="14.00" fill="#000000"> </text>
</g>
<!-- Node741 -->
<g id="node2" class="node">
<title>Node741</title>
<g id="a_node2"><a xlink:title="STL class. ">
<polygon fill="none" stroke="#bfbfbf" points="0,-103.5 0,-169.5 126.4824,-169.5 126.4824,-103.5 0,-103.5"/>
<text text-anchor="middle" x="63.2412" y="-154.3" font-family="Helvetica,sans-Serif" font-size="14.00" fill="#000000">std::runtime_error</text>
<polyline fill="none" stroke="#bfbfbf" points="0,-147.5 126.4824,-147.5 "/>
<text text-anchor="middle" x="63.2412" y="-132.3" font-family="Helvetica,sans-Serif" font-size="14.00" fill="#000000"> </text>
<polyline fill="none" stroke="#bfbfbf" points="0,-125.5 126.4824,-125.5 "/>
<text text-anchor="middle" x="63.2412" y="-110.3" font-family="Helvetica,sans-Serif" font-size="14.00" fill="#000000"> </text>
</a>
</g>
</g>
<!-- Node741&#45;&gt;Node740 -->
<g id="edge1" class="edge">
<title>Node741&#45;&gt;Node740</title>
<path fill="none" stroke="#191970" d="M63.2412,-93.1362C63.2412,-84.256 63.2412,-75.0447 63.2412,-66.5947"/>
<polygon fill="none" stroke="#191970" points="59.7413,-93.3432 63.2412,-103.3432 66.7413,-93.3432 59.7413,-93.3432"/>
</g>
<!-- Node742 -->
<g id="node3" class="node">
<title>Node742</title>
<g id="a_node3"><a xlink:title="STL class. ">
<polygon fill="none" stroke="#bfbfbf" points="12.0483,-206.5 12.0483,-272.5 114.4341,-272.5 114.4341,-206.5 12.0483,-206.5"/>
<text text-anchor="middle" x="63.2412" y="-257.3" font-family="Helvetica,sans-Serif" font-size="14.00" fill="#000000">std::exception</text>
<polyline fill="none" stroke="#bfbfbf" points="12.0483,-250.5 114.4341,-250.5 "/>
<text text-anchor="middle" x="63.2412" y="-235.3" font-family="Helvetica,sans-Serif" font-size="14.00" fill="#000000"> </text>
<polyline fill="none" stroke="#bfbfbf" points="12.0483,-228.5 114.4341,-228.5 "/>
<text text-anchor="middle" x="63.2412" y="-213.3" font-family="Helvetica,sans-Serif" font-size="14.00" fill="#000000"> </text>
</a>
</g>
</g>
<!-- Node742&#45;&gt;Node741 -->
<g id="edge2" class="edge">
<title>Node742&#45;&gt;Node741</title>
<path fill="none" stroke="#191970" d="M63.2412,-196.1362C63.2412,-187.256 63.2412,-178.0447 63.2412,-169.5947"/>
<polygon fill="none" stroke="#191970" points="59.7413,-196.3432 63.2412,-206.3432 66.7413,-196.3432 59.7413,-196.3432"/>
</g>
</g>
</svg>
