<?xml version="1.0" encoding="UTF-8" standalone="no"?>
<!DOCTYPE svg PUBLIC "-//W3C//DTD SVG 1.1//EN"
 "http://www.w3.org/Graphics/SVG/1.1/DTD/svg11.dtd">
<!-- Generated by graphviz version 2.40.1 (20161225.0304)
 -->
<!-- Title: MapIniter::getRandomGrass Pages: 1 -->
<!--zoomable 303 -->
<svg id="main" version="1.1" xmlns="http://www.w3.org/2000/svg" xmlns:xlink="http://www.w3.org/1999/xlink" xml:space="preserve" onload="init(evt)">
<style type="text/css"><![CDATA[
.edge:hover path { stroke: red; }
.edge:hover polygon { stroke: red; fill: red; }
]]></style>
<script type="text/javascript"><![CDATA[
var edges = document.getElementsByTagName('g');
if (edges && edges.length) {
  for (var i=0;i<edges.length;i++) {
    if (edges[i].id.substr(0,4)=='edge') {
      edges[i].setAttribute('class','edge');
    }
  }
}
]]></script>
        <defs>
                <circle id="rim" cx="0" cy="0" r="7"/>
                <circle id="rim2" cx="0" cy="0" r="3.5"/>
                <g id="zoomPlus">
                        <use xlink:href="#rim" fill="#404040">
                                <set attributeName="fill" to="#808080" begin="zoomplus.mouseover" end="zoomplus.mouseout"/>
                        </use>
                        <path d="M-4,0h8M0,-4v8" fill="none" stroke="white" stroke-width="1.5" pointer-events="none"/>
                </g>
                <g id="zoomMin">
                        <use xlink:href="#rim" fill="#404040">
                                <set attributeName="fill" to="#808080" begin="zoomminus.mouseover" end="zoomminus.mouseout"/>
                        </use>
                        <path d="M-4,0h8" fill="none" stroke="white" stroke-width="1.5" pointer-events="none"/>
                </g>
                <g id="dirArrow">
                        <path fill="none" stroke="white" stroke-width="1.5" d="M0,-3.0v7 M-2.5,-0.5L0,-3.0L2.5,-0.5"/>
                </g>
               <g id="resetDef">
                       <use xlink:href="#rim2" fill="#404040">
                               <set attributeName="fill" to="#808080" begin="reset.mouseover" end="reset.mouseout"/>
                       </use>
               </g>
        </defs>

<script type="text/javascript">
var viewWidth = 631;
var viewHeight = 303;
var sectionId = 'dynsection-4';
</script>
<script xlink:href="../../svgpan.js"/>
<svg id="graph" class="graph">
<g id="viewport">
<title>MapIniter::getRandomGrass</title>
<!-- Node14 -->
<g id="node1" class="node">
<title>Node14</title>
<polygon fill="#bfbfbf" stroke="#000000" points="0,-137.5 0,-159.5 191.8545,-159.5 191.8545,-137.5 0,-137.5"/>
<text text-anchor="middle" x="95.9272" y="-144.3" font-family="Helvetica,sans-Serif" font-size="14.00" fill="#000000">MapIniter::getRandomGrass</text>
</g>
<!-- Node15 -->
<g id="node2" class="node">
<title>Node15</title>
<g id="a_node2"><a xlink:href="../../d8/dcb/a00706.html#adb0a2fa93aa5f90a93c3f4303436913a" target="_top" xlink:title="InfinityDouble::FromValue">
<polygon fill="none" stroke="#000000" points="244.8384,-272.5 244.8384,-294.5 420.8813,-294.5 420.8813,-272.5 244.8384,-272.5"/>
<text text-anchor="middle" x="332.8599" y="-279.3" font-family="Helvetica,sans-Serif" font-size="14.00" fill="#000000">InfinityDouble::FromValue</text>
</a>
</g>
</g>
<!-- Node14&#45;&gt;Node15 -->
<g id="edge1" class="edge">
<title>Node14&#45;&gt;Node15</title>
<path fill="none" stroke="#191970" d="M106.0159,-159.6776C126.6503,-181.8357 176.1132,-231.4366 227.8545,-257.5 237.55,-262.3839 248.2207,-266.3878 258.932,-269.6602"/>
<polygon fill="#191970" stroke="#191970" points="258.1768,-273.0843 268.7535,-272.464 260.0984,-266.3532 258.1768,-273.0843"/>
</g>
<!-- Node16 -->
<g id="node3" class="node">
<title>Node16</title>
<g id="a_node3"><a xlink:href="../../d8/dcb/a00706.html#a8d33637f68b523cf2b21abd1509c47bf" target="_top" xlink:title="InfinityDouble::Infinity\lDouble">
<polygon fill="none" stroke="#000000" points="473.8652,-225.5 473.8652,-261.5 622.9336,-261.5 622.9336,-225.5 473.8652,-225.5"/>
<text text-anchor="start" x="481.8652" y="-246.3" font-family="Helvetica,sans-Serif" font-size="14.00" fill="#000000">InfinityDouble::Infinity</text>
<text text-anchor="middle" x="548.3994" y="-232.3" font-family="Helvetica,sans-Serif" font-size="14.00" fill="#000000">Double</text>
</a>
</g>
</g>
<!-- Node14&#45;&gt;Node16 -->
<g id="edge3" class="edge">
<title>Node14&#45;&gt;Node16</title>
<path fill="none" stroke="#191970" d="M109.9317,-159.5583C132.9731,-177.0301 181.0088,-210.4735 227.8545,-224.5 305.2885,-247.6852 397.8347,-250.7021 463.5349,-248.959"/>
<polygon fill="#191970" stroke="#191970" points="463.9552,-252.4478 473.8424,-248.6407 463.7391,-245.4511 463.9552,-252.4478"/>
</g>
<!-- Node17 -->
<g id="node4" class="node">
<title>Node17</title>
<g id="a_node4"><a xlink:href="../../d8/dcb/a00706.html#a67fae871f96708313bedc644630ac8bc" target="_top" xlink:title="InfinityDouble::Infinity\lValue">
<polygon fill="none" stroke="#000000" points="258.3257,-178.5 258.3257,-214.5 407.394,-214.5 407.394,-178.5 258.3257,-178.5"/>
<text text-anchor="start" x="266.3257" y="-199.3" font-family="Helvetica,sans-Serif" font-size="14.00" fill="#000000">InfinityDouble::Infinity</text>
<text text-anchor="middle" x="332.8599" y="-185.3" font-family="Helvetica,sans-Serif" font-size="14.00" fill="#000000">Value</text>
</a>
</g>
</g>
<!-- Node14&#45;&gt;Node17 -->
<g id="edge4" class="edge">
<title>Node14&#45;&gt;Node17</title>
<path fill="none" stroke="#191970" d="M150.2844,-159.5122C179.2568,-165.3817 215.55,-172.7343 248.1295,-179.3345"/>
<polygon fill="#191970" stroke="#191970" points="247.613,-182.8009 258.1089,-181.3563 249.003,-175.9403 247.613,-182.8009"/>
</g>
<!-- Node18 -->
<g id="node5" class="node">
<title>Node18</title>
<g id="a_node5"><a xlink:href="../../d7/dc3/a00682.html#ae2be75da1a2a9edfabe993770e24654a" target="_top" xlink:title="IBaseGameElement::nextStep">
<polygon fill="none" stroke="#000000" points="230.6982,-137.5 230.6982,-159.5 435.0215,-159.5 435.0215,-137.5 230.6982,-137.5"/>
<text text-anchor="middle" x="332.8599" y="-144.3" font-family="Helvetica,sans-Serif" font-size="14.00" fill="#000000">IBaseGameElement::nextStep</text>
</a>
</g>
</g>
<!-- Node14&#45;&gt;Node18 -->
<g id="edge6" class="edge">
<title>Node14&#45;&gt;Node18</title>
<path fill="none" stroke="#191970" d="M191.9553,-148.5C201.2813,-148.5 210.7999,-148.5 220.2683,-148.5"/>
<polygon fill="#191970" stroke="#191970" points="220.5115,-152.0001 230.5114,-148.5 220.5114,-145.0001 220.5115,-152.0001"/>
</g>
<!-- Node19 -->
<g id="node6" class="node">
<title>Node19</title>
<g id="a_node6"><a xlink:href="../../d7/dc3/a00682.html#a2f95e7a61b5db7f2fbbfd32ff786f58c" target="_top" xlink:title="IBaseGameElement::setHelth">
<polygon fill="none" stroke="#000000" points="232.6499,-96.5 232.6499,-118.5 433.0698,-118.5 433.0698,-96.5 232.6499,-96.5"/>
<text text-anchor="middle" x="332.8599" y="-103.3" font-family="Helvetica,sans-Serif" font-size="14.00" fill="#000000">IBaseGameElement::setHelth</text>
</a>
</g>
</g>
<!-- Node14&#45;&gt;Node19 -->
<g id="edge7" class="edge">
<title>Node14&#45;&gt;Node19</title>
<path fill="none" stroke="#191970" d="M159.7325,-137.4588C190.2808,-132.1726 227.0399,-125.8116 258.8138,-120.3133"/>
<polygon fill="#191970" stroke="#191970" points="259.6839,-123.7148 268.9407,-118.5609 258.4903,-116.8173 259.6839,-123.7148"/>
</g>
<!-- Node20 -->
<g id="node7" class="node">
<title>Node20</title>
<g id="a_node7"><a xlink:href="../../d7/dc3/a00682.html#ac480b8140b5b290f49b4b96a47291180" target="_top" xlink:title="IBaseGameElement::setTransit\lWeight">
<polygon fill="none" stroke="#000000" points="227.8545,-41.5 227.8545,-77.5 437.8652,-77.5 437.8652,-41.5 227.8545,-41.5"/>
<text text-anchor="start" x="235.8545" y="-62.3" font-family="Helvetica,sans-Serif" font-size="14.00" fill="#000000">IBaseGameElement::setTransit</text>
<text text-anchor="middle" x="332.8599" y="-48.3" font-family="Helvetica,sans-Serif" font-size="14.00" fill="#000000">Weight</text>
</a>
</g>
</g>
<!-- Node14&#45;&gt;Node20 -->
<g id="edge8" class="edge">
<title>Node14&#45;&gt;Node20</title>
<path fill="none" stroke="#191970" d="M116.9309,-137.41C142.5719,-124.1972 187.5114,-102.0822 227.8545,-87.5 234.6248,-85.0528 241.7096,-82.7131 248.8647,-80.5032"/>
<polygon fill="#191970" stroke="#191970" points="250.0686,-83.7963 258.6425,-77.5723 248.0586,-77.0911 250.0686,-83.7963"/>
</g>
<!-- Node21 -->
<g id="node8" class="node">
<title>Node21</title>
<g id="a_node8"><a xlink:href="../../d7/dc3/a00682.html#a324cba2176155a50b5a2239eb0a8b6a0" target="_top" xlink:title="IBaseGameElement::setType">
<polygon fill="none" stroke="#000000" points="233.812,-.5 233.812,-22.5 431.9077,-22.5 431.9077,-.5 233.812,-.5"/>
<text text-anchor="middle" x="332.8599" y="-7.3" font-family="Helvetica,sans-Serif" font-size="14.00" fill="#000000">IBaseGameElement::setType</text>
</a>
</g>
</g>
<!-- Node14&#45;&gt;Node21 -->
<g id="edge9" class="edge">
<title>Node14&#45;&gt;Node21</title>
<path fill="none" stroke="#191970" d="M104.8391,-137.4577C124.4078,-114.0228 173.7259,-59.2718 227.8545,-32.5 233.0855,-29.9128 238.6125,-27.6443 244.2842,-25.6553"/>
<polygon fill="#191970" stroke="#191970" points="245.4822,-28.9468 253.9392,-22.5648 243.3482,-22.28 245.4822,-28.9468"/>
</g>
<!-- Node15&#45;&gt;Node16 -->
<g id="edge2" class="edge">
<title>Node15&#45;&gt;Node16</title>
<path fill="none" stroke="#191970" d="M392.3276,-272.4639C414.3517,-268.3767 439.7693,-263.6597 463.6128,-259.2348"/>
<polygon fill="#191970" stroke="#191970" points="464.5271,-262.6249 473.7205,-257.359 463.2498,-255.7425 464.5271,-262.6249"/>
</g>
<!-- Node17&#45;&gt;Node16 -->
<g id="edge5" class="edge">
<title>Node17&#45;&gt;Node16</title>
<path fill="none" stroke="#191970" d="M407.6402,-212.8064C425.7796,-216.7618 445.299,-221.0182 463.854,-225.0642"/>
<polygon fill="#191970" stroke="#191970" points="463.2351,-228.5115 473.7512,-227.2224 464.7265,-221.6722 463.2351,-228.5115"/>
</g>
</g>
</svg>
        <g id="navigator" transform="translate(0 0)" fill="#404254">
                <rect fill="#f2f5e9" fill-opacity="0.5" stroke="#606060" stroke-width=".5" x="0" y="0" width="60" height="60"/>
                <use id="zoomplus" xlink:href="#zoomPlus" x="17" y="9" onmousedown="handleZoom(evt,'in')"/>
                <use id="zoomminus" xlink:href="#zoomMin" x="42" y="9" onmousedown="handleZoom(evt,'out')"/>
                <use id="reset" xlink:href="#resetDef" x="30" y="36" onmousedown="handleReset()"/>
                <g id="arrowUp" xlink:href="#dirArrow" transform="translate(30 24)" onmousedown="handlePan(0,-1)">
                  <use xlink:href="#rim" fill="#404040">
                        <set attributeName="fill" to="#808080" begin="arrowUp.mouseover" end="arrowUp.mouseout"/>
                  </use>
                  <path fill="none" stroke="white" stroke-width="1.5" d="M0,-3.0v7 M-2.5,-0.5L0,-3.0L2.5,-0.5"/>
                </g>
                <g id="arrowRight" xlink:href="#dirArrow" transform="rotate(90) translate(36 -43)" onmousedown="handlePan(1,0)">
                  <use xlink:href="#rim" fill="#404040">
                        <set attributeName="fill" to="#808080" begin="arrowRight.mouseover" end="arrowRight.mouseout"/>
                  </use>
                  <path fill="none" stroke="white" stroke-width="1.5" d="M0,-3.0v7 M-2.5,-0.5L0,-3.0L2.5,-0.5"/>
                </g>
                <g id="arrowDown" xlink:href="#dirArrow" transform="rotate(180) translate(-30 -48)" onmousedown="handlePan(0,1)">
                  <use xlink:href="#rim" fill="#404040">
                        <set attributeName="fill" to="#808080" begin="arrowDown.mouseover" end="arrowDown.mouseout"/>
                  </use>
                  <path fill="none" stroke="white" stroke-width="1.5" d="M0,-3.0v7 M-2.5,-0.5L0,-3.0L2.5,-0.5"/>
                </g>
                <g id="arrowLeft" xlink:href="#dirArrow" transform="rotate(270) translate(-36 17)" onmousedown="handlePan(-1,0)">
                  <use xlink:href="#rim" fill="#404040">
                        <set attributeName="fill" to="#808080" begin="arrowLeft.mouseover" end="arrowLeft.mouseout"/>
                  </use>
                  <path fill="none" stroke="white" stroke-width="1.5" d="M0,-3.0v7 M-2.5,-0.5L0,-3.0L2.5,-0.5"/>
                </g>
        </g>
        <svg viewBox="0 0 15 15" width="100%" height="30px" preserveAspectRatio="xMaxYMin meet">
         <g id="arrow_out" transform="scale(0.3 0.3)">
          <a xlink:href="a00762_a8961b80aa1df5f628bd4e28e66a51d0b_cgraph_org.svg" target="_base">
           <rect id="button" ry="5" rx="5" y="6" x="6" height="38" width="38"
                fill="#f2f5e9" fill-opacity="0.5" stroke="#606060" stroke-width="1.0"/>
           <path id="arrow"
             d="M 11.500037,31.436501 C 11.940474,20.09759 22.043105,11.32322 32.158766,21.979434 L 37.068811,17.246167 C 37.068811,17.246167 37.088388,32 37.088388,32 L 22.160133,31.978069 C 22.160133,31.978069 26.997745,27.140456 26.997745,27.140456 C 18.528582,18.264221 13.291696,25.230495 11.500037,31.436501 z"
             style="fill:#404040;"/>
          </a>
         </g>
        </svg>
</svg>
