<?xml version="1.0" encoding="UTF-8" standalone="no"?>
<!DOCTYPE svg PUBLIC "-//W3C//DTD SVG 1.1//EN"
 "http://www.w3.org/Graphics/SVG/1.1/DTD/svg11.dtd">
<!-- Generated by graphviz version 2.40.1 (20161225.0304)
 -->
<!-- Title: MapIniter::getRandomGrass Pages: 1 -->
<svg width="673pt" height="31pt"
 viewBox="0.00 0.00 672.71 31.00" xmlns="http://www.w3.org/2000/svg" xmlns:xlink="http://www.w3.org/1999/xlink">
<g id="graph0" class="graph" transform="scale(1 1) rotate(0) translate(4 27)">
<title>MapIniter::getRandomGrass</title>
<!-- Node22 -->
<g id="node1" class="node">
<title>Node22</title>
<polygon fill="#bfbfbf" stroke="#000000" points="0,-.5 0,-22.5 191.8545,-22.5 191.8545,-.5 0,-.5"/>
<text text-anchor="middle" x="95.9272" y="-7.3" font-family="Helvetica,sans-Serif" font-size="14.00" fill="#000000">MapIniter::getRandomGrass</text>
</g>
<!-- Node23 -->
<g id="node2" class="node">
<title>Node23</title>
<g id="a_node2"><a xlink:href="../../df/d5f/a00762.html#ae6dfbed9cc8569db78442c0bfe57e252" target="_top" xlink:title="MapIniter::initSimapleMap">
<polygon fill="none" stroke="#000000" points="227.8545,-.5 227.8545,-22.5 405.7021,-22.5 405.7021,-.5 227.8545,-.5"/>
<text text-anchor="middle" x="316.7783" y="-7.3" font-family="Helvetica,sans-Serif" font-size="14.00" fill="#000000">MapIniter::initSimapleMap</text>
</a>
</g>
</g>
<!-- Node22&#45;&gt;Node23 -->
<g id="edge1" class="edge">
<title>Node22&#45;&gt;Node23</title>
<path fill="none" stroke="#191970" d="M202.1974,-11.5C210.7773,-11.5 219.3906,-11.5 227.8299,-11.5"/>
<polygon fill="#191970" stroke="#191970" points="202.1533,-8.0001 192.1533,-11.5 202.1532,-15.0001 202.1533,-8.0001"/>
</g>
<!-- Node24 -->
<g id="node3" class="node">
<title>Node24</title>
<g id="a_node3"><a xlink:href="../../d8/d4e/a00754.html#a0632599cb00fa2c86ba1c71904c1f59f" target="_top" xlink:title="MainGameLoop::MainGameLoop">
<polygon fill="none" stroke="#000000" points="441.7021,-.5 441.7021,-22.5 664.708,-22.5 664.708,-.5 441.7021,-.5"/>
<text text-anchor="middle" x="553.2051" y="-7.3" font-family="Helvetica,sans-Serif" font-size="14.00" fill="#000000">MainGameLoop::MainGameLoop</text>
</a>
</g>
</g>
<!-- Node23&#45;&gt;Node24 -->
<g id="edge2" class="edge">
<title>Node23&#45;&gt;Node24</title>
<path fill="none" stroke="#191970" d="M416.0161,-11.5C424.4349,-11.5 432.9856,-11.5 441.4912,-11.5"/>
<polygon fill="#191970" stroke="#191970" points="415.8243,-8.0001 405.8242,-11.5 415.8242,-15.0001 415.8243,-8.0001"/>
</g>
</g>
</svg>
