<?xml version="1.0" encoding="UTF-8" standalone="no"?>
<!DOCTYPE svg PUBLIC "-//W3C//DTD SVG 1.1//EN"
 "http://www.w3.org/Graphics/SVG/1.1/DTD/svg11.dtd">
<!-- Generated by graphviz version 2.40.1 (20161225.0304)
 -->
<!-- Title: MainGameLoop::getLooperInstance Pages: 1 -->
<svg width="474pt" height="31pt"
 viewBox="0.00 0.00 473.55 31.00" xmlns="http://www.w3.org/2000/svg" xmlns:xlink="http://www.w3.org/1999/xlink">
<g id="graph0" class="graph" transform="scale(1 1) rotate(0) translate(4 27)">
<title>MainGameLoop::getLooperInstance</title>
<!-- Node20 -->
<g id="node1" class="node">
<title>Node20</title>
<polygon fill="#bfbfbf" stroke="#000000" points="0,-.5 0,-22.5 239.3711,-22.5 239.3711,-.5 0,-.5"/>
<text text-anchor="middle" x="119.6855" y="-7.3" font-family="Helvetica,sans-Serif" font-size="14.00" fill="#000000">MainGameLoop::getLooperInstance</text>
</g>
<!-- Node21 -->
<g id="node2" class="node">
<title>Node21</title>
<g id="a_node2"><a xlink:href="../../d6/db6/a00241.html#a3cfb6b17f20d62ad08b9402764f3aa6c" target="_top" xlink:title="initMainLooper">
<polygon fill="none" stroke="#000000" points="275.3711,-.5 275.3711,-22.5 383.2051,-22.5 383.2051,-.5 275.3711,-.5"/>
<text text-anchor="middle" x="329.2881" y="-7.3" font-family="Helvetica,sans-Serif" font-size="14.00" fill="#000000">initMainLooper</text>
</a>
</g>
</g>
<!-- Node20&#45;&gt;Node21 -->
<g id="edge1" class="edge">
<title>Node20&#45;&gt;Node21</title>
<path fill="none" stroke="#191970" d="M249.6364,-11.5C258.5434,-11.5 267.1927,-11.5 275.306,-11.5"/>
<polygon fill="#191970" stroke="#191970" points="249.4856,-8.0001 239.4856,-11.5 249.4856,-15.0001 249.4856,-8.0001"/>
</g>
<!-- Node22 -->
<g id="node3" class="node">
<title>Node22</title>
<g id="a_node3"><a xlink:href="../../d6/db6/a00241.html#a0ddf1224851353fc92bfbff6f499fa97" target="_top" xlink:title="main">
<polygon fill="none" stroke="#000000" points="419.2051,-.5 419.2051,-22.5 465.5498,-22.5 465.5498,-.5 419.2051,-.5"/>
<text text-anchor="middle" x="442.3774" y="-7.3" font-family="Helvetica,sans-Serif" font-size="14.00" fill="#000000">main</text>
</a>
</g>
</g>
<!-- Node21&#45;&gt;Node22 -->
<g id="edge2" class="edge">
<title>Node21&#45;&gt;Node22</title>
<path fill="none" stroke="#191970" d="M393.7284,-11.5C402.7172,-11.5 411.4345,-11.5 418.9474,-11.5"/>
<polygon fill="#191970" stroke="#191970" points="393.5142,-8.0001 383.5141,-11.5 393.5141,-15.0001 393.5142,-8.0001"/>
</g>
</g>
</svg>
