<?xml version="1.0" encoding="UTF-8" standalone="no"?>
<!DOCTYPE svg PUBLIC "-//W3C//DTD SVG 1.1//EN"
 "http://www.w3.org/Graphics/SVG/1.1/DTD/svg11.dtd">
<!-- Generated by graphviz version 2.40.1 (20161225.0304)
 -->
<!-- Title: std::runtime_error Pages: 1 -->
<svg width="432pt" height="281pt"
 viewBox="0.00 0.00 432.22 281.00" xmlns="http://www.w3.org/2000/svg" xmlns:xlink="http://www.w3.org/1999/xlink">
<g id="graph0" class="graph" transform="scale(1 1) rotate(0) translate(4 277)">
<title>std::runtime_error</title>
<!-- Node795 -->
<g id="node1" class="node">
<title>Node795</title>
<polygon fill="#bfbfbf" stroke="#000000" points="144.7241,-103.5 144.7241,-169.5 271.2065,-169.5 271.2065,-103.5 144.7241,-103.5"/>
<text text-anchor="middle" x="207.9653" y="-154.3" font-family="Helvetica,sans-Serif" font-size="14.00" fill="#000000">std::runtime_error</text>
<polyline fill="none" stroke="#000000" points="144.7241,-147.5 271.2065,-147.5 "/>
<text text-anchor="middle" x="207.9653" y="-132.3" font-family="Helvetica,sans-Serif" font-size="14.00" fill="#000000"> </text>
<polyline fill="none" stroke="#000000" points="144.7241,-125.5 271.2065,-125.5 "/>
<text text-anchor="middle" x="207.9653" y="-110.3" font-family="Helvetica,sans-Serif" font-size="14.00" fill="#000000"> </text>
</g>
<!-- Node797 -->
<g id="node3" class="node">
<title>Node797</title>
<g id="a_node3"><a xlink:title="STL class. ">
<polygon fill="none" stroke="#bfbfbf" points="0,-.5 0,-66.5 131.9307,-66.5 131.9307,-.5 0,-.5"/>
<text text-anchor="middle" x="65.9653" y="-51.3" font-family="Helvetica,sans-Serif" font-size="14.00" fill="#000000">std::overflow_error</text>
<polyline fill="none" stroke="#bfbfbf" points="0,-44.5 131.9307,-44.5 "/>
<text text-anchor="middle" x="65.9653" y="-29.3" font-family="Helvetica,sans-Serif" font-size="14.00" fill="#000000"> </text>
<polyline fill="none" stroke="#bfbfbf" points="0,-22.5 131.9307,-22.5 "/>
<text text-anchor="middle" x="65.9653" y="-7.3" font-family="Helvetica,sans-Serif" font-size="14.00" fill="#000000"> </text>
</a>
</g>
</g>
<!-- Node795&#45;&gt;Node797 -->
<g id="edge2" class="edge">
<title>Node795&#45;&gt;Node797</title>
<path fill="none" stroke="#191970" d="M154.1275,-97.4486C140.1085,-87.2799 125.14,-76.4225 111.591,-66.5947"/>
<polygon fill="none" stroke="#191970" points="152.1042,-100.3048 162.254,-103.3432 156.2143,-94.6384 152.1042,-100.3048"/>
</g>
<!-- Node798 -->
<g id="node4" class="node">
<title>Node798</title>
<g id="a_node4"><a xlink:title="STL class. ">
<polygon fill="none" stroke="#bfbfbf" points="150.1621,-.5 150.1621,-66.5 265.7686,-66.5 265.7686,-.5 150.1621,-.5"/>
<text text-anchor="middle" x="207.9653" y="-51.3" font-family="Helvetica,sans-Serif" font-size="14.00" fill="#000000">std::range_error</text>
<polyline fill="none" stroke="#bfbfbf" points="150.1621,-44.5 265.7686,-44.5 "/>
<text text-anchor="middle" x="207.9653" y="-29.3" font-family="Helvetica,sans-Serif" font-size="14.00" fill="#000000"> </text>
<polyline fill="none" stroke="#bfbfbf" points="150.1621,-22.5 265.7686,-22.5 "/>
<text text-anchor="middle" x="207.9653" y="-7.3" font-family="Helvetica,sans-Serif" font-size="14.00" fill="#000000"> </text>
</a>
</g>
</g>
<!-- Node795&#45;&gt;Node798 -->
<g id="edge3" class="edge">
<title>Node795&#45;&gt;Node798</title>
<path fill="none" stroke="#191970" d="M207.9653,-93.1362C207.9653,-84.256 207.9653,-75.0447 207.9653,-66.5947"/>
<polygon fill="none" stroke="#191970" points="204.4654,-93.3432 207.9653,-103.3432 211.4654,-93.3432 204.4654,-93.3432"/>
</g>
<!-- Node799 -->
<g id="node5" class="node">
<title>Node799</title>
<g id="a_node5"><a xlink:title="STL class. ">
<polygon fill="none" stroke="#bfbfbf" points="283.7139,-.5 283.7139,-66.5 424.2168,-66.5 424.2168,-.5 283.7139,-.5"/>
<text text-anchor="middle" x="353.9653" y="-51.3" font-family="Helvetica,sans-Serif" font-size="14.00" fill="#000000">std::underflow_error</text>
<polyline fill="none" stroke="#bfbfbf" points="283.7139,-44.5 424.2168,-44.5 "/>
<text text-anchor="middle" x="353.9653" y="-29.3" font-family="Helvetica,sans-Serif" font-size="14.00" fill="#000000"> </text>
<polyline fill="none" stroke="#bfbfbf" points="283.7139,-22.5 424.2168,-22.5 "/>
<text text-anchor="middle" x="353.9653" y="-7.3" font-family="Helvetica,sans-Serif" font-size="14.00" fill="#000000"> </text>
</a>
</g>
</g>
<!-- Node795&#45;&gt;Node799 -->
<g id="edge4" class="edge">
<title>Node795&#45;&gt;Node799</title>
<path fill="none" stroke="#191970" d="M263.3197,-97.4486C277.7336,-87.2799 293.1238,-76.4225 307.0544,-66.5947"/>
<polygon fill="none" stroke="#191970" points="261.1179,-94.7186 254.9643,-103.3432 265.1532,-100.4385 261.1179,-94.7186"/>
</g>
<!-- Node796 -->
<g id="node2" class="node">
<title>Node796</title>
<g id="a_node2"><a xlink:title="STL class. ">
<polygon fill="none" stroke="#bfbfbf" points="156.7725,-206.5 156.7725,-272.5 259.1582,-272.5 259.1582,-206.5 156.7725,-206.5"/>
<text text-anchor="middle" x="207.9653" y="-257.3" font-family="Helvetica,sans-Serif" font-size="14.00" fill="#000000">std::exception</text>
<polyline fill="none" stroke="#bfbfbf" points="156.7725,-250.5 259.1582,-250.5 "/>
<text text-anchor="middle" x="207.9653" y="-235.3" font-family="Helvetica,sans-Serif" font-size="14.00" fill="#000000"> </text>
<polyline fill="none" stroke="#bfbfbf" points="156.7725,-228.5 259.1582,-228.5 "/>
<text text-anchor="middle" x="207.9653" y="-213.3" font-family="Helvetica,sans-Serif" font-size="14.00" fill="#000000"> </text>
</a>
</g>
</g>
<!-- Node796&#45;&gt;Node795 -->
<g id="edge1" class="edge">
<title>Node796&#45;&gt;Node795</title>
<path fill="none" stroke="#191970" d="M207.9653,-196.1362C207.9653,-187.256 207.9653,-178.0447 207.9653,-169.5947"/>
<polygon fill="none" stroke="#191970" points="204.4654,-196.3432 207.9653,-206.3432 211.4654,-196.3432 204.4654,-196.3432"/>
</g>
</g>
</svg>
