<?xml version="1.0" encoding="UTF-8" standalone="no"?>
<!DOCTYPE svg PUBLIC "-//W3C//DTD SVG 1.1//EN"
 "http://www.w3.org/Graphics/SVG/1.1/DTD/svg11.dtd">
<!-- Generated by graphviz version 2.40.1 (20161225.0304)
 -->
<!-- Title: Server/mapiniter.h Pages: 1 -->
<svg width="350pt" height="90pt"
 viewBox="0.00 0.00 349.91 90.00" xmlns="http://www.w3.org/2000/svg" xmlns:xlink="http://www.w3.org/1999/xlink">
<g id="graph0" class="graph" transform="scale(1 1) rotate(0) translate(4 86)">
<title>Server/mapiniter.h</title>
<!-- Node14 -->
<g id="node1" class="node">
<title>Node14</title>
<polygon fill="#bfbfbf" stroke="#000000" points="114.9033,-59.5 114.9033,-81.5 244.5166,-81.5 244.5166,-59.5 114.9033,-59.5"/>
<text text-anchor="middle" x="179.71" y="-66.3" font-family="Helvetica,sans-Serif" font-size="14.00" fill="#000000">Server/mapiniter.h</text>
</g>
<!-- Node15 -->
<g id="node2" class="node">
<title>Node15</title>
<g id="a_node2"><a xlink:href="$dd/d30/maingameloop_8cpp.html" xlink:title="Server/maingameloop.cpp">
<polygon fill="none" stroke="#000000" points="0,-.5 0,-22.5 179.4199,-22.5 179.4199,-.5 0,-.5"/>
<text text-anchor="middle" x="89.71" y="-7.3" font-family="Helvetica,sans-Serif" font-size="14.00" fill="#000000">Server/maingameloop.cpp</text>
</a>
</g>
</g>
<!-- Node14&#45;&gt;Node15 -->
<g id="edge1" class="edge">
<title>Node14&#45;&gt;Node15</title>
<path fill="none" stroke="#191970" d="M154.2888,-53.835C139.0106,-43.8193 119.9921,-31.3516 106.5624,-22.5477"/>
<polygon fill="#191970" stroke="#191970" points="152.4996,-56.8471 162.7816,-59.4026 156.3374,-50.9929 152.4996,-56.8471"/>
</g>
<!-- Node16 -->
<g id="node3" class="node">
<title>Node16</title>
<g id="a_node3"><a xlink:href="$d5/d55/mapiniter_8cpp.html" xlink:title="Server/mapiniter.cpp">
<polygon fill="none" stroke="#000000" points="197.5103,-.5 197.5103,-22.5 341.9097,-22.5 341.9097,-.5 197.5103,-.5"/>
<text text-anchor="middle" x="269.71" y="-7.3" font-family="Helvetica,sans-Serif" font-size="14.00" fill="#000000">Server/mapiniter.cpp</text>
</a>
</g>
</g>
<!-- Node14&#45;&gt;Node16 -->
<g id="edge2" class="edge">
<title>Node14&#45;&gt;Node16</title>
<path fill="none" stroke="#191970" d="M205.1311,-53.835C220.4093,-43.8193 239.4279,-31.3516 252.8576,-22.5477"/>
<polygon fill="#191970" stroke="#191970" points="203.0825,-50.9929 196.6383,-59.4026 206.9203,-56.8471 203.0825,-50.9929"/>
</g>
</g>
</svg>
