<?xml version="1.0" encoding="UTF-8" standalone="no"?>
<!DOCTYPE svg PUBLIC "-//W3C//DTD SVG 1.1//EN"
 "http://www.w3.org/Graphics/SVG/1.1/DTD/svg11.dtd">
<!-- Generated by graphviz version 2.40.1 (20161225.0304)
 -->
<!-- Title: std::basic_ofstream&lt; Char &gt; Pages: 1 -->
<svg width="665pt" height="546pt"
 viewBox="0.00 0.00 664.83 546.00" xmlns="http://www.w3.org/2000/svg" xmlns:xlink="http://www.w3.org/1999/xlink">
<g id="graph0" class="graph" transform="scale(1 1) rotate(0) translate(4 542)">
<title>std::basic_ofstream&lt; Char &gt;</title>
<!-- Node224 -->
<g id="node1" class="node">
<title>Node224</title>
<polygon fill="#bfbfbf" stroke="#000000" points="275.4482,-131.5 275.4482,-211.5 412.834,-211.5 412.834,-131.5 275.4482,-131.5"/>
<text text-anchor="start" x="283.4482" y="-196.3" font-family="Helvetica,sans-Serif" font-size="14.00" fill="#000000">std::basic_ofstream</text>
<text text-anchor="middle" x="344.1411" y="-182.3" font-family="Helvetica,sans-Serif" font-size="14.00" fill="#000000">&lt; Char &gt;</text>
<polyline fill="none" stroke="#000000" points="275.4482,-175.5 412.834,-175.5 "/>
<text text-anchor="middle" x="344.1411" y="-160.3" font-family="Helvetica,sans-Serif" font-size="14.00" fill="#000000"> </text>
<polyline fill="none" stroke="#000000" points="275.4482,-153.5 412.834,-153.5 "/>
<text text-anchor="middle" x="344.1411" y="-138.3" font-family="Helvetica,sans-Serif" font-size="14.00" fill="#000000"> </text>
</g>
<!-- Node228 -->
<g id="node5" class="node">
<title>Node228</title>
<g id="a_node5"><a xlink:title="STL class. ">
<polygon fill="none" stroke="#bfbfbf" points="0,-7.5 0,-73.5 148.2822,-73.5 148.2822,-7.5 0,-7.5"/>
<text text-anchor="middle" x="74.1411" y="-58.3" font-family="Helvetica,sans-Serif" font-size="14.00" fill="#000000">std::ofstream&lt; char &gt;</text>
<polyline fill="none" stroke="#bfbfbf" points="0,-51.5 148.2822,-51.5 "/>
<text text-anchor="middle" x="74.1411" y="-36.3" font-family="Helvetica,sans-Serif" font-size="14.00" fill="#000000"> </text>
<polyline fill="none" stroke="#bfbfbf" points="0,-29.5 148.2822,-29.5 "/>
<text text-anchor="middle" x="74.1411" y="-14.3" font-family="Helvetica,sans-Serif" font-size="14.00" fill="#000000"> </text>
</a>
</g>
</g>
<!-- Node224&#45;&gt;Node228 -->
<g id="edge4" class="edge">
<title>Node224&#45;&gt;Node228</title>
<path fill="none" stroke="#191970" d="M265.9997,-133.7523C232.473,-117.5387 192.8718,-98.3634 157.1411,-81 152.238,-78.6173 147.1731,-76.1531 142.0761,-73.6711"/>
<polygon fill="none" stroke="#191970" points="264.7602,-137.0406 275.2866,-138.2429 267.8074,-130.7387 264.7602,-137.0406"/>
</g>
<!-- Node229 -->
<g id="node6" class="node">
<title>Node229</title>
<g id="a_node6"><a xlink:title="STL class. ">
<polygon fill="none" stroke="#bfbfbf" points="166.0518,-7.5 166.0518,-73.5 346.2305,-73.5 346.2305,-7.5 166.0518,-7.5"/>
<text text-anchor="middle" x="256.1411" y="-58.3" font-family="Helvetica,sans-Serif" font-size="14.00" fill="#000000">std::wofstream&lt; wchar_t &gt;</text>
<polyline fill="none" stroke="#bfbfbf" points="166.0518,-51.5 346.2305,-51.5 "/>
<text text-anchor="middle" x="256.1411" y="-36.3" font-family="Helvetica,sans-Serif" font-size="14.00" fill="#000000"> </text>
<polyline fill="none" stroke="#bfbfbf" points="166.0518,-29.5 346.2305,-29.5 "/>
<text text-anchor="middle" x="256.1411" y="-14.3" font-family="Helvetica,sans-Serif" font-size="14.00" fill="#000000"> </text>
</a>
</g>
</g>
<!-- Node224&#45;&gt;Node229 -->
<g id="edge5" class="edge">
<title>Node224&#45;&gt;Node229</title>
<path fill="none" stroke="#191970" d="M311.5963,-123.0526C300.5544,-106.6152 288.478,-88.6378 278.4219,-73.6679"/>
<polygon fill="none" stroke="#191970" points="308.7785,-125.1346 317.26,-131.4839 314.5891,-121.2312 308.7785,-125.1346"/>
</g>
<!-- Node230 -->
<g id="node7" class="node">
<title>Node230</title>
<polygon fill="none" stroke="#bfbfbf" points="364.4482,-.5 364.4482,-80.5 501.834,-80.5 501.834,-.5 364.4482,-.5"/>
<text text-anchor="start" x="372.4482" y="-65.3" font-family="Helvetica,sans-Serif" font-size="14.00" fill="#000000">std::basic_ofstream</text>
<text text-anchor="middle" x="433.1411" y="-51.3" font-family="Helvetica,sans-Serif" font-size="14.00" fill="#000000">&lt; wchar_t &gt;</text>
<polyline fill="none" stroke="#bfbfbf" points="364.4482,-44.5 501.834,-44.5 "/>
<text text-anchor="middle" x="433.1411" y="-29.3" font-family="Helvetica,sans-Serif" font-size="14.00" fill="#000000"> </text>
<polyline fill="none" stroke="#bfbfbf" points="364.4482,-22.5 501.834,-22.5 "/>
<text text-anchor="middle" x="433.1411" y="-7.3" font-family="Helvetica,sans-Serif" font-size="14.00" fill="#000000"> </text>
</g>
<!-- Node224&#45;&gt;Node230 -->
<g id="edge6" class="edge">
<title>Node224&#45;&gt;Node230</title>
<path fill="none" stroke="#ffa500" d="M377.0982,-122.9901C386.5478,-109.0811 396.7434,-94.0742 405.8144,-80.7225"/>
<polygon fill="#ffa500" stroke="#ffa500" points="374.0523,-121.2453 371.3276,-131.4839 379.8424,-125.1791 374.0523,-121.2453"/>
<text text-anchor="middle" x="430.6616" y="-101.8" font-family="Helvetica,sans-Serif" font-size="14.00" fill="#000000"> &lt; wchar_t &gt;</text>
</g>
<!-- Node231 -->
<g id="node8" class="node">
<title>Node231</title>
<polygon fill="none" stroke="#bfbfbf" points="519.4482,-.5 519.4482,-80.5 656.834,-80.5 656.834,-.5 519.4482,-.5"/>
<text text-anchor="start" x="527.4482" y="-65.3" font-family="Helvetica,sans-Serif" font-size="14.00" fill="#000000">std::basic_ofstream</text>
<text text-anchor="middle" x="588.1411" y="-51.3" font-family="Helvetica,sans-Serif" font-size="14.00" fill="#000000">&lt; char &gt;</text>
<polyline fill="none" stroke="#bfbfbf" points="519.4482,-44.5 656.834,-44.5 "/>
<text text-anchor="middle" x="588.1411" y="-29.3" font-family="Helvetica,sans-Serif" font-size="14.00" fill="#000000"> </text>
<polyline fill="none" stroke="#bfbfbf" points="519.4482,-22.5 656.834,-22.5 "/>
<text text-anchor="middle" x="588.1411" y="-7.3" font-family="Helvetica,sans-Serif" font-size="14.00" fill="#000000"> </text>
</g>
<!-- Node224&#45;&gt;Node231 -->
<g id="edge7" class="edge">
<title>Node224&#45;&gt;Node231</title>
<path fill="none" stroke="#ffa500" d="M422.2854,-138.1358C439.2642,-130.3142 456.9749,-121.7087 473.1411,-113 491.3224,-103.2058 510.5099,-91.637 527.8918,-80.651"/>
<polygon fill="#ffa500" stroke="#ffa500" points="420.589,-135.0626 412.9425,-142.3962 423.4933,-141.4317 420.589,-135.0626"/>
<text text-anchor="middle" x="523.7686" y="-101.8" font-family="Helvetica,sans-Serif" font-size="14.00" fill="#000000"> &lt; char &gt;</text>
</g>
<!-- Node225 -->
<g id="node2" class="node">
<title>Node225</title>
<g id="a_node2"><a xlink:title="STL class. ">
<polygon fill="none" stroke="#bfbfbf" points="277.3931,-249.5 277.3931,-329.5 410.8892,-329.5 410.8892,-249.5 277.3931,-249.5"/>
<text text-anchor="start" x="285.3931" y="-314.3" font-family="Helvetica,sans-Serif" font-size="14.00" fill="#000000">std::basic_ostream</text>
<text text-anchor="middle" x="344.1411" y="-300.3" font-family="Helvetica,sans-Serif" font-size="14.00" fill="#000000">&lt; Char &gt;</text>
<polyline fill="none" stroke="#bfbfbf" points="277.3931,-293.5 410.8892,-293.5 "/>
<text text-anchor="middle" x="344.1411" y="-278.3" font-family="Helvetica,sans-Serif" font-size="14.00" fill="#000000"> </text>
<polyline fill="none" stroke="#bfbfbf" points="277.3931,-271.5 410.8892,-271.5 "/>
<text text-anchor="middle" x="344.1411" y="-256.3" font-family="Helvetica,sans-Serif" font-size="14.00" fill="#000000"> </text>
</a>
</g>
</g>
<!-- Node225&#45;&gt;Node224 -->
<g id="edge1" class="edge">
<title>Node225&#45;&gt;Node224</title>
<path fill="none" stroke="#191970" d="M344.1411,-239.0368C344.1411,-229.8676 344.1411,-220.4174 344.1411,-211.5973"/>
<polygon fill="none" stroke="#191970" points="340.6412,-239.2211 344.1411,-249.2211 347.6412,-239.2212 340.6412,-239.2211"/>
</g>
<!-- Node226 -->
<g id="node3" class="node">
<title>Node226</title>
<g id="a_node3"><a xlink:title="STL class. ">
<polygon fill="none" stroke="#bfbfbf" points="266.4932,-367.5 266.4932,-433.5 421.7891,-433.5 421.7891,-367.5 266.4932,-367.5"/>
<text text-anchor="middle" x="344.1411" y="-418.3" font-family="Helvetica,sans-Serif" font-size="14.00" fill="#000000">std::basic_ios&lt; Char &gt;</text>
<polyline fill="none" stroke="#bfbfbf" points="266.4932,-411.5 421.7891,-411.5 "/>
<text text-anchor="middle" x="344.1411" y="-396.3" font-family="Helvetica,sans-Serif" font-size="14.00" fill="#000000"> </text>
<polyline fill="none" stroke="#bfbfbf" points="266.4932,-389.5 421.7891,-389.5 "/>
<text text-anchor="middle" x="344.1411" y="-374.3" font-family="Helvetica,sans-Serif" font-size="14.00" fill="#000000"> </text>
</a>
</g>
</g>
<!-- Node226&#45;&gt;Node225 -->
<g id="edge2" class="edge">
<title>Node226&#45;&gt;Node225</title>
<path fill="none" stroke="#191970" d="M344.1411,-357.4312C344.1411,-348.2871 344.1411,-338.6684 344.1411,-329.6385"/>
<polygon fill="none" stroke="#191970" points="340.6412,-357.4968 344.1411,-367.4969 347.6412,-357.4969 340.6412,-357.4968"/>
</g>
<!-- Node227 -->
<g id="node4" class="node">
<title>Node227</title>
<g id="a_node4"><a xlink:title="STL class. ">
<polygon fill="none" stroke="#bfbfbf" points="294.8931,-471.5 294.8931,-537.5 393.3892,-537.5 393.3892,-471.5 294.8931,-471.5"/>
<text text-anchor="middle" x="344.1411" y="-522.3" font-family="Helvetica,sans-Serif" font-size="14.00" fill="#000000">std::ios_base</text>
<polyline fill="none" stroke="#bfbfbf" points="294.8931,-515.5 393.3892,-515.5 "/>
<text text-anchor="middle" x="344.1411" y="-500.3" font-family="Helvetica,sans-Serif" font-size="14.00" fill="#000000"> </text>
<polyline fill="none" stroke="#bfbfbf" points="294.8931,-493.5 393.3892,-493.5 "/>
<text text-anchor="middle" x="344.1411" y="-478.3" font-family="Helvetica,sans-Serif" font-size="14.00" fill="#000000"> </text>
</a>
</g>
</g>
<!-- Node227&#45;&gt;Node226 -->
<g id="edge3" class="edge">
<title>Node227&#45;&gt;Node226</title>
<path fill="none" stroke="#191970" d="M344.1411,-461.1737C344.1411,-452.0025 344.1411,-442.4608 344.1411,-433.7336"/>
<polygon fill="none" stroke="#191970" points="340.6412,-461.3078 344.1411,-471.3078 347.6412,-461.3078 340.6412,-461.3078"/>
</g>
</g>
</svg>
