<?xml version="1.0" encoding="UTF-8" standalone="no"?>
<!DOCTYPE svg PUBLIC "-//W3C//DTD SVG 1.1//EN"
 "http://www.w3.org/Graphics/SVG/1.1/DTD/svg11.dtd">
<!-- Generated by graphviz version 2.40.1 (20161225.0304)
 -->
<!-- Title: std::multiset&lt; K &gt; Pages: 1 -->
<svg width="132pt" height="192pt"
 viewBox="0.00 0.00 132.16 192.00" xmlns="http://www.w3.org/2000/svg" xmlns:xlink="http://www.w3.org/1999/xlink">
<g id="graph0" class="graph" transform="scale(1 1) rotate(0) translate(4 188)">
<title>std::multiset&lt; K &gt;</title>
<!-- Node666 -->
<g id="node1" class="node">
<title>Node666</title>
<polygon fill="#bfbfbf" stroke="#000000" points="0,-.5 0,-66.5 124.1582,-66.5 124.1582,-.5 0,-.5"/>
<text text-anchor="middle" x="62.0791" y="-51.3" font-family="Helvetica,sans-Serif" font-size="14.00" fill="#000000">std::multiset&lt; K &gt;</text>
<polyline fill="none" stroke="#000000" points="0,-44.5 124.1582,-44.5 "/>
<text text-anchor="middle" x="62.0791" y="-29.3" font-family="Helvetica,sans-Serif" font-size="14.00" fill="#000000"> </text>
<polyline fill="none" stroke="#000000" points="0,-22.5 124.1582,-22.5 "/>
<text text-anchor="middle" x="62.0791" y="-7.3" font-family="Helvetica,sans-Serif" font-size="14.00" fill="#000000"> </text>
</g>
<!-- Node667 -->
<g id="node2" class="node">
<title>Node667</title>
<polygon fill="none" stroke="#bfbfbf" points="47.5791,-117.5 47.5791,-183.5 76.5791,-183.5 76.5791,-117.5 47.5791,-117.5"/>
<text text-anchor="middle" x="61.748" y="-168.3" font-family="Helvetica,sans-Serif" font-size="14.00" fill="#000000">K</text>
<polyline fill="none" stroke="#bfbfbf" points="47.5791,-161.5 75.917,-161.5 "/>
<text text-anchor="middle" x="61.748" y="-146.3" font-family="Helvetica,sans-Serif" font-size="14.00" fill="#000000"> </text>
<polyline fill="none" stroke="#bfbfbf" points="47.5791,-139.5 75.917,-139.5 "/>
<text text-anchor="middle" x="61.748" y="-124.3" font-family="Helvetica,sans-Serif" font-size="14.00" fill="#000000"> </text>
</g>
<!-- Node667&#45;&gt;Node666 -->
<g id="edge1" class="edge">
<title>Node667&#45;&gt;Node666</title>
<path fill="none" stroke="#404040" d="M62.0791,-117.2855C62.0791,-105.4288 62.0791,-91.8562 62.0791,-79.1371"/>
<polygon fill="none" stroke="#404040" points="62.0792,-78.7976 58.0792,-72.7976 62.0791,-66.7976 66.0792,-72.7976 62.0792,-78.7976"/>
<text text-anchor="middle" x="82.5049" y="-87.8" font-family="Helvetica,sans-Serif" font-size="14.00" fill="#000000"> +keys</text>
</g>
</g>
</svg>
