<?xml version="1.0" encoding="UTF-8" standalone="no"?>
<!DOCTYPE svg PUBLIC "-//W3C//DTD SVG 1.1//EN"
 "http://www.w3.org/Graphics/SVG/1.1/DTD/svg11.dtd">
<!-- Generated by graphviz version 2.40.1 (20161225.0304)
 -->
<!-- Title: Server/serverconnection.h Pages: 1 -->
<svg width="956pt" height="385pt"
 viewBox="0.00 0.00 955.80 385.00" xmlns="http://www.w3.org/2000/svg" xmlns:xlink="http://www.w3.org/1999/xlink">
<g id="graph0" class="graph" transform="scale(1 1) rotate(0) translate(4 381)">
<title>Server/serverconnection.h</title>
<!-- Node0 -->
<g id="node1" class="node">
<title>Node0</title>
<polygon fill="#bfbfbf" stroke="#000000" points="302.9175,-354.5 302.9175,-376.5 482.3306,-376.5 482.3306,-354.5 302.9175,-354.5"/>
<text text-anchor="middle" x="392.624" y="-361.3" font-family="Helvetica,sans-Serif" font-size="14.00" fill="#000000">Server/serverconnection.h</text>
</g>
<!-- Node1 -->
<g id="node2" class="node">
<title>Node1</title>
<polygon fill="none" stroke="#bfbfbf" points="0,-118.5 0,-140.5 71.248,-140.5 71.248,-118.5 0,-118.5"/>
<text text-anchor="middle" x="35.624" y="-125.3" font-family="Helvetica,sans-Serif" font-size="14.00" fill="#000000">QThread</text>
</g>
<!-- Node0&#45;&gt;Node1 -->
<g id="edge1" class="edge">
<title>Node0&#45;&gt;Node1</title>
<path fill="none" stroke="#191970" d="M302.9062,-357.6863C232.8425,-350.2546 142.24,-337.3163 110.624,-318 58.9721,-286.4425 57.1679,-258.7561 42.624,-200 38.613,-183.7959 36.8875,-164.9583 36.1515,-150.8338"/>
<polygon fill="#191970" stroke="#191970" points="39.6415,-150.5108 35.7485,-140.6571 32.647,-150.7878 39.6415,-150.5108"/>
</g>
<!-- Node2 -->
<g id="node3" class="node">
<title>Node2</title>
<polygon fill="none" stroke="#bfbfbf" points="547.6689,-295.5 547.6689,-317.5 637.5791,-317.5 637.5791,-295.5 547.6689,-295.5"/>
<text text-anchor="middle" x="592.624" y="-302.3" font-family="Helvetica,sans-Serif" font-size="14.00" fill="#000000">QTcpServer</text>
</g>
<!-- Node0&#45;&gt;Node2 -->
<g id="edge2" class="edge">
<title>Node0&#45;&gt;Node2</title>
<path fill="none" stroke="#191970" d="M430.2425,-354.4026C462.7868,-344.802 510.0077,-330.8718 545.1471,-320.5057"/>
<polygon fill="#191970" stroke="#191970" points="546.5732,-323.7342 555.1742,-317.5477 544.5925,-317.0202 546.5732,-323.7342"/>
</g>
<!-- Node3 -->
<g id="node4" class="node">
<title>Node3</title>
<polygon fill="none" stroke="#bfbfbf" points="666.2861,-177.5 666.2861,-199.5 714.9619,-199.5 714.9619,-177.5 666.2861,-177.5"/>
<text text-anchor="middle" x="690.624" y="-184.3" font-family="Helvetica,sans-Serif" font-size="14.00" fill="#000000">QList</text>
</g>
<!-- Node0&#45;&gt;Node3 -->
<g id="edge3" class="edge">
<title>Node0&#45;&gt;Node3</title>
<path fill="none" stroke="#191970" d="M411.2653,-354.4279C462.0644,-324.2552 603.1301,-240.4679 663.0894,-204.8545"/>
<polygon fill="#191970" stroke="#191970" points="665.1794,-207.6839 671.9898,-199.568 661.6047,-201.6655 665.1794,-207.6839"/>
</g>
<!-- Node4 -->
<g id="node5" class="node">
<title>Node4</title>
<g id="a_node5"><a xlink:href="../../d8/dfb/serverworker_8h.html" target="_top" xlink:title="serverworker.h">
<polygon fill="none" stroke="#000000" points="119.7173,-295.5 119.7173,-317.5 227.5308,-317.5 227.5308,-295.5 119.7173,-295.5"/>
<text text-anchor="middle" x="173.624" y="-302.3" font-family="Helvetica,sans-Serif" font-size="14.00" fill="#000000">serverworker.h</text>
</a>
</g>
</g>
<!-- Node0&#45;&gt;Node4 -->
<g id="edge4" class="edge">
<title>Node0&#45;&gt;Node4</title>
<path fill="none" stroke="#191970" d="M351.6887,-354.4718C315.7765,-344.7968 263.4003,-330.6863 224.7431,-320.2718"/>
<polygon fill="#191970" stroke="#191970" points="225.2961,-316.7961 214.7299,-317.5742 223.4751,-323.5551 225.2961,-316.7961"/>
</g>
<!-- Node7 -->
<g id="node8" class="node">
<title>Node7</title>
<g id="a_node8"><a xlink:href="../../d2/d35/mailboxelement_8h.html" target="_top" xlink:title="connection/mailboxelement.h">
<polygon fill="none" stroke="#000000" points="293.959,-236.5 293.959,-258.5 491.2891,-258.5 491.2891,-236.5 293.959,-236.5"/>
<text text-anchor="middle" x="392.624" y="-243.3" font-family="Helvetica,sans-Serif" font-size="14.00" fill="#000000">connection/mailboxelement.h</text>
</a>
</g>
</g>
<!-- Node0&#45;&gt;Node7 -->
<g id="edge31" class="edge">
<title>Node0&#45;&gt;Node7</title>
<path fill="none" stroke="#191970" d="M392.624,-354.1857C392.624,-334.5765 392.624,-293.9772 392.624,-268.9041"/>
<polygon fill="#191970" stroke="#191970" points="396.1241,-268.6078 392.624,-258.6078 389.1241,-268.6078 396.1241,-268.6078"/>
</g>
<!-- Node4&#45;&gt;Node1 -->
<g id="edge6" class="edge">
<title>Node4&#45;&gt;Node1</title>
<path fill="none" stroke="#191970" d="M141.0697,-295.4364C122.6573,-287.7357 100.4279,-275.8057 85.624,-259 57.7616,-227.3699 44.6321,-178.5121 39.1097,-150.7312"/>
<polygon fill="#191970" stroke="#191970" points="42.4888,-149.7531 37.2417,-140.5489 35.6037,-151.0163 42.4888,-149.7531"/>
</g>
<!-- Node5 -->
<g id="node6" class="node">
<title>Node5</title>
<polygon fill="none" stroke="#bfbfbf" points="127.8862,-118.5 127.8862,-140.5 219.3618,-140.5 219.3618,-118.5 127.8862,-118.5"/>
<text text-anchor="middle" x="173.624" y="-125.3" font-family="Helvetica,sans-Serif" font-size="14.00" fill="#000000">QTcpSocket</text>
</g>
<!-- Node4&#45;&gt;Node5 -->
<g id="edge5" class="edge">
<title>Node4&#45;&gt;Node5</title>
<path fill="none" stroke="#191970" d="M173.624,-295.4279C173.624,-266.6211 173.624,-188.9437 173.624,-150.9776"/>
<polygon fill="#191970" stroke="#191970" points="177.1241,-150.5679 173.624,-140.568 170.1241,-150.568 177.1241,-150.5679"/>
</g>
<!-- Node6 -->
<g id="node7" class="node">
<title>Node6</title>
<polygon fill="none" stroke="#bfbfbf" points="418.8311,-.5 418.8311,-22.5 520.417,-22.5 520.417,-.5 418.8311,-.5"/>
<text text-anchor="middle" x="469.624" y="-7.3" font-family="Helvetica,sans-Serif" font-size="14.00" fill="#000000">QDataStream</text>
</g>
<!-- Node4&#45;&gt;Node6 -->
<g id="edge7" class="edge">
<title>Node4&#45;&gt;Node6</title>
<path fill="none" stroke="#191970" d="M160.3943,-295.259C139.1093,-275.8388 99.624,-233.7189 99.624,-188.5 99.624,-188.5 99.624,-188.5 99.624,-129.5 99.624,-65.4726 303.2759,-31.5002 408.4024,-18.2287"/>
<polygon fill="#191970" stroke="#191970" points="409.071,-21.6728 418.5656,-16.9714 408.2115,-14.7257 409.071,-21.6728"/>
</g>
<!-- Node4&#45;&gt;Node7 -->
<g id="edge8" class="edge">
<title>Node4&#45;&gt;Node7</title>
<path fill="none" stroke="#191970" d="M214.5593,-295.4718C250.4716,-285.7968 302.8478,-271.6863 341.505,-261.2718"/>
<polygon fill="#191970" stroke="#191970" points="342.7729,-264.5551 351.5182,-258.5742 340.9519,-257.7961 342.7729,-264.5551"/>
</g>
<!-- Node7&#45;&gt;Node3 -->
<g id="edge27" class="edge">
<title>Node7&#45;&gt;Node3</title>
<path fill="none" stroke="#191970" d="M473.0642,-236.4636C523.4898,-228.7576 589.9025,-217.1766 656.4335,-200.0446"/>
<polygon fill="#191970" stroke="#191970" points="657.4602,-203.3938 666.2485,-197.4764 655.6882,-196.6218 657.4602,-203.3938"/>
</g>
<!-- Node8 -->
<g id="node9" class="node">
<title>Node8</title>
<g id="a_node9"><a xlink:href="../../d1/d70/simpleconnection_8h.html" target="_top" xlink:title="simpleconnection.h">
<polygon fill="none" stroke="#000000" points="209.7002,-177.5 209.7002,-199.5 345.5479,-199.5 345.5479,-177.5 209.7002,-177.5"/>
<text text-anchor="middle" x="277.624" y="-184.3" font-family="Helvetica,sans-Serif" font-size="14.00" fill="#000000">simpleconnection.h</text>
</a>
</g>
</g>
<!-- Node7&#45;&gt;Node8 -->
<g id="edge9" class="edge">
<title>Node7&#45;&gt;Node8</title>
<path fill="none" stroke="#191970" d="M370.9934,-236.4026C353.2442,-227.2964 327.9028,-214.2952 308.0983,-204.1346"/>
<polygon fill="#191970" stroke="#191970" points="309.6527,-200.9984 299.1577,-199.5477 306.4574,-207.2266 309.6527,-200.9984"/>
</g>
<!-- Node11 -->
<g id="node12" class="node">
<title>Node11</title>
<polygon fill="none" stroke="#bfbfbf" points="603.1621,-118.5 603.1621,-140.5 672.0859,-140.5 672.0859,-118.5 603.1621,-118.5"/>
<text text-anchor="middle" x="637.624" y="-125.3" font-family="Helvetica,sans-Serif" font-size="14.00" fill="#000000">QQueue</text>
</g>
<!-- Node7&#45;&gt;Node11 -->
<g id="edge29" class="edge">
<title>Node7&#45;&gt;Node11</title>
<path fill="none" stroke="#191970" d="M395.4766,-236.2704C400.0927,-220.4842 410.7543,-191.9881 430.624,-177 487.6399,-133.9919 519.3218,-156.4921 592.7727,-141.2193"/>
<polygon fill="#191970" stroke="#191970" points="593.9426,-144.5432 602.9247,-138.9244 592.3991,-137.7155 593.9426,-144.5432"/>
</g>
<!-- Node12 -->
<g id="node13" class="node">
<title>Node12</title>
<g id="a_node13"><a xlink:href="../../d0/d4c/ibasegameelement_8h.html" target="_top" xlink:title="ibasegameelement.h">
<polygon fill="none" stroke="#000000" points="439.6382,-118.5 439.6382,-140.5 585.6099,-140.5 585.6099,-118.5 439.6382,-118.5"/>
<text text-anchor="middle" x="512.624" y="-125.3" font-family="Helvetica,sans-Serif" font-size="14.00" fill="#000000">ibasegameelement.h</text>
</a>
</g>
</g>
<!-- Node7&#45;&gt;Node12 -->
<g id="edge26" class="edge">
<title>Node7&#45;&gt;Node12</title>
<path fill="none" stroke="#191970" d="M390.0821,-236.2797C387.364,-221.2685 384.9893,-194.514 397.624,-177 408.7139,-161.6275 425.7129,-151.2126 443.267,-144.1629"/>
<polygon fill="#191970" stroke="#191970" points="444.8563,-147.3082 453.0425,-140.5824 442.4487,-140.7352 444.8563,-147.3082"/>
</g>
<!-- Node19 -->
<g id="node20" class="node">
<title>Node19</title>
<polygon fill="none" stroke="#bfbfbf" points="440.1172,-177.5 440.1172,-199.5 505.1309,-199.5 505.1309,-177.5 440.1172,-177.5"/>
<text text-anchor="middle" x="472.624" y="-184.3" font-family="Helvetica,sans-Serif" font-size="14.00" fill="#000000">QMutex</text>
</g>
<!-- Node7&#45;&gt;Node19 -->
<g id="edge28" class="edge">
<title>Node7&#45;&gt;Node19</title>
<path fill="none" stroke="#191970" d="M407.6714,-236.4026C419.4041,-227.7497 435.9057,-215.5798 449.3398,-205.6721"/>
<polygon fill="#191970" stroke="#191970" points="451.6735,-208.3 457.6441,-199.5477 447.5186,-202.6663 451.6735,-208.3"/>
</g>
<!-- Node20 -->
<g id="node21" class="node">
<title>Node20</title>
<polygon fill="none" stroke="#bfbfbf" points="522.7588,-177.5 522.7588,-199.5 648.4893,-199.5 648.4893,-177.5 522.7588,-177.5"/>
<text text-anchor="middle" x="585.624" y="-184.3" font-family="Helvetica,sans-Serif" font-size="14.00" fill="#000000">qtconcurrentrun.h</text>
</g>
<!-- Node7&#45;&gt;Node20 -->
<g id="edge30" class="edge">
<title>Node7&#45;&gt;Node20</title>
<path fill="none" stroke="#191970" d="M428.9258,-236.4026C460.3311,-226.802 505.8992,-212.8718 539.8088,-202.5057"/>
<polygon fill="#191970" stroke="#191970" points="540.9451,-205.8183 549.485,-199.5477 538.8986,-199.1241 540.9451,-205.8183"/>
</g>
<!-- Node8&#45;&gt;Node1 -->
<g id="edge12" class="edge">
<title>Node8&#45;&gt;Node1</title>
<path fill="none" stroke="#191970" d="M232.3896,-177.4718C189.3284,-166.9734 124.8456,-151.2524 81.5553,-140.6981"/>
<polygon fill="#191970" stroke="#191970" points="82.1187,-137.233 71.5742,-138.2647 80.4606,-144.0338 82.1187,-137.233"/>
</g>
<!-- Node8&#45;&gt;Node5 -->
<g id="edge14" class="edge">
<title>Node8&#45;&gt;Node5</title>
<path fill="none" stroke="#191970" d="M258.0624,-177.4026C242.2288,-168.42 219.7145,-155.6475 201.9155,-145.55"/>
<polygon fill="#191970" stroke="#191970" points="203.5228,-142.4378 193.0979,-140.5477 200.0687,-148.5263 203.5228,-142.4378"/>
</g>
<!-- Node8&#45;&gt;Node6 -->
<g id="edge15" class="edge">
<title>Node8&#45;&gt;Node6</title>
<path fill="none" stroke="#191970" d="M270.479,-177.3679C255.8506,-153.0287 226.1688,-94.4281 254.624,-59 273.6775,-35.2776 352.1726,-22.6907 408.8148,-16.5634"/>
<polygon fill="#191970" stroke="#191970" points="409.1793,-20.0445 418.7635,-15.5286 408.455,-13.082 409.1793,-20.0445"/>
</g>
<!-- Node9 -->
<g id="node10" class="node">
<title>Node9</title>
<polygon fill="none" stroke="#bfbfbf" points="314.1069,-118.5 314.1069,-140.5 421.1411,-140.5 421.1411,-118.5 314.1069,-118.5"/>
<text text-anchor="middle" x="367.624" y="-125.3" font-family="Helvetica,sans-Serif" font-size="14.00" fill="#000000">QHostAddress</text>
</g>
<!-- Node8&#45;&gt;Node9 -->
<g id="edge10" class="edge">
<title>Node8&#45;&gt;Node9</title>
<path fill="none" stroke="#191970" d="M294.5523,-177.4026C308.003,-168.5849 327.025,-156.1149 342.2891,-146.1084"/>
<polygon fill="#191970" stroke="#191970" points="344.3274,-148.9573 350.7716,-140.5477 340.4896,-143.1031 344.3274,-148.9573"/>
</g>
<!-- Node10 -->
<g id="node11" class="node">
<title>Node10</title>
<polygon fill="none" stroke="#bfbfbf" points="263.9482,-59.5 263.9482,-81.5 331.2998,-81.5 331.2998,-59.5 263.9482,-59.5"/>
<text text-anchor="middle" x="297.624" y="-66.3" font-family="Helvetica,sans-Serif" font-size="14.00" fill="#000000">QObject</text>
</g>
<!-- Node8&#45;&gt;Node10 -->
<g id="edge11" class="edge">
<title>Node8&#45;&gt;Node10</title>
<path fill="none" stroke="#191970" d="M279.5417,-177.1857C282.8803,-157.4882 289.8086,-116.611 294.0535,-91.5662"/>
<polygon fill="#191970" stroke="#191970" points="297.521,-92.0521 295.7413,-81.6078 290.6194,-90.8823 297.521,-92.0521"/>
</g>
<!-- Node8&#45;&gt;Node11 -->
<g id="edge13" class="edge">
<title>Node8&#45;&gt;Node11</title>
<path fill="none" stroke="#191970" d="M345.7288,-180.5483C407.9241,-172.7744 502.5543,-159.6655 593.0917,-141.17"/>
<polygon fill="#191970" stroke="#191970" points="593.8866,-144.5798 602.9704,-139.1268 592.4688,-137.7249 593.8866,-144.5798"/>
</g>
<!-- Node8&#45;&gt;Node12 -->
<g id="edge16" class="edge">
<title>Node8&#45;&gt;Node12</title>
<path fill="none" stroke="#191970" d="M321.5501,-177.4718C360.332,-167.735 417.007,-153.506 458.5627,-143.0728"/>
<polygon fill="#191970" stroke="#191970" points="459.6683,-146.404 468.515,-140.5742 457.9637,-139.6147 459.6683,-146.404"/>
</g>
<!-- Node12&#45;&gt;Node6 -->
<g id="edge22" class="edge">
<title>Node12&#45;&gt;Node6</title>
<path fill="none" stroke="#191970" d="M584.9455,-118.493C626.208,-110.5722 672.1455,-98.3917 684.624,-82 690.8159,-73.8664 691.0253,-66.9698 684.624,-59 665.5706,-35.2776 587.0755,-22.6907 530.4333,-16.5634"/>
<polygon fill="#191970" stroke="#191970" points="530.7931,-13.082 520.4846,-15.5286 530.0688,-20.0445 530.7931,-13.082"/>
</g>
<!-- Node12&#45;&gt;Node10 -->
<g id="edge17" class="edge">
<title>Node12&#45;&gt;Node10</title>
<path fill="none" stroke="#191970" d="M472.4364,-118.4718C435.1718,-108.2457 379.8501,-93.0644 341.4607,-82.5296"/>
<polygon fill="#191970" stroke="#191970" points="342.1694,-79.0947 331.5996,-79.8235 340.3169,-85.8452 342.1694,-79.0947"/>
</g>
<!-- Node13 -->
<g id="node14" class="node">
<title>Node13</title>
<g id="a_node14"><a xlink:href="../../d5/df2/infinitydouble_8h.html" target="_top" xlink:title="infinitydouble.h">
<polygon fill="none" stroke="#000000" points="731.9243,-59.5 731.9243,-81.5 841.3237,-81.5 841.3237,-59.5 731.9243,-59.5"/>
<text text-anchor="middle" x="786.624" y="-66.3" font-family="Helvetica,sans-Serif" font-size="14.00" fill="#000000">infinitydouble.h</text>
</a>
</g>
</g>
<!-- Node12&#45;&gt;Node13 -->
<g id="edge18" class="edge">
<title>Node12&#45;&gt;Node13</title>
<path fill="none" stroke="#191970" d="M563.8399,-118.4718C609.5359,-108.6321 676.538,-94.2046 725.1215,-83.7433"/>
<polygon fill="#191970" stroke="#191970" points="726.1556,-87.1009 735.1948,-81.5742 724.6821,-80.2577 726.1556,-87.1009"/>
</g>
<!-- Node14 -->
<g id="node15" class="node">
<title>Node14</title>
<polygon fill="none" stroke="#bfbfbf" points="607.9482,-59.5 607.9482,-81.5 675.2998,-81.5 675.2998,-59.5 607.9482,-59.5"/>
<text text-anchor="middle" x="641.624" y="-66.3" font-family="Helvetica,sans-Serif" font-size="14.00" fill="#000000">QPointF</text>
</g>
<!-- Node12&#45;&gt;Node14 -->
<g id="edge20" class="edge">
<title>Node12&#45;&gt;Node14</title>
<path fill="none" stroke="#191970" d="M536.8879,-118.4026C557.0682,-109.1728 585.9977,-95.9415 608.3411,-85.7224"/>
<polygon fill="#191970" stroke="#191970" points="609.8307,-88.8899 617.4689,-81.5477 606.9192,-82.5241 609.8307,-88.8899"/>
</g>
<!-- Node15 -->
<g id="node16" class="node">
<title>Node15</title>
<polygon fill="none" stroke="#bfbfbf" points="859.4482,-59.5 859.4482,-81.5 947.7998,-81.5 947.7998,-59.5 859.4482,-59.5"/>
<text text-anchor="middle" x="903.624" y="-66.3" font-family="Helvetica,sans-Serif" font-size="14.00" fill="#000000">QByteArray</text>
</g>
<!-- Node12&#45;&gt;Node15 -->
<g id="edge21" class="edge">
<title>Node12&#45;&gt;Node15</title>
<path fill="none" stroke="#191970" d="M585.9368,-119.2141C673.0667,-106.9875 810.8084,-87.6515 849.5224,-81.8886"/>
<polygon fill="#191970" stroke="#191970" points="850.0839,-85.3434 859.4262,-80.3463 849.0067,-78.4268 850.0839,-85.3434"/>
</g>
<!-- Node16 -->
<g id="node17" class="node">
<title>Node16</title>
<polygon fill="none" stroke="#bfbfbf" points="348.8931,-59.5 348.8931,-81.5 412.355,-81.5 412.355,-59.5 348.8931,-59.5"/>
<text text-anchor="middle" x="380.624" y="-66.3" font-family="Helvetica,sans-Serif" font-size="14.00" fill="#000000">QString</text>
</g>
<!-- Node12&#45;&gt;Node16 -->
<g id="edge23" class="edge">
<title>Node12&#45;&gt;Node16</title>
<path fill="none" stroke="#191970" d="M487.7958,-118.4026C467.1463,-109.1728 437.544,-95.9415 414.681,-85.7224"/>
<polygon fill="#191970" stroke="#191970" points="415.8987,-82.433 405.3409,-81.5477 413.0422,-88.8237 415.8987,-82.433"/>
</g>
<!-- Node17 -->
<g id="node18" class="node">
<title>Node17</title>
<polygon fill="none" stroke="#bfbfbf" points="429.8804,-59.5 429.8804,-81.5 487.3677,-81.5 487.3677,-59.5 429.8804,-59.5"/>
<text text-anchor="middle" x="458.624" y="-66.3" font-family="Helvetica,sans-Serif" font-size="14.00" fill="#000000">QTime</text>
</g>
<!-- Node12&#45;&gt;Node17 -->
<g id="edge24" class="edge">
<title>Node12&#45;&gt;Node17</title>
<path fill="none" stroke="#191970" d="M502.467,-118.4026C494.9246,-110.1617 484.4624,-98.7309 475.6498,-89.1022"/>
<polygon fill="#191970" stroke="#191970" points="478.0689,-86.5614 468.7355,-81.5477 472.9052,-91.2875 478.0689,-86.5614"/>
</g>
<!-- Node18 -->
<g id="node19" class="node">
<title>Node18</title>
<polygon fill="none" stroke="#bfbfbf" points="505.3828,-59.5 505.3828,-81.5 589.8652,-81.5 589.8652,-59.5 505.3828,-59.5"/>
<text text-anchor="middle" x="547.624" y="-66.3" font-family="Helvetica,sans-Serif" font-size="14.00" fill="#000000">QVector3D</text>
</g>
<!-- Node12&#45;&gt;Node18 -->
<g id="edge25" class="edge">
<title>Node12&#45;&gt;Node18</title>
<path fill="none" stroke="#191970" d="M519.2073,-118.4026C523.9003,-110.4914 530.3375,-99.6402 535.8984,-90.266"/>
<polygon fill="#191970" stroke="#191970" points="538.9784,-91.934 541.0703,-81.5477 532.958,-88.3625 538.9784,-91.934"/>
</g>
<!-- Node13&#45;&gt;Node6 -->
<g id="edge19" class="edge">
<title>Node13&#45;&gt;Node6</title>
<path fill="none" stroke="#191970" d="M731.7687,-60.2903C675.7671,-49.8673 589.0257,-33.723 530.8276,-22.8912"/>
<polygon fill="#191970" stroke="#191970" points="531.1379,-19.3889 520.6662,-21 529.857,-26.2707 531.1379,-19.3889"/>
</g>
</g>
</svg>
