<?xml version="1.0" encoding="UTF-8" standalone="no"?>
<!DOCTYPE svg PUBLIC "-//W3C//DTD SVG 1.1//EN"
 "http://www.w3.org/Graphics/SVG/1.1/DTD/svg11.dtd">
<!-- Generated by graphviz version 2.40.1 (20161225.0304)
 -->
<!-- Title: std::bad_cast Pages: 1 -->
<svg width="110pt" height="178pt"
 viewBox="0.00 0.00 110.39 178.00" xmlns="http://www.w3.org/2000/svg" xmlns:xlink="http://www.w3.org/1999/xlink">
<g id="graph0" class="graph" transform="scale(1 1) rotate(0) translate(4 174)">
<title>std::bad_cast</title>
<!-- Node13 -->
<g id="node1" class="node">
<title>Node13</title>
<polygon fill="#bfbfbf" stroke="#000000" points="1.5552,-.5 1.5552,-66.5 100.8306,-66.5 100.8306,-.5 1.5552,-.5"/>
<text text-anchor="middle" x="51.1929" y="-51.3" font-family="Helvetica,sans-Serif" font-size="14.00" fill="#000000">std::bad_cast</text>
<polyline fill="none" stroke="#000000" points="1.5552,-44.5 100.8306,-44.5 "/>
<text text-anchor="middle" x="51.1929" y="-29.3" font-family="Helvetica,sans-Serif" font-size="14.00" fill="#000000"> </text>
<polyline fill="none" stroke="#000000" points="1.5552,-22.5 100.8306,-22.5 "/>
<text text-anchor="middle" x="51.1929" y="-7.3" font-family="Helvetica,sans-Serif" font-size="14.00" fill="#000000"> </text>
</g>
<!-- Node14 -->
<g id="node2" class="node">
<title>Node14</title>
<g id="a_node2"><a xlink:title="STL class. ">
<polygon fill="none" stroke="#bfbfbf" points="0,-103.5 0,-169.5 102.3857,-169.5 102.3857,-103.5 0,-103.5"/>
<text text-anchor="middle" x="51.1929" y="-154.3" font-family="Helvetica,sans-Serif" font-size="14.00" fill="#000000">std::exception</text>
<polyline fill="none" stroke="#bfbfbf" points="0,-147.5 102.3857,-147.5 "/>
<text text-anchor="middle" x="51.1929" y="-132.3" font-family="Helvetica,sans-Serif" font-size="14.00" fill="#000000"> </text>
<polyline fill="none" stroke="#bfbfbf" points="0,-125.5 102.3857,-125.5 "/>
<text text-anchor="middle" x="51.1929" y="-110.3" font-family="Helvetica,sans-Serif" font-size="14.00" fill="#000000"> </text>
</a>
</g>
</g>
<!-- Node14&#45;&gt;Node13 -->
<g id="edge1" class="edge">
<title>Node14&#45;&gt;Node13</title>
<path fill="none" stroke="#191970" d="M51.1929,-93.1362C51.1929,-84.256 51.1929,-75.0447 51.1929,-66.5947"/>
<polygon fill="none" stroke="#191970" points="47.693,-93.3432 51.1929,-103.3432 54.693,-93.3432 47.693,-93.3432"/>
</g>
</g>
</svg>
