<?xml version="1.0" encoding="UTF-8" standalone="no"?>
<!DOCTYPE svg PUBLIC "-//W3C//DTD SVG 1.1//EN"
 "http://www.w3.org/Graphics/SVG/1.1/DTD/svg11.dtd">
<!-- Generated by graphviz version 2.40.1 (20161225.0304)
 -->
<!-- Title: std::basic_ifstream&lt; Char &gt; Pages: 1 -->
<svg width="647pt" height="546pt"
 viewBox="0.00 0.00 647.16 546.00" xmlns="http://www.w3.org/2000/svg" xmlns:xlink="http://www.w3.org/1999/xlink">
<g id="graph0" class="graph" transform="scale(1 1) rotate(0) translate(4 542)">
<title>std::basic_ifstream&lt; Char &gt;</title>
<!-- Node62 -->
<g id="node1" class="node">
<title>Node62</title>
<polygon fill="#bfbfbf" stroke="#000000" points="269.4482,-131.5 269.4482,-211.5 402.1582,-211.5 402.1582,-131.5 269.4482,-131.5"/>
<text text-anchor="start" x="277.4482" y="-196.3" font-family="Helvetica,sans-Serif" font-size="14.00" fill="#000000">std::basic_ifstream</text>
<text text-anchor="middle" x="335.8032" y="-182.3" font-family="Helvetica,sans-Serif" font-size="14.00" fill="#000000">&lt; Char &gt;</text>
<polyline fill="none" stroke="#000000" points="269.4482,-175.5 402.1582,-175.5 "/>
<text text-anchor="middle" x="335.8032" y="-160.3" font-family="Helvetica,sans-Serif" font-size="14.00" fill="#000000"> </text>
<polyline fill="none" stroke="#000000" points="269.4482,-153.5 402.1582,-153.5 "/>
<text text-anchor="middle" x="335.8032" y="-138.3" font-family="Helvetica,sans-Serif" font-size="14.00" fill="#000000"> </text>
</g>
<!-- Node66 -->
<g id="node5" class="node">
<title>Node66</title>
<g id="a_node5"><a xlink:title="STL class. ">
<polygon fill="none" stroke="#bfbfbf" points="0,-7.5 0,-73.5 143.6064,-73.5 143.6064,-7.5 0,-7.5"/>
<text text-anchor="middle" x="71.8032" y="-58.3" font-family="Helvetica,sans-Serif" font-size="14.00" fill="#000000">std::ifstream&lt; char &gt;</text>
<polyline fill="none" stroke="#bfbfbf" points="0,-51.5 143.6064,-51.5 "/>
<text text-anchor="middle" x="71.8032" y="-36.3" font-family="Helvetica,sans-Serif" font-size="14.00" fill="#000000"> </text>
<polyline fill="none" stroke="#bfbfbf" points="0,-29.5 143.6064,-29.5 "/>
<text text-anchor="middle" x="71.8032" y="-14.3" font-family="Helvetica,sans-Serif" font-size="14.00" fill="#000000"> </text>
</a>
</g>
</g>
<!-- Node62&#45;&gt;Node66 -->
<g id="edge4" class="edge">
<title>Node62&#45;&gt;Node66</title>
<path fill="none" stroke="#191970" d="M260.1386,-134.1737C227.1551,-117.8786 188.0492,-98.5266 152.8032,-81 148.0167,-78.6199 143.0729,-76.1575 138.0979,-73.6769"/>
<polygon fill="none" stroke="#191970" points="258.755,-137.3939 269.271,-138.6846 261.8551,-131.1178 258.755,-137.3939"/>
</g>
<!-- Node67 -->
<g id="node6" class="node">
<title>Node67</title>
<g id="a_node6"><a xlink:title="STL class. ">
<polygon fill="none" stroke="#bfbfbf" points="162.0518,-7.5 162.0518,-73.5 337.5547,-73.5 337.5547,-7.5 162.0518,-7.5"/>
<text text-anchor="middle" x="249.8032" y="-58.3" font-family="Helvetica,sans-Serif" font-size="14.00" fill="#000000">std::wifstream&lt; wchar_t &gt;</text>
<polyline fill="none" stroke="#bfbfbf" points="162.0518,-51.5 337.5547,-51.5 "/>
<text text-anchor="middle" x="249.8032" y="-36.3" font-family="Helvetica,sans-Serif" font-size="14.00" fill="#000000"> </text>
<polyline fill="none" stroke="#bfbfbf" points="162.0518,-29.5 337.5547,-29.5 "/>
<text text-anchor="middle" x="249.8032" y="-14.3" font-family="Helvetica,sans-Serif" font-size="14.00" fill="#000000"> </text>
</a>
</g>
</g>
<!-- Node62&#45;&gt;Node67 -->
<g id="edge5" class="edge">
<title>Node62&#45;&gt;Node67</title>
<path fill="none" stroke="#191970" d="M303.9981,-123.0526C293.2071,-106.6152 281.4052,-88.6378 271.5776,-73.6679"/>
<polygon fill="none" stroke="#191970" points="301.1192,-125.0451 309.5331,-131.4839 306.9709,-121.2035 301.1192,-125.0451"/>
</g>
<!-- Node68 -->
<g id="node7" class="node">
<title>Node68</title>
<polygon fill="none" stroke="#bfbfbf" points="355.4482,-.5 355.4482,-80.5 488.1582,-80.5 488.1582,-.5 355.4482,-.5"/>
<text text-anchor="start" x="363.4482" y="-65.3" font-family="Helvetica,sans-Serif" font-size="14.00" fill="#000000">std::basic_ifstream</text>
<text text-anchor="middle" x="421.8032" y="-51.3" font-family="Helvetica,sans-Serif" font-size="14.00" fill="#000000">&lt; wchar_t &gt;</text>
<polyline fill="none" stroke="#bfbfbf" points="355.4482,-44.5 488.1582,-44.5 "/>
<text text-anchor="middle" x="421.8032" y="-29.3" font-family="Helvetica,sans-Serif" font-size="14.00" fill="#000000"> </text>
<polyline fill="none" stroke="#bfbfbf" points="355.4482,-22.5 488.1582,-22.5 "/>
<text text-anchor="middle" x="421.8032" y="-7.3" font-family="Helvetica,sans-Serif" font-size="14.00" fill="#000000"> </text>
</g>
<!-- Node62&#45;&gt;Node68 -->
<g id="edge6" class="edge">
<title>Node62&#45;&gt;Node68</title>
<path fill="none" stroke="#ffa500" d="M367.6494,-122.9901C376.7805,-109.0811 386.6324,-94.0742 395.3976,-80.7225"/>
<polygon fill="#ffa500" stroke="#ffa500" points="364.6355,-121.2035 362.0734,-131.4839 370.4872,-125.0451 364.6355,-121.2035"/>
<text text-anchor="middle" x="420.3237" y="-101.8" font-family="Helvetica,sans-Serif" font-size="14.00" fill="#000000"> &lt; wchar_t &gt;</text>
</g>
<!-- Node69 -->
<g id="node8" class="node">
<title>Node69</title>
<polygon fill="none" stroke="#bfbfbf" points="506.4482,-.5 506.4482,-80.5 639.1582,-80.5 639.1582,-.5 506.4482,-.5"/>
<text text-anchor="start" x="514.4482" y="-65.3" font-family="Helvetica,sans-Serif" font-size="14.00" fill="#000000">std::basic_ifstream</text>
<text text-anchor="middle" x="572.8032" y="-51.3" font-family="Helvetica,sans-Serif" font-size="14.00" fill="#000000">&lt; char &gt;</text>
<polyline fill="none" stroke="#bfbfbf" points="506.4482,-44.5 639.1582,-44.5 "/>
<text text-anchor="middle" x="572.8032" y="-29.3" font-family="Helvetica,sans-Serif" font-size="14.00" fill="#000000"> </text>
<polyline fill="none" stroke="#bfbfbf" points="506.4482,-22.5 639.1582,-22.5 "/>
<text text-anchor="middle" x="572.8032" y="-7.3" font-family="Helvetica,sans-Serif" font-size="14.00" fill="#000000"> </text>
</g>
<!-- Node62&#45;&gt;Node69 -->
<g id="edge7" class="edge">
<title>Node62&#45;&gt;Node69</title>
<path fill="none" stroke="#ffa500" d="M411.7107,-138.81C428.7642,-130.841 446.6003,-122.0037 462.8032,-113 480.3968,-103.2235 498.8928,-91.6014 515.5919,-80.5579"/>
<polygon fill="#ffa500" stroke="#ffa500" points="409.942,-135.7716 402.3324,-143.1435 412.8782,-142.126 409.942,-135.7716"/>
<text text-anchor="middle" x="512.4307" y="-101.8" font-family="Helvetica,sans-Serif" font-size="14.00" fill="#000000"> &lt; char &gt;</text>
</g>
<!-- Node63 -->
<g id="node2" class="node">
<title>Node63</title>
<g id="a_node2"><a xlink:title="STL class. ">
<polygon fill="none" stroke="#bfbfbf" points="271.3931,-249.5 271.3931,-329.5 400.2134,-329.5 400.2134,-249.5 271.3931,-249.5"/>
<text text-anchor="start" x="279.3931" y="-314.3" font-family="Helvetica,sans-Serif" font-size="14.00" fill="#000000">std::basic_istream</text>
<text text-anchor="middle" x="335.8032" y="-300.3" font-family="Helvetica,sans-Serif" font-size="14.00" fill="#000000">&lt; Char &gt;</text>
<polyline fill="none" stroke="#bfbfbf" points="271.3931,-293.5 400.2134,-293.5 "/>
<text text-anchor="middle" x="335.8032" y="-278.3" font-family="Helvetica,sans-Serif" font-size="14.00" fill="#000000"> </text>
<polyline fill="none" stroke="#bfbfbf" points="271.3931,-271.5 400.2134,-271.5 "/>
<text text-anchor="middle" x="335.8032" y="-256.3" font-family="Helvetica,sans-Serif" font-size="14.00" fill="#000000"> </text>
</a>
</g>
</g>
<!-- Node63&#45;&gt;Node62 -->
<g id="edge1" class="edge">
<title>Node63&#45;&gt;Node62</title>
<path fill="none" stroke="#191970" d="M335.8032,-239.0368C335.8032,-229.8676 335.8032,-220.4174 335.8032,-211.5973"/>
<polygon fill="none" stroke="#191970" points="332.3033,-239.2211 335.8032,-249.2211 339.3033,-239.2212 332.3033,-239.2211"/>
</g>
<!-- Node64 -->
<g id="node3" class="node">
<title>Node64</title>
<g id="a_node3"><a xlink:title="STL class. ">
<polygon fill="none" stroke="#bfbfbf" points="258.1553,-367.5 258.1553,-433.5 413.4512,-433.5 413.4512,-367.5 258.1553,-367.5"/>
<text text-anchor="middle" x="335.8032" y="-418.3" font-family="Helvetica,sans-Serif" font-size="14.00" fill="#000000">std::basic_ios&lt; Char &gt;</text>
<polyline fill="none" stroke="#bfbfbf" points="258.1553,-411.5 413.4512,-411.5 "/>
<text text-anchor="middle" x="335.8032" y="-396.3" font-family="Helvetica,sans-Serif" font-size="14.00" fill="#000000"> </text>
<polyline fill="none" stroke="#bfbfbf" points="258.1553,-389.5 413.4512,-389.5 "/>
<text text-anchor="middle" x="335.8032" y="-374.3" font-family="Helvetica,sans-Serif" font-size="14.00" fill="#000000"> </text>
</a>
</g>
</g>
<!-- Node64&#45;&gt;Node63 -->
<g id="edge2" class="edge">
<title>Node64&#45;&gt;Node63</title>
<path fill="none" stroke="#191970" d="M335.8032,-357.4312C335.8032,-348.2871 335.8032,-338.6684 335.8032,-329.6385"/>
<polygon fill="none" stroke="#191970" points="332.3033,-357.4968 335.8032,-367.4969 339.3033,-357.4969 332.3033,-357.4968"/>
</g>
<!-- Node65 -->
<g id="node4" class="node">
<title>Node65</title>
<g id="a_node4"><a xlink:title="STL class. ">
<polygon fill="none" stroke="#bfbfbf" points="286.5552,-471.5 286.5552,-537.5 385.0513,-537.5 385.0513,-471.5 286.5552,-471.5"/>
<text text-anchor="middle" x="335.8032" y="-522.3" font-family="Helvetica,sans-Serif" font-size="14.00" fill="#000000">std::ios_base</text>
<polyline fill="none" stroke="#bfbfbf" points="286.5552,-515.5 385.0513,-515.5 "/>
<text text-anchor="middle" x="335.8032" y="-500.3" font-family="Helvetica,sans-Serif" font-size="14.00" fill="#000000"> </text>
<polyline fill="none" stroke="#bfbfbf" points="286.5552,-493.5 385.0513,-493.5 "/>
<text text-anchor="middle" x="335.8032" y="-478.3" font-family="Helvetica,sans-Serif" font-size="14.00" fill="#000000"> </text>
</a>
</g>
</g>
<!-- Node65&#45;&gt;Node64 -->
<g id="edge3" class="edge">
<title>Node65&#45;&gt;Node64</title>
<path fill="none" stroke="#191970" d="M335.8032,-461.1737C335.8032,-452.0025 335.8032,-442.4608 335.8032,-433.7336"/>
<polygon fill="none" stroke="#191970" points="332.3033,-461.3078 335.8032,-471.3078 339.3033,-461.3078 332.3033,-461.3078"/>
</g>
</g>
</svg>
