<?xml version="1.0" encoding="UTF-8" standalone="no"?>
<!DOCTYPE svg PUBLIC "-//W3C//DTD SVG 1.1//EN"
 "http://www.w3.org/Graphics/SVG/1.1/DTD/svg11.dtd">
<!-- Generated by graphviz version 2.40.1 (20161225.0304)
 -->
<!-- Title: std::domain_error Pages: 1 -->
<svg width="134pt" height="281pt"
 viewBox="0.00 0.00 133.72 281.00" xmlns="http://www.w3.org/2000/svg" xmlns:xlink="http://www.w3.org/1999/xlink">
<g id="graph0" class="graph" transform="scale(1 1) rotate(0) translate(4 277)">
<title>std::domain_error</title>
<!-- Node387 -->
<g id="node1" class="node">
<title>Node387</title>
<polygon fill="#bfbfbf" stroke="#000000" points="0,-.5 0,-66.5 125.7168,-66.5 125.7168,-.5 0,-.5"/>
<text text-anchor="middle" x="62.8584" y="-51.3" font-family="Helvetica,sans-Serif" font-size="14.00" fill="#000000">std::domain_error</text>
<polyline fill="none" stroke="#000000" points="0,-44.5 125.7168,-44.5 "/>
<text text-anchor="middle" x="62.8584" y="-29.3" font-family="Helvetica,sans-Serif" font-size="14.00" fill="#000000"> </text>
<polyline fill="none" stroke="#000000" points="0,-22.5 125.7168,-22.5 "/>
<text text-anchor="middle" x="62.8584" y="-7.3" font-family="Helvetica,sans-Serif" font-size="14.00" fill="#000000"> </text>
</g>
<!-- Node388 -->
<g id="node2" class="node">
<title>Node388</title>
<g id="a_node2"><a xlink:title="STL class. ">
<polygon fill="none" stroke="#bfbfbf" points="8.562,-103.5 8.562,-169.5 117.1548,-169.5 117.1548,-103.5 8.562,-103.5"/>
<text text-anchor="middle" x="62.8584" y="-154.3" font-family="Helvetica,sans-Serif" font-size="14.00" fill="#000000">std::logic_error</text>
<polyline fill="none" stroke="#bfbfbf" points="8.562,-147.5 117.1548,-147.5 "/>
<text text-anchor="middle" x="62.8584" y="-132.3" font-family="Helvetica,sans-Serif" font-size="14.00" fill="#000000"> </text>
<polyline fill="none" stroke="#bfbfbf" points="8.562,-125.5 117.1548,-125.5 "/>
<text text-anchor="middle" x="62.8584" y="-110.3" font-family="Helvetica,sans-Serif" font-size="14.00" fill="#000000"> </text>
</a>
</g>
</g>
<!-- Node388&#45;&gt;Node387 -->
<g id="edge1" class="edge">
<title>Node388&#45;&gt;Node387</title>
<path fill="none" stroke="#191970" d="M62.8584,-93.1362C62.8584,-84.256 62.8584,-75.0447 62.8584,-66.5947"/>
<polygon fill="none" stroke="#191970" points="59.3585,-93.3432 62.8584,-103.3432 66.3585,-93.3432 59.3585,-93.3432"/>
</g>
<!-- Node389 -->
<g id="node3" class="node">
<title>Node389</title>
<g id="a_node3"><a xlink:title="STL class. ">
<polygon fill="none" stroke="#bfbfbf" points="11.6655,-206.5 11.6655,-272.5 114.0513,-272.5 114.0513,-206.5 11.6655,-206.5"/>
<text text-anchor="middle" x="62.8584" y="-257.3" font-family="Helvetica,sans-Serif" font-size="14.00" fill="#000000">std::exception</text>
<polyline fill="none" stroke="#bfbfbf" points="11.6655,-250.5 114.0513,-250.5 "/>
<text text-anchor="middle" x="62.8584" y="-235.3" font-family="Helvetica,sans-Serif" font-size="14.00" fill="#000000"> </text>
<polyline fill="none" stroke="#bfbfbf" points="11.6655,-228.5 114.0513,-228.5 "/>
<text text-anchor="middle" x="62.8584" y="-213.3" font-family="Helvetica,sans-Serif" font-size="14.00" fill="#000000"> </text>
</a>
</g>
</g>
<!-- Node389&#45;&gt;Node388 -->
<g id="edge2" class="edge">
<title>Node389&#45;&gt;Node388</title>
<path fill="none" stroke="#191970" d="M62.8584,-196.1362C62.8584,-187.256 62.8584,-178.0447 62.8584,-169.5947"/>
<polygon fill="none" stroke="#191970" points="59.3585,-196.3432 62.8584,-206.3432 66.3585,-196.3432 59.3585,-196.3432"/>
</g>
</g>
</svg>
