<?xml version="1.0" encoding="UTF-8" standalone="no"?>
<!DOCTYPE svg PUBLIC "-//W3C//DTD SVG 1.1//EN"
 "http://www.w3.org/Graphics/SVG/1.1/DTD/svg11.dtd">
<!-- Generated by graphviz version 2.40.1 (20161225.0304)
 -->
<!-- Title: MapIniter::initSimapleMap Pages: 1 -->
<!--zoomable 303 -->
<svg id="main" version="1.1" xmlns="http://www.w3.org/2000/svg" xmlns:xlink="http://www.w3.org/1999/xlink" xml:space="preserve" onload="init(evt)">
<style type="text/css"><![CDATA[
.edge:hover path { stroke: red; }
.edge:hover polygon { stroke: red; fill: red; }
]]></style>
<script type="text/javascript"><![CDATA[
var edges = document.getElementsByTagName('g');
if (edges && edges.length) {
  for (var i=0;i<edges.length;i++) {
    if (edges[i].id.substr(0,4)=='edge') {
      edges[i].setAttribute('class','edge');
    }
  }
}
]]></script>
        <defs>
                <circle id="rim" cx="0" cy="0" r="7"/>
                <circle id="rim2" cx="0" cy="0" r="3.5"/>
                <g id="zoomPlus">
                        <use xlink:href="#rim" fill="#404040">
                                <set attributeName="fill" to="#808080" begin="zoomplus.mouseover" end="zoomplus.mouseout"/>
                        </use>
                        <path d="M-4,0h8M0,-4v8" fill="none" stroke="white" stroke-width="1.5" pointer-events="none"/>
                </g>
                <g id="zoomMin">
                        <use xlink:href="#rim" fill="#404040">
                                <set attributeName="fill" to="#808080" begin="zoomminus.mouseover" end="zoomminus.mouseout"/>
                        </use>
                        <path d="M-4,0h8" fill="none" stroke="white" stroke-width="1.5" pointer-events="none"/>
                </g>
                <g id="dirArrow">
                        <path fill="none" stroke="white" stroke-width="1.5" d="M0,-3.0v7 M-2.5,-0.5L0,-3.0L2.5,-0.5"/>
                </g>
               <g id="resetDef">
                       <use xlink:href="#rim2" fill="#404040">
                               <set attributeName="fill" to="#808080" begin="reset.mouseover" end="reset.mouseout"/>
                       </use>
               </g>
        </defs>

<script type="text/javascript">
var viewWidth = 845;
var viewHeight = 303;
var sectionId = 'dynsection-4';
</script>
<script xlink:href="../../svgpan.js"/>
<svg id="graph" class="graph">
<g id="viewport">
<title>MapIniter::initSimapleMap</title>
<!-- Node14 -->
<g id="node1" class="node">
<title>Node14</title>
<polygon fill="#bfbfbf" stroke="#000000" points="0,-187.5 0,-209.5 177.8477,-209.5 177.8477,-187.5 0,-187.5"/>
<text text-anchor="middle" x="88.9238" y="-194.3" font-family="Helvetica,sans-Serif" font-size="14.00" fill="#000000">MapIniter::initSimapleMap</text>
</g>
<!-- Node15 -->
<g id="node2" class="node">
<title>Node15</title>
<g id="a_node2"><a xlink:href="../../d2/df5/a00137.html#ae2be75da1a2a9edfabe993770e24654a" target="_top" xlink:title="IBaseGameElement::nextStep">
<polygon fill="none" stroke="#000000" points="444.5459,-272.5 444.5459,-294.5 648.8691,-294.5 648.8691,-272.5 444.5459,-272.5"/>
<text text-anchor="middle" x="546.7075" y="-279.3" font-family="Helvetica,sans-Serif" font-size="14.00" fill="#000000">IBaseGameElement::nextStep</text>
</a>
</g>
</g>
<!-- Node14&#45;&gt;Node15 -->
<g id="edge1" class="edge">
<title>Node14&#45;&gt;Node15</title>
<path fill="none" stroke="#191970" d="M148.3017,-209.5251C232.8612,-225.2259 387.6423,-253.9652 477.3595,-270.6237"/>
<polygon fill="#191970" stroke="#191970" points="476.9639,-274.1099 487.4348,-272.4944 478.2418,-267.2276 476.9639,-274.1099"/>
</g>
<!-- Node16 -->
<g id="node3" class="node">
<title>Node16</title>
<g id="a_node3"><a xlink:href="../../df/d24/a00217.html#a8961b80aa1df5f628bd4e28e66a51d0b" target="_top" xlink:title="MapIniter::getRandomGrass">
<polygon fill="none" stroke="#000000" points="213.8477,-167.5 213.8477,-189.5 405.7021,-189.5 405.7021,-167.5 213.8477,-167.5"/>
<text text-anchor="middle" x="309.7749" y="-174.3" font-family="Helvetica,sans-Serif" font-size="14.00" fill="#000000">MapIniter::getRandomGrass</text>
</a>
</g>
</g>
<!-- Node14&#45;&gt;Node16 -->
<g id="edge2" class="edge">
<title>Node14&#45;&gt;Node16</title>
<path fill="none" stroke="#191970" d="M178.1158,-190.4229C186.5483,-189.6593 195.1524,-188.8801 203.7214,-188.1041"/>
<polygon fill="#191970" stroke="#191970" points="204.1085,-191.5834 213.7521,-187.1957 203.4771,-184.612 204.1085,-191.5834"/>
</g>
<!-- Node16&#45;&gt;Node15 -->
<g id="edge3" class="edge">
<title>Node16&#45;&gt;Node15</title>
<path fill="none" stroke="#191970" d="M329.238,-189.503C348.8726,-200.7797 379.8915,-219.0813 405.7021,-236.5 422.2802,-247.6879 423.4067,-255.4205 441.7021,-263.5 446.795,-265.7491 452.1362,-267.7457 457.5977,-269.5181"/>
<polygon fill="#191970" stroke="#191970" points="456.9477,-272.9762 467.5305,-272.4724 458.9434,-266.2667 456.9477,-272.9762"/>
</g>
<!-- Node17 -->
<g id="node4" class="node">
<title>Node17</title>
<g id="a_node4"><a xlink:href="../../d2/df5/a00137.html#a2f95e7a61b5db7f2fbbfd32ff786f58c" target="_top" xlink:title="IBaseGameElement::setHelth">
<polygon fill="none" stroke="#000000" points="446.4976,-231.5 446.4976,-253.5 646.9175,-253.5 646.9175,-231.5 446.4976,-231.5"/>
<text text-anchor="middle" x="546.7075" y="-238.3" font-family="Helvetica,sans-Serif" font-size="14.00" fill="#000000">IBaseGameElement::setHelth</text>
</a>
</g>
</g>
<!-- Node16&#45;&gt;Node17 -->
<g id="edge4" class="edge">
<title>Node16&#45;&gt;Node17</title>
<path fill="none" stroke="#191970" d="M346.6344,-189.5203C373.0342,-197.3146 409.468,-207.8703 441.7021,-216.5 457.4769,-220.7232 474.65,-225.0771 490.4515,-228.9857"/>
<polygon fill="#191970" stroke="#191970" points="490.0622,-232.4942 500.6088,-231.484 491.7342,-225.6968 490.0622,-232.4942"/>
</g>
<!-- Node18 -->
<g id="node5" class="node">
<title>Node18</title>
<g id="a_node5"><a xlink:href="../../d6/d7d/a00161.html#a8d33637f68b523cf2b21abd1509c47bf" target="_top" xlink:title="InfinityDouble::Infinity\lDouble">
<polygon fill="none" stroke="#000000" points="687.7129,-137.5 687.7129,-173.5 836.7813,-173.5 836.7813,-137.5 687.7129,-137.5"/>
<text text-anchor="start" x="695.7129" y="-158.3" font-family="Helvetica,sans-Serif" font-size="14.00" fill="#000000">InfinityDouble::Infinity</text>
<text text-anchor="middle" x="762.2471" y="-144.3" font-family="Helvetica,sans-Serif" font-size="14.00" fill="#000000">Double</text>
</a>
</g>
</g>
<!-- Node16&#45;&gt;Node18 -->
<g id="edge5" class="edge">
<title>Node16&#45;&gt;Node18</title>
<path fill="none" stroke="#191970" d="M405.9668,-186.9843C474.7011,-191.3248 569.2328,-193.7843 651.7129,-183.5 665.0186,-181.8409 679.0214,-179.0996 692.4209,-175.9649"/>
<polygon fill="#191970" stroke="#191970" points="693.641,-179.2701 702.5284,-173.5025 691.9841,-172.469 693.641,-179.2701"/>
</g>
<!-- Node19 -->
<g id="node6" class="node">
<title>Node19</title>
<g id="a_node6"><a xlink:href="../../d6/d7d/a00161.html#a67fae871f96708313bedc644630ac8bc" target="_top" xlink:title="InfinityDouble::Infinity\lValue">
<polygon fill="none" stroke="#000000" points="472.1733,-137.5 472.1733,-173.5 621.2417,-173.5 621.2417,-137.5 472.1733,-137.5"/>
<text text-anchor="start" x="480.1733" y="-158.3" font-family="Helvetica,sans-Serif" font-size="14.00" fill="#000000">InfinityDouble::Infinity</text>
<text text-anchor="middle" x="546.7075" y="-144.3" font-family="Helvetica,sans-Serif" font-size="14.00" fill="#000000">Value</text>
</a>
</g>
</g>
<!-- Node16&#45;&gt;Node19 -->
<g id="edge6" class="edge">
<title>Node16&#45;&gt;Node19</title>
<path fill="none" stroke="#191970" d="M405.8029,-169.1782C424.4189,-167.371 443.8022,-165.4894 462.0222,-163.7207"/>
<polygon fill="#191970" stroke="#191970" points="462.3974,-167.2009 472.0124,-162.751 461.721,-160.2336 462.3974,-167.2009"/>
</g>
<!-- Node20 -->
<g id="node7" class="node">
<title>Node20</title>
<g id="a_node7"><a xlink:href="../../d2/df5/a00137.html#ac480b8140b5b290f49b4b96a47291180" target="_top" xlink:title="IBaseGameElement::setTransit\lWeight">
<polygon fill="none" stroke="#000000" points="441.7021,-82.5 441.7021,-118.5 651.7129,-118.5 651.7129,-82.5 441.7021,-82.5"/>
<text text-anchor="start" x="449.7021" y="-103.3" font-family="Helvetica,sans-Serif" font-size="14.00" fill="#000000">IBaseGameElement::setTransit</text>
<text text-anchor="middle" x="546.7075" y="-89.3" font-family="Helvetica,sans-Serif" font-size="14.00" fill="#000000">Weight</text>
</a>
</g>
</g>
<!-- Node16&#45;&gt;Node20 -->
<g id="edge8" class="edge">
<title>Node16&#45;&gt;Node20</title>
<path fill="none" stroke="#191970" d="M336.5264,-167.4431C362.9803,-156.7282 404.747,-140.3961 441.7021,-128.5 449.363,-126.0339 457.3863,-123.6123 465.4384,-121.2887"/>
<polygon fill="#191970" stroke="#191970" points="466.5859,-124.6014 475.2523,-118.5068 464.6768,-117.8668 466.5859,-124.6014"/>
</g>
<!-- Node21 -->
<g id="node8" class="node">
<title>Node21</title>
<g id="a_node8"><a xlink:href="../../d6/d7d/a00161.html#adb0a2fa93aa5f90a93c3f4303436913a" target="_top" xlink:title="InfinityDouble::FromValue">
<polygon fill="none" stroke="#000000" points="458.686,-41.5 458.686,-63.5 634.729,-63.5 634.729,-41.5 458.686,-41.5"/>
<text text-anchor="middle" x="546.7075" y="-48.3" font-family="Helvetica,sans-Serif" font-size="14.00" fill="#000000">InfinityDouble::FromValue</text>
</a>
</g>
</g>
<!-- Node16&#45;&gt;Node21 -->
<g id="edge9" class="edge">
<title>Node16&#45;&gt;Node21</title>
<path fill="none" stroke="#191970" d="M320.1782,-167.2163C340.9912,-145.3865 390.1971,-97.4217 441.7021,-73.5 447.4007,-70.8533 453.4248,-68.5394 459.5891,-66.5166"/>
<polygon fill="#191970" stroke="#191970" points="460.7994,-69.8074 469.3646,-63.5714 458.7801,-63.105 460.7994,-69.8074"/>
</g>
<!-- Node22 -->
<g id="node9" class="node">
<title>Node22</title>
<g id="a_node9"><a xlink:href="../../d2/df5/a00137.html#a324cba2176155a50b5a2239eb0a8b6a0" target="_top" xlink:title="IBaseGameElement::setType">
<polygon fill="none" stroke="#000000" points="447.6597,-.5 447.6597,-22.5 645.7554,-22.5 645.7554,-.5 447.6597,-.5"/>
<text text-anchor="middle" x="546.7075" y="-7.3" font-family="Helvetica,sans-Serif" font-size="14.00" fill="#000000">IBaseGameElement::setType</text>
</a>
</g>
</g>
<!-- Node16&#45;&gt;Node22 -->
<g id="edge11" class="edge">
<title>Node16&#45;&gt;Node22</title>
<path fill="none" stroke="#191970" d="M316.3931,-167.1369C333.3107,-139.1977 381.1082,-66.9278 441.7021,-32.5 445.925,-30.1007 450.3796,-27.9723 454.9746,-26.0847"/>
<polygon fill="#191970" stroke="#191970" points="456.4068,-29.2869 464.5743,-22.5384 453.981,-22.7206 456.4068,-29.2869"/>
</g>
<!-- Node19&#45;&gt;Node18 -->
<g id="edge7" class="edge">
<title>Node19&#45;&gt;Node18</title>
<path fill="none" stroke="#191970" d="M621.4879,-155.5C639.5437,-155.5 658.9667,-155.5 677.445,-155.5"/>
<polygon fill="#191970" stroke="#191970" points="677.5989,-159.0001 687.5989,-155.5 677.5989,-152.0001 677.5989,-159.0001"/>
</g>
<!-- Node21&#45;&gt;Node18 -->
<g id="edge10" class="edge">
<title>Node21&#45;&gt;Node18</title>
<path fill="none" stroke="#191970" d="M622.8075,-63.5559C632.7452,-66.1979 642.6223,-69.4641 651.7129,-73.5 683.2771,-87.5135 714.4338,-111.8417 735.5816,-130.3705"/>
<polygon fill="#191970" stroke="#191970" points="733.3869,-133.1031 743.1766,-137.1543 738.05,-127.8824 733.3869,-133.1031"/>
</g>
</g>
</svg>
        <g id="navigator" transform="translate(0 0)" fill="#404254">
                <rect fill="#f2f5e9" fill-opacity="0.5" stroke="#606060" stroke-width=".5" x="0" y="0" width="60" height="60"/>
                <use id="zoomplus" xlink:href="#zoomPlus" x="17" y="9" onmousedown="handleZoom(evt,'in')"/>
                <use id="zoomminus" xlink:href="#zoomMin" x="42" y="9" onmousedown="handleZoom(evt,'out')"/>
                <use id="reset" xlink:href="#resetDef" x="30" y="36" onmousedown="handleReset()"/>
                <g id="arrowUp" xlink:href="#dirArrow" transform="translate(30 24)" onmousedown="handlePan(0,-1)">
                  <use xlink:href="#rim" fill="#404040">
                        <set attributeName="fill" to="#808080" begin="arrowUp.mouseover" end="arrowUp.mouseout"/>
                  </use>
                  <path fill="none" stroke="white" stroke-width="1.5" d="M0,-3.0v7 M-2.5,-0.5L0,-3.0L2.5,-0.5"/>
                </g>
                <g id="arrowRight" xlink:href="#dirArrow" transform="rotate(90) translate(36 -43)" onmousedown="handlePan(1,0)">
                  <use xlink:href="#rim" fill="#404040">
                        <set attributeName="fill" to="#808080" begin="arrowRight.mouseover" end="arrowRight.mouseout"/>
                  </use>
                  <path fill="none" stroke="white" stroke-width="1.5" d="M0,-3.0v7 M-2.5,-0.5L0,-3.0L2.5,-0.5"/>
                </g>
                <g id="arrowDown" xlink:href="#dirArrow" transform="rotate(180) translate(-30 -48)" onmousedown="handlePan(0,1)">
                  <use xlink:href="#rim" fill="#404040">
                        <set attributeName="fill" to="#808080" begin="arrowDown.mouseover" end="arrowDown.mouseout"/>
                  </use>
                  <path fill="none" stroke="white" stroke-width="1.5" d="M0,-3.0v7 M-2.5,-0.5L0,-3.0L2.5,-0.5"/>
                </g>
                <g id="arrowLeft" xlink:href="#dirArrow" transform="rotate(270) translate(-36 17)" onmousedown="handlePan(-1,0)">
                  <use xlink:href="#rim" fill="#404040">
                        <set attributeName="fill" to="#808080" begin="arrowLeft.mouseover" end="arrowLeft.mouseout"/>
                  </use>
                  <path fill="none" stroke="white" stroke-width="1.5" d="M0,-3.0v7 M-2.5,-0.5L0,-3.0L2.5,-0.5"/>
                </g>
        </g>
        <svg viewBox="0 0 15 15" width="100%" height="30px" preserveAspectRatio="xMaxYMin meet">
         <g id="arrow_out" transform="scale(0.3 0.3)">
          <a xlink:href="a00217_ae6dfbed9cc8569db78442c0bfe57e252_cgraph_org.svg" target="_base">
           <rect id="button" ry="5" rx="5" y="6" x="6" height="38" width="38"
                fill="#f2f5e9" fill-opacity="0.5" stroke="#606060" stroke-width="1.0"/>
           <path id="arrow"
             d="M 11.500037,31.436501 C 11.940474,20.09759 22.043105,11.32322 32.158766,21.979434 L 37.068811,17.246167 C 37.068811,17.246167 37.088388,32 37.088388,32 L 22.160133,31.978069 C 22.160133,31.978069 26.997745,27.140456 26.997745,27.140456 C 18.528582,18.264221 13.291696,25.230495 11.500037,31.436501 z"
             style="fill:#404040;"/>
          </a>
         </g>
        </svg>
</svg>
