<?xml version="1.0" encoding="UTF-8" standalone="no"?>
<!DOCTYPE svg PUBLIC "-//W3C//DTD SVG 1.1//EN"
 "http://www.w3.org/Graphics/SVG/1.1/DTD/svg11.dtd">
<!-- Generated by graphviz version 2.40.1 (20161225.0304)
 -->
<!-- Title: Core/GameElements/basebulet.cpp Pages: 1 -->
<svg width="692pt" height="267pt"
 viewBox="0.00 0.00 691.92 267.00" xmlns="http://www.w3.org/2000/svg" xmlns:xlink="http://www.w3.org/1999/xlink">
<g id="graph0" class="graph" transform="scale(1 1) rotate(0) translate(4 263)">
<title>Core/GameElements/basebulet.cpp</title>
<!-- Node0 -->
<g id="node1" class="node">
<title>Node0</title>
<polygon fill="#bfbfbf" stroke="#000000" points="213.7832,-236.5 213.7832,-258.5 451.5684,-258.5 451.5684,-236.5 213.7832,-236.5"/>
<text text-anchor="middle" x="332.6758" y="-243.3" font-family="Helvetica,sans-Serif" font-size="14.00" fill="#000000">Core/GameElements/basebulet.cpp</text>
</g>
<!-- Node1 -->
<g id="node2" class="node">
<title>Node1</title>
<g id="a_node2"><a xlink:href="../../d4/d8c/a00035.html" target="_top" xlink:title="basebulet.h">
<polygon fill="none" stroke="#000000" points="288.4795,-177.5 288.4795,-199.5 376.8721,-199.5 376.8721,-177.5 288.4795,-177.5"/>
<text text-anchor="middle" x="332.6758" y="-184.3" font-family="Helvetica,sans-Serif" font-size="14.00" fill="#000000">basebulet.h</text>
</a>
</g>
</g>
<!-- Node0&#45;&gt;Node1 -->
<g id="edge1" class="edge">
<title>Node0&#45;&gt;Node1</title>
<path fill="none" stroke="#191970" d="M332.6758,-236.4026C332.6758,-228.9034 332.6758,-218.7626 332.6758,-209.7421"/>
<polygon fill="#191970" stroke="#191970" points="336.1759,-209.5477 332.6758,-199.5477 329.1759,-209.5477 336.1759,-209.5477"/>
</g>
<!-- Node2 -->
<g id="node3" class="node">
<title>Node2</title>
<g id="a_node3"><a xlink:href="../../d6/d2d/a00047.html" target="_top" xlink:title="../ibasegameelement.h">
<polygon fill="none" stroke="#000000" points="253.8555,-118.5 253.8555,-140.5 411.4961,-140.5 411.4961,-118.5 253.8555,-118.5"/>
<text text-anchor="middle" x="332.6758" y="-125.3" font-family="Helvetica,sans-Serif" font-size="14.00" fill="#000000">../ibasegameelement.h</text>
</a>
</g>
</g>
<!-- Node1&#45;&gt;Node2 -->
<g id="edge2" class="edge">
<title>Node1&#45;&gt;Node2</title>
<path fill="none" stroke="#191970" d="M332.6758,-177.4026C332.6758,-169.9034 332.6758,-159.7626 332.6758,-150.7421"/>
<polygon fill="#191970" stroke="#191970" points="336.1759,-150.5477 332.6758,-140.5477 329.1759,-150.5477 336.1759,-150.5477"/>
</g>
<!-- Node3 -->
<g id="node4" class="node">
<title>Node3</title>
<polygon fill="none" stroke="#bfbfbf" points="0,-59.5 0,-81.5 67.3516,-81.5 67.3516,-59.5 0,-59.5"/>
<text text-anchor="middle" x="33.6758" y="-66.3" font-family="Helvetica,sans-Serif" font-size="14.00" fill="#000000">QObject</text>
</g>
<!-- Node2&#45;&gt;Node3 -->
<g id="edge3" class="edge">
<title>Node2&#45;&gt;Node3</title>
<path fill="none" stroke="#191970" d="M264.1743,-118.4595C214.6483,-110.1043 145.9494,-97.7521 77.6166,-82.3334"/>
<polygon fill="#191970" stroke="#191970" points="78.0675,-78.8464 67.5397,-80.0363 76.5117,-85.6714 78.0675,-78.8464"/>
</g>
<!-- Node4 -->
<g id="node5" class="node">
<title>Node4</title>
<g id="a_node5"><a xlink:href="../../d3/d8b/a00059.html" target="_top" xlink:title="infinitydouble.h">
<polygon fill="none" stroke="#000000" points="84.9761,-59.5 84.9761,-81.5 194.3755,-81.5 194.3755,-59.5 84.9761,-59.5"/>
<text text-anchor="middle" x="139.6758" y="-66.3" font-family="Helvetica,sans-Serif" font-size="14.00" fill="#000000">infinitydouble.h</text>
</a>
</g>
</g>
<!-- Node2&#45;&gt;Node4 -->
<g id="edge4" class="edge">
<title>Node2&#45;&gt;Node4</title>
<path fill="none" stroke="#191970" d="M296.374,-118.4026C264.9687,-108.802 219.4006,-94.8718 185.4911,-84.5057"/>
<polygon fill="#191970" stroke="#191970" points="186.4012,-81.1241 175.8148,-81.5477 184.3547,-87.8183 186.4012,-81.1241"/>
</g>
<!-- Node5 -->
<g id="node6" class="node">
<title>Node5</title>
<polygon fill="none" stroke="#bfbfbf" points="129.8828,-.5 129.8828,-22.5 231.4688,-22.5 231.4688,-.5 129.8828,-.5"/>
<text text-anchor="middle" x="180.6758" y="-7.3" font-family="Helvetica,sans-Serif" font-size="14.00" fill="#000000">QDataStream</text>
</g>
<!-- Node2&#45;&gt;Node5 -->
<g id="edge8" class="edge">
<title>Node2&#45;&gt;Node5</title>
<path fill="none" stroke="#191970" d="M305.2004,-118.4348C286.2618,-110.0521 261.1032,-97.3692 241.6758,-82 223.0006,-67.2259 205.6434,-46.1481 194.2574,-30.8918"/>
<polygon fill="#191970" stroke="#191970" points="196.9919,-28.701 188.2787,-22.6735 191.3313,-32.8191 196.9919,-28.701"/>
</g>
<!-- Node6 -->
<g id="node7" class="node">
<title>Node6</title>
<polygon fill="none" stroke="#bfbfbf" points="251,-59.5 251,-81.5 318.3516,-81.5 318.3516,-59.5 251,-59.5"/>
<text text-anchor="middle" x="284.6758" y="-66.3" font-family="Helvetica,sans-Serif" font-size="14.00" fill="#000000">QPointF</text>
</g>
<!-- Node2&#45;&gt;Node6 -->
<g id="edge6" class="edge">
<title>Node2&#45;&gt;Node6</title>
<path fill="none" stroke="#191970" d="M323.6473,-118.4026C317.01,-110.2441 307.829,-98.9592 300.0452,-89.3916"/>
<polygon fill="#191970" stroke="#191970" points="302.6896,-87.096 293.6637,-81.5477 297.2596,-91.5136 302.6896,-87.096"/>
</g>
<!-- Node7 -->
<g id="node8" class="node">
<title>Node7</title>
<polygon fill="none" stroke="#bfbfbf" points="336.5,-59.5 336.5,-81.5 424.8516,-81.5 424.8516,-59.5 336.5,-59.5"/>
<text text-anchor="middle" x="380.6758" y="-66.3" font-family="Helvetica,sans-Serif" font-size="14.00" fill="#000000">QByteArray</text>
</g>
<!-- Node2&#45;&gt;Node7 -->
<g id="edge7" class="edge">
<title>Node2&#45;&gt;Node7</title>
<path fill="none" stroke="#191970" d="M341.7042,-118.4026C348.3416,-110.2441 357.5226,-98.9592 365.3063,-89.3916"/>
<polygon fill="#191970" stroke="#191970" points="368.0919,-91.5136 371.6878,-81.5477 362.6619,-87.096 368.0919,-91.5136"/>
</g>
<!-- Node8 -->
<g id="node9" class="node">
<title>Node8</title>
<polygon fill="none" stroke="#bfbfbf" points="442.9448,-59.5 442.9448,-81.5 506.4067,-81.5 506.4067,-59.5 442.9448,-59.5"/>
<text text-anchor="middle" x="474.6758" y="-66.3" font-family="Helvetica,sans-Serif" font-size="14.00" fill="#000000">QString</text>
</g>
<!-- Node2&#45;&gt;Node8 -->
<g id="edge9" class="edge">
<title>Node2&#45;&gt;Node8</title>
<path fill="none" stroke="#191970" d="M359.3849,-118.4026C381.7972,-109.0904 414.0131,-95.7049 438.6958,-85.4494"/>
<polygon fill="#191970" stroke="#191970" points="440.1948,-88.6168 448.0864,-81.5477 437.5089,-82.1525 440.1948,-88.6168"/>
</g>
<!-- Node9 -->
<g id="node10" class="node">
<title>Node9</title>
<polygon fill="none" stroke="#bfbfbf" points="523.9321,-59.5 523.9321,-81.5 581.4194,-81.5 581.4194,-59.5 523.9321,-59.5"/>
<text text-anchor="middle" x="552.6758" y="-66.3" font-family="Helvetica,sans-Serif" font-size="14.00" fill="#000000">QTime</text>
</g>
<!-- Node2&#45;&gt;Node9 -->
<g id="edge10" class="edge">
<title>Node2&#45;&gt;Node9</title>
<path fill="none" stroke="#191970" d="M377.5846,-118.4745C412.5528,-109.7471 462.5212,-96.967 514.0029,-82.4088"/>
<polygon fill="#191970" stroke="#191970" points="514.9692,-85.7728 523.63,-79.6703 513.0539,-79.0399 514.9692,-85.7728"/>
</g>
<!-- Node10 -->
<g id="node11" class="node">
<title>Node10</title>
<polygon fill="none" stroke="#bfbfbf" points="599.4346,-59.5 599.4346,-81.5 683.917,-81.5 683.917,-59.5 599.4346,-59.5"/>
<text text-anchor="middle" x="641.6758" y="-66.3" font-family="Helvetica,sans-Serif" font-size="14.00" fill="#000000">QVector3D</text>
</g>
<!-- Node2&#45;&gt;Node10 -->
<g id="edge11" class="edge">
<title>Node2&#45;&gt;Node10</title>
<path fill="none" stroke="#191970" d="M396.4283,-118.4892C446.3774,-109.6958 517.8669,-96.746 589.3226,-82.2268"/>
<polygon fill="#191970" stroke="#191970" points="590.3056,-85.5984 599.4029,-80.1679 588.9047,-78.74 590.3056,-85.5984"/>
</g>
<!-- Node4&#45;&gt;Node5 -->
<g id="edge5" class="edge">
<title>Node4&#45;&gt;Node5</title>
<path fill="none" stroke="#191970" d="M147.3876,-59.4026C152.9424,-51.4089 160.5831,-40.4138 167.1433,-30.9736"/>
<polygon fill="#191970" stroke="#191970" points="170.1661,-32.7569 172.9986,-22.5477 164.4178,-28.7623 170.1661,-32.7569"/>
</g>
</g>
</svg>
