<?xml version="1.0" encoding="UTF-8" standalone="no"?>
<!DOCTYPE svg PUBLIC "-//W3C//DTD SVG 1.1//EN"
 "http://www.w3.org/Graphics/SVG/1.1/DTD/svg11.dtd">
<!-- Generated by graphviz version 2.40.1 (20161225.0304)
 -->
<!-- Title: std::ios_base::failure Pages: 1 -->
<svg width="152pt" height="178pt"
 viewBox="0.00 0.00 152.41 178.00" xmlns="http://www.w3.org/2000/svg" xmlns:xlink="http://www.w3.org/1999/xlink">
<g id="graph0" class="graph" transform="scale(1 1) rotate(0) translate(4 174)">
<title>std::ios_base::failure</title>
<!-- Node417 -->
<g id="node1" class="node">
<title>Node417</title>
<polygon fill="#bfbfbf" stroke="#000000" points="0,-.5 0,-66.5 144.4063,-66.5 144.4063,-.5 0,-.5"/>
<text text-anchor="middle" x="72.2031" y="-51.3" font-family="Helvetica,sans-Serif" font-size="14.00" fill="#000000">std::ios_base::failure</text>
<polyline fill="none" stroke="#000000" points="0,-44.5 144.4063,-44.5 "/>
<text text-anchor="middle" x="72.2031" y="-29.3" font-family="Helvetica,sans-Serif" font-size="14.00" fill="#000000"> </text>
<polyline fill="none" stroke="#000000" points="0,-22.5 144.4063,-22.5 "/>
<text text-anchor="middle" x="72.2031" y="-7.3" font-family="Helvetica,sans-Serif" font-size="14.00" fill="#000000"> </text>
</g>
<!-- Node418 -->
<g id="node2" class="node">
<title>Node418</title>
<g id="a_node2"><a xlink:title="STL class. ">
<polygon fill="none" stroke="#bfbfbf" points="21.0103,-103.5 21.0103,-169.5 123.396,-169.5 123.396,-103.5 21.0103,-103.5"/>
<text text-anchor="middle" x="72.2031" y="-154.3" font-family="Helvetica,sans-Serif" font-size="14.00" fill="#000000">std::exception</text>
<polyline fill="none" stroke="#bfbfbf" points="21.0103,-147.5 123.396,-147.5 "/>
<text text-anchor="middle" x="72.2031" y="-132.3" font-family="Helvetica,sans-Serif" font-size="14.00" fill="#000000"> </text>
<polyline fill="none" stroke="#bfbfbf" points="21.0103,-125.5 123.396,-125.5 "/>
<text text-anchor="middle" x="72.2031" y="-110.3" font-family="Helvetica,sans-Serif" font-size="14.00" fill="#000000"> </text>
</a>
</g>
</g>
<!-- Node418&#45;&gt;Node417 -->
<g id="edge1" class="edge">
<title>Node418&#45;&gt;Node417</title>
<path fill="none" stroke="#191970" d="M72.2031,-93.1362C72.2031,-84.256 72.2031,-75.0447 72.2031,-66.5947"/>
<polygon fill="none" stroke="#191970" points="68.7032,-93.3432 72.2031,-103.3432 75.7032,-93.3432 68.7032,-93.3432"/>
</g>
</g>
</svg>
