<?xml version="1.0" encoding="UTF-8" standalone="no"?>
<!DOCTYPE svg PUBLIC "-//W3C//DTD SVG 1.1//EN"
 "http://www.w3.org/Graphics/SVG/1.1/DTD/svg11.dtd">
<!-- Generated by graphviz version 2.40.1 (20161225.0304)
 -->
<!-- Title: ServerConnection Pages: 1 -->
<svg width="252pt" height="304pt"
 viewBox="0.00 0.00 252.46 304.00" xmlns="http://www.w3.org/2000/svg" xmlns:xlink="http://www.w3.org/1999/xlink">
<g id="graph0" class="graph" transform="scale(1 1) rotate(0) translate(4 300)">
<title>ServerConnection</title>
<!-- Node0 -->
<g id="node1" class="node">
<title>Node0</title>
<polygon fill="#bfbfbf" stroke="#000000" points="21.8105,-.5 21.8105,-178.5 179.4375,-178.5 179.4375,-.5 21.8105,-.5"/>
<text text-anchor="middle" x="100.624" y="-163.3" font-family="Helvetica,sans-Serif" font-size="14.00" fill="#000000">ServerConnection</text>
<polyline fill="none" stroke="#000000" points="21.8105,-156.5 179.4375,-156.5 "/>
<text text-anchor="start" x="29.8105" y="-141.3" font-family="Helvetica,sans-Serif" font-size="14.00" fill="#000000"># server</text>
<text text-anchor="start" x="29.8105" y="-127.3" font-family="Helvetica,sans-Serif" font-size="14.00" fill="#000000"># connections</text>
<text text-anchor="start" x="29.8105" y="-113.3" font-family="Helvetica,sans-Serif" font-size="14.00" fill="#000000"># instance</text>
<polyline fill="none" stroke="#000000" points="21.8105,-106.5 179.4375,-106.5 "/>
<text text-anchor="start" x="29.8105" y="-91.3" font-family="Helvetica,sans-Serif" font-size="14.00" fill="#000000">+ ~ServerConnection()</text>
<text text-anchor="start" x="29.8105" y="-77.3" font-family="Helvetica,sans-Serif" font-size="14.00" fill="#000000">+ startServer()</text>
<text text-anchor="start" x="29.8105" y="-63.3" font-family="Helvetica,sans-Serif" font-size="14.00" fill="#000000">+ receiveResponce()</text>
<text text-anchor="start" x="29.8105" y="-49.3" font-family="Helvetica,sans-Serif" font-size="14.00" fill="#000000">+ getServerInstance()</text>
<text text-anchor="start" x="29.8105" y="-35.3" font-family="Helvetica,sans-Serif" font-size="14.00" fill="#000000"># ServerConnection()</text>
<text text-anchor="start" x="29.8105" y="-21.3" font-family="Helvetica,sans-Serif" font-size="14.00" fill="#000000"># run()</text>
<text text-anchor="start" x="29.8105" y="-7.3" font-family="Helvetica,sans-Serif" font-size="14.00" fill="#000000"># onWorkerStop()</text>
</g>
<!-- Node1 -->
<g id="node2" class="node">
<title>Node1</title>
<polygon fill="none" stroke="#bfbfbf" points="0,-222.5 0,-288.5 71.248,-288.5 71.248,-222.5 0,-222.5"/>
<text text-anchor="middle" x="35.624" y="-273.3" font-family="Helvetica,sans-Serif" font-size="14.00" fill="#000000">QThread</text>
<polyline fill="none" stroke="#bfbfbf" points="0,-266.5 71.248,-266.5 "/>
<text text-anchor="middle" x="35.624" y="-251.3" font-family="Helvetica,sans-Serif" font-size="14.00" fill="#000000"> </text>
<polyline fill="none" stroke="#bfbfbf" points="0,-244.5 71.248,-244.5 "/>
<text text-anchor="middle" x="35.624" y="-229.3" font-family="Helvetica,sans-Serif" font-size="14.00" fill="#000000"> </text>
</g>
<!-- Node1&#45;&gt;Node0 -->
<g id="edge1" class="edge">
<title>Node1&#45;&gt;Node0</title>
<path fill="none" stroke="#191970" d="M52.2882,-212.9422C56.4321,-202.3593 61.0306,-190.6155 65.6962,-178.7003"/>
<polygon fill="none" stroke="#191970" points="49.0086,-211.7186 48.6215,-222.3064 55.5268,-214.2709 49.0086,-211.7186"/>
</g>
<!-- Node2 -->
<g id="node3" class="node">
<title>Node2</title>
<g id="a_node3"><a xlink:href="../../d9/db0/a00750.html" target="_top" xlink:title="{MailSender\n|# receiver\l|+ receiveResponce()\l+ setDefaultReceiver()\l}">
<polygon fill="none" stroke="#000000" points="88.7915,-215.5 88.7915,-295.5 244.4565,-295.5 244.4565,-215.5 88.7915,-215.5"/>
<text text-anchor="middle" x="166.624" y="-280.3" font-family="Helvetica,sans-Serif" font-size="14.00" fill="#000000">MailSender</text>
<polyline fill="none" stroke="#000000" points="88.7915,-273.5 244.4565,-273.5 "/>
<text text-anchor="start" x="96.7915" y="-258.3" font-family="Helvetica,sans-Serif" font-size="14.00" fill="#000000"># receiver</text>
<polyline fill="none" stroke="#000000" points="88.7915,-251.5 244.4565,-251.5 "/>
<text text-anchor="start" x="96.7915" y="-236.3" font-family="Helvetica,sans-Serif" font-size="14.00" fill="#000000">+ receiveResponce()</text>
<text text-anchor="start" x="96.7915" y="-222.3" font-family="Helvetica,sans-Serif" font-size="14.00" fill="#000000">+ setDefaultReceiver()</text>
</a>
</g>
</g>
<!-- Node2&#45;&gt;Node0 -->
<g id="edge2" class="edge">
<title>Node2&#45;&gt;Node0</title>
<path fill="none" stroke="#191970" d="M146.8675,-205.8094C143.424,-197.1483 139.7497,-187.9071 136.0346,-178.5629"/>
<polygon fill="none" stroke="#191970" points="143.7002,-207.3167 150.6473,-215.316 150.205,-204.7304 143.7002,-207.3167"/>
</g>
</g>
</svg>
