<?xml version="1.0" encoding="UTF-8" standalone="no"?>
<!DOCTYPE svg PUBLIC "-//W3C//DTD SVG 1.1//EN"
 "http://www.w3.org/Graphics/SVG/1.1/DTD/svg11.dtd">
<!-- Generated by graphviz version 2.40.1 (20161225.0304)
 -->
<!-- Title: std::basic_string&lt; Char &gt; Pages: 1 -->
<svg width="601pt" height="220pt"
 viewBox="0.00 0.00 600.69 220.00" xmlns="http://www.w3.org/2000/svg" xmlns:xlink="http://www.w3.org/1999/xlink">
<g id="graph0" class="graph" transform="scale(1 1) rotate(0) translate(4 216)">
<title>std::basic_string&lt; Char &gt;</title>
<!-- Node291 -->
<g id="node1" class="node">
<title>Node291</title>
<polygon fill="#bfbfbf" stroke="#000000" points="243.3604,-131.5 243.3604,-211.5 368.6943,-211.5 368.6943,-131.5 243.3604,-131.5"/>
<text text-anchor="start" x="251.3604" y="-196.3" font-family="Helvetica,sans-Serif" font-size="14.00" fill="#000000">std::basic_string&lt;</text>
<text text-anchor="middle" x="306.0273" y="-182.3" font-family="Helvetica,sans-Serif" font-size="14.00" fill="#000000"> Char &gt;</text>
<polyline fill="none" stroke="#000000" points="243.3604,-175.5 368.6943,-175.5 "/>
<text text-anchor="middle" x="306.0273" y="-160.3" font-family="Helvetica,sans-Serif" font-size="14.00" fill="#000000"> </text>
<polyline fill="none" stroke="#000000" points="243.3604,-153.5 368.6943,-153.5 "/>
<text text-anchor="middle" x="306.0273" y="-138.3" font-family="Helvetica,sans-Serif" font-size="14.00" fill="#000000"> </text>
</g>
<!-- Node292 -->
<g id="node2" class="node">
<title>Node292</title>
<g id="a_node2"><a xlink:title="STL class. ">
<polygon fill="none" stroke="#bfbfbf" points="0,-7.5 0,-73.5 128.0547,-73.5 128.0547,-7.5 0,-7.5"/>
<text text-anchor="middle" x="64.0273" y="-58.3" font-family="Helvetica,sans-Serif" font-size="14.00" fill="#000000">std::string&lt; char &gt;</text>
<polyline fill="none" stroke="#bfbfbf" points="0,-51.5 128.0547,-51.5 "/>
<text text-anchor="middle" x="64.0273" y="-36.3" font-family="Helvetica,sans-Serif" font-size="14.00" fill="#000000"> </text>
<polyline fill="none" stroke="#bfbfbf" points="0,-29.5 128.0547,-29.5 "/>
<text text-anchor="middle" x="64.0273" y="-14.3" font-family="Helvetica,sans-Serif" font-size="14.00" fill="#000000"> </text>
</a>
</g>
</g>
<!-- Node291&#45;&gt;Node292 -->
<g id="edge1" class="edge">
<title>Node291&#45;&gt;Node292</title>
<path fill="none" stroke="#191970" d="M234.1519,-133.3135C204.0839,-117.2602 168.807,-98.3234 137.0273,-81 132.5734,-78.5721 127.9728,-76.0511 123.3489,-73.5077"/>
<polygon fill="none" stroke="#191970" points="232.8361,-136.5785 243.3064,-138.198 236.1313,-130.4026 232.8361,-136.5785"/>
</g>
<!-- Node293 -->
<g id="node3" class="node">
<title>Node293</title>
<g id="a_node3"><a xlink:title="STL class. ">
<polygon fill="none" stroke="#bfbfbf" points="146.0518,-7.5 146.0518,-73.5 306.0029,-73.5 306.0029,-7.5 146.0518,-7.5"/>
<text text-anchor="middle" x="226.0273" y="-58.3" font-family="Helvetica,sans-Serif" font-size="14.00" fill="#000000">std::wstring&lt; wchar_t &gt;</text>
<polyline fill="none" stroke="#bfbfbf" points="146.0518,-51.5 306.0029,-51.5 "/>
<text text-anchor="middle" x="226.0273" y="-36.3" font-family="Helvetica,sans-Serif" font-size="14.00" fill="#000000"> </text>
<polyline fill="none" stroke="#bfbfbf" points="146.0518,-29.5 306.0029,-29.5 "/>
<text text-anchor="middle" x="226.0273" y="-14.3" font-family="Helvetica,sans-Serif" font-size="14.00" fill="#000000"> </text>
</a>
</g>
</g>
<!-- Node291&#45;&gt;Node293 -->
<g id="edge2" class="edge">
<title>Node291&#45;&gt;Node293</title>
<path fill="none" stroke="#191970" d="M276.1646,-122.5998C266.2018,-106.2856 255.3406,-88.5005 246.2826,-73.6679"/>
<polygon fill="none" stroke="#191970" points="273.391,-124.7736 281.59,-131.4839 279.3652,-121.1253 273.391,-124.7736"/>
</g>
<!-- Node294 -->
<g id="node4" class="node">
<title>Node294</title>
<polygon fill="none" stroke="#bfbfbf" points="324.3604,-.5 324.3604,-80.5 449.6943,-80.5 449.6943,-.5 324.3604,-.5"/>
<text text-anchor="start" x="332.3604" y="-65.3" font-family="Helvetica,sans-Serif" font-size="14.00" fill="#000000">std::basic_string&lt;</text>
<text text-anchor="middle" x="387.0273" y="-51.3" font-family="Helvetica,sans-Serif" font-size="14.00" fill="#000000"> wchar_t &gt;</text>
<polyline fill="none" stroke="#bfbfbf" points="324.3604,-44.5 449.6943,-44.5 "/>
<text text-anchor="middle" x="387.0273" y="-29.3" font-family="Helvetica,sans-Serif" font-size="14.00" fill="#000000"> </text>
<polyline fill="none" stroke="#bfbfbf" points="324.3604,-22.5 449.6943,-22.5 "/>
<text text-anchor="middle" x="387.0273" y="-7.3" font-family="Helvetica,sans-Serif" font-size="14.00" fill="#000000"> </text>
</g>
<!-- Node291&#45;&gt;Node294 -->
<g id="edge3" class="edge">
<title>Node291&#45;&gt;Node294</title>
<path fill="none" stroke="#ffa500" d="M336.2656,-122.5961C344.7972,-108.7981 353.9792,-93.9482 362.157,-80.7225"/>
<polygon fill="#ffa500" stroke="#ffa500" points="333.0524,-121.1377 330.7701,-131.4839 339.0062,-124.8191 333.0524,-121.1377"/>
<text text-anchor="middle" x="387.5479" y="-101.8" font-family="Helvetica,sans-Serif" font-size="14.00" fill="#000000"> &lt; wchar_t &gt;</text>
</g>
<!-- Node295 -->
<g id="node5" class="node">
<title>Node295</title>
<polygon fill="none" stroke="#bfbfbf" points="467.3604,-.5 467.3604,-80.5 592.6943,-80.5 592.6943,-.5 467.3604,-.5"/>
<text text-anchor="start" x="475.3604" y="-65.3" font-family="Helvetica,sans-Serif" font-size="14.00" fill="#000000">std::basic_string&lt;</text>
<text text-anchor="middle" x="530.0273" y="-51.3" font-family="Helvetica,sans-Serif" font-size="14.00" fill="#000000"> char &gt;</text>
<polyline fill="none" stroke="#bfbfbf" points="467.3604,-44.5 592.6943,-44.5 "/>
<text text-anchor="middle" x="530.0273" y="-29.3" font-family="Helvetica,sans-Serif" font-size="14.00" fill="#000000"> </text>
<polyline fill="none" stroke="#bfbfbf" points="467.3604,-22.5 592.6943,-22.5 "/>
<text text-anchor="middle" x="530.0273" y="-7.3" font-family="Helvetica,sans-Serif" font-size="14.00" fill="#000000"> </text>
</g>
<!-- Node291&#45;&gt;Node295 -->
<g id="edge4" class="edge">
<title>Node291&#45;&gt;Node295</title>
<path fill="none" stroke="#ffa500" d="M378.1987,-140.2305C395.5017,-131.9791 413.6909,-122.6611 430.0273,-113 446.3624,-103.3397 463.3543,-91.6941 478.5968,-80.5903"/>
<polygon fill="#ffa500" stroke="#ffa500" points="376.2542,-137.2772 368.6945,-144.7003 379.2333,-143.6116 376.2542,-137.2772"/>
<text text-anchor="middle" x="477.6548" y="-101.8" font-family="Helvetica,sans-Serif" font-size="14.00" fill="#000000"> &lt; char &gt;</text>
</g>
</g>
</svg>
