<?xml version="1.0" encoding="UTF-8" standalone="no"?>
<!DOCTYPE svg PUBLIC "-//W3C//DTD SVG 1.1//EN"
 "http://www.w3.org/Graphics/SVG/1.1/DTD/svg11.dtd">
<!-- Generated by graphviz version 2.40.1 (20161225.0304)
 -->
<!-- Title: ServerWorker Pages: 1 -->
<svg width="252pt" height="436pt"
 viewBox="0.00 0.00 252.46 436.00" xmlns="http://www.w3.org/2000/svg" xmlns:xlink="http://www.w3.org/1999/xlink">
<g id="graph0" class="graph" transform="scale(1 1) rotate(0) translate(4 432)">
<title>ServerWorker</title>
<!-- Node3 -->
<g id="node1" class="node">
<title>Node3</title>
<polygon fill="#bfbfbf" stroke="#000000" points="1.8433,-.5 1.8433,-150.5 147.4048,-150.5 147.4048,-.5 1.8433,-.5"/>
<text text-anchor="middle" x="74.624" y="-135.3" font-family="Helvetica,sans-Serif" font-size="14.00" fill="#000000">ServerWorker</text>
<polyline fill="none" stroke="#000000" points="1.8433,-128.5 147.4048,-128.5 "/>
<text text-anchor="start" x="9.8433" y="-113.3" font-family="Helvetica,sans-Serif" font-size="14.00" fill="#000000"># socket</text>
<text text-anchor="start" x="9.8433" y="-99.3" font-family="Helvetica,sans-Serif" font-size="14.00" fill="#000000"># isWork</text>
<text text-anchor="start" x="9.8433" y="-85.3" font-family="Helvetica,sans-Serif" font-size="14.00" fill="#000000"># out</text>
<text text-anchor="start" x="9.8433" y="-71.3" font-family="Helvetica,sans-Serif" font-size="14.00" fill="#000000"># workerMutex</text>
<text text-anchor="start" x="9.8433" y="-57.3" font-family="Helvetica,sans-Serif" font-size="14.00" fill="#000000"># responceMessage</text>
<polyline fill="none" stroke="#000000" points="1.8433,-50.5 147.4048,-50.5 "/>
<text text-anchor="start" x="9.8433" y="-35.3" font-family="Helvetica,sans-Serif" font-size="14.00" fill="#000000">+ ServerWorker()</text>
<text text-anchor="start" x="9.8433" y="-21.3" font-family="Helvetica,sans-Serif" font-size="14.00" fill="#000000">+ receiveResponce()</text>
<text text-anchor="start" x="9.8433" y="-7.3" font-family="Helvetica,sans-Serif" font-size="14.00" fill="#000000"># run()</text>
</g>
<!-- Node4 -->
<g id="node2" class="node">
<title>Node4</title>
<polygon fill="none" stroke="#bfbfbf" points="0,-195.5 0,-261.5 71.248,-261.5 71.248,-195.5 0,-195.5"/>
<text text-anchor="middle" x="35.624" y="-246.3" font-family="Helvetica,sans-Serif" font-size="14.00" fill="#000000">QThread</text>
<polyline fill="none" stroke="#bfbfbf" points="0,-239.5 71.248,-239.5 "/>
<text text-anchor="middle" x="35.624" y="-224.3" font-family="Helvetica,sans-Serif" font-size="14.00" fill="#000000"> </text>
<polyline fill="none" stroke="#bfbfbf" points="0,-217.5 71.248,-217.5 "/>
<text text-anchor="middle" x="35.624" y="-202.3" font-family="Helvetica,sans-Serif" font-size="14.00" fill="#000000"> </text>
</g>
<!-- Node4&#45;&gt;Node3 -->
<g id="edge1" class="edge">
<title>Node4&#45;&gt;Node3</title>
<path fill="none" stroke="#191970" d="M46.6332,-185.3101C49.3893,-174.4977 52.4266,-162.582 55.4534,-150.7079"/>
<polygon fill="none" stroke="#191970" points="43.165,-184.7466 44.0864,-195.3013 49.9481,-186.4757 43.165,-184.7466"/>
</g>
<!-- Node5 -->
<g id="node3" class="node">
<title>Node5</title>
<g id="a_node3"><a xlink:href="../../d5/d13/a00205.html" target="_top" xlink:title="{MailSender\n||+ receiveResponce()\l+ setDefaultReceiver()\l}">
<polygon fill="none" stroke="#000000" points="88.7915,-188.5 88.7915,-268.5 244.4565,-268.5 244.4565,-188.5 88.7915,-188.5"/>
<text text-anchor="middle" x="166.624" y="-253.3" font-family="Helvetica,sans-Serif" font-size="14.00" fill="#000000">MailSender</text>
<polyline fill="none" stroke="#000000" points="88.7915,-246.5 244.4565,-246.5 "/>
<text text-anchor="middle" x="166.624" y="-231.3" font-family="Helvetica,sans-Serif" font-size="14.00" fill="#000000"> </text>
<polyline fill="none" stroke="#000000" points="88.7915,-224.5 244.4565,-224.5 "/>
<text text-anchor="start" x="96.7915" y="-209.3" font-family="Helvetica,sans-Serif" font-size="14.00" fill="#000000">+ receiveResponce()</text>
<text text-anchor="start" x="96.7915" y="-195.3" font-family="Helvetica,sans-Serif" font-size="14.00" fill="#000000">+ setDefaultReceiver()</text>
</a>
</g>
</g>
<!-- Node5&#45;&gt;Node3 -->
<g id="edge2" class="edge">
<title>Node5&#45;&gt;Node3</title>
<path fill="none" stroke="#191970" d="M137.2444,-179.6404C131.6795,-170.3857 125.7396,-160.5074 119.8176,-150.6588"/>
<polygon fill="none" stroke="#191970" points="134.2994,-181.5347 142.4521,-188.3011 140.2984,-177.9274 134.2994,-181.5347"/>
</g>
<!-- Node6 -->
<g id="node4" class="node">
<title>Node6</title>
<g id="a_node4"><a xlink:href="../../de/db1/a00197.html" target="_top" xlink:title="{MailReceiver\n|# messages\l# mutex\l# isQueueLock\l|+ sendMail()\l# nextMessage()\l}">
<polygon fill="none" stroke="#000000" points="106.4897,-319.5 106.4897,-427.5 226.7583,-427.5 226.7583,-319.5 106.4897,-319.5"/>
<text text-anchor="middle" x="166.624" y="-412.3" font-family="Helvetica,sans-Serif" font-size="14.00" fill="#000000">MailReceiver</text>
<polyline fill="none" stroke="#000000" points="106.4897,-405.5 226.7583,-405.5 "/>
<text text-anchor="start" x="114.4897" y="-390.3" font-family="Helvetica,sans-Serif" font-size="14.00" fill="#000000"># messages</text>
<text text-anchor="start" x="114.4897" y="-376.3" font-family="Helvetica,sans-Serif" font-size="14.00" fill="#000000"># mutex</text>
<text text-anchor="start" x="114.4897" y="-362.3" font-family="Helvetica,sans-Serif" font-size="14.00" fill="#000000"># isQueueLock</text>
<polyline fill="none" stroke="#000000" points="106.4897,-355.5 226.7583,-355.5 "/>
<text text-anchor="start" x="114.4897" y="-340.3" font-family="Helvetica,sans-Serif" font-size="14.00" fill="#000000">+ sendMail()</text>
<text text-anchor="start" x="114.4897" y="-326.3" font-family="Helvetica,sans-Serif" font-size="14.00" fill="#000000"># nextMessage()</text>
</a>
</g>
</g>
<!-- Node6&#45;&gt;Node5 -->
<g id="edge3" class="edge">
<title>Node6&#45;&gt;Node5</title>
<path fill="none" stroke="#404040" d="M166.624,-319.0948C166.624,-306.5586 166.624,-293.2514 166.624,-280.8067"/>
<polygon fill="none" stroke="#404040" points="166.6241,-280.7101 162.6241,-274.7101 166.624,-268.7101 170.6241,-274.71 166.6241,-280.7101"/>
<text text-anchor="middle" x="197.3584" y="-289.8" font-family="Helvetica,sans-Serif" font-size="14.00" fill="#000000"> #receiver</text>
</g>
</g>
</svg>
