<?xml version="1.0" encoding="UTF-8" standalone="no"?>
<!DOCTYPE svg PUBLIC "-//W3C//DTD SVG 1.1//EN"
 "http://www.w3.org/Graphics/SVG/1.1/DTD/svg11.dtd">
<!-- Generated by graphviz version 2.40.1 (20161225.0304)
 -->
<!-- Title: Server/serverworker.h Pages: 1 -->
<svg width="430pt" height="149pt"
 viewBox="0.00 0.00 429.83 149.00" xmlns="http://www.w3.org/2000/svg" xmlns:xlink="http://www.w3.org/1999/xlink">
<g id="graph0" class="graph" transform="scale(1 1) rotate(0) translate(4 145)">
<title>Server/serverworker.h</title>
<!-- Node19 -->
<g id="node1" class="node">
<title>Node19</title>
<polygon fill="#bfbfbf" stroke="#000000" points="165.4966,-118.5 165.4966,-140.5 318.4341,-140.5 318.4341,-118.5 165.4966,-118.5"/>
<text text-anchor="middle" x="241.9653" y="-125.3" font-family="Helvetica,sans-Serif" font-size="14.00" fill="#000000">Server/serverworker.h</text>
</g>
<!-- Node20 -->
<g id="node2" class="node">
<title>Node20</title>
<g id="a_node2"><a xlink:href="$dd/d06/serverconnection_8h.html" xlink:title="Server/serverconnection.h">
<polygon fill="none" stroke="#000000" points="56.2588,-59.5 56.2588,-81.5 235.6719,-81.5 235.6719,-59.5 56.2588,-59.5"/>
<text text-anchor="middle" x="145.9653" y="-66.3" font-family="Helvetica,sans-Serif" font-size="14.00" fill="#000000">Server/serverconnection.h</text>
</a>
</g>
</g>
<!-- Node19&#45;&gt;Node20 -->
<g id="edge1" class="edge">
<title>Node19&#45;&gt;Node20</title>
<path fill="none" stroke="#191970" d="M215.3053,-113.1152C198.9324,-103.0527 178.4001,-90.4339 163.9412,-81.5477"/>
<polygon fill="#191970" stroke="#191970" points="213.5562,-116.1484 223.9085,-118.4026 217.2214,-110.1846 213.5562,-116.1484"/>
</g>
<!-- Node23 -->
<g id="node5" class="node">
<title>Node23</title>
<g id="a_node5"><a xlink:href="$d7/d0e/serverworker_8cpp.html" xlink:title="Server/serverworker.cpp">
<polygon fill="none" stroke="#000000" points="254.1035,-59.5 254.1035,-81.5 421.8271,-81.5 421.8271,-59.5 254.1035,-59.5"/>
<text text-anchor="middle" x="337.9653" y="-66.3" font-family="Helvetica,sans-Serif" font-size="14.00" fill="#000000">Server/serverworker.cpp</text>
</a>
</g>
</g>
<!-- Node19&#45;&gt;Node23 -->
<g id="edge4" class="edge">
<title>Node19&#45;&gt;Node23</title>
<path fill="none" stroke="#191970" d="M268.6254,-113.1152C284.9983,-103.0527 305.5305,-90.4339 319.9894,-81.5477"/>
<polygon fill="#191970" stroke="#191970" points="266.7092,-110.1846 260.0222,-118.4026 270.3745,-116.1484 266.7092,-110.1846"/>
</g>
<!-- Node21 -->
<g id="node3" class="node">
<title>Node21</title>
<g id="a_node3"><a xlink:href="$d6/dda/Server_2main_8cpp.html" xlink:title="Server/main.cpp">
<polygon fill="none" stroke="#000000" points="0,-.5 0,-22.5 117.9307,-22.5 117.9307,-.5 0,-.5"/>
<text text-anchor="middle" x="58.9653" y="-7.3" font-family="Helvetica,sans-Serif" font-size="14.00" fill="#000000">Server/main.cpp</text>
</a>
</g>
</g>
<!-- Node20&#45;&gt;Node21 -->
<g id="edge2" class="edge">
<title>Node20&#45;&gt;Node21</title>
<path fill="none" stroke="#191970" d="M120.9765,-53.5536C106.2794,-43.5866 88.1167,-31.2693 75.256,-22.5477"/>
<polygon fill="#191970" stroke="#191970" points="119.3605,-56.6865 129.6013,-59.4026 123.2894,-50.8931 119.3605,-56.6865"/>
</g>
<!-- Node22 -->
<g id="node4" class="node">
<title>Node22</title>
<g id="a_node4"><a xlink:href="$d2/d44/serverconnection_8cpp.html" xlink:title="Server/serverconnection.cpp">
<polygon fill="none" stroke="#000000" points="135.8657,-.5 135.8657,-22.5 330.0649,-22.5 330.0649,-.5 135.8657,-.5"/>
<text text-anchor="middle" x="232.9653" y="-7.3" font-family="Helvetica,sans-Serif" font-size="14.00" fill="#000000">Server/serverconnection.cpp</text>
</a>
</g>
</g>
<!-- Node20&#45;&gt;Node22 -->
<g id="edge3" class="edge">
<title>Node20&#45;&gt;Node22</title>
<path fill="none" stroke="#191970" d="M170.9541,-53.5536C185.6512,-43.5866 203.814,-31.2693 216.6747,-22.5477"/>
<polygon fill="#191970" stroke="#191970" points="168.6413,-50.8931 162.3294,-59.4026 172.5702,-56.6865 168.6413,-50.8931"/>
</g>
</g>
</svg>
