<?xml version="1.0" encoding="UTF-8" standalone="no"?>
<!DOCTYPE svg PUBLIC "-//W3C//DTD SVG 1.1//EN"
 "http://www.w3.org/Graphics/SVG/1.1/DTD/svg11.dtd">
<!-- Generated by graphviz version 2.40.1 (20161225.0304)
 -->
<!-- Title: ListBseMap::proccessAllInR Pages: 1 -->
<svg width="439pt" height="72pt"
 viewBox="0.00 0.00 438.61 72.00" xmlns="http://www.w3.org/2000/svg" xmlns:xlink="http://www.w3.org/1999/xlink">
<g id="graph0" class="graph" transform="scale(1 1) rotate(0) translate(4 68)">
<title>ListBseMap::proccessAllInR</title>
<!-- Node8 -->
<g id="node1" class="node">
<title>Node8</title>
<polygon fill="#bfbfbf" stroke="#000000" points="0,-20.5 0,-42.5 190.2891,-42.5 190.2891,-20.5 0,-20.5"/>
<text text-anchor="middle" x="95.1445" y="-27.3" font-family="Helvetica,sans-Serif" font-size="14.00" fill="#000000">ListBseMap::proccessAllInR</text>
</g>
<!-- Node9 -->
<g id="node2" class="node">
<title>Node9</title>
<g id="a_node2"><a xlink:href="../../da/d24/a00068.html#a1ab36c07a61bd9f450ed0ac1ba68ed94" target="_top" xlink:title="distanceBetweenElement">
<polygon fill="none" stroke="#000000" points="241.458,-41.5 241.458,-63.5 415.4434,-63.5 415.4434,-41.5 241.458,-41.5"/>
<text text-anchor="middle" x="328.4507" y="-48.3" font-family="Helvetica,sans-Serif" font-size="14.00" fill="#000000">distanceBetweenElement</text>
</a>
</g>
</g>
<!-- Node8&#45;&gt;Node9 -->
<g id="edge1" class="edge">
<title>Node8&#45;&gt;Node9</title>
<path fill="none" stroke="#191970" d="M190.3756,-40.0718C203.8299,-41.2828 217.678,-42.5293 231.1704,-43.7438"/>
<polygon fill="#191970" stroke="#191970" points="231.1328,-47.2544 241.4063,-44.6651 231.7604,-40.2826 231.1328,-47.2544"/>
</g>
<!-- Node10 -->
<g id="node3" class="node">
<title>Node10</title>
<g id="a_node3"><a xlink:href="../../d7/dc3/a00682.html#ae2be75da1a2a9edfabe993770e24654a" target="_top" xlink:title="IBaseGameElement::nextStep">
<polygon fill="none" stroke="#000000" points="226.2891,-.5 226.2891,-22.5 430.6123,-22.5 430.6123,-.5 226.2891,-.5"/>
<text text-anchor="middle" x="328.4507" y="-7.3" font-family="Helvetica,sans-Serif" font-size="14.00" fill="#000000">IBaseGameElement::nextStep</text>
</a>
</g>
</g>
<!-- Node8&#45;&gt;Node10 -->
<g id="edge2" class="edge">
<title>Node8&#45;&gt;Node10</title>
<path fill="none" stroke="#191970" d="M190.3756,-23.3364C198.7978,-22.6144 207.3744,-21.8792 215.9214,-21.1465"/>
<polygon fill="#191970" stroke="#191970" points="216.2657,-24.6299 225.9302,-20.2885 215.6678,-17.6555 216.2657,-24.6299"/>
</g>
</g>
</svg>
