<?xml version="1.0" encoding="UTF-8" standalone="no"?>
<!DOCTYPE svg PUBLIC "-//W3C//DTD SVG 1.1//EN"
 "http://www.w3.org/Graphics/SVG/1.1/DTD/svg11.dtd">
<!-- Generated by graphviz version 2.40.1 (20161225.0304)
 -->
<!-- Title: IBaseGameElement::nextStep Pages: 1 -->
<!--zoomable 296 -->
<svg id="main" version="1.1" xmlns="http://www.w3.org/2000/svg" xmlns:xlink="http://www.w3.org/1999/xlink" xml:space="preserve" onload="init(evt)">
<style type="text/css"><![CDATA[
.edge:hover path { stroke: red; }
.edge:hover polygon { stroke: red; fill: red; }
]]></style>
<script type="text/javascript"><![CDATA[
var edges = document.getElementsByTagName('g');
if (edges && edges.length) {
  for (var i=0;i<edges.length;i++) {
    if (edges[i].id.substr(0,4)=='edge') {
      edges[i].setAttribute('class','edge');
    }
  }
}
]]></script>
        <defs>
                <circle id="rim" cx="0" cy="0" r="7"/>
                <circle id="rim2" cx="0" cy="0" r="3.5"/>
                <g id="zoomPlus">
                        <use xlink:href="#rim" target="_top" target="_top" target="_top" fill="#404040">
                                <set attributeName="fill" to="#808080" begin="zoomplus.mouseover" end="zoomplus.mouseout"/>
                        </use>
                        <path d="M-4,0h8M0,-4v8" fill="none" stroke="white" stroke-width="1.5" pointer-events="none"/>
                </g>
                <g id="zoomMin">
                        <use xlink:href="#rim" target="_top" target="_top" target="_top" fill="#404040">
                                <set attributeName="fill" to="#808080" begin="zoomminus.mouseover" end="zoomminus.mouseout"/>
                        </use>
                        <path d="M-4,0h8" fill="none" stroke="white" stroke-width="1.5" pointer-events="none"/>
                </g>
                <g id="dirArrow">
                        <path fill="none" stroke="white" stroke-width="1.5" d="M0,-3.0v7 M-2.5,-0.5L0,-3.0L2.5,-0.5"/>
                </g>
               <g id="resetDef">
                       <use xlink:href="#rim2" target="_top" target="_top" target="_top" fill="#404040">
                               <set attributeName="fill" to="#808080" begin="reset.mouseover" end="reset.mouseout"/>
                       </use>
               </g>
        </defs>

<script type="text/javascript">
var viewWidth = 989;
var viewHeight = 296;
var sectionId = 'dynsection-4';
</script>
<script xlink:href="../../svgpan.js" target="_top" target="_top" target="_top"/>
<svg id="graph" class="graph">
<g id="viewport">
<title>IBaseGameElement::nextStep</title>
<!-- Node6 -->
<g id="node1" class="node">
<title>Node6</title>
<polygon fill="#bfbfbf" stroke="#000000" points="0,-135.5 0,-157.5 204.3232,-157.5 204.3232,-135.5 0,-135.5"/>
<text text-anchor="middle" x="102.1616" y="-142.3" font-family="Helvetica,sans-Serif" font-size="14.00" fill="#000000">IBaseGameElement::nextStep</text>
</g>
<!-- Node7 -->
<g id="node2" class="node">
<title>Node7</title>
<g id="a_node2"><a xlink:href="../../da/d1e/a00149.html#aa3c0b1cd0f29db8b63bb22dbfb78bbc5" target="_top" target="_top" target="_top" target="_top" xlink:title="BaseBasis::BaseBasis">
<polygon fill="none" stroke="#000000" points="273.7817,-258.5 273.7817,-280.5 429.8501,-280.5 429.8501,-258.5 273.7817,-258.5"/>
<text text-anchor="middle" x="351.8159" y="-265.3" font-family="Helvetica,sans-Serif" font-size="14.00" fill="#000000">BaseBasis::BaseBasis</text>
</a>
</g>
</g>
<!-- Node6&#45;&gt;Node7 -->
<g id="edge1" class="edge">
<title>Node6&#45;&gt;Node7</title>
<path fill="none" stroke="#191970" d="M120.4531,-164.633C145.3322,-188.1646 192.2707,-228.6687 240.3232,-249.5 250.7881,-254.0366 262.2341,-257.5442 273.6794,-260.2562"/>
<polygon fill="#191970" stroke="#191970" points="122.8111,-162.0448 113.1772,-157.6357 117.9589,-167.0902 122.8111,-162.0448"/>
</g>
<!-- Node10 -->
<g id="node5" class="node">
<title>Node10</title>
<g id="a_node5"><a xlink:href="../../d1/db7/a00157.html#ab09f29abaec12417480cae3a5f900a41" target="_top" target="_top" target="_top" target="_top" xlink:title="BaseTank::BaseTank">
<polygon fill="none" stroke="#000000" points="278.4438,-217.5 278.4438,-239.5 425.188,-239.5 425.188,-217.5 278.4438,-217.5"/>
<text text-anchor="middle" x="351.8159" y="-224.3" font-family="Helvetica,sans-Serif" font-size="14.00" fill="#000000">BaseTank::BaseTank</text>
</a>
</g>
</g>
<!-- Node6&#45;&gt;Node10 -->
<g id="edge4" class="edge">
<title>Node6&#45;&gt;Node10</title>
<path fill="none" stroke="#191970" d="M131.6585,-162.2867C159.0869,-176.3435 201.4502,-196.4898 240.3232,-208.5 252.4422,-212.2442 265.5319,-215.3713 278.3339,-217.9546"/>
<polygon fill="#191970" stroke="#191970" points="133.0981,-159.0906 122.6098,-157.5918 129.8743,-165.304 133.0981,-159.0906"/>
</g>
<!-- Node11 -->
<g id="node6" class="node">
<title>Node11</title>
<g id="a_node6"><a xlink:href="../../d5/d4e/a00141.html#abb725fa0a448bf536959a5c469556599" target="_top" target="_top" target="_top" target="_top" xlink:title="DiffElement::DiffElement">
<polygon fill="none" stroke="#000000" points="267.814,-176.5 267.814,-198.5 435.8179,-198.5 435.8179,-176.5 267.814,-176.5"/>
<text text-anchor="middle" x="351.8159" y="-183.3" font-family="Helvetica,sans-Serif" font-size="14.00" fill="#000000">DiffElement::DiffElement</text>
</a>
</g>
</g>
<!-- Node6&#45;&gt;Node11 -->
<g id="edge5" class="edge">
<title>Node6&#45;&gt;Node11</title>
<path fill="none" stroke="#191970" d="M179.6243,-159.2215C213.19,-164.7339 252.1205,-171.1273 284.4647,-176.4391"/>
<polygon fill="#191970" stroke="#191970" points="179.8278,-155.7081 169.3928,-157.5412 178.6934,-162.6156 179.8278,-155.7081"/>
</g>
<!-- Node12 -->
<g id="node7" class="node">
<title>Node12</title>
<g id="a_node7"><a xlink:href="../../df/d24/a00217.html#a8961b80aa1df5f628bd4e28e66a51d0b" target="_top" target="_top" target="_top" target="_top" xlink:title="MapIniter::getRandomGrass">
<polygon fill="none" stroke="#000000" points="255.8887,-135.5 255.8887,-157.5 447.7432,-157.5 447.7432,-135.5 255.8887,-135.5"/>
<text text-anchor="middle" x="351.8159" y="-142.3" font-family="Helvetica,sans-Serif" font-size="14.00" fill="#000000">MapIniter::getRandomGrass</text>
</a>
</g>
</g>
<!-- Node6&#45;&gt;Node12 -->
<g id="edge6" class="edge">
<title>Node6&#45;&gt;Node12</title>
<path fill="none" stroke="#191970" d="M214.8254,-146.5C228.4892,-146.5 242.3492,-146.5 255.7422,-146.5"/>
<polygon fill="#191970" stroke="#191970" points="214.4259,-143.0001 204.4259,-146.5 214.4259,-150.0001 214.4259,-143.0001"/>
</g>
<!-- Node13 -->
<g id="node8" class="node">
<title>Node13</title>
<g id="a_node8"><a xlink:href="../../df/d24/a00217.html#ae6dfbed9cc8569db78442c0bfe57e252" target="_top" target="_top" target="_top" target="_top" xlink:title="MapIniter::initSimapleMap">
<polygon fill="none" stroke="#000000" points="521.4844,-115.5 521.4844,-137.5 699.332,-137.5 699.332,-115.5 521.4844,-115.5"/>
<text text-anchor="middle" x="610.4082" y="-122.3" font-family="Helvetica,sans-Serif" font-size="14.00" fill="#000000">MapIniter::initSimapleMap</text>
</a>
</g>
</g>
<!-- Node6&#45;&gt;Node13 -->
<g id="edge10" class="edge">
<title>Node6&#45;&gt;Node13</title>
<path fill="none" stroke="#191970" d="M171.3482,-133.8931C193.3212,-130.452 217.77,-127.2042 240.3232,-125.5 336.1056,-118.2623 446.2301,-119.819 521.2801,-122.3669"/>
<polygon fill="#191970" stroke="#191970" points="170.7614,-130.4424 161.4424,-135.4829 171.8707,-137.354 170.7614,-130.4424"/>
</g>
<!-- Node15 -->
<g id="node10" class="node">
<title>Node15</title>
<g id="a_node10"><a xlink:href="../../d2/df5/a00137.html#ae72e1c7b4ecb3cf88e2a86ff4a331e88" target="_top" target="_top" target="_top" target="_top" xlink:title="IBaseGameElement::IBaseGame\lElement">
<polygon fill="none" stroke="#000000" points="240.3232,-41.5 240.3232,-77.5 463.3086,-77.5 463.3086,-41.5 240.3232,-41.5"/>
<text text-anchor="start" x="248.3232" y="-62.3" font-family="Helvetica,sans-Serif" font-size="14.00" fill="#000000">IBaseGameElement::IBaseGame</text>
<text text-anchor="middle" x="351.8159" y="-48.3" font-family="Helvetica,sans-Serif" font-size="14.00" fill="#000000">Element</text>
</a>
</g>
</g>
<!-- Node6&#45;&gt;Node15 -->
<g id="edge9" class="edge">
<title>Node6&#45;&gt;Node15</title>
<path fill="none" stroke="#191970" d="M137.6866,-131.6555C165.4121,-120.3044 205.0188,-104.5997 240.3232,-92.5 255.5046,-87.297 272.0092,-82.143 287.5511,-77.5094"/>
<polygon fill="#191970" stroke="#191970" points="136.3177,-128.434 128.4018,-135.4759 138.9814,-134.9074 136.3177,-128.434"/>
</g>
<!-- Node16 -->
<g id="node11" class="node">
<title>Node16</title>
<g id="a_node11"><a xlink:href="../../de/d53/a00169.html#a634c821cf280b64eb56ceac190635b1a" target="_top" target="_top" target="_top" target="_top" xlink:title="ListBseMap::proccessAllInR">
<polygon fill="none" stroke="#000000" points="256.6714,-.5 256.6714,-22.5 446.9604,-22.5 446.9604,-.5 256.6714,-.5"/>
<text text-anchor="middle" x="351.8159" y="-7.3" font-family="Helvetica,sans-Serif" font-size="14.00" fill="#000000">ListBseMap::proccessAllInR</text>
</a>
</g>
</g>
<!-- Node6&#45;&gt;Node16 -->
<g id="edge11" class="edge">
<title>Node6&#45;&gt;Node16</title>
<path fill="none" stroke="#191970" d="M118.5312,-127.8006C142.4893,-101.7354 189.7774,-55.039 240.3232,-31.5 247.9889,-27.9302 256.2249,-24.9953 264.6235,-22.5828"/>
<polygon fill="#191970" stroke="#191970" points="115.6995,-125.7142 111.5978,-135.4829 120.8961,-130.4042 115.6995,-125.7142"/>
</g>
<!-- Node8 -->
<g id="node3" class="node">
<title>Node8</title>
<g id="a_node3"><a xlink:href="../../d3/de5/a00209.html#ac7722494194e946c7d045471858c3aee" target="_top" target="_top" target="_top" target="_top" xlink:title="MainGameLoop::proccessGamer\lMessage">
<polygon fill="none" stroke="#000000" points="499.3086,-251.5 499.3086,-287.5 721.5078,-287.5 721.5078,-251.5 499.3086,-251.5"/>
<text text-anchor="start" x="507.3086" y="-272.3" font-family="Helvetica,sans-Serif" font-size="14.00" fill="#000000">MainGameLoop::proccessGamer</text>
<text text-anchor="middle" x="610.4082" y="-258.3" font-family="Helvetica,sans-Serif" font-size="14.00" fill="#000000">Message</text>
</a>
</g>
</g>
<!-- Node7&#45;&gt;Node8 -->
<g id="edge2" class="edge">
<title>Node7&#45;&gt;Node8</title>
<path fill="none" stroke="#191970" d="M440.1712,-269.5C459.0976,-269.5 479.3291,-269.5 498.9976,-269.5"/>
<polygon fill="#191970" stroke="#191970" points="440.1039,-266.0001 430.1039,-269.5 440.1039,-273.0001 440.1039,-266.0001"/>
</g>
<!-- Node9 -->
<g id="node4" class="node">
<title>Node9</title>
<g id="a_node4"><a xlink:href="../../d3/de5/a00209.html#ab9de0ceedab969b5f7fd9e1131bc4cd5" target="_top" target="_top" target="_top" target="_top" xlink:title="MainGameLoop::getProccessor\lForMessage">
<polygon fill="none" stroke="#000000" points="762.5732,-251.5 762.5732,-287.5 975.4482,-287.5 975.4482,-251.5 762.5732,-251.5"/>
<text text-anchor="start" x="770.5732" y="-272.3" font-family="Helvetica,sans-Serif" font-size="14.00" fill="#000000">MainGameLoop::getProccessor</text>
<text text-anchor="middle" x="869.0107" y="-258.3" font-family="Helvetica,sans-Serif" font-size="14.00" fill="#000000">ForMessage</text>
</a>
</g>
</g>
<!-- Node8&#45;&gt;Node9 -->
<g id="edge3" class="edge">
<title>Node8&#45;&gt;Node9</title>
<path fill="none" stroke="#191970" d="M731.7855,-269.5C742.0229,-269.5 752.3268,-269.5 762.4392,-269.5"/>
<polygon fill="#191970" stroke="#191970" points="731.5798,-266.0001 721.5798,-269.5 731.5797,-273.0001 731.5798,-266.0001"/>
</g>
<!-- Node12&#45;&gt;Node13 -->
<g id="edge7" class="edge">
<title>Node12&#45;&gt;Node13</title>
<path fill="none" stroke="#191970" d="M458.3092,-138.2636C479.2486,-136.6441 501.012,-134.9609 521.3079,-133.3912"/>
<polygon fill="#191970" stroke="#191970" points="457.8064,-134.792 448.1061,-139.0527 458.3463,-141.7711 457.8064,-134.792"/>
</g>
<!-- Node14 -->
<g id="node9" class="node">
<title>Node14</title>
<g id="a_node9"><a xlink:href="../../d3/de5/a00209.html#a0632599cb00fa2c86ba1c71904c1f59f" target="_top" target="_top" target="_top" target="_top" xlink:title="MainGameLoop::MainGameLoop">
<polygon fill="none" stroke="#000000" points="757.5078,-115.5 757.5078,-137.5 980.5137,-137.5 980.5137,-115.5 757.5078,-115.5"/>
<text text-anchor="middle" x="869.0107" y="-122.3" font-family="Helvetica,sans-Serif" font-size="14.00" fill="#000000">MainGameLoop::MainGameLoop</text>
</a>
</g>
</g>
<!-- Node13&#45;&gt;Node14 -->
<g id="edge8" class="edge">
<title>Node13&#45;&gt;Node14</title>
<path fill="none" stroke="#191970" d="M709.5963,-126.5C725.258,-126.5 741.5438,-126.5 757.4636,-126.5"/>
<polygon fill="#191970" stroke="#191970" points="709.4046,-123.0001 699.4045,-126.5 709.4045,-130.0001 709.4046,-123.0001"/>
</g>
</g>
</svg>
        <g id="navigator" transform="translate(0 0)" fill="#404254">
                <rect fill="#f2f5e9" fill-opacity="0.5" stroke="#606060" stroke-width=".5" x="0" y="0" width="60" height="60"/>
                <use id="zoomplus" xlink:href="#zoomPlus" target="_top" target="_top" target="_top" x="17" y="9" onmousedown="handleZoom(evt,'in')"/>
                <use id="zoomminus" xlink:href="#zoomMin" target="_top" target="_top" target="_top" x="42" y="9" onmousedown="handleZoom(evt,'out')"/>
                <use id="reset" xlink:href="#resetDef" target="_top" target="_top" target="_top" x="30" y="36" onmousedown="handleReset()"/>
                <g id="arrowUp" xlink:href="#dirArrow" target="_top" target="_top" target="_top" transform="translate(30 24)" onmousedown="handlePan(0,-1)">
                  <use xlink:href="#rim" target="_top" target="_top" target="_top" fill="#404040">
                        <set attributeName="fill" to="#808080" begin="arrowUp.mouseover" end="arrowUp.mouseout"/>
                  </use>
                  <path fill="none" stroke="white" stroke-width="1.5" d="M0,-3.0v7 M-2.5,-0.5L0,-3.0L2.5,-0.5"/>
                </g>
                <g id="arrowRight" xlink:href="#dirArrow" target="_top" target="_top" target="_top" transform="rotate(90) translate(36 -43)" onmousedown="handlePan(1,0)">
                  <use xlink:href="#rim" target="_top" target="_top" target="_top" fill="#404040">
                        <set attributeName="fill" to="#808080" begin="arrowRight.mouseover" end="arrowRight.mouseout"/>
                  </use>
                  <path fill="none" stroke="white" stroke-width="1.5" d="M0,-3.0v7 M-2.5,-0.5L0,-3.0L2.5,-0.5"/>
                </g>
                <g id="arrowDown" xlink:href="#dirArrow" target="_top" target="_top" target="_top" transform="rotate(180) translate(-30 -48)" onmousedown="handlePan(0,1)">
                  <use xlink:href="#rim" target="_top" target="_top" target="_top" fill="#404040">
                        <set attributeName="fill" to="#808080" begin="arrowDown.mouseover" end="arrowDown.mouseout"/>
                  </use>
                  <path fill="none" stroke="white" stroke-width="1.5" d="M0,-3.0v7 M-2.5,-0.5L0,-3.0L2.5,-0.5"/>
                </g>
                <g id="arrowLeft" xlink:href="#dirArrow" target="_top" target="_top" target="_top" transform="rotate(270) translate(-36 17)" onmousedown="handlePan(-1,0)">
                  <use xlink:href="#rim" target="_top" target="_top" target="_top" fill="#404040">
                        <set attributeName="fill" to="#808080" begin="arrowLeft.mouseover" end="arrowLeft.mouseout"/>
                  </use>
                  <path fill="none" stroke="white" stroke-width="1.5" d="M0,-3.0v7 M-2.5,-0.5L0,-3.0L2.5,-0.5"/>
                </g>
        </g>
        <svg viewBox="0 0 15 15" width="100%" height="30px" preserveAspectRatio="xMaxYMin meet">
         <g id="arrow_out" transform="scale(0.3 0.3)">
          <a xlink:href="a00137_ae2be75da1a2a9edfabe993770e24654a_icgraph_org.svg" target="_top" target="_top" target="_top" target="_base">
           <rect id="button" ry="5" rx="5" y="6" x="6" height="38" width="38"
                fill="#f2f5e9" fill-opacity="0.5" stroke="#606060" stroke-width="1.0"/>
           <path id="arrow"
             d="M 11.500037,31.436501 C 11.940474,20.09759 22.043105,11.32322 32.158766,21.979434 L 37.068811,17.246167 C 37.068811,17.246167 37.088388,32 37.088388,32 L 22.160133,31.978069 C 22.160133,31.978069 26.997745,27.140456 26.997745,27.140456 C 18.528582,18.264221 13.291696,25.230495 11.500037,31.436501 z"
             style="fill:#404040;"/>
          </a>
         </g>
        </svg>
</svg>
