<?xml version="1.0" encoding="UTF-8" standalone="no"?>
<!DOCTYPE svg PUBLIC "-//W3C//DTD SVG 1.1//EN"
 "http://www.w3.org/Graphics/SVG/1.1/DTD/svg11.dtd">
<!-- Generated by graphviz version 2.40.1 (20161225.0304)
 -->
<!-- Title: SimpleConnection::MessageBuilder Pages: 1 -->
<!--zoomable 506 -->
<svg id="main" version="1.1" xmlns="http://www.w3.org/2000/svg" xmlns:xlink="http://www.w3.org/1999/xlink" xml:space="preserve" onload="init(evt)">
<style type="text/css"><![CDATA[
.edge:hover path { stroke: red; }
.edge:hover polygon { stroke: red; fill: red; }
]]></style>
<script type="text/javascript"><![CDATA[
var edges = document.getElementsByTagName('g');
if (edges && edges.length) {
  for (var i=0;i<edges.length;i++) {
    if (edges[i].id.substr(0,4)=='edge') {
      edges[i].setAttribute('class','edge');
    }
  }
}
]]></script>
        <defs>
                <circle id="rim" cx="0" cy="0" r="7"/>
                <circle id="rim2" cx="0" cy="0" r="3.5"/>
                <g id="zoomPlus">
                        <use xlink:href="#rim" fill="#404040">
                                <set attributeName="fill" to="#808080" begin="zoomplus.mouseover" end="zoomplus.mouseout"/>
                        </use>
                        <path d="M-4,0h8M0,-4v8" fill="none" stroke="white" stroke-width="1.5" pointer-events="none"/>
                </g>
                <g id="zoomMin">
                        <use xlink:href="#rim" fill="#404040">
                                <set attributeName="fill" to="#808080" begin="zoomminus.mouseover" end="zoomminus.mouseout"/>
                        </use>
                        <path d="M-4,0h8" fill="none" stroke="white" stroke-width="1.5" pointer-events="none"/>
                </g>
                <g id="dirArrow">
                        <path fill="none" stroke="white" stroke-width="1.5" d="M0,-3.0v7 M-2.5,-0.5L0,-3.0L2.5,-0.5"/>
                </g>
               <g id="resetDef">
                       <use xlink:href="#rim2" fill="#404040">
                               <set attributeName="fill" to="#808080" begin="reset.mouseover" end="reset.mouseout"/>
                       </use>
               </g>
        </defs>

<script type="text/javascript">
var viewWidth = 320;
var viewHeight = 506;
var sectionId = 'dynsection-0';
</script>
<script xlink:href="../../svgpan.js"/>
<svg id="graph" class="graph">
<g id="viewport">
<title>SimpleConnection::MessageBuilder</title>
<!-- Node1 -->
<g id="node1" class="node">
<title>Node1</title>
<polygon fill="#bfbfbf" stroke="#000000" points="64.4897,-.5 64.4897,-108.5 258.6958,-108.5 258.6958,-.5 64.4897,-.5"/>
<text text-anchor="start" x="72.4897" y="-93.3" font-family="Helvetica,sans-Serif" font-size="14.00" fill="#000000">SimpleConnection::Message</text>
<text text-anchor="middle" x="161.5928" y="-79.3" font-family="Helvetica,sans-Serif" font-size="14.00" fill="#000000">Builder</text>
<polyline fill="none" stroke="#000000" points="64.4897,-72.5 258.6958,-72.5 "/>
<text text-anchor="middle" x="161.5928" y="-57.3" font-family="Helvetica,sans-Serif" font-size="14.00" fill="#000000"> </text>
<polyline fill="none" stroke="#000000" points="64.4897,-50.5 258.6958,-50.5 "/>
<text text-anchor="start" x="72.4897" y="-35.3" font-family="Helvetica,sans-Serif" font-size="14.00" fill="#000000">+ asFirstMessage()</text>
<text text-anchor="start" x="72.4897" y="-21.3" font-family="Helvetica,sans-Serif" font-size="14.00" fill="#000000">+ build()</text>
<text text-anchor="start" x="72.4897" y="-7.3" font-family="Helvetica,sans-Serif" font-size="14.00" fill="#000000">&#45; MessageBuilder()</text>
</g>
<!-- Node2 -->
<g id="node2" class="node">
<title>Node2</title>
<g id="a_node2"><a xlink:href="../../d1/d97/a00670.html" target="_top" xlink:title="{SimpleConnection\n|# isWork\l# adress\l# socket\l# out\l# mutex\l# messages\l|+ SimpleConnection()\l+ ~SimpleConnection()\l+ openConnection()\l+ sendDiff()\l+ getBulder()\l# run()\l# addMessage()\l# onSocketError()\l}">
<polygon fill="none" stroke="#000000" points="0,-159.5 0,-393.5 159.1855,-393.5 159.1855,-159.5 0,-159.5"/>
<text text-anchor="middle" x="79.5928" y="-378.3" font-family="Helvetica,sans-Serif" font-size="14.00" fill="#000000">SimpleConnection</text>
<polyline fill="none" stroke="#000000" points="0,-371.5 159.1855,-371.5 "/>
<text text-anchor="start" x="8" y="-356.3" font-family="Helvetica,sans-Serif" font-size="14.00" fill="#000000"># isWork</text>
<text text-anchor="start" x="8" y="-342.3" font-family="Helvetica,sans-Serif" font-size="14.00" fill="#000000"># adress</text>
<text text-anchor="start" x="8" y="-328.3" font-family="Helvetica,sans-Serif" font-size="14.00" fill="#000000"># socket</text>
<text text-anchor="start" x="8" y="-314.3" font-family="Helvetica,sans-Serif" font-size="14.00" fill="#000000"># out</text>
<text text-anchor="start" x="8" y="-300.3" font-family="Helvetica,sans-Serif" font-size="14.00" fill="#000000"># mutex</text>
<text text-anchor="start" x="8" y="-286.3" font-family="Helvetica,sans-Serif" font-size="14.00" fill="#000000"># messages</text>
<polyline fill="none" stroke="#000000" points="0,-279.5 159.1855,-279.5 "/>
<text text-anchor="start" x="8" y="-264.3" font-family="Helvetica,sans-Serif" font-size="14.00" fill="#000000">+ SimpleConnection()</text>
<text text-anchor="start" x="8" y="-250.3" font-family="Helvetica,sans-Serif" font-size="14.00" fill="#000000">+ ~SimpleConnection()</text>
<text text-anchor="start" x="8" y="-236.3" font-family="Helvetica,sans-Serif" font-size="14.00" fill="#000000">+ openConnection()</text>
<text text-anchor="start" x="8" y="-222.3" font-family="Helvetica,sans-Serif" font-size="14.00" fill="#000000">+ sendDiff()</text>
<text text-anchor="start" x="8" y="-208.3" font-family="Helvetica,sans-Serif" font-size="14.00" fill="#000000">+ getBulder()</text>
<text text-anchor="start" x="8" y="-194.3" font-family="Helvetica,sans-Serif" font-size="14.00" fill="#000000"># run()</text>
<text text-anchor="start" x="8" y="-180.3" font-family="Helvetica,sans-Serif" font-size="14.00" fill="#000000"># addMessage()</text>
<text text-anchor="start" x="8" y="-166.3" font-family="Helvetica,sans-Serif" font-size="14.00" fill="#000000"># onSocketError()</text>
</a>
</g>
</g>
<!-- Node2&#45;&gt;Node1 -->
<g id="edge1" class="edge">
<title>Node2&#45;&gt;Node1</title>
<path fill="none" stroke="#404040" d="M122.874,-159.3241C127.8339,-145.8961 132.7491,-132.589 137.3281,-120.192"/>
<polygon fill="none" stroke="#404040" points="137.4479,-119.8676 135.7747,-112.8533 141.6058,-108.611 143.2791,-115.6253 137.4479,-119.8676"/>
<text text-anchor="middle" x="157.7168" y="-129.8" font-family="Helvetica,sans-Serif" font-size="14.00" fill="#000000"> &#45;parent</text>
</g>
<!-- Node3 -->
<g id="node3" class="node">
<title>Node3</title>
<polygon fill="none" stroke="#bfbfbf" points="43.9688,-431.5 43.9688,-497.5 115.2168,-497.5 115.2168,-431.5 43.9688,-431.5"/>
<text text-anchor="middle" x="79.5928" y="-482.3" font-family="Helvetica,sans-Serif" font-size="14.00" fill="#000000">QThread</text>
<polyline fill="none" stroke="#bfbfbf" points="43.9688,-475.5 115.2168,-475.5 "/>
<text text-anchor="middle" x="79.5928" y="-460.3" font-family="Helvetica,sans-Serif" font-size="14.00" fill="#000000"> </text>
<polyline fill="none" stroke="#bfbfbf" points="43.9688,-453.5 115.2168,-453.5 "/>
<text text-anchor="middle" x="79.5928" y="-438.3" font-family="Helvetica,sans-Serif" font-size="14.00" fill="#000000"> </text>
</g>
<!-- Node3&#45;&gt;Node2 -->
<g id="edge2" class="edge">
<title>Node3&#45;&gt;Node2</title>
<path fill="none" stroke="#191970" d="M79.5928,-421.0793C79.5928,-412.6402 79.5928,-403.4266 79.5928,-393.8689"/>
<polygon fill="none" stroke="#191970" points="76.0929,-421.3221 79.5928,-431.3221 83.0929,-421.3222 76.0929,-421.3221"/>
</g>
<!-- Node4 -->
<g id="node4" class="node">
<title>Node4</title>
<g id="a_node4"><a xlink:href="../../d9/d41/a00666.html" target="_top" xlink:title="{MessageForServer\n|+ connectionType\l+ messageType\l|+ toString()\l}">
<polygon fill="none" stroke="#000000" points="177.0723,-236.5 177.0723,-316.5 312.1133,-316.5 312.1133,-236.5 177.0723,-236.5"/>
<text text-anchor="middle" x="244.5928" y="-301.3" font-family="Helvetica,sans-Serif" font-size="14.00" fill="#000000">MessageForServer</text>
<polyline fill="none" stroke="#000000" points="177.0723,-294.5 312.1133,-294.5 "/>
<text text-anchor="start" x="185.0723" y="-279.3" font-family="Helvetica,sans-Serif" font-size="14.00" fill="#000000">+ connectionType</text>
<text text-anchor="start" x="185.0723" y="-265.3" font-family="Helvetica,sans-Serif" font-size="14.00" fill="#000000">+ messageType</text>
<polyline fill="none" stroke="#000000" points="177.0723,-258.5 312.1133,-258.5 "/>
<text text-anchor="start" x="185.0723" y="-243.3" font-family="Helvetica,sans-Serif" font-size="14.00" fill="#000000">+ toString()</text>
</a>
</g>
</g>
<!-- Node4&#45;&gt;Node1 -->
<g id="edge3" class="edge">
<title>Node4&#45;&gt;Node1</title>
<path fill="none" stroke="#404040" d="M229.5621,-236.2975C217.454,-203.912 200.1867,-157.7271 186.0864,-120.0131"/>
<polygon fill="none" stroke="#404040" points="186.0238,-119.8456 180.1759,-115.6263 181.8214,-108.6054 187.6693,-112.8247 186.0238,-119.8456"/>
<text text-anchor="middle" x="226.272" y="-129.8" font-family="Helvetica,sans-Serif" font-size="14.00" fill="#000000"> &#45;message</text>
</g>
<!-- Node5 -->
<g id="node5" class="node">
<title>Node5</title>
<polygon fill="none" stroke="#bfbfbf" points="210.917,-431.5 210.917,-497.5 278.2686,-497.5 278.2686,-431.5 210.917,-431.5"/>
<text text-anchor="middle" x="244.5928" y="-482.3" font-family="Helvetica,sans-Serif" font-size="14.00" fill="#000000">QObject</text>
<polyline fill="none" stroke="#bfbfbf" points="210.917,-475.5 278.2686,-475.5 "/>
<text text-anchor="middle" x="244.5928" y="-460.3" font-family="Helvetica,sans-Serif" font-size="14.00" fill="#000000"> </text>
<polyline fill="none" stroke="#bfbfbf" points="210.917,-453.5 278.2686,-453.5 "/>
<text text-anchor="middle" x="244.5928" y="-438.3" font-family="Helvetica,sans-Serif" font-size="14.00" fill="#000000"> </text>
</g>
<!-- Node5&#45;&gt;Node4 -->
<g id="edge4" class="edge">
<title>Node5&#45;&gt;Node4</title>
<path fill="none" stroke="#191970" d="M244.5928,-421.0793C244.5928,-389.559 244.5928,-347.2334 244.5928,-316.5282"/>
<polygon fill="none" stroke="#191970" points="241.0929,-421.3221 244.5928,-431.3221 248.0929,-421.3222 241.0929,-421.3221"/>
</g>
</g>
</svg>
        <g id="navigator" transform="translate(0 0)" fill="#404254">
                <rect fill="#f2f5e9" fill-opacity="0.5" stroke="#606060" stroke-width=".5" x="0" y="0" width="60" height="60"/>
                <use id="zoomplus" xlink:href="#zoomPlus" x="17" y="9" onmousedown="handleZoom(evt,'in')"/>
                <use id="zoomminus" xlink:href="#zoomMin" x="42" y="9" onmousedown="handleZoom(evt,'out')"/>
                <use id="reset" xlink:href="#resetDef" x="30" y="36" onmousedown="handleReset()"/>
                <g id="arrowUp" xlink:href="#dirArrow" transform="translate(30 24)" onmousedown="handlePan(0,-1)">
                  <use xlink:href="#rim" fill="#404040">
                        <set attributeName="fill" to="#808080" begin="arrowUp.mouseover" end="arrowUp.mouseout"/>
                  </use>
                  <path fill="none" stroke="white" stroke-width="1.5" d="M0,-3.0v7 M-2.5,-0.5L0,-3.0L2.5,-0.5"/>
                </g>
                <g id="arrowRight" xlink:href="#dirArrow" transform="rotate(90) translate(36 -43)" onmousedown="handlePan(1,0)">
                  <use xlink:href="#rim" fill="#404040">
                        <set attributeName="fill" to="#808080" begin="arrowRight.mouseover" end="arrowRight.mouseout"/>
                  </use>
                  <path fill="none" stroke="white" stroke-width="1.5" d="M0,-3.0v7 M-2.5,-0.5L0,-3.0L2.5,-0.5"/>
                </g>
                <g id="arrowDown" xlink:href="#dirArrow" transform="rotate(180) translate(-30 -48)" onmousedown="handlePan(0,1)">
                  <use xlink:href="#rim" fill="#404040">
                        <set attributeName="fill" to="#808080" begin="arrowDown.mouseover" end="arrowDown.mouseout"/>
                  </use>
                  <path fill="none" stroke="white" stroke-width="1.5" d="M0,-3.0v7 M-2.5,-0.5L0,-3.0L2.5,-0.5"/>
                </g>
                <g id="arrowLeft" xlink:href="#dirArrow" transform="rotate(270) translate(-36 17)" onmousedown="handlePan(-1,0)">
                  <use xlink:href="#rim" fill="#404040">
                        <set attributeName="fill" to="#808080" begin="arrowLeft.mouseover" end="arrowLeft.mouseout"/>
                  </use>
                  <path fill="none" stroke="white" stroke-width="1.5" d="M0,-3.0v7 M-2.5,-0.5L0,-3.0L2.5,-0.5"/>
                </g>
        </g>
        <svg viewBox="0 0 15 15" width="100%" height="30px" preserveAspectRatio="xMaxYMin meet">
         <g id="arrow_out" transform="scale(0.3 0.3)">
          <a xlink:href="a00672_org.svg" target="_base">
           <rect id="button" ry="5" rx="5" y="6" x="6" height="38" width="38"
                fill="#f2f5e9" fill-opacity="0.5" stroke="#606060" stroke-width="1.0"/>
           <path id="arrow"
             d="M 11.500037,31.436501 C 11.940474,20.09759 22.043105,11.32322 32.158766,21.979434 L 37.068811,17.246167 C 37.068811,17.246167 37.088388,32 37.088388,32 L 22.160133,31.978069 C 22.160133,31.978069 26.997745,27.140456 26.997745,27.140456 C 18.528582,18.264221 13.291696,25.230495 11.500037,31.436501 z"
             style="fill:#404040;"/>
          </a>
         </g>
        </svg>
</svg>
