<?xml version="1.0" encoding="UTF-8" standalone="no"?>
<!DOCTYPE svg PUBLIC "-//W3C//DTD SVG 1.1//EN"
 "http://www.w3.org/Graphics/SVG/1.1/DTD/svg11.dtd">
<!-- Generated by graphviz version 2.40.1 (20161225.0304)
 -->
<!-- Title: initServer Pages: 1 -->
<svg width="344pt" height="127pt"
 viewBox="0.00 0.00 344.21 127.00" xmlns="http://www.w3.org/2000/svg" xmlns:xlink="http://www.w3.org/1999/xlink">
<g id="graph0" class="graph" transform="scale(1 1) rotate(0) translate(4 123)">
<title>initServer</title>
<!-- Node8 -->
<g id="node1" class="node">
<title>Node8</title>
<polygon fill="#bfbfbf" stroke="#000000" points="0,-41.5 0,-63.5 75.1309,-63.5 75.1309,-41.5 0,-41.5"/>
<text text-anchor="middle" x="37.5654" y="-48.3" font-family="Helvetica,sans-Serif" font-size="14.00" fill="#000000">initServer</text>
</g>
<!-- Node9 -->
<g id="node2" class="node">
<title>Node9</title>
<g id="a_node2"><a xlink:href="../../d6/d59/a00726.html#ad64d541093e285a983911f22ab9a0bff" target="_top" xlink:title="ServerConnection::getServer\lInstance">
<polygon fill="none" stroke="#000000" points="125.4009,-82.5 125.4009,-118.5 321.938,-118.5 321.938,-82.5 125.4009,-82.5"/>
<text text-anchor="start" x="133.4009" y="-103.3" font-family="Helvetica,sans-Serif" font-size="14.00" fill="#000000">ServerConnection::getServer</text>
<text text-anchor="middle" x="223.6694" y="-89.3" font-family="Helvetica,sans-Serif" font-size="14.00" fill="#000000">Instance</text>
</a>
</g>
</g>
<!-- Node8&#45;&gt;Node9 -->
<g id="edge1" class="edge">
<title>Node8&#45;&gt;Node9</title>
<path fill="none" stroke="#191970" d="M75.2835,-63.6006C86.7657,-66.8898 99.4405,-70.4306 111.1309,-73.5 119.4615,-75.6873 128.1578,-77.8992 136.8636,-80.066"/>
<polygon fill="#191970" stroke="#191970" points="136.1303,-83.49 146.6778,-82.4896 137.8086,-76.6941 136.1303,-83.49"/>
</g>
<!-- Node10 -->
<g id="node3" class="node">
<title>Node10</title>
<g id="a_node3"><a xlink:href="../../d6/d59/a00726.html#af558fe509b60eb019281316513f6d188" target="_top" xlink:title="ServerConnection::onWorkerStop">
<polygon fill="none" stroke="#000000" points="111.1309,-41.5 111.1309,-63.5 336.208,-63.5 336.208,-41.5 111.1309,-41.5"/>
<text text-anchor="middle" x="223.6694" y="-48.3" font-family="Helvetica,sans-Serif" font-size="14.00" fill="#000000">ServerConnection::onWorkerStop</text>
</a>
</g>
</g>
<!-- Node8&#45;&gt;Node10 -->
<g id="edge2" class="edge">
<title>Node8&#45;&gt;Node10</title>
<path fill="none" stroke="#191970" d="M75.2264,-52.5C83.1042,-52.5 91.8149,-52.5 100.9518,-52.5"/>
<polygon fill="#191970" stroke="#191970" points="101.0143,-56.0001 111.0143,-52.5 101.0143,-49.0001 101.0143,-56.0001"/>
</g>
<!-- Node11 -->
<g id="node4" class="node">
<title>Node11</title>
<g id="a_node4"><a xlink:href="../../d6/d59/a00726.html#a1d45a6a7b2370c82ed2849959bb18c2a" target="_top" xlink:title="ServerConnection::startServer">
<polygon fill="none" stroke="#000000" points="121.5181,-.5 121.5181,-22.5 325.8208,-22.5 325.8208,-.5 121.5181,-.5"/>
<text text-anchor="middle" x="223.6694" y="-7.3" font-family="Helvetica,sans-Serif" font-size="14.00" fill="#000000">ServerConnection::startServer</text>
</a>
</g>
</g>
<!-- Node8&#45;&gt;Node11 -->
<g id="edge3" class="edge">
<title>Node8&#45;&gt;Node11</title>
<path fill="none" stroke="#191970" d="M75.2207,-41.6332C86.7008,-38.4905 99.3902,-35.1867 111.1309,-32.5 123.4374,-29.6838 136.5653,-26.9722 149.3493,-24.4868"/>
<polygon fill="#191970" stroke="#191970" points="150.3414,-27.8606 159.5058,-22.5443 149.0264,-20.9852 150.3414,-27.8606"/>
</g>
</g>
</svg>
