<?xml version="1.0" encoding="UTF-8" standalone="no"?>
<!DOCTYPE svg PUBLIC "-//W3C//DTD SVG 1.1//EN"
 "http://www.w3.org/Graphics/SVG/1.1/DTD/svg11.dtd">
<!-- Generated by graphviz version 2.40.1 (20161225.0304)
 -->
<!-- Title: main Pages: 1 -->
<svg width="474pt" height="250pt"
 viewBox="0.00 0.00 473.55 250.00" xmlns="http://www.w3.org/2000/svg" xmlns:xlink="http://www.w3.org/1999/xlink">
<g id="graph0" class="graph" transform="scale(1 1) rotate(0) translate(4 246)">
<title>main</title>
<!-- Node14 -->
<g id="node1" class="node">
<title>Node14</title>
<polygon fill="#bfbfbf" stroke="#000000" points="0,-89.5 0,-111.5 46.3447,-111.5 46.3447,-89.5 0,-89.5"/>
<text text-anchor="middle" x="23.1724" y="-96.3" font-family="Helvetica,sans-Serif" font-size="14.00" fill="#000000">main</text>
</g>
<!-- Node15 -->
<g id="node2" class="node">
<title>Node15</title>
<g id="a_node2"><a xlink:href="../../d3/d50/a00882.html#a3cfb6b17f20d62ad08b9402764f3aa6c" target="_top" xlink:title="initMainLooper">
<polygon fill="none" stroke="#000000" points="82.3447,-157.5 82.3447,-179.5 190.1787,-179.5 190.1787,-157.5 82.3447,-157.5"/>
<text text-anchor="middle" x="136.2617" y="-164.3" font-family="Helvetica,sans-Serif" font-size="14.00" fill="#000000">initMainLooper</text>
</a>
</g>
</g>
<!-- Node14&#45;&gt;Node15 -->
<g id="edge1" class="edge">
<title>Node14&#45;&gt;Node15</title>
<path fill="none" stroke="#191970" d="M41.5938,-111.5767C59.9126,-122.5917 88.2238,-139.6151 109.1167,-152.1778"/>
<polygon fill="#191970" stroke="#191970" points="107.4745,-155.2744 117.8482,-157.428 111.0817,-149.2753 107.4745,-155.2744"/>
</g>
<!-- Node19 -->
<g id="node6" class="node">
<title>Node19</title>
<g id="a_node6"><a xlink:href="../../d3/d50/a00882.html#a29060721f5ddfa26790f0778bde74ff2" target="_top" xlink:title="initServer">
<polygon fill="none" stroke="#000000" points="98.6963,-65.5 98.6963,-87.5 173.8271,-87.5 173.8271,-65.5 98.6963,-65.5"/>
<text text-anchor="middle" x="136.2617" y="-72.3" font-family="Helvetica,sans-Serif" font-size="14.00" fill="#000000">initServer</text>
</a>
</g>
</g>
<!-- Node14&#45;&gt;Node19 -->
<g id="edge5" class="edge">
<title>Node14&#45;&gt;Node19</title>
<path fill="none" stroke="#191970" d="M46.6046,-95.5272C58.7998,-92.9391 74.1679,-89.6776 88.7196,-86.5895"/>
<polygon fill="#191970" stroke="#191970" points="89.5589,-89.9894 98.6144,-84.4896 88.1057,-83.1419 89.5589,-89.9894"/>
</g>
<!-- Node16 -->
<g id="node3" class="node">
<title>Node16</title>
<g id="a_node3"><a xlink:href="../../d8/d4e/a00754.html#ac4cd47d8b350ae45ea09aaecad11a684" target="_top" xlink:title="MainGameLoop::getAllMapAsDiff">
<polygon fill="none" stroke="#000000" points="234.4946,-219.5 234.4946,-241.5 457.2339,-241.5 457.2339,-219.5 234.4946,-219.5"/>
<text text-anchor="middle" x="345.8643" y="-226.3" font-family="Helvetica,sans-Serif" font-size="14.00" fill="#000000">MainGameLoop::getAllMapAsDiff</text>
</a>
</g>
</g>
<!-- Node15&#45;&gt;Node16 -->
<g id="edge2" class="edge">
<title>Node15&#45;&gt;Node16</title>
<path fill="none" stroke="#191970" d="M155.9908,-179.627C173.8039,-189.2033 201.0048,-202.6775 226.1787,-210.5 234.5104,-213.089 243.2786,-215.3637 252.1241,-217.3581"/>
<polygon fill="#191970" stroke="#191970" points="251.6143,-220.828 262.1247,-219.4925 253.0755,-213.9822 251.6143,-220.828"/>
</g>
<!-- Node17 -->
<g id="node4" class="node">
<title>Node17</title>
<g id="a_node4"><a xlink:href="../../d8/d4e/a00754.html#ae4df98e12ba90efd73b144455d9fd52d" target="_top" xlink:title="MainGameLoop::getLooperInstance">
<polygon fill="none" stroke="#000000" points="226.1787,-178.5 226.1787,-200.5 465.5498,-200.5 465.5498,-178.5 226.1787,-178.5"/>
<text text-anchor="middle" x="345.8643" y="-185.3" font-family="Helvetica,sans-Serif" font-size="14.00" fill="#000000">MainGameLoop::getLooperInstance</text>
</a>
</g>
</g>
<!-- Node15&#45;&gt;Node17 -->
<g id="edge3" class="edge">
<title>Node15&#45;&gt;Node17</title>
<path fill="none" stroke="#191970" d="M190.2396,-173.908C201.342,-175.0204 213.4485,-176.2333 225.8452,-177.4753"/>
<polygon fill="#191970" stroke="#191970" points="225.5366,-180.9619 235.8357,-178.4763 226.2345,-173.9967 225.5366,-180.9619"/>
</g>
<!-- Node18 -->
<g id="node5" class="node">
<title>Node18</title>
<g id="a_node5"><a xlink:href="../../d8/d4e/a00754.html#a2329f4e9c9a4ad9ecbed39d5c297245f" target="_top" xlink:title="MainGameLoop::startLooper">
<polygon fill="none" stroke="#000000" points="248.7578,-137.5 248.7578,-159.5 442.9707,-159.5 442.9707,-137.5 248.7578,-137.5"/>
<text text-anchor="middle" x="345.8643" y="-144.3" font-family="Helvetica,sans-Serif" font-size="14.00" fill="#000000">MainGameLoop::startLooper</text>
</a>
</g>
</g>
<!-- Node15&#45;&gt;Node18 -->
<g id="edge4" class="edge">
<title>Node15&#45;&gt;Node18</title>
<path fill="none" stroke="#191970" d="M190.2396,-163.3495C205.0055,-161.9406 221.5475,-160.3621 238.1862,-158.7745"/>
<polygon fill="#191970" stroke="#191970" points="238.9214,-162.2203 248.5437,-157.7862 238.2564,-155.252 238.9214,-162.2203"/>
</g>
<!-- Node20 -->
<g id="node7" class="node">
<title>Node20</title>
<g id="a_node7"><a xlink:href="../../d6/d59/a00726.html#ad64d541093e285a983911f22ab9a0bff" target="_top" xlink:title="ServerConnection::getServer\lInstance">
<polygon fill="none" stroke="#000000" points="247.5957,-82.5 247.5957,-118.5 444.1328,-118.5 444.1328,-82.5 247.5957,-82.5"/>
<text text-anchor="start" x="255.5957" y="-103.3" font-family="Helvetica,sans-Serif" font-size="14.00" fill="#000000">ServerConnection::getServer</text>
<text text-anchor="middle" x="345.8643" y="-89.3" font-family="Helvetica,sans-Serif" font-size="14.00" fill="#000000">Instance</text>
</a>
</g>
</g>
<!-- Node19&#45;&gt;Node20 -->
<g id="edge6" class="edge">
<title>Node19&#45;&gt;Node20</title>
<path fill="none" stroke="#191970" d="M174.2192,-80.8462C192.203,-82.9054 214.6938,-85.4807 237.4136,-88.0821"/>
<polygon fill="#191970" stroke="#191970" points="237.1678,-91.5768 247.5011,-89.2372 237.9642,-84.6222 237.1678,-91.5768"/>
</g>
<!-- Node21 -->
<g id="node8" class="node">
<title>Node21</title>
<g id="a_node8"><a xlink:href="../../d6/d59/a00726.html#af558fe509b60eb019281316513f6d188" target="_top" xlink:title="ServerConnection::onWorkerStop">
<polygon fill="none" stroke="#000000" points="233.3257,-41.5 233.3257,-63.5 458.4028,-63.5 458.4028,-41.5 233.3257,-41.5"/>
<text text-anchor="middle" x="345.8643" y="-48.3" font-family="Helvetica,sans-Serif" font-size="14.00" fill="#000000">ServerConnection::onWorkerStop</text>
</a>
</g>
</g>
<!-- Node19&#45;&gt;Node21 -->
<g id="edge7" class="edge">
<title>Node19&#45;&gt;Node21</title>
<path fill="none" stroke="#191970" d="M174.2192,-72.1538C192.7998,-70.0263 216.1914,-67.3479 239.676,-64.6588"/>
<polygon fill="#191970" stroke="#191970" points="240.1958,-68.1223 249.7327,-63.5073 239.3994,-61.1677 240.1958,-68.1223"/>
</g>
<!-- Node22 -->
<g id="node9" class="node">
<title>Node22</title>
<g id="a_node9"><a xlink:href="../../d6/d59/a00726.html#a1d45a6a7b2370c82ed2849959bb18c2a" target="_top" xlink:title="ServerConnection::startServer">
<polygon fill="none" stroke="#000000" points="243.7129,-.5 243.7129,-22.5 448.0156,-22.5 448.0156,-.5 243.7129,-.5"/>
<text text-anchor="middle" x="345.8643" y="-7.3" font-family="Helvetica,sans-Serif" font-size="14.00" fill="#000000">ServerConnection::startServer</text>
</a>
</g>
</g>
<!-- Node19&#45;&gt;Node22 -->
<g id="edge8" class="edge">
<title>Node19&#45;&gt;Node22</title>
<path fill="none" stroke="#191970" d="M154.901,-65.4415C172.6462,-55.3888 200.3957,-40.8839 226.1787,-32.5 235.3571,-29.5154 245.0775,-26.9269 254.8529,-24.6882"/>
<polygon fill="#191970" stroke="#191970" points="255.5996,-28.1077 264.6286,-22.5644 254.1135,-21.2673 255.5996,-28.1077"/>
</g>
</g>
</svg>
