<?xml version="1.0" encoding="UTF-8" standalone="no"?>
<!DOCTYPE svg PUBLIC "-//W3C//DTD SVG 1.1//EN"
 "http://www.w3.org/Graphics/SVG/1.1/DTD/svg11.dtd">
<!-- Generated by graphviz version 2.40.1 (20161225.0304)
 -->
<!-- Title: Core/imap.cpp Pages: 1 -->
<!--zoomable 267 -->
<svg id="main" version="1.1" xmlns="http://www.w3.org/2000/svg" xmlns:xlink="http://www.w3.org/1999/xlink" xml:space="preserve" onload="init(evt)">
<style type="text/css"><![CDATA[
.edge:hover path { stroke: red; }
.edge:hover polygon { stroke: red; fill: red; }
]]></style>
<script type="text/javascript"><![CDATA[
var edges = document.getElementsByTagName('g');
if (edges && edges.length) {
  for (var i=0;i<edges.length;i++) {
    if (edges[i].id.substr(0,4)=='edge') {
      edges[i].setAttribute('class','edge');
    }
  }
}
]]></script>
        <defs>
                <circle id="rim" cx="0" cy="0" r="7"/>
                <circle id="rim2" cx="0" cy="0" r="3.5"/>
                <g id="zoomPlus">
                        <use xlink:href="#rim" fill="#404040">
                                <set attributeName="fill" to="#808080" begin="zoomplus.mouseover" end="zoomplus.mouseout"/>
                        </use>
                        <path d="M-4,0h8M0,-4v8" fill="none" stroke="white" stroke-width="1.5" pointer-events="none"/>
                </g>
                <g id="zoomMin">
                        <use xlink:href="#rim" fill="#404040">
                                <set attributeName="fill" to="#808080" begin="zoomminus.mouseover" end="zoomminus.mouseout"/>
                        </use>
                        <path d="M-4,0h8" fill="none" stroke="white" stroke-width="1.5" pointer-events="none"/>
                </g>
                <g id="dirArrow">
                        <path fill="none" stroke="white" stroke-width="1.5" d="M0,-3.0v7 M-2.5,-0.5L0,-3.0L2.5,-0.5"/>
                </g>
               <g id="resetDef">
                       <use xlink:href="#rim2" fill="#404040">
                               <set attributeName="fill" to="#808080" begin="reset.mouseover" end="reset.mouseout"/>
                       </use>
               </g>
        </defs>

<script type="text/javascript">
var viewWidth = 691;
var viewHeight = 267;
var sectionId = 'dynsection-0';
</script>
<script xlink:href="../../svgpan.js"/>
<svg id="graph" class="graph">
<g id="viewport">
<title>Core/imap.cpp</title>
<!-- Node0 -->
<g id="node1" class="node">
<title>Node0</title>
<polygon fill="#bfbfbf" stroke="#000000" points="66.1553,-236.5 66.1553,-258.5 173.1963,-258.5 173.1963,-236.5 66.1553,-236.5"/>
<text text-anchor="middle" x="119.6758" y="-243.3" font-family="Helvetica,sans-Serif" font-size="14.00" fill="#000000">Core/imap.cpp</text>
</g>
<!-- Node1 -->
<g id="node2" class="node">
<title>Node1</title>
<g id="a_node2"><a xlink:href="../../dc/dee/a00053.html" target="_top" xlink:title="imap.h">
<polygon fill="none" stroke="#000000" points="90.6655,-177.5 90.6655,-199.5 148.686,-199.5 148.686,-177.5 90.6655,-177.5"/>
<text text-anchor="middle" x="119.6758" y="-184.3" font-family="Helvetica,sans-Serif" font-size="14.00" fill="#000000">imap.h</text>
</a>
</g>
</g>
<!-- Node0&#45;&gt;Node1 -->
<g id="edge1" class="edge">
<title>Node0&#45;&gt;Node1</title>
<path fill="none" stroke="#191970" d="M119.6758,-236.4026C119.6758,-228.9034 119.6758,-218.7626 119.6758,-209.7421"/>
<polygon fill="#191970" stroke="#191970" points="123.1759,-209.5477 119.6758,-199.5477 116.1759,-209.5477 123.1759,-209.5477"/>
</g>
<!-- Node2 -->
<g id="node3" class="node">
<title>Node2</title>
<polygon fill="none" stroke="#bfbfbf" points="29.3379,-118.5 29.3379,-140.5 92.0137,-140.5 92.0137,-118.5 29.3379,-118.5"/>
<text text-anchor="middle" x="60.6758" y="-125.3" font-family="Helvetica,sans-Serif" font-size="14.00" fill="#000000">QSizeF</text>
</g>
<!-- Node1&#45;&gt;Node2 -->
<g id="edge2" class="edge">
<title>Node1&#45;&gt;Node2</title>
<path fill="none" stroke="#191970" d="M108.5783,-177.4026C100.2551,-169.0793 88.6777,-157.5019 78.9897,-147.8139"/>
<polygon fill="#191970" stroke="#191970" points="81.2694,-145.1439 71.7235,-140.5477 76.3197,-150.0937 81.2694,-145.1439"/>
</g>
<!-- Node3 -->
<g id="node4" class="node">
<title>Node3</title>
<polygon fill="none" stroke="#bfbfbf" points="0,-59.5 0,-81.5 67.3516,-81.5 67.3516,-59.5 0,-59.5"/>
<text text-anchor="middle" x="33.6758" y="-66.3" font-family="Helvetica,sans-Serif" font-size="14.00" fill="#000000">QPointF</text>
</g>
<!-- Node1&#45;&gt;Node3 -->
<g id="edge3" class="edge">
<title>Node1&#45;&gt;Node3</title>
<path fill="none" stroke="#191970" d="M118.9825,-177.2585C117.5811,-162.4616 113.3597,-136.1996 100.6758,-118 91.7537,-105.1981 78.2157,-94.6611 65.6388,-86.792"/>
<polygon fill="#191970" stroke="#191970" points="67.1223,-83.6036 56.7305,-81.5394 63.5669,-89.6335 67.1223,-83.6036"/>
</g>
<!-- Node4 -->
<g id="node5" class="node">
<title>Node4</title>
<g id="a_node5"><a xlink:href="../../d6/d2d/a00047.html" target="_top" xlink:title="ibasegameelement.h">
<polygon fill="none" stroke="#000000" points="234.6899,-118.5 234.6899,-140.5 380.6616,-140.5 380.6616,-118.5 234.6899,-118.5"/>
<text text-anchor="middle" x="307.6758" y="-125.3" font-family="Helvetica,sans-Serif" font-size="14.00" fill="#000000">ibasegameelement.h</text>
</a>
</g>
</g>
<!-- Node1&#45;&gt;Node4 -->
<g id="edge4" class="edge">
<title>Node1&#45;&gt;Node4</title>
<path fill="none" stroke="#191970" d="M149.0508,-179.2813C179.5409,-169.7125 227.6129,-154.6261 262.8513,-143.5673"/>
<polygon fill="#191970" stroke="#191970" points="263.9316,-146.8966 272.4247,-140.5628 261.8355,-140.2178 263.9316,-146.8966"/>
</g>
<!-- Node4&#45;&gt;Node3 -->
<g id="edge8" class="edge">
<title>Node4&#45;&gt;Node3</title>
<path fill="none" stroke="#191970" d="M248.3202,-118.4555C203.6021,-109.8811 140.576,-97.2599 77.2976,-82.3018"/>
<polygon fill="#191970" stroke="#191970" points="78.0918,-78.8932 67.5529,-79.98 76.4693,-85.7026 78.0918,-78.8932"/>
</g>
<!-- Node5 -->
<g id="node6" class="node">
<title>Node5</title>
<polygon fill="none" stroke="#bfbfbf" points="85,-59.5 85,-81.5 152.3516,-81.5 152.3516,-59.5 85,-59.5"/>
<text text-anchor="middle" x="118.6758" y="-66.3" font-family="Helvetica,sans-Serif" font-size="14.00" fill="#000000">QObject</text>
</g>
<!-- Node4&#45;&gt;Node5 -->
<g id="edge5" class="edge">
<title>Node4&#45;&gt;Node5</title>
<path fill="none" stroke="#191970" d="M272.1263,-118.4026C241.0194,-108.6919 195.7234,-94.5519 162.4041,-84.1506"/>
<polygon fill="#191970" stroke="#191970" points="163.0658,-80.6907 152.4771,-81.0517 160.9798,-87.3727 163.0658,-80.6907"/>
</g>
<!-- Node6 -->
<g id="node7" class="node">
<title>Node6</title>
<g id="a_node7"><a xlink:href="../../d3/d8b/a00059.html" target="_top" xlink:title="infinitydouble.h">
<polygon fill="none" stroke="#000000" points="169.9761,-59.5 169.9761,-81.5 279.3755,-81.5 279.3755,-59.5 169.9761,-59.5"/>
<text text-anchor="middle" x="224.6758" y="-66.3" font-family="Helvetica,sans-Serif" font-size="14.00" fill="#000000">infinitydouble.h</text>
</a>
</g>
</g>
<!-- Node4&#45;&gt;Node6 -->
<g id="edge6" class="edge">
<title>Node4&#45;&gt;Node6</title>
<path fill="none" stroke="#191970" d="M292.0641,-118.4026C279.7755,-109.6673 262.4445,-97.3477 248.4358,-87.3896"/>
<polygon fill="#191970" stroke="#191970" points="250.3959,-84.4888 240.2174,-81.5477 246.3402,-90.1942 250.3959,-84.4888"/>
</g>
<!-- Node7 -->
<g id="node8" class="node">
<title>Node7</title>
<polygon fill="none" stroke="#bfbfbf" points="214.8828,-.5 214.8828,-22.5 316.4688,-22.5 316.4688,-.5 214.8828,-.5"/>
<text text-anchor="middle" x="265.6758" y="-7.3" font-family="Helvetica,sans-Serif" font-size="14.00" fill="#000000">QDataStream</text>
</g>
<!-- Node4&#45;&gt;Node7 -->
<g id="edge10" class="edge">
<title>Node4&#45;&gt;Node7</title>
<path fill="none" stroke="#191970" d="M305.343,-118.308C302.2542,-104.2306 296.2971,-79.4278 288.6758,-59 285.2228,-49.7449 280.5989,-39.8606 276.4028,-31.5185"/>
<polygon fill="#191970" stroke="#191970" points="279.4736,-29.837 271.7692,-22.5642 273.2566,-33.0542 279.4736,-29.837"/>
</g>
<!-- Node8 -->
<g id="node9" class="node">
<title>Node8</title>
<polygon fill="none" stroke="#bfbfbf" points="335.5,-59.5 335.5,-81.5 423.8516,-81.5 423.8516,-59.5 335.5,-59.5"/>
<text text-anchor="middle" x="379.6758" y="-66.3" font-family="Helvetica,sans-Serif" font-size="14.00" fill="#000000">QByteArray</text>
</g>
<!-- Node4&#45;&gt;Node8 -->
<g id="edge9" class="edge">
<title>Node4&#45;&gt;Node8</title>
<path fill="none" stroke="#191970" d="M321.2184,-118.4026C331.6773,-109.8321 346.3468,-97.8113 358.3738,-87.9558"/>
<polygon fill="#191970" stroke="#191970" points="360.6774,-90.5931 366.1939,-81.5477 356.2407,-85.1788 360.6774,-90.5931"/>
</g>
<!-- Node9 -->
<g id="node10" class="node">
<title>Node9</title>
<polygon fill="none" stroke="#bfbfbf" points="441.9448,-59.5 441.9448,-81.5 505.4067,-81.5 505.4067,-59.5 441.9448,-59.5"/>
<text text-anchor="middle" x="473.6758" y="-66.3" font-family="Helvetica,sans-Serif" font-size="14.00" fill="#000000">QString</text>
</g>
<!-- Node4&#45;&gt;Node9 -->
<g id="edge11" class="edge">
<title>Node4&#45;&gt;Node9</title>
<path fill="none" stroke="#191970" d="M338.8991,-118.4026C365.5631,-108.9256 404.097,-95.2298 433.1384,-84.9079"/>
<polygon fill="#191970" stroke="#191970" points="434.3421,-88.1946 442.5925,-81.5477 431.9977,-81.5988 434.3421,-88.1946"/>
</g>
<!-- Node10 -->
<g id="node11" class="node">
<title>Node10</title>
<polygon fill="none" stroke="#bfbfbf" points="522.9321,-59.5 522.9321,-81.5 580.4194,-81.5 580.4194,-59.5 522.9321,-59.5"/>
<text text-anchor="middle" x="551.6758" y="-66.3" font-family="Helvetica,sans-Serif" font-size="14.00" fill="#000000">QTime</text>
</g>
<!-- Node4&#45;&gt;Node10 -->
<g id="edge12" class="edge">
<title>Node4&#45;&gt;Node10</title>
<path fill="none" stroke="#191970" d="M360.699,-118.4917C400.3858,-109.9891 456.1901,-97.4797 512.8184,-82.3929"/>
<polygon fill="#191970" stroke="#191970" points="513.9036,-85.7255 522.6518,-79.7489 512.086,-78.9656 513.9036,-85.7255"/>
</g>
<!-- Node11 -->
<g id="node12" class="node">
<title>Node11</title>
<polygon fill="none" stroke="#bfbfbf" points="598.4346,-59.5 598.4346,-81.5 682.917,-81.5 682.917,-59.5 598.4346,-59.5"/>
<text text-anchor="middle" x="640.6758" y="-66.3" font-family="Helvetica,sans-Serif" font-size="14.00" fill="#000000">QVector3D</text>
</g>
<!-- Node4&#45;&gt;Node11 -->
<g id="edge13" class="edge">
<title>Node4&#45;&gt;Node11</title>
<path fill="none" stroke="#191970" d="M379.7357,-118.4799C434.4914,-109.848 511.8918,-97.0959 588.5789,-82.1475"/>
<polygon fill="#191970" stroke="#191970" points="589.2741,-85.5779 598.4128,-80.2176 587.926,-78.709 589.2741,-85.5779"/>
</g>
<!-- Node6&#45;&gt;Node7 -->
<g id="edge7" class="edge">
<title>Node6&#45;&gt;Node7</title>
<path fill="none" stroke="#191970" d="M232.3876,-59.4026C237.9424,-51.4089 245.5831,-40.4138 252.1433,-30.9736"/>
<polygon fill="#191970" stroke="#191970" points="255.1661,-32.7569 257.9986,-22.5477 249.4178,-28.7623 255.1661,-32.7569"/>
</g>
</g>
</svg>
        <g id="navigator" transform="translate(0 0)" fill="#404254">
                <rect fill="#f2f5e9" fill-opacity="0.5" stroke="#606060" stroke-width=".5" x="0" y="0" width="60" height="60"/>
                <use id="zoomplus" xlink:href="#zoomPlus" x="17" y="9" onmousedown="handleZoom(evt,'in')"/>
                <use id="zoomminus" xlink:href="#zoomMin" x="42" y="9" onmousedown="handleZoom(evt,'out')"/>
                <use id="reset" xlink:href="#resetDef" x="30" y="36" onmousedown="handleReset()"/>
                <g id="arrowUp" xlink:href="#dirArrow" transform="translate(30 24)" onmousedown="handlePan(0,-1)">
                  <use xlink:href="#rim" fill="#404040">
                        <set attributeName="fill" to="#808080" begin="arrowUp.mouseover" end="arrowUp.mouseout"/>
                  </use>
                  <path fill="none" stroke="white" stroke-width="1.5" d="M0,-3.0v7 M-2.5,-0.5L0,-3.0L2.5,-0.5"/>
                </g>
                <g id="arrowRight" xlink:href="#dirArrow" transform="rotate(90) translate(36 -43)" onmousedown="handlePan(1,0)">
                  <use xlink:href="#rim" fill="#404040">
                        <set attributeName="fill" to="#808080" begin="arrowRight.mouseover" end="arrowRight.mouseout"/>
                  </use>
                  <path fill="none" stroke="white" stroke-width="1.5" d="M0,-3.0v7 M-2.5,-0.5L0,-3.0L2.5,-0.5"/>
                </g>
                <g id="arrowDown" xlink:href="#dirArrow" transform="rotate(180) translate(-30 -48)" onmousedown="handlePan(0,1)">
                  <use xlink:href="#rim" fill="#404040">
                        <set attributeName="fill" to="#808080" begin="arrowDown.mouseover" end="arrowDown.mouseout"/>
                  </use>
                  <path fill="none" stroke="white" stroke-width="1.5" d="M0,-3.0v7 M-2.5,-0.5L0,-3.0L2.5,-0.5"/>
                </g>
                <g id="arrowLeft" xlink:href="#dirArrow" transform="rotate(270) translate(-36 17)" onmousedown="handlePan(-1,0)">
                  <use xlink:href="#rim" fill="#404040">
                        <set attributeName="fill" to="#808080" begin="arrowLeft.mouseover" end="arrowLeft.mouseout"/>
                  </use>
                  <path fill="none" stroke="white" stroke-width="1.5" d="M0,-3.0v7 M-2.5,-0.5L0,-3.0L2.5,-0.5"/>
                </g>
        </g>
        <svg viewBox="0 0 15 15" width="100%" height="30px" preserveAspectRatio="xMaxYMin meet">
         <g id="arrow_out" transform="scale(0.3 0.3)">
          <a xlink:href="a00051_org.svg" target="_base">
           <rect id="button" ry="5" rx="5" y="6" x="6" height="38" width="38"
                fill="#f2f5e9" fill-opacity="0.5" stroke="#606060" stroke-width="1.0"/>
           <path id="arrow"
             d="M 11.500037,31.436501 C 11.940474,20.09759 22.043105,11.32322 32.158766,21.979434 L 37.068811,17.246167 C 37.068811,17.246167 37.088388,32 37.088388,32 L 22.160133,31.978069 C 22.160133,31.978069 26.997745,27.140456 26.997745,27.140456 C 18.528582,18.264221 13.291696,25.230495 11.500037,31.436501 z"
             style="fill:#404040;"/>
          </a>
         </g>
        </svg>
</svg>
