<?xml version="1.0" encoding="UTF-8" standalone="no"?>
<!DOCTYPE svg PUBLIC "-//W3C//DTD SVG 1.1//EN"
 "http://www.w3.org/Graphics/SVG/1.1/DTD/svg11.dtd">
<!-- Generated by graphviz version 2.40.1 (20161225.0304)
 -->
<!-- Title: std::unordered_map&lt; K, T &gt; Pages: 1 -->
<svg width="165pt" height="206pt"
 viewBox="0.00 0.00 164.52 206.00" xmlns="http://www.w3.org/2000/svg" xmlns:xlink="http://www.w3.org/1999/xlink">
<g id="graph0" class="graph" transform="scale(1 1) rotate(0) translate(4 202)">
<title>std::unordered_map&lt; K, T &gt;</title>
<!-- Node861 -->
<g id="node1" class="node">
<title>Node861</title>
<polygon fill="#bfbfbf" stroke="#000000" points="0,-.5 0,-80.5 141.3027,-80.5 141.3027,-.5 0,-.5"/>
<text text-anchor="start" x="8" y="-65.3" font-family="Helvetica,sans-Serif" font-size="14.00" fill="#000000">std::unordered_map</text>
<text text-anchor="middle" x="70.6514" y="-51.3" font-family="Helvetica,sans-Serif" font-size="14.00" fill="#000000">&lt; K, T &gt;</text>
<polyline fill="none" stroke="#000000" points="0,-44.5 141.3027,-44.5 "/>
<text text-anchor="middle" x="70.6514" y="-29.3" font-family="Helvetica,sans-Serif" font-size="14.00" fill="#000000"> </text>
<polyline fill="none" stroke="#000000" points="0,-22.5 141.3027,-22.5 "/>
<text text-anchor="middle" x="70.6514" y="-7.3" font-family="Helvetica,sans-Serif" font-size="14.00" fill="#000000"> </text>
</g>
<!-- Node862 -->
<g id="node2" class="node">
<title>Node862</title>
<polygon fill="none" stroke="#bfbfbf" points="24.1514,-131.5 24.1514,-197.5 53.1514,-197.5 53.1514,-131.5 24.1514,-131.5"/>
<text text-anchor="middle" x="38.3203" y="-182.3" font-family="Helvetica,sans-Serif" font-size="14.00" fill="#000000">K</text>
<polyline fill="none" stroke="#bfbfbf" points="24.1514,-175.5 52.4893,-175.5 "/>
<text text-anchor="middle" x="38.3203" y="-160.3" font-family="Helvetica,sans-Serif" font-size="14.00" fill="#000000"> </text>
<polyline fill="none" stroke="#bfbfbf" points="24.1514,-153.5 52.4893,-153.5 "/>
<text text-anchor="middle" x="38.3203" y="-138.3" font-family="Helvetica,sans-Serif" font-size="14.00" fill="#000000"> </text>
</g>
<!-- Node862&#45;&gt;Node861 -->
<g id="edge1" class="edge">
<title>Node862&#45;&gt;Node861</title>
<path fill="none" stroke="#404040" d="M36.2538,-131.4478C36.2788,-120.9364 37.1401,-109.3548 39.7998,-99 40.389,-96.7063 41.0834,-94.4024 41.8624,-92.105"/>
<polygon fill="none" stroke="#404040" points="41.9426,-91.9026 40.4357,-84.8507 46.3656,-80.7475 47.8725,-87.7994 41.9426,-91.9026"/>
<text text-anchor="middle" x="61.0771" y="-101.8" font-family="Helvetica,sans-Serif" font-size="14.00" fill="#000000"> +keys</text>
</g>
<!-- Node863 -->
<g id="node3" class="node">
<title>Node863</title>
<polygon fill="none" stroke="#bfbfbf" points="88.1514,-131.5 88.1514,-197.5 117.1514,-197.5 117.1514,-131.5 88.1514,-131.5"/>
<text text-anchor="middle" x="102.4272" y="-182.3" font-family="Helvetica,sans-Serif" font-size="14.00" fill="#000000">T</text>
<polyline fill="none" stroke="#bfbfbf" points="88.1514,-175.5 116.7031,-175.5 "/>
<text text-anchor="middle" x="102.4272" y="-160.3" font-family="Helvetica,sans-Serif" font-size="14.00" fill="#000000"> </text>
<polyline fill="none" stroke="#bfbfbf" points="88.1514,-153.5 116.7031,-153.5 "/>
<text text-anchor="middle" x="102.4272" y="-138.3" font-family="Helvetica,sans-Serif" font-size="14.00" fill="#000000"> </text>
</g>
<!-- Node863&#45;&gt;Node861 -->
<g id="edge2" class="edge">
<title>Node863&#45;&gt;Node861</title>
<path fill="none" stroke="#404040" d="M94.076,-131.2703C91.0143,-119.4065 87.4867,-105.7368 84.1134,-92.6655"/>
<polygon fill="none" stroke="#404040" points="84.0754,-92.5178 78.703,-87.7077 81.0768,-80.8985 86.4492,-85.7086 84.0754,-92.5178"/>
<text text-anchor="middle" x="122.0874" y="-101.8" font-family="Helvetica,sans-Serif" font-size="14.00" fill="#000000"> +elements</text>
</g>
</g>
</svg>
