<?xml version="1.0" encoding="UTF-8" standalone="no"?>
<!DOCTYPE svg PUBLIC "-//W3C//DTD SVG 1.1//EN"
 "http://www.w3.org/Graphics/SVG/1.1/DTD/svg11.dtd">
<!-- Generated by graphviz version 2.40.1 (20161225.0304)
 -->
<!-- Title: Core/GameElements/basebasis.cpp Pages: 1 -->
<svg width="715pt" height="267pt"
 viewBox="0.00 0.00 715.13 267.00" xmlns="http://www.w3.org/2000/svg" xmlns:xlink="http://www.w3.org/1999/xlink">
<g id="graph0" class="graph" transform="scale(1 1) rotate(0) translate(4 263)">
<title>Core/GameElements/basebasis.cpp</title>
<!-- Node0 -->
<g id="node1" class="node">
<title>Node0</title>
<polygon fill="#bfbfbf" stroke="#000000" points="425.6211,-236.5 425.6211,-258.5 665.7305,-258.5 665.7305,-236.5 425.6211,-236.5"/>
<text text-anchor="middle" x="545.6758" y="-243.3" font-family="Helvetica,sans-Serif" font-size="14.00" fill="#000000">Core/GameElements/basebasis.cpp</text>
</g>
<!-- Node1 -->
<g id="node2" class="node">
<title>Node1</title>
<g id="a_node2"><a xlink:href="$d2/d78/basebasis_8h.html" xlink:title="basebasis.h">
<polygon fill="none" stroke="#000000" points="464.3174,-177.5 464.3174,-199.5 555.0342,-199.5 555.0342,-177.5 464.3174,-177.5"/>
<text text-anchor="middle" x="509.6758" y="-184.3" font-family="Helvetica,sans-Serif" font-size="14.00" fill="#000000">basebasis.h</text>
</a>
</g>
</g>
<!-- Node0&#45;&gt;Node1 -->
<g id="edge1" class="edge">
<title>Node0&#45;&gt;Node1</title>
<path fill="none" stroke="#191970" d="M538.9045,-236.4026C534.0773,-228.4914 527.4563,-217.6402 521.7364,-208.266"/>
<polygon fill="#191970" stroke="#191970" points="524.6132,-206.2611 516.4167,-199.5477 518.6377,-209.9071 524.6132,-206.2611"/>
</g>
<!-- Node5 -->
<g id="node6" class="node">
<title>Node5</title>
<polygon fill="none" stroke="#bfbfbf" points="171.8828,-.5 171.8828,-22.5 273.4688,-22.5 273.4688,-.5 171.8828,-.5"/>
<text text-anchor="middle" x="222.6758" y="-7.3" font-family="Helvetica,sans-Serif" font-size="14.00" fill="#000000">QDataStream</text>
</g>
<!-- Node0&#45;&gt;Node5 -->
<g id="edge12" class="edge">
<title>Node0&#45;&gt;Node5</title>
<path fill="none" stroke="#191970" d="M566.1026,-236.4298C618.6174,-206.6407 750.2855,-122.7255 692.6758,-59 665.7546,-29.221 405.088,-17.2081 283.969,-13.2047"/>
<polygon fill="#191970" stroke="#191970" points="283.8512,-9.6992 273.7435,-12.8748 283.6254,-16.6955 283.8512,-9.6992"/>
</g>
<!-- Node2 -->
<g id="node3" class="node">
<title>Node2</title>
<g id="a_node3"><a xlink:href="$d0/d4c/ibasegameelement_8h.html" xlink:title="../ibasegameelement.h">
<polygon fill="none" stroke="#000000" points="301.8555,-118.5 301.8555,-140.5 459.4961,-140.5 459.4961,-118.5 301.8555,-118.5"/>
<text text-anchor="middle" x="380.6758" y="-125.3" font-family="Helvetica,sans-Serif" font-size="14.00" fill="#000000">../ibasegameelement.h</text>
</a>
</g>
</g>
<!-- Node1&#45;&gt;Node2 -->
<g id="edge2" class="edge">
<title>Node1&#45;&gt;Node2</title>
<path fill="none" stroke="#191970" d="M485.4119,-177.4026C465.2316,-168.1728 436.3021,-154.9415 413.9587,-144.7224"/>
<polygon fill="#191970" stroke="#191970" points="415.3806,-141.5241 404.8309,-140.5477 412.4691,-147.8899 415.3806,-141.5241"/>
</g>
<!-- Node3 -->
<g id="node4" class="node">
<title>Node3</title>
<polygon fill="none" stroke="#bfbfbf" points="0,-59.5 0,-81.5 67.3516,-81.5 67.3516,-59.5 0,-59.5"/>
<text text-anchor="middle" x="33.6758" y="-66.3" font-family="Helvetica,sans-Serif" font-size="14.00" fill="#000000">QObject</text>
</g>
<!-- Node2&#45;&gt;Node3 -->
<g id="edge3" class="edge">
<title>Node2&#45;&gt;Node3</title>
<path fill="none" stroke="#191970" d="M301.5531,-119.6701C242.1348,-111.7122 158.6201,-99.3089 77.4116,-82.226"/>
<polygon fill="#191970" stroke="#191970" points="78.031,-78.7795 67.5213,-80.1195 76.5728,-85.626 78.031,-78.7795"/>
</g>
<!-- Node4 -->
<g id="node5" class="node">
<title>Node4</title>
<g id="a_node5"><a xlink:href="$d5/df2/infinitydouble_8h.html" xlink:title="infinitydouble.h">
<polygon fill="none" stroke="#000000" points="84.9761,-59.5 84.9761,-81.5 194.3755,-81.5 194.3755,-59.5 84.9761,-59.5"/>
<text text-anchor="middle" x="139.6758" y="-66.3" font-family="Helvetica,sans-Serif" font-size="14.00" fill="#000000">infinitydouble.h</text>
</a>
</g>
</g>
<!-- Node2&#45;&gt;Node4 -->
<g id="edge4" class="edge">
<title>Node2&#45;&gt;Node4</title>
<path fill="none" stroke="#191970" d="M335.6282,-118.4718C295.7721,-108.7144 237.4883,-94.4458 194.8473,-84.0067"/>
<polygon fill="#191970" stroke="#191970" points="195.4565,-80.5526 184.911,-81.5742 193.7919,-87.3518 195.4565,-80.5526"/>
</g>
<!-- Node2&#45;&gt;Node5 -->
<g id="edge8" class="edge">
<title>Node2&#45;&gt;Node5</title>
<path fill="none" stroke="#191970" d="M333.5033,-118.4417C298.4157,-109.3151 254.485,-95.6843 241.6758,-82 229.2678,-68.7444 224.7966,-48.252 223.2651,-32.7706"/>
<polygon fill="#191970" stroke="#191970" points="226.7426,-32.309 222.5981,-22.5584 219.7574,-32.7653 226.7426,-32.309"/>
</g>
<!-- Node6 -->
<g id="node7" class="node">
<title>Node6</title>
<polygon fill="none" stroke="#bfbfbf" points="251,-59.5 251,-81.5 318.3516,-81.5 318.3516,-59.5 251,-59.5"/>
<text text-anchor="middle" x="284.6758" y="-66.3" font-family="Helvetica,sans-Serif" font-size="14.00" fill="#000000">QPointF</text>
</g>
<!-- Node2&#45;&gt;Node6 -->
<g id="edge6" class="edge">
<title>Node2&#45;&gt;Node6</title>
<path fill="none" stroke="#191970" d="M362.6189,-118.4026C348.1374,-109.5025 327.6016,-96.8815 311.2442,-86.8285"/>
<polygon fill="#191970" stroke="#191970" points="313.0039,-83.8019 302.6517,-81.5477 309.3387,-89.7656 313.0039,-83.8019"/>
</g>
<!-- Node7 -->
<g id="node8" class="node">
<title>Node7</title>
<polygon fill="none" stroke="#bfbfbf" points="336.5,-59.5 336.5,-81.5 424.8516,-81.5 424.8516,-59.5 336.5,-59.5"/>
<text text-anchor="middle" x="380.6758" y="-66.3" font-family="Helvetica,sans-Serif" font-size="14.00" fill="#000000">QByteArray</text>
</g>
<!-- Node2&#45;&gt;Node7 -->
<g id="edge7" class="edge">
<title>Node2&#45;&gt;Node7</title>
<path fill="none" stroke="#191970" d="M380.6758,-118.4026C380.6758,-110.9034 380.6758,-100.7626 380.6758,-91.7421"/>
<polygon fill="#191970" stroke="#191970" points="384.1759,-91.5477 380.6758,-81.5477 377.1759,-91.5477 384.1759,-91.5477"/>
</g>
<!-- Node8 -->
<g id="node9" class="node">
<title>Node8</title>
<polygon fill="none" stroke="#bfbfbf" points="442.9448,-59.5 442.9448,-81.5 506.4067,-81.5 506.4067,-59.5 442.9448,-59.5"/>
<text text-anchor="middle" x="474.6758" y="-66.3" font-family="Helvetica,sans-Serif" font-size="14.00" fill="#000000">QString</text>
</g>
<!-- Node2&#45;&gt;Node8 -->
<g id="edge9" class="edge">
<title>Node2&#45;&gt;Node8</title>
<path fill="none" stroke="#191970" d="M398.3565,-118.4026C412.405,-109.5849 432.2724,-97.1149 448.2149,-87.1084"/>
<polygon fill="#191970" stroke="#191970" points="450.4652,-89.8284 457.0744,-81.5477 446.7438,-83.8995 450.4652,-89.8284"/>
</g>
<!-- Node9 -->
<g id="node10" class="node">
<title>Node9</title>
<polygon fill="none" stroke="#bfbfbf" points="523.9321,-59.5 523.9321,-81.5 581.4194,-81.5 581.4194,-59.5 523.9321,-59.5"/>
<text text-anchor="middle" x="552.6758" y="-66.3" font-family="Helvetica,sans-Serif" font-size="14.00" fill="#000000">QTime</text>
</g>
<!-- Node2&#45;&gt;Node9 -->
<g id="edge10" class="edge">
<title>Node2&#45;&gt;Node9</title>
<path fill="none" stroke="#191970" d="M413.0277,-118.4026C441.7046,-108.5657 483.6322,-94.1836 514.0575,-83.747"/>
<polygon fill="#191970" stroke="#191970" points="515.5756,-86.9265 523.899,-80.3711 513.3043,-80.3052 515.5756,-86.9265"/>
</g>
<!-- Node10 -->
<g id="node11" class="node">
<title>Node10</title>
<polygon fill="none" stroke="#bfbfbf" points="599.4346,-59.5 599.4346,-81.5 683.917,-81.5 683.917,-59.5 599.4346,-59.5"/>
<text text-anchor="middle" x="641.6758" y="-66.3" font-family="Helvetica,sans-Serif" font-size="14.00" fill="#000000">QVector3D</text>
</g>
<!-- Node2&#45;&gt;Node10 -->
<g id="edge11" class="edge">
<title>Node2&#45;&gt;Node10</title>
<path fill="none" stroke="#191970" d="M429.4617,-118.4718C474.9605,-108.1866 542.6339,-92.8888 589.2658,-82.3475"/>
<polygon fill="#191970" stroke="#191970" points="590.1917,-85.7266 599.1738,-80.1077 588.6482,-78.8988 590.1917,-85.7266"/>
</g>
<!-- Node4&#45;&gt;Node5 -->
<g id="edge5" class="edge">
<title>Node4&#45;&gt;Node5</title>
<path fill="none" stroke="#191970" d="M155.2874,-59.4026C167.5761,-50.6673 184.907,-38.3477 198.9158,-28.3896"/>
<polygon fill="#191970" stroke="#191970" points="201.0114,-31.1942 207.1341,-22.5477 196.9557,-25.4888 201.0114,-31.1942"/>
</g>
</g>
</svg>
